<?xml version="1.0" encoding="UTF-8"?>
<svg xmlns="http://www.w3.org/2000/svg" width="1600" height="1100" viewBox="0 0 1600 1100" role="img" aria-labelledby="title desc">
  <title id="title">LUNA cover demo portfolio mockup</title>
  <desc id="desc">Temporary fictional demonstration project imagery for portfolio presentation only, not client work.</desc>
  <defs>
    <linearGradient id="bg_luna_cover" x1="0" y1="0" x2="1" y2="1">
      <stop offset="0%" stop-color="#fff9f5"/>
      <stop offset="58%" stop-color="#f8f0ea"/>
      <stop offset="100%" stop-color="#d8dfcf"/>
    </linearGradient>
    <radialGradient id="light_luna_cover" cx="74%" cy="18%" r="64%">
      <stop offset="0%" stop-color="#ffffff" stop-opacity="0.62"/>
      <stop offset="100%" stop-color="#ffffff" stop-opacity="0"/>
    </radialGradient>
  </defs>
  <style><![CDATA[
    .brand { font-family: Arial, Georgia, serif; font-weight: 500; letter-spacing: .02em; }
    .body { font-family: Arial, Arial, sans-serif; font-weight: 500; }
    .micro { font-family: Arial, Arial, sans-serif; font-size: 20px; font-weight: 700; letter-spacing: .12em; }
  ]]></style>
  <rect width="1600" height="1100" fill="url(#bg_luna_cover)"/>
  <rect width="1600" height="1100" fill="url(#light_luna_cover)"/>
  <rect x="86.98" y="55.22" width="27.95" height="1.66" rx="1" fill="#dfaaa3" opacity="0.08" transform="rotate(33.24 86.98 55.22)"/><rect x="509.58" y="62.28" width="26.33" height="1.87" rx="1" fill="#dfaaa3" opacity="0.03" transform="rotate(91.8 509.58 62.28)"/><circle cx="247.01" cy="14.74" r="2.04" fill="#dfaaa3" opacity="0.07"/><circle cx="742.19" cy="623.27" r="1.44" fill="#3f443c" opacity="0.05"/><rect x="1117.95" y="101.64" width="16" height="1.74" rx="1" fill="#3f443c" opacity="0.07" transform="rotate(143.19 1117.95 101.64)"/><circle cx="325.15" cy="950.62" r="0.92" fill="#3f443c" opacity="0.08"/><rect x="1326.05" y="31.51" width="6.33" height="1.73" rx="1" fill="#3f443c" opacity="0.05" transform="rotate(103.45 1326.05 31.51)"/><circle cx="586.19" cy="548.54" r="2.13" fill="#3f443c" opacity="0.07"/><circle cx="632.07" cy="751.59" r="0.92" fill="#3f443c" opacity="0.07"/><circle cx="388.2" cy="320.58" r="1.86" fill="#dfaaa3" opacity="0.05"/><rect x="677.66" y="1046.89" width="25.32" height="1.68" rx="1" fill="#dfaaa3" opacity="0.06" transform="rotate(127.91 677.66 1046.89)"/><rect x="1394.82" y="639.99" width="27.27" height="1.63" rx="1" fill="#dfaaa3" opacity="0.06" transform="rotate(157.26 1394.82 639.99)"/><circle cx="944" cy="107.94" r="2.06" fill="#dfaaa3" opacity="0.07"/><rect x="1300.02" y="730.66" width="10.87" height="1.65" rx="1" fill="#3f443c" opacity="0.07" transform="rotate(44.5 1300.02 730.66)"/><circle cx="1513.71" cy="553.18" r="2.13" fill="#3f443c" opacity="0.06"/><rect x="1207.67" y="931.79" width="6.08" height="1.18" rx="1" fill="#dfaaa3" opacity="0.03" transform="rotate(142.54 1207.67 931.79)"/><circle cx="1057.56" cy="418.6" r="2.1" fill="#3f443c" opacity="0.06"/><circle cx="9.86" cy="886.15" r="1.49" fill="#3f443c" opacity="0.07"/><circle cx="669.82" cy="390.1" r="1.22" fill="#dfaaa3" opacity="0.06"/><circle cx="1067.91" cy="754.92" r="1.96" fill="#dfaaa3" opacity="0.07"/><rect x="509.59" y="745.71" width="18.48" height="1.82" rx="1" fill="#3f443c" opacity="0.06" transform="rotate(155.98 509.59 745.71)"/><rect x="1572.79" y="1080.35" width="25.83" height="2.48" rx="1" fill="#3f443c" opacity="0.04" transform="rotate(85.58 1572.79 1080.35)"/><rect x="662.91" y="615.84" width="7.59" height="2.17" rx="1" fill="#3f443c" opacity="0.04" transform="rotate(107.14 662.91 615.84)"/><rect x="1392.64" y="788.47" width="13.34" height="1.67" rx="1" fill="#3f443c" opacity="0.07" transform="rotate(138.01 1392.64 788.47)"/><rect x="1337.92" y="982.17" width="9.09" height="2.58" rx="1" fill="#3f443c" opacity="0.07" transform="rotate(92.09 1337.92 982.17)"/><circle cx="815.43" cy="409.97" r="1.81" fill="#3f443c" opacity="0.03"/><circle cx="533.06" cy="480.49" r="1.23" fill="#3f443c" opacity="0.05"/><rect x="621.98" y="1026.5" width="17.86" height="2.07" rx="1" fill="#3f443c" opacity="0.05" transform="rotate(14.55 621.98 1026.5)"/><rect x="1479.23" y="586.33" width="9.72" height="2.58" rx="1" fill="#3f443c" opacity="0.04" transform="rotate(133.46 1479.23 586.33)"/><rect x="1246.63" y="262.65" width="23.83" height="1.13" rx="1" fill="#dfaaa3" opacity="0.07" transform="rotate(50.87 1246.63 262.65)"/><circle cx="743.57" cy="562.6" r="1.7" fill="#dfaaa3" opacity="0.08"/><rect x="364.19" y="84.61" width="10.55" height="1.36" rx="1" fill="#3f443c" opacity="0.05" transform="rotate(179.27 364.19 84.61)"/><rect x="514.16" y="371.53" width="11.14" height="1.38" rx="1" fill="#dfaaa3" opacity="0.05" transform="rotate(106.37 514.16 371.53)"/><rect x="1416.77" y="954.88" width="6.19" height="1.62" rx="1" fill="#dfaaa3" opacity="0.05" transform="rotate(178.24 1416.77 954.88)"/><rect x="1270.74" y="972.6" width="26.24" height="1.47" rx="1" fill="#3f443c" opacity="0.05" transform="rotate(54.54 1270.74 972.6)"/><rect x="1367.57" y="609.28" width="11.7" height="1.28" rx="1" fill="#dfaaa3" opacity="0.07" transform="rotate(168.46 1367.57 609.28)"/><rect x="291.42" y="219.19" width="9.72" height="2.16" rx="1" fill="#dfaaa3" opacity="0.05" transform="rotate(17.33 291.42 219.19)"/><circle cx="494.09" cy="943.56" r="1.57" fill="#3f443c" opacity="0.04"/><rect x="1564.13" y="643.34" width="20.49" height="1.59" rx="1" fill="#dfaaa3" opacity="0.07" transform="rotate(34.69 1564.13 643.34)"/><rect x="1339.01" y="1065.48" width="11.03" height="1.19" rx="1" fill="#dfaaa3" opacity="0.08" transform="rotate(38.12 1339.01 1065.48)"/><rect x="1115.61" y="165.85" width="8.08" height="1.89" rx="1" fill="#dfaaa3" opacity="0.06" transform="rotate(82.22 1115.61 165.85)"/><rect x="232.04" y="932.4" width="20.42" height="1.23" rx="1" fill="#3f443c" opacity="0.08" transform="rotate(19.47 232.04 932.4)"/><rect x="561.59" y="572.6" width="13.97" height="1.12" rx="1" fill="#dfaaa3" opacity="0.03" transform="rotate(102.75 561.59 572.6)"/><circle cx="117.82" cy="322.36" r="1.57" fill="#3f443c" opacity="0.07"/><rect x="605.98" y="740.45" width="14.47" height="0.89" rx="1" fill="#dfaaa3" opacity="0.04" transform="rotate(51.89 605.98 740.45)"/><rect x="502.38" y="373.53" width="6.3" height="1.09" rx="1" fill="#3f443c" opacity="0.08" transform="rotate(2.73 502.38 373.53)"/><circle cx="1330.51" cy="1066.59" r="2.1" fill="#3f443c" opacity="0.07"/><rect x="1089.62" y="65.98" width="21.71" height="2.13" rx="1" fill="#3f443c" opacity="0.03" transform="rotate(54.03 1089.62 65.98)"/><circle cx="524.48" cy="715.32" r="2.2" fill="#dfaaa3" opacity="0.04"/><rect x="1313.99" y="81.72" width="12.62" height="1.63" rx="1" fill="#3f443c" opacity="0.05" transform="rotate(174.57 1313.99 81.72)"/><rect x="404.53" y="361.95" width="15.49" height="2.45" rx="1" fill="#dfaaa3" opacity="0.08" transform="rotate(101.37 404.53 361.95)"/><rect x="1197.48" y="1044.93" width="10.01" height="1.25" rx="1" fill="#3f443c" opacity="0.03" transform="rotate(33.16 1197.48 1044.93)"/><circle cx="736.81" cy="397.43" r="1.6" fill="#3f443c" opacity="0.03"/><circle cx="1363.64" cy="116.51" r="2.23" fill="#dfaaa3" opacity="0.07"/><rect x="1401.19" y="980.52" width="22.52" height="2.01" rx="1" fill="#dfaaa3" opacity="0.07" transform="rotate(72.59 1401.19 980.52)"/><rect x="598.06" y="326.24" width="20.29" height="1.66" rx="1" fill="#3f443c" opacity="0.06" transform="rotate(35.97 598.06 326.24)"/><rect x="1281.42" y="195.01" width="6.44" height="1.81" rx="1" fill="#3f443c" opacity="0.04" transform="rotate(131.82 1281.42 195.01)"/><rect x="1456.16" y="335.53" width="24.37" height="1.78" rx="1" fill="#dfaaa3" opacity="0.03" transform="rotate(170.62 1456.16 335.53)"/><circle cx="1295.89" cy="21.39" r="1.17" fill="#3f443c" opacity="0.08"/><rect x="405.97" y="2.47" width="27.74" height="0.85" rx="1" fill="#3f443c" opacity="0.06" transform="rotate(91.06 405.97 2.47)"/><circle cx="831.21" cy="627.56" r="0.98" fill="#dfaaa3" opacity="0.03"/><rect x="560.95" y="645.74" width="17.67" height="1.77" rx="1" fill="#3f443c" opacity="0.06" transform="rotate(67.55 560.95 645.74)"/><rect x="873.54" y="529.47" width="23.13" height="1.77" rx="1" fill="#3f443c" opacity="0.06" transform="rotate(51.41 873.54 529.47)"/><circle cx="905.07" cy="938.58" r="2.16" fill="#dfaaa3" opacity="0.08"/><rect x="1233.65" y="564.95" width="7.94" height="1.52" rx="1" fill="#dfaaa3" opacity="0.05" transform="rotate(40.09 1233.65 564.95)"/><circle cx="1142.41" cy="604.51" r="2.02" fill="#dfaaa3" opacity="0.07"/><rect x="225.24" y="501.46" width="20.09" height="2.05" rx="1" fill="#dfaaa3" opacity="0.07" transform="rotate(96.18 225.24 501.46)"/><circle cx="1382.74" cy="921.74" r="0.72" fill="#3f443c" opacity="0.07"/><circle cx="686.64" cy="760.1" r="1.07" fill="#dfaaa3" opacity="0.04"/><circle cx="654.04" cy="622.54" r="1.14" fill="#dfaaa3" opacity="0.05"/><circle cx="813.68" cy="1013.08" r="2.25" fill="#dfaaa3" opacity="0.04"/><rect x="991.16" y="633.5" width="8.71" height="1.24" rx="1" fill="#dfaaa3" opacity="0.07" transform="rotate(29.99 991.16 633.5)"/><rect x="1240.85" y="487.71" width="23.4" height="2.56" rx="1" fill="#3f443c" opacity="0.04" transform="rotate(174.26 1240.85 487.71)"/><rect x="26.56" y="1044.19" width="15.86" height="1.81" rx="1" fill="#dfaaa3" opacity="0.08" transform="rotate(95.04 26.56 1044.19)"/><circle cx="1344.99" cy="392.26" r="1.69" fill="#dfaaa3" opacity="0.03"/><circle cx="598.88" cy="659.43" r="2.16" fill="#3f443c" opacity="0.04"/><circle cx="138.74" cy="356.37" r="1.98" fill="#3f443c" opacity="0.07"/><rect x="1437.96" y="203.28" width="11.63" height="1.35" rx="1" fill="#dfaaa3" opacity="0.04" transform="rotate(60.48 1437.96 203.28)"/><rect x="859.47" y="140.3" width="26.92" height="1.9" rx="1" fill="#3f443c" opacity="0.08" transform="rotate(94.43 859.47 140.3)"/><rect x="1136.18" y="553.39" width="20.76" height="2.55" rx="1" fill="#3f443c" opacity="0.03" transform="rotate(96.02 1136.18 553.39)"/><rect x="616.98" y="734.32" width="13.52" height="1.46" rx="1" fill="#dfaaa3" opacity="0.06" transform="rotate(52.15 616.98 734.32)"/><rect x="394.3" y="82.38" width="27.37" height="2.52" rx="1" fill="#dfaaa3" opacity="0.04" transform="rotate(114.36 394.3 82.38)"/><rect x="1590.83" y="243.01" width="9.23" height="0.99" rx="1" fill="#3f443c" opacity="0.04" transform="rotate(6.16 1590.83 243.01)"/><circle cx="1461.32" cy="374.45" r="1.94" fill="#3f443c" opacity="0.07"/><rect x="236.78" y="257.62" width="18.38" height="2.49" rx="1" fill="#3f443c" opacity="0.05" transform="rotate(91.2 236.78 257.62)"/><rect x="875.01" y="60.53" width="25.1" height="1.93" rx="1" fill="#dfaaa3" opacity="0.03" transform="rotate(135.94 875.01 60.53)"/><circle cx="417.35" cy="511.97" r="1.68" fill="#3f443c" opacity="0.05"/><circle cx="287.93" cy="371.19" r="0.96" fill="#dfaaa3" opacity="0.04"/><rect x="1469.15" y="447.81" width="6.21" height="2.45" rx="1" fill="#dfaaa3" opacity="0.04" transform="rotate(124.41 1469.15 447.81)"/><circle cx="392.27" cy="7.71" r="2.13" fill="#dfaaa3" opacity="0.06"/><circle cx="316.67" cy="678.01" r="2.16" fill="#3f443c" opacity="0.03"/><rect x="246.83" y="715.42" width="24.66" height="2.43" rx="1" fill="#dfaaa3" opacity="0.03" transform="rotate(96.64 246.83 715.42)"/><circle cx="829.22" cy="710.93" r="0.77" fill="#3f443c" opacity="0.03"/><rect x="727.63" y="219.21" width="25.82" height="2.2" rx="1" fill="#dfaaa3" opacity="0.06" transform="rotate(170.06 727.63 219.21)"/><rect x="1578.15" y="72.4" width="6.06" height="1.72" rx="1" fill="#3f443c" opacity="0.05" transform="rotate(106.87 1578.15 72.4)"/><rect x="391.33" y="258.38" width="27.62" height="1.38" rx="1" fill="#3f443c" opacity="0.07" transform="rotate(81.29 391.33 258.38)"/><circle cx="1340.89" cy="915.01" r="1.32" fill="#dfaaa3" opacity="0.03"/><circle cx="1495.03" cy="453.6" r="1.44" fill="#dfaaa3" opacity="0.07"/><circle cx="806.22" cy="562.03" r="1.07" fill="#3f443c" opacity="0.04"/><rect x="686.12" y="651.26" width="24.65" height="1.63" rx="1" fill="#3f443c" opacity="0.06" transform="rotate(173.43 686.12 651.26)"/><rect x="1171.24" y="823.77" width="6.79" height="0.96" rx="1" fill="#dfaaa3" opacity="0.03" transform="rotate(19.23 1171.24 823.77)"/><rect x="443.05" y="1008.2" width="15.72" height="1.64" rx="1" fill="#dfaaa3" opacity="0.06" transform="rotate(63.4 443.05 1008.2)"/><circle cx="831.66" cy="592.05" r="0.74" fill="#dfaaa3" opacity="0.04"/><rect x="878.1" y="363.32" width="12.4" height="1.59" rx="1" fill="#dfaaa3" opacity="0.03" transform="rotate(98.19 878.1 363.32)"/><circle cx="10.58" cy="265.42" r="1.8" fill="#dfaaa3" opacity="0.08"/><rect x="572.63" y="1043.42" width="24.2" height="2.26" rx="1" fill="#dfaaa3" opacity="0.06" transform="rotate(80.87 572.63 1043.42)"/><rect x="869.02" y="146.97" width="26.45" height="1.21" rx="1" fill="#dfaaa3" opacity="0.07" transform="rotate(44.18 869.02 146.97)"/><rect x="404.94" y="523.89" width="9.11" height="0.92" rx="1" fill="#3f443c" opacity="0.05" transform="rotate(140.05 404.94 523.89)"/><rect x="169.64" y="949.06" width="12.66" height="1.89" rx="1" fill="#3f443c" opacity="0.06" transform="rotate(37.93 169.64 949.06)"/><rect x="1534.72" y="397.77" width="11.73" height="1.26" rx="1" fill="#dfaaa3" opacity="0.05" transform="rotate(121.74 1534.72 397.77)"/><circle cx="1460.06" cy="922.14" r="0.8" fill="#dfaaa3" opacity="0.03"/><circle cx="1322.15" cy="273.09" r="0.8" fill="#3f443c" opacity="0.04"/><circle cx="238.43" cy="374.4" r="1.92" fill="#dfaaa3" opacity="0.06"/><rect x="480.18" y="559.15" width="21" height="2.46" rx="1" fill="#dfaaa3" opacity="0.06" transform="rotate(157.87 480.18 559.15)"/><circle cx="1277.59" cy="28.7" r="1.02" fill="#3f443c" opacity="0.06"/><rect x="494.37" y="136.02" width="8.01" height="2.37" rx="1" fill="#dfaaa3" opacity="0.07" transform="rotate(118 494.37 136.02)"/><circle cx="822.74" cy="328.58" r="0.7" fill="#dfaaa3" opacity="0.04"/><rect x="767.56" y="641.36" width="13.64" height="2.53" rx="1" fill="#dfaaa3" opacity="0.07" transform="rotate(154.84 767.56 641.36)"/><circle cx="1256.69" cy="941.28" r="1.06" fill="#3f443c" opacity="0.03"/><circle cx="1301.13" cy="693.7" r="1.07" fill="#dfaaa3" opacity="0.04"/><rect x="497.96" y="881.78" width="7.77" height="2.15" rx="1" fill="#dfaaa3" opacity="0.07" transform="rotate(64.02 497.96 881.78)"/><rect x="350.42" y="464.35" width="19.49" height="1.59" rx="1" fill="#3f443c" opacity="0.04" transform="rotate(114.88 350.42 464.35)"/><rect x="291.49" y="871.08" width="20.17" height="1.8" rx="1" fill="#dfaaa3" opacity="0.04" transform="rotate(62.56 291.49 871.08)"/><rect x="469.47" y="146.33" width="8.56" height="1.93" rx="1" fill="#dfaaa3" opacity="0.03" transform="rotate(8.05 469.47 146.33)"/><rect x="1002.84" y="6.84" width="13.37" height="1.39" rx="1" fill="#dfaaa3" opacity="0.05" transform="rotate(82.3 1002.84 6.84)"/><circle cx="794.84" cy="230.63" r="1.95" fill="#3f443c" opacity="0.04"/><rect x="107.85" y="575.8" width="8.47" height="0.83" rx="1" fill="#dfaaa3" opacity="0.03" transform="rotate(52.09 107.85 575.8)"/><rect x="160.39" y="931.49" width="15.65" height="2.41" rx="1" fill="#dfaaa3" opacity="0.05" transform="rotate(177.91 160.39 931.49)"/><rect x="142.48" y="838.9" width="10.63" height="1.94" rx="1" fill="#3f443c" opacity="0.05" transform="rotate(175.82 142.48 838.9)"/><rect x="1305.65" y="410.05" width="12.6" height="1.45" rx="1" fill="#3f443c" opacity="0.07" transform="rotate(127.92 1305.65 410.05)"/><circle cx="146.42" cy="337.93" r="0.75" fill="#dfaaa3" opacity="0.07"/><circle cx="354.89" cy="1079.85" r="2.18" fill="#dfaaa3" opacity="0.03"/><rect x="678.54" y="523.08" width="26.26" height="2.53" rx="1" fill="#dfaaa3" opacity="0.03" transform="rotate(142.33 678.54 523.08)"/><circle cx="1002.02" cy="392.82" r="0.86" fill="#3f443c" opacity="0.07"/><rect x="877.63" y="973.8" width="11.67" height="1.79" rx="1" fill="#dfaaa3" opacity="0.06" transform="rotate(65.22 877.63 973.8)"/><circle cx="63.46" cy="562.15" r="1.59" fill="#3f443c" opacity="0.06"/><circle cx="1451.69" cy="296.11" r="1.69" fill="#3f443c" opacity="0.07"/><circle cx="1184.28" cy="1022.82" r="2.22" fill="#dfaaa3" opacity="0.03"/><circle cx="1252.89" cy="355.88" r="1.9" fill="#dfaaa3" opacity="0.08"/><rect x="977.69" y="972.84" width="19.25" height="1.76" rx="1" fill="#dfaaa3" opacity="0.07" transform="rotate(102.19 977.69 972.84)"/>
  <circle cx="1350" cy="178" r="184" fill="#dfaaa3" opacity="0.06"/>
  <circle cx="220" cy="894" r="220" fill="#7d8c75" opacity="0.08"/>
  <g transform="rotate(-5 515 535)">
    <ellipse cx="533" cy="864.6" rx="174.9" ry="66" fill="#1f211d" opacity="0.14"/>
    <rect x="350" y="205" width="330" height="660" rx="46.2" fill="#4e5949"/>
    <rect x="368" y="223" width="294" height="624" rx="36.3" fill="#fff9f5"/>
    <text x="392.9" y="310.6" class="micro" fill="#3f443c" opacity="0.62">LUNA</text>
    <rect x="392.9" y="370" width="72.6" height="72.6" rx="10" fill="#d8dfcf" opacity="0.92"/><rect x="475.5" y="370" width="72.6" height="72.6" rx="10" fill="#7d8c75" opacity="0.92"/><rect x="558.1" y="370" width="72.6" height="72.6" rx="10" fill="#dfaaa3" opacity="0.92"/><rect x="392.9" y="452.6" width="72.6" height="72.6" rx="10" fill="#fff9f5" opacity="0.92"/><rect x="475.5" y="452.6" width="72.6" height="72.6" rx="10" fill="#d8dfcf" opacity="0.92"/><rect x="558.1" y="452.6" width="72.6" height="72.6" rx="10" fill="#7d8c75" opacity="0.92"/><rect x="392.9" y="535.2" width="72.6" height="72.6" rx="10" fill="#dfaaa3" opacity="0.92"/><rect x="475.5" y="535.2" width="72.6" height="72.6" rx="10" fill="#fff9f5" opacity="0.92"/><rect x="558.1" y="535.2" width="72.6" height="72.6" rx="10" fill="#d8dfcf" opacity="0.92"/>
  </g><g transform="rotate(5 897 430)">
    <ellipse cx="909" cy="613.6" rx="164.3" ry="36" fill="#1f211d" opacity="0.09"/>
    <rect x="742" y="250" width="310" height="360" rx="14" fill="#fff9f5"/>
    <rect x="764" y="272" width="266" height="172.8" rx="10" fill="#dfaaa3"/>
    <text x="766" y="487.6" class="brand" fill="#3f443c" font-size="27.9">GRID</text>
    <rect x="766" y="516.4" width="80.1" height="3" rx="2" fill="#3f443c" opacity="0.42"/><rect x="766" y="538.4" width="120.16" height="2" rx="2" fill="#3f443c" opacity="0.22"/><rect x="766" y="560.4" width="160.21" height="2" rx="2" fill="#3f443c" opacity="0.22"/>
  </g><g transform="rotate(-6 1140 700)">
    <ellipse cx="1152" cy="846.8" rx="143.1" ry="28" fill="#1f211d" opacity="0.09"/>
    <rect x="1005" y="560" width="270" height="280" rx="14" fill="#fff9f5"/>
    <rect x="1027" y="582" width="226" height="134.4" rx="10" fill="#d8dfcf"/>
    <text x="1029" y="744.8" class="brand" fill="#3f443c" font-size="24.3">STORY</text>
    <rect x="1029" y="767.2" width="69.77" height="3" rx="2" fill="#3f443c" opacity="0.42"/><rect x="1029" y="789.2" width="104.65" height="2" rx="2" fill="#3f443c" opacity="0.22"/><rect x="1029" y="811.2" width="139.54" height="2" rx="2" fill="#3f443c" opacity="0.22"/>
  </g>
  <g opacity="0.72"><text x="78" y="1004" class="micro" fill="#3f443c">SOCIAL MEDIA DESIGN SYSTEM</text><text x="78" y="1036" class="micro" fill="#3f443c" opacity="0.55">TEMPORARY DEMONSTRATION PORTFOLIO VISUAL / COVER</text></g>
</svg>
