<?xml version="1.0" encoding="UTF-8"?>
<svg xmlns="http://www.w3.org/2000/svg" width="1600" height="1100" viewBox="0 0 1600 1100" role="img" aria-labelledby="title desc">
  <title id="title">LUNA gallery-3 demo portfolio mockup</title>
  <desc id="desc">Temporary fictional demonstration project imagery for portfolio presentation only, not client work.</desc>
  <defs>
    <linearGradient id="bg_luna_gallery_3" x1="0" y1="0" x2="1" y2="1">
      <stop offset="0%" stop-color="#fff9f5"/>
      <stop offset="58%" stop-color="#f8f0ea"/>
      <stop offset="100%" stop-color="#d8dfcf"/>
    </linearGradient>
    <radialGradient id="light_luna_gallery_3" cx="74%" cy="18%" r="64%">
      <stop offset="0%" stop-color="#ffffff" stop-opacity="0.62"/>
      <stop offset="100%" stop-color="#ffffff" stop-opacity="0"/>
    </radialGradient>
  </defs>
  <style><![CDATA[
    .brand { font-family: Arial, Georgia, serif; font-weight: 500; letter-spacing: .02em; }
    .body { font-family: Arial, Arial, sans-serif; font-weight: 500; }
    .micro { font-family: Arial, Arial, sans-serif; font-size: 20px; font-weight: 700; letter-spacing: .12em; }
  ]]></style>
  <rect width="1600" height="1100" fill="url(#bg_luna_gallery_3)"/>
  <rect width="1600" height="1100" fill="url(#light_luna_gallery_3)"/>
  <rect x="996.39" y="652.65" width="9.62" height="1.4" rx="1" fill="#3f443c" opacity="0.07" transform="rotate(92.78 996.39 652.65)"/><rect x="183.51" y="290" width="11.8" height="2.11" rx="1" fill="#dfaaa3" opacity="0.03" transform="rotate(159.06 183.51 290)"/><circle cx="1596.24" cy="869.28" r="1.03" fill="#dfaaa3" opacity="0.06"/><rect x="1228.02" y="283.12" width="24.52" height="2.21" rx="1" fill="#dfaaa3" opacity="0.05" transform="rotate(35.83 1228.02 283.12)"/><rect x="1543.99" y="727.01" width="27.15" height="1.26" rx="1" fill="#dfaaa3" opacity="0.07" transform="rotate(91.69 1543.99 727.01)"/><rect x="1234.34" y="211.32" width="16.96" height="0.96" rx="1" fill="#3f443c" opacity="0.05" transform="rotate(154.06 1234.34 211.32)"/><rect x="849.28" y="225.87" width="11.79" height="1.9" rx="1" fill="#3f443c" opacity="0.03" transform="rotate(74.08 849.28 225.87)"/><rect x="1166" y="638.29" width="20.77" height="1.27" rx="1" fill="#3f443c" opacity="0.08" transform="rotate(77.89 1166 638.29)"/><rect x="983.92" y="429.46" width="16.12" height="1.04" rx="1" fill="#3f443c" opacity="0.04" transform="rotate(132.78 983.92 429.46)"/><circle cx="275.1" cy="617.78" r="2.24" fill="#dfaaa3" opacity="0.07"/><rect x="1337.87" y="586.05" width="9.67" height="1.15" rx="1" fill="#dfaaa3" opacity="0.03" transform="rotate(112.23 1337.87 586.05)"/><rect x="213.63" y="1039.13" width="8.1" height="1.55" rx="1" fill="#3f443c" opacity="0.04" transform="rotate(47.09 213.63 1039.13)"/><rect x="1280.44" y="1086.02" width="10.54" height="2.24" rx="1" fill="#3f443c" opacity="0.05" transform="rotate(151.93 1280.44 1086.02)"/><circle cx="884.75" cy="1082.18" r="0.8" fill="#dfaaa3" opacity="0.08"/><rect x="415.19" y="724.29" width="14.56" height="1.5" rx="1" fill="#3f443c" opacity="0.04" transform="rotate(40.76 415.19 724.29)"/><circle cx="215.09" cy="1075.03" r="0.85" fill="#3f443c" opacity="0.07"/><rect x="33.66" y="28.87" width="17.42" height="1.36" rx="1" fill="#dfaaa3" opacity="0.05" transform="rotate(160.81 33.66 28.87)"/><rect x="296.82" y="239.49" width="12.48" height="0.83" rx="1" fill="#3f443c" opacity="0.05" transform="rotate(119.94 296.82 239.49)"/><circle cx="276.77" cy="716.41" r="1.7" fill="#dfaaa3" opacity="0.07"/><rect x="332.76" y="1070.84" width="8.48" height="2.29" rx="1" fill="#dfaaa3" opacity="0.07" transform="rotate(6.86 332.76 1070.84)"/><rect x="608.51" y="443.23" width="23.58" height="1.04" rx="1" fill="#3f443c" opacity="0.06" transform="rotate(38.52 608.51 443.23)"/><rect x="249.23" y="321.24" width="10.53" height="2.56" rx="1" fill="#dfaaa3" opacity="0.06" transform="rotate(54.61 249.23 321.24)"/><circle cx="1515.88" cy="729.21" r="1.24" fill="#dfaaa3" opacity="0.05"/><rect x="476" y="476.77" width="26.46" height="1.09" rx="1" fill="#dfaaa3" opacity="0.08" transform="rotate(141.76 476 476.77)"/><rect x="836.62" y="144.9" width="15.39" height="1.85" rx="1" fill="#3f443c" opacity="0.03" transform="rotate(170 836.62 144.9)"/><rect x="569.39" y="856.66" width="20.58" height="1.12" rx="1" fill="#3f443c" opacity="0.03" transform="rotate(26.39 569.39 856.66)"/><circle cx="1414.01" cy="1038.39" r="0.93" fill="#3f443c" opacity="0.03"/><rect x="1042.38" y="1072.02" width="15.85" height="1.15" rx="1" fill="#3f443c" opacity="0.05" transform="rotate(176.93 1042.38 1072.02)"/><rect x="1223.05" y="241.55" width="8.15" height="1.51" rx="1" fill="#3f443c" opacity="0.07" transform="rotate(171.39 1223.05 241.55)"/><circle cx="683.57" cy="704.95" r="1.37" fill="#3f443c" opacity="0.07"/><circle cx="233.08" cy="794.12" r="0.87" fill="#3f443c" opacity="0.08"/><rect x="958.48" y="145.97" width="17.02" height="1.51" rx="1" fill="#dfaaa3" opacity="0.04" transform="rotate(141.92 958.48 145.97)"/><rect x="736.32" y="252.24" width="6.21" height="1.23" rx="1" fill="#dfaaa3" opacity="0.06" transform="rotate(39.48 736.32 252.24)"/><circle cx="1580.81" cy="606.43" r="1.31" fill="#3f443c" opacity="0.04"/><circle cx="733.36" cy="21.19" r="1.51" fill="#3f443c" opacity="0.05"/><rect x="1488.88" y="298.82" width="24.23" height="2" rx="1" fill="#3f443c" opacity="0.08" transform="rotate(82.64 1488.88 298.82)"/><circle cx="34.4" cy="223.65" r="2.1" fill="#3f443c" opacity="0.06"/><rect x="230.5" y="923.7" width="25.13" height="2.35" rx="1" fill="#dfaaa3" opacity="0.06" transform="rotate(77.03 230.5 923.7)"/><rect x="1552.18" y="273.71" width="8.5" height="2.28" rx="1" fill="#dfaaa3" opacity="0.06" transform="rotate(147.67 1552.18 273.71)"/><rect x="1173.25" y="96.67" width="6.92" height="1.69" rx="1" fill="#dfaaa3" opacity="0.06" transform="rotate(109.07 1173.25 96.67)"/><rect x="13.07" y="492.5" width="26.25" height="2.44" rx="1" fill="#dfaaa3" opacity="0.03" transform="rotate(28.17 13.07 492.5)"/><rect x="914.23" y="107.77" width="12.13" height="2.13" rx="1" fill="#dfaaa3" opacity="0.08" transform="rotate(25.24 914.23 107.77)"/><circle cx="1486.16" cy="888.83" r="0.86" fill="#3f443c" opacity="0.04"/><rect x="896.96" y="1079.71" width="20.69" height="1.8" rx="1" fill="#3f443c" opacity="0.04" transform="rotate(136.79 896.96 1079.71)"/><rect x="1588.85" y="12.73" width="19.66" height="2.16" rx="1" fill="#3f443c" opacity="0.08" transform="rotate(33.86 1588.85 12.73)"/><rect x="1495.52" y="127.7" width="25.91" height="1.79" rx="1" fill="#dfaaa3" opacity="0.05" transform="rotate(91.45 1495.52 127.7)"/><circle cx="942.72" cy="797.31" r="2.05" fill="#3f443c" opacity="0.03"/><rect x="379.01" y="39.12" width="9.04" height="2.4" rx="1" fill="#dfaaa3" opacity="0.06" transform="rotate(18.75 379.01 39.12)"/><circle cx="1368.83" cy="803.32" r="2.07" fill="#3f443c" opacity="0.03"/><rect x="551.04" y="837.7" width="21.54" height="2.22" rx="1" fill="#3f443c" opacity="0.08" transform="rotate(23.7 551.04 837.7)"/><circle cx="2.54" cy="972.1" r="2" fill="#3f443c" opacity="0.05"/><rect x="1063.51" y="1035" width="19.04" height="1.67" rx="1" fill="#3f443c" opacity="0.07" transform="rotate(144.37 1063.51 1035)"/><circle cx="988.86" cy="437.71" r="0.85" fill="#dfaaa3" opacity="0.05"/><rect x="1206.59" y="435.73" width="16.66" height="2.26" rx="1" fill="#dfaaa3" opacity="0.08" transform="rotate(29.99 1206.59 435.73)"/><rect x="1430.97" y="983.3" width="22.38" height="1.21" rx="1" fill="#dfaaa3" opacity="0.07" transform="rotate(21.84 1430.97 983.3)"/><rect x="1540.75" y="634.88" width="24.03" height="2.21" rx="1" fill="#dfaaa3" opacity="0.05" transform="rotate(166.64 1540.75 634.88)"/><rect x="598.83" y="115.26" width="19.53" height="1.17" rx="1" fill="#dfaaa3" opacity="0.07" transform="rotate(150.24 598.83 115.26)"/><rect x="878.22" y="51.64" width="24.28" height="2.34" rx="1" fill="#3f443c" opacity="0.07" transform="rotate(129.94 878.22 51.64)"/><circle cx="253.54" cy="308.27" r="1.09" fill="#dfaaa3" opacity="0.07"/><rect x="1472.46" y="828.73" width="14.68" height="1.06" rx="1" fill="#3f443c" opacity="0.04" transform="rotate(50.23 1472.46 828.73)"/><rect x="1509.35" y="152.98" width="9.02" height="1.77" rx="1" fill="#3f443c" opacity="0.05" transform="rotate(108.6 1509.35 152.98)"/><circle cx="1154.13" cy="298.6" r="1.26" fill="#dfaaa3" opacity="0.04"/><rect x="1518.47" y="276.49" width="24.51" height="1.5" rx="1" fill="#dfaaa3" opacity="0.06" transform="rotate(66.21 1518.47 276.49)"/><circle cx="1146.83" cy="919.92" r="1.53" fill="#3f443c" opacity="0.08"/><rect x="495.33" y="381.44" width="12.43" height="2.49" rx="1" fill="#3f443c" opacity="0.05" transform="rotate(65.59 495.33 381.44)"/><rect x="917.69" y="677.84" width="16.94" height="2.14" rx="1" fill="#3f443c" opacity="0.05" transform="rotate(14.35 917.69 677.84)"/><rect x="497.78" y="542.81" width="10.44" height="1.93" rx="1" fill="#dfaaa3" opacity="0.07" transform="rotate(79.05 497.78 542.81)"/><circle cx="1074.96" cy="795.39" r="1.76" fill="#3f443c" opacity="0.05"/><rect x="206.29" y="648.74" width="10.24" height="2.37" rx="1" fill="#dfaaa3" opacity="0.03" transform="rotate(68.98 206.29 648.74)"/><rect x="171.58" y="929.5" width="8.08" height="1.57" rx="1" fill="#3f443c" opacity="0.08" transform="rotate(53.93 171.58 929.5)"/><circle cx="204.17" cy="1030.51" r="1.92" fill="#dfaaa3" opacity="0.07"/><rect x="1377.12" y="858.47" width="24.46" height="1.01" rx="1" fill="#3f443c" opacity="0.05" transform="rotate(102.39 1377.12 858.47)"/><rect x="654.59" y="663.66" width="25.78" height="2.28" rx="1" fill="#dfaaa3" opacity="0.04" transform="rotate(27.66 654.59 663.66)"/><rect x="1084.04" y="857.08" width="20.67" height="2.29" rx="1" fill="#3f443c" opacity="0.04" transform="rotate(139.17 1084.04 857.08)"/><circle cx="926.23" cy="256.95" r="2.16" fill="#dfaaa3" opacity="0.04"/><circle cx="995.36" cy="81.49" r="1.4" fill="#dfaaa3" opacity="0.07"/><rect x="692.21" y="484.71" width="18.52" height="2.57" rx="1" fill="#3f443c" opacity="0.06" transform="rotate(0.86 692.21 484.71)"/><rect x="23.86" y="1021.83" width="9.22" height="1.83" rx="1" fill="#dfaaa3" opacity="0.07" transform="rotate(32.24 23.86 1021.83)"/><rect x="1421.25" y="333.39" width="26.14" height="2.25" rx="1" fill="#3f443c" opacity="0.05" transform="rotate(140.6 1421.25 333.39)"/><circle cx="1379.51" cy="810.43" r="1.5" fill="#dfaaa3" opacity="0.04"/><circle cx="1480.63" cy="784.43" r="0.92" fill="#3f443c" opacity="0.06"/><rect x="1449.4" y="783.28" width="7.87" height="1.26" rx="1" fill="#3f443c" opacity="0.03" transform="rotate(164.95 1449.4 783.28)"/><circle cx="59.7" cy="224.07" r="2.16" fill="#3f443c" opacity="0.05"/><circle cx="1446.76" cy="463.32" r="1.64" fill="#3f443c" opacity="0.05"/><rect x="623.24" y="983.61" width="23.22" height="0.8" rx="1" fill="#3f443c" opacity="0.03" transform="rotate(88.79 623.24 983.61)"/><rect x="1153.18" y="1013.69" width="19.59" height="2.3" rx="1" fill="#3f443c" opacity="0.06" transform="rotate(133.05 1153.18 1013.69)"/><rect x="783.03" y="1077.19" width="9.88" height="2.58" rx="1" fill="#dfaaa3" opacity="0.05" transform="rotate(138.84 783.03 1077.19)"/><rect x="1408.23" y="358.49" width="10.22" height="2.49" rx="1" fill="#dfaaa3" opacity="0.07" transform="rotate(26.06 1408.23 358.49)"/><rect x="641.9" y="574.01" width="13.1" height="2.16" rx="1" fill="#dfaaa3" opacity="0.05" transform="rotate(5.3 641.9 574.01)"/><circle cx="1225.31" cy="20.32" r="1.65" fill="#3f443c" opacity="0.05"/><rect x="393.74" y="707.76" width="17.31" height="1.65" rx="1" fill="#3f443c" opacity="0.03" transform="rotate(36.21 393.74 707.76)"/><rect x="62.2" y="174.77" width="18.83" height="2.39" rx="1" fill="#dfaaa3" opacity="0.06" transform="rotate(110.7 62.2 174.77)"/><rect x="205.13" y="890.57" width="26.28" height="1" rx="1" fill="#dfaaa3" opacity="0.08" transform="rotate(128.55 205.13 890.57)"/><rect x="1017.82" y="144.74" width="9.12" height="1.7" rx="1" fill="#3f443c" opacity="0.08" transform="rotate(170.42 1017.82 144.74)"/><rect x="200.61" y="550.37" width="25.21" height="2.19" rx="1" fill="#dfaaa3" opacity="0.06" transform="rotate(174.93 200.61 550.37)"/><circle cx="41.8" cy="1054.97" r="1.97" fill="#3f443c" opacity="0.06"/><circle cx="222.81" cy="164.18" r="1.49" fill="#3f443c" opacity="0.05"/><rect x="335" y="713.46" width="15.18" height="2.45" rx="1" fill="#3f443c" opacity="0.06" transform="rotate(33.71 335 713.46)"/><circle cx="251.71" cy="293.82" r="2.25" fill="#dfaaa3" opacity="0.03"/><rect x="564.32" y="25.02" width="16.94" height="2.05" rx="1" fill="#dfaaa3" opacity="0.03" transform="rotate(4.05 564.32 25.02)"/><rect x="711.43" y="924.78" width="9.61" height="1.93" rx="1" fill="#dfaaa3" opacity="0.05" transform="rotate(126.97 711.43 924.78)"/><circle cx="513.46" cy="44.68" r="1.76" fill="#3f443c" opacity="0.03"/><rect x="67.44" y="1096.47" width="12.48" height="0.86" rx="1" fill="#3f443c" opacity="0.04" transform="rotate(128.91 67.44 1096.47)"/><rect x="1301.79" y="348.35" width="8.02" height="1.46" rx="1" fill="#dfaaa3" opacity="0.05" transform="rotate(118.56 1301.79 348.35)"/><circle cx="1509.17" cy="498.89" r="1.8" fill="#3f443c" opacity="0.03"/><circle cx="1515.01" cy="60.85" r="1.1" fill="#dfaaa3" opacity="0.05"/><circle cx="557.4" cy="1054.38" r="1.05" fill="#dfaaa3" opacity="0.04"/><circle cx="195.39" cy="701.05" r="0.93" fill="#dfaaa3" opacity="0.05"/><circle cx="381.6" cy="430.22" r="2.09" fill="#3f443c" opacity="0.07"/><rect x="1474.13" y="717.38" width="15.59" height="2.07" rx="1" fill="#dfaaa3" opacity="0.07" transform="rotate(42.04 1474.13 717.38)"/><rect x="363.83" y="416.37" width="26.06" height="2.03" rx="1" fill="#3f443c" opacity="0.04" transform="rotate(113.39 363.83 416.37)"/><rect x="1446.07" y="87.62" width="27" height="1.73" rx="1" fill="#3f443c" opacity="0.05" transform="rotate(85.21 1446.07 87.62)"/><rect x="21.3" y="957.06" width="6.54" height="2.08" rx="1" fill="#3f443c" opacity="0.03" transform="rotate(40.82 21.3 957.06)"/><rect x="1400.54" y="162.06" width="18.43" height="1.64" rx="1" fill="#dfaaa3" opacity="0.03" transform="rotate(16.6 1400.54 162.06)"/><rect x="1196.08" y="264.61" width="20.54" height="1.37" rx="1" fill="#3f443c" opacity="0.05" transform="rotate(75.81 1196.08 264.61)"/><rect x="1324.95" y="316.21" width="18.3" height="1.4" rx="1" fill="#dfaaa3" opacity="0.04" transform="rotate(61.68 1324.95 316.21)"/><circle cx="1580.42" cy="743.56" r="0.77" fill="#dfaaa3" opacity="0.06"/><circle cx="1444.73" cy="472.38" r="2.26" fill="#3f443c" opacity="0.06"/><rect x="608.37" y="34.94" width="21.75" height="2.5" rx="1" fill="#3f443c" opacity="0.04" transform="rotate(147.05 608.37 34.94)"/><circle cx="407.14" cy="721.96" r="1.66" fill="#3f443c" opacity="0.06"/><circle cx="598.98" cy="820.8" r="1.94" fill="#3f443c" opacity="0.08"/><circle cx="715.16" cy="921.59" r="1.89" fill="#3f443c" opacity="0.03"/><rect x="415.46" y="352.54" width="25.72" height="2.3" rx="1" fill="#3f443c" opacity="0.05" transform="rotate(156.91 415.46 352.54)"/><rect x="614.57" y="126.72" width="15.19" height="1.13" rx="1" fill="#3f443c" opacity="0.03" transform="rotate(101.43 614.57 126.72)"/><rect x="1302.35" y="710.74" width="15.87" height="1.29" rx="1" fill="#dfaaa3" opacity="0.05" transform="rotate(154.89 1302.35 710.74)"/><rect x="1387.91" y="331.78" width="14.72" height="2.05" rx="1" fill="#dfaaa3" opacity="0.06" transform="rotate(85.86 1387.91 331.78)"/><rect x="638.68" y="102.35" width="20.74" height="1.66" rx="1" fill="#3f443c" opacity="0.04" transform="rotate(8.05 638.68 102.35)"/><rect x="1547.66" y="568.21" width="15.14" height="1.32" rx="1" fill="#dfaaa3" opacity="0.03" transform="rotate(113.7 1547.66 568.21)"/><rect x="5.15" y="645.34" width="8.08" height="1.82" rx="1" fill="#3f443c" opacity="0.04" transform="rotate(77.83 5.15 645.34)"/><rect x="169.07" y="221.4" width="11.42" height="1.19" rx="1" fill="#dfaaa3" opacity="0.03" transform="rotate(56.44 169.07 221.4)"/><rect x="538.63" y="249.74" width="8.64" height="2.17" rx="1" fill="#dfaaa3" opacity="0.03" transform="rotate(141.4 538.63 249.74)"/><circle cx="1591.05" cy="300.86" r="1.33" fill="#dfaaa3" opacity="0.03"/><rect x="1182.11" y="47.35" width="19.46" height="2.15" rx="1" fill="#dfaaa3" opacity="0.07" transform="rotate(60.18 1182.11 47.35)"/><rect x="906.46" y="695.62" width="21.09" height="1.83" rx="1" fill="#dfaaa3" opacity="0.03" transform="rotate(42.25 906.46 695.62)"/><circle cx="52.89" cy="704.35" r="0.71" fill="#3f443c" opacity="0.06"/><circle cx="1053.89" cy="758.95" r="1.04" fill="#dfaaa3" opacity="0.06"/><rect x="868.35" y="370.58" width="18.12" height="1.5" rx="1" fill="#dfaaa3" opacity="0.03" transform="rotate(175.16 868.35 370.58)"/><circle cx="1006.33" cy="137.52" r="1.82" fill="#dfaaa3" opacity="0.04"/><rect x="181.21" y="215.07" width="14.53" height="1.75" rx="1" fill="#3f443c" opacity="0.06" transform="rotate(107.41 181.21 215.07)"/><circle cx="569.84" cy="35.62" r="0.93" fill="#3f443c" opacity="0.03"/>
  <circle cx="1350" cy="178" r="184" fill="#dfaaa3" opacity="0.06"/>
  <circle cx="220" cy="894" r="220" fill="#7d8c75" opacity="0.08"/>
  <g transform="rotate(-3 680 520)">
    <ellipse cx="698" cy="774" rx="455.8" ry="50" fill="#1f211d" opacity="0.12"/>
    <rect x="250" y="270" width="860" height="500" rx="6" fill="#fff9f5"/>
    <rect x="679" y="294" width="2" height="452" fill="#3f443c" opacity="0.12"/>
    <rect x="712" y="310" width="360" height="420" rx="4" fill="#d8dfcf"/>
    <path d="M 730 580 C 789.4 490, 875.4 635, 1038.8 440" fill="none" stroke="#fff9f5" stroke-width="5" opacity="0.72"/>
    <text x="294" y="358" class="brand" fill="#3f443c" font-size="47.3">CONTENT GUIDE</text>
    <rect x="294" y="408" width="129.2" height="3" rx="2" fill="#3f443c" opacity="0.42"/><rect x="294" y="430" width="193.8" height="2" rx="2" fill="#3f443c" opacity="0.22"/><rect x="294" y="452" width="258.4" height="2" rx="2" fill="#3f443c" opacity="0.22"/><rect x="294" y="474" width="146.2" height="2" rx="2" fill="#3f443c" opacity="0.22"/><rect x="294" y="496" width="210.8" height="2" rx="2" fill="#3f443c" opacity="0.22"/><rect x="294" y="518" width="275.4" height="2" rx="2" fill="#3f443c" opacity="0.22"/><rect x="294" y="540" width="163.2" height="2" rx="2" fill="#3f443c" opacity="0.22"/><rect x="294" y="562" width="227.8" height="2" rx="2" fill="#3f443c" opacity="0.22"/><rect x="294" y="584" width="292.4" height="2" rx="2" fill="#3f443c" opacity="0.22"/>
  </g><g transform="rotate(7 1183 420)">
    <ellipse cx="1199" cy="620.8" rx="132.5" ry="38" fill="#1f211d" opacity="0.11"/>
    <rect x="1058" y="230" width="250" height="380" rx="10" fill="#fff9f5"/>
    <rect x="1076" y="248" width="214" height="344" rx="5" fill="none" stroke="#3f443c" stroke-opacity="0.11"/>
    <rect x="1092" y="272" width="55" height="4" rx="2" fill="#dfaaa3" opacity="0.84"/>
    <text x="1092" y="359.2" class="brand" fill="#3f443c" font-size="30">RULES</text>
    <text x="1094" y="393.2" class="micro" fill="#3f443c" opacity="0.65">TEMPLATE</text>
    <rect x="1094" y="450.4" width="68.4" height="3" rx="2" fill="#3f443c" opacity="0.42"/><rect x="1094" y="472.4" width="102.6" height="2" rx="2" fill="#3f443c" opacity="0.22"/><rect x="1094" y="494.4" width="136.8" height="2" rx="2" fill="#3f443c" opacity="0.22"/><rect x="1094" y="516.4" width="77.4" height="2" rx="2" fill="#3f443c" opacity="0.22"/><rect x="1094" y="538.4" width="111.6" height="2" rx="2" fill="#3f443c" opacity="0.22"/><rect x="1094" y="560.4" width="145.8" height="2" rx="2" fill="#3f443c" opacity="0.22"/><rect x="1094" y="582.4" width="86.4" height="2" rx="2" fill="#3f443c" opacity="0.22"/>
    
  </g>
  <g opacity="0.72"><text x="78" y="1004" class="micro" fill="#3f443c">SOCIAL MEDIA DESIGN SYSTEM</text><text x="78" y="1036" class="micro" fill="#3f443c" opacity="0.55">TEMPORARY DEMONSTRATION PORTFOLIO VISUAL / GALLERY-3</text></g>
</svg>
