<?xml version="1.0" encoding="UTF-8"?>
<svg xmlns="http://www.w3.org/2000/svg" width="1600" height="1100" viewBox="0 0 1600 1100" role="img" aria-labelledby="title desc">
  <title id="title">LUNA gallery-1 demo portfolio mockup</title>
  <desc id="desc">Temporary fictional demonstration project imagery for portfolio presentation only, not client work.</desc>
  <defs>
    <linearGradient id="bg_luna_gallery_1" x1="0" y1="0" x2="1" y2="1">
      <stop offset="0%" stop-color="#fff9f5"/>
      <stop offset="58%" stop-color="#f8f0ea"/>
      <stop offset="100%" stop-color="#d8dfcf"/>
    </linearGradient>
    <radialGradient id="light_luna_gallery_1" cx="74%" cy="18%" r="64%">
      <stop offset="0%" stop-color="#ffffff" stop-opacity="0.62"/>
      <stop offset="100%" stop-color="#ffffff" stop-opacity="0"/>
    </radialGradient>
  </defs>
  <style><![CDATA[
    .brand { font-family: Arial, Georgia, serif; font-weight: 500; letter-spacing: .02em; }
    .body { font-family: Arial, Arial, sans-serif; font-weight: 500; }
    .micro { font-family: Arial, Arial, sans-serif; font-size: 20px; font-weight: 700; letter-spacing: .12em; }
  ]]></style>
  <rect width="1600" height="1100" fill="url(#bg_luna_gallery_1)"/>
  <rect width="1600" height="1100" fill="url(#light_luna_gallery_1)"/>
  <rect x="1059.87" y="606.07" width="23.85" height="2.13" rx="1" fill="#dfaaa3" opacity="0.03" transform="rotate(30.38 1059.87 606.07)"/><rect x="150.04" y="490.56" width="6.58" height="1.98" rx="1" fill="#3f443c" opacity="0.06" transform="rotate(20.15 150.04 490.56)"/><rect x="441.23" y="909.22" width="21.14" height="2.17" rx="1" fill="#3f443c" opacity="0.05" transform="rotate(96.51 441.23 909.22)"/><circle cx="372.77" cy="340.67" r="2.1" fill="#dfaaa3" opacity="0.03"/><rect x="679.63" y="777.63" width="23.87" height="1.18" rx="1" fill="#dfaaa3" opacity="0.04" transform="rotate(153.94 679.63 777.63)"/><rect x="529.41" y="816.56" width="14.84" height="1.12" rx="1" fill="#3f443c" opacity="0.07" transform="rotate(0.3 529.41 816.56)"/><circle cx="172.1" cy="343.69" r="1.47" fill="#dfaaa3" opacity="0.08"/><circle cx="1163.66" cy="459.69" r="2.28" fill="#dfaaa3" opacity="0.04"/><circle cx="82.44" cy="304.67" r="1.15" fill="#dfaaa3" opacity="0.03"/><rect x="1374.77" y="458.16" width="21.47" height="1.63" rx="1" fill="#3f443c" opacity="0.03" transform="rotate(64.49 1374.77 458.16)"/><rect x="1321.79" y="701.32" width="6.87" height="1.21" rx="1" fill="#dfaaa3" opacity="0.05" transform="rotate(2.69 1321.79 701.32)"/><circle cx="1290.11" cy="845.77" r="0.93" fill="#3f443c" opacity="0.03"/><rect x="248.22" y="88.99" width="15.98" height="0.83" rx="1" fill="#3f443c" opacity="0.03" transform="rotate(120.82 248.22 88.99)"/><rect x="132.19" y="132.9" width="23.2" height="2.41" rx="1" fill="#3f443c" opacity="0.06" transform="rotate(35.8 132.19 132.9)"/><circle cx="11.55" cy="1085.76" r="1.9" fill="#3f443c" opacity="0.04"/><circle cx="1213.58" cy="9.18" r="1.93" fill="#3f443c" opacity="0.06"/><circle cx="995.41" cy="837.94" r="1.62" fill="#3f443c" opacity="0.04"/><circle cx="353.26" cy="956.13" r="1.33" fill="#dfaaa3" opacity="0.05"/><rect x="901.98" y="447.79" width="20.11" height="0.98" rx="1" fill="#dfaaa3" opacity="0.04" transform="rotate(158.04 901.98 447.79)"/><rect x="597.71" y="224.65" width="18.03" height="1.49" rx="1" fill="#dfaaa3" opacity="0.04" transform="rotate(30.6 597.71 224.65)"/><rect x="480.11" y="256.79" width="22.14" height="2.47" rx="1" fill="#dfaaa3" opacity="0.06" transform="rotate(103.93 480.11 256.79)"/><rect x="1454.22" y="918.93" width="6.78" height="0.86" rx="1" fill="#3f443c" opacity="0.05" transform="rotate(111.86 1454.22 918.93)"/><circle cx="1124.86" cy="731.68" r="0.85" fill="#3f443c" opacity="0.05"/><circle cx="10" cy="204.44" r="1.23" fill="#3f443c" opacity="0.04"/><rect x="639.91" y="400.85" width="21.11" height="2.47" rx="1" fill="#3f443c" opacity="0.04" transform="rotate(69.91 639.91 400.85)"/><rect x="878.91" y="763.66" width="13.45" height="2.49" rx="1" fill="#3f443c" opacity="0.06" transform="rotate(100.14 878.91 763.66)"/><rect x="1233.26" y="225.63" width="25.92" height="1.1" rx="1" fill="#dfaaa3" opacity="0.03" transform="rotate(76.83 1233.26 225.63)"/><circle cx="1403.62" cy="577.84" r="1.76" fill="#dfaaa3" opacity="0.05"/><circle cx="352.79" cy="665.66" r="1.03" fill="#3f443c" opacity="0.08"/><rect x="468.35" y="815.79" width="10.59" height="2.58" rx="1" fill="#dfaaa3" opacity="0.03" transform="rotate(161.12 468.35 815.79)"/><circle cx="249.2" cy="962.05" r="0.89" fill="#dfaaa3" opacity="0.06"/><rect x="706.78" y="743.22" width="15.34" height="1.64" rx="1" fill="#3f443c" opacity="0.06" transform="rotate(95.85 706.78 743.22)"/><rect x="1140.62" y="283.96" width="7.92" height="2.05" rx="1" fill="#dfaaa3" opacity="0.04" transform="rotate(74.02 1140.62 283.96)"/><circle cx="180.35" cy="1079.36" r="2.28" fill="#3f443c" opacity="0.03"/><circle cx="258.7" cy="778.27" r="1.37" fill="#3f443c" opacity="0.08"/><circle cx="1422.27" cy="243.77" r="1.09" fill="#3f443c" opacity="0.06"/><circle cx="142.58" cy="323.97" r="1.67" fill="#dfaaa3" opacity="0.03"/><rect x="445.69" y="515" width="24.85" height="2.4" rx="1" fill="#dfaaa3" opacity="0.03" transform="rotate(65.16 445.69 515)"/><circle cx="714.68" cy="267.96" r="2.09" fill="#3f443c" opacity="0.03"/><rect x="725.7" y="605.27" width="23.99" height="1.38" rx="1" fill="#dfaaa3" opacity="0.07" transform="rotate(35 725.7 605.27)"/><circle cx="1466.09" cy="315.12" r="1.87" fill="#dfaaa3" opacity="0.06"/><circle cx="657.07" cy="129.03" r="1.1" fill="#dfaaa3" opacity="0.04"/><rect x="1301.55" y="514.85" width="18.96" height="1.6" rx="1" fill="#3f443c" opacity="0.04" transform="rotate(34.65 1301.55 514.85)"/><rect x="957.83" y="1046.81" width="13.34" height="1.11" rx="1" fill="#dfaaa3" opacity="0.03" transform="rotate(18.86 957.83 1046.81)"/><rect x="357.38" y="361.69" width="11.27" height="1.12" rx="1" fill="#3f443c" opacity="0.06" transform="rotate(77.86 357.38 361.69)"/><rect x="411.22" y="37.04" width="21.23" height="1.92" rx="1" fill="#3f443c" opacity="0.03" transform="rotate(161.69 411.22 37.04)"/><circle cx="185.28" cy="843.88" r="1.18" fill="#3f443c" opacity="0.08"/><rect x="76.27" y="327.61" width="24.22" height="2.4" rx="1" fill="#dfaaa3" opacity="0.03" transform="rotate(177.56 76.27 327.61)"/><circle cx="1408.83" cy="489.45" r="1.83" fill="#dfaaa3" opacity="0.05"/><circle cx="99.06" cy="372.39" r="2.21" fill="#3f443c" opacity="0.05"/><circle cx="838.83" cy="5.82" r="2.02" fill="#3f443c" opacity="0.05"/><circle cx="309.15" cy="83.15" r="1.37" fill="#dfaaa3" opacity="0.04"/><rect x="1313.17" y="668.27" width="12.14" height="1.19" rx="1" fill="#dfaaa3" opacity="0.03" transform="rotate(32.69 1313.17 668.27)"/><circle cx="30.91" cy="855.48" r="2.22" fill="#dfaaa3" opacity="0.06"/><circle cx="217.96" cy="427.18" r="1.7" fill="#dfaaa3" opacity="0.07"/><rect x="1492" y="920.77" width="20.68" height="1.89" rx="1" fill="#dfaaa3" opacity="0.03" transform="rotate(153.79 1492 920.77)"/><circle cx="1598.63" cy="146.21" r="1.05" fill="#dfaaa3" opacity="0.06"/><circle cx="1028.11" cy="832.53" r="1.21" fill="#dfaaa3" opacity="0.04"/><rect x="890.87" y="899.35" width="25.59" height="2.57" rx="1" fill="#3f443c" opacity="0.05" transform="rotate(130.86 890.87 899.35)"/><rect x="1583.05" y="886.77" width="17.9" height="1" rx="1" fill="#3f443c" opacity="0.07" transform="rotate(132.11 1583.05 886.77)"/><rect x="765.77" y="779.07" width="23.91" height="1.4" rx="1" fill="#dfaaa3" opacity="0.08" transform="rotate(164.23 765.77 779.07)"/><rect x="1128.9" y="892.87" width="18.97" height="1.74" rx="1" fill="#dfaaa3" opacity="0.05" transform="rotate(2.53 1128.9 892.87)"/><rect x="625.97" y="863.61" width="18.21" height="1.29" rx="1" fill="#3f443c" opacity="0.04" transform="rotate(140.97 625.97 863.61)"/><rect x="77.37" y="910.98" width="16.39" height="2.44" rx="1" fill="#3f443c" opacity="0.06" transform="rotate(109.34 77.37 910.98)"/><circle cx="423.21" cy="223.1" r="2" fill="#3f443c" opacity="0.03"/><rect x="1435.71" y="1014.75" width="19.43" height="1.53" rx="1" fill="#dfaaa3" opacity="0.06" transform="rotate(2.7 1435.71 1014.75)"/><rect x="98.08" y="1095.02" width="27.95" height="1.62" rx="1" fill="#3f443c" opacity="0.08" transform="rotate(165.9 98.08 1095.02)"/><rect x="626.82" y="538.45" width="20.89" height="1.41" rx="1" fill="#3f443c" opacity="0.07" transform="rotate(63.54 626.82 538.45)"/><circle cx="91.48" cy="668.52" r="1.19" fill="#dfaaa3" opacity="0.08"/><rect x="686.45" y="212.51" width="19.21" height="1.31" rx="1" fill="#dfaaa3" opacity="0.05" transform="rotate(72.31 686.45 212.51)"/><circle cx="740.3" cy="357.41" r="1.45" fill="#dfaaa3" opacity="0.05"/><circle cx="522.06" cy="832.76" r="1.2" fill="#3f443c" opacity="0.03"/><circle cx="581.52" cy="966.71" r="1.71" fill="#3f443c" opacity="0.08"/><rect x="133.13" y="270.31" width="14.06" height="1.48" rx="1" fill="#3f443c" opacity="0.03" transform="rotate(5.24 133.13 270.31)"/><circle cx="361.4" cy="1066.01" r="0.88" fill="#dfaaa3" opacity="0.07"/><circle cx="769.45" cy="937.55" r="1.54" fill="#dfaaa3" opacity="0.06"/><rect x="546.99" y="837.64" width="26.58" height="1.83" rx="1" fill="#3f443c" opacity="0.06" transform="rotate(126.95 546.99 837.64)"/><rect x="81.32" y="144.94" width="20.51" height="1.79" rx="1" fill="#dfaaa3" opacity="0.04" transform="rotate(167.14 81.32 144.94)"/><circle cx="718.34" cy="621.13" r="1.64" fill="#dfaaa3" opacity="0.03"/><rect x="329.1" y="847.05" width="22.63" height="2.08" rx="1" fill="#dfaaa3" opacity="0.07" transform="rotate(118.74 329.1 847.05)"/><circle cx="111.37" cy="94.24" r="2.19" fill="#dfaaa3" opacity="0.07"/><rect x="163.71" y="148.44" width="21.39" height="1.42" rx="1" fill="#3f443c" opacity="0.08" transform="rotate(2.44 163.71 148.44)"/><rect x="686.16" y="703.18" width="18.73" height="2.15" rx="1" fill="#3f443c" opacity="0.07" transform="rotate(18.56 686.16 703.18)"/><rect x="546.44" y="352.88" width="20.51" height="2.01" rx="1" fill="#dfaaa3" opacity="0.07" transform="rotate(49.51 546.44 352.88)"/><rect x="542.93" y="983.32" width="11.29" height="2.51" rx="1" fill="#dfaaa3" opacity="0.04" transform="rotate(172.28 542.93 983.32)"/><circle cx="665.84" cy="998.78" r="2.02" fill="#dfaaa3" opacity="0.08"/><rect x="1513.71" y="800.41" width="23.51" height="1.72" rx="1" fill="#3f443c" opacity="0.07" transform="rotate(72.41 1513.71 800.41)"/><circle cx="638.46" cy="1037.23" r="1.55" fill="#3f443c" opacity="0.06"/><rect x="338.39" y="482.17" width="9.1" height="1.23" rx="1" fill="#dfaaa3" opacity="0.04" transform="rotate(58.61 338.39 482.17)"/><circle cx="439.53" cy="854.85" r="2.15" fill="#3f443c" opacity="0.08"/><circle cx="202.87" cy="867.99" r="1.19" fill="#dfaaa3" opacity="0.03"/><circle cx="276.81" cy="309.87" r="0.82" fill="#3f443c" opacity="0.06"/><rect x="218.1" y="105.1" width="21.15" height="1.36" rx="1" fill="#3f443c" opacity="0.04" transform="rotate(160.32 218.1 105.1)"/><rect x="363.69" y="846.16" width="18.44" height="1.92" rx="1" fill="#3f443c" opacity="0.04" transform="rotate(10.24 363.69 846.16)"/><rect x="651.56" y="232.05" width="15.13" height="2.07" rx="1" fill="#3f443c" opacity="0.05" transform="rotate(29.9 651.56 232.05)"/><circle cx="1378.78" cy="845.68" r="1.36" fill="#3f443c" opacity="0.03"/><circle cx="1325.53" cy="427.48" r="1.54" fill="#dfaaa3" opacity="0.06"/><circle cx="1397.14" cy="1001.36" r="1.67" fill="#3f443c" opacity="0.03"/><rect x="144.04" y="998.77" width="26.74" height="1.96" rx="1" fill="#dfaaa3" opacity="0.06" transform="rotate(26.78 144.04 998.77)"/><circle cx="302.86" cy="1022.45" r="0.91" fill="#3f443c" opacity="0.06"/><rect x="493.72" y="680.07" width="8.85" height="1.7" rx="1" fill="#3f443c" opacity="0.03" transform="rotate(13.42 493.72 680.07)"/><rect x="617.75" y="454.42" width="22.84" height="1.31" rx="1" fill="#3f443c" opacity="0.04" transform="rotate(71.1 617.75 454.42)"/><rect x="1133.35" y="681.96" width="18.92" height="1.07" rx="1" fill="#dfaaa3" opacity="0.07" transform="rotate(13.28 1133.35 681.96)"/><circle cx="1069.21" cy="339.39" r="0.75" fill="#dfaaa3" opacity="0.04"/><rect x="1052.92" y="143.76" width="9.54" height="0.86" rx="1" fill="#dfaaa3" opacity="0.07" transform="rotate(149.01 1052.92 143.76)"/><circle cx="588.84" cy="312.81" r="2.25" fill="#dfaaa3" opacity="0.06"/><circle cx="720.06" cy="323.13" r="1.93" fill="#3f443c" opacity="0.07"/><rect x="306.88" y="759.27" width="9.77" height="1.15" rx="1" fill="#3f443c" opacity="0.04" transform="rotate(117.85 306.88 759.27)"/><rect x="1310.41" y="431.71" width="16.65" height="1.96" rx="1" fill="#3f443c" opacity="0.08" transform="rotate(5.85 1310.41 431.71)"/><circle cx="67.19" cy="658.87" r="0.92" fill="#dfaaa3" opacity="0.08"/><rect x="114.28" y="338.72" width="21.89" height="2.49" rx="1" fill="#dfaaa3" opacity="0.04" transform="rotate(149.02 114.28 338.72)"/><circle cx="678.89" cy="524.75" r="1.1" fill="#3f443c" opacity="0.07"/><rect x="711.82" y="810.86" width="10.16" height="2.46" rx="1" fill="#dfaaa3" opacity="0.05" transform="rotate(166.64 711.82 810.86)"/><rect x="1275.37" y="419" width="12.94" height="2.4" rx="1" fill="#3f443c" opacity="0.04" transform="rotate(1.31 1275.37 419)"/><rect x="46.14" y="92.75" width="22" height="2.05" rx="1" fill="#3f443c" opacity="0.07" transform="rotate(85.76 46.14 92.75)"/><circle cx="94.82" cy="766.67" r="1.69" fill="#dfaaa3" opacity="0.03"/><rect x="309.93" y="835.07" width="20.93" height="2.39" rx="1" fill="#3f443c" opacity="0.07" transform="rotate(74.92 309.93 835.07)"/><circle cx="229.39" cy="1019.96" r="1.52" fill="#dfaaa3" opacity="0.05"/><rect x="1555.12" y="156.81" width="22.32" height="1.35" rx="1" fill="#3f443c" opacity="0.04" transform="rotate(147.18 1555.12 156.81)"/><circle cx="1328.55" cy="350.06" r="1.15" fill="#dfaaa3" opacity="0.06"/><circle cx="1456.9" cy="762.37" r="2.1" fill="#3f443c" opacity="0.03"/><rect x="339.12" y="513.99" width="6.68" height="1.25" rx="1" fill="#dfaaa3" opacity="0.04" transform="rotate(72.76 339.12 513.99)"/><rect x="859.75" y="207.39" width="7.52" height="2.1" rx="1" fill="#dfaaa3" opacity="0.05" transform="rotate(53.11 859.75 207.39)"/><rect x="242.68" y="983.12" width="7.66" height="1.44" rx="1" fill="#dfaaa3" opacity="0.06" transform="rotate(137.44 242.68 983.12)"/><circle cx="1011.08" cy="656.31" r="2.21" fill="#3f443c" opacity="0.05"/><circle cx="1049.39" cy="11.78" r="1.67" fill="#3f443c" opacity="0.04"/><rect x="1125.8" y="128.95" width="22.95" height="0.95" rx="1" fill="#dfaaa3" opacity="0.05" transform="rotate(111.57 1125.8 128.95)"/><rect x="1498.27" y="826.62" width="24.95" height="1.71" rx="1" fill="#dfaaa3" opacity="0.05" transform="rotate(161.03 1498.27 826.62)"/><rect x="572.71" y="150.44" width="16.25" height="2.24" rx="1" fill="#3f443c" opacity="0.04" transform="rotate(176.38 572.71 150.44)"/><rect x="655.63" y="114.95" width="8.47" height="2.49" rx="1" fill="#dfaaa3" opacity="0.03" transform="rotate(55.32 655.63 114.95)"/><rect x="550.32" y="62.56" width="25.03" height="0.86" rx="1" fill="#3f443c" opacity="0.07" transform="rotate(111.65 550.32 62.56)"/><rect x="819.96" y="132.2" width="21.89" height="2.29" rx="1" fill="#dfaaa3" opacity="0.03" transform="rotate(12.71 819.96 132.2)"/><rect x="1250.13" y="317.17" width="25.34" height="1.06" rx="1" fill="#3f443c" opacity="0.07" transform="rotate(176.22 1250.13 317.17)"/><rect x="169.71" y="32.72" width="14.76" height="0.93" rx="1" fill="#dfaaa3" opacity="0.07" transform="rotate(103.95 169.71 32.72)"/><rect x="443.28" y="165.26" width="12.46" height="1.48" rx="1" fill="#3f443c" opacity="0.03" transform="rotate(125.24 443.28 165.26)"/><circle cx="57.35" cy="63.06" r="1.93" fill="#dfaaa3" opacity="0.03"/><circle cx="1329.77" cy="698.9" r="1.81" fill="#dfaaa3" opacity="0.04"/><rect x="716.99" y="652.05" width="17.06" height="1.89" rx="1" fill="#3f443c" opacity="0.03" transform="rotate(109.14 716.99 652.05)"/><circle cx="1257.49" cy="800.93" r="1.16" fill="#3f443c" opacity="0.07"/><circle cx="638.38" cy="1003.5" r="2.27" fill="#3f443c" opacity="0.06"/>
  <circle cx="1350" cy="178" r="184" fill="#dfaaa3" opacity="0.06"/>
  <circle cx="220" cy="894" r="220" fill="#7d8c75" opacity="0.08"/>
  <g transform="rotate(-4 507.5 525)">
    <ellipse cx="525.5" cy="859.2" rx="172.25" ry="67" fill="#1f211d" opacity="0.14"/>
    <rect x="345" y="190" width="325" height="670" rx="45.5" fill="#4e5949"/>
    <rect x="363" y="208" width="289" height="634" rx="35.75" fill="#fff9f5"/>
    <text x="387.25" y="297.2" class="micro" fill="#3f443c" opacity="0.62">GRID</text>
    <rect x="387.25" y="357.5" width="71.5" height="71.5" rx="10" fill="#d8dfcf" opacity="0.92"/><rect x="468.75" y="357.5" width="71.5" height="71.5" rx="10" fill="#7d8c75" opacity="0.92"/><rect x="550.25" y="357.5" width="71.5" height="71.5" rx="10" fill="#dfaaa3" opacity="0.92"/><rect x="387.25" y="439" width="71.5" height="71.5" rx="10" fill="#fff9f5" opacity="0.92"/><rect x="468.75" y="439" width="71.5" height="71.5" rx="10" fill="#d8dfcf" opacity="0.92"/><rect x="550.25" y="439" width="71.5" height="71.5" rx="10" fill="#7d8c75" opacity="0.92"/><rect x="387.25" y="520.5" width="71.5" height="71.5" rx="10" fill="#dfaaa3" opacity="0.92"/><rect x="468.75" y="520.5" width="71.5" height="71.5" rx="10" fill="#fff9f5" opacity="0.92"/><rect x="550.25" y="520.5" width="71.5" height="71.5" rx="10" fill="#d8dfcf" opacity="0.92"/>
  </g><g transform="rotate(5 880 405)">
    <ellipse cx="892" cy="565.6" rx="143.1" ry="31" fill="#1f211d" opacity="0.09"/>
    <rect x="745" y="250" width="270" height="310" rx="14" fill="#fff9f5"/>
    <rect x="767" y="272" width="226" height="148.8" rx="10" fill="#d8dfcf"/>
    <text x="769" y="454.6" class="brand" fill="#3f443c" font-size="24.3">POST</text>
    <rect x="769" y="479.4" width="69.77" height="3" rx="2" fill="#3f443c" opacity="0.42"/><rect x="769" y="501.4" width="104.65" height="2" rx="2" fill="#3f443c" opacity="0.22"/><rect x="769" y="523.4" width="139.54" height="2" rx="2" fill="#3f443c" opacity="0.22"/>
  </g><g transform="rotate(-5 1145 675)">
    <ellipse cx="1157" cy="835.6" rx="143.1" ry="31" fill="#1f211d" opacity="0.09"/>
    <rect x="1010" y="520" width="270" height="310" rx="14" fill="#fff9f5"/>
    <rect x="1032" y="542" width="226" height="148.8" rx="10" fill="#dfaaa3"/>
    <text x="1034" y="724.6" class="brand" fill="#3f443c" font-size="24.3">STORY</text>
    <rect x="1034" y="749.4" width="69.77" height="3" rx="2" fill="#3f443c" opacity="0.42"/><rect x="1034" y="771.4" width="104.65" height="2" rx="2" fill="#3f443c" opacity="0.22"/><rect x="1034" y="793.4" width="139.54" height="2" rx="2" fill="#3f443c" opacity="0.22"/>
  </g>
  <g opacity="0.72"><text x="78" y="1004" class="micro" fill="#3f443c">SOCIAL MEDIA DESIGN SYSTEM</text><text x="78" y="1036" class="micro" fill="#3f443c" opacity="0.55">TEMPORARY DEMONSTRATION PORTFOLIO VISUAL / GALLERY-1</text></g>
</svg>
