<?xml version="1.0" encoding="UTF-8"?>
<svg xmlns="http://www.w3.org/2000/svg" width="1600" height="1100" viewBox="0 0 1600 1100" role="img" aria-labelledby="title desc">
  <title id="title">LUNA gallery-2 demo portfolio mockup</title>
  <desc id="desc">Temporary fictional demonstration project imagery for portfolio presentation only, not client work.</desc>
  <defs>
    <linearGradient id="bg_luna_gallery_2" x1="0" y1="0" x2="1" y2="1">
      <stop offset="0%" stop-color="#fff9f5"/>
      <stop offset="58%" stop-color="#f8f0ea"/>
      <stop offset="100%" stop-color="#d8dfcf"/>
    </linearGradient>
    <radialGradient id="light_luna_gallery_2" cx="74%" cy="18%" r="64%">
      <stop offset="0%" stop-color="#ffffff" stop-opacity="0.62"/>
      <stop offset="100%" stop-color="#ffffff" stop-opacity="0"/>
    </radialGradient>
  </defs>
  <style><![CDATA[
    .brand { font-family: Arial, Georgia, serif; font-weight: 500; letter-spacing: .02em; }
    .body { font-family: Arial, Arial, sans-serif; font-weight: 500; }
    .micro { font-family: Arial, Arial, sans-serif; font-size: 20px; font-weight: 700; letter-spacing: .12em; }
  ]]></style>
  <rect width="1600" height="1100" fill="url(#bg_luna_gallery_2)"/>
  <rect width="1600" height="1100" fill="url(#light_luna_gallery_2)"/>
  <circle cx="680.8" cy="534.3" r="1.12" fill="#3f443c" opacity="0.07"/><rect x="830.14" y="856.65" width="27.57" height="1.63" rx="1" fill="#3f443c" opacity="0.08" transform="rotate(56.99 830.14 856.65)"/><circle cx="9.71" cy="629.78" r="1.26" fill="#dfaaa3" opacity="0.06"/><rect x="1118.84" y="166.63" width="6.89" height="1.54" rx="1" fill="#dfaaa3" opacity="0.06" transform="rotate(98 1118.84 166.63)"/><circle cx="560.32" cy="1046.31" r="1.62" fill="#dfaaa3" opacity="0.04"/><rect x="1275.73" y="433.43" width="15.3" height="1.74" rx="1" fill="#3f443c" opacity="0.04" transform="rotate(88.85 1275.73 433.43)"/><circle cx="1316.78" cy="543.9" r="0.83" fill="#dfaaa3" opacity="0.04"/><rect x="541.4" y="1037.51" width="24.2" height="1.52" rx="1" fill="#dfaaa3" opacity="0.06" transform="rotate(19.25 541.4 1037.51)"/><rect x="907.25" y="939.63" width="9.35" height="2.5" rx="1" fill="#3f443c" opacity="0.04" transform="rotate(143.46 907.25 939.63)"/><rect x="732.5" y="731.43" width="19.35" height="1.84" rx="1" fill="#3f443c" opacity="0.05" transform="rotate(81.15 732.5 731.43)"/><rect x="1465.18" y="158.52" width="12.15" height="1.16" rx="1" fill="#3f443c" opacity="0.04" transform="rotate(83.75 1465.18 158.52)"/><circle cx="147.2" cy="204.2" r="0.79" fill="#3f443c" opacity="0.03"/><circle cx="1215.28" cy="983.86" r="0.85" fill="#3f443c" opacity="0.07"/><rect x="297.33" y="161.4" width="20.2" height="1.08" rx="1" fill="#3f443c" opacity="0.04" transform="rotate(111.82 297.33 161.4)"/><rect x="647.8" y="493.66" width="15.96" height="1.83" rx="1" fill="#3f443c" opacity="0.03" transform="rotate(141.85 647.8 493.66)"/><circle cx="765.48" cy="744.83" r="2.07" fill="#3f443c" opacity="0.07"/><circle cx="1067" cy="634.71" r="2.24" fill="#3f443c" opacity="0.07"/><circle cx="891.22" cy="70.39" r="2.3" fill="#dfaaa3" opacity="0.04"/><rect x="250.86" y="667.12" width="10.44" height="1.52" rx="1" fill="#3f443c" opacity="0.08" transform="rotate(60.52 250.86 667.12)"/><rect x="301.65" y="801.95" width="7.63" height="1.22" rx="1" fill="#3f443c" opacity="0.07" transform="rotate(123.79 301.65 801.95)"/><circle cx="1262.54" cy="184.32" r="1.47" fill="#dfaaa3" opacity="0.08"/><circle cx="149.26" cy="12.36" r="1.25" fill="#3f443c" opacity="0.04"/><rect x="594.33" y="360.78" width="13.52" height="0.97" rx="1" fill="#dfaaa3" opacity="0.04" transform="rotate(66.39 594.33 360.78)"/><circle cx="678.95" cy="219.05" r="1.74" fill="#dfaaa3" opacity="0.05"/><circle cx="349.83" cy="245.25" r="1.27" fill="#3f443c" opacity="0.03"/><rect x="1581.64" y="313.76" width="11.3" height="2.06" rx="1" fill="#3f443c" opacity="0.07" transform="rotate(114.17 1581.64 313.76)"/><rect x="15.19" y="725.02" width="22.91" height="2.23" rx="1" fill="#3f443c" opacity="0.04" transform="rotate(2.42 15.19 725.02)"/><rect x="858.47" y="1092.22" width="20.17" height="2.04" rx="1" fill="#dfaaa3" opacity="0.07" transform="rotate(84.84 858.47 1092.22)"/><circle cx="1378.9" cy="790.1" r="0.95" fill="#3f443c" opacity="0.05"/><rect x="467.57" y="1089.38" width="12.34" height="2.59" rx="1" fill="#dfaaa3" opacity="0.03" transform="rotate(29.96 467.57 1089.38)"/><rect x="886.24" y="35.12" width="6.55" height="1.15" rx="1" fill="#dfaaa3" opacity="0.03" transform="rotate(90.9 886.24 35.12)"/><circle cx="1555.22" cy="421.63" r="1.18" fill="#dfaaa3" opacity="0.06"/><circle cx="160.29" cy="507.03" r="2.27" fill="#dfaaa3" opacity="0.08"/><rect x="1446.91" y="960" width="18.94" height="1.25" rx="1" fill="#dfaaa3" opacity="0.07" transform="rotate(173.85 1446.91 960)"/><circle cx="1492.58" cy="841.67" r="1.95" fill="#dfaaa3" opacity="0.08"/><rect x="355.6" y="783.75" width="18.11" height="1.32" rx="1" fill="#dfaaa3" opacity="0.04" transform="rotate(11.55 355.6 783.75)"/><circle cx="87.26" cy="103.93" r="2.25" fill="#dfaaa3" opacity="0.08"/><circle cx="1035.39" cy="416.79" r="1.38" fill="#3f443c" opacity="0.03"/><rect x="772.66" y="83.18" width="21.74" height="1.05" rx="1" fill="#dfaaa3" opacity="0.08" transform="rotate(157.55 772.66 83.18)"/><circle cx="1589.97" cy="874.96" r="1.04" fill="#dfaaa3" opacity="0.04"/><circle cx="61.44" cy="136.11" r="0.83" fill="#dfaaa3" opacity="0.04"/><rect x="1370.32" y="889.69" width="27.64" height="2.45" rx="1" fill="#dfaaa3" opacity="0.04" transform="rotate(111.26 1370.32 889.69)"/><rect x="1077.82" y="284.29" width="21.26" height="2.16" rx="1" fill="#3f443c" opacity="0.06" transform="rotate(115.12 1077.82 284.29)"/><circle cx="192.05" cy="424.83" r="2.21" fill="#dfaaa3" opacity="0.06"/><circle cx="434.97" cy="774.68" r="1.25" fill="#3f443c" opacity="0.07"/><rect x="1179.31" y="9.6" width="18.86" height="2.54" rx="1" fill="#dfaaa3" opacity="0.08" transform="rotate(90.97 1179.31 9.6)"/><circle cx="1478.33" cy="586.56" r="1.56" fill="#3f443c" opacity="0.03"/><rect x="1407.56" y="1006.83" width="15.5" height="1.51" rx="1" fill="#3f443c" opacity="0.03" transform="rotate(117.68 1407.56 1006.83)"/><circle cx="321.42" cy="261.2" r="0.88" fill="#3f443c" opacity="0.07"/><rect x="356.48" y="0.32" width="24.47" height="2.55" rx="1" fill="#3f443c" opacity="0.07" transform="rotate(13.25 356.48 0.32)"/><rect x="234.77" y="346.34" width="20.42" height="1.07" rx="1" fill="#3f443c" opacity="0.08" transform="rotate(162.58 234.77 346.34)"/><circle cx="522.4" cy="436.82" r="1.89" fill="#3f443c" opacity="0.05"/><rect x="993.54" y="547.61" width="19.19" height="1.93" rx="1" fill="#3f443c" opacity="0.04" transform="rotate(88.04 993.54 547.61)"/><circle cx="1129.77" cy="142.46" r="1.27" fill="#3f443c" opacity="0.04"/><circle cx="484.27" cy="265.12" r="2.26" fill="#3f443c" opacity="0.07"/><circle cx="1443.18" cy="526.82" r="1.17" fill="#dfaaa3" opacity="0.04"/><circle cx="419.02" cy="974.04" r="1.11" fill="#3f443c" opacity="0.07"/><circle cx="71.48" cy="979.23" r="1.12" fill="#3f443c" opacity="0.06"/><rect x="682.78" y="172.49" width="24.8" height="1.64" rx="1" fill="#3f443c" opacity="0.03" transform="rotate(44.82 682.78 172.49)"/><circle cx="1110.21" cy="42.75" r="1.44" fill="#3f443c" opacity="0.04"/><rect x="42.68" y="834.63" width="10.74" height="2.01" rx="1" fill="#dfaaa3" opacity="0.06" transform="rotate(179.61 42.68 834.63)"/><rect x="1313.34" y="204.3" width="25.86" height="2.19" rx="1" fill="#dfaaa3" opacity="0.04" transform="rotate(162.39 1313.34 204.3)"/><circle cx="881.67" cy="917.39" r="1.58" fill="#3f443c" opacity="0.08"/><rect x="1022.5" y="396.3" width="8.65" height="0.86" rx="1" fill="#3f443c" opacity="0.05" transform="rotate(0.82 1022.5 396.3)"/><rect x="531.42" y="585.54" width="6.91" height="1.9" rx="1" fill="#3f443c" opacity="0.04" transform="rotate(90.87 531.42 585.54)"/><rect x="439.36" y="694.96" width="16.62" height="2.01" rx="1" fill="#dfaaa3" opacity="0.05" transform="rotate(89.23 439.36 694.96)"/><circle cx="97.92" cy="1002.63" r="1.59" fill="#3f443c" opacity="0.06"/><circle cx="1167.72" cy="496.43" r="1.16" fill="#3f443c" opacity="0.04"/><rect x="618.57" y="939.51" width="22.53" height="1.32" rx="1" fill="#3f443c" opacity="0.06" transform="rotate(16.67 618.57 939.51)"/><rect x="1197.88" y="196.39" width="8.71" height="1.8" rx="1" fill="#3f443c" opacity="0.06" transform="rotate(153.89 1197.88 196.39)"/><circle cx="566.2" cy="439.26" r="1.85" fill="#3f443c" opacity="0.07"/><rect x="1450.59" y="113.65" width="22.43" height="2.35" rx="1" fill="#3f443c" opacity="0.05" transform="rotate(62.38 1450.59 113.65)"/><rect x="1387.03" y="776.35" width="9.42" height="2.17" rx="1" fill="#3f443c" opacity="0.06" transform="rotate(30.38 1387.03 776.35)"/><rect x="554.87" y="717.14" width="18.14" height="1.71" rx="1" fill="#3f443c" opacity="0.05" transform="rotate(154.19 554.87 717.14)"/><rect x="180.11" y="182.88" width="24.08" height="2.3" rx="1" fill="#3f443c" opacity="0.05" transform="rotate(20.82 180.11 182.88)"/><circle cx="1378.02" cy="1056.27" r="1.63" fill="#dfaaa3" opacity="0.08"/><rect x="714.62" y="11.69" width="6.12" height="0.95" rx="1" fill="#dfaaa3" opacity="0.06" transform="rotate(178.52 714.62 11.69)"/><circle cx="269.96" cy="382.05" r="1.34" fill="#dfaaa3" opacity="0.03"/><circle cx="237.92" cy="764.33" r="2.03" fill="#3f443c" opacity="0.05"/><circle cx="1392.22" cy="177.16" r="1.34" fill="#3f443c" opacity="0.05"/><rect x="776.33" y="671.7" width="21.44" height="1.48" rx="1" fill="#3f443c" opacity="0.04" transform="rotate(62.95 776.33 671.7)"/><circle cx="692.81" cy="750.92" r="1.61" fill="#3f443c" opacity="0.07"/><rect x="586.96" y="228.67" width="27.82" height="2.02" rx="1" fill="#3f443c" opacity="0.07" transform="rotate(3.28 586.96 228.67)"/><circle cx="723.23" cy="258.89" r="1.03" fill="#3f443c" opacity="0.04"/><circle cx="1193.28" cy="193.27" r="0.87" fill="#3f443c" opacity="0.06"/><rect x="172.02" y="808.4" width="13.23" height="2.05" rx="1" fill="#dfaaa3" opacity="0.03" transform="rotate(72.85 172.02 808.4)"/><circle cx="1062.6" cy="905.33" r="0.91" fill="#dfaaa3" opacity="0.07"/><rect x="1290.26" y="26.2" width="6.67" height="1.89" rx="1" fill="#3f443c" opacity="0.03" transform="rotate(145.93 1290.26 26.2)"/><rect x="442.19" y="643.76" width="18.45" height="1.89" rx="1" fill="#3f443c" opacity="0.05" transform="rotate(2.68 442.19 643.76)"/><circle cx="577.99" cy="984.98" r="0.95" fill="#dfaaa3" opacity="0.03"/><circle cx="1277.09" cy="879.37" r="2.2" fill="#dfaaa3" opacity="0.07"/><circle cx="237.28" cy="106.23" r="1.1" fill="#dfaaa3" opacity="0.03"/><rect x="520.5" y="755.8" width="6.26" height="2.39" rx="1" fill="#dfaaa3" opacity="0.04" transform="rotate(157.15 520.5 755.8)"/><circle cx="580.58" cy="351.73" r="2.15" fill="#3f443c" opacity="0.04"/><rect x="1494.67" y="730.06" width="16.35" height="1.99" rx="1" fill="#3f443c" opacity="0.07" transform="rotate(157.87 1494.67 730.06)"/><rect x="1553.39" y="535.7" width="10.27" height="1.31" rx="1" fill="#3f443c" opacity="0.08" transform="rotate(4.64 1553.39 535.7)"/><rect x="1124.35" y="390.36" width="7.43" height="2.58" rx="1" fill="#dfaaa3" opacity="0.07" transform="rotate(53.5 1124.35 390.36)"/><circle cx="1251.18" cy="51.82" r="1.82" fill="#3f443c" opacity="0.04"/><rect x="1071.64" y="477.85" width="17.38" height="0.9" rx="1" fill="#3f443c" opacity="0.04" transform="rotate(60.92 1071.64 477.85)"/><circle cx="200.72" cy="488.29" r="1.61" fill="#dfaaa3" opacity="0.06"/><circle cx="365.2" cy="413.92" r="1.36" fill="#dfaaa3" opacity="0.06"/><rect x="1086.11" y="185.77" width="6.75" height="2.45" rx="1" fill="#dfaaa3" opacity="0.03" transform="rotate(104.25 1086.11 185.77)"/><rect x="502.68" y="1080.01" width="20.84" height="1.9" rx="1" fill="#3f443c" opacity="0.04" transform="rotate(161.43 502.68 1080.01)"/><rect x="533.94" y="958.22" width="6.89" height="2.5" rx="1" fill="#dfaaa3" opacity="0.05" transform="rotate(22.38 533.94 958.22)"/><rect x="770" y="578.06" width="25.39" height="2.26" rx="1" fill="#dfaaa3" opacity="0.03" transform="rotate(75.46 770 578.06)"/><circle cx="1464.64" cy="440.18" r="0.83" fill="#3f443c" opacity="0.03"/><circle cx="247.2" cy="219.4" r="1.97" fill="#dfaaa3" opacity="0.05"/><circle cx="1322.11" cy="178.52" r="2.1" fill="#dfaaa3" opacity="0.05"/><circle cx="70.75" cy="635.57" r="1.48" fill="#3f443c" opacity="0.04"/><rect x="1195.73" y="753.95" width="16.29" height="1.46" rx="1" fill="#3f443c" opacity="0.07" transform="rotate(122.73 1195.73 753.95)"/><circle cx="868.84" cy="639.69" r="1.22" fill="#dfaaa3" opacity="0.08"/><rect x="959.43" y="644.63" width="13.9" height="2.56" rx="1" fill="#dfaaa3" opacity="0.06" transform="rotate(75.04 959.43 644.63)"/><rect x="1000.85" y="754.54" width="15.71" height="1.34" rx="1" fill="#dfaaa3" opacity="0.03" transform="rotate(115.43 1000.85 754.54)"/><circle cx="737.54" cy="667.11" r="1.91" fill="#dfaaa3" opacity="0.06"/><circle cx="779.77" cy="9.47" r="1.73" fill="#dfaaa3" opacity="0.06"/><rect x="195.1" y="244.47" width="9.1" height="1.36" rx="1" fill="#3f443c" opacity="0.07" transform="rotate(39.43 195.1 244.47)"/><rect x="315.89" y="348.29" width="17.44" height="2.01" rx="1" fill="#3f443c" opacity="0.05" transform="rotate(124.29 315.89 348.29)"/><circle cx="257.59" cy="86.55" r="0.81" fill="#dfaaa3" opacity="0.06"/><rect x="900.75" y="3.4" width="27.26" height="2.16" rx="1" fill="#3f443c" opacity="0.05" transform="rotate(50.65 900.75 3.4)"/><rect x="1145.73" y="157.02" width="15.97" height="2.49" rx="1" fill="#dfaaa3" opacity="0.04" transform="rotate(174.49 1145.73 157.02)"/><rect x="13.37" y="519.45" width="10.7" height="2.19" rx="1" fill="#3f443c" opacity="0.07" transform="rotate(68.29 13.37 519.45)"/><circle cx="1247.29" cy="65.49" r="1.17" fill="#dfaaa3" opacity="0.05"/><circle cx="950.72" cy="128.31" r="1.14" fill="#3f443c" opacity="0.06"/><rect x="1237.29" y="1079.88" width="9.96" height="1.03" rx="1" fill="#dfaaa3" opacity="0.04" transform="rotate(65.23 1237.29 1079.88)"/><rect x="410.56" y="296.26" width="14.67" height="2.13" rx="1" fill="#3f443c" opacity="0.07" transform="rotate(79.61 410.56 296.26)"/><rect x="1493.69" y="942.97" width="11.48" height="1.29" rx="1" fill="#dfaaa3" opacity="0.07" transform="rotate(129.28 1493.69 942.97)"/><circle cx="1425.06" cy="175.48" r="1.56" fill="#3f443c" opacity="0.03"/><rect x="1182.13" y="104.07" width="17.6" height="1.59" rx="1" fill="#3f443c" opacity="0.06" transform="rotate(54.35 1182.13 104.07)"/><rect x="1194.35" y="281.64" width="8.72" height="1.94" rx="1" fill="#3f443c" opacity="0.04" transform="rotate(19.33 1194.35 281.64)"/><rect x="941.16" y="616.84" width="8.67" height="1.95" rx="1" fill="#3f443c" opacity="0.04" transform="rotate(175.29 941.16 616.84)"/><circle cx="1362.97" cy="1020.43" r="1.2" fill="#dfaaa3" opacity="0.05"/><rect x="676.13" y="648.07" width="9.16" height="1.94" rx="1" fill="#dfaaa3" opacity="0.05" transform="rotate(176.7 676.13 648.07)"/><rect x="1352.53" y="766.33" width="27.63" height="2.26" rx="1" fill="#dfaaa3" opacity="0.03" transform="rotate(154.01 1352.53 766.33)"/><circle cx="1517.91" cy="897.68" r="1.11" fill="#3f443c" opacity="0.07"/><rect x="583.84" y="396.02" width="27.22" height="1.52" rx="1" fill="#dfaaa3" opacity="0.07" transform="rotate(45.86 583.84 396.02)"/><circle cx="1566.79" cy="772.85" r="1.43" fill="#3f443c" opacity="0.08"/><rect x="421.42" y="933.23" width="27.7" height="0.89" rx="1" fill="#dfaaa3" opacity="0.05" transform="rotate(143.48 421.42 933.23)"/><rect x="241.46" y="441.03" width="16" height="2.04" rx="1" fill="#3f443c" opacity="0.04" transform="rotate(138.06 241.46 441.03)"/><rect x="1376.18" y="196.22" width="18.97" height="2.12" rx="1" fill="#3f443c" opacity="0.04" transform="rotate(41.88 1376.18 196.22)"/><rect x="1595.59" y="485.16" width="13.23" height="1.55" rx="1" fill="#3f443c" opacity="0.05" transform="rotate(85.49 1595.59 485.16)"/>
  <circle cx="1350" cy="178" r="184" fill="#dfaaa3" opacity="0.06"/>
  <circle cx="220" cy="894" r="220" fill="#7d8c75" opacity="0.08"/>
  <g transform="rotate(-5 435 445)">
    <ellipse cx="447" cy="642.4" rx="174.9" ry="39" fill="#1f211d" opacity="0.09"/>
    <rect x="270" y="250" width="330" height="390" rx="14" fill="#fff9f5"/>
    <rect x="292" y="272" width="286" height="187.2" rx="10" fill="#dfaaa3"/>
    <text x="294" y="507.4" class="brand" fill="#3f443c" font-size="29.7">LAUNCH</text>
    <rect x="294" y="538.6" width="85.27" height="3" rx="2" fill="#3f443c" opacity="0.42"/><rect x="294" y="560.6" width="127.91" height="2" rx="2" fill="#3f443c" opacity="0.22"/><rect x="294" y="582.6" width="170.54" height="2" rx="2" fill="#3f443c" opacity="0.22"/>
  </g><g transform="rotate(3 785 515)">
    <ellipse cx="797" cy="712.4" rx="174.9" ry="39" fill="#1f211d" opacity="0.09"/>
    <rect x="620" y="320" width="330" height="390" rx="14" fill="#fff9f5"/>
    <rect x="642" y="342" width="286" height="187.2" rx="10" fill="#7d8c75"/>
    <text x="644" y="577.4" class="brand" fill="#3f443c" font-size="29.7">SEASON</text>
    <rect x="644" y="608.6" width="85.27" height="3" rx="2" fill="#3f443c" opacity="0.42"/><rect x="644" y="630.6" width="127.91" height="2" rx="2" fill="#3f443c" opacity="0.22"/><rect x="644" y="652.6" width="170.54" height="2" rx="2" fill="#3f443c" opacity="0.22"/>
  </g><g transform="rotate(-2 1135 430)">
    <ellipse cx="1147" cy="627.4" rx="174.9" ry="39" fill="#1f211d" opacity="0.09"/>
    <rect x="970" y="235" width="330" height="390" rx="14" fill="#fff9f5"/>
    <rect x="992" y="257" width="286" height="187.2" rx="10" fill="#d8dfcf"/>
    <text x="994" y="492.4" class="brand" fill="#3f443c" font-size="29.7">SAVE</text>
    <rect x="994" y="523.6" width="85.27" height="3" rx="2" fill="#3f443c" opacity="0.42"/><rect x="994" y="545.6" width="127.91" height="2" rx="2" fill="#3f443c" opacity="0.22"/><rect x="994" y="567.6" width="170.54" height="2" rx="2" fill="#3f443c" opacity="0.22"/>
  </g>
  <g opacity="0.72"><text x="78" y="1004" class="micro" fill="#3f443c">SOCIAL MEDIA DESIGN SYSTEM</text><text x="78" y="1036" class="micro" fill="#3f443c" opacity="0.55">TEMPORARY DEMONSTRATION PORTFOLIO VISUAL / GALLERY-2</text></g>
</svg>
