<?xml version="1.0" encoding="UTF-8"?>
<svg xmlns="http://www.w3.org/2000/svg" width="1600" height="1100" viewBox="0 0 1600 1100" role="img" aria-labelledby="title desc">
  <title id="title">LUNA gallery-4 demo portfolio mockup</title>
  <desc id="desc">Temporary fictional demonstration project imagery for portfolio presentation only, not client work.</desc>
  <defs>
    <linearGradient id="bg_luna_gallery_4" x1="0" y1="0" x2="1" y2="1">
      <stop offset="0%" stop-color="#fff9f5"/>
      <stop offset="58%" stop-color="#f8f0ea"/>
      <stop offset="100%" stop-color="#d8dfcf"/>
    </linearGradient>
    <radialGradient id="light_luna_gallery_4" cx="74%" cy="18%" r="64%">
      <stop offset="0%" stop-color="#ffffff" stop-opacity="0.62"/>
      <stop offset="100%" stop-color="#ffffff" stop-opacity="0"/>
    </radialGradient>
  </defs>
  <style><![CDATA[
    .brand { font-family: Arial, Georgia, serif; font-weight: 500; letter-spacing: .02em; }
    .body { font-family: Arial, Arial, sans-serif; font-weight: 500; }
    .micro { font-family: Arial, Arial, sans-serif; font-size: 20px; font-weight: 700; letter-spacing: .12em; }
  ]]></style>
  <rect width="1600" height="1100" fill="url(#bg_luna_gallery_4)"/>
  <rect width="1600" height="1100" fill="url(#light_luna_gallery_4)"/>
  <rect x="604.67" y="1029.6" width="11.56" height="2.02" rx="1" fill="#3f443c" opacity="0.07" transform="rotate(70.2 604.67 1029.6)"/><rect x="1092.58" y="432.59" width="18.98" height="0.97" rx="1" fill="#3f443c" opacity="0.05" transform="rotate(107.24 1092.58 432.59)"/><rect x="632.24" y="712.39" width="20.6" height="2.04" rx="1" fill="#3f443c" opacity="0.03" transform="rotate(139.61 632.24 712.39)"/><circle cx="1528.06" cy="935.75" r="1.26" fill="#dfaaa3" opacity="0.04"/><rect x="1484" y="283.79" width="14.89" height="1.97" rx="1" fill="#3f443c" opacity="0.06" transform="rotate(78.99 1484 283.79)"/><circle cx="877.47" cy="104.16" r="1.24" fill="#dfaaa3" opacity="0.03"/><rect x="647.89" y="109.49" width="18.32" height="2.43" rx="1" fill="#dfaaa3" opacity="0.05" transform="rotate(63.44 647.89 109.49)"/><rect x="102.72" y="510.83" width="15.33" height="0.95" rx="1" fill="#3f443c" opacity="0.04" transform="rotate(38.22 102.72 510.83)"/><circle cx="77.87" cy="105.86" r="1.1" fill="#3f443c" opacity="0.07"/><rect x="1374.72" y="446.61" width="11.96" height="1.67" rx="1" fill="#dfaaa3" opacity="0.03" transform="rotate(13.04 1374.72 446.61)"/><circle cx="470.33" cy="1016.9" r="1.96" fill="#dfaaa3" opacity="0.06"/><rect x="89.37" y="702.52" width="20.78" height="2.23" rx="1" fill="#3f443c" opacity="0.07" transform="rotate(158.04 89.37 702.52)"/><rect x="266.96" y="900.2" width="12.29" height="1.28" rx="1" fill="#dfaaa3" opacity="0.07" transform="rotate(4.84 266.96 900.2)"/><rect x="1128.17" y="712.29" width="25.45" height="2.59" rx="1" fill="#dfaaa3" opacity="0.04" transform="rotate(1.12 1128.17 712.29)"/><rect x="794.44" y="165.37" width="12.45" height="1.47" rx="1" fill="#3f443c" opacity="0.04" transform="rotate(170.51 794.44 165.37)"/><rect x="1225.64" y="174.27" width="9.81" height="2.45" rx="1" fill="#3f443c" opacity="0.07" transform="rotate(60.5 1225.64 174.27)"/><rect x="75.55" y="752.18" width="20.59" height="2.34" rx="1" fill="#dfaaa3" opacity="0.04" transform="rotate(10.01 75.55 752.18)"/><circle cx="1126.69" cy="26.02" r="2.05" fill="#dfaaa3" opacity="0.07"/><rect x="265.59" y="682.13" width="22.03" height="1.48" rx="1" fill="#3f443c" opacity="0.04" transform="rotate(155.44 265.59 682.13)"/><circle cx="963.09" cy="691.57" r="1.75" fill="#3f443c" opacity="0.03"/><circle cx="363" cy="936.03" r="1.03" fill="#dfaaa3" opacity="0.05"/><circle cx="910" cy="1037.06" r="1.88" fill="#3f443c" opacity="0.07"/><circle cx="1411.99" cy="640.26" r="1.68" fill="#dfaaa3" opacity="0.03"/><rect x="185.44" y="400.37" width="22.19" height="0.96" rx="1" fill="#dfaaa3" opacity="0.07" transform="rotate(100.08 185.44 400.37)"/><rect x="1373.86" y="87.41" width="19.6" height="0.84" rx="1" fill="#3f443c" opacity="0.06" transform="rotate(133.87 1373.86 87.41)"/><rect x="165.42" y="575.81" width="15.31" height="0.95" rx="1" fill="#3f443c" opacity="0.07" transform="rotate(4.41 165.42 575.81)"/><rect x="1402.96" y="288.27" width="22.14" height="1.64" rx="1" fill="#dfaaa3" opacity="0.03" transform="rotate(138.88 1402.96 288.27)"/><rect x="490.25" y="427.19" width="17.91" height="1.65" rx="1" fill="#dfaaa3" opacity="0.05" transform="rotate(33.8 490.25 427.19)"/><rect x="1256.67" y="786.79" width="20.34" height="1.8" rx="1" fill="#dfaaa3" opacity="0.08" transform="rotate(173.16 1256.67 786.79)"/><rect x="102.86" y="468.53" width="25.36" height="1.99" rx="1" fill="#3f443c" opacity="0.08" transform="rotate(22.68 102.86 468.53)"/><rect x="276.82" y="813.19" width="22.14" height="2.1" rx="1" fill="#dfaaa3" opacity="0.05" transform="rotate(32.66 276.82 813.19)"/><rect x="418.28" y="250.29" width="24.88" height="1.58" rx="1" fill="#3f443c" opacity="0.04" transform="rotate(39.8 418.28 250.29)"/><rect x="789.17" y="465.23" width="11.91" height="1.02" rx="1" fill="#dfaaa3" opacity="0.04" transform="rotate(20.28 789.17 465.23)"/><rect x="735.17" y="486.44" width="19.85" height="1.5" rx="1" fill="#dfaaa3" opacity="0.08" transform="rotate(163.41 735.17 486.44)"/><circle cx="325.48" cy="525.42" r="2.26" fill="#dfaaa3" opacity="0.04"/><rect x="1480.75" y="953.99" width="19.62" height="0.91" rx="1" fill="#3f443c" opacity="0.03" transform="rotate(116.11 1480.75 953.99)"/><circle cx="1069.82" cy="201.38" r="2.2" fill="#dfaaa3" opacity="0.04"/><rect x="117.5" y="321.8" width="15.71" height="1.81" rx="1" fill="#dfaaa3" opacity="0.07" transform="rotate(121.12 117.5 321.8)"/><circle cx="990.45" cy="381.97" r="1.03" fill="#3f443c" opacity="0.07"/><rect x="200.74" y="39.74" width="16.01" height="1.7" rx="1" fill="#3f443c" opacity="0.07" transform="rotate(116.73 200.74 39.74)"/><rect x="340.57" y="77.63" width="19.2" height="2.34" rx="1" fill="#3f443c" opacity="0.07" transform="rotate(31.32 340.57 77.63)"/><rect x="528.44" y="706.87" width="27.74" height="2.42" rx="1" fill="#3f443c" opacity="0.07" transform="rotate(175.4 528.44 706.87)"/><rect x="449.74" y="429.44" width="22.98" height="1.47" rx="1" fill="#3f443c" opacity="0.06" transform="rotate(76.62 449.74 429.44)"/><rect x="326.41" y="292.95" width="9.39" height="0.94" rx="1" fill="#dfaaa3" opacity="0.07" transform="rotate(104.17 326.41 292.95)"/><rect x="972.69" y="68.54" width="12.06" height="1.65" rx="1" fill="#3f443c" opacity="0.05" transform="rotate(124.09 972.69 68.54)"/><rect x="994.92" y="500.06" width="24.47" height="1.01" rx="1" fill="#3f443c" opacity="0.07" transform="rotate(29.66 994.92 500.06)"/><rect x="1277.85" y="857.33" width="20.28" height="1.84" rx="1" fill="#dfaaa3" opacity="0.07" transform="rotate(25.88 1277.85 857.33)"/><rect x="1074.66" y="746.9" width="17.56" height="2.59" rx="1" fill="#dfaaa3" opacity="0.07" transform="rotate(158.17 1074.66 746.9)"/><circle cx="1128.79" cy="266.02" r="0.89" fill="#3f443c" opacity="0.05"/><circle cx="415.4" cy="868.44" r="1.74" fill="#dfaaa3" opacity="0.05"/><rect x="1011.19" y="71.19" width="16.81" height="2.46" rx="1" fill="#dfaaa3" opacity="0.03" transform="rotate(123.38 1011.19 71.19)"/><circle cx="397.69" cy="404.72" r="1.98" fill="#dfaaa3" opacity="0.03"/><rect x="331.37" y="270.32" width="6.97" height="2.57" rx="1" fill="#3f443c" opacity="0.03" transform="rotate(139.04 331.37 270.32)"/><rect x="82.42" y="1065.11" width="17.15" height="1.03" rx="1" fill="#dfaaa3" opacity="0.07" transform="rotate(2.47 82.42 1065.11)"/><rect x="174.8" y="969.76" width="19.73" height="1.61" rx="1" fill="#dfaaa3" opacity="0.03" transform="rotate(131.86 174.8 969.76)"/><rect x="1413.02" y="232.84" width="7.3" height="1.79" rx="1" fill="#3f443c" opacity="0.06" transform="rotate(7.93 1413.02 232.84)"/><rect x="876.13" y="1094.33" width="12.33" height="2.46" rx="1" fill="#3f443c" opacity="0.06" transform="rotate(63.28 876.13 1094.33)"/><rect x="833.91" y="173.86" width="15.35" height="1.04" rx="1" fill="#3f443c" opacity="0.03" transform="rotate(5.41 833.91 173.86)"/><circle cx="913.93" cy="169.6" r="1.67" fill="#dfaaa3" opacity="0.03"/><circle cx="1308.9" cy="978.77" r="2.25" fill="#dfaaa3" opacity="0.08"/><circle cx="312.87" cy="382.28" r="1.74" fill="#dfaaa3" opacity="0.03"/><rect x="235.95" y="892.26" width="9.73" height="2.21" rx="1" fill="#dfaaa3" opacity="0.08" transform="rotate(60.81 235.95 892.26)"/><rect x="468.21" y="956.32" width="17.68" height="1.74" rx="1" fill="#3f443c" opacity="0.03" transform="rotate(163.58 468.21 956.32)"/><rect x="316.16" y="1057.2" width="9.64" height="1.64" rx="1" fill="#3f443c" opacity="0.07" transform="rotate(132.56 316.16 1057.2)"/><rect x="1400.8" y="860.98" width="13.47" height="1.97" rx="1" fill="#3f443c" opacity="0.05" transform="rotate(150.07 1400.8 860.98)"/><rect x="970.09" y="547.36" width="20.9" height="1.78" rx="1" fill="#dfaaa3" opacity="0.06" transform="rotate(121.47 970.09 547.36)"/><rect x="903.78" y="654.59" width="25.76" height="2.12" rx="1" fill="#dfaaa3" opacity="0.06" transform="rotate(131.61 903.78 654.59)"/><circle cx="1213.81" cy="712.31" r="0.74" fill="#3f443c" opacity="0.08"/><rect x="69.05" y="988.25" width="10.74" height="1.27" rx="1" fill="#3f443c" opacity="0.06" transform="rotate(164.04 69.05 988.25)"/><circle cx="91.1" cy="958.49" r="0.86" fill="#dfaaa3" opacity="0.03"/><circle cx="354.52" cy="964.45" r="1.25" fill="#dfaaa3" opacity="0.06"/><circle cx="941.62" cy="168.39" r="1.81" fill="#3f443c" opacity="0.03"/><rect x="1065.82" y="604.57" width="11.14" height="1.65" rx="1" fill="#3f443c" opacity="0.08" transform="rotate(97.88 1065.82 604.57)"/><rect x="1339.16" y="708.95" width="6.09" height="2.28" rx="1" fill="#dfaaa3" opacity="0.06" transform="rotate(128.14 1339.16 708.95)"/><circle cx="1116.99" cy="1095.29" r="1.19" fill="#3f443c" opacity="0.05"/><rect x="386.72" y="215.22" width="10" height="1.36" rx="1" fill="#3f443c" opacity="0.05" transform="rotate(158.35 386.72 215.22)"/><rect x="1195.94" y="735.59" width="15.61" height="1.58" rx="1" fill="#dfaaa3" opacity="0.05" transform="rotate(81.33 1195.94 735.59)"/><circle cx="155.24" cy="897.12" r="1.89" fill="#3f443c" opacity="0.04"/><rect x="351.68" y="0.97" width="11.52" height="1.17" rx="1" fill="#dfaaa3" opacity="0.04" transform="rotate(47.38 351.68 0.97)"/><rect x="883.99" y="936.99" width="15.91" height="1.14" rx="1" fill="#dfaaa3" opacity="0.05" transform="rotate(164.29 883.99 936.99)"/><circle cx="628.78" cy="594.57" r="1.68" fill="#3f443c" opacity="0.06"/><rect x="944.78" y="492.92" width="17.91" height="1.16" rx="1" fill="#dfaaa3" opacity="0.06" transform="rotate(21.93 944.78 492.92)"/><rect x="1362.52" y="671.21" width="26.23" height="0.88" rx="1" fill="#dfaaa3" opacity="0.05" transform="rotate(94.14 1362.52 671.21)"/><circle cx="599.13" cy="337.19" r="1.24" fill="#dfaaa3" opacity="0.04"/><circle cx="1587.5" cy="810.3" r="2.25" fill="#dfaaa3" opacity="0.03"/><circle cx="208.68" cy="983.62" r="1.57" fill="#dfaaa3" opacity="0.04"/><rect x="1504.09" y="986.9" width="26.98" height="2.05" rx="1" fill="#3f443c" opacity="0.03" transform="rotate(116.75 1504.09 986.9)"/><circle cx="292.73" cy="984.08" r="2.18" fill="#3f443c" opacity="0.06"/><circle cx="1586.28" cy="582.32" r="1.69" fill="#3f443c" opacity="0.03"/><rect x="497.29" y="1017.13" width="15.18" height="1.38" rx="1" fill="#3f443c" opacity="0.07" transform="rotate(3.78 497.29 1017.13)"/><rect x="435.1" y="904.75" width="24.46" height="2.24" rx="1" fill="#dfaaa3" opacity="0.08" transform="rotate(92.14 435.1 904.75)"/><circle cx="857" cy="339.86" r="1.56" fill="#3f443c" opacity="0.07"/><rect x="990.29" y="894.7" width="23.96" height="1.45" rx="1" fill="#dfaaa3" opacity="0.04" transform="rotate(82.21 990.29 894.7)"/><rect x="610" y="61.38" width="17.73" height="1.22" rx="1" fill="#dfaaa3" opacity="0.05" transform="rotate(134.13 610 61.38)"/><rect x="999.33" y="674.57" width="26.9" height="2.59" rx="1" fill="#dfaaa3" opacity="0.07" transform="rotate(10.51 999.33 674.57)"/><circle cx="1000.64" cy="177.58" r="1.71" fill="#dfaaa3" opacity="0.07"/><rect x="1566.57" y="185.35" width="6.96" height="1.2" rx="1" fill="#dfaaa3" opacity="0.03" transform="rotate(167.12 1566.57 185.35)"/><rect x="1498.61" y="257.94" width="27.18" height="1.14" rx="1" fill="#dfaaa3" opacity="0.04" transform="rotate(124.12 1498.61 257.94)"/><rect x="1094.71" y="991.87" width="15.46" height="1.98" rx="1" fill="#3f443c" opacity="0.04" transform="rotate(69.92 1094.71 991.87)"/><rect x="620.81" y="434.14" width="18.68" height="2.26" rx="1" fill="#3f443c" opacity="0.04" transform="rotate(41.77 620.81 434.14)"/><rect x="1082.35" y="240.38" width="10.51" height="1.79" rx="1" fill="#3f443c" opacity="0.07" transform="rotate(115.15 1082.35 240.38)"/><rect x="1496.79" y="796.99" width="21.34" height="2.22" rx="1" fill="#dfaaa3" opacity="0.05" transform="rotate(37.39 1496.79 796.99)"/><circle cx="1309.01" cy="500.51" r="1.05" fill="#dfaaa3" opacity="0.04"/><circle cx="0.13" cy="354.42" r="2" fill="#dfaaa3" opacity="0.06"/><rect x="149.23" y="1038.55" width="6.04" height="1.23" rx="1" fill="#3f443c" opacity="0.05" transform="rotate(135.94 149.23 1038.55)"/><circle cx="535.43" cy="56.47" r="2.09" fill="#3f443c" opacity="0.03"/><rect x="622.81" y="262.68" width="25.01" height="1.14" rx="1" fill="#dfaaa3" opacity="0.05" transform="rotate(94.37 622.81 262.68)"/><circle cx="1074.19" cy="311.51" r="0.99" fill="#3f443c" opacity="0.07"/><rect x="797.85" y="917.02" width="14.67" height="1.76" rx="1" fill="#dfaaa3" opacity="0.05" transform="rotate(30.32 797.85 917.02)"/><rect x="541.45" y="398.87" width="16.56" height="1.34" rx="1" fill="#dfaaa3" opacity="0.06" transform="rotate(49.75 541.45 398.87)"/><rect x="1232.35" y="668.93" width="19.76" height="1.93" rx="1" fill="#dfaaa3" opacity="0.08" transform="rotate(101.78 1232.35 668.93)"/><circle cx="956.23" cy="639.92" r="1.26" fill="#dfaaa3" opacity="0.04"/><circle cx="280.77" cy="379.47" r="0.76" fill="#dfaaa3" opacity="0.08"/><rect x="153.3" y="107.7" width="24.16" height="2.35" rx="1" fill="#dfaaa3" opacity="0.03" transform="rotate(27.8 153.3 107.7)"/><rect x="1366.12" y="537.71" width="7.5" height="1.15" rx="1" fill="#dfaaa3" opacity="0.04" transform="rotate(17.34 1366.12 537.71)"/><rect x="236.83" y="631.42" width="21.85" height="2.45" rx="1" fill="#3f443c" opacity="0.05" transform="rotate(34.38 236.83 631.42)"/><rect x="884.87" y="862.68" width="22.42" height="1.21" rx="1" fill="#dfaaa3" opacity="0.06" transform="rotate(52.92 884.87 862.68)"/><rect x="107.98" y="387.47" width="14.79" height="1.48" rx="1" fill="#dfaaa3" opacity="0.06" transform="rotate(4.3 107.98 387.47)"/><circle cx="1148.12" cy="109.14" r="1.32" fill="#dfaaa3" opacity="0.07"/><circle cx="196.23" cy="334.83" r="0.97" fill="#3f443c" opacity="0.03"/><rect x="1435.26" y="569.95" width="12.83" height="2.11" rx="1" fill="#3f443c" opacity="0.06" transform="rotate(109.1 1435.26 569.95)"/><circle cx="1061.45" cy="964.47" r="0.93" fill="#3f443c" opacity="0.07"/><rect x="553.59" y="122.52" width="6.8" height="0.82" rx="1" fill="#dfaaa3" opacity="0.07" transform="rotate(73.48 553.59 122.52)"/><rect x="421.39" y="568.46" width="26.94" height="2.45" rx="1" fill="#3f443c" opacity="0.04" transform="rotate(114.54 421.39 568.46)"/><rect x="521.44" y="1090.25" width="9.55" height="1.04" rx="1" fill="#dfaaa3" opacity="0.03" transform="rotate(149.47 521.44 1090.25)"/><rect x="1350.74" y="731.23" width="13.44" height="2.45" rx="1" fill="#dfaaa3" opacity="0.06" transform="rotate(53.09 1350.74 731.23)"/><rect x="2" y="980.55" width="12.87" height="1.89" rx="1" fill="#3f443c" opacity="0.03" transform="rotate(54.87 2 980.55)"/><rect x="235.04" y="192.86" width="27.07" height="2.55" rx="1" fill="#dfaaa3" opacity="0.07" transform="rotate(173.59 235.04 192.86)"/><rect x="454.6" y="1025.13" width="10.12" height="1.4" rx="1" fill="#dfaaa3" opacity="0.07" transform="rotate(43.06 454.6 1025.13)"/><circle cx="1330.57" cy="42.62" r="2.19" fill="#3f443c" opacity="0.08"/><rect x="1088.5" y="339.37" width="18.96" height="1.7" rx="1" fill="#dfaaa3" opacity="0.03" transform="rotate(157.3 1088.5 339.37)"/><rect x="465.83" y="1031.12" width="19.91" height="1.76" rx="1" fill="#3f443c" opacity="0.03" transform="rotate(106.12 465.83 1031.12)"/><rect x="1385.4" y="721.69" width="18.93" height="1.75" rx="1" fill="#dfaaa3" opacity="0.06" transform="rotate(50.49 1385.4 721.69)"/><circle cx="63.28" cy="1019.78" r="0.83" fill="#dfaaa3" opacity="0.07"/><rect x="1259.48" y="81.4" width="7.53" height="2.3" rx="1" fill="#dfaaa3" opacity="0.03" transform="rotate(86.58 1259.48 81.4)"/><rect x="345.35" y="214.98" width="7.39" height="1.6" rx="1" fill="#dfaaa3" opacity="0.05" transform="rotate(102.4 345.35 214.98)"/><rect x="914.99" y="138.01" width="14.57" height="1.36" rx="1" fill="#dfaaa3" opacity="0.05" transform="rotate(89.79 914.99 138.01)"/><circle cx="850.77" cy="606.71" r="0.92" fill="#dfaaa3" opacity="0.04"/><circle cx="299.19" cy="562.25" r="2.19" fill="#dfaaa3" opacity="0.06"/><rect x="1453.68" y="250.15" width="19.37" height="1.96" rx="1" fill="#3f443c" opacity="0.08" transform="rotate(78.58 1453.68 250.15)"/>
  <circle cx="1350" cy="178" r="184" fill="#dfaaa3" opacity="0.06"/>
  <circle cx="220" cy="894" r="220" fill="#7d8c75" opacity="0.08"/>
  <g transform="rotate(-5 460 515)">
    <ellipse cx="476" cy="757.2" rx="201.4" ry="47" fill="#1f211d" opacity="0.11"/>
    <rect x="270" y="280" width="380" height="470" rx="10" fill="#fff9f5"/>
    <rect x="288" y="298" width="344" height="434" rx="5" fill="none" stroke="#3f443c" stroke-opacity="0.11"/>
    <rect x="304" y="322" width="83.6" height="4" rx="2" fill="#dfaaa3" opacity="0.84"/>
    <text x="304" y="439.8" class="brand" fill="#3f443c" font-size="45.6">ASSETS</text>
    <text x="306" y="473.8" class="micro" fill="#3f443c" opacity="0.65">TOKEN LIBRARY</text>
    <rect x="306" y="552.6" width="103.97" height="3" rx="2" fill="#3f443c" opacity="0.42"/><rect x="306" y="574.6" width="155.95" height="2" rx="2" fill="#3f443c" opacity="0.22"/><rect x="306" y="596.6" width="207.94" height="2" rx="2" fill="#3f443c" opacity="0.22"/><rect x="306" y="618.6" width="117.65" height="2" rx="2" fill="#3f443c" opacity="0.22"/><rect x="306" y="640.6" width="169.63" height="2" rx="2" fill="#3f443c" opacity="0.22"/><rect x="306" y="662.6" width="221.62" height="2" rx="2" fill="#3f443c" opacity="0.22"/><rect x="306" y="684.6" width="131.33" height="2" rx="2" fill="#3f443c" opacity="0.22"/><rect x="306" y="706.6" width="183.31" height="2" rx="2" fill="#3f443c" opacity="0.22"/>
    <circle cx="584" cy="680" r="35" fill="#dfaaa3" opacity="0.86"/><text x="584" y="691" text-anchor="middle" class="micro" fill="#fff9f5" font-size="20">AS</text>
  </g><g transform="rotate(4 935 435)">
      <ellipse cx="735" cy="494.32" rx="44.52" ry="4.2" fill="#1f211d" opacity="0.08"/>
      <rect x="685" y="370" width="86" height="116" rx="8" fill="#fff9f5"/>
      <text x="697" y="466" class="micro" fill="#3f443c" opacity="0.62">01</text>
    
      <ellipse cx="839" cy="494.32" rx="44.52" ry="4.2" fill="#1f211d" opacity="0.08"/>
      <rect x="789" y="370" width="86" height="116" rx="8" fill="#d8dfcf"/>
      <text x="801" y="466" class="micro" fill="#3f443c" opacity="0.62">02</text>
    
      <ellipse cx="943" cy="494.32" rx="44.52" ry="4.2" fill="#1f211d" opacity="0.08"/>
      <rect x="893" y="370" width="86" height="116" rx="8" fill="#dfaaa3"/>
      <text x="905" y="466" class="micro" fill="#3f443c" opacity="0.62">03</text>
    
      <ellipse cx="1047" cy="494.32" rx="44.52" ry="4.2" fill="#1f211d" opacity="0.08"/>
      <rect x="997" y="370" width="86" height="116" rx="8" fill="#7d8c75"/>
      <text x="1009" y="466" class="micro" fill="#3f443c" opacity="0.62">04</text>
    
      <ellipse cx="1151" cy="494.32" rx="44.52" ry="4.2" fill="#1f211d" opacity="0.08"/>
      <rect x="1101" y="370" width="86" height="116" rx="8" fill="#4e5949"/>
      <text x="1113" y="466" class="micro" fill="#fff9f5" opacity="0.62">05</text>
    </g><g transform="rotate(-6 1180 720)">
    <ellipse cx="1192" cy="839.2" rx="137.8" ry="22" fill="#1f211d" opacity="0.09"/>
    <rect x="1050" y="610" width="260" height="220" rx="14" fill="#fff9f5"/>
    <rect x="1072" y="632" width="216" height="105.6" rx="10" fill="#7d8c75"/>
    <text x="1074" y="755.2" class="brand" fill="#3f443c" font-size="23.4">KIT</text>
    <rect x="1074" y="772.8" width="67.18" height="3" rx="2" fill="#3f443c" opacity="0.42"/><rect x="1074" y="794.8" width="100.78" height="2" rx="2" fill="#3f443c" opacity="0.22"/><rect x="1074" y="816.8" width="134.37" height="2" rx="2" fill="#3f443c" opacity="0.22"/>
  </g>
  <g opacity="0.72"><text x="78" y="1004" class="micro" fill="#3f443c">SOCIAL MEDIA DESIGN SYSTEM</text><text x="78" y="1036" class="micro" fill="#3f443c" opacity="0.55">TEMPORARY DEMONSTRATION PORTFOLIO VISUAL / GALLERY-4</text></g>
</svg>
