<?xml version="1.0" encoding="UTF-8"?>
<svg xmlns="http://www.w3.org/2000/svg" width="1600" height="1100" viewBox="0 0 1600 1100" role="img" aria-labelledby="title desc">
  <title id="title">LUNA hero demo portfolio mockup</title>
  <desc id="desc">Temporary fictional demonstration project imagery for portfolio presentation only, not client work.</desc>
  <defs>
    <linearGradient id="bg_luna_hero" x1="0" y1="0" x2="1" y2="1">
      <stop offset="0%" stop-color="#fff9f5"/>
      <stop offset="58%" stop-color="#f8f0ea"/>
      <stop offset="100%" stop-color="#d8dfcf"/>
    </linearGradient>
    <radialGradient id="light_luna_hero" cx="74%" cy="18%" r="64%">
      <stop offset="0%" stop-color="#ffffff" stop-opacity="0.62"/>
      <stop offset="100%" stop-color="#ffffff" stop-opacity="0"/>
    </radialGradient>
  </defs>
  <style><![CDATA[
    .brand { font-family: Arial, Georgia, serif; font-weight: 500; letter-spacing: .02em; }
    .body { font-family: Arial, Arial, sans-serif; font-weight: 500; }
    .micro { font-family: Arial, Arial, sans-serif; font-size: 20px; font-weight: 700; letter-spacing: .12em; }
  ]]></style>
  <rect width="1600" height="1100" fill="url(#bg_luna_hero)"/>
  <rect width="1600" height="1100" fill="url(#light_luna_hero)"/>
  <rect x="333.83" y="215.34" width="12.52" height="1.9" rx="1" fill="#3f443c" opacity="0.07" transform="rotate(117.47 333.83 215.34)"/><rect x="244.97" y="1030.32" width="8.01" height="0.94" rx="1" fill="#dfaaa3" opacity="0.06" transform="rotate(108.99 244.97 1030.32)"/><rect x="451.63" y="456.05" width="18.14" height="0.86" rx="1" fill="#dfaaa3" opacity="0.03" transform="rotate(128.73 451.63 456.05)"/><circle cx="330.77" cy="301.17" r="1.81" fill="#dfaaa3" opacity="0.08"/><rect x="1429.85" y="611.43" width="20.24" height="1.57" rx="1" fill="#dfaaa3" opacity="0.07" transform="rotate(158.16 1429.85 611.43)"/><rect x="717.66" y="353.22" width="8.75" height="2.46" rx="1" fill="#dfaaa3" opacity="0.05" transform="rotate(6.77 717.66 353.22)"/><circle cx="1450.5" cy="510.71" r="1.97" fill="#3f443c" opacity="0.05"/><rect x="559.23" y="945.83" width="18.16" height="1.48" rx="1" fill="#3f443c" opacity="0.03" transform="rotate(117.9 559.23 945.83)"/><rect x="1052.34" y="254.52" width="7.63" height="0.81" rx="1" fill="#dfaaa3" opacity="0.05" transform="rotate(165.28 1052.34 254.52)"/><rect x="1523.65" y="434.69" width="8.12" height="2.57" rx="1" fill="#3f443c" opacity="0.07" transform="rotate(10.8 1523.65 434.69)"/><rect x="1507.96" y="879.85" width="25.08" height="2.22" rx="1" fill="#dfaaa3" opacity="0.04" transform="rotate(147.24 1507.96 879.85)"/><circle cx="498.87" cy="231.6" r="0.9" fill="#dfaaa3" opacity="0.04"/><circle cx="1462.17" cy="111.38" r="1.86" fill="#dfaaa3" opacity="0.04"/><circle cx="410.99" cy="864.65" r="1.23" fill="#dfaaa3" opacity="0.07"/><rect x="572.37" y="113.21" width="19.21" height="2.57" rx="1" fill="#3f443c" opacity="0.06" transform="rotate(12.01 572.37 113.21)"/><rect x="1369.85" y="602.48" width="6.35" height="1.77" rx="1" fill="#dfaaa3" opacity="0.03" transform="rotate(98.83 1369.85 602.48)"/><rect x="1362.36" y="828.16" width="25.76" height="2.23" rx="1" fill="#3f443c" opacity="0.04" transform="rotate(68.6 1362.36 828.16)"/><rect x="1231.32" y="154.62" width="26.04" height="2.01" rx="1" fill="#3f443c" opacity="0.08" transform="rotate(159.44 1231.32 154.62)"/><circle cx="1478.39" cy="344.87" r="0.93" fill="#3f443c" opacity="0.04"/><rect x="1300.47" y="1079.89" width="10.08" height="0.92" rx="1" fill="#3f443c" opacity="0.07" transform="rotate(114.74 1300.47 1079.89)"/><rect x="68.56" y="827.13" width="13.46" height="1.02" rx="1" fill="#3f443c" opacity="0.04" transform="rotate(161.85 68.56 827.13)"/><circle cx="268.4" cy="599.95" r="1.66" fill="#3f443c" opacity="0.08"/><circle cx="1234.96" cy="711.79" r="1.3" fill="#3f443c" opacity="0.05"/><rect x="59.98" y="235.09" width="17.79" height="1.18" rx="1" fill="#dfaaa3" opacity="0.05" transform="rotate(84.42 59.98 235.09)"/><rect x="995.11" y="978" width="18.07" height="1.91" rx="1" fill="#dfaaa3" opacity="0.05" transform="rotate(144.31 995.11 978)"/><rect x="131.9" y="904.96" width="21.72" height="1.43" rx="1" fill="#dfaaa3" opacity="0.04" transform="rotate(81.27 131.9 904.96)"/><circle cx="1130.84" cy="118.8" r="1.32" fill="#3f443c" opacity="0.07"/><rect x="280.21" y="225.46" width="14.46" height="1.08" rx="1" fill="#dfaaa3" opacity="0.06" transform="rotate(117.11 280.21 225.46)"/><circle cx="1370.7" cy="772.96" r="2.17" fill="#dfaaa3" opacity="0.04"/><rect x="741.59" y="391.04" width="19.97" height="0.85" rx="1" fill="#dfaaa3" opacity="0.08" transform="rotate(30.14 741.59 391.04)"/><rect x="271.06" y="1013.15" width="24.03" height="1.15" rx="1" fill="#3f443c" opacity="0.05" transform="rotate(124.58 271.06 1013.15)"/><rect x="326.28" y="1098.86" width="10.78" height="0.93" rx="1" fill="#3f443c" opacity="0.08" transform="rotate(53.98 326.28 1098.86)"/><circle cx="893.28" cy="739.14" r="1.48" fill="#3f443c" opacity="0.07"/><rect x="1076.25" y="667.64" width="23.91" height="2.18" rx="1" fill="#dfaaa3" opacity="0.03" transform="rotate(28.33 1076.25 667.64)"/><circle cx="1463.51" cy="788.31" r="2.18" fill="#dfaaa3" opacity="0.04"/><circle cx="737.38" cy="477.69" r="2.24" fill="#3f443c" opacity="0.06"/><circle cx="479.25" cy="571.51" r="1.55" fill="#dfaaa3" opacity="0.06"/><circle cx="1196.96" cy="743.17" r="1.29" fill="#3f443c" opacity="0.05"/><circle cx="463.24" cy="792.04" r="1.56" fill="#dfaaa3" opacity="0.07"/><rect x="658.71" y="689.61" width="6.44" height="2.46" rx="1" fill="#dfaaa3" opacity="0.07" transform="rotate(23.96 658.71 689.61)"/><circle cx="1545.31" cy="260.04" r="1.25" fill="#3f443c" opacity="0.05"/><rect x="1415.61" y="341.47" width="17.76" height="2.45" rx="1" fill="#dfaaa3" opacity="0.08" transform="rotate(125.21 1415.61 341.47)"/><rect x="190.15" y="731.51" width="19.35" height="1.06" rx="1" fill="#dfaaa3" opacity="0.04" transform="rotate(101.96 190.15 731.51)"/><rect x="636.49" y="619.52" width="23.86" height="2.24" rx="1" fill="#3f443c" opacity="0.05" transform="rotate(9.88 636.49 619.52)"/><rect x="722.22" y="580.52" width="23.75" height="2.4" rx="1" fill="#3f443c" opacity="0.07" transform="rotate(179.72 722.22 580.52)"/><rect x="480.71" y="885.21" width="24.63" height="1.23" rx="1" fill="#3f443c" opacity="0.04" transform="rotate(51.85 480.71 885.21)"/><rect x="394.15" y="658.75" width="12.91" height="1.65" rx="1" fill="#dfaaa3" opacity="0.05" transform="rotate(62.54 394.15 658.75)"/><rect x="1448.63" y="150.61" width="9.67" height="2.32" rx="1" fill="#dfaaa3" opacity="0.04" transform="rotate(124.54 1448.63 150.61)"/><circle cx="1041.26" cy="489.19" r="2.17" fill="#3f443c" opacity="0.07"/><rect x="985.84" y="763.17" width="25.38" height="0.84" rx="1" fill="#dfaaa3" opacity="0.06" transform="rotate(122.17 985.84 763.17)"/><rect x="1576.66" y="718.79" width="12.39" height="1.66" rx="1" fill="#dfaaa3" opacity="0.03" transform="rotate(53.43 1576.66 718.79)"/><rect x="1550.68" y="136.14" width="10.78" height="1.04" rx="1" fill="#dfaaa3" opacity="0.05" transform="rotate(57.2 1550.68 136.14)"/><rect x="310" y="567.54" width="27.85" height="1.06" rx="1" fill="#dfaaa3" opacity="0.07" transform="rotate(18.75 310 567.54)"/><rect x="556.66" y="968.78" width="8.42" height="2.02" rx="1" fill="#3f443c" opacity="0.07" transform="rotate(87.28 556.66 968.78)"/><circle cx="1090.47" cy="506.79" r="1.93" fill="#dfaaa3" opacity="0.05"/><rect x="922.09" y="292.88" width="24.98" height="1.27" rx="1" fill="#dfaaa3" opacity="0.03" transform="rotate(45.57 922.09 292.88)"/><circle cx="1473.67" cy="587.6" r="0.93" fill="#dfaaa3" opacity="0.08"/><circle cx="440.37" cy="1093.83" r="1.17" fill="#dfaaa3" opacity="0.07"/><rect x="1258.73" y="478.74" width="19.68" height="1.32" rx="1" fill="#dfaaa3" opacity="0.03" transform="rotate(153.34 1258.73 478.74)"/><circle cx="1223.49" cy="206.07" r="0.89" fill="#3f443c" opacity="0.03"/><rect x="4.15" y="1041.96" width="11.11" height="2.33" rx="1" fill="#3f443c" opacity="0.06" transform="rotate(104.99 4.15 1041.96)"/><rect x="1079.43" y="74.02" width="18.37" height="0.82" rx="1" fill="#3f443c" opacity="0.06" transform="rotate(81.03 1079.43 74.02)"/><circle cx="725.9" cy="996.86" r="1.85" fill="#3f443c" opacity="0.06"/><rect x="99" y="889.77" width="15.37" height="1.89" rx="1" fill="#3f443c" opacity="0.04" transform="rotate(146.44 99 889.77)"/><circle cx="814.59" cy="817.2" r="1.11" fill="#dfaaa3" opacity="0.07"/><circle cx="148.09" cy="1034.04" r="0.98" fill="#dfaaa3" opacity="0.08"/><circle cx="1102.99" cy="514.68" r="1.91" fill="#dfaaa3" opacity="0.03"/><circle cx="729.82" cy="759.23" r="1.76" fill="#dfaaa3" opacity="0.03"/><rect x="1212.11" y="83.93" width="18" height="2.1" rx="1" fill="#dfaaa3" opacity="0.03" transform="rotate(88.18 1212.11 83.93)"/><rect x="1479.65" y="276.81" width="27.21" height="1.76" rx="1" fill="#3f443c" opacity="0.03" transform="rotate(101.91 1479.65 276.81)"/><rect x="1525.98" y="618.77" width="24.42" height="1.08" rx="1" fill="#dfaaa3" opacity="0.03" transform="rotate(172.83 1525.98 618.77)"/><rect x="1517.78" y="326.28" width="10.39" height="1.23" rx="1" fill="#3f443c" opacity="0.03" transform="rotate(177.9 1517.78 326.28)"/><circle cx="568.86" cy="22.19" r="2.29" fill="#3f443c" opacity="0.06"/><circle cx="1295.21" cy="372.2" r="1.05" fill="#3f443c" opacity="0.03"/><rect x="960.72" y="1025.74" width="25.58" height="1.18" rx="1" fill="#3f443c" opacity="0.07" transform="rotate(98.24 960.72 1025.74)"/><rect x="572.71" y="669.75" width="19.71" height="0.95" rx="1" fill="#3f443c" opacity="0.07" transform="rotate(78.36 572.71 669.75)"/><rect x="200.76" y="846.34" width="27.31" height="1.72" rx="1" fill="#3f443c" opacity="0.04" transform="rotate(26.17 200.76 846.34)"/><circle cx="344.36" cy="283.16" r="1.85" fill="#dfaaa3" opacity="0.04"/><rect x="1240.39" y="260.79" width="15.53" height="1.4" rx="1" fill="#3f443c" opacity="0.03" transform="rotate(67.99 1240.39 260.79)"/><rect x="1308.47" y="1008.04" width="20.41" height="2.01" rx="1" fill="#3f443c" opacity="0.04" transform="rotate(34.15 1308.47 1008.04)"/><rect x="604.44" y="617.78" width="9.4" height="2.13" rx="1" fill="#dfaaa3" opacity="0.07" transform="rotate(34.27 604.44 617.78)"/><circle cx="59.24" cy="575.62" r="1.96" fill="#dfaaa3" opacity="0.03"/><rect x="242.65" y="1061.11" width="9.73" height="2.51" rx="1" fill="#dfaaa3" opacity="0.07" transform="rotate(44.42 242.65 1061.11)"/><rect x="804.79" y="241.06" width="26.63" height="2.3" rx="1" fill="#dfaaa3" opacity="0.05" transform="rotate(108.46 804.79 241.06)"/><rect x="963.75" y="1067.6" width="11.24" height="1.35" rx="1" fill="#3f443c" opacity="0.06" transform="rotate(179.84 963.75 1067.6)"/><rect x="855.39" y="9.3" width="23.07" height="1.34" rx="1" fill="#dfaaa3" opacity="0.07" transform="rotate(111.51 855.39 9.3)"/><rect x="122.65" y="665.79" width="25.21" height="1.91" rx="1" fill="#dfaaa3" opacity="0.08" transform="rotate(46.78 122.65 665.79)"/><circle cx="1556.74" cy="885.87" r="2.27" fill="#3f443c" opacity="0.07"/><rect x="1068.17" y="275.94" width="18" height="2.09" rx="1" fill="#dfaaa3" opacity="0.03" transform="rotate(30.25 1068.17 275.94)"/><rect x="263.33" y="268.47" width="9.88" height="1.28" rx="1" fill="#dfaaa3" opacity="0.06" transform="rotate(39.6 263.33 268.47)"/><circle cx="1388.28" cy="744.81" r="1.14" fill="#dfaaa3" opacity="0.05"/><rect x="1549.48" y="649.59" width="11.49" height="1.96" rx="1" fill="#3f443c" opacity="0.06" transform="rotate(12.88 1549.48 649.59)"/><circle cx="436.11" cy="11.78" r="2.17" fill="#dfaaa3" opacity="0.06"/><rect x="569.54" y="1063.35" width="20.72" height="2.33" rx="1" fill="#dfaaa3" opacity="0.04" transform="rotate(73.09 569.54 1063.35)"/><circle cx="917.76" cy="680.41" r="1.45" fill="#dfaaa3" opacity="0.07"/><rect x="105.39" y="370.3" width="7.44" height="1.48" rx="1" fill="#3f443c" opacity="0.07" transform="rotate(76.34 105.39 370.3)"/><rect x="1401.39" y="359.39" width="8.85" height="2.54" rx="1" fill="#3f443c" opacity="0.03" transform="rotate(48.5 1401.39 359.39)"/><circle cx="676.56" cy="745.3" r="1.73" fill="#dfaaa3" opacity="0.03"/><circle cx="1587.96" cy="928.56" r="1.12" fill="#dfaaa3" opacity="0.06"/><rect x="1282.48" y="1097.92" width="23.77" height="0.86" rx="1" fill="#dfaaa3" opacity="0.07" transform="rotate(170.21 1282.48 1097.92)"/><rect x="507.97" y="384.31" width="14.19" height="1.88" rx="1" fill="#3f443c" opacity="0.04" transform="rotate(98.67 507.97 384.31)"/><rect x="849.67" y="929.63" width="14.45" height="2.37" rx="1" fill="#dfaaa3" opacity="0.04" transform="rotate(174.39 849.67 929.63)"/><rect x="1105.69" y="975.24" width="18.13" height="1.86" rx="1" fill="#dfaaa3" opacity="0.04" transform="rotate(126.59 1105.69 975.24)"/><rect x="681.24" y="550.45" width="12.63" height="2.59" rx="1" fill="#dfaaa3" opacity="0.05" transform="rotate(167.72 681.24 550.45)"/><circle cx="1022.14" cy="963.61" r="1.06" fill="#3f443c" opacity="0.03"/><rect x="1226.13" y="403.21" width="14.47" height="2.05" rx="1" fill="#dfaaa3" opacity="0.04" transform="rotate(123.78 1226.13 403.21)"/><rect x="610.88" y="538.23" width="6.94" height="1.83" rx="1" fill="#3f443c" opacity="0.05" transform="rotate(121.8 610.88 538.23)"/><circle cx="1358.54" cy="247.96" r="1.26" fill="#dfaaa3" opacity="0.07"/><rect x="1007.53" y="624.6" width="12.59" height="1.39" rx="1" fill="#3f443c" opacity="0.07" transform="rotate(179.02 1007.53 624.6)"/><circle cx="195.36" cy="975.84" r="1.43" fill="#dfaaa3" opacity="0.07"/><rect x="455.09" y="532.32" width="20.96" height="2.54" rx="1" fill="#dfaaa3" opacity="0.05" transform="rotate(36.09 455.09 532.32)"/><circle cx="139.24" cy="650.39" r="1.23" fill="#dfaaa3" opacity="0.06"/><rect x="145.55" y="982.87" width="15.89" height="0.87" rx="1" fill="#3f443c" opacity="0.05" transform="rotate(39.39 145.55 982.87)"/><rect x="501.15" y="617.7" width="20.04" height="2.16" rx="1" fill="#dfaaa3" opacity="0.08" transform="rotate(11.35 501.15 617.7)"/><circle cx="974.2" cy="15.64" r="2.18" fill="#3f443c" opacity="0.05"/><rect x="1443.88" y="801.78" width="12.42" height="2.43" rx="1" fill="#dfaaa3" opacity="0.03" transform="rotate(6.17 1443.88 801.78)"/><circle cx="358.15" cy="126.04" r="1.15" fill="#dfaaa3" opacity="0.06"/><circle cx="1257.59" cy="304.64" r="2.08" fill="#3f443c" opacity="0.04"/><circle cx="1454.14" cy="330.23" r="0.75" fill="#dfaaa3" opacity="0.07"/><circle cx="22.41" cy="16.25" r="0.77" fill="#3f443c" opacity="0.03"/><rect x="216.93" y="985.17" width="15.28" height="1.94" rx="1" fill="#3f443c" opacity="0.05" transform="rotate(91.63 216.93 985.17)"/><circle cx="1397.76" cy="51.74" r="1.03" fill="#dfaaa3" opacity="0.05"/><circle cx="1410.49" cy="1012.53" r="1.68" fill="#3f443c" opacity="0.06"/><circle cx="1119.86" cy="567.38" r="1.82" fill="#dfaaa3" opacity="0.06"/><rect x="1352.75" y="960.67" width="22.58" height="2.52" rx="1" fill="#dfaaa3" opacity="0.03" transform="rotate(156.71 1352.75 960.67)"/><rect x="1425.35" y="249.08" width="12.59" height="1.7" rx="1" fill="#3f443c" opacity="0.07" transform="rotate(36.73 1425.35 249.08)"/><rect x="1164.58" y="572.68" width="25.15" height="1.78" rx="1" fill="#3f443c" opacity="0.06" transform="rotate(76.41 1164.58 572.68)"/><rect x="70.91" y="382.96" width="6.82" height="2.07" rx="1" fill="#dfaaa3" opacity="0.04" transform="rotate(129 70.91 382.96)"/><rect x="963.07" y="575.07" width="11.65" height="0.92" rx="1" fill="#3f443c" opacity="0.04" transform="rotate(79.15 963.07 575.07)"/><rect x="819.47" y="112.64" width="9.27" height="1.43" rx="1" fill="#dfaaa3" opacity="0.04" transform="rotate(174.51 819.47 112.64)"/><rect x="1556.37" y="76.87" width="13.83" height="1.03" rx="1" fill="#3f443c" opacity="0.06" transform="rotate(115.33 1556.37 76.87)"/><rect x="68.01" y="706.2" width="20.88" height="1.9" rx="1" fill="#3f443c" opacity="0.06" transform="rotate(63.27 68.01 706.2)"/><rect x="1279.05" y="591.8" width="23.19" height="1.19" rx="1" fill="#dfaaa3" opacity="0.04" transform="rotate(165.98 1279.05 591.8)"/><rect x="41.12" y="320.22" width="6.06" height="2.14" rx="1" fill="#dfaaa3" opacity="0.05" transform="rotate(127.29 41.12 320.22)"/><rect x="1551.58" y="223.09" width="25.82" height="2.36" rx="1" fill="#dfaaa3" opacity="0.03" transform="rotate(80.87 1551.58 223.09)"/><circle cx="81.11" cy="631.31" r="1.39" fill="#dfaaa3" opacity="0.07"/><rect x="35.39" y="90.59" width="25.74" height="1.06" rx="1" fill="#dfaaa3" opacity="0.03" transform="rotate(3.39 35.39 90.59)"/><rect x="996.45" y="196.23" width="11.24" height="2.37" rx="1" fill="#3f443c" opacity="0.06" transform="rotate(129.12 996.45 196.23)"/><rect x="1498.9" y="1088.59" width="15.1" height="1.97" rx="1" fill="#dfaaa3" opacity="0.03" transform="rotate(82.65 1498.9 1088.59)"/><circle cx="269.82" cy="292.03" r="1.97" fill="#3f443c" opacity="0.08"/>
  <circle cx="1350" cy="178" r="184" fill="#dfaaa3" opacity="0.06"/>
  <circle cx="220" cy="894" r="220" fill="#7d8c75" opacity="0.08"/>
  <g transform="rotate(-6 405 515)">
    <ellipse cx="423" cy="840" rx="164.3" ry="65" fill="#1f211d" opacity="0.14"/>
    <rect x="250" y="190" width="310" height="650" rx="43.4" fill="#4e5949"/>
    <rect x="268" y="208" width="274" height="614" rx="34.1" fill="#fff9f5"/>
    <text x="290.3" y="294" class="micro" fill="#3f443c" opacity="0.62">LUNA FEED</text>
    <rect x="290.3" y="352.5" width="68.2" height="68.2" rx="10" fill="#d8dfcf" opacity="0.92"/><rect x="368.5" y="352.5" width="68.2" height="68.2" rx="10" fill="#7d8c75" opacity="0.92"/><rect x="446.7" y="352.5" width="68.2" height="68.2" rx="10" fill="#dfaaa3" opacity="0.92"/><rect x="290.3" y="430.7" width="68.2" height="68.2" rx="10" fill="#fff9f5" opacity="0.92"/><rect x="368.5" y="430.7" width="68.2" height="68.2" rx="10" fill="#d8dfcf" opacity="0.92"/><rect x="446.7" y="430.7" width="68.2" height="68.2" rx="10" fill="#7d8c75" opacity="0.92"/><rect x="290.3" y="508.9" width="68.2" height="68.2" rx="10" fill="#dfaaa3" opacity="0.92"/><rect x="368.5" y="508.9" width="68.2" height="68.2" rx="10" fill="#fff9f5" opacity="0.92"/><rect x="446.7" y="508.9" width="68.2" height="68.2" rx="10" fill="#d8dfcf" opacity="0.92"/>
  </g><g transform="rotate(4 755 370)">
    <ellipse cx="767" cy="539.8" rx="153.7" ry="33" fill="#1f211d" opacity="0.09"/>
    <rect x="610" y="205" width="290" height="330" rx="14" fill="#fff9f5"/>
    <rect x="632" y="227" width="246" height="158.4" rx="10" fill="#dfaaa3"/>
    <text x="634" y="422.8" class="brand" fill="#3f443c" font-size="26.1">DROP 01</text>
    <rect x="634" y="449.2" width="74.94" height="3" rx="2" fill="#3f443c" opacity="0.42"/><rect x="634" y="471.2" width="112.4" height="2" rx="2" fill="#3f443c" opacity="0.22"/><rect x="634" y="493.2" width="149.87" height="2" rx="2" fill="#3f443c" opacity="0.22"/>
  </g><g transform="rotate(-3 1060 500)">
    <ellipse cx="1072" cy="683.6" rx="159" ry="36" fill="#1f211d" opacity="0.09"/>
    <rect x="910" y="320" width="300" height="360" rx="14" fill="#fff9f5"/>
    <rect x="932" y="342" width="256" height="172.8" rx="10" fill="#d8dfcf"/>
    <text x="934" y="557.6" class="brand" fill="#3f443c" font-size="27">STORY</text>
    <rect x="934" y="586.4" width="77.52" height="3" rx="2" fill="#3f443c" opacity="0.42"/><rect x="934" y="608.4" width="116.28" height="2" rx="2" fill="#3f443c" opacity="0.22"/><rect x="934" y="630.4" width="155.04" height="2" rx="2" fill="#3f443c" opacity="0.22"/>
  </g><g transform="rotate(-5 740 754)">
    <ellipse cx="752" cy="910" rx="164.3" ry="30" fill="#1f211d" opacity="0.09"/>
    <rect x="585" y="604" width="310" height="300" rx="14" fill="#fff9f5"/>
    <rect x="607" y="626" width="266" height="144" rx="10" fill="#7d8c75"/>
    <text x="609" y="802" class="brand" fill="#3f443c" font-size="27.9">REELS</text>
    <rect x="609" y="826" width="80.1" height="3" rx="2" fill="#3f443c" opacity="0.42"/><rect x="609" y="848" width="120.16" height="2" rx="2" fill="#3f443c" opacity="0.22"/><rect x="609" y="870" width="160.21" height="2" rx="2" fill="#3f443c" opacity="0.22"/>
  </g><g transform="rotate(5 1200 795)">
    <ellipse cx="1216" cy="899.2" rx="137.8" ry="17" fill="#1f211d" opacity="0.11"/>
    <rect x="1070" y="710" width="260" height="170" rx="10" fill="#fff9f5"/>
    <rect x="1088" y="728" width="224" height="134" rx="5" fill="none" stroke="#3f443c" stroke-opacity="0.11"/>
    <rect x="1104" y="752" width="57.2" height="4" rx="2" fill="#dfaaa3" opacity="0.84"/>
    <text x="1104" y="767.8" class="brand" fill="#3f443c" font-size="31.2">GUIDE</text>
    <text x="1106" y="801.8" class="micro" fill="#3f443c" opacity="0.65">CAPTIONS</text>
    <rect x="1106" y="808.6" width="71.14" height="3" rx="2" fill="#3f443c" opacity="0.42"/><rect x="1106" y="830.6" width="106.7" height="2" rx="2" fill="#3f443c" opacity="0.22"/><rect x="1106" y="852.6" width="142.27" height="2" rx="2" fill="#3f443c" opacity="0.22"/>
    
  </g>
  <g opacity="0.72"><text x="78" y="1004" class="micro" fill="#3f443c">SOCIAL MEDIA DESIGN SYSTEM</text><text x="78" y="1036" class="micro" fill="#3f443c" opacity="0.55">TEMPORARY DEMONSTRATION PORTFOLIO VISUAL / HERO</text></g>
</svg>
