<?xml version="1.0" encoding="UTF-8"?>
<svg xmlns="http://www.w3.org/2000/svg" width="1600" height="1100" viewBox="0 0 1600 1100" role="img" aria-labelledby="title desc">
  <title id="title">FORMA cover demo portfolio mockup</title>
  <desc id="desc">Temporary fictional demonstration project imagery for portfolio presentation only, not client work.</desc>
  <defs>
    <linearGradient id="bg_forma_cover" x1="0" y1="0" x2="1" y2="1">
      <stop offset="0%" stop-color="#fff8ef"/>
      <stop offset="58%" stop-color="#f3ede5"/>
      <stop offset="100%" stop-color="#d1bca6"/>
    </linearGradient>
    <radialGradient id="light_forma_cover" cx="74%" cy="18%" r="64%">
      <stop offset="0%" stop-color="#ffffff" stop-opacity="0.62"/>
      <stop offset="100%" stop-color="#ffffff" stop-opacity="0"/>
    </radialGradient>
  </defs>
  <style><![CDATA[
    .brand { font-family: Helvetica, Georgia, serif; font-weight: 500; letter-spacing: .02em; }
    .body { font-family: Georgia, Arial, sans-serif; font-weight: 500; }
    .micro { font-family: Georgia, Arial, sans-serif; font-size: 20px; font-weight: 700; letter-spacing: .12em; }
  ]]></style>
  <rect width="1600" height="1100" fill="url(#bg_forma_cover)"/>
  <rect width="1600" height="1100" fill="url(#light_forma_cover)"/>
  <rect x="400.5" y="919.74" width="9.9" height="2.38" rx="1" fill="#b98276" opacity="0.06" transform="rotate(42.81 400.5 919.74)"/><rect x="268.24" y="919.33" width="26.7" height="1.78" rx="1" fill="#b98276" opacity="0.06" transform="rotate(164.44 268.24 919.33)"/><rect x="901.12" y="557.34" width="11.94" height="1.03" rx="1" fill="#b98276" opacity="0.04" transform="rotate(81.18 901.12 557.34)"/><circle cx="180.99" cy="313.87" r="2.1" fill="#343832" opacity="0.06"/><rect x="478.56" y="284.06" width="22.77" height="0.81" rx="1" fill="#b98276" opacity="0.06" transform="rotate(44.01 478.56 284.06)"/><circle cx="1334.73" cy="113.36" r="1.84" fill="#343832" opacity="0.05"/><rect x="344.49" y="1085.8" width="25.09" height="1.36" rx="1" fill="#b98276" opacity="0.06" transform="rotate(91.29 344.49 1085.8)"/><rect x="1440.86" y="342.73" width="23.82" height="1.83" rx="1" fill="#b98276" opacity="0.05" transform="rotate(54.17 1440.86 342.73)"/><rect x="796.88" y="706.79" width="22.07" height="2.07" rx="1" fill="#b98276" opacity="0.05" transform="rotate(163.06 796.88 706.79)"/><circle cx="35.66" cy="229.69" r="1.26" fill="#b98276" opacity="0.06"/><rect x="380.84" y="563.92" width="18.72" height="2.1" rx="1" fill="#b98276" opacity="0.08" transform="rotate(167.93 380.84 563.92)"/><circle cx="1576.44" cy="503.13" r="1.1" fill="#b98276" opacity="0.07"/><rect x="881.48" y="463.32" width="27.62" height="2.27" rx="1" fill="#343832" opacity="0.06" transform="rotate(155.15 881.48 463.32)"/><rect x="1499.43" y="14.09" width="12.82" height="1.51" rx="1" fill="#b98276" opacity="0.03" transform="rotate(4.51 1499.43 14.09)"/><rect x="1238.39" y="704.79" width="8.35" height="1.04" rx="1" fill="#343832" opacity="0.07" transform="rotate(137.65 1238.39 704.79)"/><rect x="13.86" y="565.98" width="7.71" height="1.79" rx="1" fill="#b98276" opacity="0.03" transform="rotate(147.19 13.86 565.98)"/><rect x="801.43" y="639.12" width="6.62" height="1.78" rx="1" fill="#343832" opacity="0.07" transform="rotate(146.42 801.43 639.12)"/><rect x="1541.22" y="543.9" width="8.73" height="1.11" rx="1" fill="#b98276" opacity="0.04" transform="rotate(111.73 1541.22 543.9)"/><rect x="568.25" y="544.1" width="23.39" height="1.33" rx="1" fill="#b98276" opacity="0.03" transform="rotate(126.36 568.25 544.1)"/><circle cx="952.77" cy="1058.64" r="1.95" fill="#b98276" opacity="0.04"/><rect x="759.02" y="648.24" width="6.8" height="2.14" rx="1" fill="#343832" opacity="0.08" transform="rotate(56.31 759.02 648.24)"/><rect x="1027.27" y="224.92" width="27.2" height="2.55" rx="1" fill="#b98276" opacity="0.07" transform="rotate(134.46 1027.27 224.92)"/><rect x="927.05" y="27.45" width="22.01" height="2.19" rx="1" fill="#b98276" opacity="0.06" transform="rotate(146.01 927.05 27.45)"/><circle cx="123.51" cy="253.26" r="0.88" fill="#343832" opacity="0.07"/><rect x="126.48" y="1027.55" width="10.1" height="1.1" rx="1" fill="#b98276" opacity="0.05" transform="rotate(58.5 126.48 1027.55)"/><rect x="1506.83" y="1044.68" width="27.16" height="1.03" rx="1" fill="#b98276" opacity="0.04" transform="rotate(26.79 1506.83 1044.68)"/><rect x="906.62" y="352.06" width="13.28" height="1.39" rx="1" fill="#b98276" opacity="0.06" transform="rotate(13.92 906.62 352.06)"/><circle cx="302.86" cy="722.13" r="1.97" fill="#b98276" opacity="0.06"/><rect x="1333.22" y="942.64" width="21.12" height="2.14" rx="1" fill="#343832" opacity="0.07" transform="rotate(142.85 1333.22 942.64)"/><rect x="52.55" y="361.16" width="10.74" height="0.87" rx="1" fill="#b98276" opacity="0.05" transform="rotate(35.45 52.55 361.16)"/><circle cx="1000.44" cy="835.84" r="1.58" fill="#b98276" opacity="0.05"/><rect x="1218.05" y="825.36" width="21.01" height="1.02" rx="1" fill="#b98276" opacity="0.07" transform="rotate(55.54 1218.05 825.36)"/><circle cx="469.21" cy="418.22" r="1.05" fill="#b98276" opacity="0.07"/><circle cx="891.42" cy="960.17" r="1.77" fill="#343832" opacity="0.05"/><rect x="2.23" y="242.13" width="21.06" height="0.85" rx="1" fill="#b98276" opacity="0.03" transform="rotate(12.63 2.23 242.13)"/><rect x="506.83" y="907.15" width="26.3" height="1.64" rx="1" fill="#b98276" opacity="0.08" transform="rotate(169.77 506.83 907.15)"/><rect x="1517.38" y="305.5" width="16.87" height="2.23" rx="1" fill="#b98276" opacity="0.08" transform="rotate(112.27 1517.38 305.5)"/><circle cx="430.35" cy="592.19" r="2.06" fill="#b98276" opacity="0.04"/><circle cx="13.79" cy="282.33" r="0.75" fill="#343832" opacity="0.07"/><rect x="1560.04" y="497.25" width="23.45" height="1.26" rx="1" fill="#b98276" opacity="0.07" transform="rotate(30.75 1560.04 497.25)"/><circle cx="1289.26" cy="680.86" r="0.84" fill="#b98276" opacity="0.05"/><circle cx="1389.41" cy="754.92" r="1.21" fill="#343832" opacity="0.07"/><circle cx="1561.54" cy="722.68" r="1.25" fill="#b98276" opacity="0.08"/><circle cx="192.22" cy="75.42" r="2.11" fill="#343832" opacity="0.08"/><rect x="213.65" y="1021.22" width="11.51" height="0.88" rx="1" fill="#b98276" opacity="0.05" transform="rotate(148.49 213.65 1021.22)"/><rect x="1157.68" y="445.31" width="7.98" height="1.56" rx="1" fill="#343832" opacity="0.07" transform="rotate(117.81 1157.68 445.31)"/><rect x="1582.69" y="393.93" width="13.28" height="1.08" rx="1" fill="#343832" opacity="0.04" transform="rotate(97.35 1582.69 393.93)"/><circle cx="1321.94" cy="587.6" r="2.12" fill="#b98276" opacity="0.03"/><rect x="1091.68" y="909.63" width="25.98" height="2.31" rx="1" fill="#343832" opacity="0.07" transform="rotate(161.13 1091.68 909.63)"/><circle cx="1540.97" cy="300.26" r="0.95" fill="#b98276" opacity="0.07"/><rect x="1342.28" y="302.05" width="6.24" height="0.87" rx="1" fill="#b98276" opacity="0.08" transform="rotate(107.9 1342.28 302.05)"/><rect x="1387.39" y="821.75" width="15.94" height="1.38" rx="1" fill="#343832" opacity="0.04" transform="rotate(88.51 1387.39 821.75)"/><circle cx="825.3" cy="251.29" r="0.9" fill="#b98276" opacity="0.04"/><rect x="1520.36" y="105.93" width="24.98" height="2.15" rx="1" fill="#b98276" opacity="0.06" transform="rotate(163.34 1520.36 105.93)"/><rect x="19.59" y="998.72" width="27.48" height="1.21" rx="1" fill="#343832" opacity="0.06" transform="rotate(168.19 19.59 998.72)"/><circle cx="111.39" cy="819.61" r="0.7" fill="#b98276" opacity="0.05"/><rect x="930.12" y="78.1" width="7.97" height="1.94" rx="1" fill="#343832" opacity="0.08" transform="rotate(110.51 930.12 78.1)"/><rect x="742.56" y="1079.82" width="13.53" height="2.39" rx="1" fill="#343832" opacity="0.04" transform="rotate(167 742.56 1079.82)"/><rect x="1196.5" y="468.79" width="18.69" height="1.51" rx="1" fill="#343832" opacity="0.04" transform="rotate(35.98 1196.5 468.79)"/><circle cx="918.37" cy="130.38" r="1.97" fill="#b98276" opacity="0.06"/><circle cx="752.49" cy="1000.61" r="1.67" fill="#343832" opacity="0.06"/><rect x="511.64" y="744.56" width="12.92" height="2.09" rx="1" fill="#343832" opacity="0.07" transform="rotate(164.66 511.64 744.56)"/><rect x="252.59" y="711.51" width="25.66" height="2.53" rx="1" fill="#343832" opacity="0.03" transform="rotate(59.76 252.59 711.51)"/><rect x="689.64" y="412.9" width="26.72" height="0.94" rx="1" fill="#343832" opacity="0.05" transform="rotate(128.9 689.64 412.9)"/><circle cx="130.43" cy="593.39" r="1.49" fill="#b98276" opacity="0.07"/><rect x="643.88" y="143.7" width="24.68" height="1.24" rx="1" fill="#343832" opacity="0.06" transform="rotate(99.49 643.88 143.7)"/><circle cx="150.24" cy="1092.87" r="1.15" fill="#343832" opacity="0.03"/><circle cx="1135" cy="274.06" r="0.98" fill="#b98276" opacity="0.04"/><circle cx="1116.88" cy="453.32" r="1.89" fill="#343832" opacity="0.05"/><rect x="960.07" y="482.88" width="21.24" height="2.43" rx="1" fill="#343832" opacity="0.03" transform="rotate(4.1 960.07 482.88)"/><circle cx="41.41" cy="407.22" r="0.9" fill="#b98276" opacity="0.05"/><rect x="873.27" y="1023.81" width="10.77" height="1.37" rx="1" fill="#343832" opacity="0.07" transform="rotate(52.4 873.27 1023.81)"/><rect x="1172.14" y="125.24" width="16.67" height="1.55" rx="1" fill="#b98276" opacity="0.06" transform="rotate(90.05 1172.14 125.24)"/><rect x="417.47" y="736.73" width="19.17" height="2.28" rx="1" fill="#343832" opacity="0.03" transform="rotate(162.8 417.47 736.73)"/><circle cx="1429.74" cy="1050.3" r="0.94" fill="#b98276" opacity="0.04"/><rect x="845.09" y="760.1" width="14.58" height="1.19" rx="1" fill="#b98276" opacity="0.04" transform="rotate(159.78 845.09 760.1)"/><circle cx="1546.87" cy="247.75" r="0.92" fill="#b98276" opacity="0.04"/><circle cx="1279.63" cy="107.17" r="0.79" fill="#b98276" opacity="0.03"/><circle cx="413.82" cy="772.85" r="1.83" fill="#343832" opacity="0.07"/><circle cx="683.85" cy="269.46" r="1.74" fill="#343832" opacity="0.04"/><rect x="929.01" y="206.94" width="16.36" height="2.59" rx="1" fill="#b98276" opacity="0.06" transform="rotate(67.18 929.01 206.94)"/><circle cx="315.33" cy="87.37" r="0.93" fill="#343832" opacity="0.03"/><circle cx="166.44" cy="835.3" r="1.78" fill="#343832" opacity="0.03"/><rect x="1126.46" y="385.97" width="22.51" height="1.86" rx="1" fill="#343832" opacity="0.08" transform="rotate(162.11 1126.46 385.97)"/><rect x="502.81" y="807.03" width="10.7" height="2.51" rx="1" fill="#b98276" opacity="0.03" transform="rotate(152.29 502.81 807.03)"/><rect x="455.94" y="355.97" width="16.18" height="2.27" rx="1" fill="#343832" opacity="0.08" transform="rotate(128.17 455.94 355.97)"/><circle cx="759.28" cy="437.91" r="0.78" fill="#b98276" opacity="0.05"/><rect x="843.24" y="1017.32" width="27.74" height="1.88" rx="1" fill="#b98276" opacity="0.07" transform="rotate(20.87 843.24 1017.32)"/><rect x="676.64" y="923.29" width="24.6" height="1.96" rx="1" fill="#343832" opacity="0.06" transform="rotate(67.81 676.64 923.29)"/><rect x="860.69" y="729.34" width="14.97" height="1.03" rx="1" fill="#b98276" opacity="0.06" transform="rotate(12.56 860.69 729.34)"/><rect x="24.54" y="688.53" width="21.46" height="1.93" rx="1" fill="#343832" opacity="0.03" transform="rotate(48.1 24.54 688.53)"/><rect x="456.02" y="454.28" width="27.28" height="1.72" rx="1" fill="#b98276" opacity="0.03" transform="rotate(72.09 456.02 454.28)"/><rect x="500.1" y="730.62" width="11.11" height="2.34" rx="1" fill="#343832" opacity="0.08" transform="rotate(68.88 500.1 730.62)"/><rect x="600.05" y="435.33" width="8.7" height="2.45" rx="1" fill="#343832" opacity="0.03" transform="rotate(107.33 600.05 435.33)"/><rect x="801.46" y="114.26" width="25.18" height="1.37" rx="1" fill="#b98276" opacity="0.05" transform="rotate(14.84 801.46 114.26)"/><rect x="33.47" y="217.3" width="17.17" height="1.21" rx="1" fill="#b98276" opacity="0.04" transform="rotate(90.8 33.47 217.3)"/><circle cx="1487.64" cy="81.34" r="0.94" fill="#343832" opacity="0.06"/><rect x="112.72" y="243.83" width="17.41" height="1.22" rx="1" fill="#b98276" opacity="0.08" transform="rotate(130.07 112.72 243.83)"/><circle cx="200.97" cy="448.02" r="1.86" fill="#b98276" opacity="0.06"/><rect x="1499.42" y="17.94" width="13.83" height="0.86" rx="1" fill="#b98276" opacity="0.03" transform="rotate(154.05 1499.42 17.94)"/><circle cx="201.2" cy="1079.7" r="1.05" fill="#b98276" opacity="0.06"/><circle cx="158.91" cy="609.17" r="1.51" fill="#b98276" opacity="0.04"/><rect x="1119.21" y="626.72" width="18.48" height="1.4" rx="1" fill="#b98276" opacity="0.04" transform="rotate(50.93 1119.21 626.72)"/><rect x="1275.87" y="852.78" width="23.54" height="2.54" rx="1" fill="#343832" opacity="0.04" transform="rotate(62.23 1275.87 852.78)"/><rect x="1025.46" y="409.59" width="25.81" height="0.95" rx="1" fill="#343832" opacity="0.08" transform="rotate(154.9 1025.46 409.59)"/><rect x="1143.55" y="44.56" width="21.07" height="2.54" rx="1" fill="#343832" opacity="0.05" transform="rotate(143.03 1143.55 44.56)"/><rect x="669.82" y="416.42" width="17.7" height="1.98" rx="1" fill="#b98276" opacity="0.05" transform="rotate(111.51 669.82 416.42)"/><rect x="745.76" y="719.96" width="6.63" height="1.82" rx="1" fill="#b98276" opacity="0.03" transform="rotate(126.95 745.76 719.96)"/><rect x="709.07" y="1017.06" width="26.86" height="2.55" rx="1" fill="#b98276" opacity="0.04" transform="rotate(112.77 709.07 1017.06)"/><rect x="918.79" y="39.67" width="27.21" height="1.52" rx="1" fill="#343832" opacity="0.08" transform="rotate(44.87 918.79 39.67)"/><rect x="1111.12" y="742.54" width="12.7" height="1.3" rx="1" fill="#b98276" opacity="0.08" transform="rotate(76.45 1111.12 742.54)"/><rect x="1117.46" y="678.5" width="20.15" height="2.11" rx="1" fill="#b98276" opacity="0.07" transform="rotate(168.21 1117.46 678.5)"/><rect x="935.99" y="497.62" width="10.31" height="2.45" rx="1" fill="#343832" opacity="0.07" transform="rotate(4.64 935.99 497.62)"/><circle cx="181.9" cy="371.55" r="2.2" fill="#343832" opacity="0.06"/><rect x="1152.28" y="741.4" width="22.51" height="2.1" rx="1" fill="#343832" opacity="0.06" transform="rotate(72.05 1152.28 741.4)"/><rect x="199.61" y="450.4" width="25.15" height="1.65" rx="1" fill="#343832" opacity="0.08" transform="rotate(91.21 199.61 450.4)"/><rect x="885.14" y="227.12" width="20.99" height="0.9" rx="1" fill="#343832" opacity="0.07" transform="rotate(105.85 885.14 227.12)"/><rect x="906.08" y="50.85" width="23.48" height="1.82" rx="1" fill="#343832" opacity="0.06" transform="rotate(93.52 906.08 50.85)"/><rect x="790.9" y="969.53" width="19.29" height="0.95" rx="1" fill="#b98276" opacity="0.07" transform="rotate(113.22 790.9 969.53)"/><rect x="3.89" y="363.96" width="14.39" height="2" rx="1" fill="#b98276" opacity="0.06" transform="rotate(74.38 3.89 363.96)"/><rect x="776.72" y="912.66" width="25.95" height="1.82" rx="1" fill="#b98276" opacity="0.08" transform="rotate(103.62 776.72 912.66)"/><rect x="1344.49" y="474.96" width="16.11" height="1.82" rx="1" fill="#b98276" opacity="0.06" transform="rotate(63.21 1344.49 474.96)"/><rect x="559.92" y="229.76" width="11.02" height="1.48" rx="1" fill="#343832" opacity="0.06" transform="rotate(3.94 559.92 229.76)"/><rect x="344.87" y="865.8" width="27.47" height="2.54" rx="1" fill="#b98276" opacity="0.08" transform="rotate(104.19 344.87 865.8)"/><rect x="345.32" y="132.3" width="20.01" height="0.86" rx="1" fill="#343832" opacity="0.08" transform="rotate(20.9 345.32 132.3)"/><rect x="1363.8" y="512.22" width="16.49" height="2.27" rx="1" fill="#b98276" opacity="0.04" transform="rotate(5.73 1363.8 512.22)"/><rect x="1596" y="605.34" width="19.47" height="1.91" rx="1" fill="#b98276" opacity="0.07" transform="rotate(85.6 1596 605.34)"/><rect x="521.17" y="360.81" width="15.68" height="1.3" rx="1" fill="#343832" opacity="0.04" transform="rotate(14.29 521.17 360.81)"/><rect x="604.66" y="441.76" width="22.38" height="2.24" rx="1" fill="#b98276" opacity="0.05" transform="rotate(102.22 604.66 441.76)"/><rect x="418.03" y="605.18" width="6.16" height="1.56" rx="1" fill="#343832" opacity="0.06" transform="rotate(20.04 418.03 605.18)"/><rect x="165.24" y="201.76" width="14.65" height="1.41" rx="1" fill="#343832" opacity="0.06" transform="rotate(111.87 165.24 201.76)"/><circle cx="883.38" cy="1073.45" r="0.91" fill="#b98276" opacity="0.07"/><circle cx="535.82" cy="607.29" r="1.42" fill="#b98276" opacity="0.04"/><circle cx="687.1" cy="590.39" r="0.78" fill="#b98276" opacity="0.08"/><circle cx="206.65" cy="1018.45" r="0.95" fill="#343832" opacity="0.03"/><rect x="925.41" y="838.12" width="18.13" height="1.42" rx="1" fill="#b98276" opacity="0.05" transform="rotate(168.76 925.41 838.12)"/><rect x="892.16" y="260.18" width="13.39" height="1.15" rx="1" fill="#b98276" opacity="0.07" transform="rotate(138.37 892.16 260.18)"/><rect x="42.26" y="601.78" width="21.38" height="2.37" rx="1" fill="#b98276" opacity="0.03" transform="rotate(69.46 42.26 601.78)"/><circle cx="1507.97" cy="772.48" r="1.15" fill="#b98276" opacity="0.04"/><circle cx="247.3" cy="310.2" r="1.54" fill="#343832" opacity="0.03"/>
  <circle cx="1350" cy="178" r="184" fill="#b98276" opacity="0.06"/>
  <circle cx="220" cy="894" r="220" fill="#87927a" opacity="0.08"/>
  <g transform="rotate(-5 525 515)">
    <ellipse cx="541" cy="783.4" rx="206.7" ry="54" fill="#1f211d" opacity="0.11"/>
    <rect x="330" y="245" width="390" height="540" rx="8" fill="#fff8ef"/>
    <path d="M 439.2 590.6 L 478.2 396.2 H 595.2 L 626.4 590.6" fill="none" stroke="#454a42" stroke-width="10" stroke-linecap="round" stroke-linejoin="round"/>
    <path d="M 450.9 590.6 L 423.6 720.2 M 610.8 590.6 L 642 720.2" stroke="#454a42" stroke-width="8" stroke-linecap="round"/>
    <text x="376.8" y="331.4" class="brand" fill="#343832" font-size="42.9">FORMA</text>
  </g><g transform="rotate(5 970 425)">
      <ellipse cx="770" cy="484.32" rx="44.52" ry="4.2" fill="#1f211d" opacity="0.08"/>
      <rect x="720" y="360" width="86" height="116" rx="8" fill="#fff8ef"/>
      <text x="732" y="456" class="micro" fill="#343832" opacity="0.62">01</text>
    
      <ellipse cx="874" cy="484.32" rx="44.52" ry="4.2" fill="#1f211d" opacity="0.08"/>
      <rect x="824" y="360" width="86" height="116" rx="8" fill="#d1bca6"/>
      <text x="836" y="456" class="micro" fill="#343832" opacity="0.62">02</text>
    
      <ellipse cx="978" cy="484.32" rx="44.52" ry="4.2" fill="#1f211d" opacity="0.08"/>
      <rect x="928" y="360" width="86" height="116" rx="8" fill="#b98276"/>
      <text x="940" y="456" class="micro" fill="#343832" opacity="0.62">03</text>
    
      <ellipse cx="1082" cy="484.32" rx="44.52" ry="4.2" fill="#1f211d" opacity="0.08"/>
      <rect x="1032" y="360" width="86" height="116" rx="8" fill="#87927a"/>
      <text x="1044" y="456" class="micro" fill="#343832" opacity="0.62">04</text>
    
      <ellipse cx="1186" cy="484.32" rx="44.52" ry="4.2" fill="#1f211d" opacity="0.08"/>
      <rect x="1136" y="360" width="86" height="116" rx="8" fill="#454a42"/>
      <text x="1148" y="456" class="micro" fill="#fff8ef" opacity="0.62">05</text>
    </g><g transform="rotate(-6 1100 705)">
    <ellipse cx="1116" cy="827.6" rx="164.3" ry="21" fill="#1f211d" opacity="0.11"/>
    <rect x="945" y="600" width="310" height="210" rx="10" fill="#fff8ef"/>
    <rect x="963" y="618" width="274" height="174" rx="5" fill="none" stroke="#343832" stroke-opacity="0.11"/>
    <rect x="979" y="642" width="68.2" height="4" rx="2" fill="#b98276" opacity="0.84"/>
    <text x="979" y="671.4" class="brand" fill="#343832" font-size="37.2">CATALOG</text>
    <text x="981" y="705.4" class="micro" fill="#343832" opacity="0.65">OBJECT CARD</text>
    <rect x="981" y="721.8" width="84.82" height="3" rx="2" fill="#343832" opacity="0.42"/><rect x="981" y="743.8" width="127.22" height="2" rx="2" fill="#343832" opacity="0.22"/><rect x="981" y="765.8" width="169.63" height="2" rx="2" fill="#343832" opacity="0.22"/><rect x="981" y="787.8" width="95.98" height="2" rx="2" fill="#343832" opacity="0.22"/>
    
  </g>
  <g opacity="0.72"><text x="78" y="1004" class="micro" fill="#343832">FURNITURE IDENTITY</text><text x="78" y="1036" class="micro" fill="#343832" opacity="0.55">TEMPORARY DEMONSTRATION PORTFOLIO VISUAL / COVER</text></g>
</svg>
