<?xml version="1.0" encoding="UTF-8"?>
<svg xmlns="http://www.w3.org/2000/svg" width="1600" height="1100" viewBox="0 0 1600 1100" role="img" aria-labelledby="title desc">
  <title id="title">FORMA gallery-4 demo portfolio mockup</title>
  <desc id="desc">Temporary fictional demonstration project imagery for portfolio presentation only, not client work.</desc>
  <defs>
    <linearGradient id="bg_forma_gallery_4" x1="0" y1="0" x2="1" y2="1">
      <stop offset="0%" stop-color="#fff8ef"/>
      <stop offset="58%" stop-color="#f3ede5"/>
      <stop offset="100%" stop-color="#d1bca6"/>
    </linearGradient>
    <radialGradient id="light_forma_gallery_4" cx="74%" cy="18%" r="64%">
      <stop offset="0%" stop-color="#ffffff" stop-opacity="0.62"/>
      <stop offset="100%" stop-color="#ffffff" stop-opacity="0"/>
    </radialGradient>
  </defs>
  <style><![CDATA[
    .brand { font-family: Helvetica, Georgia, serif; font-weight: 500; letter-spacing: .02em; }
    .body { font-family: Georgia, Arial, sans-serif; font-weight: 500; }
    .micro { font-family: Georgia, Arial, sans-serif; font-size: 20px; font-weight: 700; letter-spacing: .12em; }
  ]]></style>
  <rect width="1600" height="1100" fill="url(#bg_forma_gallery_4)"/>
  <rect width="1600" height="1100" fill="url(#light_forma_gallery_4)"/>
  <rect x="1241.86" y="234.9" width="7.15" height="1.37" rx="1" fill="#343832" opacity="0.06" transform="rotate(173.06 1241.86 234.9)"/><rect x="1016.75" y="272.73" width="10.03" height="1.68" rx="1" fill="#b98276" opacity="0.07" transform="rotate(109.85 1016.75 272.73)"/><rect x="1199.7" y="521.04" width="12.07" height="1.85" rx="1" fill="#b98276" opacity="0.04" transform="rotate(40.35 1199.7 521.04)"/><circle cx="794.26" cy="1055.6" r="1.51" fill="#b98276" opacity="0.05"/><rect x="1062.62" y="38.91" width="19.93" height="2" rx="1" fill="#343832" opacity="0.03" transform="rotate(117.38 1062.62 38.91)"/><circle cx="963.54" cy="484.39" r="0.74" fill="#b98276" opacity="0.07"/><rect x="24.84" y="331.32" width="19.51" height="1.24" rx="1" fill="#b98276" opacity="0.03" transform="rotate(29.73 24.84 331.32)"/><circle cx="1386.21" cy="54.15" r="1.27" fill="#343832" opacity="0.03"/><rect x="602.47" y="891.38" width="22.4" height="2.47" rx="1" fill="#343832" opacity="0.06" transform="rotate(52.89 602.47 891.38)"/><circle cx="1381.02" cy="634.96" r="0.7" fill="#343832" opacity="0.03"/><circle cx="439.9" cy="393.17" r="1.61" fill="#b98276" opacity="0.05"/><circle cx="364.54" cy="542.31" r="0.81" fill="#343832" opacity="0.03"/><circle cx="84.88" cy="738.39" r="1.49" fill="#b98276" opacity="0.05"/><rect x="1562.13" y="768.55" width="20.89" height="2.52" rx="1" fill="#b98276" opacity="0.06" transform="rotate(132.15 1562.13 768.55)"/><circle cx="414.7" cy="209.61" r="2.2" fill="#343832" opacity="0.06"/><rect x="1371.57" y="240.97" width="13.16" height="2.01" rx="1" fill="#343832" opacity="0.03" transform="rotate(84.4 1371.57 240.97)"/><rect x="508.03" y="11.71" width="8.1" height="2.47" rx="1" fill="#b98276" opacity="0.03" transform="rotate(58.82 508.03 11.71)"/><rect x="1463.74" y="122.96" width="12.29" height="0.89" rx="1" fill="#b98276" opacity="0.05" transform="rotate(37.39 1463.74 122.96)"/><rect x="272.76" y="268.56" width="17.58" height="0.84" rx="1" fill="#b98276" opacity="0.08" transform="rotate(169.92 272.76 268.56)"/><rect x="50.71" y="204.78" width="27.44" height="0.81" rx="1" fill="#343832" opacity="0.06" transform="rotate(1.7 50.71 204.78)"/><rect x="433.06" y="491.24" width="24.77" height="0.95" rx="1" fill="#343832" opacity="0.03" transform="rotate(30.3 433.06 491.24)"/><rect x="347.2" y="614.76" width="26.8" height="1.89" rx="1" fill="#343832" opacity="0.06" transform="rotate(147.68 347.2 614.76)"/><circle cx="353.35" cy="407.2" r="2.07" fill="#343832" opacity="0.07"/><circle cx="377.76" cy="1061.73" r="0.94" fill="#b98276" opacity="0.07"/><rect x="1174.82" y="251.67" width="11.36" height="1.16" rx="1" fill="#b98276" opacity="0.07" transform="rotate(96.85 1174.82 251.67)"/><rect x="299.85" y="174.73" width="11.69" height="1.39" rx="1" fill="#343832" opacity="0.04" transform="rotate(88.49 299.85 174.73)"/><rect x="1138.96" y="1041.22" width="10.91" height="2.55" rx="1" fill="#b98276" opacity="0.03" transform="rotate(58.74 1138.96 1041.22)"/><rect x="1159.94" y="265.85" width="16.18" height="1.71" rx="1" fill="#b98276" opacity="0.06" transform="rotate(178.98 1159.94 265.85)"/><circle cx="393.01" cy="870.61" r="0.77" fill="#343832" opacity="0.04"/><rect x="328.52" y="709.36" width="20.15" height="1.27" rx="1" fill="#343832" opacity="0.08" transform="rotate(40.08 328.52 709.36)"/><circle cx="653.72" cy="980.35" r="1.18" fill="#b98276" opacity="0.04"/><circle cx="276.49" cy="365.47" r="0.95" fill="#343832" opacity="0.04"/><circle cx="1471.77" cy="1058.66" r="2.28" fill="#343832" opacity="0.03"/><circle cx="1551.47" cy="244.23" r="1.24" fill="#343832" opacity="0.07"/><rect x="366.14" y="327.33" width="18.61" height="2.51" rx="1" fill="#b98276" opacity="0.05" transform="rotate(96.84 366.14 327.33)"/><rect x="1550.79" y="450.38" width="9.8" height="1.51" rx="1" fill="#b98276" opacity="0.04" transform="rotate(19.98 1550.79 450.38)"/><rect x="1131.7" y="297.46" width="21.47" height="2.6" rx="1" fill="#343832" opacity="0.05" transform="rotate(21.85 1131.7 297.46)"/><rect x="892.65" y="901.67" width="8.47" height="2.04" rx="1" fill="#343832" opacity="0.04" transform="rotate(62.86 892.65 901.67)"/><circle cx="899.23" cy="182.45" r="0.98" fill="#b98276" opacity="0.03"/><rect x="577.23" y="1079.73" width="24.31" height="1.43" rx="1" fill="#b98276" opacity="0.08" transform="rotate(163.5 577.23 1079.73)"/><rect x="1157.53" y="796.41" width="11.23" height="2.01" rx="1" fill="#343832" opacity="0.05" transform="rotate(75.57 1157.53 796.41)"/><circle cx="1375.87" cy="124.13" r="1.47" fill="#b98276" opacity="0.08"/><circle cx="1072.14" cy="484.15" r="1.07" fill="#343832" opacity="0.05"/><rect x="211.27" y="680.78" width="11.59" height="2.22" rx="1" fill="#343832" opacity="0.03" transform="rotate(68.09 211.27 680.78)"/><rect x="198.86" y="926.32" width="22.87" height="1.56" rx="1" fill="#343832" opacity="0.03" transform="rotate(147.75 198.86 926.32)"/><rect x="1553.59" y="475.61" width="10.73" height="1.13" rx="1" fill="#b98276" opacity="0.07" transform="rotate(57.59 1553.59 475.61)"/><rect x="1405.02" y="47.26" width="14.09" height="1.94" rx="1" fill="#b98276" opacity="0.03" transform="rotate(25.02 1405.02 47.26)"/><rect x="998.81" y="752.34" width="19.99" height="1.73" rx="1" fill="#b98276" opacity="0.06" transform="rotate(33.33 998.81 752.34)"/><rect x="964.95" y="609.32" width="11.3" height="0.87" rx="1" fill="#343832" opacity="0.08" transform="rotate(102.98 964.95 609.32)"/><rect x="104.99" y="136.6" width="10.72" height="1.26" rx="1" fill="#b98276" opacity="0.07" transform="rotate(33.43 104.99 136.6)"/><circle cx="1275.54" cy="779.25" r="1.08" fill="#343832" opacity="0.04"/><rect x="1040.55" y="106.78" width="26.66" height="1.57" rx="1" fill="#b98276" opacity="0.04" transform="rotate(157.41 1040.55 106.78)"/><rect x="744.44" y="647.48" width="20.32" height="2.34" rx="1" fill="#b98276" opacity="0.03" transform="rotate(69.63 744.44 647.48)"/><rect x="1291.54" y="176.65" width="7.24" height="1.64" rx="1" fill="#b98276" opacity="0.07" transform="rotate(172.49 1291.54 176.65)"/><rect x="1453.4" y="140.87" width="19.98" height="2.28" rx="1" fill="#b98276" opacity="0.06" transform="rotate(1.38 1453.4 140.87)"/><rect x="1166.08" y="534.93" width="20.74" height="0.86" rx="1" fill="#b98276" opacity="0.06" transform="rotate(111.81 1166.08 534.93)"/><circle cx="2.48" cy="412.58" r="0.97" fill="#b98276" opacity="0.06"/><circle cx="550.92" cy="840.22" r="0.91" fill="#b98276" opacity="0.06"/><circle cx="575.01" cy="459.93" r="1.08" fill="#b98276" opacity="0.08"/><circle cx="594.9" cy="287.47" r="2.06" fill="#343832" opacity="0.03"/><rect x="1049.49" y="611.08" width="10.45" height="1" rx="1" fill="#b98276" opacity="0.06" transform="rotate(131.1 1049.49 611.08)"/><rect x="1139.47" y="741.64" width="20.31" height="1.04" rx="1" fill="#343832" opacity="0.05" transform="rotate(151.6 1139.47 741.64)"/><rect x="199.71" y="95.06" width="8.57" height="1.65" rx="1" fill="#b98276" opacity="0.03" transform="rotate(157.29 199.71 95.06)"/><circle cx="1429.16" cy="1035.34" r="1.27" fill="#b98276" opacity="0.08"/><rect x="317.87" y="0.19" width="17.51" height="1.72" rx="1" fill="#b98276" opacity="0.04" transform="rotate(25.14 317.87 0.19)"/><rect x="445.03" y="900.91" width="13" height="1.27" rx="1" fill="#343832" opacity="0.03" transform="rotate(18.82 445.03 900.91)"/><rect x="1545.36" y="245.34" width="19.06" height="2.09" rx="1" fill="#343832" opacity="0.06" transform="rotate(10.74 1545.36 245.34)"/><circle cx="575.18" cy="424.35" r="1.86" fill="#b98276" opacity="0.04"/><circle cx="31.37" cy="985.38" r="1.77" fill="#b98276" opacity="0.07"/><rect x="343.4" y="515.1" width="6" height="1.28" rx="1" fill="#343832" opacity="0.04" transform="rotate(57.12 343.4 515.1)"/><rect x="108.2" y="317.58" width="8.32" height="1.45" rx="1" fill="#343832" opacity="0.04" transform="rotate(30.03 108.2 317.58)"/><circle cx="147.24" cy="133.38" r="1.61" fill="#b98276" opacity="0.07"/><rect x="381.47" y="674.81" width="18.82" height="2.6" rx="1" fill="#b98276" opacity="0.05" transform="rotate(82.1 381.47 674.81)"/><circle cx="380.09" cy="1089.73" r="1.34" fill="#b98276" opacity="0.04"/><rect x="1102.67" y="898.27" width="6.75" height="2.56" rx="1" fill="#b98276" opacity="0.04" transform="rotate(9.58 1102.67 898.27)"/><rect x="341.94" y="1033.4" width="17.61" height="2.02" rx="1" fill="#343832" opacity="0.04" transform="rotate(10.83 341.94 1033.4)"/><rect x="490.88" y="1054.2" width="20.6" height="2.59" rx="1" fill="#b98276" opacity="0.05" transform="rotate(45.87 490.88 1054.2)"/><circle cx="684.07" cy="1060.37" r="1.8" fill="#b98276" opacity="0.05"/><circle cx="924.61" cy="827.11" r="1.92" fill="#b98276" opacity="0.08"/><circle cx="930.57" cy="883.86" r="1.5" fill="#343832" opacity="0.03"/><rect x="259.68" y="887.47" width="10.91" height="0.9" rx="1" fill="#343832" opacity="0.04" transform="rotate(152.48 259.68 887.47)"/><rect x="873.38" y="184.13" width="7.35" height="1.6" rx="1" fill="#343832" opacity="0.04" transform="rotate(75.09 873.38 184.13)"/><rect x="56.41" y="233.21" width="17.15" height="1.16" rx="1" fill="#b98276" opacity="0.07" transform="rotate(58.44 56.41 233.21)"/><rect x="1300.03" y="135.1" width="27.68" height="0.85" rx="1" fill="#343832" opacity="0.03" transform="rotate(125.99 1300.03 135.1)"/><rect x="860.03" y="678.31" width="14.31" height="2.52" rx="1" fill="#343832" opacity="0.03" transform="rotate(57.23 860.03 678.31)"/><rect x="264.54" y="716.42" width="26.97" height="2.51" rx="1" fill="#343832" opacity="0.07" transform="rotate(163.71 264.54 716.42)"/><rect x="1322.76" y="965.49" width="8.23" height="1.54" rx="1" fill="#b98276" opacity="0.05" transform="rotate(23.51 1322.76 965.49)"/><rect x="1426.64" y="150.8" width="13.59" height="2.54" rx="1" fill="#b98276" opacity="0.04" transform="rotate(81.82 1426.64 150.8)"/><circle cx="232.36" cy="750.66" r="1.87" fill="#b98276" opacity="0.07"/><rect x="795.52" y="388.91" width="26.97" height="0.94" rx="1" fill="#343832" opacity="0.05" transform="rotate(96.8 795.52 388.91)"/><circle cx="300.38" cy="476.83" r="0.95" fill="#b98276" opacity="0.03"/><rect x="938.34" y="731.07" width="15" height="2.34" rx="1" fill="#343832" opacity="0.05" transform="rotate(95.16 938.34 731.07)"/><rect x="145.05" y="1068.2" width="7.02" height="1.33" rx="1" fill="#b98276" opacity="0.05" transform="rotate(93.08 145.05 1068.2)"/><circle cx="724.73" cy="438.16" r="1.53" fill="#b98276" opacity="0.04"/><circle cx="1493.15" cy="970.92" r="1.81" fill="#b98276" opacity="0.05"/><rect x="86.37" y="539.84" width="26.57" height="0.86" rx="1" fill="#343832" opacity="0.07" transform="rotate(178.03 86.37 539.84)"/><circle cx="59.8" cy="535.48" r="1" fill="#343832" opacity="0.07"/><circle cx="61.23" cy="161.25" r="1.44" fill="#b98276" opacity="0.06"/><circle cx="1344.43" cy="742.39" r="1.1" fill="#b98276" opacity="0.05"/><rect x="882.1" y="379.07" width="7.86" height="1.41" rx="1" fill="#b98276" opacity="0.06" transform="rotate(173.35 882.1 379.07)"/><rect x="691.7" y="2.31" width="20.78" height="1.9" rx="1" fill="#b98276" opacity="0.06" transform="rotate(104.77 691.7 2.31)"/><rect x="1301.49" y="484.09" width="19.82" height="2.21" rx="1" fill="#343832" opacity="0.03" transform="rotate(90.18 1301.49 484.09)"/><rect x="1463.61" y="857.98" width="19.72" height="0.82" rx="1" fill="#b98276" opacity="0.03" transform="rotate(17.44 1463.61 857.98)"/><circle cx="294.43" cy="1022.47" r="0.82" fill="#343832" opacity="0.05"/><circle cx="364.05" cy="994.87" r="1.34" fill="#343832" opacity="0.08"/><rect x="956.87" y="325.88" width="12.04" height="2.56" rx="1" fill="#b98276" opacity="0.03" transform="rotate(28.98 956.87 325.88)"/><circle cx="929.75" cy="976.82" r="0.7" fill="#b98276" opacity="0.03"/><rect x="269.47" y="558.2" width="13.6" height="1.74" rx="1" fill="#b98276" opacity="0.06" transform="rotate(138.24 269.47 558.2)"/><circle cx="290.48" cy="691.06" r="0.81" fill="#343832" opacity="0.07"/><rect x="1545.11" y="488.83" width="16.03" height="1.33" rx="1" fill="#343832" opacity="0.04" transform="rotate(61.13 1545.11 488.83)"/><circle cx="1361.4" cy="430.15" r="1.57" fill="#343832" opacity="0.03"/><rect x="568.13" y="120.77" width="25.05" height="1.13" rx="1" fill="#b98276" opacity="0.07" transform="rotate(51.77 568.13 120.77)"/><circle cx="1180.98" cy="1009.51" r="1.72" fill="#b98276" opacity="0.06"/><rect x="1519.21" y="660.6" width="7.1" height="2.26" rx="1" fill="#b98276" opacity="0.05" transform="rotate(38.21 1519.21 660.6)"/><rect x="393.06" y="763.71" width="16.18" height="1.54" rx="1" fill="#343832" opacity="0.06" transform="rotate(163.49 393.06 763.71)"/><rect x="1560.28" y="557.57" width="9.98" height="1.42" rx="1" fill="#343832" opacity="0.03" transform="rotate(146.6 1560.28 557.57)"/><circle cx="997.93" cy="1025.22" r="1.66" fill="#b98276" opacity="0.05"/><circle cx="978.33" cy="211.29" r="0.74" fill="#b98276" opacity="0.04"/><rect x="558.05" y="575.31" width="10.46" height="1.28" rx="1" fill="#b98276" opacity="0.06" transform="rotate(110.8 558.05 575.31)"/><circle cx="485.99" cy="244.17" r="1.32" fill="#343832" opacity="0.06"/><rect x="1061.29" y="117.14" width="26.32" height="2.18" rx="1" fill="#343832" opacity="0.03" transform="rotate(159.09 1061.29 117.14)"/><rect x="1337.6" y="1097.38" width="17.77" height="0.84" rx="1" fill="#b98276" opacity="0.07" transform="rotate(129.88 1337.6 1097.38)"/><circle cx="333.66" cy="895.47" r="1.78" fill="#343832" opacity="0.07"/><circle cx="857.56" cy="413.43" r="0.79" fill="#343832" opacity="0.03"/><rect x="56.17" y="1042.63" width="9.02" height="2.46" rx="1" fill="#343832" opacity="0.07" transform="rotate(91.3 56.17 1042.63)"/><circle cx="1060.37" cy="99.59" r="1.89" fill="#b98276" opacity="0.03"/><rect x="214.12" y="337.48" width="7.78" height="2.07" rx="1" fill="#343832" opacity="0.03" transform="rotate(154.18 214.12 337.48)"/><rect x="1113.36" y="245.27" width="12.71" height="1.99" rx="1" fill="#b98276" opacity="0.07" transform="rotate(142.37 1113.36 245.27)"/><circle cx="672.86" cy="947.58" r="1.42" fill="#343832" opacity="0.06"/><rect x="977.46" y="136.25" width="16.06" height="2.24" rx="1" fill="#343832" opacity="0.05" transform="rotate(27.7 977.46 136.25)"/><circle cx="152.06" cy="279.45" r="2.15" fill="#b98276" opacity="0.03"/><circle cx="824.14" cy="375.71" r="0.94" fill="#343832" opacity="0.07"/><circle cx="125.18" cy="102.56" r="1.66" fill="#b98276" opacity="0.05"/><circle cx="972.91" cy="507.12" r="0.77" fill="#b98276" opacity="0.05"/><circle cx="96.44" cy="1050.74" r="1.67" fill="#b98276" opacity="0.05"/><rect x="869.82" y="749.98" width="11.38" height="0.98" rx="1" fill="#b98276" opacity="0.03" transform="rotate(83.33 869.82 749.98)"/><rect x="251.7" y="398.84" width="7.05" height="2.19" rx="1" fill="#343832" opacity="0.04" transform="rotate(29.16 251.7 398.84)"/><rect x="863.97" y="980.81" width="19.14" height="0.98" rx="1" fill="#b98276" opacity="0.05" transform="rotate(65.66 863.97 980.81)"/><rect x="1189.93" y="632.83" width="18.49" height="2.29" rx="1" fill="#b98276" opacity="0.04" transform="rotate(147.98 1189.93 632.83)"/><circle cx="1433.75" cy="927.45" r="1.47" fill="#b98276" opacity="0.03"/>
  <circle cx="1350" cy="178" r="184" fill="#b98276" opacity="0.06"/>
  <circle cx="220" cy="894" r="220" fill="#87927a" opacity="0.08"/>
  <g transform="rotate(-6 440 430)">
    <ellipse cx="452" cy="613.6" rx="164.3" ry="36" fill="#1f211d" opacity="0.09"/>
    <rect x="285" y="250" width="310" height="360" rx="14" fill="#fff8ef"/>
    <rect x="307" y="272" width="266" height="172.8" rx="10" fill="#d1bca6"/>
    <text x="309" y="487.6" class="brand" fill="#343832" font-size="27.9">OBJECT</text>
    <rect x="309" y="516.4" width="80.1" height="3" rx="2" fill="#343832" opacity="0.42"/><rect x="309" y="538.4" width="120.16" height="2" rx="2" fill="#343832" opacity="0.22"/><rect x="309" y="560.4" width="160.21" height="2" rx="2" fill="#343832" opacity="0.22"/>
  </g><g transform="rotate(4 780 540)">
    <ellipse cx="792" cy="723.6" rx="164.3" ry="36" fill="#1f211d" opacity="0.09"/>
    <rect x="625" y="360" width="310" height="360" rx="14" fill="#fff8ef"/>
    <rect x="647" y="382" width="266" height="172.8" rx="10" fill="#87927a"/>
    <text x="649" y="597.6" class="brand" fill="#343832" font-size="27.9">ROOM</text>
    <rect x="649" y="626.4" width="80.1" height="3" rx="2" fill="#343832" opacity="0.42"/><rect x="649" y="648.4" width="120.16" height="2" rx="2" fill="#343832" opacity="0.22"/><rect x="649" y="670.4" width="160.21" height="2" rx="2" fill="#343832" opacity="0.22"/>
  </g><g transform="rotate(-5 1150 527.5)">
    <ellipse cx="1168" cy="841" rx="159" ry="62.5" fill="#1f211d" opacity="0.14"/>
    <rect x="1000" y="215" width="300" height="625" rx="42" fill="#454a42"/>
    <rect x="1018" y="233" width="264" height="589" rx="33" fill="#fff8ef"/>
    <text x="1039" y="315" class="micro" fill="#343832" opacity="0.62">FORMA</text>
    <rect x="1039" y="371.25" width="66" height="66" rx="10" fill="#d1bca6" opacity="0.92"/><rect x="1115" y="371.25" width="66" height="66" rx="10" fill="#87927a" opacity="0.92"/><rect x="1191" y="371.25" width="66" height="66" rx="10" fill="#b98276" opacity="0.92"/><rect x="1039" y="447.25" width="66" height="66" rx="10" fill="#fff8ef" opacity="0.92"/><rect x="1115" y="447.25" width="66" height="66" rx="10" fill="#d1bca6" opacity="0.92"/><rect x="1191" y="447.25" width="66" height="66" rx="10" fill="#87927a" opacity="0.92"/><rect x="1039" y="523.25" width="66" height="66" rx="10" fill="#b98276" opacity="0.92"/><rect x="1115" y="523.25" width="66" height="66" rx="10" fill="#fff8ef" opacity="0.92"/><rect x="1191" y="523.25" width="66" height="66" rx="10" fill="#d1bca6" opacity="0.92"/>
  </g>
  <g opacity="0.72"><text x="78" y="1004" class="micro" fill="#343832">FURNITURE IDENTITY</text><text x="78" y="1036" class="micro" fill="#343832" opacity="0.55">TEMPORARY DEMONSTRATION PORTFOLIO VISUAL / GALLERY-4</text></g>
</svg>
