<?xml version="1.0" encoding="UTF-8"?>
<svg xmlns="http://www.w3.org/2000/svg" width="1600" height="1100" viewBox="0 0 1600 1100" role="img" aria-labelledby="title desc">
  <title id="title">FORMA gallery-1 demo portfolio mockup</title>
  <desc id="desc">Temporary fictional demonstration project imagery for portfolio presentation only, not client work.</desc>
  <defs>
    <linearGradient id="bg_forma_gallery_1" x1="0" y1="0" x2="1" y2="1">
      <stop offset="0%" stop-color="#fff8ef"/>
      <stop offset="58%" stop-color="#f3ede5"/>
      <stop offset="100%" stop-color="#d1bca6"/>
    </linearGradient>
    <radialGradient id="light_forma_gallery_1" cx="74%" cy="18%" r="64%">
      <stop offset="0%" stop-color="#ffffff" stop-opacity="0.62"/>
      <stop offset="100%" stop-color="#ffffff" stop-opacity="0"/>
    </radialGradient>
  </defs>
  <style><![CDATA[
    .brand { font-family: Helvetica, Georgia, serif; font-weight: 500; letter-spacing: .02em; }
    .body { font-family: Georgia, Arial, sans-serif; font-weight: 500; }
    .micro { font-family: Georgia, Arial, sans-serif; font-size: 20px; font-weight: 700; letter-spacing: .12em; }
  ]]></style>
  <rect width="1600" height="1100" fill="url(#bg_forma_gallery_1)"/>
  <rect width="1600" height="1100" fill="url(#light_forma_gallery_1)"/>
  <rect x="355.5" y="684.3" width="23.37" height="2.54" rx="1" fill="#b98276" opacity="0.07" transform="rotate(146.99 355.5 684.3)"/><circle cx="214.57" cy="231.75" r="0.83" fill="#343832" opacity="0.03"/><rect x="973.07" y="817.04" width="13.52" height="0.93" rx="1" fill="#343832" opacity="0.03" transform="rotate(135.17 973.07 817.04)"/><circle cx="1014.65" cy="459.15" r="0.99" fill="#343832" opacity="0.07"/><circle cx="647.27" cy="534.69" r="1.41" fill="#343832" opacity="0.07"/><circle cx="1540.12" cy="401.66" r="1.63" fill="#b98276" opacity="0.03"/><rect x="515.28" y="1018.05" width="21.71" height="2.17" rx="1" fill="#343832" opacity="0.07" transform="rotate(117.25 515.28 1018.05)"/><rect x="154.56" y="80.55" width="10.59" height="2.03" rx="1" fill="#b98276" opacity="0.03" transform="rotate(145.39 154.56 80.55)"/><circle cx="1398.37" cy="559.7" r="0.98" fill="#343832" opacity="0.07"/><rect x="1142.67" y="299.09" width="8.62" height="2.6" rx="1" fill="#b98276" opacity="0.05" transform="rotate(165.05 1142.67 299.09)"/><circle cx="1335.5" cy="935.88" r="1.68" fill="#b98276" opacity="0.03"/><circle cx="415.34" cy="889.83" r="2.2" fill="#b98276" opacity="0.03"/><rect x="1538.23" y="134.47" width="18.17" height="2.16" rx="1" fill="#b98276" opacity="0.04" transform="rotate(13.03 1538.23 134.47)"/><circle cx="35.79" cy="837.74" r="0.76" fill="#b98276" opacity="0.05"/><circle cx="1440.93" cy="584.05" r="0.91" fill="#343832" opacity="0.08"/><rect x="1551.92" y="655.91" width="9.09" height="2.58" rx="1" fill="#343832" opacity="0.05" transform="rotate(65.42 1551.92 655.91)"/><circle cx="627.4" cy="1069.54" r="1.74" fill="#b98276" opacity="0.05"/><circle cx="978.18" cy="471.73" r="2.03" fill="#b98276" opacity="0.06"/><rect x="256.3" y="492.91" width="21.89" height="1.12" rx="1" fill="#b98276" opacity="0.05" transform="rotate(150.61 256.3 492.91)"/><rect x="59.14" y="755.23" width="24.7" height="1.77" rx="1" fill="#b98276" opacity="0.04" transform="rotate(166.11 59.14 755.23)"/><rect x="478.41" y="466.79" width="21.87" height="1.96" rx="1" fill="#b98276" opacity="0.03" transform="rotate(123 478.41 466.79)"/><rect x="660.11" y="297.5" width="11.72" height="0.85" rx="1" fill="#b98276" opacity="0.08" transform="rotate(159.12 660.11 297.5)"/><rect x="185.77" y="695.08" width="25.91" height="1.34" rx="1" fill="#343832" opacity="0.04" transform="rotate(76.2 185.77 695.08)"/><rect x="1544.52" y="491.91" width="25.99" height="1.85" rx="1" fill="#343832" opacity="0.03" transform="rotate(35.61 1544.52 491.91)"/><circle cx="209.41" cy="878.91" r="1.37" fill="#343832" opacity="0.08"/><rect x="596.99" y="210.63" width="13.89" height="2.21" rx="1" fill="#343832" opacity="0.04" transform="rotate(16.19 596.99 210.63)"/><rect x="605.97" y="229.65" width="15.07" height="0.94" rx="1" fill="#343832" opacity="0.04" transform="rotate(105.48 605.97 229.65)"/><rect x="188.73" y="888.86" width="26.76" height="1" rx="1" fill="#b98276" opacity="0.07" transform="rotate(36.49 188.73 888.86)"/><rect x="1178.6" y="165.43" width="17.35" height="2.14" rx="1" fill="#343832" opacity="0.06" transform="rotate(141.84 1178.6 165.43)"/><circle cx="834.53" cy="1052.52" r="1.11" fill="#343832" opacity="0.05"/><rect x="324.37" y="82.74" width="15.59" height="1.39" rx="1" fill="#343832" opacity="0.07" transform="rotate(178.57 324.37 82.74)"/><rect x="1175.78" y="105" width="7.36" height="2.09" rx="1" fill="#b98276" opacity="0.05" transform="rotate(147.45 1175.78 105)"/><circle cx="116.35" cy="100.36" r="1.59" fill="#b98276" opacity="0.03"/><circle cx="1272.57" cy="32.97" r="1.87" fill="#343832" opacity="0.08"/><circle cx="1288.58" cy="870.73" r="1.52" fill="#b98276" opacity="0.07"/><rect x="1394.17" y="1052.49" width="19.72" height="1.58" rx="1" fill="#b98276" opacity="0.08" transform="rotate(25.75 1394.17 1052.49)"/><circle cx="346.53" cy="129.3" r="2.25" fill="#343832" opacity="0.03"/><rect x="601.18" y="1087.49" width="13.61" height="1.98" rx="1" fill="#343832" opacity="0.08" transform="rotate(83.34 601.18 1087.49)"/><rect x="945.83" y="169.26" width="8.99" height="0.95" rx="1" fill="#b98276" opacity="0.07" transform="rotate(122.24 945.83 169.26)"/><circle cx="219.82" cy="626.43" r="1.97" fill="#b98276" opacity="0.07"/><rect x="412.18" y="811.62" width="16.08" height="1.66" rx="1" fill="#b98276" opacity="0.05" transform="rotate(80.49 412.18 811.62)"/><rect x="483.26" y="384.83" width="18.23" height="1.32" rx="1" fill="#343832" opacity="0.05" transform="rotate(160.91 483.26 384.83)"/><circle cx="1134.89" cy="224.77" r="2.19" fill="#b98276" opacity="0.03"/><rect x="1527.07" y="970.81" width="11.43" height="1.87" rx="1" fill="#343832" opacity="0.08" transform="rotate(97.18 1527.07 970.81)"/><rect x="1300.04" y="4.04" width="16.28" height="1.47" rx="1" fill="#343832" opacity="0.05" transform="rotate(92.14 1300.04 4.04)"/><rect x="1092.69" y="280.39" width="8.63" height="1.36" rx="1" fill="#b98276" opacity="0.05" transform="rotate(170.12 1092.69 280.39)"/><circle cx="1258.61" cy="1038.33" r="1.1" fill="#343832" opacity="0.03"/><circle cx="1123.35" cy="60.17" r="2.07" fill="#b98276" opacity="0.07"/><circle cx="188.84" cy="338.5" r="2.14" fill="#343832" opacity="0.07"/><circle cx="884.18" cy="13.26" r="2.04" fill="#343832" opacity="0.04"/><rect x="696.25" y="232.71" width="20.24" height="1.2" rx="1" fill="#b98276" opacity="0.03" transform="rotate(154.44 696.25 232.71)"/><circle cx="1154.9" cy="724.23" r="1.51" fill="#343832" opacity="0.07"/><circle cx="267.69" cy="1066.55" r="0.75" fill="#b98276" opacity="0.04"/><circle cx="435.66" cy="160.06" r="0.98" fill="#343832" opacity="0.04"/><rect x="339.68" y="945.64" width="6.49" height="2.22" rx="1" fill="#b98276" opacity="0.03" transform="rotate(38 339.68 945.64)"/><circle cx="627.69" cy="127.51" r="1.29" fill="#b98276" opacity="0.08"/><circle cx="50.53" cy="811.4" r="2.06" fill="#b98276" opacity="0.07"/><circle cx="3.05" cy="700.2" r="1.63" fill="#b98276" opacity="0.05"/><circle cx="630.16" cy="126.6" r="1" fill="#b98276" opacity="0.08"/><circle cx="1146.53" cy="481.87" r="1.07" fill="#343832" opacity="0.07"/><circle cx="1215.68" cy="562.25" r="1.7" fill="#343832" opacity="0.06"/><rect x="1559.26" y="929.16" width="15.57" height="1.96" rx="1" fill="#b98276" opacity="0.04" transform="rotate(42.27 1559.26 929.16)"/><rect x="1230.48" y="1093.06" width="23.31" height="2.18" rx="1" fill="#343832" opacity="0.04" transform="rotate(8.24 1230.48 1093.06)"/><rect x="1408" y="348.42" width="7.31" height="1" rx="1" fill="#343832" opacity="0.04" transform="rotate(64.8 1408 348.42)"/><rect x="573.44" y="320.6" width="19.51" height="1.68" rx="1" fill="#b98276" opacity="0.06" transform="rotate(164.64 573.44 320.6)"/><circle cx="592.89" cy="776.18" r="1.67" fill="#b98276" opacity="0.04"/><circle cx="1465.28" cy="3.69" r="1.75" fill="#343832" opacity="0.07"/><circle cx="1093.56" cy="376.26" r="1.16" fill="#343832" opacity="0.03"/><circle cx="276.61" cy="345.42" r="1.32" fill="#343832" opacity="0.05"/><rect x="1447.04" y="361.57" width="26.99" height="2.53" rx="1" fill="#b98276" opacity="0.08" transform="rotate(58.66 1447.04 361.57)"/><circle cx="389.32" cy="480.91" r="1.21" fill="#343832" opacity="0.05"/><rect x="1470.88" y="778.51" width="12.15" height="2.01" rx="1" fill="#343832" opacity="0.06" transform="rotate(16.33 1470.88 778.51)"/><rect x="1331.79" y="402.27" width="10.81" height="1.06" rx="1" fill="#b98276" opacity="0.07" transform="rotate(90.12 1331.79 402.27)"/><rect x="325.95" y="207.41" width="24.28" height="0.83" rx="1" fill="#343832" opacity="0.03" transform="rotate(32.24 325.95 207.41)"/><rect x="866.52" y="276.22" width="24.92" height="1.42" rx="1" fill="#b98276" opacity="0.03" transform="rotate(147.7 866.52 276.22)"/><rect x="1270.03" y="630.57" width="8.52" height="0.87" rx="1" fill="#343832" opacity="0.03" transform="rotate(71.87 1270.03 630.57)"/><rect x="1540.42" y="290.39" width="18.73" height="2.53" rx="1" fill="#b98276" opacity="0.07" transform="rotate(36.61 1540.42 290.39)"/><rect x="137.22" y="252.68" width="22.76" height="1.47" rx="1" fill="#343832" opacity="0.07" transform="rotate(164.71 137.22 252.68)"/><rect x="1343.24" y="487.48" width="23.75" height="2.19" rx="1" fill="#343832" opacity="0.07" transform="rotate(140.56 1343.24 487.48)"/><circle cx="1469.73" cy="316.98" r="0.84" fill="#b98276" opacity="0.03"/><rect x="602.61" y="737.35" width="21.92" height="1.54" rx="1" fill="#343832" opacity="0.03" transform="rotate(7.65 602.61 737.35)"/><circle cx="48.62" cy="405.21" r="0.94" fill="#343832" opacity="0.04"/><circle cx="1431.95" cy="909.99" r="1.72" fill="#b98276" opacity="0.06"/><rect x="635.82" y="698.97" width="23.86" height="1.47" rx="1" fill="#b98276" opacity="0.05" transform="rotate(173.16 635.82 698.97)"/><rect x="238.51" y="493.67" width="27.39" height="1.29" rx="1" fill="#343832" opacity="0.08" transform="rotate(88.72 238.51 493.67)"/><rect x="202.14" y="189.46" width="15.71" height="1.13" rx="1" fill="#b98276" opacity="0.08" transform="rotate(81.79 202.14 189.46)"/><rect x="647.43" y="895.7" width="23.99" height="1.83" rx="1" fill="#b98276" opacity="0.04" transform="rotate(117.22 647.43 895.7)"/><rect x="746.27" y="189.7" width="21.31" height="2.15" rx="1" fill="#b98276" opacity="0.08" transform="rotate(25.16 746.27 189.7)"/><rect x="704.84" y="339.29" width="16.53" height="1.04" rx="1" fill="#343832" opacity="0.03" transform="rotate(88.54 704.84 339.29)"/><rect x="270.98" y="570.33" width="13.05" height="1.92" rx="1" fill="#343832" opacity="0.03" transform="rotate(142.43 270.98 570.33)"/><circle cx="425.71" cy="875.35" r="1.38" fill="#343832" opacity="0.05"/><rect x="6.22" y="701.07" width="12.09" height="2.04" rx="1" fill="#343832" opacity="0.05" transform="rotate(165.11 6.22 701.07)"/><circle cx="358.61" cy="1053.22" r="1.96" fill="#343832" opacity="0.03"/><rect x="1038.16" y="221.56" width="7.33" height="2.52" rx="1" fill="#b98276" opacity="0.05" transform="rotate(145.17 1038.16 221.56)"/><rect x="22.36" y="1017.09" width="23.73" height="1.06" rx="1" fill="#343832" opacity="0.05" transform="rotate(163.29 22.36 1017.09)"/><rect x="891.93" y="1064.14" width="23.57" height="2.13" rx="1" fill="#b98276" opacity="0.06" transform="rotate(136.05 891.93 1064.14)"/><circle cx="1399.88" cy="357.73" r="1.68" fill="#b98276" opacity="0.03"/><circle cx="1488.27" cy="383.17" r="1.86" fill="#343832" opacity="0.03"/><circle cx="1148.98" cy="671.75" r="1.28" fill="#343832" opacity="0.08"/><circle cx="1005" cy="994.28" r="1.37" fill="#b98276" opacity="0.06"/><rect x="519.01" y="514.13" width="27.25" height="1.98" rx="1" fill="#b98276" opacity="0.06" transform="rotate(32.38 519.01 514.13)"/><circle cx="189.41" cy="520.61" r="2.17" fill="#343832" opacity="0.05"/><rect x="1559.42" y="431.37" width="12.72" height="1.72" rx="1" fill="#343832" opacity="0.08" transform="rotate(56.49 1559.42 431.37)"/><circle cx="229.25" cy="610.02" r="1.99" fill="#343832" opacity="0.05"/><rect x="36.17" y="683.46" width="27.03" height="1.94" rx="1" fill="#b98276" opacity="0.07" transform="rotate(20.94 36.17 683.46)"/><circle cx="392" cy="4.86" r="1.53" fill="#b98276" opacity="0.03"/><circle cx="1031.96" cy="30.43" r="1.85" fill="#343832" opacity="0.03"/><rect x="132.91" y="646.29" width="18.14" height="2.17" rx="1" fill="#b98276" opacity="0.03" transform="rotate(150.47 132.91 646.29)"/><circle cx="184.54" cy="430.71" r="2.02" fill="#343832" opacity="0.04"/><circle cx="1009.72" cy="344.21" r="1.47" fill="#343832" opacity="0.05"/><rect x="728.84" y="851.19" width="19.25" height="1.74" rx="1" fill="#b98276" opacity="0.06" transform="rotate(150.39 728.84 851.19)"/><rect x="1568.56" y="596.32" width="11.7" height="1.34" rx="1" fill="#343832" opacity="0.07" transform="rotate(16.26 1568.56 596.32)"/><rect x="1080.83" y="317.25" width="25.49" height="1.8" rx="1" fill="#b98276" opacity="0.07" transform="rotate(169.14 1080.83 317.25)"/><rect x="26.34" y="80.97" width="27.75" height="1.16" rx="1" fill="#343832" opacity="0.03" transform="rotate(145.19 26.34 80.97)"/><rect x="479.62" y="18.89" width="8.24" height="1.38" rx="1" fill="#343832" opacity="0.04" transform="rotate(39.27 479.62 18.89)"/><circle cx="1174.79" cy="580.66" r="1.24" fill="#343832" opacity="0.07"/><rect x="77.68" y="954.08" width="14.22" height="1.89" rx="1" fill="#343832" opacity="0.05" transform="rotate(6.03 77.68 954.08)"/><rect x="2.88" y="310.49" width="26.99" height="2.58" rx="1" fill="#b98276" opacity="0.03" transform="rotate(31.52 2.88 310.49)"/><rect x="1132.78" y="591.87" width="21.99" height="1.96" rx="1" fill="#b98276" opacity="0.06" transform="rotate(0.19 1132.78 591.87)"/><rect x="765" y="175.16" width="8.82" height="1.16" rx="1" fill="#b98276" opacity="0.05" transform="rotate(134.91 765 175.16)"/><rect x="1337.93" y="484.76" width="10.3" height="0.82" rx="1" fill="#343832" opacity="0.07" transform="rotate(129.71 1337.93 484.76)"/><circle cx="566.69" cy="439.3" r="1.36" fill="#343832" opacity="0.04"/><rect x="111.3" y="751.39" width="24.91" height="1.3" rx="1" fill="#b98276" opacity="0.07" transform="rotate(59.14 111.3 751.39)"/><circle cx="237.4" cy="16.57" r="1.65" fill="#b98276" opacity="0.05"/><rect x="922.73" y="843.94" width="10.65" height="2.13" rx="1" fill="#343832" opacity="0.04" transform="rotate(66.01 922.73 843.94)"/><rect x="1499.83" y="768.36" width="9.75" height="1.75" rx="1" fill="#343832" opacity="0.04" transform="rotate(124.82 1499.83 768.36)"/><rect x="1533.34" y="187.03" width="23.41" height="0.92" rx="1" fill="#b98276" opacity="0.06" transform="rotate(100.78 1533.34 187.03)"/><rect x="676.36" y="283.36" width="26.87" height="1.98" rx="1" fill="#343832" opacity="0.06" transform="rotate(112.23 676.36 283.36)"/><rect x="854.87" y="153.98" width="20.75" height="1.02" rx="1" fill="#b98276" opacity="0.06" transform="rotate(85.22 854.87 153.98)"/><circle cx="1372.32" cy="1033.47" r="1.41" fill="#343832" opacity="0.08"/><circle cx="1169.36" cy="863.9" r="1.37" fill="#343832" opacity="0.07"/><rect x="1485.01" y="757.49" width="19.04" height="1.34" rx="1" fill="#b98276" opacity="0.05" transform="rotate(93.57 1485.01 757.49)"/><circle cx="1496.81" cy="1060.75" r="1.16" fill="#b98276" opacity="0.03"/><rect x="994.24" y="365.74" width="22.31" height="1.14" rx="1" fill="#b98276" opacity="0.03" transform="rotate(119.56 994.24 365.74)"/><rect x="904.2" y="530.33" width="14.57" height="1.42" rx="1" fill="#343832" opacity="0.05" transform="rotate(37.29 904.2 530.33)"/><circle cx="272.64" cy="1053.52" r="1.12" fill="#343832" opacity="0.05"/><rect x="235.75" y="61.9" width="13.19" height="1.91" rx="1" fill="#343832" opacity="0.07" transform="rotate(104.31 235.75 61.9)"/><circle cx="1165.63" cy="503.92" r="0.91" fill="#343832" opacity="0.03"/><rect x="43.7" y="767.19" width="15.66" height="1.42" rx="1" fill="#b98276" opacity="0.04" transform="rotate(51.62 43.7 767.19)"/><circle cx="1141.29" cy="331.25" r="0.89" fill="#b98276" opacity="0.06"/>
  <circle cx="1350" cy="178" r="184" fill="#b98276" opacity="0.06"/>
  <circle cx="220" cy="894" r="220" fill="#87927a" opacity="0.08"/>
  <g transform="rotate(-5 535 375)">
      <ellipse cx="335" cy="434.32" rx="44.52" ry="4.2" fill="#1f211d" opacity="0.08"/>
      <rect x="285" y="310" width="86" height="116" rx="8" fill="#fff8ef"/>
      <text x="297" y="406" class="micro" fill="#343832" opacity="0.62">01</text>
    
      <ellipse cx="439" cy="434.32" rx="44.52" ry="4.2" fill="#1f211d" opacity="0.08"/>
      <rect x="389" y="310" width="86" height="116" rx="8" fill="#d1bca6"/>
      <text x="401" y="406" class="micro" fill="#343832" opacity="0.62">02</text>
    
      <ellipse cx="543" cy="434.32" rx="44.52" ry="4.2" fill="#1f211d" opacity="0.08"/>
      <rect x="493" y="310" width="86" height="116" rx="8" fill="#b98276"/>
      <text x="505" y="406" class="micro" fill="#343832" opacity="0.62">03</text>
    
      <ellipse cx="647" cy="434.32" rx="44.52" ry="4.2" fill="#1f211d" opacity="0.08"/>
      <rect x="597" y="310" width="86" height="116" rx="8" fill="#87927a"/>
      <text x="609" y="406" class="micro" fill="#343832" opacity="0.62">04</text>
    
      <ellipse cx="751" cy="434.32" rx="44.52" ry="4.2" fill="#1f211d" opacity="0.08"/>
      <rect x="701" y="310" width="86" height="116" rx="8" fill="#454a42"/>
      <text x="713" y="406" class="micro" fill="#fff8ef" opacity="0.62">05</text>
    </g><g transform="rotate(5 1020 510)">
    <ellipse cx="1036" cy="769.2" rx="201.4" ry="52" fill="#1f211d" opacity="0.11"/>
    <rect x="830" y="250" width="380" height="520" rx="8" fill="#fff8ef"/>
    <path d="M 936.4 582.8 L 974.4 395.6 H 1088.4 L 1118.8 582.8" fill="none" stroke="#454a42" stroke-width="10" stroke-linecap="round" stroke-linejoin="round"/>
    <path d="M 947.8 582.8 L 921.2 707.6 M 1103.6 582.8 L 1134 707.6" stroke="#454a42" stroke-width="8" stroke-linecap="round"/>
    <text x="875.6" y="333.2" class="brand" fill="#343832" font-size="41.8">OAK 03</text>
  </g><g transform="rotate(-6 1180 800)">
    <ellipse cx="1196" cy="899.6" rx="137.8" ry="16" fill="#1f211d" opacity="0.11"/>
    <rect x="1050" y="720" width="260" height="160" rx="10" fill="#fff8ef"/>
    <rect x="1068" y="738" width="224" height="124" rx="5" fill="none" stroke="#343832" stroke-opacity="0.11"/>
    <rect x="1084" y="762" width="57.2" height="4" rx="2" fill="#b98276" opacity="0.84"/>
    <text x="1084" y="774.4" class="brand" fill="#343832" font-size="31.2">TEXTILE</text>
    <text x="1086" y="808.4" class="micro" fill="#343832" opacity="0.65">SAMPLE</text>
    <rect x="1086" y="812.8" width="71.14" height="3" rx="2" fill="#343832" opacity="0.42"/><rect x="1086" y="834.8" width="106.7" height="2" rx="2" fill="#343832" opacity="0.22"/>
    
  </g>
  <g opacity="0.72"><text x="78" y="1004" class="micro" fill="#343832">FURNITURE IDENTITY</text><text x="78" y="1036" class="micro" fill="#343832" opacity="0.55">TEMPORARY DEMONSTRATION PORTFOLIO VISUAL / GALLERY-1</text></g>
</svg>
