<?xml version="1.0" encoding="UTF-8"?>
<svg xmlns="http://www.w3.org/2000/svg" width="1600" height="1100" viewBox="0 0 1600 1100" role="img" aria-labelledby="title desc">
  <title id="title">FORMA gallery-2 demo portfolio mockup</title>
  <desc id="desc">Temporary fictional demonstration project imagery for portfolio presentation only, not client work.</desc>
  <defs>
    <linearGradient id="bg_forma_gallery_2" x1="0" y1="0" x2="1" y2="1">
      <stop offset="0%" stop-color="#fff8ef"/>
      <stop offset="58%" stop-color="#f3ede5"/>
      <stop offset="100%" stop-color="#d1bca6"/>
    </linearGradient>
    <radialGradient id="light_forma_gallery_2" cx="74%" cy="18%" r="64%">
      <stop offset="0%" stop-color="#ffffff" stop-opacity="0.62"/>
      <stop offset="100%" stop-color="#ffffff" stop-opacity="0"/>
    </radialGradient>
  </defs>
  <style><![CDATA[
    .brand { font-family: Helvetica, Georgia, serif; font-weight: 500; letter-spacing: .02em; }
    .body { font-family: Georgia, Arial, sans-serif; font-weight: 500; }
    .micro { font-family: Georgia, Arial, sans-serif; font-size: 20px; font-weight: 700; letter-spacing: .12em; }
  ]]></style>
  <rect width="1600" height="1100" fill="url(#bg_forma_gallery_2)"/>
  <rect width="1600" height="1100" fill="url(#light_forma_gallery_2)"/>
  <rect x="505.01" y="718.9" width="23.38" height="1.86" rx="1" fill="#343832" opacity="0.06" transform="rotate(20.68 505.01 718.9)"/><rect x="652.35" y="265.9" width="6.47" height="1.15" rx="1" fill="#b98276" opacity="0.04" transform="rotate(69.25 652.35 265.9)"/><circle cx="82.87" cy="310.94" r="1.03" fill="#343832" opacity="0.05"/><rect x="1000.14" y="602.26" width="14.11" height="1.03" rx="1" fill="#b98276" opacity="0.03" transform="rotate(171.54 1000.14 602.26)"/><rect x="740.29" y="547.51" width="15.29" height="1.14" rx="1" fill="#b98276" opacity="0.05" transform="rotate(7.52 740.29 547.51)"/><circle cx="739.12" cy="190.41" r="0.94" fill="#b98276" opacity="0.04"/><rect x="1292.19" y="106.81" width="23.64" height="2.55" rx="1" fill="#343832" opacity="0.06" transform="rotate(78.94 1292.19 106.81)"/><rect x="15.51" y="474.62" width="9.63" height="2.5" rx="1" fill="#b98276" opacity="0.08" transform="rotate(68.01 15.51 474.62)"/><rect x="893.46" y="816.5" width="27.42" height="1.78" rx="1" fill="#b98276" opacity="0.03" transform="rotate(43.71 893.46 816.5)"/><rect x="777.28" y="57.34" width="18.33" height="1.44" rx="1" fill="#b98276" opacity="0.05" transform="rotate(30.42 777.28 57.34)"/><rect x="918.31" y="878.59" width="13.94" height="1.07" rx="1" fill="#b98276" opacity="0.07" transform="rotate(167.95 918.31 878.59)"/><rect x="140.59" y="684.45" width="20.63" height="2.17" rx="1" fill="#343832" opacity="0.05" transform="rotate(176.53 140.59 684.45)"/><circle cx="1224.54" cy="737.74" r="1.02" fill="#343832" opacity="0.03"/><rect x="1492.2" y="159.17" width="14.45" height="1.54" rx="1" fill="#b98276" opacity="0.03" transform="rotate(136.05 1492.2 159.17)"/><rect x="56.77" y="959.95" width="7.87" height="1.18" rx="1" fill="#b98276" opacity="0.04" transform="rotate(66.32 56.77 959.95)"/><circle cx="151.04" cy="467.9" r="1.02" fill="#343832" opacity="0.04"/><rect x="32.02" y="1068.93" width="23.44" height="1.85" rx="1" fill="#343832" opacity="0.06" transform="rotate(12.19 32.02 1068.93)"/><circle cx="223.99" cy="121.72" r="0.97" fill="#343832" opacity="0.03"/><circle cx="1251.39" cy="710.56" r="0.89" fill="#343832" opacity="0.06"/><circle cx="392.59" cy="750.16" r="1.15" fill="#b98276" opacity="0.08"/><circle cx="838.48" cy="387.91" r="1.33" fill="#343832" opacity="0.08"/><circle cx="1591.56" cy="713.86" r="2.27" fill="#b98276" opacity="0.07"/><circle cx="555.86" cy="124.53" r="1.08" fill="#343832" opacity="0.06"/><rect x="1491.5" y="439.14" width="26.38" height="2.09" rx="1" fill="#343832" opacity="0.04" transform="rotate(111.12 1491.5 439.14)"/><rect x="1297.98" y="457.98" width="25.04" height="1.47" rx="1" fill="#b98276" opacity="0.06" transform="rotate(60.7 1297.98 457.98)"/><rect x="1516.21" y="801.86" width="18.97" height="1.17" rx="1" fill="#b98276" opacity="0.04" transform="rotate(101.75 1516.21 801.86)"/><rect x="524.24" y="1025.29" width="16.77" height="2.41" rx="1" fill="#b98276" opacity="0.04" transform="rotate(112.6 524.24 1025.29)"/><rect x="1403.39" y="142.27" width="17.85" height="2.24" rx="1" fill="#b98276" opacity="0.07" transform="rotate(69.78 1403.39 142.27)"/><rect x="1532.71" y="38.43" width="16.95" height="1.15" rx="1" fill="#b98276" opacity="0.03" transform="rotate(27.02 1532.71 38.43)"/><circle cx="1269.55" cy="868.02" r="1.11" fill="#b98276" opacity="0.07"/><circle cx="838.19" cy="231.74" r="1.77" fill="#b98276" opacity="0.06"/><rect x="345.07" y="323.77" width="22.03" height="1.82" rx="1" fill="#b98276" opacity="0.03" transform="rotate(52.17 345.07 323.77)"/><rect x="630.53" y="865.92" width="22.98" height="2.58" rx="1" fill="#343832" opacity="0.05" transform="rotate(53.72 630.53 865.92)"/><rect x="946.07" y="918.37" width="6.42" height="2.2" rx="1" fill="#343832" opacity="0.03" transform="rotate(123.98 946.07 918.37)"/><circle cx="1557.2" cy="778.72" r="1.29" fill="#343832" opacity="0.06"/><rect x="1426.65" y="368.17" width="25.72" height="1.98" rx="1" fill="#b98276" opacity="0.06" transform="rotate(62.39 1426.65 368.17)"/><rect x="1468.31" y="305.29" width="11.84" height="1.85" rx="1" fill="#b98276" opacity="0.05" transform="rotate(170.67 1468.31 305.29)"/><rect x="1087.34" y="343.62" width="13.84" height="0.8" rx="1" fill="#b98276" opacity="0.05" transform="rotate(85.36 1087.34 343.62)"/><circle cx="1380.68" cy="369.38" r="0.88" fill="#b98276" opacity="0.04"/><rect x="1588.77" y="396.47" width="7.17" height="1.16" rx="1" fill="#b98276" opacity="0.07" transform="rotate(116.15 1588.77 396.47)"/><rect x="1147.78" y="754.32" width="20.76" height="1.51" rx="1" fill="#b98276" opacity="0.06" transform="rotate(113.24 1147.78 754.32)"/><rect x="850.14" y="834.29" width="7.92" height="0.9" rx="1" fill="#b98276" opacity="0.04" transform="rotate(58.03 850.14 834.29)"/><rect x="937.64" y="396.8" width="21.05" height="1.14" rx="1" fill="#b98276" opacity="0.07" transform="rotate(109.71 937.64 396.8)"/><circle cx="607.77" cy="820.71" r="2.25" fill="#343832" opacity="0.06"/><rect x="369.44" y="177" width="11.82" height="1.63" rx="1" fill="#b98276" opacity="0.03" transform="rotate(147.56 369.44 177)"/><circle cx="1100.95" cy="961.06" r="2.09" fill="#343832" opacity="0.03"/><rect x="793.99" y="379.94" width="9.08" height="2.39" rx="1" fill="#343832" opacity="0.08" transform="rotate(178.42 793.99 379.94)"/><circle cx="1552.21" cy="1004.54" r="0.93" fill="#b98276" opacity="0.06"/><circle cx="423.4" cy="463.65" r="2.25" fill="#343832" opacity="0.04"/><rect x="39.16" y="833.86" width="23.08" height="1.53" rx="1" fill="#343832" opacity="0.04" transform="rotate(20.02 39.16 833.86)"/><circle cx="1044.17" cy="524.76" r="1.77" fill="#343832" opacity="0.05"/><circle cx="583.17" cy="85.37" r="0.88" fill="#b98276" opacity="0.04"/><circle cx="594.37" cy="914.52" r="1.22" fill="#b98276" opacity="0.07"/><rect x="111.09" y="616.91" width="9.67" height="1.68" rx="1" fill="#b98276" opacity="0.05" transform="rotate(65.91 111.09 616.91)"/><rect x="813.98" y="462.94" width="25.63" height="1.48" rx="1" fill="#b98276" opacity="0.08" transform="rotate(107.77 813.98 462.94)"/><rect x="1139.06" y="840.1" width="23.08" height="1.76" rx="1" fill="#b98276" opacity="0.06" transform="rotate(76.54 1139.06 840.1)"/><rect x="281.54" y="321.94" width="6.5" height="1.78" rx="1" fill="#343832" opacity="0.06" transform="rotate(116.6 281.54 321.94)"/><circle cx="822.28" cy="162.7" r="2.25" fill="#b98276" opacity="0.05"/><circle cx="442.61" cy="554.85" r="1.23" fill="#b98276" opacity="0.03"/><circle cx="611.21" cy="690.36" r="2.07" fill="#b98276" opacity="0.05"/><rect x="383.47" y="227.25" width="13.46" height="1.56" rx="1" fill="#b98276" opacity="0.07" transform="rotate(52.16 383.47 227.25)"/><circle cx="1107.51" cy="539.18" r="1.58" fill="#b98276" opacity="0.07"/><circle cx="871.55" cy="953.53" r="0.82" fill="#b98276" opacity="0.04"/><rect x="1597.48" y="1011.52" width="7.61" height="1.8" rx="1" fill="#343832" opacity="0.05" transform="rotate(135.07 1597.48 1011.52)"/><circle cx="255.38" cy="279.89" r="1.32" fill="#b98276" opacity="0.05"/><rect x="908.55" y="483.08" width="7.5" height="0.81" rx="1" fill="#343832" opacity="0.03" transform="rotate(155.48 908.55 483.08)"/><circle cx="1494.19" cy="908.66" r="1.1" fill="#343832" opacity="0.05"/><circle cx="691.23" cy="567.98" r="2.04" fill="#b98276" opacity="0.04"/><circle cx="208.7" cy="356.74" r="1.52" fill="#b98276" opacity="0.07"/><circle cx="427.65" cy="150.32" r="1.98" fill="#b98276" opacity="0.05"/><rect x="504.75" y="690.72" width="10.82" height="0.87" rx="1" fill="#b98276" opacity="0.08" transform="rotate(93.55 504.75 690.72)"/><rect x="542.68" y="888.1" width="24.84" height="1.49" rx="1" fill="#b98276" opacity="0.08" transform="rotate(27.98 542.68 888.1)"/><rect x="834.97" y="185.88" width="23.22" height="2.05" rx="1" fill="#343832" opacity="0.04" transform="rotate(24.54 834.97 185.88)"/><rect x="1214.2" y="909.98" width="9.43" height="1.94" rx="1" fill="#343832" opacity="0.07" transform="rotate(136.66 1214.2 909.98)"/><circle cx="1069.69" cy="912.28" r="0.73" fill="#b98276" opacity="0.07"/><rect x="690.19" y="609.26" width="9.5" height="2.04" rx="1" fill="#343832" opacity="0.07" transform="rotate(162.41 690.19 609.26)"/><rect x="1131.22" y="309.9" width="9.57" height="2.51" rx="1" fill="#343832" opacity="0.04" transform="rotate(62.04 1131.22 309.9)"/><circle cx="1237.51" cy="616.02" r="2.23" fill="#343832" opacity="0.03"/><circle cx="419" cy="1016.83" r="0.73" fill="#b98276" opacity="0.05"/><circle cx="52.15" cy="384.9" r="0.77" fill="#b98276" opacity="0.06"/><rect x="558.02" y="530.88" width="22.19" height="1.74" rx="1" fill="#343832" opacity="0.04" transform="rotate(177.82 558.02 530.88)"/><rect x="1303.48" y="921.05" width="23.54" height="2.07" rx="1" fill="#b98276" opacity="0.04" transform="rotate(154.59 1303.48 921.05)"/><rect x="347.67" y="1047.76" width="10.43" height="2.56" rx="1" fill="#b98276" opacity="0.05" transform="rotate(39.99 347.67 1047.76)"/><circle cx="966.77" cy="876.99" r="2.25" fill="#343832" opacity="0.07"/><rect x="445.48" y="1015.45" width="19.7" height="1.51" rx="1" fill="#343832" opacity="0.05" transform="rotate(131.2 445.48 1015.45)"/><rect x="420.03" y="478.09" width="17.83" height="1.33" rx="1" fill="#343832" opacity="0.07" transform="rotate(69.19 420.03 478.09)"/><rect x="1321.46" y="718.93" width="6.27" height="2.06" rx="1" fill="#343832" opacity="0.07" transform="rotate(135.84 1321.46 718.93)"/><rect x="1149.63" y="456.74" width="11.13" height="0.89" rx="1" fill="#343832" opacity="0.07" transform="rotate(114.43 1149.63 456.74)"/><rect x="41.08" y="915.52" width="24.93" height="1.92" rx="1" fill="#b98276" opacity="0.07" transform="rotate(71.57 41.08 915.52)"/><rect x="1113.72" y="1068.76" width="16.98" height="2.05" rx="1" fill="#343832" opacity="0.05" transform="rotate(115.03 1113.72 1068.76)"/><circle cx="395.92" cy="944.64" r="0.93" fill="#343832" opacity="0.05"/><rect x="1083.25" y="196.66" width="9.13" height="1.27" rx="1" fill="#b98276" opacity="0.05" transform="rotate(82.36 1083.25 196.66)"/><circle cx="873.35" cy="940.35" r="1.78" fill="#343832" opacity="0.04"/><circle cx="15.26" cy="1024.19" r="1.85" fill="#b98276" opacity="0.05"/><rect x="737.51" y="926.02" width="22.3" height="2.09" rx="1" fill="#343832" opacity="0.08" transform="rotate(65.62 737.51 926.02)"/><rect x="770.64" y="113.78" width="23.6" height="1.63" rx="1" fill="#b98276" opacity="0.05" transform="rotate(146.05 770.64 113.78)"/><rect x="1059.37" y="481.81" width="15.04" height="2.09" rx="1" fill="#b98276" opacity="0.04" transform="rotate(68.24 1059.37 481.81)"/><circle cx="1223.97" cy="805.84" r="2.23" fill="#343832" opacity="0.03"/><circle cx="85.64" cy="774.83" r="1.74" fill="#b98276" opacity="0.03"/><circle cx="1129.52" cy="833.22" r="0.83" fill="#b98276" opacity="0.03"/><rect x="585.12" y="553.87" width="27.09" height="2.54" rx="1" fill="#b98276" opacity="0.04" transform="rotate(91.92 585.12 553.87)"/><rect x="1480.95" y="591.58" width="10.49" height="1.81" rx="1" fill="#343832" opacity="0.03" transform="rotate(122.1 1480.95 591.58)"/><rect x="669.76" y="263.4" width="13.29" height="2.55" rx="1" fill="#343832" opacity="0.07" transform="rotate(52.61 669.76 263.4)"/><rect x="839.91" y="747.91" width="13.82" height="1.82" rx="1" fill="#b98276" opacity="0.03" transform="rotate(48.18 839.91 747.91)"/><rect x="484.01" y="426.92" width="13.69" height="0.83" rx="1" fill="#b98276" opacity="0.08" transform="rotate(145.81 484.01 426.92)"/><rect x="675.14" y="798.54" width="21.86" height="1.69" rx="1" fill="#b98276" opacity="0.04" transform="rotate(17.44 675.14 798.54)"/><rect x="798.93" y="621.61" width="23.65" height="1.26" rx="1" fill="#343832" opacity="0.03" transform="rotate(129.17 798.93 621.61)"/><circle cx="1514.98" cy="839.36" r="1.61" fill="#343832" opacity="0.08"/><circle cx="1456.44" cy="977.23" r="1.11" fill="#b98276" opacity="0.08"/><circle cx="947.95" cy="98.19" r="1.42" fill="#343832" opacity="0.04"/><rect x="1059.47" y="71.26" width="21.75" height="2.25" rx="1" fill="#b98276" opacity="0.07" transform="rotate(27.57 1059.47 71.26)"/><rect x="1210" y="291.81" width="12.39" height="0.81" rx="1" fill="#343832" opacity="0.06" transform="rotate(69.26 1210 291.81)"/><rect x="582.35" y="485.12" width="13.96" height="2.53" rx="1" fill="#b98276" opacity="0.06" transform="rotate(96.32 582.35 485.12)"/><rect x="523.57" y="415.37" width="6.53" height="0.89" rx="1" fill="#343832" opacity="0.04" transform="rotate(175.83 523.57 415.37)"/><rect x="128.76" y="887.49" width="18.02" height="1.44" rx="1" fill="#343832" opacity="0.07" transform="rotate(133.58 128.76 887.49)"/><rect x="1000.07" y="198.36" width="7.42" height="1.4" rx="1" fill="#b98276" opacity="0.04" transform="rotate(168.94 1000.07 198.36)"/><rect x="733.47" y="744.58" width="11.3" height="2.03" rx="1" fill="#b98276" opacity="0.04" transform="rotate(35.3 733.47 744.58)"/><rect x="47.6" y="444.07" width="12.64" height="0.8" rx="1" fill="#b98276" opacity="0.07" transform="rotate(176.87 47.6 444.07)"/><rect x="370.78" y="504.59" width="16.66" height="0.94" rx="1" fill="#343832" opacity="0.05" transform="rotate(10.11 370.78 504.59)"/><rect x="590.22" y="559.16" width="20.89" height="1.79" rx="1" fill="#b98276" opacity="0.07" transform="rotate(27.69 590.22 559.16)"/><rect x="253.78" y="171.19" width="23.03" height="2.31" rx="1" fill="#343832" opacity="0.08" transform="rotate(94.42 253.78 171.19)"/><rect x="936.37" y="4.43" width="7.75" height="2.31" rx="1" fill="#343832" opacity="0.06" transform="rotate(137.15 936.37 4.43)"/><circle cx="452.89" cy="518.29" r="1.7" fill="#b98276" opacity="0.03"/><circle cx="731.3" cy="208.25" r="1.97" fill="#b98276" opacity="0.03"/><circle cx="512.04" cy="832.59" r="1.84" fill="#b98276" opacity="0.07"/><circle cx="1589.1" cy="733.13" r="1.03" fill="#b98276" opacity="0.08"/><rect x="939.24" y="996.07" width="9.6" height="2.14" rx="1" fill="#b98276" opacity="0.07" transform="rotate(114.26 939.24 996.07)"/><circle cx="1008.18" cy="436.34" r="1.57" fill="#b98276" opacity="0.06"/><rect x="1353.69" y="900.26" width="27.06" height="2.19" rx="1" fill="#b98276" opacity="0.05" transform="rotate(32.13 1353.69 900.26)"/><rect x="808.61" y="966.7" width="21.82" height="0.96" rx="1" fill="#b98276" opacity="0.08" transform="rotate(4.27 808.61 966.7)"/><rect x="625.24" y="643.48" width="27.15" height="1.24" rx="1" fill="#b98276" opacity="0.08" transform="rotate(164.63 625.24 643.48)"/><rect x="340.78" y="531.97" width="19.72" height="1.97" rx="1" fill="#b98276" opacity="0.03" transform="rotate(89.64 340.78 531.97)"/><circle cx="1141.46" cy="359.24" r="1.55" fill="#343832" opacity="0.05"/><circle cx="1011.63" cy="211.92" r="1.96" fill="#b98276" opacity="0.04"/><rect x="189.68" y="716.13" width="22.35" height="1.57" rx="1" fill="#b98276" opacity="0.04" transform="rotate(107.65 189.68 716.13)"/><rect x="233.94" y="641.47" width="7.97" height="1.55" rx="1" fill="#343832" opacity="0.06" transform="rotate(34.53 233.94 641.47)"/><rect x="696.9" y="719.74" width="10.29" height="1.53" rx="1" fill="#b98276" opacity="0.08" transform="rotate(6.06 696.9 719.74)"/><rect x="656.95" y="857.85" width="20.8" height="2.51" rx="1" fill="#343832" opacity="0.03" transform="rotate(100.73 656.95 857.85)"/><rect x="1550.01" y="169.41" width="25.01" height="2.14" rx="1" fill="#343832" opacity="0.06" transform="rotate(15.43 1550.01 169.41)"/><circle cx="1421.19" cy="616.3" r="0.82" fill="#b98276" opacity="0.03"/>
  <circle cx="1350" cy="178" r="184" fill="#b98276" opacity="0.06"/>
  <circle cx="220" cy="894" r="220" fill="#87927a" opacity="0.08"/>
  <g transform="rotate(-3 710 530)">
    <ellipse cx="728" cy="802.4" rx="492.9" ry="54" fill="#1f211d" opacity="0.12"/>
    <rect x="245" y="260" width="930" height="540" rx="6" fill="#fff8ef"/>
    <rect x="709" y="284" width="2" height="492" fill="#343832" opacity="0.12"/>
    <rect x="277" y="300" width="395" height="460" rx="4" fill="#d1bca6"/>
    <path d="M 295 594.8 C 360.7 497.6, 453.7 654.2, 630.4 443.6" fill="none" stroke="#fff8ef" stroke-width="5" opacity="0.72"/>
    <text x="754" y="348" class="brand" fill="#343832" font-size="51.15">FURNITURE INDEX</text>
    <rect x="754" y="398" width="142.5" height="3" rx="2" fill="#343832" opacity="0.42"/><rect x="754" y="420" width="213.75" height="2" rx="2" fill="#343832" opacity="0.22"/><rect x="754" y="442" width="285" height="2" rx="2" fill="#343832" opacity="0.22"/><rect x="754" y="464" width="161.25" height="2" rx="2" fill="#343832" opacity="0.22"/><rect x="754" y="486" width="232.5" height="2" rx="2" fill="#343832" opacity="0.22"/><rect x="754" y="508" width="303.75" height="2" rx="2" fill="#343832" opacity="0.22"/><rect x="754" y="530" width="180" height="2" rx="2" fill="#343832" opacity="0.22"/><rect x="754" y="552" width="251.25" height="2" rx="2" fill="#343832" opacity="0.22"/><rect x="754" y="574" width="322.5" height="2" rx="2" fill="#343832" opacity="0.22"/>
  </g><g transform="rotate(8 1190 355)">
    <ellipse cx="1206" cy="526.8" rx="132.5" ry="33" fill="#1f211d" opacity="0.11"/>
    <rect x="1065" y="190" width="250" height="330" rx="8" fill="#fff8ef"/>
    <path d="M 1135 401.2 L 1160 282.4 H 1235 L 1255 401.2" fill="none" stroke="#454a42" stroke-width="10" stroke-linecap="round" stroke-linejoin="round"/>
    <path d="M 1142.5 401.2 L 1125 480.4 M 1245 401.2 L 1265 480.4" stroke="#454a42" stroke-width="8" stroke-linecap="round"/>
    <text x="1095" y="242.8" class="brand" fill="#343832" font-size="27.5">01</text>
  </g>
  <g opacity="0.72"><text x="78" y="1004" class="micro" fill="#343832">FURNITURE IDENTITY</text><text x="78" y="1036" class="micro" fill="#343832" opacity="0.55">TEMPORARY DEMONSTRATION PORTFOLIO VISUAL / GALLERY-2</text></g>
</svg>
