<?xml version="1.0" encoding="UTF-8"?>
<svg xmlns="http://www.w3.org/2000/svg" width="1600" height="1100" viewBox="0 0 1600 1100" role="img" aria-labelledby="title desc">
  <title id="title">FORMA gallery-3 demo portfolio mockup</title>
  <desc id="desc">Temporary fictional demonstration project imagery for portfolio presentation only, not client work.</desc>
  <defs>
    <linearGradient id="bg_forma_gallery_3" x1="0" y1="0" x2="1" y2="1">
      <stop offset="0%" stop-color="#fff8ef"/>
      <stop offset="58%" stop-color="#f3ede5"/>
      <stop offset="100%" stop-color="#d1bca6"/>
    </linearGradient>
    <radialGradient id="light_forma_gallery_3" cx="74%" cy="18%" r="64%">
      <stop offset="0%" stop-color="#ffffff" stop-opacity="0.62"/>
      <stop offset="100%" stop-color="#ffffff" stop-opacity="0"/>
    </radialGradient>
  </defs>
  <style><![CDATA[
    .brand { font-family: Helvetica, Georgia, serif; font-weight: 500; letter-spacing: .02em; }
    .body { font-family: Georgia, Arial, sans-serif; font-weight: 500; }
    .micro { font-family: Georgia, Arial, sans-serif; font-size: 20px; font-weight: 700; letter-spacing: .12em; }
  ]]></style>
  <rect width="1600" height="1100" fill="url(#bg_forma_gallery_3)"/>
  <rect width="1600" height="1100" fill="url(#light_forma_gallery_3)"/>
  <rect x="293.01" y="401.54" width="7.4" height="2.22" rx="1" fill="#b98276" opacity="0.04" transform="rotate(168.02 293.01 401.54)"/><rect x="104.36" y="684.6" width="8.05" height="1.76" rx="1" fill="#343832" opacity="0.07" transform="rotate(68 104.36 684.6)"/><rect x="1087.8" y="804.06" width="25.93" height="1.46" rx="1" fill="#343832" opacity="0.07" transform="rotate(85.7 1087.8 804.06)"/><rect x="1587.61" y="162.77" width="22.05" height="1.68" rx="1" fill="#b98276" opacity="0.07" transform="rotate(116.36 1587.61 162.77)"/><circle cx="268.32" cy="293.76" r="1.02" fill="#343832" opacity="0.04"/><circle cx="857.28" cy="1036.26" r="1.99" fill="#343832" opacity="0.05"/><circle cx="518.03" cy="139.05" r="1.09" fill="#343832" opacity="0.05"/><rect x="637.55" y="486.72" width="17.76" height="1.97" rx="1" fill="#b98276" opacity="0.03" transform="rotate(137.49 637.55 486.72)"/><circle cx="632.11" cy="106.96" r="1.37" fill="#b98276" opacity="0.03"/><rect x="1553.5" y="817.24" width="27.29" height="1.83" rx="1" fill="#b98276" opacity="0.07" transform="rotate(141.14 1553.5 817.24)"/><circle cx="585.01" cy="859.9" r="1.68" fill="#b98276" opacity="0.05"/><circle cx="1529.86" cy="813.21" r="1.04" fill="#b98276" opacity="0.06"/><rect x="794.92" y="208.35" width="20.91" height="1.99" rx="1" fill="#b98276" opacity="0.07" transform="rotate(108.8 794.92 208.35)"/><rect x="477.72" y="408.66" width="11.84" height="1.05" rx="1" fill="#343832" opacity="0.05" transform="rotate(2.17 477.72 408.66)"/><rect x="194.69" y="680.58" width="12.62" height="2.24" rx="1" fill="#b98276" opacity="0.04" transform="rotate(30.93 194.69 680.58)"/><circle cx="455.19" cy="245.88" r="1.03" fill="#b98276" opacity="0.07"/><rect x="1012.68" y="397.43" width="11.07" height="1.93" rx="1" fill="#343832" opacity="0.07" transform="rotate(131.33 1012.68 397.43)"/><rect x="677.39" y="329.08" width="11.17" height="1.06" rx="1" fill="#343832" opacity="0.05" transform="rotate(14.36 677.39 329.08)"/><circle cx="1243.18" cy="265.05" r="0.71" fill="#b98276" opacity="0.07"/><rect x="692.13" y="957.51" width="19.92" height="2.51" rx="1" fill="#343832" opacity="0.08" transform="rotate(7.98 692.13 957.51)"/><circle cx="941.56" cy="477.93" r="1.93" fill="#b98276" opacity="0.08"/><circle cx="1487.76" cy="353.98" r="0.71" fill="#343832" opacity="0.07"/><rect x="259.8" y="515.69" width="7.58" height="1.26" rx="1" fill="#343832" opacity="0.08" transform="rotate(92.94 259.8 515.69)"/><circle cx="702.71" cy="406.95" r="2.05" fill="#343832" opacity="0.06"/><rect x="536.29" y="947.07" width="15.24" height="2.55" rx="1" fill="#343832" opacity="0.07" transform="rotate(103.53 536.29 947.07)"/><circle cx="328.33" cy="438.06" r="1.84" fill="#b98276" opacity="0.07"/><rect x="42.43" y="1098.84" width="17.19" height="2.26" rx="1" fill="#343832" opacity="0.05" transform="rotate(109.51 42.43 1098.84)"/><rect x="898.04" y="164.11" width="10.03" height="2.45" rx="1" fill="#343832" opacity="0.04" transform="rotate(87.32 898.04 164.11)"/><rect x="1186.79" y="389.74" width="22.11" height="2.57" rx="1" fill="#b98276" opacity="0.04" transform="rotate(116.72 1186.79 389.74)"/><rect x="1326.53" y="929.99" width="10.39" height="2.01" rx="1" fill="#b98276" opacity="0.03" transform="rotate(45.92 1326.53 929.99)"/><rect x="292.94" y="636.5" width="6.07" height="1.43" rx="1" fill="#343832" opacity="0.07" transform="rotate(80.7 292.94 636.5)"/><rect x="1056.87" y="647.02" width="25.5" height="1.08" rx="1" fill="#343832" opacity="0.06" transform="rotate(141.73 1056.87 647.02)"/><rect x="682.96" y="818.23" width="12.52" height="1.94" rx="1" fill="#b98276" opacity="0.07" transform="rotate(132.85 682.96 818.23)"/><circle cx="1495.32" cy="679.79" r="0.88" fill="#b98276" opacity="0.06"/><rect x="1453.9" y="483.44" width="10.65" height="0.81" rx="1" fill="#343832" opacity="0.04" transform="rotate(154.01 1453.9 483.44)"/><rect x="1150.68" y="0.68" width="27.28" height="0.84" rx="1" fill="#b98276" opacity="0.03" transform="rotate(78.79 1150.68 0.68)"/><rect x="1547.47" y="642.43" width="23.17" height="2.09" rx="1" fill="#b98276" opacity="0.05" transform="rotate(115.17 1547.47 642.43)"/><circle cx="614.24" cy="625.07" r="1.15" fill="#b98276" opacity="0.06"/><circle cx="1229.39" cy="724.39" r="1.74" fill="#b98276" opacity="0.08"/><circle cx="606.6" cy="776.16" r="2.23" fill="#b98276" opacity="0.07"/><rect x="1427.98" y="725.32" width="24.94" height="2.17" rx="1" fill="#343832" opacity="0.06" transform="rotate(98.28 1427.98 725.32)"/><circle cx="45.3" cy="598.98" r="2.18" fill="#b98276" opacity="0.07"/><rect x="1095.6" y="752.68" width="20.85" height="2.46" rx="1" fill="#b98276" opacity="0.03" transform="rotate(18.72 1095.6 752.68)"/><rect x="665.47" y="456.86" width="15.77" height="1.13" rx="1" fill="#b98276" opacity="0.04" transform="rotate(92.71 665.47 456.86)"/><circle cx="947.61" cy="435.07" r="1.12" fill="#b98276" opacity="0.07"/><rect x="996.63" y="989.59" width="25.61" height="2.32" rx="1" fill="#343832" opacity="0.07" transform="rotate(79.69 996.63 989.59)"/><rect x="1143.23" y="974.5" width="14.88" height="2.5" rx="1" fill="#b98276" opacity="0.06" transform="rotate(132.56 1143.23 974.5)"/><circle cx="572.84" cy="940.25" r="1.56" fill="#b98276" opacity="0.03"/><rect x="33.23" y="493.01" width="9.18" height="1.14" rx="1" fill="#343832" opacity="0.04" transform="rotate(83.64 33.23 493.01)"/><rect x="490.84" y="964.61" width="12.79" height="1.65" rx="1" fill="#343832" opacity="0.07" transform="rotate(57.83 490.84 964.61)"/><rect x="828.13" y="138.35" width="14.2" height="2.46" rx="1" fill="#b98276" opacity="0.06" transform="rotate(138.68 828.13 138.35)"/><circle cx="122.71" cy="585.1" r="2.21" fill="#b98276" opacity="0.05"/><circle cx="790.91" cy="808.98" r="1.36" fill="#343832" opacity="0.04"/><rect x="459.67" y="706.83" width="27.86" height="1.78" rx="1" fill="#343832" opacity="0.08" transform="rotate(109.31 459.67 706.83)"/><rect x="1068.75" y="901.13" width="20.69" height="1.9" rx="1" fill="#343832" opacity="0.07" transform="rotate(1.5 1068.75 901.13)"/><rect x="709.28" y="635.94" width="7.59" height="1.83" rx="1" fill="#b98276" opacity="0.05" transform="rotate(86.05 709.28 635.94)"/><rect x="245.67" y="381.14" width="23.17" height="1.04" rx="1" fill="#343832" opacity="0.03" transform="rotate(108.05 245.67 381.14)"/><rect x="1211.21" y="146.22" width="12.92" height="2.23" rx="1" fill="#343832" opacity="0.08" transform="rotate(102.89 1211.21 146.22)"/><circle cx="299.18" cy="448.47" r="1.67" fill="#b98276" opacity="0.03"/><rect x="815.78" y="886.48" width="24.96" height="1.02" rx="1" fill="#343832" opacity="0.03" transform="rotate(174.74 815.78 886.48)"/><circle cx="2" cy="255.41" r="2.19" fill="#343832" opacity="0.04"/><circle cx="121.8" cy="495.1" r="2.28" fill="#b98276" opacity="0.07"/><rect x="227.43" y="530.13" width="12.7" height="1.38" rx="1" fill="#b98276" opacity="0.06" transform="rotate(0.7 227.43 530.13)"/><circle cx="1430.63" cy="553.39" r="1.38" fill="#b98276" opacity="0.03"/><rect x="233.98" y="1.56" width="16.7" height="1.45" rx="1" fill="#343832" opacity="0.05" transform="rotate(24.1 233.98 1.56)"/><rect x="1340.96" y="957.08" width="11.43" height="1.55" rx="1" fill="#343832" opacity="0.03" transform="rotate(43.02 1340.96 957.08)"/><rect x="902.77" y="899.6" width="13.13" height="2.51" rx="1" fill="#b98276" opacity="0.08" transform="rotate(106.13 902.77 899.6)"/><rect x="242.22" y="779.62" width="24.76" height="2.49" rx="1" fill="#b98276" opacity="0.03" transform="rotate(84.08 242.22 779.62)"/><rect x="436.17" y="1005.07" width="6.85" height="1.67" rx="1" fill="#b98276" opacity="0.07" transform="rotate(93.05 436.17 1005.07)"/><rect x="982.17" y="391.41" width="7.5" height="1.24" rx="1" fill="#b98276" opacity="0.05" transform="rotate(78.71 982.17 391.41)"/><rect x="1040.96" y="1040.45" width="22.95" height="2.24" rx="1" fill="#343832" opacity="0.05" transform="rotate(80.16 1040.96 1040.45)"/><rect x="243.16" y="609.16" width="22.63" height="2.27" rx="1" fill="#343832" opacity="0.07" transform="rotate(96.13 243.16 609.16)"/><rect x="286" y="987.85" width="21.43" height="1.04" rx="1" fill="#343832" opacity="0.05" transform="rotate(77.03 286 987.85)"/><rect x="992.68" y="610.59" width="22.45" height="1.44" rx="1" fill="#343832" opacity="0.03" transform="rotate(31.53 992.68 610.59)"/><rect x="55.56" y="1072.78" width="22.63" height="0.98" rx="1" fill="#b98276" opacity="0.03" transform="rotate(15.08 55.56 1072.78)"/><rect x="675.57" y="634.13" width="6.14" height="1.93" rx="1" fill="#b98276" opacity="0.05" transform="rotate(14.42 675.57 634.13)"/><circle cx="799.49" cy="995.65" r="1.61" fill="#343832" opacity="0.06"/><circle cx="462.34" cy="11.39" r="1.23" fill="#343832" opacity="0.07"/><rect x="280.19" y="534.85" width="24.02" height="1.71" rx="1" fill="#343832" opacity="0.06" transform="rotate(0.52 280.19 534.85)"/><rect x="930.79" y="968.78" width="22.21" height="0.94" rx="1" fill="#343832" opacity="0.08" transform="rotate(67.8 930.79 968.78)"/><circle cx="535.16" cy="582.73" r="2.15" fill="#343832" opacity="0.05"/><circle cx="658.22" cy="829.27" r="0.95" fill="#343832" opacity="0.05"/><rect x="147.73" y="557.75" width="21.24" height="2.14" rx="1" fill="#343832" opacity="0.08" transform="rotate(109.89 147.73 557.75)"/><rect x="896.45" y="798.27" width="19.3" height="1" rx="1" fill="#b98276" opacity="0.06" transform="rotate(57.44 896.45 798.27)"/><circle cx="535.02" cy="1034.3" r="1.53" fill="#343832" opacity="0.05"/><rect x="316.26" y="461.45" width="14.13" height="1.37" rx="1" fill="#343832" opacity="0.04" transform="rotate(26.73 316.26 461.45)"/><rect x="1216.15" y="18.57" width="14.18" height="1.42" rx="1" fill="#b98276" opacity="0.06" transform="rotate(68.06 1216.15 18.57)"/><rect x="1384.08" y="948.44" width="13.17" height="1.66" rx="1" fill="#343832" opacity="0.06" transform="rotate(133.35 1384.08 948.44)"/><rect x="712.05" y="1021.33" width="22.51" height="1" rx="1" fill="#b98276" opacity="0.08" transform="rotate(43.9 712.05 1021.33)"/><rect x="1467.82" y="84.88" width="25.93" height="2.22" rx="1" fill="#b98276" opacity="0.06" transform="rotate(13.96 1467.82 84.88)"/><rect x="1474.3" y="584.66" width="17.25" height="2.51" rx="1" fill="#343832" opacity="0.04" transform="rotate(179.9 1474.3 584.66)"/><rect x="668.64" y="345.2" width="8.01" height="1.06" rx="1" fill="#343832" opacity="0.07" transform="rotate(48.03 668.64 345.2)"/><rect x="1355.38" y="226.03" width="11.62" height="1.89" rx="1" fill="#343832" opacity="0.05" transform="rotate(33.26 1355.38 226.03)"/><circle cx="41.59" cy="130.23" r="2.15" fill="#b98276" opacity="0.03"/><rect x="1471.55" y="913.45" width="11.05" height="1.64" rx="1" fill="#b98276" opacity="0.06" transform="rotate(13.39 1471.55 913.45)"/><rect x="517.15" y="520.79" width="24.91" height="1.19" rx="1" fill="#b98276" opacity="0.08" transform="rotate(84.08 517.15 520.79)"/><rect x="1477.19" y="222.57" width="10.15" height="2.26" rx="1" fill="#343832" opacity="0.07" transform="rotate(82.28 1477.19 222.57)"/><rect x="1504.74" y="399.18" width="12.4" height="1.81" rx="1" fill="#343832" opacity="0.03" transform="rotate(85.41 1504.74 399.18)"/><circle cx="685.75" cy="954.25" r="1.84" fill="#b98276" opacity="0.04"/><rect x="698.03" y="779.5" width="13.49" height="2.53" rx="1" fill="#b98276" opacity="0.05" transform="rotate(121.31 698.03 779.5)"/><rect x="607.69" y="510.88" width="20.79" height="2.44" rx="1" fill="#343832" opacity="0.04" transform="rotate(140.53 607.69 510.88)"/><rect x="1238.01" y="0.57" width="8.59" height="2.59" rx="1" fill="#b98276" opacity="0.05" transform="rotate(173.98 1238.01 0.57)"/><circle cx="852.76" cy="204.93" r="2.03" fill="#b98276" opacity="0.05"/><circle cx="185.47" cy="746.05" r="0.8" fill="#343832" opacity="0.03"/><rect x="354.49" y="1006.03" width="15.26" height="1.4" rx="1" fill="#b98276" opacity="0.08" transform="rotate(148.26 354.49 1006.03)"/><circle cx="1011.09" cy="138.26" r="1.21" fill="#343832" opacity="0.07"/><rect x="1310.42" y="490.19" width="11.17" height="1.81" rx="1" fill="#343832" opacity="0.06" transform="rotate(132.85 1310.42 490.19)"/><rect x="83.8" y="81.17" width="24.03" height="2.33" rx="1" fill="#343832" opacity="0.07" transform="rotate(90.78 83.8 81.17)"/><circle cx="19.25" cy="712.97" r="2.07" fill="#343832" opacity="0.06"/><rect x="957.46" y="423.43" width="15.16" height="1.23" rx="1" fill="#b98276" opacity="0.06" transform="rotate(155.41 957.46 423.43)"/><rect x="1164.93" y="1092.93" width="9.47" height="1.75" rx="1" fill="#343832" opacity="0.06" transform="rotate(142.55 1164.93 1092.93)"/><circle cx="623.02" cy="185.22" r="1.3" fill="#b98276" opacity="0.04"/><circle cx="620.34" cy="106.73" r="1.26" fill="#343832" opacity="0.06"/><circle cx="329.03" cy="53.87" r="1.52" fill="#343832" opacity="0.07"/><rect x="866.96" y="32" width="19.07" height="1.83" rx="1" fill="#343832" opacity="0.08" transform="rotate(35.06 866.96 32)"/><circle cx="310.94" cy="262.83" r="1.12" fill="#b98276" opacity="0.06"/><rect x="287.09" y="368.16" width="12.55" height="1.73" rx="1" fill="#b98276" opacity="0.03" transform="rotate(111.07 287.09 368.16)"/><rect x="258.95" y="473.74" width="6" height="1.48" rx="1" fill="#343832" opacity="0.06" transform="rotate(145.3 258.95 473.74)"/><rect x="709.77" y="572.53" width="21.51" height="1.62" rx="1" fill="#343832" opacity="0.03" transform="rotate(119.82 709.77 572.53)"/><rect x="1564.71" y="41.27" width="21.82" height="0.85" rx="1" fill="#b98276" opacity="0.06" transform="rotate(78.98 1564.71 41.27)"/><circle cx="385.23" cy="845.09" r="1.13" fill="#b98276" opacity="0.06"/><circle cx="261.28" cy="477.36" r="1.97" fill="#343832" opacity="0.03"/><rect x="1179.03" y="849.72" width="12.3" height="2.37" rx="1" fill="#b98276" opacity="0.03" transform="rotate(159.36 1179.03 849.72)"/><rect x="793" y="301.41" width="12.14" height="2.12" rx="1" fill="#b98276" opacity="0.07" transform="rotate(145.76 793 301.41)"/><circle cx="902.33" cy="669.25" r="1.44" fill="#b98276" opacity="0.04"/><circle cx="16" cy="345.66" r="1.18" fill="#343832" opacity="0.06"/><rect x="928.62" y="918.61" width="9.52" height="1.32" rx="1" fill="#b98276" opacity="0.03" transform="rotate(105.46 928.62 918.61)"/><rect x="380.62" y="1083.45" width="15.55" height="1.62" rx="1" fill="#343832" opacity="0.03" transform="rotate(63.89 380.62 1083.45)"/><rect x="551.43" y="240.47" width="13.55" height="1.63" rx="1" fill="#b98276" opacity="0.04" transform="rotate(73.77 551.43 240.47)"/><circle cx="1074.92" cy="945.64" r="1.65" fill="#343832" opacity="0.03"/><rect x="830.25" y="595.36" width="8.5" height="2.1" rx="1" fill="#343832" opacity="0.07" transform="rotate(49.23 830.25 595.36)"/><circle cx="265.07" cy="633.97" r="1.64" fill="#343832" opacity="0.06"/><circle cx="1368.68" cy="865.18" r="1.51" fill="#b98276" opacity="0.07"/><circle cx="311.96" cy="1040.42" r="2.25" fill="#343832" opacity="0.06"/><rect x="905.39" y="1090.02" width="25.57" height="1.91" rx="1" fill="#343832" opacity="0.07" transform="rotate(2.33 905.39 1090.02)"/><rect x="175.06" y="607.92" width="14.8" height="2.24" rx="1" fill="#343832" opacity="0.07" transform="rotate(89.55 175.06 607.92)"/><rect x="216.68" y="138.99" width="8.91" height="1.66" rx="1" fill="#b98276" opacity="0.08" transform="rotate(90.07 216.68 138.99)"/><rect x="163.76" y="762.99" width="17.48" height="1.23" rx="1" fill="#343832" opacity="0.06" transform="rotate(29.02 163.76 762.99)"/><circle cx="1426.64" cy="719.31" r="0.73" fill="#343832" opacity="0.04"/><rect x="1026.79" y="511.75" width="14.45" height="1.52" rx="1" fill="#343832" opacity="0.03" transform="rotate(65.8 1026.79 511.75)"/>
  <circle cx="1350" cy="178" r="184" fill="#b98276" opacity="0.06"/>
  <circle cx="220" cy="894" r="220" fill="#87927a" opacity="0.08"/>
  <g transform="rotate(-4 520 530)">
    <ellipse cx="536" cy="813.6" rx="233.2" ry="56" fill="#1f211d" opacity="0.11"/>
    <rect x="300" y="250" width="440" height="560" rx="10" fill="#fff8ef"/>
    <rect x="318" y="268" width="404" height="524" rx="5" fill="none" stroke="#343832" stroke-opacity="0.11"/>
    <rect x="334" y="292" width="96.8" height="4" rx="2" fill="#b98276" opacity="0.84"/>
    <text x="334" y="440.4" class="brand" fill="#343832" font-size="52.8">ASSEMBLY</text>
    <text x="336" y="474.4" class="micro" fill="#343832" opacity="0.65">OBJECT 04</text>
    <rect x="336" y="574.8" width="120.38" height="3" rx="2" fill="#343832" opacity="0.42"/><rect x="336" y="596.8" width="180.58" height="2" rx="2" fill="#343832" opacity="0.22"/><rect x="336" y="618.8" width="240.77" height="2" rx="2" fill="#343832" opacity="0.22"/><rect x="336" y="640.8" width="136.22" height="2" rx="2" fill="#343832" opacity="0.22"/><rect x="336" y="662.8" width="196.42" height="2" rx="2" fill="#343832" opacity="0.22"/><rect x="336" y="684.8" width="256.61" height="2" rx="2" fill="#343832" opacity="0.22"/><rect x="336" y="706.8" width="152.06" height="2" rx="2" fill="#343832" opacity="0.22"/><rect x="336" y="728.8" width="212.26" height="2" rx="2" fill="#343832" opacity="0.22"/><rect x="336" y="750.8" width="272.45" height="2" rx="2" fill="#343832" opacity="0.22"/><rect x="336" y="772.8" width="167.9" height="2" rx="2" fill="#343832" opacity="0.22"/>
    
  </g><g transform="rotate(5 940 540)">
    <ellipse cx="956" cy="762.4" rx="190.8" ry="44" fill="#1f211d" opacity="0.11"/>
    <rect x="760" y="320" width="360" height="440" rx="8" fill="#fff8ef"/>
    <path d="M 860.8 601.6 L 896.8 443.2 H 1004.8 L 1033.6 601.6" fill="none" stroke="#454a42" stroke-width="10" stroke-linecap="round" stroke-linejoin="round"/>
    <path d="M 871.6 601.6 L 846.4 707.2 M 1019.2 601.6 L 1048 707.2" stroke="#454a42" stroke-width="8" stroke-linecap="round"/>
    <text x="803.2" y="390.4" class="brand" fill="#343832" font-size="39.6">CARE</text>
  </g><g transform="rotate(-7 1180 705)">
    <ellipse cx="1196" cy="818.4" rx="137.8" ry="19" fill="#1f211d" opacity="0.11"/>
    <rect x="1050" y="610" width="260" height="190" rx="10" fill="#fff8ef"/>
    <rect x="1068" y="628" width="224" height="154" rx="5" fill="none" stroke="#343832" stroke-opacity="0.11"/>
    <rect x="1084" y="652" width="57.2" height="4" rx="2" fill="#b98276" opacity="0.84"/>
    <text x="1084" y="674.6" class="brand" fill="#343832" font-size="31.2">CERT</text>
    <text x="1086" y="708.6" class="micro" fill="#343832" opacity="0.65">PRODUCT</text>
    <rect x="1086" y="720.2" width="71.14" height="3" rx="2" fill="#343832" opacity="0.42"/><rect x="1086" y="742.2" width="106.7" height="2" rx="2" fill="#343832" opacity="0.22"/><rect x="1086" y="764.2" width="142.27" height="2" rx="2" fill="#343832" opacity="0.22"/>
    
  </g>
  <g opacity="0.72"><text x="78" y="1004" class="micro" fill="#343832">FURNITURE IDENTITY</text><text x="78" y="1036" class="micro" fill="#343832" opacity="0.55">TEMPORARY DEMONSTRATION PORTFOLIO VISUAL / GALLERY-3</text></g>
</svg>
