<?xml version="1.0" encoding="UTF-8"?>
<svg xmlns="http://www.w3.org/2000/svg" width="1600" height="1100" viewBox="0 0 1600 1100" role="img" aria-labelledby="title desc">
  <title id="title">FORMA hero demo portfolio mockup</title>
  <desc id="desc">Temporary fictional demonstration project imagery for portfolio presentation only, not client work.</desc>
  <defs>
    <linearGradient id="bg_forma_hero" x1="0" y1="0" x2="1" y2="1">
      <stop offset="0%" stop-color="#fff8ef"/>
      <stop offset="58%" stop-color="#f3ede5"/>
      <stop offset="100%" stop-color="#d1bca6"/>
    </linearGradient>
    <radialGradient id="light_forma_hero" cx="74%" cy="18%" r="64%">
      <stop offset="0%" stop-color="#ffffff" stop-opacity="0.62"/>
      <stop offset="100%" stop-color="#ffffff" stop-opacity="0"/>
    </radialGradient>
  </defs>
  <style><![CDATA[
    .brand { font-family: Helvetica, Georgia, serif; font-weight: 500; letter-spacing: .02em; }
    .body { font-family: Georgia, Arial, sans-serif; font-weight: 500; }
    .micro { font-family: Georgia, Arial, sans-serif; font-size: 20px; font-weight: 700; letter-spacing: .12em; }
  ]]></style>
  <rect width="1600" height="1100" fill="url(#bg_forma_hero)"/>
  <rect width="1600" height="1100" fill="url(#light_forma_hero)"/>
  <rect x="631.52" y="725.08" width="27.26" height="1.47" rx="1" fill="#343832" opacity="0.06" transform="rotate(108.14 631.52 725.08)"/><rect x="1148.32" y="530.41" width="27.38" height="1.22" rx="1" fill="#343832" opacity="0.03" transform="rotate(33.48 1148.32 530.41)"/><rect x="1371.29" y="806.65" width="25.5" height="2.17" rx="1" fill="#343832" opacity="0.05" transform="rotate(62.42 1371.29 806.65)"/><circle cx="768.13" cy="323.38" r="1" fill="#343832" opacity="0.07"/><rect x="118.46" y="288.71" width="20.31" height="1.61" rx="1" fill="#343832" opacity="0.05" transform="rotate(6.92 118.46 288.71)"/><rect x="185.64" y="654.95" width="7.14" height="1.86" rx="1" fill="#b98276" opacity="0.07" transform="rotate(57.36 185.64 654.95)"/><circle cx="1225.33" cy="119.91" r="0.95" fill="#b98276" opacity="0.04"/><circle cx="1384.06" cy="961.26" r="1.61" fill="#b98276" opacity="0.04"/><circle cx="1433.44" cy="106.13" r="1.86" fill="#b98276" opacity="0.06"/><rect x="999.29" y="676.96" width="12.95" height="1.69" rx="1" fill="#b98276" opacity="0.06" transform="rotate(68.61 999.29 676.96)"/><circle cx="1036.49" cy="492.45" r="1.29" fill="#343832" opacity="0.07"/><rect x="1214.51" y="102.08" width="19.65" height="1.46" rx="1" fill="#b98276" opacity="0.05" transform="rotate(77.35 1214.51 102.08)"/><rect x="1006.09" y="842.88" width="10.71" height="1.9" rx="1" fill="#b98276" opacity="0.07" transform="rotate(90.65 1006.09 842.88)"/><rect x="936.82" y="127.17" width="22.23" height="2.16" rx="1" fill="#343832" opacity="0.06" transform="rotate(37.97 936.82 127.17)"/><rect x="270.08" y="217.63" width="20.1" height="0.92" rx="1" fill="#343832" opacity="0.07" transform="rotate(98.53 270.08 217.63)"/><circle cx="657.83" cy="739" r="1.95" fill="#343832" opacity="0.04"/><rect x="313.22" y="902.38" width="16.25" height="0.93" rx="1" fill="#b98276" opacity="0.05" transform="rotate(60.51 313.22 902.38)"/><rect x="1334.96" y="657.65" width="21.52" height="1.2" rx="1" fill="#343832" opacity="0.04" transform="rotate(92.87 1334.96 657.65)"/><circle cx="41.97" cy="74.12" r="1.65" fill="#343832" opacity="0.03"/><rect x="437.87" y="269.55" width="18.6" height="0.85" rx="1" fill="#b98276" opacity="0.03" transform="rotate(45.7 437.87 269.55)"/><rect x="861.95" y="767.07" width="12.77" height="1.33" rx="1" fill="#343832" opacity="0.05" transform="rotate(157.68 861.95 767.07)"/><circle cx="133.94" cy="290.25" r="1.2" fill="#343832" opacity="0.05"/><rect x="1382.66" y="211.74" width="24.54" height="1.13" rx="1" fill="#343832" opacity="0.06" transform="rotate(168.24 1382.66 211.74)"/><circle cx="770.89" cy="136.28" r="1.91" fill="#b98276" opacity="0.08"/><circle cx="973.61" cy="13" r="0.92" fill="#b98276" opacity="0.03"/><rect x="711.2" y="968.71" width="19.76" height="1.75" rx="1" fill="#b98276" opacity="0.04" transform="rotate(122.58 711.2 968.71)"/><circle cx="1343.64" cy="831.67" r="1.27" fill="#b98276" opacity="0.03"/><rect x="589.82" y="215.78" width="14.89" height="2.2" rx="1" fill="#b98276" opacity="0.03" transform="rotate(16.62 589.82 215.78)"/><rect x="1482.93" y="744.83" width="20.8" height="2.45" rx="1" fill="#343832" opacity="0.03" transform="rotate(177.88 1482.93 744.83)"/><rect x="366.2" y="70.41" width="9.26" height="1.86" rx="1" fill="#343832" opacity="0.05" transform="rotate(20.51 366.2 70.41)"/><rect x="117.65" y="362.83" width="16.65" height="0.82" rx="1" fill="#343832" opacity="0.06" transform="rotate(124.57 117.65 362.83)"/><rect x="1454.29" y="930.32" width="18.08" height="2.03" rx="1" fill="#b98276" opacity="0.05" transform="rotate(143.32 1454.29 930.32)"/><circle cx="1577.88" cy="386.32" r="2.28" fill="#b98276" opacity="0.06"/><circle cx="48.53" cy="793.24" r="0.89" fill="#b98276" opacity="0.06"/><circle cx="1385.45" cy="624.19" r="2.23" fill="#343832" opacity="0.04"/><circle cx="574.21" cy="891.35" r="1.29" fill="#b98276" opacity="0.08"/><circle cx="368.88" cy="43.82" r="0.78" fill="#343832" opacity="0.06"/><circle cx="225.34" cy="315.97" r="1.74" fill="#343832" opacity="0.06"/><rect x="1241.09" y="775.37" width="23.34" height="2.51" rx="1" fill="#b98276" opacity="0.05" transform="rotate(72.04 1241.09 775.37)"/><rect x="382.88" y="796.17" width="6.2" height="1.29" rx="1" fill="#343832" opacity="0.03" transform="rotate(126.46 382.88 796.17)"/><rect x="368.73" y="808.09" width="7.04" height="1.03" rx="1" fill="#b98276" opacity="0.03" transform="rotate(80.48 368.73 808.09)"/><circle cx="1187.94" cy="869.24" r="1.52" fill="#b98276" opacity="0.03"/><circle cx="317.16" cy="1023.45" r="1.25" fill="#b98276" opacity="0.07"/><rect x="1494.78" y="1002.16" width="12.01" height="0.98" rx="1" fill="#343832" opacity="0.05" transform="rotate(144.81 1494.78 1002.16)"/><rect x="10.65" y="1067.23" width="19.38" height="1.15" rx="1" fill="#b98276" opacity="0.04" transform="rotate(124.33 10.65 1067.23)"/><rect x="1538.44" y="554.84" width="22.55" height="2.38" rx="1" fill="#b98276" opacity="0.04" transform="rotate(78.25 1538.44 554.84)"/><rect x="69.28" y="1000.5" width="14.77" height="2.45" rx="1" fill="#b98276" opacity="0.08" transform="rotate(25.05 69.28 1000.5)"/><circle cx="269.1" cy="633.1" r="1.25" fill="#343832" opacity="0.05"/><circle cx="1215.37" cy="735.7" r="1.84" fill="#b98276" opacity="0.08"/><rect x="275.92" y="53.34" width="20.07" height="2.15" rx="1" fill="#343832" opacity="0.04" transform="rotate(113.99 275.92 53.34)"/><rect x="1534.65" y="534.4" width="16.73" height="0.86" rx="1" fill="#343832" opacity="0.08" transform="rotate(62.6 1534.65 534.4)"/><circle cx="1065.44" cy="165.18" r="1.68" fill="#343832" opacity="0.03"/><circle cx="621.83" cy="672.41" r="1.09" fill="#343832" opacity="0.08"/><rect x="889.05" y="877.5" width="9.02" height="1.2" rx="1" fill="#343832" opacity="0.03" transform="rotate(102.37 889.05 877.5)"/><circle cx="68.86" cy="950.22" r="1.34" fill="#b98276" opacity="0.06"/><rect x="48.18" y="375.16" width="24.12" height="2.41" rx="1" fill="#343832" opacity="0.03" transform="rotate(120.63 48.18 375.16)"/><rect x="673.72" y="164.55" width="18.18" height="2.17" rx="1" fill="#b98276" opacity="0.04" transform="rotate(177.01 673.72 164.55)"/><rect x="989.21" y="908.63" width="16.02" height="2.5" rx="1" fill="#b98276" opacity="0.03" transform="rotate(2.8 989.21 908.63)"/><rect x="436.18" y="916.27" width="9.2" height="1.73" rx="1" fill="#343832" opacity="0.05" transform="rotate(41.01 436.18 916.27)"/><rect x="521" y="491.67" width="15.2" height="0.94" rx="1" fill="#b98276" opacity="0.04" transform="rotate(145.77 521 491.67)"/><rect x="515.33" y="165.62" width="7.1" height="1.82" rx="1" fill="#b98276" opacity="0.06" transform="rotate(85.9 515.33 165.62)"/><rect x="598.75" y="806.11" width="9.43" height="2.6" rx="1" fill="#b98276" opacity="0.06" transform="rotate(86.64 598.75 806.11)"/><circle cx="809.49" cy="267.46" r="1.99" fill="#b98276" opacity="0.04"/><rect x="1099.28" y="922.38" width="9.78" height="1.48" rx="1" fill="#b98276" opacity="0.04" transform="rotate(167.77 1099.28 922.38)"/><rect x="468.2" y="877.71" width="22.96" height="2.43" rx="1" fill="#b98276" opacity="0.06" transform="rotate(145.1 468.2 877.71)"/><rect x="1498.67" y="793.77" width="11.88" height="1.17" rx="1" fill="#343832" opacity="0.05" transform="rotate(88.42 1498.67 793.77)"/><rect x="1194.53" y="960.57" width="13.16" height="0.94" rx="1" fill="#b98276" opacity="0.06" transform="rotate(0.15 1194.53 960.57)"/><circle cx="1225.07" cy="218.57" r="1.21" fill="#343832" opacity="0.03"/><rect x="1350.24" y="404.79" width="9.01" height="2.08" rx="1" fill="#343832" opacity="0.08" transform="rotate(56.63 1350.24 404.79)"/><circle cx="68.3" cy="17.72" r="1.95" fill="#b98276" opacity="0.07"/><rect x="525.85" y="220.27" width="6.61" height="0.97" rx="1" fill="#b98276" opacity="0.03" transform="rotate(87.78 525.85 220.27)"/><rect x="528.8" y="77.67" width="22.83" height="0.82" rx="1" fill="#343832" opacity="0.07" transform="rotate(101.47 528.8 77.67)"/><rect x="1144.43" y="732" width="27.23" height="1.44" rx="1" fill="#343832" opacity="0.08" transform="rotate(146.76 1144.43 732)"/><rect x="207.7" y="697.09" width="8.89" height="2.33" rx="1" fill="#343832" opacity="0.08" transform="rotate(90.09 207.7 697.09)"/><circle cx="189.63" cy="871.85" r="0.76" fill="#b98276" opacity="0.06"/><rect x="1360.27" y="658.06" width="13.16" height="1.75" rx="1" fill="#b98276" opacity="0.06" transform="rotate(92.78 1360.27 658.06)"/><circle cx="1315.53" cy="949.52" r="1.73" fill="#343832" opacity="0.08"/><rect x="1248.26" y="114.37" width="23.31" height="1.59" rx="1" fill="#b98276" opacity="0.07" transform="rotate(115.49 1248.26 114.37)"/><circle cx="1455.38" cy="440.02" r="1.07" fill="#b98276" opacity="0.06"/><circle cx="193.97" cy="318.96" r="1.09" fill="#343832" opacity="0.08"/><rect x="971.89" y="237.79" width="7.35" height="2.44" rx="1" fill="#b98276" opacity="0.05" transform="rotate(45.37 971.89 237.79)"/><rect x="867.61" y="846.43" width="20.18" height="0.88" rx="1" fill="#b98276" opacity="0.03" transform="rotate(89.39 867.61 846.43)"/><circle cx="719.99" cy="985.13" r="1.14" fill="#b98276" opacity="0.07"/><rect x="863.65" y="665.87" width="15.24" height="1.88" rx="1" fill="#343832" opacity="0.05" transform="rotate(24.86 863.65 665.87)"/><rect x="1444.06" y="668.69" width="26.44" height="1.19" rx="1" fill="#343832" opacity="0.04" transform="rotate(37.45 1444.06 668.69)"/><circle cx="1003.37" cy="904.07" r="1.29" fill="#b98276" opacity="0.06"/><circle cx="1086.73" cy="866.23" r="1.08" fill="#b98276" opacity="0.05"/><circle cx="854.77" cy="530.79" r="2.11" fill="#b98276" opacity="0.04"/><rect x="638.45" y="11.15" width="6.21" height="1.32" rx="1" fill="#b98276" opacity="0.06" transform="rotate(135.52 638.45 11.15)"/><rect x="41.85" y="178.19" width="23.58" height="1.55" rx="1" fill="#b98276" opacity="0.04" transform="rotate(13.12 41.85 178.19)"/><rect x="7.44" y="172.98" width="6.12" height="2.19" rx="1" fill="#b98276" opacity="0.06" transform="rotate(132.85 7.44 172.98)"/><circle cx="926.29" cy="651.92" r="1.22" fill="#343832" opacity="0.03"/><rect x="727.51" y="316.89" width="18.2" height="1.06" rx="1" fill="#343832" opacity="0.07" transform="rotate(95.33 727.51 316.89)"/><circle cx="980.76" cy="1094.57" r="1.84" fill="#343832" opacity="0.03"/><circle cx="702.03" cy="1003.05" r="1.99" fill="#343832" opacity="0.03"/><rect x="266.67" y="446.66" width="17.71" height="1.3" rx="1" fill="#343832" opacity="0.08" transform="rotate(45.6 266.67 446.66)"/><circle cx="197.44" cy="918.9" r="1.05" fill="#343832" opacity="0.05"/><circle cx="821" cy="389.03" r="0.77" fill="#343832" opacity="0.06"/><rect x="387.12" y="793.45" width="21.99" height="1.19" rx="1" fill="#b98276" opacity="0.06" transform="rotate(159.59 387.12 793.45)"/><rect x="708.8" y="972.05" width="20.73" height="0.99" rx="1" fill="#b98276" opacity="0.05" transform="rotate(28.12 708.8 972.05)"/><rect x="1080.36" y="613.43" width="19.69" height="1.42" rx="1" fill="#343832" opacity="0.04" transform="rotate(114.04 1080.36 613.43)"/><circle cx="1441.94" cy="929.06" r="1.66" fill="#b98276" opacity="0.03"/><circle cx="1328.91" cy="988.63" r="2.15" fill="#b98276" opacity="0.03"/><rect x="84.26" y="1052.87" width="7.41" height="1.39" rx="1" fill="#b98276" opacity="0.05" transform="rotate(9.86 84.26 1052.87)"/><circle cx="11.42" cy="1027.62" r="1.86" fill="#343832" opacity="0.03"/><rect x="1456.51" y="862.12" width="24.52" height="2.08" rx="1" fill="#343832" opacity="0.04" transform="rotate(71.74 1456.51 862.12)"/><rect x="583.99" y="528.48" width="20.88" height="1.24" rx="1" fill="#b98276" opacity="0.05" transform="rotate(177.45 583.99 528.48)"/><rect x="749.32" y="82.12" width="26.5" height="1.5" rx="1" fill="#343832" opacity="0.04" transform="rotate(52.33 749.32 82.12)"/><rect x="632.86" y="724.49" width="24.93" height="1.59" rx="1" fill="#b98276" opacity="0.08" transform="rotate(30.25 632.86 724.49)"/><rect x="651.11" y="1056.87" width="14.51" height="0.96" rx="1" fill="#b98276" opacity="0.07" transform="rotate(84.63 651.11 1056.87)"/><circle cx="399.77" cy="493.08" r="1.76" fill="#b98276" opacity="0.05"/><rect x="650.09" y="845.13" width="22.63" height="2.19" rx="1" fill="#343832" opacity="0.06" transform="rotate(177.7 650.09 845.13)"/><rect x="797.48" y="456.56" width="19.21" height="1.04" rx="1" fill="#b98276" opacity="0.05" transform="rotate(102.23 797.48 456.56)"/><rect x="264.71" y="628.82" width="22.62" height="1.79" rx="1" fill="#b98276" opacity="0.04" transform="rotate(37.5 264.71 628.82)"/><circle cx="1257.39" cy="138.15" r="1.31" fill="#343832" opacity="0.06"/><rect x="742.28" y="1019.48" width="26.78" height="2.55" rx="1" fill="#b98276" opacity="0.05" transform="rotate(7.38 742.28 1019.48)"/><rect x="692.65" y="186.64" width="25.75" height="1.92" rx="1" fill="#343832" opacity="0.06" transform="rotate(112.72 692.65 186.64)"/><circle cx="197.63" cy="1015.32" r="1.83" fill="#343832" opacity="0.04"/><circle cx="918.3" cy="526.46" r="0.7" fill="#343832" opacity="0.05"/><rect x="115.75" y="363.27" width="17.32" height="1.32" rx="1" fill="#343832" opacity="0.07" transform="rotate(168.83 115.75 363.27)"/><rect x="22.72" y="988.29" width="14.09" height="2.13" rx="1" fill="#343832" opacity="0.08" transform="rotate(148.04 22.72 988.29)"/><circle cx="263.47" cy="596.21" r="1.27" fill="#343832" opacity="0.04"/><rect x="340.15" y="464.17" width="6.15" height="2.46" rx="1" fill="#b98276" opacity="0.04" transform="rotate(155.64 340.15 464.17)"/><rect x="108.54" y="731.21" width="27.85" height="2.08" rx="1" fill="#343832" opacity="0.03" transform="rotate(60.52 108.54 731.21)"/><circle cx="1104.26" cy="644.02" r="1.8" fill="#343832" opacity="0.04"/><rect x="37.52" y="297.55" width="14.65" height="1.44" rx="1" fill="#b98276" opacity="0.07" transform="rotate(167.4 37.52 297.55)"/><rect x="909.26" y="777.32" width="17.88" height="1.24" rx="1" fill="#343832" opacity="0.04" transform="rotate(54.14 909.26 777.32)"/><circle cx="563.02" cy="781.76" r="1.72" fill="#b98276" opacity="0.03"/><rect x="993.8" y="33.19" width="12.83" height="2.27" rx="1" fill="#b98276" opacity="0.03" transform="rotate(145.26 993.8 33.19)"/><rect x="115.98" y="504.44" width="14.88" height="1.44" rx="1" fill="#b98276" opacity="0.03" transform="rotate(105.67 115.98 504.44)"/><circle cx="615.44" cy="399.11" r="2.19" fill="#b98276" opacity="0.05"/><rect x="250.82" y="803.3" width="7.67" height="2.56" rx="1" fill="#b98276" opacity="0.05" transform="rotate(46.69 250.82 803.3)"/><rect x="804.63" y="614.86" width="15.13" height="1.3" rx="1" fill="#b98276" opacity="0.04" transform="rotate(97.23 804.63 614.86)"/><circle cx="443.12" cy="249.43" r="1.38" fill="#b98276" opacity="0.07"/><rect x="867.86" y="653.67" width="26.56" height="1.66" rx="1" fill="#b98276" opacity="0.06" transform="rotate(143.01 867.86 653.67)"/><rect x="575.02" y="481.61" width="21.08" height="2.48" rx="1" fill="#b98276" opacity="0.07" transform="rotate(67.2 575.02 481.61)"/><rect x="1438.33" y="525.42" width="26.4" height="1.57" rx="1" fill="#343832" opacity="0.06" transform="rotate(172.23 1438.33 525.42)"/><circle cx="409.41" cy="580.27" r="1.22" fill="#343832" opacity="0.05"/><circle cx="640.62" cy="1006.98" r="1.62" fill="#b98276" opacity="0.04"/><circle cx="517.83" cy="805.3" r="1.41" fill="#b98276" opacity="0.04"/>
  <circle cx="1350" cy="178" r="184" fill="#b98276" opacity="0.06"/>
  <circle cx="220" cy="894" r="220" fill="#87927a" opacity="0.08"/>
  <g transform="rotate(-5 455 510)">
    <ellipse cx="471" cy="769.2" rx="201.4" ry="52" fill="#1f211d" opacity="0.11"/>
    <rect x="265" y="250" width="380" height="520" rx="8" fill="#fff8ef"/>
    <path d="M 371.4 582.8 L 409.4 395.6 H 523.4 L 553.8 582.8" fill="none" stroke="#454a42" stroke-width="10" stroke-linecap="round" stroke-linejoin="round"/>
    <path d="M 382.8 582.8 L 356.2 707.6 M 538.6 582.8 L 569 707.6" stroke="#454a42" stroke-width="8" stroke-linecap="round"/>
    <text x="310.6" y="333.2" class="brand" fill="#343832" font-size="41.8">FORMA</text>
  </g><g transform="rotate(4 1010 530)">
    <ellipse cx="1028" cy="756.4" rx="381.6" ry="44" fill="#1f211d" opacity="0.12"/>
    <rect x="650" y="310" width="720" height="440" rx="6" fill="#fff8ef"/>
    <rect x="1009" y="334" width="2" height="392" fill="#343832" opacity="0.12"/>
    <rect x="1042" y="350" width="290" height="360" rx="4" fill="#d1bca6"/>
    <path d="M 1060 582.8 C 1106.8 503.6, 1178.8 631.2, 1315.6 459.6" fill="none" stroke="#fff8ef" stroke-width="5" opacity="0.72"/>
    <text x="694" y="398" class="brand" fill="#343832" font-size="39.6">CATALOG</text>
    <rect x="694" y="448" width="102.6" height="3" rx="2" fill="#343832" opacity="0.42"/><rect x="694" y="470" width="153.9" height="2" rx="2" fill="#343832" opacity="0.22"/><rect x="694" y="492" width="205.2" height="2" rx="2" fill="#343832" opacity="0.22"/><rect x="694" y="514" width="116.1" height="2" rx="2" fill="#343832" opacity="0.22"/><rect x="694" y="536" width="167.4" height="2" rx="2" fill="#343832" opacity="0.22"/><rect x="694" y="558" width="218.7" height="2" rx="2" fill="#343832" opacity="0.22"/><rect x="694" y="580" width="129.6" height="2" rx="2" fill="#343832" opacity="0.22"/><rect x="694" y="602" width="180.9" height="2" rx="2" fill="#343832" opacity="0.22"/><rect x="694" y="624" width="232.2" height="2" rx="2" fill="#343832" opacity="0.22"/>
  </g><g transform="rotate(3 680 855)">
      <ellipse cx="480" cy="914.32" rx="44.52" ry="4.2" fill="#1f211d" opacity="0.08"/>
      <rect x="430" y="790" width="86" height="116" rx="8" fill="#fff8ef"/>
      <text x="442" y="886" class="micro" fill="#343832" opacity="0.62">01</text>
    
      <ellipse cx="584" cy="914.32" rx="44.52" ry="4.2" fill="#1f211d" opacity="0.08"/>
      <rect x="534" y="790" width="86" height="116" rx="8" fill="#d1bca6"/>
      <text x="546" y="886" class="micro" fill="#343832" opacity="0.62">02</text>
    
      <ellipse cx="688" cy="914.32" rx="44.52" ry="4.2" fill="#1f211d" opacity="0.08"/>
      <rect x="638" y="790" width="86" height="116" rx="8" fill="#b98276"/>
      <text x="650" y="886" class="micro" fill="#343832" opacity="0.62">03</text>
    
      <ellipse cx="792" cy="914.32" rx="44.52" ry="4.2" fill="#1f211d" opacity="0.08"/>
      <rect x="742" y="790" width="86" height="116" rx="8" fill="#87927a"/>
      <text x="754" y="886" class="micro" fill="#343832" opacity="0.62">04</text>
    
      <ellipse cx="896" cy="914.32" rx="44.52" ry="4.2" fill="#1f211d" opacity="0.08"/>
      <rect x="846" y="790" width="86" height="116" rx="8" fill="#454a42"/>
      <text x="858" y="886" class="micro" fill="#fff8ef" opacity="0.62">05</text>
    </g><g transform="rotate(8 1200 280)">
    <ellipse cx="1216" cy="402.6" rx="148.4" ry="21" fill="#1f211d" opacity="0.11"/>
    <rect x="1060" y="175" width="280" height="210" rx="10" fill="#fff8ef"/>
    <rect x="1078" y="193" width="244" height="174" rx="5" fill="none" stroke="#343832" stroke-opacity="0.11"/>
    <rect x="1094" y="217" width="61.6" height="4" rx="2" fill="#b98276" opacity="0.84"/>
    <text x="1094" y="246.4" class="brand" fill="#343832" font-size="33.6">CARE</text>
    <text x="1096" y="280.4" class="micro" fill="#343832" opacity="0.65">INSERT</text>
    <rect x="1096" y="296.8" width="76.61" height="3" rx="2" fill="#343832" opacity="0.42"/><rect x="1096" y="318.8" width="114.91" height="2" rx="2" fill="#343832" opacity="0.22"/><rect x="1096" y="340.8" width="153.22" height="2" rx="2" fill="#343832" opacity="0.22"/>
    
  </g>
  <g opacity="0.72"><text x="78" y="1004" class="micro" fill="#343832">FURNITURE IDENTITY</text><text x="78" y="1036" class="micro" fill="#343832" opacity="0.55">TEMPORARY DEMONSTRATION PORTFOLIO VISUAL / HERO</text></g>
</svg>
