<?xml version="1.0" encoding="UTF-8"?>
<svg xmlns="http://www.w3.org/2000/svg" width="1600" height="1100" viewBox="0 0 1600 1100" role="img" aria-labelledby="title desc">
  <title id="title">ELYSIAN cover demo portfolio mockup</title>
  <desc id="desc">Temporary fictional demonstration project imagery for portfolio presentation only, not client work.</desc>
  <defs>
    <linearGradient id="bg_elysian_cover" x1="0" y1="0" x2="1" y2="1">
      <stop offset="0%" stop-color="#fffaf2"/>
      <stop offset="58%" stop-color="#f8f3eb"/>
      <stop offset="100%" stop-color="#ddd0bb"/>
    </linearGradient>
    <radialGradient id="light_elysian_cover" cx="74%" cy="18%" r="64%">
      <stop offset="0%" stop-color="#ffffff" stop-opacity="0.62"/>
      <stop offset="100%" stop-color="#ffffff" stop-opacity="0"/>
    </radialGradient>
  </defs>
  <style><![CDATA[
    .brand { font-family: Georgia, Georgia, serif; font-weight: 500; letter-spacing: .02em; }
    .body { font-family: Arial, Arial, sans-serif; font-weight: 500; }
    .micro { font-family: Arial, Arial, sans-serif; font-size: 20px; font-weight: 700; letter-spacing: .12em; }
  ]]></style>
  <rect width="1600" height="1100" fill="url(#bg_elysian_cover)"/>
  <rect width="1600" height="1100" fill="url(#light_elysian_cover)"/>
  <rect x="1496.01" y="91.67" width="13.1" height="1.52" rx="1" fill="#c99b93" opacity="0.06" transform="rotate(116.16 1496.01 91.67)"/><rect x="882.71" y="125.44" width="7.59" height="1.96" rx="1" fill="#2f332e" opacity="0.03" transform="rotate(133.68 882.71 125.44)"/><rect x="999.12" y="1041.97" width="15.39" height="1.59" rx="1" fill="#c99b93" opacity="0.07" transform="rotate(95.43 999.12 1041.97)"/><circle cx="1482.43" cy="48.71" r="1.6" fill="#2f332e" opacity="0.04"/><circle cx="956.01" cy="677.65" r="0.72" fill="#2f332e" opacity="0.04"/><circle cx="595.93" cy="856.03" r="1.47" fill="#c99b93" opacity="0.07"/><rect x="1262.92" y="502" width="8.63" height="1" rx="1" fill="#c99b93" opacity="0.05" transform="rotate(90.33 1262.92 502)"/><circle cx="1593.37" cy="807.66" r="2.24" fill="#c99b93" opacity="0.05"/><circle cx="863.38" cy="794.94" r="2.03" fill="#c99b93" opacity="0.08"/><circle cx="741.42" cy="41.59" r="0.91" fill="#2f332e" opacity="0.08"/><circle cx="839.71" cy="361.79" r="0.87" fill="#c99b93" opacity="0.06"/><rect x="17.68" y="428.91" width="19.24" height="1.92" rx="1" fill="#2f332e" opacity="0.06" transform="rotate(97.34 17.68 428.91)"/><rect x="284.61" y="199.35" width="27.36" height="1.68" rx="1" fill="#c99b93" opacity="0.07" transform="rotate(135.11 284.61 199.35)"/><rect x="1422.49" y="6.8" width="11.83" height="1.72" rx="1" fill="#c99b93" opacity="0.05" transform="rotate(49.74 1422.49 6.8)"/><rect x="736.64" y="310.17" width="8.27" height="2.44" rx="1" fill="#c99b93" opacity="0.06" transform="rotate(14.02 736.64 310.17)"/><rect x="972.31" y="472.65" width="9.33" height="2.21" rx="1" fill="#c99b93" opacity="0.07" transform="rotate(166.19 972.31 472.65)"/><rect x="1337.72" y="461.75" width="10.09" height="2.27" rx="1" fill="#c99b93" opacity="0.05" transform="rotate(172.23 1337.72 461.75)"/><rect x="794.56" y="873.26" width="27.2" height="1.53" rx="1" fill="#2f332e" opacity="0.03" transform="rotate(98.79 794.56 873.26)"/><rect x="62.08" y="825.22" width="7.84" height="1.41" rx="1" fill="#c99b93" opacity="0.08" transform="rotate(132.03 62.08 825.22)"/><circle cx="44.11" cy="1041.99" r="1.96" fill="#c99b93" opacity="0.03"/><rect x="24.11" y="481.58" width="18.37" height="0.9" rx="1" fill="#c99b93" opacity="0.03" transform="rotate(56.9 24.11 481.58)"/><rect x="525.62" y="366.48" width="9.68" height="1.21" rx="1" fill="#c99b93" opacity="0.05" transform="rotate(159.91 525.62 366.48)"/><rect x="1428.07" y="592.43" width="21.13" height="2.14" rx="1" fill="#c99b93" opacity="0.07" transform="rotate(113.77 1428.07 592.43)"/><rect x="855.95" y="245.93" width="12.71" height="2" rx="1" fill="#c99b93" opacity="0.07" transform="rotate(178.02 855.95 245.93)"/><rect x="1076.27" y="489.29" width="25.32" height="2.24" rx="1" fill="#2f332e" opacity="0.04" transform="rotate(38.9 1076.27 489.29)"/><circle cx="1016.73" cy="714.02" r="1.98" fill="#c99b93" opacity="0.03"/><rect x="132.1" y="760.99" width="26.08" height="2.47" rx="1" fill="#c99b93" opacity="0.04" transform="rotate(27.1 132.1 760.99)"/><rect x="196.81" y="538.37" width="10.28" height="0.97" rx="1" fill="#c99b93" opacity="0.03" transform="rotate(136.66 196.81 538.37)"/><rect x="410.84" y="495.92" width="15.7" height="0.84" rx="1" fill="#c99b93" opacity="0.05" transform="rotate(134.63 410.84 495.92)"/><circle cx="392.99" cy="121.53" r="1.99" fill="#2f332e" opacity="0.07"/><circle cx="556.23" cy="137.87" r="1.86" fill="#2f332e" opacity="0.04"/><rect x="507.13" y="1063.88" width="13.11" height="1.8" rx="1" fill="#2f332e" opacity="0.03" transform="rotate(26.26 507.13 1063.88)"/><circle cx="107.83" cy="76.69" r="0.9" fill="#c99b93" opacity="0.06"/><rect x="532.61" y="830.73" width="6.81" height="0.87" rx="1" fill="#c99b93" opacity="0.05" transform="rotate(105.32 532.61 830.73)"/><rect x="1331.55" y="929.76" width="11.29" height="2.45" rx="1" fill="#2f332e" opacity="0.03" transform="rotate(3.64 1331.55 929.76)"/><circle cx="986.24" cy="1014.84" r="1.54" fill="#2f332e" opacity="0.07"/><rect x="1005.44" y="1010.22" width="11.41" height="1.25" rx="1" fill="#2f332e" opacity="0.07" transform="rotate(119.52 1005.44 1010.22)"/><rect x="1183.87" y="400.54" width="21.55" height="1.09" rx="1" fill="#2f332e" opacity="0.03" transform="rotate(168.1 1183.87 400.54)"/><rect x="480.27" y="583.14" width="18.37" height="2.09" rx="1" fill="#c99b93" opacity="0.06" transform="rotate(103.44 480.27 583.14)"/><circle cx="331.65" cy="469.95" r="1.83" fill="#2f332e" opacity="0.05"/><rect x="45.61" y="461.87" width="14.83" height="1.8" rx="1" fill="#2f332e" opacity="0.07" transform="rotate(17.98 45.61 461.87)"/><circle cx="980.41" cy="895.1" r="1.27" fill="#c99b93" opacity="0.06"/><rect x="965.82" y="462.79" width="22.8" height="2.39" rx="1" fill="#2f332e" opacity="0.05" transform="rotate(103.66 965.82 462.79)"/><rect x="1052.92" y="527.18" width="9.72" height="1.88" rx="1" fill="#2f332e" opacity="0.05" transform="rotate(121.54 1052.92 527.18)"/><circle cx="973.24" cy="283.39" r="1.55" fill="#c99b93" opacity="0.07"/><rect x="689.47" y="877.65" width="21.22" height="2.17" rx="1" fill="#c99b93" opacity="0.07" transform="rotate(61.61 689.47 877.65)"/><circle cx="720.01" cy="49.91" r="2.07" fill="#2f332e" opacity="0.06"/><rect x="477.14" y="635.07" width="14.19" height="1.18" rx="1" fill="#2f332e" opacity="0.06" transform="rotate(71.33 477.14 635.07)"/><rect x="688.33" y="377.92" width="23.16" height="2.11" rx="1" fill="#2f332e" opacity="0.03" transform="rotate(119.14 688.33 377.92)"/><rect x="592.04" y="902.93" width="19.91" height="2.5" rx="1" fill="#2f332e" opacity="0.03" transform="rotate(165 592.04 902.93)"/><rect x="470.86" y="1041.06" width="21.9" height="2.22" rx="1" fill="#2f332e" opacity="0.07" transform="rotate(90.52 470.86 1041.06)"/><rect x="471.07" y="14.21" width="9.87" height="1.53" rx="1" fill="#2f332e" opacity="0.05" transform="rotate(70.21 471.07 14.21)"/><rect x="799.4" y="337.59" width="27.1" height="1.02" rx="1" fill="#2f332e" opacity="0.06" transform="rotate(136.45 799.4 337.59)"/><rect x="664.15" y="534.09" width="25.69" height="1.25" rx="1" fill="#c99b93" opacity="0.05" transform="rotate(157.72 664.15 534.09)"/><rect x="668.2" y="301.77" width="16.19" height="1.58" rx="1" fill="#2f332e" opacity="0.05" transform="rotate(10.03 668.2 301.77)"/><rect x="717.36" y="744.26" width="9.4" height="1.46" rx="1" fill="#c99b93" opacity="0.03" transform="rotate(146.36 717.36 744.26)"/><rect x="1174.45" y="126.26" width="14.43" height="1.25" rx="1" fill="#2f332e" opacity="0.05" transform="rotate(108.74 1174.45 126.26)"/><rect x="1007.21" y="935.1" width="16.13" height="1.19" rx="1" fill="#2f332e" opacity="0.08" transform="rotate(48.29 1007.21 935.1)"/><circle cx="886.73" cy="146.64" r="0.94" fill="#2f332e" opacity="0.04"/><rect x="332.12" y="987.04" width="6.1" height="1.88" rx="1" fill="#2f332e" opacity="0.07" transform="rotate(90.53 332.12 987.04)"/><circle cx="212.89" cy="1028.98" r="1.54" fill="#2f332e" opacity="0.07"/><rect x="1272.23" y="981.86" width="17.46" height="1.46" rx="1" fill="#c99b93" opacity="0.03" transform="rotate(144.7 1272.23 981.86)"/><rect x="242.95" y="685.01" width="11.4" height="1.92" rx="1" fill="#c99b93" opacity="0.06" transform="rotate(172.65 242.95 685.01)"/><rect x="1173.06" y="310.22" width="22.71" height="2.43" rx="1" fill="#c99b93" opacity="0.04" transform="rotate(110.7 1173.06 310.22)"/><rect x="372.92" y="655.05" width="11.96" height="0.87" rx="1" fill="#c99b93" opacity="0.03" transform="rotate(120.12 372.92 655.05)"/><rect x="855.83" y="1017.97" width="19.37" height="1.93" rx="1" fill="#c99b93" opacity="0.07" transform="rotate(143.8 855.83 1017.97)"/><circle cx="1256.77" cy="374.22" r="1.48" fill="#c99b93" opacity="0.06"/><circle cx="735.13" cy="1040.45" r="1.03" fill="#c99b93" opacity="0.03"/><rect x="492.17" y="813.72" width="14.67" height="0.95" rx="1" fill="#2f332e" opacity="0.05" transform="rotate(162.69 492.17 813.72)"/><circle cx="1487.39" cy="21.55" r="1.07" fill="#c99b93" opacity="0.05"/><rect x="382.73" y="836.51" width="21.01" height="0.99" rx="1" fill="#2f332e" opacity="0.04" transform="rotate(100.52 382.73 836.51)"/><circle cx="42.33" cy="90.5" r="0.74" fill="#2f332e" opacity="0.04"/><circle cx="1393.64" cy="129.46" r="1.67" fill="#c99b93" opacity="0.03"/><rect x="1252.41" y="679.24" width="24.39" height="2.39" rx="1" fill="#c99b93" opacity="0.03" transform="rotate(95.86 1252.41 679.24)"/><circle cx="1070.71" cy="587.95" r="1.83" fill="#2f332e" opacity="0.04"/><rect x="237.63" y="510.19" width="24.03" height="0.86" rx="1" fill="#c99b93" opacity="0.06" transform="rotate(72.59 237.63 510.19)"/><rect x="837" y="1035.28" width="9.89" height="2.3" rx="1" fill="#c99b93" opacity="0.03" transform="rotate(134.15 837 1035.28)"/><circle cx="364.76" cy="70.1" r="0.9" fill="#c99b93" opacity="0.03"/><circle cx="37.45" cy="150.37" r="1.51" fill="#c99b93" opacity="0.03"/><circle cx="869.98" cy="489.22" r="2.23" fill="#c99b93" opacity="0.05"/><rect x="276.32" y="1015.97" width="20.71" height="0.88" rx="1" fill="#c99b93" opacity="0.06" transform="rotate(14.7 276.32 1015.97)"/><circle cx="873.58" cy="657.42" r="1.21" fill="#2f332e" opacity="0.03"/><rect x="1578.09" y="468.37" width="23.38" height="1.97" rx="1" fill="#2f332e" opacity="0.05" transform="rotate(21.04 1578.09 468.37)"/><circle cx="572.22" cy="495.82" r="1.36" fill="#c99b93" opacity="0.05"/><rect x="658.97" y="52.31" width="27.48" height="1.99" rx="1" fill="#2f332e" opacity="0.07" transform="rotate(106.86 658.97 52.31)"/><circle cx="1503.16" cy="1076.44" r="0.98" fill="#c99b93" opacity="0.06"/><rect x="1126.13" y="101.26" width="25.91" height="1.13" rx="1" fill="#c99b93" opacity="0.04" transform="rotate(11.35 1126.13 101.26)"/><rect x="1180.49" y="955.17" width="14.63" height="2.1" rx="1" fill="#2f332e" opacity="0.03" transform="rotate(86.64 1180.49 955.17)"/><rect x="327.03" y="75.96" width="13.05" height="1.28" rx="1" fill="#c99b93" opacity="0.07" transform="rotate(142 327.03 75.96)"/><rect x="1201.49" y="992.82" width="20.27" height="1.89" rx="1" fill="#c99b93" opacity="0.03" transform="rotate(168.87 1201.49 992.82)"/><circle cx="129.65" cy="213.12" r="1.69" fill="#c99b93" opacity="0.06"/><rect x="286.66" y="517.07" width="22.11" height="2.32" rx="1" fill="#c99b93" opacity="0.07" transform="rotate(154.19 286.66 517.07)"/><rect x="282.33" y="760.79" width="15.78" height="1.25" rx="1" fill="#2f332e" opacity="0.08" transform="rotate(86.06 282.33 760.79)"/><rect x="621.79" y="948.68" width="7.17" height="1.93" rx="1" fill="#2f332e" opacity="0.05" transform="rotate(118.09 621.79 948.68)"/><rect x="282.29" y="234.35" width="8.46" height="2.35" rx="1" fill="#2f332e" opacity="0.07" transform="rotate(179.47 282.29 234.35)"/><rect x="305.46" y="1050.72" width="16.71" height="2.23" rx="1" fill="#2f332e" opacity="0.03" transform="rotate(177.07 305.46 1050.72)"/><circle cx="1219.19" cy="369.26" r="0.76" fill="#c99b93" opacity="0.05"/><circle cx="1109.95" cy="31.73" r="2.1" fill="#c99b93" opacity="0.03"/><rect x="187.46" y="418.77" width="9.85" height="1.18" rx="1" fill="#2f332e" opacity="0.07" transform="rotate(60.02 187.46 418.77)"/><rect x="211.36" y="138.51" width="17.37" height="1.1" rx="1" fill="#2f332e" opacity="0.08" transform="rotate(168.6 211.36 138.51)"/><rect x="852.86" y="522.42" width="27.77" height="1.28" rx="1" fill="#c99b93" opacity="0.05" transform="rotate(77.69 852.86 522.42)"/><rect x="838.53" y="176.25" width="21.78" height="1" rx="1" fill="#c99b93" opacity="0.08" transform="rotate(29.32 838.53 176.25)"/><rect x="1229.78" y="822.04" width="19.8" height="1.8" rx="1" fill="#c99b93" opacity="0.04" transform="rotate(137.39 1229.78 822.04)"/><rect x="1313.64" y="302.64" width="11.35" height="2.45" rx="1" fill="#c99b93" opacity="0.04" transform="rotate(95.27 1313.64 302.64)"/><rect x="1351.73" y="825.29" width="25.24" height="2.37" rx="1" fill="#c99b93" opacity="0.05" transform="rotate(13.32 1351.73 825.29)"/><rect x="271.73" y="781.98" width="15.98" height="1.25" rx="1" fill="#2f332e" opacity="0.05" transform="rotate(90.43 271.73 781.98)"/><circle cx="157.09" cy="741.21" r="1.46" fill="#c99b93" opacity="0.05"/><rect x="790.46" y="284.53" width="26.16" height="1.01" rx="1" fill="#2f332e" opacity="0.06" transform="rotate(83.35 790.46 284.53)"/><circle cx="617.96" cy="663.67" r="0.82" fill="#2f332e" opacity="0.04"/><rect x="1141.54" y="786.72" width="6.45" height="1.78" rx="1" fill="#2f332e" opacity="0.03" transform="rotate(157.89 1141.54 786.72)"/><rect x="5.79" y="351.77" width="19.7" height="2.49" rx="1" fill="#c99b93" opacity="0.04" transform="rotate(89.08 5.79 351.77)"/><circle cx="1567.25" cy="832.88" r="1.9" fill="#2f332e" opacity="0.04"/><rect x="1523.72" y="22.68" width="20.38" height="1.99" rx="1" fill="#2f332e" opacity="0.06" transform="rotate(82.8 1523.72 22.68)"/><circle cx="1288.59" cy="167.11" r="0.93" fill="#c99b93" opacity="0.07"/><circle cx="1187.41" cy="2.34" r="1.12" fill="#c99b93" opacity="0.04"/><rect x="1454.63" y="432.41" width="27.59" height="1.01" rx="1" fill="#c99b93" opacity="0.06" transform="rotate(155.05 1454.63 432.41)"/><rect x="377.69" y="56.81" width="24.77" height="1.51" rx="1" fill="#c99b93" opacity="0.04" transform="rotate(113.04 377.69 56.81)"/><rect x="883.53" y="316.15" width="27.51" height="1.85" rx="1" fill="#2f332e" opacity="0.07" transform="rotate(76.48 883.53 316.15)"/><rect x="815.44" y="745.68" width="25.49" height="1.84" rx="1" fill="#c99b93" opacity="0.06" transform="rotate(114.45 815.44 745.68)"/><rect x="1186.75" y="628.71" width="24.51" height="1.74" rx="1" fill="#2f332e" opacity="0.03" transform="rotate(69.93 1186.75 628.71)"/><circle cx="1494.43" cy="1074.5" r="1.84" fill="#c99b93" opacity="0.04"/><rect x="550.86" y="874.58" width="25.39" height="1.96" rx="1" fill="#2f332e" opacity="0.08" transform="rotate(94.86 550.86 874.58)"/><rect x="1307.24" y="34.59" width="20.98" height="0.98" rx="1" fill="#c99b93" opacity="0.05" transform="rotate(39.47 1307.24 34.59)"/><rect x="1020.34" y="1097.85" width="22.91" height="1.96" rx="1" fill="#2f332e" opacity="0.04" transform="rotate(176.64 1020.34 1097.85)"/><rect x="717.85" y="994.79" width="18.84" height="2.19" rx="1" fill="#c99b93" opacity="0.03" transform="rotate(143.99 717.85 994.79)"/><rect x="957.98" y="1026.71" width="17.69" height="1.58" rx="1" fill="#c99b93" opacity="0.05" transform="rotate(0.4 957.98 1026.71)"/><circle cx="98.35" cy="848.77" r="0.74" fill="#2f332e" opacity="0.07"/><rect x="272.66" y="1089.54" width="26.42" height="0.85" rx="1" fill="#c99b93" opacity="0.08" transform="rotate(48.5 272.66 1089.54)"/><rect x="216.45" y="151.01" width="14.72" height="1.6" rx="1" fill="#2f332e" opacity="0.04" transform="rotate(85.14 216.45 151.01)"/><circle cx="578.51" cy="814.09" r="2.19" fill="#c99b93" opacity="0.04"/><circle cx="2.56" cy="36.5" r="1.25" fill="#2f332e" opacity="0.03"/><rect x="237.24" y="814.17" width="19.47" height="1.53" rx="1" fill="#2f332e" opacity="0.04" transform="rotate(172.51 237.24 814.17)"/><rect x="1136.69" y="683.43" width="18.88" height="1.14" rx="1" fill="#c99b93" opacity="0.07" transform="rotate(78.47 1136.69 683.43)"/><rect x="341.29" y="711.74" width="27.63" height="2.18" rx="1" fill="#c99b93" opacity="0.06" transform="rotate(155.47 341.29 711.74)"/><rect x="521.7" y="726.59" width="10.4" height="1.44" rx="1" fill="#2f332e" opacity="0.07" transform="rotate(48.91 521.7 726.59)"/><rect x="303.24" y="98.38" width="18.52" height="0.86" rx="1" fill="#c99b93" opacity="0.03" transform="rotate(5.11 303.24 98.38)"/><rect x="840.4" y="1098.12" width="14.59" height="1.75" rx="1" fill="#2f332e" opacity="0.04" transform="rotate(132.26 840.4 1098.12)"/><rect x="1156.17" y="615.57" width="14.54" height="1.43" rx="1" fill="#c99b93" opacity="0.06" transform="rotate(87.32 1156.17 615.57)"/><rect x="1235.24" y="639.36" width="11.29" height="1.66" rx="1" fill="#c99b93" opacity="0.06" transform="rotate(174.73 1235.24 639.36)"/><circle cx="115.5" cy="630.52" r="1.77" fill="#2f332e" opacity="0.05"/>
  <circle cx="1350" cy="178" r="184" fill="#c99b93" opacity="0.06"/>
  <circle cx="220" cy="894" r="220" fill="#8e997f" opacity="0.08"/>
  <g transform="rotate(-7 555 500)">
    <ellipse cx="575" cy="797.4" rx="206.7" ry="59" fill="#1f211d" opacity="0.14"/>
    <rect x="360" y="205" width="390" height="590" rx="6" fill="#fffaf2"/>
    <text x="391.2" y="293.5" class="brand" fill="#2f332e" font-size="58.5">ELYSIAN</text>
    <rect x="391.2" y="334.8" width="327.6" height="247.8" rx="4" fill="#ddd0bb"/>
    <path d="M 406.8 541.3 C 484.8 452.8, 555 623.9, 695.4 435.1" fill="none" stroke="#fffaf2" stroke-width="6" opacity="0.72"/>
    <text x="391.2" y="635.7" class="micro" fill="#2f332e" opacity="0.7">ISSUE 01</text>
    <rect x="391.2" y="677" width="91.88" height="3" rx="2" fill="#2f332e" opacity="0.42"/><rect x="391.2" y="699" width="137.83" height="2" rx="2" fill="#2f332e" opacity="0.22"/><rect x="391.2" y="721" width="183.77" height="2" rx="2" fill="#2f332e" opacity="0.22"/><rect x="391.2" y="743" width="103.97" height="2" rx="2" fill="#2f332e" opacity="0.22"/>
  </g><g transform="rotate(6 1028 535)">
    <ellipse cx="1046" cy="720" rx="296.8" ry="35" fill="#1f211d" opacity="0.12"/>
    <rect x="748" y="360" width="560" height="350" rx="6" fill="#fffaf2"/>
    <rect x="1027" y="384" width="2" height="302" fill="#2f332e" opacity="0.12"/>
    <rect x="1060" y="400" width="210" height="270" rx="4" fill="#ddd0bb"/>
    <path d="M 1078 577 C 1110.4 514, 1166.4 615.5, 1272.8 479" fill="none" stroke="#fffaf2" stroke-width="5" opacity="0.72"/>
    <text x="792" y="448" class="brand" fill="#2f332e" font-size="30.8">CULTURE</text>
    <rect x="792" y="498" width="72.2" height="3" rx="2" fill="#2f332e" opacity="0.42"/><rect x="792" y="520" width="108.3" height="2" rx="2" fill="#2f332e" opacity="0.22"/><rect x="792" y="542" width="144.4" height="2" rx="2" fill="#2f332e" opacity="0.22"/><rect x="792" y="564" width="81.7" height="2" rx="2" fill="#2f332e" opacity="0.22"/><rect x="792" y="586" width="117.8" height="2" rx="2" fill="#2f332e" opacity="0.22"/><rect x="792" y="608" width="153.9" height="2" rx="2" fill="#2f332e" opacity="0.22"/><rect x="792" y="630" width="91.2" height="2" rx="2" fill="#2f332e" opacity="0.22"/><rect x="792" y="652" width="127.3" height="2" rx="2" fill="#2f332e" opacity="0.22"/><rect x="792" y="674" width="163.4" height="2" rx="2" fill="#2f332e" opacity="0.22"/>
  </g><g transform="rotate(-5 1165 775)">
    <ellipse cx="1181" cy="874.6" rx="132.5" ry="16" fill="#1f211d" opacity="0.11"/>
    <rect x="1040" y="695" width="250" height="160" rx="10" fill="#fffaf2"/>
    <rect x="1058" y="713" width="214" height="124" rx="5" fill="none" stroke="#2f332e" stroke-opacity="0.11"/>
    <rect x="1074" y="737" width="55" height="4" rx="2" fill="#c99b93" opacity="0.84"/>
    <text x="1074" y="749.4" class="brand" fill="#2f332e" font-size="30">PRINT</text>
    <text x="1076" y="783.4" class="micro" fill="#2f332e" opacity="0.65">INSERT</text>
    <rect x="1076" y="787.8" width="68.4" height="3" rx="2" fill="#2f332e" opacity="0.42"/><rect x="1076" y="809.8" width="102.6" height="2" rx="2" fill="#2f332e" opacity="0.22"/>
    
  </g>
  <g opacity="0.72"><text x="78" y="1004" class="micro" fill="#2f332e">CULTURE MAGAZINE SYSTEM</text><text x="78" y="1036" class="micro" fill="#2f332e" opacity="0.55">TEMPORARY DEMONSTRATION PORTFOLIO VISUAL / COVER</text></g>
</svg>
