<?xml version="1.0" encoding="UTF-8"?>
<svg xmlns="http://www.w3.org/2000/svg" width="1600" height="1100" viewBox="0 0 1600 1100" role="img" aria-labelledby="title desc">
  <title id="title">ELYSIAN gallery-1 demo portfolio mockup</title>
  <desc id="desc">Temporary fictional demonstration project imagery for portfolio presentation only, not client work.</desc>
  <defs>
    <linearGradient id="bg_elysian_gallery_1" x1="0" y1="0" x2="1" y2="1">
      <stop offset="0%" stop-color="#fffaf2"/>
      <stop offset="58%" stop-color="#f8f3eb"/>
      <stop offset="100%" stop-color="#ddd0bb"/>
    </linearGradient>
    <radialGradient id="light_elysian_gallery_1" cx="74%" cy="18%" r="64%">
      <stop offset="0%" stop-color="#ffffff" stop-opacity="0.62"/>
      <stop offset="100%" stop-color="#ffffff" stop-opacity="0"/>
    </radialGradient>
  </defs>
  <style><![CDATA[
    .brand { font-family: Georgia, Georgia, serif; font-weight: 500; letter-spacing: .02em; }
    .body { font-family: Arial, Arial, sans-serif; font-weight: 500; }
    .micro { font-family: Arial, Arial, sans-serif; font-size: 20px; font-weight: 700; letter-spacing: .12em; }
  ]]></style>
  <rect width="1600" height="1100" fill="url(#bg_elysian_gallery_1)"/>
  <rect width="1600" height="1100" fill="url(#light_elysian_gallery_1)"/>
  <rect x="1533.16" y="939.1" width="19.71" height="1.15" rx="1" fill="#c99b93" opacity="0.03" transform="rotate(100.26 1533.16 939.1)"/><circle cx="222.83" cy="116.18" r="2.23" fill="#c99b93" opacity="0.07"/><rect x="1463.24" y="727.29" width="27.82" height="1.39" rx="1" fill="#2f332e" opacity="0.07" transform="rotate(62.01 1463.24 727.29)"/><rect x="1332.83" y="11.67" width="23.93" height="2.16" rx="1" fill="#c99b93" opacity="0.03" transform="rotate(81.01 1332.83 11.67)"/><circle cx="1443.16" cy="985.17" r="0.8" fill="#2f332e" opacity="0.07"/><rect x="499.4" y="59.53" width="15.3" height="1.28" rx="1" fill="#c99b93" opacity="0.04" transform="rotate(68.14 499.4 59.53)"/><rect x="576.61" y="99.99" width="10.33" height="2.09" rx="1" fill="#c99b93" opacity="0.03" transform="rotate(83.84 576.61 99.99)"/><rect x="225.51" y="1039.64" width="11.97" height="1.84" rx="1" fill="#c99b93" opacity="0.03" transform="rotate(49.79 225.51 1039.64)"/><rect x="19.79" y="679.91" width="23.52" height="1.27" rx="1" fill="#c99b93" opacity="0.05" transform="rotate(105.23 19.79 679.91)"/><rect x="896.98" y="98.16" width="21" height="1.96" rx="1" fill="#2f332e" opacity="0.04" transform="rotate(80.69 896.98 98.16)"/><rect x="314.12" y="952.87" width="17.43" height="1.2" rx="1" fill="#c99b93" opacity="0.08" transform="rotate(175.06 314.12 952.87)"/><rect x="1033.05" y="333.43" width="23.61" height="2.01" rx="1" fill="#2f332e" opacity="0.06" transform="rotate(23.74 1033.05 333.43)"/><rect x="476.91" y="191.49" width="6.53" height="0.88" rx="1" fill="#c99b93" opacity="0.08" transform="rotate(74.42 476.91 191.49)"/><circle cx="1329.02" cy="983.21" r="2.01" fill="#2f332e" opacity="0.06"/><rect x="14.09" y="312.62" width="15.43" height="2.15" rx="1" fill="#c99b93" opacity="0.04" transform="rotate(111.93 14.09 312.62)"/><rect x="1112.84" y="1028.73" width="17.91" height="1.56" rx="1" fill="#2f332e" opacity="0.08" transform="rotate(107.64 1112.84 1028.73)"/><rect x="259.1" y="294.81" width="27.52" height="0.83" rx="1" fill="#c99b93" opacity="0.05" transform="rotate(11.71 259.1 294.81)"/><rect x="1158.85" y="903.63" width="8.6" height="2.01" rx="1" fill="#c99b93" opacity="0.08" transform="rotate(96.73 1158.85 903.63)"/><rect x="1391.3" y="789.66" width="19.6" height="2.04" rx="1" fill="#2f332e" opacity="0.06" transform="rotate(24.39 1391.3 789.66)"/><rect x="78" y="145.15" width="18.34" height="1.8" rx="1" fill="#c99b93" opacity="0.07" transform="rotate(29.74 78 145.15)"/><rect x="1305.15" y="396.57" width="24.55" height="1.1" rx="1" fill="#2f332e" opacity="0.07" transform="rotate(151.79 1305.15 396.57)"/><rect x="775.02" y="28.93" width="25.44" height="0.99" rx="1" fill="#2f332e" opacity="0.06" transform="rotate(87.45 775.02 28.93)"/><rect x="940.84" y="105.75" width="26.01" height="1.66" rx="1" fill="#2f332e" opacity="0.06" transform="rotate(93.51 940.84 105.75)"/><rect x="5.3" y="678.47" width="12.77" height="2.52" rx="1" fill="#2f332e" opacity="0.03" transform="rotate(118.79 5.3 678.47)"/><rect x="1140.36" y="667.35" width="16.48" height="1.01" rx="1" fill="#c99b93" opacity="0.04" transform="rotate(163.19 1140.36 667.35)"/><circle cx="140.25" cy="810.4" r="1.04" fill="#c99b93" opacity="0.04"/><rect x="1208.59" y="712.08" width="26.49" height="1.8" rx="1" fill="#2f332e" opacity="0.04" transform="rotate(96.72 1208.59 712.08)"/><rect x="1270.73" y="573.27" width="9.04" height="2.03" rx="1" fill="#2f332e" opacity="0.05" transform="rotate(37.74 1270.73 573.27)"/><rect x="973.62" y="905.59" width="26.49" height="1.87" rx="1" fill="#c99b93" opacity="0.07" transform="rotate(27.78 973.62 905.59)"/><rect x="909.3" y="981.99" width="6.19" height="0.87" rx="1" fill="#2f332e" opacity="0.03" transform="rotate(107.99 909.3 981.99)"/><circle cx="146.31" cy="500.19" r="1.22" fill="#2f332e" opacity="0.05"/><circle cx="1032.58" cy="964.98" r="1.24" fill="#2f332e" opacity="0.04"/><circle cx="1425.61" cy="884.65" r="0.98" fill="#2f332e" opacity="0.06"/><circle cx="384.87" cy="610.64" r="1.44" fill="#c99b93" opacity="0.06"/><rect x="665.91" y="15.76" width="6.22" height="1.08" rx="1" fill="#c99b93" opacity="0.07" transform="rotate(106.36 665.91 15.76)"/><circle cx="1171.5" cy="948.42" r="1.1" fill="#c99b93" opacity="0.06"/><rect x="180.66" y="947.44" width="10.24" height="0.8" rx="1" fill="#2f332e" opacity="0.04" transform="rotate(36.74 180.66 947.44)"/><rect x="327.04" y="109.17" width="22.91" height="1.72" rx="1" fill="#c99b93" opacity="0.06" transform="rotate(172.44 327.04 109.17)"/><circle cx="1244.05" cy="481.46" r="2.27" fill="#2f332e" opacity="0.03"/><rect x="33.33" y="177.5" width="24.79" height="2.12" rx="1" fill="#2f332e" opacity="0.05" transform="rotate(100.74 33.33 177.5)"/><rect x="1421.68" y="991.04" width="19.15" height="1.91" rx="1" fill="#c99b93" opacity="0.06" transform="rotate(12.11 1421.68 991.04)"/><circle cx="482.16" cy="359.54" r="1.6" fill="#c99b93" opacity="0.03"/><rect x="468.26" y="536.05" width="14.6" height="1.4" rx="1" fill="#c99b93" opacity="0.04" transform="rotate(154.39 468.26 536.05)"/><rect x="173.37" y="494.04" width="22.93" height="1.31" rx="1" fill="#2f332e" opacity="0.03" transform="rotate(94.59 173.37 494.04)"/><rect x="1344.46" y="377.63" width="14.33" height="2.05" rx="1" fill="#c99b93" opacity="0.04" transform="rotate(14.95 1344.46 377.63)"/><circle cx="1006.85" cy="344.46" r="2.15" fill="#2f332e" opacity="0.07"/><rect x="959.69" y="41.32" width="12.69" height="1.98" rx="1" fill="#c99b93" opacity="0.03" transform="rotate(31.6 959.69 41.32)"/><rect x="1175.77" y="1080.06" width="11.26" height="2.37" rx="1" fill="#2f332e" opacity="0.07" transform="rotate(81.98 1175.77 1080.06)"/><rect x="516.09" y="66.97" width="20.89" height="1.19" rx="1" fill="#c99b93" opacity="0.06" transform="rotate(69.78 516.09 66.97)"/><rect x="309.49" y="883.74" width="19.42" height="2.21" rx="1" fill="#2f332e" opacity="0.05" transform="rotate(85.15 309.49 883.74)"/><circle cx="1159.57" cy="674.45" r="1.3" fill="#2f332e" opacity="0.08"/><rect x="1576.8" y="155.93" width="12.78" height="2.2" rx="1" fill="#c99b93" opacity="0.06" transform="rotate(55.47 1576.8 155.93)"/><rect x="807.84" y="597.61" width="16.4" height="1.33" rx="1" fill="#2f332e" opacity="0.03" transform="rotate(26.58 807.84 597.61)"/><rect x="563.85" y="866.56" width="13.34" height="2.06" rx="1" fill="#2f332e" opacity="0.07" transform="rotate(154.39 563.85 866.56)"/><rect x="1404.8" y="286.94" width="11.27" height="1.36" rx="1" fill="#2f332e" opacity="0.05" transform="rotate(152.12 1404.8 286.94)"/><rect x="368.95" y="392.95" width="25.2" height="0.81" rx="1" fill="#2f332e" opacity="0.04" transform="rotate(11.34 368.95 392.95)"/><rect x="261.89" y="516.04" width="7.2" height="2.35" rx="1" fill="#c99b93" opacity="0.05" transform="rotate(25.46 261.89 516.04)"/><rect x="872.25" y="928.8" width="17.13" height="2.49" rx="1" fill="#2f332e" opacity="0.04" transform="rotate(141.34 872.25 928.8)"/><rect x="1065.13" y="477.33" width="25.16" height="1.45" rx="1" fill="#c99b93" opacity="0.05" transform="rotate(135.34 1065.13 477.33)"/><rect x="216.41" y="52.15" width="15.62" height="1.62" rx="1" fill="#c99b93" opacity="0.07" transform="rotate(20.44 216.41 52.15)"/><rect x="1062.59" y="230.67" width="6.3" height="1.88" rx="1" fill="#c99b93" opacity="0.03" transform="rotate(16.02 1062.59 230.67)"/><rect x="357" y="922.67" width="22.36" height="1.49" rx="1" fill="#c99b93" opacity="0.07" transform="rotate(48.9 357 922.67)"/><circle cx="191.79" cy="754.75" r="0.75" fill="#c99b93" opacity="0.04"/><circle cx="637.61" cy="414.57" r="1.17" fill="#c99b93" opacity="0.07"/><rect x="359.07" y="907.74" width="16.61" height="1.99" rx="1" fill="#2f332e" opacity="0.06" transform="rotate(96.35 359.07 907.74)"/><rect x="982.61" y="186.58" width="10.93" height="1.54" rx="1" fill="#2f332e" opacity="0.07" transform="rotate(74.24 982.61 186.58)"/><circle cx="1564.87" cy="602.71" r="1.4" fill="#2f332e" opacity="0.03"/><circle cx="481.9" cy="1090.24" r="1.16" fill="#c99b93" opacity="0.04"/><circle cx="630.66" cy="793.72" r="1.5" fill="#c99b93" opacity="0.07"/><circle cx="859.03" cy="575.67" r="1.26" fill="#2f332e" opacity="0.06"/><rect x="1068.28" y="39.96" width="26.82" height="2.06" rx="1" fill="#c99b93" opacity="0.05" transform="rotate(73.09 1068.28 39.96)"/><rect x="982.06" y="1004.62" width="10.52" height="0.88" rx="1" fill="#c99b93" opacity="0.04" transform="rotate(122.92 982.06 1004.62)"/><rect x="179.84" y="904.54" width="12.3" height="1.08" rx="1" fill="#c99b93" opacity="0.06" transform="rotate(19.51 179.84 904.54)"/><rect x="1385.36" y="209.99" width="13.39" height="2.44" rx="1" fill="#c99b93" opacity="0.06" transform="rotate(149.61 1385.36 209.99)"/><circle cx="917.78" cy="536.67" r="2.09" fill="#c99b93" opacity="0.06"/><rect x="1436.94" y="510.42" width="10.3" height="1.98" rx="1" fill="#c99b93" opacity="0.07" transform="rotate(167.51 1436.94 510.42)"/><circle cx="874.18" cy="562.04" r="1.64" fill="#2f332e" opacity="0.06"/><rect x="452.19" y="780.99" width="13.84" height="2.46" rx="1" fill="#c99b93" opacity="0.06" transform="rotate(94.36 452.19 780.99)"/><rect x="1339.96" y="795.34" width="27.49" height="0.8" rx="1" fill="#c99b93" opacity="0.04" transform="rotate(90.48 1339.96 795.34)"/><rect x="740.11" y="288" width="21.69" height="1.19" rx="1" fill="#2f332e" opacity="0.07" transform="rotate(164.71 740.11 288)"/><rect x="1502.09" y="806.76" width="11.77" height="1.57" rx="1" fill="#c99b93" opacity="0.07" transform="rotate(133.85 1502.09 806.76)"/><rect x="1324.64" y="16.17" width="19.83" height="1.58" rx="1" fill="#2f332e" opacity="0.07" transform="rotate(55.89 1324.64 16.17)"/><rect x="429.02" y="498.29" width="11.38" height="2.43" rx="1" fill="#2f332e" opacity="0.07" transform="rotate(34.33 429.02 498.29)"/><rect x="1582.57" y="494.83" width="26.69" height="1.66" rx="1" fill="#2f332e" opacity="0.03" transform="rotate(71.07 1582.57 494.83)"/><circle cx="1218.5" cy="593.71" r="1.3" fill="#c99b93" opacity="0.03"/><rect x="782.25" y="85.75" width="23.64" height="2.18" rx="1" fill="#2f332e" opacity="0.07" transform="rotate(164.56 782.25 85.75)"/><circle cx="35.96" cy="436.03" r="0.98" fill="#2f332e" opacity="0.07"/><rect x="740.94" y="374.1" width="13.32" height="2.57" rx="1" fill="#c99b93" opacity="0.04" transform="rotate(11.74 740.94 374.1)"/><rect x="508.9" y="593.41" width="21.6" height="1.35" rx="1" fill="#c99b93" opacity="0.06" transform="rotate(79.25 508.9 593.41)"/><circle cx="421.13" cy="970.44" r="2.01" fill="#c99b93" opacity="0.08"/><rect x="674.9" y="890.49" width="11.72" height="1.63" rx="1" fill="#2f332e" opacity="0.05" transform="rotate(83.89 674.9 890.49)"/><circle cx="950.2" cy="251.28" r="2.03" fill="#2f332e" opacity="0.06"/><rect x="248.33" y="616.35" width="11.73" height="0.89" rx="1" fill="#2f332e" opacity="0.03" transform="rotate(140.2 248.33 616.35)"/><circle cx="1392.71" cy="883.39" r="2.18" fill="#2f332e" opacity="0.04"/><rect x="171.89" y="186.36" width="9.14" height="0.98" rx="1" fill="#2f332e" opacity="0.05" transform="rotate(45.37 171.89 186.36)"/><circle cx="1156.36" cy="984.12" r="1.46" fill="#c99b93" opacity="0.06"/><circle cx="632.71" cy="1095.26" r="2.21" fill="#c99b93" opacity="0.05"/><rect x="210.86" y="1057.23" width="23.3" height="0.86" rx="1" fill="#c99b93" opacity="0.04" transform="rotate(10.62 210.86 1057.23)"/><circle cx="861.87" cy="901.66" r="0.88" fill="#c99b93" opacity="0.06"/><circle cx="286.55" cy="283.37" r="0.9" fill="#c99b93" opacity="0.04"/><rect x="1009.96" y="38.77" width="8.23" height="0.92" rx="1" fill="#c99b93" opacity="0.04" transform="rotate(136.36 1009.96 38.77)"/><rect x="626.95" y="537.22" width="9.21" height="1.82" rx="1" fill="#2f332e" opacity="0.08" transform="rotate(100.7 626.95 537.22)"/><rect x="1096.74" y="502.71" width="25.17" height="1.09" rx="1" fill="#2f332e" opacity="0.05" transform="rotate(122.95 1096.74 502.71)"/><rect x="663.43" y="539.4" width="13.28" height="1.91" rx="1" fill="#c99b93" opacity="0.06" transform="rotate(14.56 663.43 539.4)"/><rect x="1588.61" y="499.08" width="26.39" height="1.35" rx="1" fill="#2f332e" opacity="0.05" transform="rotate(130.23 1588.61 499.08)"/><rect x="966.9" y="622.2" width="23.48" height="1.27" rx="1" fill="#c99b93" opacity="0.05" transform="rotate(123.35 966.9 622.2)"/><rect x="464.23" y="450.36" width="16.06" height="1.12" rx="1" fill="#2f332e" opacity="0.03" transform="rotate(121.29 464.23 450.36)"/><circle cx="1254.38" cy="612.12" r="0.91" fill="#2f332e" opacity="0.06"/><circle cx="292.36" cy="673.66" r="0.74" fill="#c99b93" opacity="0.03"/><rect x="486.63" y="530.89" width="11.15" height="1.59" rx="1" fill="#c99b93" opacity="0.03" transform="rotate(63.36 486.63 530.89)"/><rect x="1379.59" y="781.17" width="15.01" height="2.28" rx="1" fill="#2f332e" opacity="0.08" transform="rotate(129.98 1379.59 781.17)"/><circle cx="364.18" cy="664.37" r="1.01" fill="#2f332e" opacity="0.06"/><rect x="957.93" y="862.19" width="9.11" height="1.07" rx="1" fill="#c99b93" opacity="0.06" transform="rotate(85.03 957.93 862.19)"/><circle cx="737.91" cy="473.8" r="1.4" fill="#c99b93" opacity="0.06"/><rect x="547.12" y="693.54" width="15.79" height="2.18" rx="1" fill="#2f332e" opacity="0.03" transform="rotate(34.17 547.12 693.54)"/><circle cx="628.22" cy="152.97" r="1.52" fill="#c99b93" opacity="0.03"/><circle cx="580.64" cy="297.74" r="0.85" fill="#2f332e" opacity="0.04"/><rect x="620.94" y="640.75" width="13.28" height="1.37" rx="1" fill="#2f332e" opacity="0.04" transform="rotate(76.28 620.94 640.75)"/><circle cx="973.56" cy="322.2" r="1.02" fill="#2f332e" opacity="0.08"/><rect x="1055.79" y="154.14" width="27.47" height="2.14" rx="1" fill="#2f332e" opacity="0.06" transform="rotate(66.69 1055.79 154.14)"/><circle cx="574.92" cy="971.56" r="2.1" fill="#2f332e" opacity="0.06"/><circle cx="188.53" cy="405.5" r="1.18" fill="#c99b93" opacity="0.03"/><circle cx="731.66" cy="364.62" r="2.17" fill="#c99b93" opacity="0.06"/><rect x="1102.04" y="131.52" width="14.25" height="1.14" rx="1" fill="#c99b93" opacity="0.06" transform="rotate(43.22 1102.04 131.52)"/><rect x="1139.53" y="710.05" width="18.86" height="2.49" rx="1" fill="#c99b93" opacity="0.08" transform="rotate(102.14 1139.53 710.05)"/><circle cx="586.88" cy="296.73" r="1.51" fill="#2f332e" opacity="0.05"/><rect x="1455.23" y="392.78" width="23.32" height="2.36" rx="1" fill="#c99b93" opacity="0.06" transform="rotate(29.98 1455.23 392.78)"/><rect x="1399.03" y="175.57" width="15.3" height="1.74" rx="1" fill="#c99b93" opacity="0.03" transform="rotate(98.5 1399.03 175.57)"/><rect x="1576.4" y="107.18" width="23.38" height="2.42" rx="1" fill="#2f332e" opacity="0.04" transform="rotate(14.48 1576.4 107.18)"/><circle cx="943.64" cy="1056.01" r="0.78" fill="#2f332e" opacity="0.03"/><rect x="1401.73" y="921.72" width="8.72" height="1.89" rx="1" fill="#2f332e" opacity="0.07" transform="rotate(55.35 1401.73 921.72)"/><rect x="783.3" y="886.05" width="20.72" height="2.1" rx="1" fill="#2f332e" opacity="0.06" transform="rotate(23.98 783.3 886.05)"/><rect x="232.84" y="612.19" width="16.3" height="1.76" rx="1" fill="#c99b93" opacity="0.04" transform="rotate(16.35 232.84 612.19)"/><circle cx="686.11" cy="897.91" r="1.06" fill="#2f332e" opacity="0.05"/><rect x="1389.37" y="298.42" width="27.94" height="2.24" rx="1" fill="#c99b93" opacity="0.06" transform="rotate(45.61 1389.37 298.42)"/><rect x="980.78" y="1095.54" width="11.25" height="1.46" rx="1" fill="#c99b93" opacity="0.03" transform="rotate(3.62 980.78 1095.54)"/><circle cx="766.92" cy="511.74" r="1.41" fill="#2f332e" opacity="0.07"/><circle cx="746.59" cy="399.53" r="0.99" fill="#2f332e" opacity="0.07"/><rect x="681.54" y="1076.58" width="24.18" height="2.3" rx="1" fill="#2f332e" opacity="0.05" transform="rotate(47.67 681.54 1076.58)"/><circle cx="535.41" cy="96.46" r="1.61" fill="#c99b93" opacity="0.06"/>
  <circle cx="1350" cy="178" r="184" fill="#c99b93" opacity="0.06"/>
  <circle cx="220" cy="894" r="220" fill="#8e997f" opacity="0.08"/>
  <g transform="rotate(-2 715 510)">
    <ellipse cx="733" cy="791.6" rx="492.9" ry="56" fill="#1f211d" opacity="0.12"/>
    <rect x="250" y="230" width="930" height="560" rx="6" fill="#fffaf2"/>
    <rect x="714" y="254" width="2" height="512" fill="#2f332e" opacity="0.12"/>
    <rect x="282" y="270" width="395" height="480" rx="4" fill="#ddd0bb"/>
    <path d="M 300 577.2 C 365.7 476.4, 458.7 638.8, 635.4 420.4" fill="none" stroke="#fffaf2" stroke-width="5" opacity="0.72"/>
    <text x="759" y="318" class="brand" fill="#2f332e" font-size="51.15">FEATURE OPENER</text>
    <rect x="759" y="368" width="142.5" height="3" rx="2" fill="#2f332e" opacity="0.42"/><rect x="759" y="390" width="213.75" height="2" rx="2" fill="#2f332e" opacity="0.22"/><rect x="759" y="412" width="285" height="2" rx="2" fill="#2f332e" opacity="0.22"/><rect x="759" y="434" width="161.25" height="2" rx="2" fill="#2f332e" opacity="0.22"/><rect x="759" y="456" width="232.5" height="2" rx="2" fill="#2f332e" opacity="0.22"/><rect x="759" y="478" width="303.75" height="2" rx="2" fill="#2f332e" opacity="0.22"/><rect x="759" y="500" width="180" height="2" rx="2" fill="#2f332e" opacity="0.22"/><rect x="759" y="522" width="251.25" height="2" rx="2" fill="#2f332e" opacity="0.22"/><rect x="759" y="544" width="322.5" height="2" rx="2" fill="#2f332e" opacity="0.22"/>
  </g><g transform="rotate(8 1165 705)">
    <ellipse cx="1185" cy="878.2" rx="121.9" ry="32" fill="#1f211d" opacity="0.14"/>
    <rect x="1050" y="545" width="230" height="320" rx="6" fill="#fffaf2"/>
    <text x="1068.4" y="593" class="brand" fill="#2f332e" font-size="34.5">01</text>
    <rect x="1068.4" y="615.4" width="193.2" height="134.4" rx="4" fill="#c99b93"/>
    <path d="M 1077.6 727.4 C 1123.6 679.4, 1165 772.2, 1247.8 669.8" fill="none" stroke="#fffaf2" stroke-width="6" opacity="0.72"/>
    <text x="1068.4" y="778.6" class="micro" fill="#2f332e" opacity="0.7">CONTENTS</text>
    <rect x="1068.4" y="801" width="54.19" height="3" rx="2" fill="#2f332e" opacity="0.42"/><rect x="1068.4" y="823" width="81.28" height="2" rx="2" fill="#2f332e" opacity="0.22"/><rect x="1068.4" y="845" width="108.38" height="2" rx="2" fill="#2f332e" opacity="0.22"/><rect x="1068.4" y="867" width="61.32" height="2" rx="2" fill="#2f332e" opacity="0.22"/>
  </g>
  <g opacity="0.72"><text x="78" y="1004" class="micro" fill="#2f332e">CULTURE MAGAZINE SYSTEM</text><text x="78" y="1036" class="micro" fill="#2f332e" opacity="0.55">TEMPORARY DEMONSTRATION PORTFOLIO VISUAL / GALLERY-1</text></g>
</svg>
