<?xml version="1.0" encoding="UTF-8"?>
<svg xmlns="http://www.w3.org/2000/svg" width="1600" height="1100" viewBox="0 0 1600 1100" role="img" aria-labelledby="title desc">
  <title id="title">ELYSIAN gallery-4 demo portfolio mockup</title>
  <desc id="desc">Temporary fictional demonstration project imagery for portfolio presentation only, not client work.</desc>
  <defs>
    <linearGradient id="bg_elysian_gallery_4" x1="0" y1="0" x2="1" y2="1">
      <stop offset="0%" stop-color="#fffaf2"/>
      <stop offset="58%" stop-color="#f8f3eb"/>
      <stop offset="100%" stop-color="#ddd0bb"/>
    </linearGradient>
    <radialGradient id="light_elysian_gallery_4" cx="74%" cy="18%" r="64%">
      <stop offset="0%" stop-color="#ffffff" stop-opacity="0.62"/>
      <stop offset="100%" stop-color="#ffffff" stop-opacity="0"/>
    </radialGradient>
  </defs>
  <style><![CDATA[
    .brand { font-family: Georgia, Georgia, serif; font-weight: 500; letter-spacing: .02em; }
    .body { font-family: Arial, Arial, sans-serif; font-weight: 500; }
    .micro { font-family: Arial, Arial, sans-serif; font-size: 20px; font-weight: 700; letter-spacing: .12em; }
  ]]></style>
  <rect width="1600" height="1100" fill="url(#bg_elysian_gallery_4)"/>
  <rect width="1600" height="1100" fill="url(#light_elysian_gallery_4)"/>
  <rect x="577.1" y="927.86" width="24.08" height="1.43" rx="1" fill="#c99b93" opacity="0.05" transform="rotate(137.41 577.1 927.86)"/><rect x="320.87" y="311.4" width="17.11" height="1.51" rx="1" fill="#2f332e" opacity="0.05" transform="rotate(154.46 320.87 311.4)"/><rect x="1128.8" y="775.36" width="22.71" height="2.07" rx="1" fill="#c99b93" opacity="0.04" transform="rotate(41.01 1128.8 775.36)"/><circle cx="902.49" cy="199.77" r="1.09" fill="#2f332e" opacity="0.03"/><rect x="405.21" y="189.07" width="7.39" height="1.47" rx="1" fill="#c99b93" opacity="0.07" transform="rotate(97.01 405.21 189.07)"/><rect x="940.75" y="489.56" width="19.72" height="2.19" rx="1" fill="#2f332e" opacity="0.04" transform="rotate(165.85 940.75 489.56)"/><rect x="1013.09" y="205.56" width="11.85" height="2.12" rx="1" fill="#c99b93" opacity="0.08" transform="rotate(56.98 1013.09 205.56)"/><rect x="271.18" y="559.11" width="21.31" height="2.16" rx="1" fill="#c99b93" opacity="0.07" transform="rotate(80.67 271.18 559.11)"/><circle cx="1073.25" cy="1014.58" r="1.98" fill="#2f332e" opacity="0.07"/><rect x="539.13" y="1096.49" width="11.19" height="2.17" rx="1" fill="#2f332e" opacity="0.04" transform="rotate(65.18 539.13 1096.49)"/><rect x="702.63" y="914.73" width="21.2" height="1.18" rx="1" fill="#c99b93" opacity="0.05" transform="rotate(37.8 702.63 914.73)"/><circle cx="998.27" cy="1035.4" r="1.13" fill="#2f332e" opacity="0.04"/><rect x="974.03" y="803.74" width="21.64" height="1.71" rx="1" fill="#c99b93" opacity="0.06" transform="rotate(148.38 974.03 803.74)"/><rect x="730.89" y="844.08" width="17.05" height="0.94" rx="1" fill="#2f332e" opacity="0.05" transform="rotate(178.51 730.89 844.08)"/><circle cx="905.88" cy="906" r="2.09" fill="#c99b93" opacity="0.07"/><circle cx="627.21" cy="799.97" r="2.25" fill="#2f332e" opacity="0.05"/><circle cx="1116.1" cy="230.68" r="1.44" fill="#c99b93" opacity="0.03"/><rect x="1125.2" y="797.68" width="17.51" height="1.63" rx="1" fill="#c99b93" opacity="0.03" transform="rotate(157.34 1125.2 797.68)"/><rect x="285.9" y="834.59" width="13.73" height="1.92" rx="1" fill="#2f332e" opacity="0.08" transform="rotate(114.15 285.9 834.59)"/><rect x="11.46" y="409.55" width="12.33" height="1.53" rx="1" fill="#2f332e" opacity="0.03" transform="rotate(174.44 11.46 409.55)"/><circle cx="1172.82" cy="638.51" r="1.2" fill="#c99b93" opacity="0.03"/><circle cx="61.4" cy="212.48" r="1.06" fill="#2f332e" opacity="0.08"/><circle cx="879.61" cy="212.52" r="2.02" fill="#2f332e" opacity="0.04"/><circle cx="1309.95" cy="640.24" r="1.77" fill="#c99b93" opacity="0.04"/><rect x="620.13" y="614.22" width="15.73" height="2.59" rx="1" fill="#c99b93" opacity="0.03" transform="rotate(30.38 620.13 614.22)"/><circle cx="1552.54" cy="941.93" r="1.88" fill="#c99b93" opacity="0.06"/><rect x="1324.66" y="223.05" width="11.67" height="2.03" rx="1" fill="#2f332e" opacity="0.07" transform="rotate(106.59 1324.66 223.05)"/><rect x="150.16" y="937.3" width="10.08" height="2.4" rx="1" fill="#c99b93" opacity="0.03" transform="rotate(146.81 150.16 937.3)"/><rect x="836.03" y="714.96" width="24.45" height="1.46" rx="1" fill="#c99b93" opacity="0.03" transform="rotate(46.09 836.03 714.96)"/><rect x="1499.84" y="4.98" width="16.31" height="1.63" rx="1" fill="#c99b93" opacity="0.08" transform="rotate(106.49 1499.84 4.98)"/><rect x="1494.37" y="377.14" width="6.32" height="2.18" rx="1" fill="#2f332e" opacity="0.03" transform="rotate(10.93 1494.37 377.14)"/><circle cx="916.28" cy="569.73" r="1.69" fill="#2f332e" opacity="0.06"/><rect x="686.92" y="318.08" width="20.45" height="1.46" rx="1" fill="#c99b93" opacity="0.04" transform="rotate(169.21 686.92 318.08)"/><rect x="1351.21" y="684.3" width="11.18" height="1.43" rx="1" fill="#c99b93" opacity="0.08" transform="rotate(98.71 1351.21 684.3)"/><rect x="459.72" y="442.16" width="25.03" height="2.2" rx="1" fill="#c99b93" opacity="0.07" transform="rotate(72.14 459.72 442.16)"/><rect x="836.72" y="974.14" width="21.19" height="2.52" rx="1" fill="#c99b93" opacity="0.04" transform="rotate(92.85 836.72 974.14)"/><circle cx="659.49" cy="286.86" r="1.15" fill="#c99b93" opacity="0.05"/><rect x="690.33" y="1081.63" width="26.21" height="1.12" rx="1" fill="#c99b93" opacity="0.06" transform="rotate(74.84 690.33 1081.63)"/><rect x="1452.3" y="119.37" width="15.28" height="1.71" rx="1" fill="#2f332e" opacity="0.05" transform="rotate(71.51 1452.3 119.37)"/><rect x="152.44" y="64.87" width="27.97" height="0.96" rx="1" fill="#c99b93" opacity="0.06" transform="rotate(122.66 152.44 64.87)"/><circle cx="84.62" cy="860.02" r="1.51" fill="#2f332e" opacity="0.06"/><rect x="759.24" y="129.57" width="20.65" height="1.57" rx="1" fill="#c99b93" opacity="0.03" transform="rotate(68.44 759.24 129.57)"/><circle cx="191.93" cy="607.83" r="1.32" fill="#c99b93" opacity="0.05"/><rect x="601.72" y="630.21" width="19.56" height="2.02" rx="1" fill="#c99b93" opacity="0.06" transform="rotate(9.99 601.72 630.21)"/><circle cx="889.21" cy="537.5" r="1.31" fill="#2f332e" opacity="0.06"/><rect x="317.58" y="889.96" width="6.91" height="2.23" rx="1" fill="#c99b93" opacity="0.08" transform="rotate(95.71 317.58 889.96)"/><rect x="1594.58" y="456.02" width="24.86" height="0.9" rx="1" fill="#2f332e" opacity="0.04" transform="rotate(174.1 1594.58 456.02)"/><rect x="1133.67" y="3.61" width="21.02" height="1.1" rx="1" fill="#c99b93" opacity="0.03" transform="rotate(70.32 1133.67 3.61)"/><circle cx="1537.54" cy="627.61" r="0.83" fill="#c99b93" opacity="0.04"/><circle cx="148.51" cy="660.65" r="1.33" fill="#c99b93" opacity="0.03"/><rect x="958.55" y="946.12" width="11.28" height="1.85" rx="1" fill="#c99b93" opacity="0.05" transform="rotate(115.56 958.55 946.12)"/><rect x="802.31" y="236.51" width="11.87" height="2.6" rx="1" fill="#2f332e" opacity="0.03" transform="rotate(156.34 802.31 236.51)"/><rect x="841.8" y="110.06" width="18.8" height="1.5" rx="1" fill="#c99b93" opacity="0.05" transform="rotate(22.12 841.8 110.06)"/><rect x="909.84" y="252.08" width="26.12" height="1.26" rx="1" fill="#c99b93" opacity="0.03" transform="rotate(142.52 909.84 252.08)"/><rect x="225.99" y="1023.34" width="8.48" height="1.52" rx="1" fill="#2f332e" opacity="0.03" transform="rotate(39.05 225.99 1023.34)"/><rect x="877.17" y="752.83" width="9.84" height="2.18" rx="1" fill="#c99b93" opacity="0.05" transform="rotate(144.11 877.17 752.83)"/><circle cx="1338.59" cy="577.74" r="1.5" fill="#2f332e" opacity="0.07"/><rect x="1273.41" y="319.51" width="16.28" height="2.02" rx="1" fill="#c99b93" opacity="0.06" transform="rotate(19.61 1273.41 319.51)"/><rect x="43.5" y="533.68" width="21.78" height="0.92" rx="1" fill="#c99b93" opacity="0.08" transform="rotate(24.3 43.5 533.68)"/><rect x="1142.59" y="657.82" width="19.55" height="1.17" rx="1" fill="#c99b93" opacity="0.04" transform="rotate(100.39 1142.59 657.82)"/><circle cx="1161.39" cy="201.3" r="1.37" fill="#2f332e" opacity="0.06"/><rect x="68.28" y="909.56" width="11.34" height="2.19" rx="1" fill="#c99b93" opacity="0.04" transform="rotate(99.87 68.28 909.56)"/><circle cx="902.61" cy="1035.91" r="0.93" fill="#2f332e" opacity="0.06"/><circle cx="1065.04" cy="103.63" r="0.9" fill="#c99b93" opacity="0.03"/><rect x="189.5" y="1062.09" width="18.77" height="1.89" rx="1" fill="#2f332e" opacity="0.07" transform="rotate(61.6 189.5 1062.09)"/><rect x="302.67" y="1058.29" width="22.61" height="2.05" rx="1" fill="#c99b93" opacity="0.07" transform="rotate(69.89 302.67 1058.29)"/><circle cx="768.99" cy="114.6" r="2.16" fill="#c99b93" opacity="0.07"/><circle cx="506.08" cy="226.09" r="1.06" fill="#2f332e" opacity="0.03"/><rect x="546.36" y="43.33" width="16.23" height="0.81" rx="1" fill="#2f332e" opacity="0.04" transform="rotate(47.5 546.36 43.33)"/><rect x="1467.85" y="1084.52" width="15.92" height="1.11" rx="1" fill="#2f332e" opacity="0.06" transform="rotate(95.83 1467.85 1084.52)"/><rect x="538.01" y="284.96" width="7.17" height="2.17" rx="1" fill="#2f332e" opacity="0.03" transform="rotate(117 538.01 284.96)"/><rect x="1384.72" y="974.53" width="10.18" height="2.44" rx="1" fill="#c99b93" opacity="0.07" transform="rotate(177.14 1384.72 974.53)"/><circle cx="620.48" cy="371.47" r="2.2" fill="#c99b93" opacity="0.06"/><rect x="850.19" y="297.2" width="24.21" height="2.58" rx="1" fill="#c99b93" opacity="0.05" transform="rotate(125.35 850.19 297.2)"/><rect x="932.62" y="775.04" width="23.25" height="2.16" rx="1" fill="#c99b93" opacity="0.07" transform="rotate(138.25 932.62 775.04)"/><rect x="1441.3" y="507.91" width="8.36" height="2.07" rx="1" fill="#c99b93" opacity="0.07" transform="rotate(172.41 1441.3 507.91)"/><circle cx="697.99" cy="80.13" r="1.87" fill="#c99b93" opacity="0.06"/><circle cx="127.26" cy="900.27" r="1.09" fill="#c99b93" opacity="0.05"/><rect x="374.4" y="771.37" width="9.93" height="1.09" rx="1" fill="#2f332e" opacity="0.03" transform="rotate(41.81 374.4 771.37)"/><circle cx="1315.21" cy="898.59" r="1.66" fill="#c99b93" opacity="0.03"/><circle cx="453.64" cy="445.76" r="1.12" fill="#c99b93" opacity="0.06"/><rect x="1458.82" y="923" width="27.15" height="1.34" rx="1" fill="#c99b93" opacity="0.07" transform="rotate(70.67 1458.82 923)"/><rect x="171.08" y="1053.27" width="21.36" height="2.16" rx="1" fill="#2f332e" opacity="0.07" transform="rotate(43.71 171.08 1053.27)"/><circle cx="1118.76" cy="79.67" r="1.59" fill="#c99b93" opacity="0.04"/><circle cx="577.82" cy="31.36" r="0.94" fill="#2f332e" opacity="0.07"/><rect x="826.66" y="958.68" width="13.45" height="1.24" rx="1" fill="#2f332e" opacity="0.07" transform="rotate(116.59 826.66 958.68)"/><circle cx="932.29" cy="508.22" r="1.95" fill="#c99b93" opacity="0.04"/><circle cx="1330.14" cy="300.92" r="1.83" fill="#c99b93" opacity="0.07"/><circle cx="925.67" cy="929.22" r="1.76" fill="#2f332e" opacity="0.08"/><rect x="67.94" y="76.81" width="8.71" height="1.45" rx="1" fill="#2f332e" opacity="0.04" transform="rotate(179.02 67.94 76.81)"/><circle cx="1580.5" cy="330.47" r="1.23" fill="#c99b93" opacity="0.04"/><rect x="1319.37" y="478.71" width="21.89" height="0.82" rx="1" fill="#2f332e" opacity="0.08" transform="rotate(81.62 1319.37 478.71)"/><rect x="95.95" y="521.49" width="22.13" height="1.66" rx="1" fill="#c99b93" opacity="0.06" transform="rotate(6.12 95.95 521.49)"/><circle cx="14.57" cy="301.62" r="1.34" fill="#c99b93" opacity="0.08"/><rect x="670.41" y="322.34" width="23.6" height="2.18" rx="1" fill="#c99b93" opacity="0.06" transform="rotate(36.85 670.41 322.34)"/><circle cx="284.56" cy="701.63" r="1.53" fill="#2f332e" opacity="0.03"/><circle cx="656.42" cy="1008.92" r="1.08" fill="#2f332e" opacity="0.06"/><rect x="1036.12" y="610.65" width="17.72" height="1.29" rx="1" fill="#c99b93" opacity="0.04" transform="rotate(111.23 1036.12 610.65)"/><circle cx="1212.52" cy="518.42" r="1.86" fill="#c99b93" opacity="0.06"/><rect x="157.97" y="371.23" width="12.08" height="2.45" rx="1" fill="#c99b93" opacity="0.07" transform="rotate(89.73 157.97 371.23)"/><rect x="1009.95" y="403.19" width="14.12" height="1.02" rx="1" fill="#c99b93" opacity="0.07" transform="rotate(57.89 1009.95 403.19)"/><circle cx="71.56" cy="339.54" r="1.24" fill="#c99b93" opacity="0.05"/><circle cx="1267.08" cy="181.85" r="1.6" fill="#2f332e" opacity="0.04"/><rect x="1400.17" y="1007.09" width="11.53" height="1.3" rx="1" fill="#2f332e" opacity="0.03" transform="rotate(158.23 1400.17 1007.09)"/><rect x="745.53" y="596.13" width="11.33" height="1.76" rx="1" fill="#2f332e" opacity="0.07" transform="rotate(91.61 745.53 596.13)"/><rect x="121.23" y="839.47" width="16.05" height="1.71" rx="1" fill="#2f332e" opacity="0.08" transform="rotate(167.74 121.23 839.47)"/><circle cx="656.86" cy="239.4" r="1.28" fill="#c99b93" opacity="0.07"/><rect x="269.87" y="546.86" width="21.28" height="2.24" rx="1" fill="#2f332e" opacity="0.06" transform="rotate(120.91 269.87 546.86)"/><circle cx="170.19" cy="421.77" r="2" fill="#2f332e" opacity="0.03"/><circle cx="1208.72" cy="463.45" r="0.87" fill="#c99b93" opacity="0.08"/><rect x="847.43" y="1012.41" width="20.31" height="1.07" rx="1" fill="#2f332e" opacity="0.07" transform="rotate(128.13 847.43 1012.41)"/><circle cx="1470.27" cy="998.47" r="1.01" fill="#c99b93" opacity="0.04"/><rect x="1452.8" y="779.43" width="7.36" height="1.14" rx="1" fill="#2f332e" opacity="0.03" transform="rotate(14.47 1452.8 779.43)"/><rect x="952.05" y="976.91" width="21.26" height="2.41" rx="1" fill="#2f332e" opacity="0.08" transform="rotate(80.58 952.05 976.91)"/><circle cx="1379.75" cy="992.63" r="1.86" fill="#c99b93" opacity="0.06"/><circle cx="1195.46" cy="4.65" r="1.75" fill="#c99b93" opacity="0.03"/><rect x="1134.91" y="733.27" width="10.47" height="1.81" rx="1" fill="#c99b93" opacity="0.08" transform="rotate(59.85 1134.91 733.27)"/><rect x="80.73" y="609.96" width="15.38" height="0.97" rx="1" fill="#c99b93" opacity="0.08" transform="rotate(53.51 80.73 609.96)"/><rect x="501.5" y="881.84" width="23.84" height="1.78" rx="1" fill="#c99b93" opacity="0.07" transform="rotate(47.55 501.5 881.84)"/><rect x="67.97" y="217.09" width="6.48" height="1.59" rx="1" fill="#2f332e" opacity="0.03" transform="rotate(133.91 67.97 217.09)"/><rect x="995.3" y="594.7" width="24.86" height="2.39" rx="1" fill="#c99b93" opacity="0.05" transform="rotate(39.22 995.3 594.7)"/><rect x="1568.56" y="280.05" width="16.49" height="2.21" rx="1" fill="#c99b93" opacity="0.06" transform="rotate(175.27 1568.56 280.05)"/><circle cx="1446.08" cy="317.4" r="1.85" fill="#2f332e" opacity="0.06"/><rect x="916.26" y="725.44" width="12.97" height="1.89" rx="1" fill="#c99b93" opacity="0.03" transform="rotate(62.58 916.26 725.44)"/><rect x="1537.1" y="691.68" width="12.79" height="0.97" rx="1" fill="#2f332e" opacity="0.06" transform="rotate(119.55 1537.1 691.68)"/><rect x="1221.89" y="11.82" width="11.78" height="1.57" rx="1" fill="#2f332e" opacity="0.06" transform="rotate(155.73 1221.89 11.82)"/><circle cx="1446.46" cy="688.35" r="1" fill="#c99b93" opacity="0.06"/><rect x="789.03" y="1083.36" width="18.29" height="2.32" rx="1" fill="#2f332e" opacity="0.07" transform="rotate(56.3 789.03 1083.36)"/><rect x="954.94" y="397.5" width="8.97" height="1.88" rx="1" fill="#c99b93" opacity="0.06" transform="rotate(27.52 954.94 397.5)"/><circle cx="660.3" cy="33.98" r="1.35" fill="#2f332e" opacity="0.05"/><circle cx="1414.11" cy="916.42" r="1.31" fill="#c99b93" opacity="0.03"/><circle cx="450.07" cy="682.34" r="2.16" fill="#c99b93" opacity="0.04"/><circle cx="1282.61" cy="190.34" r="2.15" fill="#c99b93" opacity="0.03"/><rect x="339.31" y="689.56" width="7.48" height="2.33" rx="1" fill="#c99b93" opacity="0.03" transform="rotate(108.24 339.31 689.56)"/><circle cx="833.01" cy="3.88" r="1.99" fill="#2f332e" opacity="0.07"/><circle cx="281.06" cy="811.55" r="0.84" fill="#c99b93" opacity="0.05"/><circle cx="1442.22" cy="39.87" r="1.52" fill="#c99b93" opacity="0.05"/><rect x="1296.93" y="1007.43" width="23.71" height="1.5" rx="1" fill="#c99b93" opacity="0.05" transform="rotate(9.48 1296.93 1007.43)"/><rect x="458.92" y="837.77" width="25.39" height="2.1" rx="1" fill="#2f332e" opacity="0.05" transform="rotate(162.38 458.92 837.77)"/><circle cx="183.21" cy="596.85" r="1.81" fill="#2f332e" opacity="0.04"/>
  <circle cx="1350" cy="178" r="184" fill="#c99b93" opacity="0.06"/>
  <circle cx="220" cy="894" r="220" fill="#8e997f" opacity="0.08"/>
  <g transform="rotate(-4 475 525)">
    <ellipse cx="491" cy="794.8" rx="227.9" ry="53" fill="#1f211d" opacity="0.11"/>
    <rect x="260" y="260" width="430" height="530" rx="10" fill="#fffaf2"/>
    <rect x="278" y="278" width="394" height="494" rx="5" fill="none" stroke="#2f332e" stroke-opacity="0.11"/>
    <rect x="294" y="302" width="94.6" height="4" rx="2" fill="#c99b93" opacity="0.84"/>
    <text x="294" y="440.2" class="brand" fill="#2f332e" font-size="51.6">GRID</text>
    <text x="296" y="474.2" class="micro" fill="#2f332e" opacity="0.65">12 COLUMN</text>
    <rect x="296" y="567.4" width="117.65" height="3" rx="2" fill="#2f332e" opacity="0.42"/><rect x="296" y="589.4" width="176.47" height="2" rx="2" fill="#2f332e" opacity="0.22"/><rect x="296" y="611.4" width="235.3" height="2" rx="2" fill="#2f332e" opacity="0.22"/><rect x="296" y="633.4" width="133.13" height="2" rx="2" fill="#2f332e" opacity="0.22"/><rect x="296" y="655.4" width="191.95" height="2" rx="2" fill="#2f332e" opacity="0.22"/><rect x="296" y="677.4" width="250.78" height="2" rx="2" fill="#2f332e" opacity="0.22"/><rect x="296" y="699.4" width="148.61" height="2" rx="2" fill="#2f332e" opacity="0.22"/><rect x="296" y="721.4" width="207.43" height="2" rx="2" fill="#2f332e" opacity="0.22"/><rect x="296" y="743.4" width="266.26" height="2" rx="2" fill="#2f332e" opacity="0.22"/>
    
  </g><g transform="rotate(3 960 415)">
      <ellipse cx="760" cy="474.32" rx="44.52" ry="4.2" fill="#1f211d" opacity="0.08"/>
      <rect x="710" y="350" width="86" height="116" rx="8" fill="#fffaf2"/>
      <text x="722" y="446" class="micro" fill="#2f332e" opacity="0.62">01</text>
    
      <ellipse cx="864" cy="474.32" rx="44.52" ry="4.2" fill="#1f211d" opacity="0.08"/>
      <rect x="814" y="350" width="86" height="116" rx="8" fill="#ddd0bb"/>
      <text x="826" y="446" class="micro" fill="#2f332e" opacity="0.62">02</text>
    
      <ellipse cx="968" cy="474.32" rx="44.52" ry="4.2" fill="#1f211d" opacity="0.08"/>
      <rect x="918" y="350" width="86" height="116" rx="8" fill="#c99b93"/>
      <text x="930" y="446" class="micro" fill="#2f332e" opacity="0.62">03</text>
    
      <ellipse cx="1072" cy="474.32" rx="44.52" ry="4.2" fill="#1f211d" opacity="0.08"/>
      <rect x="1022" y="350" width="86" height="116" rx="8" fill="#8e997f"/>
      <text x="1034" y="446" class="micro" fill="#2f332e" opacity="0.62">04</text>
    
      <ellipse cx="1176" cy="474.32" rx="44.52" ry="4.2" fill="#1f211d" opacity="0.08"/>
      <rect x="1126" y="350" width="86" height="116" rx="8" fill="#343830"/>
      <text x="1138" y="446" class="micro" fill="#fffaf2" opacity="0.62">05</text>
    </g><g transform="rotate(6 1200 705)">
    <ellipse cx="1216" cy="818.4" rx="148.4" ry="19" fill="#1f211d" opacity="0.11"/>
    <rect x="1060" y="610" width="280" height="190" rx="10" fill="#fffaf2"/>
    <rect x="1078" y="628" width="244" height="154" rx="5" fill="none" stroke="#2f332e" stroke-opacity="0.11"/>
    <rect x="1094" y="652" width="61.6" height="4" rx="2" fill="#c99b93" opacity="0.84"/>
    <text x="1094" y="674.6" class="brand" fill="#2f332e" font-size="33.6">INK TEST</text>
    <text x="1096" y="708.6" class="micro" fill="#2f332e" opacity="0.65">PROOF</text>
    <rect x="1096" y="720.2" width="76.61" height="3" rx="2" fill="#2f332e" opacity="0.42"/><rect x="1096" y="742.2" width="114.91" height="2" rx="2" fill="#2f332e" opacity="0.22"/><rect x="1096" y="764.2" width="153.22" height="2" rx="2" fill="#2f332e" opacity="0.22"/>
    
  </g>
  <g opacity="0.72"><text x="78" y="1004" class="micro" fill="#2f332e">CULTURE MAGAZINE SYSTEM</text><text x="78" y="1036" class="micro" fill="#2f332e" opacity="0.55">TEMPORARY DEMONSTRATION PORTFOLIO VISUAL / GALLERY-4</text></g>
</svg>
