<?xml version="1.0" encoding="UTF-8"?>
<svg xmlns="http://www.w3.org/2000/svg" width="1600" height="1100" viewBox="0 0 1600 1100" role="img" aria-labelledby="title desc">
  <title id="title">ELYSIAN gallery-2 demo portfolio mockup</title>
  <desc id="desc">Temporary fictional demonstration project imagery for portfolio presentation only, not client work.</desc>
  <defs>
    <linearGradient id="bg_elysian_gallery_2" x1="0" y1="0" x2="1" y2="1">
      <stop offset="0%" stop-color="#fffaf2"/>
      <stop offset="58%" stop-color="#f8f3eb"/>
      <stop offset="100%" stop-color="#ddd0bb"/>
    </linearGradient>
    <radialGradient id="light_elysian_gallery_2" cx="74%" cy="18%" r="64%">
      <stop offset="0%" stop-color="#ffffff" stop-opacity="0.62"/>
      <stop offset="100%" stop-color="#ffffff" stop-opacity="0"/>
    </radialGradient>
  </defs>
  <style><![CDATA[
    .brand { font-family: Georgia, Georgia, serif; font-weight: 500; letter-spacing: .02em; }
    .body { font-family: Arial, Arial, sans-serif; font-weight: 500; }
    .micro { font-family: Arial, Arial, sans-serif; font-size: 20px; font-weight: 700; letter-spacing: .12em; }
  ]]></style>
  <rect width="1600" height="1100" fill="url(#bg_elysian_gallery_2)"/>
  <rect width="1600" height="1100" fill="url(#light_elysian_gallery_2)"/>
  <rect x="741.03" y="799.91" width="7.28" height="1.14" rx="1" fill="#c99b93" opacity="0.03" transform="rotate(139.19 741.03 799.91)"/><rect x="427.62" y="856.81" width="11.13" height="2.45" rx="1" fill="#c99b93" opacity="0.05" transform="rotate(112.66 427.62 856.81)"/><circle cx="822.79" cy="924.74" r="0.8" fill="#c99b93" opacity="0.07"/><rect x="1489.73" y="564.26" width="20.05" height="1.54" rx="1" fill="#c99b93" opacity="0.08" transform="rotate(46.86 1489.73 564.26)"/><rect x="625.97" y="775.65" width="16.34" height="0.9" rx="1" fill="#c99b93" opacity="0.08" transform="rotate(168.76 625.97 775.65)"/><rect x="855.16" y="234.47" width="24.85" height="1.3" rx="1" fill="#2f332e" opacity="0.06" transform="rotate(32.03 855.16 234.47)"/><rect x="1219.88" y="225.61" width="21.68" height="1.83" rx="1" fill="#c99b93" opacity="0.05" transform="rotate(176.78 1219.88 225.61)"/><rect x="414.5" y="300.84" width="22.97" height="1.41" rx="1" fill="#2f332e" opacity="0.05" transform="rotate(162.94 414.5 300.84)"/><circle cx="428.68" cy="579.75" r="1.87" fill="#c99b93" opacity="0.06"/><rect x="1348.51" y="16.42" width="22.68" height="1.25" rx="1" fill="#c99b93" opacity="0.07" transform="rotate(65.69 1348.51 16.42)"/><circle cx="1453.14" cy="670.48" r="2.29" fill="#c99b93" opacity="0.08"/><rect x="374.88" y="1056.57" width="11.45" height="2.23" rx="1" fill="#2f332e" opacity="0.08" transform="rotate(21.21 374.88 1056.57)"/><rect x="228.35" y="117.2" width="21.46" height="0.86" rx="1" fill="#c99b93" opacity="0.04" transform="rotate(156.11 228.35 117.2)"/><rect x="1432.2" y="167.15" width="14.57" height="1.88" rx="1" fill="#2f332e" opacity="0.05" transform="rotate(49.38 1432.2 167.15)"/><circle cx="1109.86" cy="704.07" r="2.13" fill="#c99b93" opacity="0.03"/><rect x="691.56" y="623.13" width="16.42" height="1.62" rx="1" fill="#2f332e" opacity="0.08" transform="rotate(56.4 691.56 623.13)"/><rect x="1244.17" y="897.32" width="16.31" height="1.48" rx="1" fill="#2f332e" opacity="0.04" transform="rotate(105.55 1244.17 897.32)"/><circle cx="528.55" cy="430.9" r="0.85" fill="#c99b93" opacity="0.04"/><circle cx="384.95" cy="62.88" r="1.64" fill="#c99b93" opacity="0.04"/><rect x="1076.89" y="96.97" width="9.97" height="1.39" rx="1" fill="#c99b93" opacity="0.04" transform="rotate(77.21 1076.89 96.97)"/><rect x="1486.81" y="1000.98" width="22.9" height="1.6" rx="1" fill="#2f332e" opacity="0.07" transform="rotate(100.06 1486.81 1000.98)"/><rect x="618.16" y="1037.93" width="23.63" height="1.49" rx="1" fill="#c99b93" opacity="0.04" transform="rotate(70.5 618.16 1037.93)"/><rect x="1169.73" y="518.28" width="13.43" height="1.91" rx="1" fill="#2f332e" opacity="0.08" transform="rotate(100.13 1169.73 518.28)"/><rect x="502.4" y="203.31" width="17.1" height="1.34" rx="1" fill="#c99b93" opacity="0.04" transform="rotate(21.97 502.4 203.31)"/><circle cx="376.89" cy="233.6" r="0.86" fill="#c99b93" opacity="0.08"/><circle cx="1483.83" cy="986.1" r="1.05" fill="#c99b93" opacity="0.08"/><circle cx="1507.96" cy="678.08" r="1.8" fill="#c99b93" opacity="0.07"/><rect x="1158.89" y="1051.17" width="23.8" height="1.24" rx="1" fill="#2f332e" opacity="0.04" transform="rotate(68.39 1158.89 1051.17)"/><rect x="873.59" y="700" width="24.43" height="0.84" rx="1" fill="#c99b93" opacity="0.05" transform="rotate(138.38 873.59 700)"/><rect x="817.22" y="401.2" width="23.81" height="1.5" rx="1" fill="#c99b93" opacity="0.04" transform="rotate(35.98 817.22 401.2)"/><rect x="957.85" y="705.13" width="24.62" height="2.08" rx="1" fill="#2f332e" opacity="0.06" transform="rotate(98.28 957.85 705.13)"/><rect x="225.81" y="277.8" width="23.61" height="1.06" rx="1" fill="#c99b93" opacity="0.03" transform="rotate(128.9 225.81 277.8)"/><rect x="112.79" y="288.96" width="15.29" height="1.2" rx="1" fill="#2f332e" opacity="0.06" transform="rotate(45.14 112.79 288.96)"/><rect x="847.57" y="414.91" width="24.58" height="1.46" rx="1" fill="#2f332e" opacity="0.05" transform="rotate(135.33 847.57 414.91)"/><circle cx="604.07" cy="839.08" r="1.7" fill="#c99b93" opacity="0.06"/><circle cx="1232.78" cy="842.11" r="2.16" fill="#2f332e" opacity="0.08"/><circle cx="778.58" cy="185.56" r="2.14" fill="#c99b93" opacity="0.07"/><rect x="1161.31" y="1040.1" width="6.74" height="1.26" rx="1" fill="#2f332e" opacity="0.08" transform="rotate(105.05 1161.31 1040.1)"/><circle cx="980.96" cy="298.11" r="1.42" fill="#c99b93" opacity="0.06"/><rect x="23.97" y="99.9" width="17.16" height="1.2" rx="1" fill="#2f332e" opacity="0.07" transform="rotate(159.73 23.97 99.9)"/><circle cx="64.56" cy="36.66" r="1.23" fill="#2f332e" opacity="0.08"/><circle cx="773.82" cy="509.87" r="2.1" fill="#2f332e" opacity="0.05"/><rect x="46.16" y="966.17" width="9.75" height="1.62" rx="1" fill="#c99b93" opacity="0.08" transform="rotate(63.78 46.16 966.17)"/><rect x="1260.18" y="408.2" width="25.36" height="2.48" rx="1" fill="#2f332e" opacity="0.04" transform="rotate(142.95 1260.18 408.2)"/><rect x="1282.34" y="948.77" width="10.34" height="2.37" rx="1" fill="#2f332e" opacity="0.05" transform="rotate(49.63 1282.34 948.77)"/><rect x="516.79" y="997.71" width="25.95" height="1.64" rx="1" fill="#2f332e" opacity="0.06" transform="rotate(107.52 516.79 997.71)"/><rect x="951.62" y="1044.23" width="24.06" height="1.32" rx="1" fill="#2f332e" opacity="0.03" transform="rotate(99.2 951.62 1044.23)"/><rect x="645.9" y="264.98" width="24.71" height="2.38" rx="1" fill="#2f332e" opacity="0.07" transform="rotate(8.43 645.9 264.98)"/><rect x="646.4" y="135.67" width="15.22" height="2.31" rx="1" fill="#c99b93" opacity="0.08" transform="rotate(135.35 646.4 135.67)"/><rect x="1457.33" y="387.43" width="14.01" height="1.49" rx="1" fill="#c99b93" opacity="0.03" transform="rotate(20.91 1457.33 387.43)"/><rect x="509.09" y="667.53" width="11.41" height="1.75" rx="1" fill="#2f332e" opacity="0.07" transform="rotate(52.62 509.09 667.53)"/><rect x="1411.63" y="140.74" width="12.18" height="1.4" rx="1" fill="#2f332e" opacity="0.04" transform="rotate(44.18 1411.63 140.74)"/><circle cx="982.3" cy="1089.23" r="1.56" fill="#c99b93" opacity="0.06"/><rect x="515.63" y="919.22" width="13.8" height="2" rx="1" fill="#c99b93" opacity="0.03" transform="rotate(154.1 515.63 919.22)"/><rect x="359.94" y="108.75" width="16.66" height="1.22" rx="1" fill="#2f332e" opacity="0.05" transform="rotate(120.4 359.94 108.75)"/><rect x="850.41" y="23.09" width="23.21" height="2.29" rx="1" fill="#c99b93" opacity="0.06" transform="rotate(64.38 850.41 23.09)"/><rect x="1090.85" y="177.12" width="17.68" height="2.16" rx="1" fill="#2f332e" opacity="0.06" transform="rotate(110.86 1090.85 177.12)"/><rect x="44.9" y="729.15" width="15.58" height="1.84" rx="1" fill="#2f332e" opacity="0.07" transform="rotate(167.19 44.9 729.15)"/><rect x="1448.83" y="797.32" width="26.05" height="1.15" rx="1" fill="#c99b93" opacity="0.04" transform="rotate(50.26 1448.83 797.32)"/><circle cx="429.12" cy="545.1" r="0.79" fill="#c99b93" opacity="0.05"/><rect x="11.96" y="302.39" width="9.45" height="2.18" rx="1" fill="#c99b93" opacity="0.05" transform="rotate(27.23 11.96 302.39)"/><circle cx="287.95" cy="1028.82" r="1.62" fill="#c99b93" opacity="0.05"/><rect x="885.33" y="52.87" width="17.45" height="0.91" rx="1" fill="#2f332e" opacity="0.07" transform="rotate(43.01 885.33 52.87)"/><rect x="1558.1" y="669.87" width="14.65" height="1.6" rx="1" fill="#2f332e" opacity="0.05" transform="rotate(100.36 1558.1 669.87)"/><rect x="636.02" y="617.53" width="17.07" height="1.75" rx="1" fill="#2f332e" opacity="0.06" transform="rotate(63.25 636.02 617.53)"/><circle cx="1493.24" cy="298.04" r="2.04" fill="#2f332e" opacity="0.03"/><circle cx="1154.62" cy="9.4" r="1.83" fill="#c99b93" opacity="0.07"/><rect x="976.54" y="384.82" width="10.78" height="1.5" rx="1" fill="#2f332e" opacity="0.08" transform="rotate(136.54 976.54 384.82)"/><rect x="640.52" y="568.2" width="17.69" height="1.38" rx="1" fill="#c99b93" opacity="0.05" transform="rotate(50.48 640.52 568.2)"/><rect x="493.32" y="538.84" width="22.24" height="2.34" rx="1" fill="#c99b93" opacity="0.06" transform="rotate(29.08 493.32 538.84)"/><rect x="659.69" y="308.15" width="17.33" height="2.41" rx="1" fill="#c99b93" opacity="0.04" transform="rotate(49.24 659.69 308.15)"/><rect x="1483.66" y="236.24" width="9.97" height="1.85" rx="1" fill="#2f332e" opacity="0.04" transform="rotate(137.65 1483.66 236.24)"/><circle cx="1466.21" cy="1097.54" r="1.89" fill="#2f332e" opacity="0.05"/><circle cx="991.93" cy="635.23" r="1.61" fill="#c99b93" opacity="0.05"/><circle cx="641.77" cy="439.82" r="1.18" fill="#2f332e" opacity="0.06"/><rect x="1255.5" y="706.14" width="27.12" height="1.76" rx="1" fill="#c99b93" opacity="0.04" transform="rotate(75.39 1255.5 706.14)"/><rect x="748.53" y="328.65" width="6.68" height="1.65" rx="1" fill="#2f332e" opacity="0.07" transform="rotate(143.42 748.53 328.65)"/><rect x="340.4" y="1067.33" width="16.67" height="1.25" rx="1" fill="#c99b93" opacity="0.04" transform="rotate(82.98 340.4 1067.33)"/><rect x="1211.81" y="560.93" width="9.45" height="1.01" rx="1" fill="#2f332e" opacity="0.05" transform="rotate(130.04 1211.81 560.93)"/><circle cx="619.74" cy="840.07" r="1.91" fill="#c99b93" opacity="0.06"/><circle cx="316.36" cy="698.69" r="1.37" fill="#2f332e" opacity="0.07"/><rect x="190.36" y="119.28" width="15.25" height="2.14" rx="1" fill="#2f332e" opacity="0.08" transform="rotate(150.29 190.36 119.28)"/><circle cx="1097.83" cy="761.24" r="0.91" fill="#c99b93" opacity="0.04"/><circle cx="846.95" cy="525.61" r="0.91" fill="#2f332e" opacity="0.04"/><rect x="448.43" y="897.44" width="15.18" height="1.29" rx="1" fill="#2f332e" opacity="0.08" transform="rotate(169.39 448.43 897.44)"/><circle cx="1225.28" cy="806.2" r="2.1" fill="#c99b93" opacity="0.04"/><rect x="672.7" y="751.3" width="16.49" height="2.08" rx="1" fill="#2f332e" opacity="0.07" transform="rotate(97.36 672.7 751.3)"/><rect x="760.56" y="370.7" width="20.5" height="2.27" rx="1" fill="#c99b93" opacity="0.03" transform="rotate(90.12 760.56 370.7)"/><circle cx="128.5" cy="655.68" r="2.16" fill="#2f332e" opacity="0.06"/><rect x="1007.67" y="116.6" width="24.4" height="2.16" rx="1" fill="#2f332e" opacity="0.04" transform="rotate(98.24 1007.67 116.6)"/><rect x="1490.93" y="567.58" width="17.88" height="1.48" rx="1" fill="#2f332e" opacity="0.07" transform="rotate(78.01 1490.93 567.58)"/><rect x="940.66" y="768.83" width="16.53" height="1.41" rx="1" fill="#c99b93" opacity="0.06" transform="rotate(9.3 940.66 768.83)"/><rect x="645.25" y="686.64" width="27.46" height="2.2" rx="1" fill="#c99b93" opacity="0.03" transform="rotate(178.49 645.25 686.64)"/><circle cx="975.28" cy="1020.73" r="1.19" fill="#2f332e" opacity="0.06"/><circle cx="1055.78" cy="152.76" r="1.08" fill="#c99b93" opacity="0.06"/><circle cx="171.24" cy="237.18" r="0.91" fill="#c99b93" opacity="0.04"/><rect x="423.45" y="617.92" width="25.4" height="1.01" rx="1" fill="#2f332e" opacity="0.06" transform="rotate(112.55 423.45 617.92)"/><circle cx="1092.67" cy="549.84" r="2.22" fill="#c99b93" opacity="0.05"/><rect x="932.98" y="666.12" width="9.4" height="1.62" rx="1" fill="#c99b93" opacity="0.06" transform="rotate(159.41 932.98 666.12)"/><rect x="494.9" y="115.44" width="10.13" height="2" rx="1" fill="#2f332e" opacity="0.04" transform="rotate(71.39 494.9 115.44)"/><circle cx="813.12" cy="785.84" r="1.81" fill="#2f332e" opacity="0.06"/><circle cx="601.82" cy="264.56" r="0.94" fill="#c99b93" opacity="0.03"/><circle cx="142.11" cy="656.24" r="0.94" fill="#c99b93" opacity="0.04"/><circle cx="557.52" cy="687.15" r="1.14" fill="#2f332e" opacity="0.05"/><rect x="19.37" y="840.14" width="10.67" height="1.35" rx="1" fill="#c99b93" opacity="0.07" transform="rotate(81.95 19.37 840.14)"/><rect x="1429.05" y="128.49" width="11.46" height="1.34" rx="1" fill="#c99b93" opacity="0.03" transform="rotate(142.23 1429.05 128.49)"/><circle cx="167.42" cy="640.31" r="2.21" fill="#2f332e" opacity="0.04"/><rect x="671.09" y="928.77" width="25.21" height="1.83" rx="1" fill="#c99b93" opacity="0.07" transform="rotate(105.39 671.09 928.77)"/><rect x="1460.8" y="579.76" width="7.19" height="0.82" rx="1" fill="#2f332e" opacity="0.03" transform="rotate(73.5 1460.8 579.76)"/><rect x="582.23" y="250.42" width="11.57" height="1.56" rx="1" fill="#2f332e" opacity="0.04" transform="rotate(81.78 582.23 250.42)"/><rect x="508.11" y="26.53" width="11.16" height="2.49" rx="1" fill="#2f332e" opacity="0.04" transform="rotate(61.8 508.11 26.53)"/><circle cx="290.84" cy="1063.82" r="1.5" fill="#2f332e" opacity="0.07"/><circle cx="849.67" cy="1088.74" r="2.01" fill="#c99b93" opacity="0.04"/><rect x="1288.47" y="811.19" width="13.92" height="1.37" rx="1" fill="#c99b93" opacity="0.07" transform="rotate(8.03 1288.47 811.19)"/><circle cx="1358.79" cy="105.61" r="2.05" fill="#2f332e" opacity="0.06"/><rect x="275.16" y="905.95" width="20.62" height="1.2" rx="1" fill="#2f332e" opacity="0.07" transform="rotate(96.82 275.16 905.95)"/><rect x="118.66" y="1070.28" width="10.15" height="1.08" rx="1" fill="#2f332e" opacity="0.06" transform="rotate(117.19 118.66 1070.28)"/><circle cx="1338.39" cy="892.21" r="1.52" fill="#c99b93" opacity="0.04"/><rect x="664.81" y="873.47" width="27.64" height="1.66" rx="1" fill="#2f332e" opacity="0.08" transform="rotate(150.63 664.81 873.47)"/><circle cx="1540.19" cy="752.64" r="2.14" fill="#c99b93" opacity="0.07"/><rect x="698.49" y="146.99" width="27.73" height="1.93" rx="1" fill="#2f332e" opacity="0.04" transform="rotate(61.82 698.49 146.99)"/><rect x="546.65" y="731.23" width="12.38" height="1.21" rx="1" fill="#2f332e" opacity="0.07" transform="rotate(31.14 546.65 731.23)"/><circle cx="1241.9" cy="661.78" r="2" fill="#c99b93" opacity="0.08"/><rect x="792.02" y="552.01" width="9.69" height="2.3" rx="1" fill="#c99b93" opacity="0.07" transform="rotate(103.7 792.02 552.01)"/><circle cx="435.9" cy="769.17" r="1.35" fill="#2f332e" opacity="0.06"/><rect x="270.9" y="981.22" width="24.71" height="1.41" rx="1" fill="#2f332e" opacity="0.07" transform="rotate(70.66 270.9 981.22)"/><rect x="1432.92" y="912.76" width="11.79" height="2.11" rx="1" fill="#2f332e" opacity="0.06" transform="rotate(94.38 1432.92 912.76)"/><circle cx="1114.74" cy="443.14" r="1.67" fill="#2f332e" opacity="0.03"/><rect x="1052.76" y="652.76" width="17.39" height="1.02" rx="1" fill="#c99b93" opacity="0.04" transform="rotate(9.89 1052.76 652.76)"/><circle cx="368.07" cy="276.82" r="1.86" fill="#c99b93" opacity="0.03"/><circle cx="908.17" cy="70.65" r="1.56" fill="#2f332e" opacity="0.04"/><rect x="1140.11" y="441.15" width="24.89" height="2.59" rx="1" fill="#c99b93" opacity="0.05" transform="rotate(148.04 1140.11 441.15)"/><rect x="1438.73" y="249.72" width="9.41" height="2.08" rx="1" fill="#c99b93" opacity="0.05" transform="rotate(56.88 1438.73 249.72)"/><rect x="399.16" y="1085.7" width="7.05" height="1.92" rx="1" fill="#c99b93" opacity="0.05" transform="rotate(93.81 399.16 1085.7)"/><circle cx="995.88" cy="14.57" r="1.35" fill="#c99b93" opacity="0.07"/><circle cx="354.45" cy="665.07" r="1.26" fill="#2f332e" opacity="0.07"/><circle cx="1041.78" cy="330.56" r="1.15" fill="#c99b93" opacity="0.07"/><rect x="1586.26" y="526.72" width="15.64" height="2.2" rx="1" fill="#2f332e" opacity="0.07" transform="rotate(150.42 1586.26 526.72)"/><circle cx="1426.48" cy="79.73" r="0.97" fill="#2f332e" opacity="0.06"/><rect x="1100.44" y="97.02" width="16.72" height="2.09" rx="1" fill="#2f332e" opacity="0.04" transform="rotate(15.94 1100.44 97.02)"/>
  <circle cx="1350" cy="178" r="184" fill="#c99b93" opacity="0.06"/>
  <circle cx="220" cy="894" r="220" fill="#8e997f" opacity="0.08"/>
  <g transform="rotate(-5 540 425)">
    <ellipse cx="556" cy="566" rx="238.5" ry="25" fill="#1f211d" opacity="0.11"/>
    <rect x="315" y="300" width="450" height="250" rx="10" fill="#fffaf2"/>
    <rect x="333" y="318" width="414" height="214" rx="5" fill="none" stroke="#2f332e" stroke-opacity="0.11"/>
    <rect x="349" y="342" width="99" height="4" rx="2" fill="#c99b93" opacity="0.84"/>
    <text x="349" y="385" class="brand" fill="#2f332e" font-size="54">SUBSCRIBE</text>
    <text x="351" y="419" class="micro" fill="#2f332e" opacity="0.65">PRINT INSERT</text>
    <rect x="351" y="445" width="123.12" height="3" rx="2" fill="#2f332e" opacity="0.42"/><rect x="351" y="467" width="184.68" height="2" rx="2" fill="#2f332e" opacity="0.22"/><rect x="351" y="489" width="246.24" height="2" rx="2" fill="#2f332e" opacity="0.22"/><rect x="351" y="511" width="139.32" height="2" rx="2" fill="#2f332e" opacity="0.22"/><rect x="351" y="533" width="200.88" height="2" rx="2" fill="#2f332e" opacity="0.22"/>
    <circle cx="699" cy="480" r="35" fill="#c99b93" opacity="0.86"/><text x="699" y="491" text-anchor="middle" class="micro" fill="#fffaf2" font-size="20">SU</text>
  </g><g transform="rotate(5 960 415)">
    <ellipse cx="976" cy="614.4" rx="286.2" ry="39" fill="#1f211d" opacity="0.1"/>
    <rect x="690" y="220" width="540" height="390" rx="7" fill="#ddd0bb"/>
    <text x="740" y="284" class="micro" fill="#2f332e" opacity="0.25">EL</text><text x="837.2" y="284" class="micro" fill="#2f332e" opacity="0.25">EL</text><text x="934.4" y="284" class="micro" fill="#2f332e" opacity="0.25">EL</text><text x="1031.6" y="284" class="micro" fill="#2f332e" opacity="0.25">EL</text><text x="1128.8" y="284" class="micro" fill="#2f332e" opacity="0.25">EL</text><text x="740" y="369.8" class="micro" fill="#2f332e" opacity="0.25">EL</text><text x="837.2" y="369.8" class="micro" fill="#2f332e" opacity="0.25">EL</text><text x="934.4" y="369.8" class="micro" fill="#2f332e" opacity="0.25">EL</text><text x="1031.6" y="369.8" class="micro" fill="#2f332e" opacity="0.25">EL</text><text x="1128.8" y="369.8" class="micro" fill="#2f332e" opacity="0.25">EL</text><text x="740" y="455.6" class="micro" fill="#2f332e" opacity="0.25">EL</text><text x="837.2" y="455.6" class="micro" fill="#2f332e" opacity="0.25">EL</text><text x="934.4" y="455.6" class="micro" fill="#2f332e" opacity="0.25">EL</text><text x="1031.6" y="455.6" class="micro" fill="#2f332e" opacity="0.25">EL</text><text x="1128.8" y="455.6" class="micro" fill="#2f332e" opacity="0.25">EL</text><text x="740" y="541.4" class="micro" fill="#2f332e" opacity="0.25">EL</text><text x="837.2" y="541.4" class="micro" fill="#2f332e" opacity="0.25">EL</text><text x="934.4" y="541.4" class="micro" fill="#2f332e" opacity="0.25">EL</text><text x="1031.6" y="541.4" class="micro" fill="#2f332e" opacity="0.25">EL</text><text x="1128.8" y="541.4" class="micro" fill="#2f332e" opacity="0.25">EL</text>
  </g><g transform="rotate(-8 1030 702)">
    <ellipse cx="1050" cy="884.4" rx="137.8" ry="34" fill="#1f211d" opacity="0.14"/>
    <rect x="900" y="532" width="260" height="340" rx="6" fill="#fffaf2"/>
    <text x="920.8" y="583" class="brand" fill="#2f332e" font-size="39">E</text>
    <rect x="920.8" y="606.8" width="218.4" height="142.8" rx="4" fill="#ddd0bb"/>
    <path d="M 931.2 725.8 C 983.2 674.8, 1030 773.4, 1123.6 664.6" fill="none" stroke="#fffaf2" stroke-width="6" opacity="0.72"/>
    <text x="920.8" y="780.2" class="micro" fill="#2f332e" opacity="0.7">BELLY BAND</text>
    <rect x="920.8" y="804" width="61.26" height="3" rx="2" fill="#2f332e" opacity="0.42"/><rect x="920.8" y="826" width="91.88" height="2" rx="2" fill="#2f332e" opacity="0.22"/><rect x="920.8" y="848" width="122.51" height="2" rx="2" fill="#2f332e" opacity="0.22"/><rect x="920.8" y="870" width="69.32" height="2" rx="2" fill="#2f332e" opacity="0.22"/>
  </g>
  <g opacity="0.72"><text x="78" y="1004" class="micro" fill="#2f332e">CULTURE MAGAZINE SYSTEM</text><text x="78" y="1036" class="micro" fill="#2f332e" opacity="0.55">TEMPORARY DEMONSTRATION PORTFOLIO VISUAL / GALLERY-2</text></g>
</svg>
