<?xml version="1.0" encoding="UTF-8"?>
<svg xmlns="http://www.w3.org/2000/svg" width="1600" height="1100" viewBox="0 0 1600 1100" role="img" aria-labelledby="title desc">
  <title id="title">ELYSIAN gallery-3 demo portfolio mockup</title>
  <desc id="desc">Temporary fictional demonstration project imagery for portfolio presentation only, not client work.</desc>
  <defs>
    <linearGradient id="bg_elysian_gallery_3" x1="0" y1="0" x2="1" y2="1">
      <stop offset="0%" stop-color="#fffaf2"/>
      <stop offset="58%" stop-color="#f8f3eb"/>
      <stop offset="100%" stop-color="#ddd0bb"/>
    </linearGradient>
    <radialGradient id="light_elysian_gallery_3" cx="74%" cy="18%" r="64%">
      <stop offset="0%" stop-color="#ffffff" stop-opacity="0.62"/>
      <stop offset="100%" stop-color="#ffffff" stop-opacity="0"/>
    </radialGradient>
  </defs>
  <style><![CDATA[
    .brand { font-family: Georgia, Georgia, serif; font-weight: 500; letter-spacing: .02em; }
    .body { font-family: Arial, Arial, sans-serif; font-weight: 500; }
    .micro { font-family: Arial, Arial, sans-serif; font-size: 20px; font-weight: 700; letter-spacing: .12em; }
  ]]></style>
  <rect width="1600" height="1100" fill="url(#bg_elysian_gallery_3)"/>
  <rect width="1600" height="1100" fill="url(#light_elysian_gallery_3)"/>
  <rect x="400.21" y="826.65" width="6.95" height="1.9" rx="1" fill="#2f332e" opacity="0.05" transform="rotate(73.16 400.21 826.65)"/><circle cx="1238.77" cy="356.19" r="1.74" fill="#c99b93" opacity="0.06"/><circle cx="1396.75" cy="466.76" r="1.46" fill="#2f332e" opacity="0.05"/><rect x="1486.69" y="1021.56" width="10.23" height="1.88" rx="1" fill="#c99b93" opacity="0.04" transform="rotate(124.1 1486.69 1021.56)"/><rect x="1217.75" y="1020.76" width="16.18" height="1.06" rx="1" fill="#2f332e" opacity="0.03" transform="rotate(78.23 1217.75 1020.76)"/><circle cx="81.7" cy="162.18" r="1.33" fill="#2f332e" opacity="0.05"/><circle cx="1386.51" cy="338.67" r="1.39" fill="#2f332e" opacity="0.07"/><circle cx="1243.44" cy="16.8" r="1.53" fill="#c99b93" opacity="0.03"/><rect x="581.86" y="9.91" width="17" height="2.3" rx="1" fill="#2f332e" opacity="0.08" transform="rotate(43.86 581.86 9.91)"/><rect x="1189.72" y="781.49" width="20.23" height="1.21" rx="1" fill="#c99b93" opacity="0.07" transform="rotate(153.09 1189.72 781.49)"/><rect x="1295.15" y="199.23" width="10.23" height="0.95" rx="1" fill="#c99b93" opacity="0.03" transform="rotate(141.42 1295.15 199.23)"/><circle cx="588.16" cy="965.48" r="0.73" fill="#c99b93" opacity="0.04"/><circle cx="1295.88" cy="781.75" r="1.76" fill="#c99b93" opacity="0.06"/><rect x="825.78" y="467.33" width="9.72" height="1.35" rx="1" fill="#c99b93" opacity="0.07" transform="rotate(116.09 825.78 467.33)"/><rect x="1514.79" y="199.61" width="21.63" height="1.28" rx="1" fill="#c99b93" opacity="0.03" transform="rotate(75.5 1514.79 199.61)"/><circle cx="644.65" cy="721.73" r="0.97" fill="#c99b93" opacity="0.03"/><rect x="281.46" y="972.92" width="20.28" height="2.55" rx="1" fill="#c99b93" opacity="0.03" transform="rotate(52.38 281.46 972.92)"/><circle cx="1049.97" cy="439.1" r="0.7" fill="#c99b93" opacity="0.07"/><circle cx="925.5" cy="42.59" r="1.4" fill="#c99b93" opacity="0.05"/><rect x="1364.15" y="352.07" width="13.99" height="0.82" rx="1" fill="#c99b93" opacity="0.08" transform="rotate(66.75 1364.15 352.07)"/><rect x="87.29" y="69.85" width="6.81" height="1.17" rx="1" fill="#c99b93" opacity="0.04" transform="rotate(143.37 87.29 69.85)"/><rect x="1082.57" y="544.9" width="6.36" height="1.95" rx="1" fill="#2f332e" opacity="0.08" transform="rotate(88.56 1082.57 544.9)"/><rect x="637.99" y="973.96" width="27.76" height="2.12" rx="1" fill="#c99b93" opacity="0.03" transform="rotate(130.93 637.99 973.96)"/><circle cx="1452.63" cy="131.7" r="1.34" fill="#c99b93" opacity="0.03"/><rect x="602.33" y="1041.2" width="17.11" height="1.71" rx="1" fill="#2f332e" opacity="0.05" transform="rotate(158.05 602.33 1041.2)"/><rect x="498.01" y="755.23" width="10.04" height="1.1" rx="1" fill="#2f332e" opacity="0.07" transform="rotate(86.56 498.01 755.23)"/><circle cx="1354.48" cy="968.72" r="1.86" fill="#2f332e" opacity="0.03"/><rect x="155.94" y="672.74" width="11.35" height="2.17" rx="1" fill="#2f332e" opacity="0.04" transform="rotate(164.88 155.94 672.74)"/><circle cx="377.09" cy="282.7" r="1.67" fill="#2f332e" opacity="0.03"/><circle cx="88.02" cy="919.99" r="2.06" fill="#2f332e" opacity="0.03"/><circle cx="653.84" cy="388.49" r="1.15" fill="#2f332e" opacity="0.07"/><rect x="906.07" y="960.59" width="9.59" height="2.27" rx="1" fill="#2f332e" opacity="0.05" transform="rotate(177.18 906.07 960.59)"/><rect x="1235.76" y="867.48" width="13.64" height="0.98" rx="1" fill="#c99b93" opacity="0.07" transform="rotate(114.85 1235.76 867.48)"/><circle cx="636.52" cy="62.09" r="2.04" fill="#2f332e" opacity="0.05"/><rect x="120.88" y="640.94" width="12.17" height="2.04" rx="1" fill="#2f332e" opacity="0.03" transform="rotate(23.27 120.88 640.94)"/><circle cx="640.07" cy="681.69" r="1.03" fill="#2f332e" opacity="0.06"/><circle cx="443.19" cy="683.47" r="1.54" fill="#c99b93" opacity="0.07"/><rect x="1417.08" y="1007.71" width="20.09" height="2.32" rx="1" fill="#c99b93" opacity="0.03" transform="rotate(91.68 1417.08 1007.71)"/><rect x="1063.15" y="689.86" width="21.33" height="2.04" rx="1" fill="#2f332e" opacity="0.04" transform="rotate(35.02 1063.15 689.86)"/><rect x="1486.45" y="396.77" width="13.19" height="1.81" rx="1" fill="#2f332e" opacity="0.05" transform="rotate(111.89 1486.45 396.77)"/><rect x="1043.42" y="143.93" width="13.76" height="1.61" rx="1" fill="#c99b93" opacity="0.06" transform="rotate(80.29 1043.42 143.93)"/><circle cx="1239.88" cy="893.28" r="1.32" fill="#2f332e" opacity="0.05"/><rect x="156.82" y="855.89" width="8.65" height="0.93" rx="1" fill="#2f332e" opacity="0.03" transform="rotate(56.21 156.82 855.89)"/><circle cx="1479.2" cy="66.34" r="1.46" fill="#c99b93" opacity="0.07"/><rect x="1465.71" y="827.38" width="6.19" height="1.02" rx="1" fill="#2f332e" opacity="0.07" transform="rotate(132.77 1465.71 827.38)"/><rect x="1208.13" y="388.93" width="14.87" height="1.8" rx="1" fill="#c99b93" opacity="0.06" transform="rotate(16.8 1208.13 388.93)"/><rect x="1251.58" y="926.07" width="8.42" height="2.32" rx="1" fill="#2f332e" opacity="0.05" transform="rotate(162.05 1251.58 926.07)"/><rect x="981.64" y="263.84" width="13.5" height="0.86" rx="1" fill="#c99b93" opacity="0.04" transform="rotate(20.1 981.64 263.84)"/><circle cx="647.79" cy="586.65" r="1.24" fill="#c99b93" opacity="0.06"/><rect x="237.12" y="992.16" width="11.26" height="1.42" rx="1" fill="#c99b93" opacity="0.06" transform="rotate(166.75 237.12 992.16)"/><rect x="1542.93" y="256.28" width="9.67" height="2.24" rx="1" fill="#c99b93" opacity="0.06" transform="rotate(55.29 1542.93 256.28)"/><rect x="1236.8" y="164.75" width="20.07" height="1.99" rx="1" fill="#c99b93" opacity="0.06" transform="rotate(135.82 1236.8 164.75)"/><rect x="530.41" y="309.81" width="25.93" height="2.34" rx="1" fill="#c99b93" opacity="0.07" transform="rotate(126.45 530.41 309.81)"/><circle cx="102.41" cy="134.54" r="1.94" fill="#2f332e" opacity="0.05"/><circle cx="189.02" cy="611.98" r="1.15" fill="#2f332e" opacity="0.06"/><circle cx="296.85" cy="923.08" r="1.03" fill="#2f332e" opacity="0.06"/><circle cx="399.75" cy="749.01" r="1.99" fill="#c99b93" opacity="0.03"/><circle cx="83.05" cy="473.43" r="1.95" fill="#2f332e" opacity="0.07"/><rect x="905.69" y="591.8" width="17.08" height="2.58" rx="1" fill="#2f332e" opacity="0.08" transform="rotate(120.55 905.69 591.8)"/><rect x="674.21" y="475.51" width="27.9" height="2.47" rx="1" fill="#c99b93" opacity="0.08" transform="rotate(125.81 674.21 475.51)"/><circle cx="1051.25" cy="93.53" r="0.81" fill="#2f332e" opacity="0.04"/><rect x="1288.22" y="663.8" width="8.08" height="1.27" rx="1" fill="#c99b93" opacity="0.05" transform="rotate(46.96 1288.22 663.8)"/><circle cx="1293.96" cy="183.58" r="2.19" fill="#2f332e" opacity="0.08"/><rect x="105.64" y="145.97" width="15.66" height="1.12" rx="1" fill="#c99b93" opacity="0.07" transform="rotate(81.65 105.64 145.97)"/><rect x="891.69" y="442.55" width="18.84" height="1.7" rx="1" fill="#2f332e" opacity="0.07" transform="rotate(32.98 891.69 442.55)"/><circle cx="141.27" cy="515.58" r="1.37" fill="#c99b93" opacity="0.05"/><rect x="319.87" y="1018.19" width="11.08" height="1.51" rx="1" fill="#2f332e" opacity="0.05" transform="rotate(5.58 319.87 1018.19)"/><rect x="1188.91" y="467.16" width="25.19" height="1.33" rx="1" fill="#c99b93" opacity="0.07" transform="rotate(118.36 1188.91 467.16)"/><rect x="830.02" y="940.5" width="27.35" height="2.01" rx="1" fill="#2f332e" opacity="0.06" transform="rotate(87.26 830.02 940.5)"/><rect x="628.28" y="10.81" width="10.33" height="0.94" rx="1" fill="#2f332e" opacity="0.03" transform="rotate(92.88 628.28 10.81)"/><circle cx="1440.01" cy="648.83" r="0.92" fill="#c99b93" opacity="0.08"/><rect x="191.31" y="703.29" width="20.19" height="1.29" rx="1" fill="#c99b93" opacity="0.07" transform="rotate(116.53 191.31 703.29)"/><rect x="1487.3" y="88.43" width="17.34" height="1.71" rx="1" fill="#2f332e" opacity="0.07" transform="rotate(136.86 1487.3 88.43)"/><rect x="266.2" y="234.39" width="18.91" height="1.37" rx="1" fill="#c99b93" opacity="0.05" transform="rotate(140.57 266.2 234.39)"/><rect x="1323.22" y="327.77" width="25.86" height="1.67" rx="1" fill="#2f332e" opacity="0.04" transform="rotate(80.5 1323.22 327.77)"/><circle cx="1372.77" cy="492.61" r="0.74" fill="#c99b93" opacity="0.03"/><rect x="929.44" y="306.58" width="12.26" height="2.32" rx="1" fill="#c99b93" opacity="0.03" transform="rotate(148.49 929.44 306.58)"/><rect x="1422.08" y="30.84" width="9.8" height="2.5" rx="1" fill="#c99b93" opacity="0.03" transform="rotate(43.84 1422.08 30.84)"/><rect x="1294.61" y="1019.77" width="17.82" height="1.96" rx="1" fill="#2f332e" opacity="0.03" transform="rotate(93.4 1294.61 1019.77)"/><rect x="860.27" y="1080.93" width="11.97" height="2.19" rx="1" fill="#2f332e" opacity="0.07" transform="rotate(78.9 860.27 1080.93)"/><circle cx="549.54" cy="469.25" r="1.56" fill="#2f332e" opacity="0.07"/><circle cx="796.81" cy="600.08" r="1.25" fill="#c99b93" opacity="0.07"/><circle cx="1532.49" cy="888.5" r="1.64" fill="#2f332e" opacity="0.03"/><rect x="959.05" y="90.94" width="10.95" height="1.96" rx="1" fill="#2f332e" opacity="0.07" transform="rotate(130.05 959.05 90.94)"/><circle cx="1307.71" cy="96.35" r="1.38" fill="#2f332e" opacity="0.05"/><rect x="1177.25" y="455.55" width="23.09" height="2.58" rx="1" fill="#2f332e" opacity="0.07" transform="rotate(163.69 1177.25 455.55)"/><rect x="391.51" y="582.99" width="12.99" height="1.83" rx="1" fill="#2f332e" opacity="0.04" transform="rotate(99.35 391.51 582.99)"/><rect x="117.12" y="532.22" width="20.7" height="2.38" rx="1" fill="#c99b93" opacity="0.08" transform="rotate(23.89 117.12 532.22)"/><rect x="244.37" y="377.73" width="10.66" height="0.93" rx="1" fill="#c99b93" opacity="0.04" transform="rotate(84.41 244.37 377.73)"/><rect x="886.98" y="1092.83" width="15.65" height="2.02" rx="1" fill="#2f332e" opacity="0.04" transform="rotate(32.06 886.98 1092.83)"/><rect x="661.24" y="515.68" width="11.56" height="2.1" rx="1" fill="#2f332e" opacity="0.06" transform="rotate(130.03 661.24 515.68)"/><rect x="139.41" y="626.6" width="17.58" height="2.26" rx="1" fill="#c99b93" opacity="0.04" transform="rotate(88.64 139.41 626.6)"/><rect x="639.45" y="1077.47" width="16.73" height="0.83" rx="1" fill="#c99b93" opacity="0.04" transform="rotate(33.91 639.45 1077.47)"/><rect x="461.04" y="211.52" width="16.07" height="2.5" rx="1" fill="#c99b93" opacity="0.06" transform="rotate(152.95 461.04 211.52)"/><rect x="1125.04" y="269.04" width="25.23" height="1.55" rx="1" fill="#2f332e" opacity="0.04" transform="rotate(66.42 1125.04 269.04)"/><rect x="396.35" y="95.49" width="6.85" height="0.96" rx="1" fill="#2f332e" opacity="0.04" transform="rotate(120 396.35 95.49)"/><rect x="159.77" y="969.52" width="7.4" height="2.11" rx="1" fill="#2f332e" opacity="0.08" transform="rotate(121.96 159.77 969.52)"/><rect x="1377.93" y="833.36" width="13.31" height="0.98" rx="1" fill="#c99b93" opacity="0.04" transform="rotate(60.14 1377.93 833.36)"/><circle cx="639.65" cy="998.86" r="1.69" fill="#c99b93" opacity="0.05"/><circle cx="1164.74" cy="392.73" r="1.43" fill="#2f332e" opacity="0.05"/><rect x="1141.32" y="851.51" width="22.97" height="0.95" rx="1" fill="#2f332e" opacity="0.07" transform="rotate(135.71 1141.32 851.51)"/><rect x="1521.66" y="563.65" width="10.91" height="0.89" rx="1" fill="#c99b93" opacity="0.05" transform="rotate(114.9 1521.66 563.65)"/><rect x="651.8" y="337.11" width="25.52" height="1" rx="1" fill="#c99b93" opacity="0.05" transform="rotate(46.55 651.8 337.11)"/><circle cx="1060.72" cy="1058.16" r="1.71" fill="#2f332e" opacity="0.04"/><rect x="235.28" y="354.34" width="25.54" height="2.12" rx="1" fill="#c99b93" opacity="0.03" transform="rotate(130.93 235.28 354.34)"/><rect x="1594.66" y="323.76" width="6.27" height="2.38" rx="1" fill="#2f332e" opacity="0.04" transform="rotate(153.07 1594.66 323.76)"/><circle cx="1246.62" cy="278" r="2.19" fill="#c99b93" opacity="0.05"/><circle cx="1326.59" cy="803.09" r="1.4" fill="#c99b93" opacity="0.05"/><circle cx="1381" cy="964.45" r="1.12" fill="#2f332e" opacity="0.05"/><circle cx="137.86" cy="842.11" r="2.06" fill="#2f332e" opacity="0.04"/><circle cx="602.58" cy="534.33" r="1.32" fill="#2f332e" opacity="0.05"/><rect x="78.46" y="27.83" width="24.08" height="2.38" rx="1" fill="#c99b93" opacity="0.07" transform="rotate(21.38 78.46 27.83)"/><rect x="793.7" y="976.98" width="26.27" height="1.45" rx="1" fill="#2f332e" opacity="0.03" transform="rotate(165.25 793.7 976.98)"/><rect x="1546.31" y="430.93" width="8" height="1.63" rx="1" fill="#2f332e" opacity="0.06" transform="rotate(114.86 1546.31 430.93)"/><rect x="1375.79" y="743.82" width="12.66" height="0.93" rx="1" fill="#c99b93" opacity="0.03" transform="rotate(135 1375.79 743.82)"/><rect x="1513.13" y="613.25" width="26.14" height="2.31" rx="1" fill="#c99b93" opacity="0.08" transform="rotate(25.08 1513.13 613.25)"/><rect x="870.26" y="544.31" width="15.94" height="2.11" rx="1" fill="#2f332e" opacity="0.05" transform="rotate(12.36 870.26 544.31)"/><rect x="163.96" y="987.21" width="7.91" height="1.84" rx="1" fill="#c99b93" opacity="0.06" transform="rotate(147.49 163.96 987.21)"/><circle cx="506.83" cy="77.33" r="1.59" fill="#2f332e" opacity="0.06"/><rect x="1312.07" y="963.37" width="17.91" height="0.85" rx="1" fill="#c99b93" opacity="0.05" transform="rotate(156.05 1312.07 963.37)"/><rect x="570.06" y="700.23" width="10.36" height="1.41" rx="1" fill="#c99b93" opacity="0.04" transform="rotate(132.65 570.06 700.23)"/><circle cx="1144.98" cy="413.17" r="1.26" fill="#2f332e" opacity="0.04"/><circle cx="1208.2" cy="351.82" r="1.39" fill="#2f332e" opacity="0.04"/><rect x="1244.74" y="125.77" width="27.73" height="2.48" rx="1" fill="#c99b93" opacity="0.04" transform="rotate(128.65 1244.74 125.77)"/><circle cx="391.8" cy="376.61" r="2.13" fill="#c99b93" opacity="0.07"/><rect x="1436.9" y="178" width="11.72" height="2.42" rx="1" fill="#c99b93" opacity="0.08" transform="rotate(51.09 1436.9 178)"/><circle cx="995.86" cy="678.58" r="1.73" fill="#c99b93" opacity="0.04"/><circle cx="855.31" cy="718.66" r="2.17" fill="#2f332e" opacity="0.07"/><rect x="137.76" y="379.25" width="14.89" height="2.35" rx="1" fill="#2f332e" opacity="0.08" transform="rotate(93.9 137.76 379.25)"/><rect x="1461.73" y="707.19" width="13.81" height="2.02" rx="1" fill="#2f332e" opacity="0.08" transform="rotate(153.47 1461.73 707.19)"/><rect x="1339.1" y="1062.44" width="23.22" height="2.09" rx="1" fill="#2f332e" opacity="0.03" transform="rotate(68.41 1339.1 1062.44)"/><circle cx="1446.56" cy="593.81" r="1.91" fill="#c99b93" opacity="0.05"/><rect x="170.7" y="833.25" width="22.48" height="1.12" rx="1" fill="#2f332e" opacity="0.03" transform="rotate(46.79 170.7 833.25)"/><circle cx="266.15" cy="206.17" r="2.13" fill="#2f332e" opacity="0.03"/><rect x="832.86" y="79.83" width="14.18" height="1.63" rx="1" fill="#c99b93" opacity="0.07" transform="rotate(89.38 832.86 79.83)"/><circle cx="782.86" cy="876.02" r="1.64" fill="#c99b93" opacity="0.03"/><rect x="559" y="600.31" width="24.26" height="2.02" rx="1" fill="#2f332e" opacity="0.06" transform="rotate(108.91 559 600.31)"/><rect x="261.65" y="541.39" width="16.45" height="1.41" rx="1" fill="#2f332e" opacity="0.07" transform="rotate(89.16 261.65 541.39)"/><rect x="1373.48" y="1099.98" width="25.31" height="0.89" rx="1" fill="#2f332e" opacity="0.04" transform="rotate(159.84 1373.48 1099.98)"/><circle cx="87.58" cy="762.7" r="1.05" fill="#2f332e" opacity="0.06"/>
  <circle cx="1350" cy="178" r="184" fill="#c99b93" opacity="0.06"/>
  <circle cx="220" cy="894" r="220" fill="#8e997f" opacity="0.08"/>
  <g transform="rotate(-5 440 445)">
    <ellipse cx="452" cy="642.4" rx="174.9" ry="39" fill="#1f211d" opacity="0.09"/>
    <rect x="275" y="250" width="330" height="390" rx="14" fill="#fffaf2"/>
    <rect x="297" y="272" width="286" height="187.2" rx="10" fill="#8e997f"/>
    <text x="299" y="507.4" class="brand" fill="#2f332e" font-size="29.7">QUOTE</text>
    <rect x="299" y="538.6" width="85.27" height="3" rx="2" fill="#2f332e" opacity="0.42"/><rect x="299" y="560.6" width="127.91" height="2" rx="2" fill="#2f332e" opacity="0.22"/><rect x="299" y="582.6" width="170.54" height="2" rx="2" fill="#2f332e" opacity="0.22"/>
  </g><g transform="rotate(4 775 585)">
    <ellipse cx="787" cy="782.4" rx="174.9" ry="39" fill="#1f211d" opacity="0.09"/>
    <rect x="610" y="390" width="330" height="390" rx="14" fill="#fffaf2"/>
    <rect x="632" y="412" width="286" height="187.2" rx="10" fill="#ddd0bb"/>
    <text x="634" y="647.4" class="brand" fill="#2f332e" font-size="29.7">ISSUE 01</text>
    <rect x="634" y="678.6" width="85.27" height="3" rx="2" fill="#2f332e" opacity="0.42"/><rect x="634" y="700.6" width="127.91" height="2" rx="2" fill="#2f332e" opacity="0.22"/><rect x="634" y="722.6" width="170.54" height="2" rx="2" fill="#2f332e" opacity="0.22"/>
  </g><g transform="rotate(-2 1115 430)">
    <ellipse cx="1127" cy="627.4" rx="174.9" ry="39" fill="#1f211d" opacity="0.09"/>
    <rect x="950" y="235" width="330" height="390" rx="14" fill="#fffaf2"/>
    <rect x="972" y="257" width="286" height="187.2" rx="10" fill="#c99b93"/>
    <text x="974" y="492.4" class="brand" fill="#2f332e" font-size="29.7">FEATURE</text>
    <rect x="974" y="523.6" width="85.27" height="3" rx="2" fill="#2f332e" opacity="0.42"/><rect x="974" y="545.6" width="127.91" height="2" rx="2" fill="#2f332e" opacity="0.22"/><rect x="974" y="567.6" width="170.54" height="2" rx="2" fill="#2f332e" opacity="0.22"/>
  </g>
  <g opacity="0.72"><text x="78" y="1004" class="micro" fill="#2f332e">CULTURE MAGAZINE SYSTEM</text><text x="78" y="1036" class="micro" fill="#2f332e" opacity="0.55">TEMPORARY DEMONSTRATION PORTFOLIO VISUAL / GALLERY-3</text></g>
</svg>
