<?xml version="1.0" encoding="UTF-8"?>
<svg xmlns="http://www.w3.org/2000/svg" width="1600" height="1100" viewBox="0 0 1600 1100" role="img" aria-labelledby="title desc">
  <title id="title">ELYSIAN hero demo portfolio mockup</title>
  <desc id="desc">Temporary fictional demonstration project imagery for portfolio presentation only, not client work.</desc>
  <defs>
    <linearGradient id="bg_elysian_hero" x1="0" y1="0" x2="1" y2="1">
      <stop offset="0%" stop-color="#fffaf2"/>
      <stop offset="58%" stop-color="#f8f3eb"/>
      <stop offset="100%" stop-color="#ddd0bb"/>
    </linearGradient>
    <radialGradient id="light_elysian_hero" cx="74%" cy="18%" r="64%">
      <stop offset="0%" stop-color="#ffffff" stop-opacity="0.62"/>
      <stop offset="100%" stop-color="#ffffff" stop-opacity="0"/>
    </radialGradient>
  </defs>
  <style><![CDATA[
    .brand { font-family: Georgia, Georgia, serif; font-weight: 500; letter-spacing: .02em; }
    .body { font-family: Arial, Arial, sans-serif; font-weight: 500; }
    .micro { font-family: Arial, Arial, sans-serif; font-size: 20px; font-weight: 700; letter-spacing: .12em; }
  ]]></style>
  <rect width="1600" height="1100" fill="url(#bg_elysian_hero)"/>
  <rect width="1600" height="1100" fill="url(#light_elysian_hero)"/>
  <rect x="1570.36" y="39.98" width="21.92" height="2.14" rx="1" fill="#2f332e" opacity="0.06" transform="rotate(165.31 1570.36 39.98)"/><rect x="1023.16" y="733.56" width="9.93" height="2.08" rx="1" fill="#c99b93" opacity="0.06" transform="rotate(47.57 1023.16 733.56)"/><rect x="1269.55" y="997.76" width="15.31" height="1.95" rx="1" fill="#c99b93" opacity="0.05" transform="rotate(85.31 1269.55 997.76)"/><rect x="760.99" y="697.91" width="25.17" height="1.46" rx="1" fill="#c99b93" opacity="0.05" transform="rotate(165.19 760.99 697.91)"/><rect x="415.99" y="581.54" width="22.6" height="2.15" rx="1" fill="#c99b93" opacity="0.07" transform="rotate(129.84 415.99 581.54)"/><circle cx="242.14" cy="264.32" r="1.6" fill="#2f332e" opacity="0.04"/><rect x="991.12" y="316.19" width="26.03" height="0.92" rx="1" fill="#c99b93" opacity="0.07" transform="rotate(2.27 991.12 316.19)"/><rect x="236" y="288.51" width="14.28" height="1.87" rx="1" fill="#c99b93" opacity="0.05" transform="rotate(1.12 236 288.51)"/><circle cx="731.46" cy="848.21" r="1.47" fill="#2f332e" opacity="0.08"/><rect x="142.22" y="370.8" width="22.94" height="0.83" rx="1" fill="#c99b93" opacity="0.04" transform="rotate(145.64 142.22 370.8)"/><circle cx="411.15" cy="59.06" r="0.71" fill="#c99b93" opacity="0.04"/><rect x="1195.34" y="527.19" width="23.86" height="2.45" rx="1" fill="#2f332e" opacity="0.05" transform="rotate(126.64 1195.34 527.19)"/><rect x="49.5" y="723.26" width="10.65" height="1.14" rx="1" fill="#c99b93" opacity="0.05" transform="rotate(65.64 49.5 723.26)"/><circle cx="326.61" cy="338.86" r="1.96" fill="#2f332e" opacity="0.06"/><rect x="874.91" y="846.43" width="24.61" height="1.87" rx="1" fill="#2f332e" opacity="0.04" transform="rotate(113.01 874.91 846.43)"/><rect x="1416" y="942.87" width="10.4" height="1.55" rx="1" fill="#2f332e" opacity="0.04" transform="rotate(33.08 1416 942.87)"/><circle cx="1230.39" cy="418.21" r="2.16" fill="#c99b93" opacity="0.06"/><circle cx="818.94" cy="515.95" r="0.82" fill="#c99b93" opacity="0.04"/><rect x="1146.01" y="255.14" width="22.76" height="2.16" rx="1" fill="#2f332e" opacity="0.05" transform="rotate(165.87 1146.01 255.14)"/><rect x="1095.97" y="500.46" width="21.9" height="2.55" rx="1" fill="#2f332e" opacity="0.04" transform="rotate(28.38 1095.97 500.46)"/><rect x="130.65" y="360.89" width="6.62" height="1.63" rx="1" fill="#c99b93" opacity="0.03" transform="rotate(12 130.65 360.89)"/><rect x="1558.84" y="516.27" width="8.33" height="1.4" rx="1" fill="#c99b93" opacity="0.03" transform="rotate(137.19 1558.84 516.27)"/><rect x="1310.97" y="913.18" width="23.97" height="2.4" rx="1" fill="#c99b93" opacity="0.06" transform="rotate(164.89 1310.97 913.18)"/><circle cx="1484.07" cy="683.74" r="1.14" fill="#2f332e" opacity="0.05"/><rect x="1117.21" y="52.2" width="26.59" height="1.56" rx="1" fill="#c99b93" opacity="0.03" transform="rotate(7.9 1117.21 52.2)"/><circle cx="707.39" cy="1038" r="1.12" fill="#c99b93" opacity="0.03"/><rect x="345.82" y="522.54" width="15.87" height="2.48" rx="1" fill="#c99b93" opacity="0.08" transform="rotate(12.39 345.82 522.54)"/><rect x="503.78" y="186.86" width="6.38" height="1.83" rx="1" fill="#2f332e" opacity="0.08" transform="rotate(154.92 503.78 186.86)"/><circle cx="424.82" cy="1034.1" r="1.11" fill="#c99b93" opacity="0.07"/><rect x="1524.66" y="455.45" width="19.94" height="1.4" rx="1" fill="#c99b93" opacity="0.06" transform="rotate(52.84 1524.66 455.45)"/><rect x="1498.84" y="490.92" width="6.46" height="0.85" rx="1" fill="#2f332e" opacity="0.03" transform="rotate(4.78 1498.84 490.92)"/><circle cx="491.36" cy="642.92" r="1.12" fill="#2f332e" opacity="0.06"/><rect x="967.07" y="406.64" width="11.56" height="1.22" rx="1" fill="#2f332e" opacity="0.03" transform="rotate(176.33 967.07 406.64)"/><rect x="330.5" y="940.67" width="9.75" height="2.4" rx="1" fill="#c99b93" opacity="0.07" transform="rotate(74.85 330.5 940.67)"/><rect x="1240.83" y="278.16" width="26.13" height="1.26" rx="1" fill="#2f332e" opacity="0.04" transform="rotate(150.92 1240.83 278.16)"/><circle cx="1356.48" cy="1066.64" r="1.36" fill="#c99b93" opacity="0.04"/><circle cx="1385.6" cy="614.39" r="0.92" fill="#2f332e" opacity="0.08"/><rect x="1388.47" y="610.54" width="25.28" height="0.97" rx="1" fill="#2f332e" opacity="0.06" transform="rotate(138.32 1388.47 610.54)"/><rect x="590.6" y="535.94" width="9.33" height="0.88" rx="1" fill="#c99b93" opacity="0.07" transform="rotate(7.72 590.6 535.94)"/><rect x="539.24" y="482.96" width="27.05" height="2.05" rx="1" fill="#c99b93" opacity="0.03" transform="rotate(55.44 539.24 482.96)"/><rect x="1451.72" y="286.56" width="9.83" height="0.9" rx="1" fill="#2f332e" opacity="0.04" transform="rotate(28.19 1451.72 286.56)"/><rect x="1213.33" y="813.64" width="26.01" height="2.09" rx="1" fill="#2f332e" opacity="0.03" transform="rotate(53.67 1213.33 813.64)"/><rect x="947.44" y="1039.83" width="18.65" height="0.98" rx="1" fill="#c99b93" opacity="0.04" transform="rotate(100.04 947.44 1039.83)"/><circle cx="1205.71" cy="441.89" r="1.96" fill="#c99b93" opacity="0.06"/><circle cx="908.34" cy="645.55" r="2.21" fill="#2f332e" opacity="0.07"/><rect x="324.51" y="69.62" width="23.82" height="0.85" rx="1" fill="#2f332e" opacity="0.08" transform="rotate(72.94 324.51 69.62)"/><rect x="227.66" y="945.75" width="24.47" height="2.34" rx="1" fill="#c99b93" opacity="0.06" transform="rotate(38.37 227.66 945.75)"/><circle cx="1464.31" cy="496.66" r="1.53" fill="#2f332e" opacity="0.07"/><rect x="796.95" y="952.01" width="13.21" height="1.19" rx="1" fill="#c99b93" opacity="0.03" transform="rotate(76.13 796.95 952.01)"/><circle cx="1335.14" cy="1087.33" r="0.9" fill="#2f332e" opacity="0.06"/><rect x="1266.27" y="861.78" width="12.37" height="0.92" rx="1" fill="#c99b93" opacity="0.06" transform="rotate(14.09 1266.27 861.78)"/><circle cx="651.11" cy="99.29" r="1.04" fill="#2f332e" opacity="0.06"/><circle cx="375.63" cy="918.28" r="1.42" fill="#2f332e" opacity="0.03"/><rect x="1368.29" y="944.91" width="26.84" height="0.81" rx="1" fill="#c99b93" opacity="0.04" transform="rotate(4.03 1368.29 944.91)"/><circle cx="1058.5" cy="200.52" r="1.71" fill="#2f332e" opacity="0.04"/><rect x="314.91" y="302.82" width="26.25" height="1.58" rx="1" fill="#2f332e" opacity="0.06" transform="rotate(144.97 314.91 302.82)"/><rect x="1498.41" y="1027.3" width="14.83" height="2.49" rx="1" fill="#c99b93" opacity="0.05" transform="rotate(25.27 1498.41 1027.3)"/><circle cx="1191.94" cy="1078.32" r="1.33" fill="#c99b93" opacity="0.06"/><circle cx="994.07" cy="1057.45" r="1.4" fill="#2f332e" opacity="0.07"/><circle cx="658.38" cy="110.48" r="1.14" fill="#2f332e" opacity="0.04"/><circle cx="973.45" cy="252.19" r="1.28" fill="#2f332e" opacity="0.03"/><rect x="1432.14" y="563.89" width="9.84" height="1.61" rx="1" fill="#2f332e" opacity="0.03" transform="rotate(170.09 1432.14 563.89)"/><rect x="426.34" y="792.61" width="20.38" height="2.12" rx="1" fill="#c99b93" opacity="0.05" transform="rotate(52.71 426.34 792.61)"/><rect x="258.49" y="153.08" width="27.94" height="1.32" rx="1" fill="#c99b93" opacity="0.05" transform="rotate(36.9 258.49 153.08)"/><rect x="1592.53" y="422.83" width="26.29" height="2.14" rx="1" fill="#c99b93" opacity="0.06" transform="rotate(179.49 1592.53 422.83)"/><rect x="65.63" y="105.67" width="26.23" height="1.84" rx="1" fill="#c99b93" opacity="0.05" transform="rotate(122.33 65.63 105.67)"/><rect x="1453.35" y="422.7" width="17.76" height="2.47" rx="1" fill="#c99b93" opacity="0.04" transform="rotate(106.75 1453.35 422.7)"/><rect x="916.03" y="374.68" width="26.67" height="2.55" rx="1" fill="#c99b93" opacity="0.08" transform="rotate(101.33 916.03 374.68)"/><rect x="1578.54" y="866.2" width="20.73" height="1.44" rx="1" fill="#2f332e" opacity="0.05" transform="rotate(139.86 1578.54 866.2)"/><rect x="790.56" y="601.91" width="16.19" height="1.88" rx="1" fill="#c99b93" opacity="0.04" transform="rotate(11.81 790.56 601.91)"/><circle cx="81.19" cy="674.62" r="2.14" fill="#2f332e" opacity="0.05"/><circle cx="128.56" cy="246.3" r="1.75" fill="#c99b93" opacity="0.07"/><circle cx="77.3" cy="372.01" r="0.96" fill="#c99b93" opacity="0.07"/><circle cx="181.08" cy="982.05" r="2" fill="#2f332e" opacity="0.05"/><rect x="766.53" y="559.11" width="27.63" height="1.48" rx="1" fill="#c99b93" opacity="0.03" transform="rotate(13.36 766.53 559.11)"/><circle cx="256.72" cy="550.37" r="1.84" fill="#2f332e" opacity="0.07"/><rect x="1175.22" y="202.09" width="19.1" height="2.12" rx="1" fill="#2f332e" opacity="0.08" transform="rotate(19.59 1175.22 202.09)"/><circle cx="26.83" cy="762.14" r="1.54" fill="#c99b93" opacity="0.03"/><circle cx="1557.63" cy="377.52" r="2.22" fill="#2f332e" opacity="0.03"/><rect x="1364.83" y="638.8" width="16.78" height="1.06" rx="1" fill="#2f332e" opacity="0.06" transform="rotate(57.31 1364.83 638.8)"/><rect x="1433.13" y="57.69" width="6.93" height="2.44" rx="1" fill="#c99b93" opacity="0.07" transform="rotate(43.51 1433.13 57.69)"/><rect x="1554.95" y="1000.44" width="17.04" height="2.07" rx="1" fill="#2f332e" opacity="0.08" transform="rotate(45.06 1554.95 1000.44)"/><rect x="899.9" y="983.02" width="18.72" height="0.81" rx="1" fill="#2f332e" opacity="0.07" transform="rotate(127.21 899.9 983.02)"/><rect x="701.63" y="843.11" width="12.68" height="0.93" rx="1" fill="#c99b93" opacity="0.03" transform="rotate(179.04 701.63 843.11)"/><rect x="892.19" y="497.01" width="21.05" height="2.38" rx="1" fill="#2f332e" opacity="0.03" transform="rotate(157.74 892.19 497.01)"/><circle cx="693.61" cy="115.42" r="2.28" fill="#2f332e" opacity="0.07"/><rect x="1143.53" y="37.35" width="13.23" height="0.93" rx="1" fill="#2f332e" opacity="0.07" transform="rotate(109.71 1143.53 37.35)"/><circle cx="1467.97" cy="938.07" r="2.07" fill="#c99b93" opacity="0.06"/><circle cx="735.7" cy="738.56" r="1.63" fill="#2f332e" opacity="0.05"/><rect x="529.05" y="856.67" width="10.34" height="2.5" rx="1" fill="#2f332e" opacity="0.03" transform="rotate(52.67 529.05 856.67)"/><circle cx="149.75" cy="866.13" r="1.71" fill="#c99b93" opacity="0.03"/><circle cx="328.4" cy="205.71" r="1.22" fill="#2f332e" opacity="0.05"/><circle cx="1462.03" cy="638.88" r="2.01" fill="#c99b93" opacity="0.06"/><circle cx="192.48" cy="1051.99" r="1.3" fill="#2f332e" opacity="0.07"/><rect x="1018.39" y="1016.47" width="7.27" height="2.52" rx="1" fill="#2f332e" opacity="0.07" transform="rotate(97.58 1018.39 1016.47)"/><circle cx="1311.81" cy="863.16" r="1.52" fill="#2f332e" opacity="0.03"/><circle cx="847.51" cy="596.06" r="2.12" fill="#2f332e" opacity="0.04"/><circle cx="1071.79" cy="758.42" r="1.45" fill="#2f332e" opacity="0.06"/><circle cx="1295.52" cy="993.71" r="1.57" fill="#c99b93" opacity="0.06"/><rect x="833.4" y="243.77" width="20.17" height="0.96" rx="1" fill="#2f332e" opacity="0.07" transform="rotate(32.9 833.4 243.77)"/><rect x="256.96" y="423.2" width="24.59" height="1.1" rx="1" fill="#2f332e" opacity="0.07" transform="rotate(137.09 256.96 423.2)"/><circle cx="1316.05" cy="1034.84" r="0.79" fill="#c99b93" opacity="0.06"/><circle cx="1374.11" cy="504.08" r="0.8" fill="#c99b93" opacity="0.07"/><circle cx="1385.64" cy="234.75" r="1.68" fill="#c99b93" opacity="0.06"/><rect x="1191.46" y="745.07" width="11.16" height="2.48" rx="1" fill="#c99b93" opacity="0.05" transform="rotate(14.25 1191.46 745.07)"/><circle cx="338.41" cy="422.32" r="1.59" fill="#c99b93" opacity="0.04"/><circle cx="1102.23" cy="279.14" r="2.05" fill="#2f332e" opacity="0.04"/><circle cx="1219.09" cy="356.87" r="1.16" fill="#c99b93" opacity="0.08"/><rect x="428.07" y="929.07" width="23.13" height="1.12" rx="1" fill="#c99b93" opacity="0.03" transform="rotate(143.25 428.07 929.07)"/><rect x="909.93" y="735.74" width="17.86" height="2.14" rx="1" fill="#2f332e" opacity="0.05" transform="rotate(164.51 909.93 735.74)"/><circle cx="1413.84" cy="404.42" r="1.52" fill="#c99b93" opacity="0.03"/><rect x="731.54" y="802.36" width="23.89" height="1.51" rx="1" fill="#2f332e" opacity="0.06" transform="rotate(37.31 731.54 802.36)"/><rect x="200.2" y="403.41" width="12.42" height="2.5" rx="1" fill="#c99b93" opacity="0.06" transform="rotate(2.68 200.2 403.41)"/><rect x="767.18" y="972.41" width="15.46" height="1.87" rx="1" fill="#2f332e" opacity="0.05" transform="rotate(140.45 767.18 972.41)"/><rect x="833.38" y="387.84" width="14.01" height="1.37" rx="1" fill="#c99b93" opacity="0.08" transform="rotate(173.93 833.38 387.84)"/><circle cx="1026.8" cy="155.01" r="0.72" fill="#2f332e" opacity="0.03"/><rect x="431.73" y="770.85" width="6.89" height="1.81" rx="1" fill="#2f332e" opacity="0.03" transform="rotate(10.34 431.73 770.85)"/><rect x="615.63" y="580" width="17.53" height="0.99" rx="1" fill="#c99b93" opacity="0.04" transform="rotate(50.92 615.63 580)"/><rect x="1485.77" y="66.53" width="22.23" height="2.56" rx="1" fill="#2f332e" opacity="0.07" transform="rotate(35.5 1485.77 66.53)"/><rect x="715.23" y="818.01" width="18.89" height="2.52" rx="1" fill="#c99b93" opacity="0.06" transform="rotate(113.49 715.23 818.01)"/><rect x="908.72" y="313.28" width="24" height="2.01" rx="1" fill="#c99b93" opacity="0.05" transform="rotate(58.67 908.72 313.28)"/><rect x="144" y="953.14" width="26.15" height="1.1" rx="1" fill="#c99b93" opacity="0.04" transform="rotate(60.36 144 953.14)"/><rect x="1571.31" y="567.64" width="13.26" height="1.9" rx="1" fill="#2f332e" opacity="0.05" transform="rotate(131.06 1571.31 567.64)"/><rect x="714.72" y="638.11" width="26.68" height="2.52" rx="1" fill="#2f332e" opacity="0.05" transform="rotate(138.67 714.72 638.11)"/><rect x="1145.54" y="705.96" width="18.96" height="2.43" rx="1" fill="#2f332e" opacity="0.06" transform="rotate(15.8 1145.54 705.96)"/><rect x="748.4" y="116.19" width="13.52" height="0.97" rx="1" fill="#c99b93" opacity="0.05" transform="rotate(12.75 748.4 116.19)"/><circle cx="1005.78" cy="381.73" r="1.57" fill="#c99b93" opacity="0.03"/><rect x="433.65" y="1050.45" width="27.98" height="0.99" rx="1" fill="#c99b93" opacity="0.07" transform="rotate(48.04 433.65 1050.45)"/><rect x="614.2" y="620.39" width="21.19" height="1.08" rx="1" fill="#2f332e" opacity="0.05" transform="rotate(146.65 614.2 620.39)"/><rect x="1111.92" y="348.89" width="16.76" height="1.84" rx="1" fill="#2f332e" opacity="0.06" transform="rotate(161.83 1111.92 348.89)"/><rect x="1074.97" y="649.96" width="12.79" height="2.1" rx="1" fill="#c99b93" opacity="0.07" transform="rotate(50.74 1074.97 649.96)"/><circle cx="579.19" cy="144.3" r="1.3" fill="#c99b93" opacity="0.05"/><rect x="1176.54" y="185.05" width="18.32" height="1.06" rx="1" fill="#2f332e" opacity="0.05" transform="rotate(143.91 1176.54 185.05)"/><rect x="554" y="184.72" width="27.9" height="1.6" rx="1" fill="#2f332e" opacity="0.07" transform="rotate(4.95 554 184.72)"/><circle cx="346.54" cy="75.48" r="1.14" fill="#c99b93" opacity="0.04"/><rect x="966.96" y="55.98" width="11.29" height="2.4" rx="1" fill="#c99b93" opacity="0.03" transform="rotate(95.68 966.96 55.98)"/><rect x="752.49" y="1019.81" width="11.84" height="1.79" rx="1" fill="#2f332e" opacity="0.07" transform="rotate(177.85 752.49 1019.81)"/><rect x="478.53" y="1020.1" width="17.58" height="1.72" rx="1" fill="#2f332e" opacity="0.08" transform="rotate(97.24 478.53 1020.1)"/><rect x="663.12" y="926.54" width="12.99" height="2.49" rx="1" fill="#2f332e" opacity="0.03" transform="rotate(142.53 663.12 926.54)"/><circle cx="1503.79" cy="426.14" r="0.78" fill="#c99b93" opacity="0.03"/>
  <circle cx="1350" cy="178" r="184" fill="#c99b93" opacity="0.06"/>
  <circle cx="220" cy="894" r="220" fill="#8e997f" opacity="0.08"/>
  <g transform="rotate(-8 410 465)">
    <ellipse cx="430" cy="739.4" rx="190.8" ry="54" fill="#1f211d" opacity="0.14"/>
    <rect x="230" y="195" width="360" height="540" rx="6" fill="#fffaf2"/>
    <text x="258.8" y="276" class="brand" fill="#2f332e" font-size="54">ELYSIAN</text>
    <rect x="258.8" y="313.8" width="302.4" height="226.8" rx="4" fill="#ddd0bb"/>
    <path d="M 273.2 502.8 C 345.2 421.8, 410 578.4, 539.6 405.6" fill="none" stroke="#fffaf2" stroke-width="6" opacity="0.72"/>
    <text x="258.8" y="589.2" class="micro" fill="#2f332e" opacity="0.7">ISSUE 01 / CULTURE</text>
    <rect x="258.8" y="627" width="84.82" height="3" rx="2" fill="#2f332e" opacity="0.42"/><rect x="258.8" y="649" width="127.22" height="2" rx="2" fill="#2f332e" opacity="0.22"/><rect x="258.8" y="671" width="169.63" height="2" rx="2" fill="#2f332e" opacity="0.22"/><rect x="258.8" y="693" width="95.98" height="2" rx="2" fill="#2f332e" opacity="0.22"/>
  </g><g transform="rotate(4 990 540)">
    <ellipse cx="1008" cy="784.8" rx="418.7" ry="48" fill="#1f211d" opacity="0.12"/>
    <rect x="595" y="300" width="790" height="480" rx="6" fill="#fffaf2"/>
    <rect x="989" y="324" width="2" height="432" fill="#2f332e" opacity="0.12"/>
    <rect x="1022" y="340" width="325" height="400" rx="4" fill="#ddd0bb"/>
    <path d="M 1040 597.6 C 1093.1 511.2, 1172.1 650.4, 1322.2 463.2" fill="none" stroke="#fffaf2" stroke-width="5" opacity="0.72"/>
    <text x="639" y="388" class="brand" fill="#2f332e" font-size="43.45">SLOW ROOMS</text>
    <rect x="639" y="438" width="115.9" height="3" rx="2" fill="#2f332e" opacity="0.42"/><rect x="639" y="460" width="173.85" height="2" rx="2" fill="#2f332e" opacity="0.22"/><rect x="639" y="482" width="231.8" height="2" rx="2" fill="#2f332e" opacity="0.22"/><rect x="639" y="504" width="131.15" height="2" rx="2" fill="#2f332e" opacity="0.22"/><rect x="639" y="526" width="189.1" height="2" rx="2" fill="#2f332e" opacity="0.22"/><rect x="639" y="548" width="247.05" height="2" rx="2" fill="#2f332e" opacity="0.22"/><rect x="639" y="570" width="146.4" height="2" rx="2" fill="#2f332e" opacity="0.22"/><rect x="639" y="592" width="204.35" height="2" rx="2" fill="#2f332e" opacity="0.22"/><rect x="639" y="614" width="262.3" height="2" rx="2" fill="#2f332e" opacity="0.22"/>
  </g><g transform="rotate(-6 1145 855)">
    <ellipse cx="1161" cy="959.2" rx="174.9" ry="17" fill="#1f211d" opacity="0.11"/>
    <rect x="980" y="770" width="330" height="170" rx="10" fill="#fffaf2"/>
    <rect x="998" y="788" width="294" height="134" rx="5" fill="none" stroke="#2f332e" stroke-opacity="0.11"/>
    <rect x="1014" y="812" width="72.6" height="4" rx="2" fill="#c99b93" opacity="0.84"/>
    <text x="1014" y="827.8" class="brand" fill="#2f332e" font-size="39.6">INSERT</text>
    <text x="1016" y="861.8" class="micro" fill="#2f332e" opacity="0.65">SUBSCRIPTION</text>
    <rect x="1016" y="868.6" width="90.29" height="3" rx="2" fill="#2f332e" opacity="0.42"/><rect x="1016" y="890.6" width="135.43" height="2" rx="2" fill="#2f332e" opacity="0.22"/><rect x="1016" y="912.6" width="180.58" height="2" rx="2" fill="#2f332e" opacity="0.22"/>
    
  </g><g transform="rotate(9 1290 365)">
    <ellipse cx="1310" cy="570.4" rx="137.8" ry="39" fill="#1f211d" opacity="0.14"/>
    <rect x="1160" y="170" width="260" height="390" rx="6" fill="#fffaf2"/>
    <text x="1180.8" y="228.5" class="brand" fill="#2f332e" font-size="39">E</text>
    <rect x="1180.8" y="255.8" width="218.4" height="163.8" rx="4" fill="#8e997f"/>
    <path d="M 1191.2 392.3 C 1243.2 333.8, 1290 446.9, 1383.6 322.1" fill="none" stroke="#fffaf2" stroke-width="6" opacity="0.72"/>
    <text x="1180.8" y="454.7" class="micro" fill="#2f332e" opacity="0.7">TRAVEL NOTES</text>
    <rect x="1180.8" y="482" width="61.26" height="3" rx="2" fill="#2f332e" opacity="0.42"/><rect x="1180.8" y="504" width="91.88" height="2" rx="2" fill="#2f332e" opacity="0.22"/><rect x="1180.8" y="526" width="122.51" height="2" rx="2" fill="#2f332e" opacity="0.22"/><rect x="1180.8" y="548" width="69.32" height="2" rx="2" fill="#2f332e" opacity="0.22"/>
  </g>
  <g opacity="0.72"><text x="78" y="1004" class="micro" fill="#2f332e">CULTURE MAGAZINE SYSTEM</text><text x="78" y="1036" class="micro" fill="#2f332e" opacity="0.55">TEMPORARY DEMONSTRATION PORTFOLIO VISUAL / HERO</text></g>
</svg>
