<svg xmlns="http://www.w3.org/2000/svg" viewBox="0 0 1600 1000" role="img" aria-labelledby="title desc">
<title id="title">Red Sea growth from 2015 to 2024</title><desc id="desc">A bar chart showing growth values from 1,855 in 2015 to 10,040 in 2024.</desc>
<rect width="1600" height="1000" fill="#F7F8FA"/><defs><linearGradient id="bar" x1="0" y1="0" x2="0" y2="1"><stop offset="0" stop-color="#3D83A6"/><stop offset="1" stop-color="#165C7B"/></linearGradient></defs>
<path d="M-120 850 C220 720 430 910 680 760 C930 610 1130 700 1360 570 C1530 474 1650 515 1760 440" fill="none" stroke="#E8EAF0" stroke-width="100" stroke-linecap="round" opacity=".64"/>
<circle cx="-12" cy="-12" r="230" fill="none" stroke="#2F4E9B" stroke-width="76"/>
<circle cx="1520" cy="930" r="240" fill="none" stroke="#CF1D2A" stroke-width="86"/>
<text x="800" y="130" text-anchor="middle" font-family="Arial, sans-serif" font-size="45" fill="#CF1D2A" font-weight="300">Every Step in our Journey Leads us Toward a Better Future.</text>
<text x="800" y="200" text-anchor="middle" font-family="Arial, sans-serif" font-size="52" fill="#2F4E9B" font-weight="800">كل خطوة في رحلتنا تقودنا نحو مستقبل أفضل</text>
<text x="110" y="598" text-anchor="middle" transform="rotate(-90 110 598)" font-family="Arial, sans-serif" font-size="42" fill="#CF1D2A">Our Growth</text>
<line x1="220" y1="810" x2="1370" y2="810" stroke="#C8CDD4" stroke-width="4"/>
<rect x="260" y="330.0" width="54" height="480.0" rx="6" fill="url(#bar)"/>
<text x="287.0" y="306.0" text-anchor="middle" font-family="Arial, sans-serif" font-size="32" fill="#62656B">10,040</text>
<text x="287.0" y="874" text-anchor="middle" font-family="Arial, sans-serif" font-size="34" fill="#62656B">2024</text>
<rect x="376" y="426.6" width="54" height="383.4" rx="6" fill="url(#bar)"/>
<text x="403.0" y="402.6" text-anchor="middle" font-family="Arial, sans-serif" font-size="32" fill="#62656B">8,020</text>
<text x="403.0" y="874" text-anchor="middle" font-family="Arial, sans-serif" font-size="34" fill="#62656B">2023</text>
<rect x="492" y="431.4" width="54" height="378.6" rx="6" fill="url(#bar)"/>
<text x="519.0" y="407.4" text-anchor="middle" font-family="Arial, sans-serif" font-size="32" fill="#62656B">7,920</text>
<text x="519.0" y="874" text-anchor="middle" font-family="Arial, sans-serif" font-size="34" fill="#62656B">2022</text>
<rect x="608" y="521.2" width="54" height="288.8" rx="6" fill="url(#bar)"/>
<text x="635.0" y="497.2" text-anchor="middle" font-family="Arial, sans-serif" font-size="32" fill="#62656B">6,040</text>
<text x="635.0" y="874" text-anchor="middle" font-family="Arial, sans-serif" font-size="34" fill="#62656B">2021</text>
<rect x="724" y="685.7" width="54" height="124.3" rx="6" fill="url(#bar)"/>
<text x="751.0" y="661.7" text-anchor="middle" font-family="Arial, sans-serif" font-size="32" fill="#62656B">2,600</text>
<text x="751.0" y="874" text-anchor="middle" font-family="Arial, sans-serif" font-size="34" fill="#62656B">2020</text>
<rect x="840" y="666.6" width="54" height="143.4" rx="6" fill="url(#bar)"/>
<text x="867.0" y="642.6" text-anchor="middle" font-family="Arial, sans-serif" font-size="32" fill="#62656B">3,000</text>
<text x="867.0" y="874" text-anchor="middle" font-family="Arial, sans-serif" font-size="34" fill="#62656B">2019</text>
<rect x="956" y="674.0" width="54" height="136.0" rx="6" fill="url(#bar)"/>
<text x="983.0" y="650.0" text-anchor="middle" font-family="Arial, sans-serif" font-size="32" fill="#62656B">2,845</text>
<text x="983.0" y="874" text-anchor="middle" font-family="Arial, sans-serif" font-size="34" fill="#62656B">2018</text>
<rect x="1072" y="679.7" width="54" height="130.3" rx="6" fill="url(#bar)"/>
<text x="1099.0" y="655.7" text-anchor="middle" font-family="Arial, sans-serif" font-size="32" fill="#62656B">2,725</text>
<text x="1099.0" y="874" text-anchor="middle" font-family="Arial, sans-serif" font-size="34" fill="#62656B">2017</text>
<rect x="1188" y="706.5" width="54" height="103.5" rx="6" fill="url(#bar)"/>
<text x="1215.0" y="682.5" text-anchor="middle" font-family="Arial, sans-serif" font-size="32" fill="#62656B">2,165</text>
<text x="1215.0" y="874" text-anchor="middle" font-family="Arial, sans-serif" font-size="34" fill="#62656B">2016</text>
<rect x="1304" y="721.3" width="54" height="88.7" rx="6" fill="url(#bar)"/>
<text x="1331.0" y="697.3" text-anchor="middle" font-family="Arial, sans-serif" font-size="32" fill="#62656B">1,855</text>
<text x="1331.0" y="874" text-anchor="middle" font-family="Arial, sans-serif" font-size="34" fill="#62656B">2015</text>
</svg>