<svg xmlns="http://www.w3.org/2000/svg" viewBox="0 0 1600 950" role="img" aria-labelledby="title desc">
<title id="title">Red Sea contact information</title><desc id="desc">Phone 0126650555, email Info@redsealgx.com, and Jeddah office location.</desc>
<rect width="1600" height="950" fill="#F7F8FA"/>
<path d="M-95 710 C160 595 305 720 506 610 C710 498 885 535 1085 430 C1295 318 1435 355 1690 212" fill="none" stroke="#E8EAF0" stroke-width="102" stroke-linecap="round" opacity=".65"/>
<circle cx="1188" cy="58" r="260" fill="none" stroke="#2F4E9B" stroke-width="80"/>
<circle cx="45" cy="905" r="235" fill="none" stroke="#CF1D2A" stroke-width="82"/>
<text x="90" y="142" font-family="Arial, sans-serif" font-size="60" fill="#CF1D2A" font-weight="300">Contact us</text>
<text x="90" y="214" font-family="Arial, sans-serif" font-size="68" fill="#2F4E9B" font-weight="800">تواصل معنا</text>
<g transform="translate(520 365)" font-family="Arial, sans-serif" fill="#0C1724">
  <g transform="translate(0 0)"><circle cx="38" cy="38" r="38" fill="#2F4E9B"/><path d="M26 23 C35 50 48 58 61 64" stroke="#fff" stroke-width="8" fill="none" stroke-linecap="round"/><text x="128" y="54" font-size="54">0126650555</text></g>
  <g transform="translate(0 160)"><rect x="0" y="0" width="76" height="58" rx="7" fill="#2F4E9B"/><path d="M6 9 L38 35 L70 9" stroke="#fff" stroke-width="7" fill="none"/><text x="128" y="49" font-size="54">Info@redsealgx.com</text></g>
  <g transform="translate(0 334)"><path d="M38 0 C18 0 3 16 3 38 C3 70 38 112 38 112 C38 112 73 70 73 38 C73 16 58 0 38 0 Z" fill="#2F4E9B"/><circle cx="38" cy="38" r="13" fill="#fff"/><text x="128" y="33" font-size="48">G5FJ+WF3, Al Sharafeyah, Jeddah 23218</text><text x="128" y="102" font-size="48">الخليج بلازا - البرج الشمالي - الدور الثالث - مكتب ٣١١</text></g>
</g>
</svg>