<svg xmlns="http://www.w3.org/2000/svg" viewBox="0 0 1500 1050" role="img" aria-labelledby="title desc">
<title id="title">Red Sea brand geometry</title><desc id="desc">Blue and red circular transport geometry with pale motion lines.</desc>
<rect width="1500" height="1050" fill="#F7F8FA"/>
<path d="M-140 260 C170 88 355 250 585 130 C825 4 1015 90 1242 -2 C1420 -75 1525 -18 1640 -70" fill="none" stroke="#E8EAF0" stroke-width="112" stroke-linecap="round" opacity=".7"/>
<path d="M-120 810 C190 680 386 830 630 710 C864 596 1066 630 1305 520 C1450 454 1542 460 1645 424" fill="none" stroke="#E8EAF0" stroke-width="88" stroke-linecap="round" opacity=".55"/>
<circle cx="1125" cy="255" r="260" fill="none" stroke="#2F4E9B" stroke-width="86"/>
<circle cx="275" cy="860" r="300" fill="none" stroke="#CF1D2A" stroke-width="88"/>
<path d="M225 382 H1210" stroke="#D7DDE8" stroke-width="3" stroke-dasharray="18 18"/>
<path d="M336 514 H1030" stroke="#D7DDE8" stroke-width="3" stroke-dasharray="10 18"/>
<path d="M475 650 H1325" stroke="#D7DDE8" stroke-width="3" stroke-dasharray="28 20"/>
<circle cx="225" cy="382" r="9" fill="#CF1D2A"/><circle cx="1210" cy="382" r="9" fill="#2F4E9B"/>
<circle cx="336" cy="514" r="9" fill="#2F4E9B"/><circle cx="1030" cy="514" r="9" fill="#CF1D2A"/>
<circle cx="475" cy="650" r="9" fill="#CF1D2A"/><circle cx="1325" cy="650" r="9" fill="#2F4E9B"/>
<text x="150" y="150" font-family="Arial, sans-serif" font-size="44" fill="#CF1D2A" font-weight="300">Land transport</text>
<text x="150" y="210" font-family="Arial, sans-serif" font-size="64" fill="#2F4E9B" font-weight="800">حلول برية متكاملة</text>
</svg>