<?xml version="1.0" encoding="UTF-8"?>
<svg xmlns="http://www.w3.org/2000/svg" width="1600" height="1100" viewBox="0 0 1600 1100" role="img" aria-labelledby="title desc">
  <title id="title">FLORA cover demo portfolio mockup</title>
  <desc id="desc">Temporary fictional demonstration project imagery for portfolio presentation only, not client work.</desc>
  <defs>
    <linearGradient id="bg_flora_cover" x1="0" y1="0" x2="1" y2="1">
      <stop offset="0%" stop-color="#fffaf4"/>
      <stop offset="58%" stop-color="#f4eee6"/>
      <stop offset="100%" stop-color="#e9cbc8"/>
    </linearGradient>
    <radialGradient id="light_flora_cover" cx="74%" cy="18%" r="64%">
      <stop offset="0%" stop-color="#ffffff" stop-opacity="0.62"/>
      <stop offset="100%" stop-color="#ffffff" stop-opacity="0"/>
    </radialGradient>
  </defs>
  <style><![CDATA[
    .brand { font-family: Georgia, Georgia, serif; font-weight: 500; letter-spacing: .02em; }
    .body { font-family: Arial, Arial, sans-serif; font-weight: 500; }
    .micro { font-family: Arial, Arial, sans-serif; font-size: 20px; font-weight: 700; letter-spacing: .12em; }
  ]]></style>
  <rect width="1600" height="1100" fill="url(#bg_flora_cover)"/>
  <rect width="1600" height="1100" fill="url(#light_flora_cover)"/>
  <circle cx="495.97" cy="175.29" r="0.94" fill="#314039" opacity="0.07"/><rect x="1359.66" y="808.73" width="15.57" height="0.92" rx="1" fill="#314039" opacity="0.07" transform="rotate(108.71 1359.66 808.73)"/><rect x="434.14" y="632.08" width="14.63" height="1.78" rx="1" fill="#c87876" opacity="0.04" transform="rotate(172.61 434.14 632.08)"/><rect x="989.68" y="335.03" width="8.16" height="1.44" rx="1" fill="#c87876" opacity="0.04" transform="rotate(102.57 989.68 335.03)"/><rect x="786.42" y="750.94" width="20.14" height="1.94" rx="1" fill="#c87876" opacity="0.05" transform="rotate(14.53 786.42 750.94)"/><circle cx="1558.36" cy="32.35" r="1.78" fill="#c87876" opacity="0.06"/><circle cx="249.12" cy="93.6" r="1.95" fill="#c87876" opacity="0.05"/><circle cx="168.27" cy="915.71" r="1.28" fill="#c87876" opacity="0.07"/><circle cx="153.16" cy="329.88" r="0.92" fill="#314039" opacity="0.03"/><circle cx="958.38" cy="602.57" r="1.28" fill="#314039" opacity="0.07"/><rect x="972.68" y="522.87" width="18.96" height="1.67" rx="1" fill="#314039" opacity="0.04" transform="rotate(129.6 972.68 522.87)"/><circle cx="1418.79" cy="110.57" r="1.33" fill="#c87876" opacity="0.06"/><rect x="489.23" y="992.43" width="24.94" height="2.15" rx="1" fill="#314039" opacity="0.04" transform="rotate(15.75 489.23 992.43)"/><rect x="733.48" y="149.1" width="23.95" height="2.4" rx="1" fill="#314039" opacity="0.08" transform="rotate(0.84 733.48 149.1)"/><rect x="1029.48" y="1092.29" width="10.75" height="0.94" rx="1" fill="#314039" opacity="0.08" transform="rotate(21.74 1029.48 1092.29)"/><circle cx="443.47" cy="215.68" r="1.65" fill="#c87876" opacity="0.05"/><circle cx="1445.73" cy="368.77" r="2.21" fill="#c87876" opacity="0.04"/><rect x="1563.56" y="301.07" width="12.1" height="2.07" rx="1" fill="#314039" opacity="0.04" transform="rotate(166.66 1563.56 301.07)"/><rect x="1074.57" y="666.25" width="27.32" height="1.16" rx="1" fill="#314039" opacity="0.08" transform="rotate(158.56 1074.57 666.25)"/><circle cx="1341.25" cy="3.84" r="1.45" fill="#314039" opacity="0.06"/><circle cx="1440.9" cy="348.05" r="1.4" fill="#314039" opacity="0.05"/><rect x="391.09" y="711.16" width="23.54" height="1.51" rx="1" fill="#314039" opacity="0.03" transform="rotate(92.47 391.09 711.16)"/><circle cx="303.27" cy="641.94" r="1.48" fill="#314039" opacity="0.04"/><circle cx="698.99" cy="1068.28" r="1.23" fill="#c87876" opacity="0.06"/><rect x="1368.98" y="1088.57" width="10.96" height="0.92" rx="1" fill="#314039" opacity="0.05" transform="rotate(65.83 1368.98 1088.57)"/><rect x="782.62" y="693.04" width="13.11" height="1.68" rx="1" fill="#c87876" opacity="0.03" transform="rotate(52.77 782.62 693.04)"/><rect x="860.92" y="167" width="21.38" height="1.28" rx="1" fill="#314039" opacity="0.03" transform="rotate(35.52 860.92 167)"/><rect x="1273.97" y="241.33" width="21.57" height="2.33" rx="1" fill="#c87876" opacity="0.08" transform="rotate(71.69 1273.97 241.33)"/><circle cx="727.9" cy="628.7" r="1.39" fill="#c87876" opacity="0.07"/><circle cx="1038.25" cy="451.44" r="1.5" fill="#314039" opacity="0.05"/><circle cx="430.21" cy="746.15" r="0.92" fill="#314039" opacity="0.03"/><rect x="1388.2" y="800.94" width="7.77" height="1.4" rx="1" fill="#314039" opacity="0.06" transform="rotate(108.56 1388.2 800.94)"/><rect x="408.34" y="369.58" width="25.32" height="1.4" rx="1" fill="#c87876" opacity="0.05" transform="rotate(71.81 408.34 369.58)"/><circle cx="645.4" cy="527.79" r="1.5" fill="#314039" opacity="0.03"/><rect x="579.93" y="839.27" width="10.62" height="2.36" rx="1" fill="#314039" opacity="0.04" transform="rotate(2.95 579.93 839.27)"/><rect x="1382.4" y="180.5" width="27.82" height="2.31" rx="1" fill="#314039" opacity="0.03" transform="rotate(78.83 1382.4 180.5)"/><rect x="843.31" y="1050.7" width="15.79" height="2.11" rx="1" fill="#c87876" opacity="0.04" transform="rotate(136.05 843.31 1050.7)"/><circle cx="420.19" cy="353.48" r="2" fill="#314039" opacity="0.03"/><rect x="1502.57" y="620.91" width="26.32" height="2.35" rx="1" fill="#c87876" opacity="0.07" transform="rotate(157.26 1502.57 620.91)"/><circle cx="863.29" cy="795.17" r="1.73" fill="#314039" opacity="0.03"/><circle cx="85.25" cy="145.32" r="2.05" fill="#c87876" opacity="0.08"/><circle cx="778.97" cy="1006.8" r="2.02" fill="#c87876" opacity="0.06"/><rect x="809.21" y="912.9" width="19.95" height="1.24" rx="1" fill="#c87876" opacity="0.06" transform="rotate(17.02 809.21 912.9)"/><circle cx="221.89" cy="54.05" r="0.79" fill="#314039" opacity="0.07"/><circle cx="177.38" cy="135.13" r="0.84" fill="#c87876" opacity="0.05"/><circle cx="1003.13" cy="15.97" r="2.16" fill="#314039" opacity="0.03"/><rect x="22.29" y="1013.97" width="7.77" height="1.33" rx="1" fill="#c87876" opacity="0.07" transform="rotate(39.4 22.29 1013.97)"/><rect x="1559.96" y="901.46" width="25.38" height="1.46" rx="1" fill="#314039" opacity="0.04" transform="rotate(13.29 1559.96 901.46)"/><circle cx="1511.62" cy="392.7" r="1.77" fill="#314039" opacity="0.06"/><circle cx="919.88" cy="295.4" r="1.09" fill="#314039" opacity="0.08"/><circle cx="1313" cy="448.85" r="2.01" fill="#314039" opacity="0.05"/><circle cx="1290.82" cy="738.58" r="2.08" fill="#c87876" opacity="0.04"/><circle cx="393.1" cy="821.15" r="0.79" fill="#c87876" opacity="0.04"/><circle cx="124.84" cy="19.92" r="1.59" fill="#c87876" opacity="0.06"/><circle cx="466.36" cy="652.4" r="1.91" fill="#c87876" opacity="0.04"/><rect x="448.26" y="347.74" width="9.58" height="2.17" rx="1" fill="#c87876" opacity="0.06" transform="rotate(44.62 448.26 347.74)"/><rect x="127.18" y="981.56" width="23.89" height="1.49" rx="1" fill="#314039" opacity="0.03" transform="rotate(177.06 127.18 981.56)"/><rect x="718.63" y="156.96" width="8.38" height="2.33" rx="1" fill="#c87876" opacity="0.06" transform="rotate(139.91 718.63 156.96)"/><rect x="1582.23" y="689.46" width="25.12" height="1.68" rx="1" fill="#c87876" opacity="0.08" transform="rotate(91.96 1582.23 689.46)"/><circle cx="94.67" cy="636.21" r="1.16" fill="#314039" opacity="0.07"/><circle cx="1121.4" cy="220.07" r="1.3" fill="#c87876" opacity="0.04"/><circle cx="1016.9" cy="418.39" r="2.3" fill="#c87876" opacity="0.04"/><rect x="104.78" y="828.72" width="17.01" height="2.31" rx="1" fill="#314039" opacity="0.05" transform="rotate(56.91 104.78 828.72)"/><rect x="1385.17" y="949.66" width="8.24" height="2.51" rx="1" fill="#c87876" opacity="0.08" transform="rotate(152.77 1385.17 949.66)"/><circle cx="995.91" cy="595.66" r="1.29" fill="#314039" opacity="0.08"/><rect x="889.23" y="945.8" width="9.9" height="2.6" rx="1" fill="#314039" opacity="0.04" transform="rotate(19.53 889.23 945.8)"/><circle cx="1272.65" cy="895.15" r="2.05" fill="#c87876" opacity="0.03"/><rect x="920.92" y="221.31" width="16.89" height="2.33" rx="1" fill="#314039" opacity="0.06" transform="rotate(77.12 920.92 221.31)"/><rect x="1555.76" y="787.59" width="15.42" height="1.47" rx="1" fill="#c87876" opacity="0.07" transform="rotate(153.23 1555.76 787.59)"/><circle cx="938.63" cy="1026.7" r="0.8" fill="#314039" opacity="0.04"/><rect x="513.65" y="231.75" width="9.76" height="0.99" rx="1" fill="#c87876" opacity="0.06" transform="rotate(64.34 513.65 231.75)"/><rect x="411.08" y="637.69" width="18.74" height="1.52" rx="1" fill="#314039" opacity="0.04" transform="rotate(110.44 411.08 637.69)"/><rect x="932.59" y="778.47" width="22.16" height="1.55" rx="1" fill="#c87876" opacity="0.06" transform="rotate(167.59 932.59 778.47)"/><rect x="1228.76" y="510.64" width="26.14" height="2.34" rx="1" fill="#c87876" opacity="0.06" transform="rotate(29.33 1228.76 510.64)"/><circle cx="414.29" cy="869.27" r="1.3" fill="#314039" opacity="0.04"/><circle cx="643.86" cy="823.33" r="1.64" fill="#c87876" opacity="0.06"/><rect x="1036.36" y="968.1" width="22.79" height="0.85" rx="1" fill="#c87876" opacity="0.07" transform="rotate(58.78 1036.36 968.1)"/><circle cx="911.16" cy="343.47" r="1.18" fill="#c87876" opacity="0.05"/><circle cx="842.56" cy="135.2" r="1.94" fill="#c87876" opacity="0.07"/><circle cx="896.64" cy="435.19" r="2.21" fill="#c87876" opacity="0.04"/><circle cx="43.23" cy="660.8" r="2.07" fill="#314039" opacity="0.05"/><circle cx="1428.34" cy="3.5" r="1.25" fill="#c87876" opacity="0.06"/><circle cx="1067.48" cy="447.75" r="1.05" fill="#314039" opacity="0.05"/><rect x="359.38" y="122.11" width="23.1" height="1.69" rx="1" fill="#c87876" opacity="0.08" transform="rotate(95.42 359.38 122.11)"/><circle cx="1026.58" cy="1054.96" r="0.95" fill="#c87876" opacity="0.05"/><rect x="86.7" y="984.03" width="14.57" height="1.99" rx="1" fill="#c87876" opacity="0.05" transform="rotate(117.76 86.7 984.03)"/><rect x="1561" y="354.65" width="11.08" height="0.93" rx="1" fill="#c87876" opacity="0.05" transform="rotate(48.87 1561 354.65)"/><circle cx="731.06" cy="746.08" r="0.8" fill="#c87876" opacity="0.05"/><rect x="684.6" y="684.67" width="17.29" height="1.46" rx="1" fill="#314039" opacity="0.04" transform="rotate(35.15 684.6 684.67)"/><rect x="117.72" y="81.04" width="6.67" height="2.49" rx="1" fill="#c87876" opacity="0.05" transform="rotate(176.14 117.72 81.04)"/><rect x="523.1" y="754.46" width="16.84" height="0.98" rx="1" fill="#314039" opacity="0.03" transform="rotate(88.45 523.1 754.46)"/><rect x="675.25" y="536.88" width="6.3" height="1.61" rx="1" fill="#c87876" opacity="0.03" transform="rotate(162.34 675.25 536.88)"/><rect x="434.62" y="124.8" width="19.96" height="1.17" rx="1" fill="#c87876" opacity="0.03" transform="rotate(49.22 434.62 124.8)"/><rect x="1434.98" y="206.64" width="26.27" height="1.77" rx="1" fill="#c87876" opacity="0.05" transform="rotate(7.45 1434.98 206.64)"/><rect x="1428.17" y="42.59" width="26.7" height="1.7" rx="1" fill="#314039" opacity="0.05" transform="rotate(57.25 1428.17 42.59)"/><circle cx="1225.67" cy="165.12" r="1.78" fill="#c87876" opacity="0.04"/><circle cx="315.11" cy="615.88" r="1.64" fill="#c87876" opacity="0.07"/><circle cx="641.69" cy="70.71" r="1.99" fill="#314039" opacity="0.04"/><circle cx="654.02" cy="519.39" r="2.06" fill="#c87876" opacity="0.07"/><rect x="1262.9" y="423.06" width="26.68" height="2.57" rx="1" fill="#c87876" opacity="0.03" transform="rotate(7.84 1262.9 423.06)"/><rect x="727.45" y="889.16" width="12.11" height="2.56" rx="1" fill="#c87876" opacity="0.06" transform="rotate(27.44 727.45 889.16)"/><rect x="1558.07" y="5.96" width="14.78" height="0.86" rx="1" fill="#314039" opacity="0.08" transform="rotate(76.2 1558.07 5.96)"/><circle cx="1107.48" cy="412.25" r="1.63" fill="#314039" opacity="0.03"/><circle cx="1212.35" cy="938.07" r="0.81" fill="#c87876" opacity="0.07"/><circle cx="113.5" cy="139.53" r="1.14" fill="#c87876" opacity="0.03"/><circle cx="420.75" cy="512.11" r="1.7" fill="#c87876" opacity="0.08"/><circle cx="136.15" cy="563.04" r="1.03" fill="#c87876" opacity="0.06"/><rect x="81.88" y="804.47" width="23.6" height="2.06" rx="1" fill="#314039" opacity="0.03" transform="rotate(149.31 81.88 804.47)"/><rect x="1006.47" y="976.16" width="12.42" height="2.41" rx="1" fill="#c87876" opacity="0.03" transform="rotate(77.66 1006.47 976.16)"/><rect x="481.36" y="858.25" width="22.14" height="2.08" rx="1" fill="#c87876" opacity="0.03" transform="rotate(70.87 481.36 858.25)"/><rect x="689.34" y="398.01" width="14.11" height="1.06" rx="1" fill="#c87876" opacity="0.07" transform="rotate(139.89 689.34 398.01)"/><rect x="1001.47" y="306.39" width="7.37" height="2.09" rx="1" fill="#c87876" opacity="0.06" transform="rotate(160.54 1001.47 306.39)"/><circle cx="886.36" cy="222.22" r="1.88" fill="#314039" opacity="0.05"/><rect x="185.17" y="689.5" width="17.08" height="1.87" rx="1" fill="#c87876" opacity="0.03" transform="rotate(166.23 185.17 689.5)"/><rect x="261.93" y="307.65" width="7.57" height="1.73" rx="1" fill="#314039" opacity="0.05" transform="rotate(80.67 261.93 307.65)"/><circle cx="804.68" cy="48.02" r="1.59" fill="#314039" opacity="0.03"/><circle cx="315.68" cy="440.94" r="0.77" fill="#314039" opacity="0.03"/><circle cx="1062.12" cy="5.15" r="1.43" fill="#314039" opacity="0.05"/><circle cx="148.12" cy="628.58" r="0.87" fill="#c87876" opacity="0.04"/><rect x="66.7" y="410.46" width="6.32" height="2.43" rx="1" fill="#c87876" opacity="0.06" transform="rotate(116.48 66.7 410.46)"/><circle cx="422.39" cy="386.21" r="1.59" fill="#314039" opacity="0.04"/><rect x="1077.35" y="656.29" width="11.53" height="1.89" rx="1" fill="#314039" opacity="0.05" transform="rotate(62.8 1077.35 656.29)"/><rect x="627.22" y="53.54" width="12.13" height="0.96" rx="1" fill="#c87876" opacity="0.03" transform="rotate(23.36 627.22 53.54)"/><circle cx="728.24" cy="908.2" r="1.52" fill="#314039" opacity="0.06"/><circle cx="1187.24" cy="722.66" r="2.23" fill="#c87876" opacity="0.03"/><rect x="1439.33" y="640.89" width="17.22" height="1.89" rx="1" fill="#314039" opacity="0.06" transform="rotate(36.87 1439.33 640.89)"/><rect x="976.91" y="154.16" width="19.2" height="1.69" rx="1" fill="#314039" opacity="0.04" transform="rotate(109.14 976.91 154.16)"/><circle cx="1067.03" cy="928.35" r="0.72" fill="#c87876" opacity="0.03"/><rect x="547.16" y="137.07" width="22.56" height="2.56" rx="1" fill="#c87876" opacity="0.08" transform="rotate(109.36 547.16 137.07)"/><rect x="1409.19" y="525.06" width="19.69" height="0.98" rx="1" fill="#c87876" opacity="0.05" transform="rotate(104.04 1409.19 525.06)"/><rect x="1364.41" y="306.85" width="17.67" height="1.56" rx="1" fill="#314039" opacity="0.06" transform="rotate(71.19 1364.41 306.85)"/><rect x="1331.73" y="358.39" width="20.53" height="1.5" rx="1" fill="#c87876" opacity="0.03" transform="rotate(89.09 1331.73 358.39)"/><rect x="1203.62" y="902.94" width="7.32" height="2.45" rx="1" fill="#c87876" opacity="0.05" transform="rotate(2.18 1203.62 902.94)"/><rect x="1078.63" y="736.34" width="20.53" height="2.05" rx="1" fill="#314039" opacity="0.03" transform="rotate(107.77 1078.63 736.34)"/><circle cx="495.21" cy="338.84" r="2.14" fill="#314039" opacity="0.03"/><rect x="684.38" y="814.13" width="8.19" height="1.46" rx="1" fill="#c87876" opacity="0.03" transform="rotate(159.68 684.38 814.13)"/><rect x="1042.75" y="407.35" width="27.52" height="1.82" rx="1" fill="#314039" opacity="0.07" transform="rotate(107.29 1042.75 407.35)"/><circle cx="222.84" cy="610.58" r="0.81" fill="#c87876" opacity="0.03"/><rect x="729.25" y="146.72" width="15.03" height="1.29" rx="1" fill="#c87876" opacity="0.06" transform="rotate(178.23 729.25 146.72)"/><circle cx="152.56" cy="1000.21" r="1.49" fill="#314039" opacity="0.05"/>
  <circle cx="1350" cy="178" r="184" fill="#c87876" opacity="0.06"/>
  <circle cx="220" cy="894" r="220" fill="#aab59d" opacity="0.08"/>
  <g transform="rotate(-7 515 537)">
    <ellipse cx="531" cy="843.6" rx="227.9" ry="61" fill="#1f211d" opacity="0.11"/>
    <rect x="300" y="232" width="430" height="610" rx="10" fill="#fffaf4"/>
    <rect x="318" y="250" width="394" height="574" rx="5" fill="none" stroke="#314039" stroke-opacity="0.11"/>
    <rect x="334" y="274" width="94.6" height="4" rx="2" fill="#c87876" opacity="0.84"/>
    <text x="334" y="439.4" class="brand" fill="#314039" font-size="51.6">FLORA</text>
    <text x="336" y="473.4" class="micro" fill="#314039" opacity="0.65">BOTANICAL BRAND</text>
    <rect x="336" y="585.8" width="117.65" height="3" rx="2" fill="#314039" opacity="0.42"/><rect x="336" y="607.8" width="176.47" height="2" rx="2" fill="#314039" opacity="0.22"/><rect x="336" y="629.8" width="235.3" height="2" rx="2" fill="#314039" opacity="0.22"/><rect x="336" y="651.8" width="133.13" height="2" rx="2" fill="#314039" opacity="0.22"/>
    <circle cx="664" cy="772" r="35" fill="#c87876" opacity="0.86"/><text x="664" y="783" text-anchor="middle" class="micro" fill="#fffaf4" font-size="20">FL</text>
  </g><g transform="rotate(6 903 711.5)">
    <ellipse cx="917" cy="848.8" rx="238.5" ry="25.5" fill="#1f211d" opacity="0.1"/>
    <rect x="678" y="584" width="450" height="255" rx="8" fill="#fffaf4"/>
    <path d="M 678 592 L 903 726.8 L 1128 592" fill="none" stroke="#314039" stroke-opacity="0.16" stroke-width="2"/>
    <path d="M 680 831 L 867 701.3" fill="none" stroke="#314039" stroke-opacity="0.11" stroke-width="2"/>
    <path d="M 1126 831 L 939 701.3" fill="none" stroke="#314039" stroke-opacity="0.11" stroke-width="2"/>
    <text x="1090" y="803" text-anchor="end" class="micro" fill="#314039" opacity="0.55">STATIONERY</text>
  </g><g transform="rotate(-18 1050 455)">
    <path d="M 1050 750 C 1094.1 573, 1029 366.5, 1085.7 160" fill="none" stroke="#536759" stroke-width="2.3100000000000005" opacity="0.72"/>
    <ellipse cx="1079.4" cy="366.5" rx="35.7" ry="13.65" fill="#aab59d" opacity="0.76" transform="rotate(-24 1079.4 366.5)"/>
    <ellipse cx="1033.2" cy="484.5" rx="31.5" ry="12.6" fill="#e9cbc8" opacity="0.74" transform="rotate(28 1033.2 484.5)"/>
    <ellipse cx="1092" cy="254.4" rx="29.4" ry="11.55" fill="#c87876" opacity="0.52" transform="rotate(-20 1092 254.4)"/>
  </g><g transform="rotate(10 1075 392)">
    <ellipse cx="1091" cy="500.8" rx="137.8" ry="18" fill="#1f211d" opacity="0.11"/>
    <rect x="945" y="302" width="260" height="180" rx="10" fill="#fffaf4"/>
    <rect x="963" y="320" width="224" height="144" rx="5" fill="none" stroke="#314039" stroke-opacity="0.11"/>
    <rect x="979" y="344" width="57.2" height="4" rx="2" fill="#c87876" opacity="0.84"/>
    <text x="979" y="363.2" class="brand" fill="#314039" font-size="31.2">NB</text>
    <text x="981" y="397.2" class="micro" fill="#314039" opacity="0.65">EMBOSSED</text>
    <rect x="981" y="406.4" width="71.14" height="3" rx="2" fill="#314039" opacity="0.42"/><rect x="981" y="428.4" width="106.7" height="2" rx="2" fill="#314039" opacity="0.22"/>
    
  </g>
  <g opacity="0.72"><text x="78" y="1004" class="micro" fill="#314039">BOTANICAL PAPER STUDIO</text><text x="78" y="1036" class="micro" fill="#314039" opacity="0.55">TEMPORARY DEMONSTRATION PORTFOLIO VISUAL / COVER</text></g>
</svg>
