<?xml version="1.0" encoding="UTF-8"?>
<svg xmlns="http://www.w3.org/2000/svg" width="1600" height="1100" viewBox="0 0 1600 1100" role="img" aria-labelledby="title desc">
  <title id="title">FLORA gallery-3 demo portfolio mockup</title>
  <desc id="desc">Temporary fictional demonstration project imagery for portfolio presentation only, not client work.</desc>
  <defs>
    <linearGradient id="bg_flora_gallery_3" x1="0" y1="0" x2="1" y2="1">
      <stop offset="0%" stop-color="#fffaf4"/>
      <stop offset="58%" stop-color="#f4eee6"/>
      <stop offset="100%" stop-color="#e9cbc8"/>
    </linearGradient>
    <radialGradient id="light_flora_gallery_3" cx="74%" cy="18%" r="64%">
      <stop offset="0%" stop-color="#ffffff" stop-opacity="0.62"/>
      <stop offset="100%" stop-color="#ffffff" stop-opacity="0"/>
    </radialGradient>
  </defs>
  <style><![CDATA[
    .brand { font-family: Georgia, Georgia, serif; font-weight: 500; letter-spacing: .02em; }
    .body { font-family: Arial, Arial, sans-serif; font-weight: 500; }
    .micro { font-family: Arial, Arial, sans-serif; font-size: 20px; font-weight: 700; letter-spacing: .12em; }
  ]]></style>
  <rect width="1600" height="1100" fill="url(#bg_flora_gallery_3)"/>
  <rect width="1600" height="1100" fill="url(#light_flora_gallery_3)"/>
  <circle cx="779.5" cy="983.18" r="1.36" fill="#314039" opacity="0.06"/><rect x="251.62" y="765.13" width="20.63" height="2.56" rx="1" fill="#314039" opacity="0.05" transform="rotate(112.26 251.62 765.13)"/><rect x="1115.45" y="158.11" width="19.82" height="1.6" rx="1" fill="#314039" opacity="0.07" transform="rotate(47.72 1115.45 158.11)"/><rect x="1208.36" y="28.7" width="23.31" height="2.35" rx="1" fill="#c87876" opacity="0.05" transform="rotate(158.61 1208.36 28.7)"/><rect x="1082.98" y="425.23" width="14.64" height="1.15" rx="1" fill="#c87876" opacity="0.07" transform="rotate(30.68 1082.98 425.23)"/><rect x="1299.17" y="1036.13" width="25.15" height="2.02" rx="1" fill="#314039" opacity="0.03" transform="rotate(6.16 1299.17 1036.13)"/><rect x="703.99" y="855.52" width="23.52" height="2.29" rx="1" fill="#314039" opacity="0.04" transform="rotate(59.71 703.99 855.52)"/><rect x="361.78" y="106.54" width="27.58" height="1.62" rx="1" fill="#314039" opacity="0.03" transform="rotate(132.26 361.78 106.54)"/><rect x="126.66" y="321.13" width="7.84" height="1.75" rx="1" fill="#c87876" opacity="0.08" transform="rotate(143.98 126.66 321.13)"/><circle cx="732.72" cy="990.78" r="1.42" fill="#314039" opacity="0.07"/><rect x="217.76" y="837.23" width="7.89" height="1.95" rx="1" fill="#c87876" opacity="0.03" transform="rotate(91.16 217.76 837.23)"/><rect x="338.69" y="381.81" width="24.68" height="2.43" rx="1" fill="#314039" opacity="0.05" transform="rotate(7.96 338.69 381.81)"/><rect x="288.01" y="337.99" width="6.88" height="1.53" rx="1" fill="#c87876" opacity="0.03" transform="rotate(136.49 288.01 337.99)"/><rect x="255.46" y="307.14" width="6.54" height="1.99" rx="1" fill="#c87876" opacity="0.03" transform="rotate(56.17 255.46 307.14)"/><rect x="1030.5" y="1061.85" width="24.48" height="0.83" rx="1" fill="#314039" opacity="0.05" transform="rotate(26.51 1030.5 1061.85)"/><circle cx="469.99" cy="1017.09" r="0.76" fill="#314039" opacity="0.07"/><circle cx="257.97" cy="324.73" r="2.28" fill="#c87876" opacity="0.04"/><circle cx="892.71" cy="262.04" r="1.71" fill="#314039" opacity="0.06"/><rect x="712.32" y="468.61" width="17.14" height="1.42" rx="1" fill="#c87876" opacity="0.07" transform="rotate(130.14 712.32 468.61)"/><rect x="1300.19" y="1003.88" width="7.56" height="1.36" rx="1" fill="#314039" opacity="0.06" transform="rotate(11.22 1300.19 1003.88)"/><rect x="1004.9" y="117.49" width="15.91" height="1.32" rx="1" fill="#314039" opacity="0.03" transform="rotate(28.84 1004.9 117.49)"/><rect x="1173.43" y="238.54" width="8.63" height="2.17" rx="1" fill="#c87876" opacity="0.05" transform="rotate(5 1173.43 238.54)"/><rect x="181.91" y="1095.31" width="11.05" height="2.44" rx="1" fill="#c87876" opacity="0.05" transform="rotate(41.87 181.91 1095.31)"/><rect x="1057.42" y="631.34" width="7.54" height="1.86" rx="1" fill="#314039" opacity="0.03" transform="rotate(98.17 1057.42 631.34)"/><rect x="801.81" y="158.3" width="11.58" height="1.15" rx="1" fill="#c87876" opacity="0.05" transform="rotate(176.4 801.81 158.3)"/><rect x="83.09" y="80.66" width="6.55" height="0.95" rx="1" fill="#314039" opacity="0.05" transform="rotate(163.86 83.09 80.66)"/><circle cx="690.65" cy="247.41" r="0.88" fill="#c87876" opacity="0.05"/><rect x="510.64" y="389.73" width="24.13" height="1.48" rx="1" fill="#c87876" opacity="0.08" transform="rotate(63.04 510.64 389.73)"/><rect x="1074.94" y="477.29" width="15.55" height="1.77" rx="1" fill="#c87876" opacity="0.07" transform="rotate(17.66 1074.94 477.29)"/><rect x="1186.17" y="458.28" width="15.64" height="1.22" rx="1" fill="#c87876" opacity="0.05" transform="rotate(42.78 1186.17 458.28)"/><circle cx="930.94" cy="943.63" r="1.41" fill="#c87876" opacity="0.05"/><rect x="1425.4" y="992.43" width="27.57" height="1.26" rx="1" fill="#314039" opacity="0.04" transform="rotate(19.74 1425.4 992.43)"/><circle cx="609.24" cy="458.77" r="0.85" fill="#314039" opacity="0.03"/><rect x="1450.33" y="768" width="24.54" height="2.21" rx="1" fill="#314039" opacity="0.07" transform="rotate(44.13 1450.33 768)"/><rect x="1218.03" y="691.9" width="22.42" height="2.51" rx="1" fill="#314039" opacity="0.05" transform="rotate(89.19 1218.03 691.9)"/><rect x="1036.47" y="974.24" width="24.33" height="1.34" rx="1" fill="#314039" opacity="0.05" transform="rotate(52.21 1036.47 974.24)"/><rect x="798.42" y="766.51" width="8.12" height="1.03" rx="1" fill="#314039" opacity="0.07" transform="rotate(86.92 798.42 766.51)"/><circle cx="1159.12" cy="445.11" r="1.49" fill="#c87876" opacity="0.05"/><circle cx="484.87" cy="119.64" r="2.15" fill="#314039" opacity="0.04"/><rect x="287.39" y="440.26" width="23.9" height="1.37" rx="1" fill="#314039" opacity="0.03" transform="rotate(59.76 287.39 440.26)"/><circle cx="1575.09" cy="927.51" r="1.9" fill="#314039" opacity="0.03"/><rect x="206.87" y="365.67" width="12.9" height="1.18" rx="1" fill="#c87876" opacity="0.04" transform="rotate(1.46 206.87 365.67)"/><circle cx="1462.56" cy="524.52" r="0.83" fill="#c87876" opacity="0.07"/><rect x="858.19" y="687.92" width="18.12" height="1.37" rx="1" fill="#c87876" opacity="0.03" transform="rotate(54.51 858.19 687.92)"/><rect x="452.7" y="461.25" width="25.32" height="1.65" rx="1" fill="#c87876" opacity="0.04" transform="rotate(52.5 452.7 461.25)"/><rect x="135.13" y="258.19" width="20.03" height="0.91" rx="1" fill="#c87876" opacity="0.05" transform="rotate(81.86 135.13 258.19)"/><rect x="1099.35" y="487.53" width="10.98" height="1.63" rx="1" fill="#c87876" opacity="0.05" transform="rotate(38.28 1099.35 487.53)"/><rect x="1041.1" y="502.56" width="17.61" height="2.5" rx="1" fill="#314039" opacity="0.03" transform="rotate(112.27 1041.1 502.56)"/><rect x="432.6" y="1020.22" width="20.41" height="2.35" rx="1" fill="#c87876" opacity="0.04" transform="rotate(105.17 432.6 1020.22)"/><circle cx="1578.57" cy="426.85" r="0.79" fill="#314039" opacity="0.07"/><circle cx="231.55" cy="72.51" r="1.14" fill="#c87876" opacity="0.06"/><rect x="257.46" y="751.83" width="21.62" height="0.93" rx="1" fill="#c87876" opacity="0.04" transform="rotate(116.21 257.46 751.83)"/><circle cx="460.07" cy="931.54" r="1.19" fill="#c87876" opacity="0.03"/><circle cx="1228.12" cy="1096.03" r="1.08" fill="#c87876" opacity="0.08"/><rect x="659.14" y="180.13" width="13.86" height="1.55" rx="1" fill="#c87876" opacity="0.07" transform="rotate(4.28 659.14 180.13)"/><rect x="679.07" y="846.96" width="16.02" height="1.41" rx="1" fill="#314039" opacity="0.07" transform="rotate(135.06 679.07 846.96)"/><circle cx="72.59" cy="318.16" r="0.78" fill="#314039" opacity="0.08"/><rect x="902.69" y="735.9" width="27.43" height="1.4" rx="1" fill="#c87876" opacity="0.03" transform="rotate(20.71 902.69 735.9)"/><rect x="1238.4" y="887.22" width="16.1" height="1.06" rx="1" fill="#c87876" opacity="0.08" transform="rotate(115.82 1238.4 887.22)"/><circle cx="1544.02" cy="86.69" r="0.87" fill="#314039" opacity="0.03"/><rect x="1123.41" y="717.27" width="22.02" height="0.95" rx="1" fill="#c87876" opacity="0.05" transform="rotate(105 1123.41 717.27)"/><rect x="158.11" y="218.21" width="6.19" height="1.19" rx="1" fill="#314039" opacity="0.04" transform="rotate(24.26 158.11 218.21)"/><rect x="227.54" y="496.37" width="17.69" height="1.23" rx="1" fill="#314039" opacity="0.04" transform="rotate(111.45 227.54 496.37)"/><circle cx="49.64" cy="836.77" r="1.05" fill="#c87876" opacity="0.03"/><circle cx="570.62" cy="607.72" r="1.68" fill="#c87876" opacity="0.06"/><circle cx="480.23" cy="68.99" r="1.73" fill="#314039" opacity="0.05"/><circle cx="960.43" cy="885.11" r="2.11" fill="#c87876" opacity="0.07"/><circle cx="272.78" cy="621.62" r="1.87" fill="#314039" opacity="0.05"/><rect x="434.01" y="69.38" width="6.27" height="2.56" rx="1" fill="#314039" opacity="0.03" transform="rotate(106.27 434.01 69.38)"/><rect x="795.79" y="177.51" width="13.7" height="2.14" rx="1" fill="#c87876" opacity="0.03" transform="rotate(33.78 795.79 177.51)"/><circle cx="866.19" cy="474.87" r="1.58" fill="#314039" opacity="0.03"/><rect x="192.02" y="566.36" width="23.98" height="1.09" rx="1" fill="#314039" opacity="0.03" transform="rotate(149.73 192.02 566.36)"/><rect x="756.85" y="516.8" width="21.82" height="2.1" rx="1" fill="#c87876" opacity="0.05" transform="rotate(178.18 756.85 516.8)"/><circle cx="1044.09" cy="634.41" r="2.03" fill="#314039" opacity="0.04"/><rect x="343.07" y="1072.01" width="12.91" height="1.39" rx="1" fill="#314039" opacity="0.04" transform="rotate(168.27 343.07 1072.01)"/><rect x="866.99" y="891.06" width="13.06" height="1.5" rx="1" fill="#c87876" opacity="0.05" transform="rotate(145.58 866.99 891.06)"/><rect x="847.03" y="1063.07" width="27.16" height="1.48" rx="1" fill="#314039" opacity="0.05" transform="rotate(75.21 847.03 1063.07)"/><rect x="1522.04" y="360.1" width="14.46" height="1.46" rx="1" fill="#314039" opacity="0.05" transform="rotate(64.38 1522.04 360.1)"/><rect x="1469.55" y="507.28" width="7.63" height="1.26" rx="1" fill="#c87876" opacity="0.04" transform="rotate(52.54 1469.55 507.28)"/><circle cx="925.31" cy="169.41" r="1.97" fill="#314039" opacity="0.04"/><rect x="335.71" y="375.93" width="6.95" height="2.21" rx="1" fill="#c87876" opacity="0.03" transform="rotate(169.77 335.71 375.93)"/><rect x="136.17" y="752.26" width="7.36" height="2.54" rx="1" fill="#c87876" opacity="0.08" transform="rotate(6.56 136.17 752.26)"/><circle cx="108.39" cy="1085.75" r="1.34" fill="#314039" opacity="0.04"/><circle cx="89.79" cy="164.7" r="1.69" fill="#314039" opacity="0.06"/><circle cx="498.89" cy="804.33" r="1.79" fill="#314039" opacity="0.07"/><rect x="216.28" y="1064.37" width="12.95" height="0.9" rx="1" fill="#314039" opacity="0.06" transform="rotate(22.84 216.28 1064.37)"/><rect x="517.89" y="949.02" width="9.25" height="1.08" rx="1" fill="#314039" opacity="0.04" transform="rotate(21.21 517.89 949.02)"/><circle cx="1421.55" cy="542.14" r="0.91" fill="#c87876" opacity="0.03"/><rect x="1113.64" y="91.12" width="23.87" height="1.27" rx="1" fill="#c87876" opacity="0.04" transform="rotate(61.94 1113.64 91.12)"/><circle cx="1435.2" cy="23.94" r="1.98" fill="#314039" opacity="0.04"/><circle cx="210.67" cy="648.82" r="1.14" fill="#c87876" opacity="0.05"/><rect x="321.87" y="575.52" width="9.05" height="1.98" rx="1" fill="#c87876" opacity="0.05" transform="rotate(165.07 321.87 575.52)"/><rect x="1560.17" y="380.29" width="8.58" height="1.03" rx="1" fill="#c87876" opacity="0.08" transform="rotate(50.88 1560.17 380.29)"/><rect x="1396.67" y="228.74" width="15.99" height="0.85" rx="1" fill="#c87876" opacity="0.06" transform="rotate(46.03 1396.67 228.74)"/><circle cx="928.31" cy="1091.09" r="1.53" fill="#c87876" opacity="0.07"/><rect x="443.23" y="970.95" width="21.37" height="1.1" rx="1" fill="#c87876" opacity="0.05" transform="rotate(51.16 443.23 970.95)"/><rect x="321.01" y="313.78" width="7.76" height="1.89" rx="1" fill="#314039" opacity="0.07" transform="rotate(21.77 321.01 313.78)"/><rect x="376.21" y="579.95" width="6.98" height="2.51" rx="1" fill="#314039" opacity="0.04" transform="rotate(30.09 376.21 579.95)"/><circle cx="322.67" cy="596.78" r="0.81" fill="#314039" opacity="0.03"/><circle cx="99.36" cy="595.05" r="1.6" fill="#c87876" opacity="0.06"/><circle cx="1377.64" cy="279.19" r="1.87" fill="#c87876" opacity="0.06"/><rect x="161.67" y="196.67" width="14.81" height="1.62" rx="1" fill="#c87876" opacity="0.06" transform="rotate(73.31 161.67 196.67)"/><rect x="1588.11" y="1083.2" width="15.32" height="1.74" rx="1" fill="#314039" opacity="0.06" transform="rotate(75.83 1588.11 1083.2)"/><rect x="1452.95" y="1022.74" width="23.72" height="1.02" rx="1" fill="#314039" opacity="0.03" transform="rotate(162.53 1452.95 1022.74)"/><rect x="442.05" y="350.35" width="15.57" height="2.57" rx="1" fill="#314039" opacity="0.03" transform="rotate(43.49 442.05 350.35)"/><rect x="992.23" y="568.35" width="25.58" height="1.77" rx="1" fill="#314039" opacity="0.05" transform="rotate(114.29 992.23 568.35)"/><rect x="1572.3" y="1034.34" width="27.15" height="1.74" rx="1" fill="#314039" opacity="0.05" transform="rotate(167.94 1572.3 1034.34)"/><circle cx="1523.51" cy="841.87" r="1.09" fill="#c87876" opacity="0.04"/><rect x="611.6" y="474.55" width="20.31" height="1.85" rx="1" fill="#c87876" opacity="0.06" transform="rotate(6.83 611.6 474.55)"/><circle cx="227.64" cy="941.19" r="1.51" fill="#c87876" opacity="0.05"/><circle cx="1005.79" cy="678.61" r="1.76" fill="#314039" opacity="0.07"/><circle cx="1563.4" cy="213.68" r="1.03" fill="#c87876" opacity="0.07"/><rect x="1409.42" y="311.3" width="13.07" height="0.82" rx="1" fill="#c87876" opacity="0.03" transform="rotate(134.32 1409.42 311.3)"/><circle cx="84.16" cy="530.66" r="2.14" fill="#314039" opacity="0.06"/><circle cx="729.41" cy="990.82" r="1.95" fill="#c87876" opacity="0.03"/><circle cx="1029.39" cy="120.79" r="0.92" fill="#c87876" opacity="0.03"/><rect x="996.7" y="821.39" width="19.07" height="1.41" rx="1" fill="#c87876" opacity="0.05" transform="rotate(49.56 996.7 821.39)"/><rect x="1521.49" y="481.55" width="10.04" height="2.09" rx="1" fill="#314039" opacity="0.05" transform="rotate(34.11 1521.49 481.55)"/><circle cx="1402.28" cy="477.51" r="0.96" fill="#314039" opacity="0.04"/><circle cx="1563.23" cy="879.95" r="0.93" fill="#c87876" opacity="0.04"/><circle cx="1019.65" cy="81.82" r="0.75" fill="#314039" opacity="0.05"/><circle cx="479.38" cy="348.44" r="2.25" fill="#314039" opacity="0.03"/><rect x="1210.54" y="854.59" width="20.75" height="1.16" rx="1" fill="#c87876" opacity="0.03" transform="rotate(142.49 1210.54 854.59)"/><rect x="79.6" y="338.16" width="11.84" height="1.06" rx="1" fill="#314039" opacity="0.04" transform="rotate(76.04 79.6 338.16)"/><circle cx="944.36" cy="228.1" r="2.2" fill="#314039" opacity="0.04"/><rect x="957.09" y="219.22" width="6.38" height="1.81" rx="1" fill="#314039" opacity="0.06" transform="rotate(152.3 957.09 219.22)"/><circle cx="898.75" cy="575.8" r="1.45" fill="#314039" opacity="0.03"/><circle cx="1245.48" cy="336.22" r="1.66" fill="#314039" opacity="0.06"/><rect x="1324.73" y="353.74" width="27.33" height="2.41" rx="1" fill="#c87876" opacity="0.05" transform="rotate(51.31 1324.73 353.74)"/><rect x="1109.58" y="106.9" width="12.49" height="0.95" rx="1" fill="#c87876" opacity="0.07" transform="rotate(53.32 1109.58 106.9)"/><rect x="379.77" y="227.22" width="23.6" height="1.71" rx="1" fill="#c87876" opacity="0.05" transform="rotate(41.5 379.77 227.22)"/><rect x="1540.42" y="209.79" width="17.09" height="1.32" rx="1" fill="#c87876" opacity="0.04" transform="rotate(10.36 1540.42 209.79)"/><circle cx="1246.18" cy="565.05" r="1.5" fill="#314039" opacity="0.07"/><rect x="1157.28" y="352.76" width="23.25" height="1.6" rx="1" fill="#c87876" opacity="0.03" transform="rotate(52.99 1157.28 352.76)"/><rect x="155.61" y="29.7" width="7.2" height="1.5" rx="1" fill="#c87876" opacity="0.04" transform="rotate(112.15 155.61 29.7)"/><circle cx="206.72" cy="484.52" r="1.61" fill="#314039" opacity="0.03"/><circle cx="407.64" cy="712.17" r="2.13" fill="#c87876" opacity="0.06"/><rect x="676.96" y="312.63" width="17.89" height="1.45" rx="1" fill="#c87876" opacity="0.03" transform="rotate(165.03 676.96 312.63)"/><rect x="1129.39" y="187.35" width="8.32" height="2.12" rx="1" fill="#c87876" opacity="0.06" transform="rotate(136.69 1129.39 187.35)"/><circle cx="983.99" cy="461.83" r="0.95" fill="#c87876" opacity="0.05"/>
  <circle cx="1350" cy="178" r="184" fill="#c87876" opacity="0.06"/>
  <circle cx="220" cy="894" r="220" fill="#aab59d" opacity="0.08"/>
  <g transform="rotate(-3 620 495)">
    <ellipse cx="638" cy="749" rx="434.6" ry="50" fill="#1f211d" opacity="0.12"/>
    <rect x="210" y="245" width="820" height="500" rx="6" fill="#fffaf4"/>
    <rect x="619" y="269" width="2" height="452" fill="#314039" opacity="0.12"/>
    <rect x="652" y="285" width="340" height="420" rx="4" fill="#e9cbc8"/>
    <path d="M 670 555 C 725.8 465, 807.8 610, 963.6 415" fill="none" stroke="#fffaf4" stroke-width="5" opacity="0.72"/>
    <text x="254" y="333" class="brand" fill="#314039" font-size="45.1">FIELD NOTES</text>
    <rect x="254" y="383" width="121.6" height="3" rx="2" fill="#314039" opacity="0.42"/><rect x="254" y="405" width="182.4" height="2" rx="2" fill="#314039" opacity="0.22"/><rect x="254" y="427" width="243.2" height="2" rx="2" fill="#314039" opacity="0.22"/><rect x="254" y="449" width="137.6" height="2" rx="2" fill="#314039" opacity="0.22"/><rect x="254" y="471" width="198.4" height="2" rx="2" fill="#314039" opacity="0.22"/><rect x="254" y="493" width="259.2" height="2" rx="2" fill="#314039" opacity="0.22"/><rect x="254" y="515" width="153.6" height="2" rx="2" fill="#314039" opacity="0.22"/><rect x="254" y="537" width="214.4" height="2" rx="2" fill="#314039" opacity="0.22"/><rect x="254" y="559" width="275.2" height="2" rx="2" fill="#314039" opacity="0.22"/>
  </g><g transform="rotate(8 1135 406)">
    <ellipse cx="1151" cy="625.2" rx="164.3" ry="42" fill="#1f211d" opacity="0.11"/>
    <rect x="980" y="196" width="310" height="420" rx="10" fill="#fffaf4"/>
    <rect x="998" y="214" width="274" height="384" rx="5" fill="none" stroke="#314039" stroke-opacity="0.11"/>
    <rect x="1014" y="238" width="68.2" height="4" rx="2" fill="#c87876" opacity="0.84"/>
    <text x="1014" y="338.8" class="brand" fill="#314039" font-size="37.2">CARDS</text>
    <text x="1016" y="372.8" class="micro" fill="#314039" opacity="0.65">SET OF 6</text>
    <rect x="1016" y="439.6" width="84.82" height="3" rx="2" fill="#314039" opacity="0.42"/><rect x="1016" y="461.6" width="127.22" height="2" rx="2" fill="#314039" opacity="0.22"/><rect x="1016" y="483.6" width="169.63" height="2" rx="2" fill="#314039" opacity="0.22"/><rect x="1016" y="505.6" width="95.98" height="2" rx="2" fill="#314039" opacity="0.22"/><rect x="1016" y="527.6" width="138.38" height="2" rx="2" fill="#314039" opacity="0.22"/>
    <circle cx="1224" cy="546" r="35" fill="#c87876" opacity="0.86"/><text x="1224" y="557" text-anchor="middle" class="micro" fill="#fffaf4" font-size="20">CA</text>
  </g><g transform="rotate(-6 1185 695)">
    <ellipse cx="1201" cy="799.2" rx="137.8" ry="17" fill="#1f211d" opacity="0.11"/>
    <rect x="1055" y="610" width="260" height="170" rx="10" fill="#fffaf4"/>
    <rect x="1073" y="628" width="224" height="134" rx="5" fill="none" stroke="#314039" stroke-opacity="0.11"/>
    <rect x="1089" y="652" width="57.2" height="4" rx="2" fill="#c87876" opacity="0.84"/>
    <text x="1089" y="667.8" class="brand" fill="#314039" font-size="31.2">THANK YOU</text>
    <text x="1091" y="701.8" class="micro" fill="#314039" opacity="0.65">INSERT</text>
    <rect x="1091" y="708.6" width="71.14" height="3" rx="2" fill="#314039" opacity="0.42"/><rect x="1091" y="730.6" width="106.7" height="2" rx="2" fill="#314039" opacity="0.22"/>
    
  </g>
  <g opacity="0.72"><text x="78" y="1004" class="micro" fill="#314039">BOTANICAL PAPER STUDIO</text><text x="78" y="1036" class="micro" fill="#314039" opacity="0.55">TEMPORARY DEMONSTRATION PORTFOLIO VISUAL / GALLERY-3</text></g>
</svg>
