<?xml version="1.0" encoding="UTF-8"?>
<svg xmlns="http://www.w3.org/2000/svg" width="1600" height="1100" viewBox="0 0 1600 1100" role="img" aria-labelledby="title desc">
  <title id="title">FLORA gallery-2 demo portfolio mockup</title>
  <desc id="desc">Temporary fictional demonstration project imagery for portfolio presentation only, not client work.</desc>
  <defs>
    <linearGradient id="bg_flora_gallery_2" x1="0" y1="0" x2="1" y2="1">
      <stop offset="0%" stop-color="#fffaf4"/>
      <stop offset="58%" stop-color="#f4eee6"/>
      <stop offset="100%" stop-color="#e9cbc8"/>
    </linearGradient>
    <radialGradient id="light_flora_gallery_2" cx="74%" cy="18%" r="64%">
      <stop offset="0%" stop-color="#ffffff" stop-opacity="0.62"/>
      <stop offset="100%" stop-color="#ffffff" stop-opacity="0"/>
    </radialGradient>
  </defs>
  <style><![CDATA[
    .brand { font-family: Georgia, Georgia, serif; font-weight: 500; letter-spacing: .02em; }
    .body { font-family: Arial, Arial, sans-serif; font-weight: 500; }
    .micro { font-family: Arial, Arial, sans-serif; font-size: 20px; font-weight: 700; letter-spacing: .12em; }
  ]]></style>
  <rect width="1600" height="1100" fill="url(#bg_flora_gallery_2)"/>
  <rect width="1600" height="1100" fill="url(#light_flora_gallery_2)"/>
  <rect x="451.63" y="429.46" width="7.19" height="0.86" rx="1" fill="#314039" opacity="0.03" transform="rotate(23.72 451.63 429.46)"/><circle cx="1274.25" cy="132.16" r="0.85" fill="#c87876" opacity="0.04"/><circle cx="1198.13" cy="605.65" r="0.91" fill="#c87876" opacity="0.03"/><circle cx="516.79" cy="612.39" r="1.6" fill="#314039" opacity="0.04"/><rect x="1009.29" y="838.08" width="14.85" height="1.7" rx="1" fill="#c87876" opacity="0.05" transform="rotate(100.87 1009.29 838.08)"/><rect x="893.44" y="54.44" width="22.9" height="1.7" rx="1" fill="#c87876" opacity="0.06" transform="rotate(161.05 893.44 54.44)"/><rect x="866.11" y="899.54" width="27.04" height="1.78" rx="1" fill="#314039" opacity="0.03" transform="rotate(130.59 866.11 899.54)"/><circle cx="1589.91" cy="588.14" r="0.93" fill="#c87876" opacity="0.08"/><circle cx="972.48" cy="777.85" r="1.18" fill="#c87876" opacity="0.06"/><rect x="1122.53" y="27.39" width="11.47" height="1.94" rx="1" fill="#c87876" opacity="0.04" transform="rotate(68.27 1122.53 27.39)"/><circle cx="565.45" cy="1065.83" r="2.19" fill="#314039" opacity="0.06"/><rect x="1432.24" y="684.91" width="26.54" height="0.82" rx="1" fill="#c87876" opacity="0.05" transform="rotate(70.78 1432.24 684.91)"/><rect x="516.67" y="605.75" width="11.25" height="1.6" rx="1" fill="#c87876" opacity="0.05" transform="rotate(10.18 516.67 605.75)"/><rect x="1222.84" y="85.24" width="12.38" height="2.21" rx="1" fill="#314039" opacity="0.07" transform="rotate(45.52 1222.84 85.24)"/><rect x="879.91" y="434.42" width="17.57" height="1.93" rx="1" fill="#c87876" opacity="0.06" transform="rotate(62.16 879.91 434.42)"/><circle cx="1251.95" cy="743.91" r="1.16" fill="#c87876" opacity="0.06"/><circle cx="14.71" cy="130.02" r="2.02" fill="#314039" opacity="0.03"/><circle cx="1198.15" cy="755.23" r="1.8" fill="#314039" opacity="0.04"/><rect x="1439.61" y="643.99" width="27.39" height="0.85" rx="1" fill="#c87876" opacity="0.08" transform="rotate(16.35 1439.61 643.99)"/><circle cx="93.17" cy="82.56" r="1.15" fill="#c87876" opacity="0.06"/><rect x="584.22" y="1063.34" width="16.77" height="2.32" rx="1" fill="#314039" opacity="0.05" transform="rotate(13.8 584.22 1063.34)"/><circle cx="15.01" cy="963.61" r="1.36" fill="#314039" opacity="0.04"/><circle cx="2.43" cy="1092.79" r="2.04" fill="#c87876" opacity="0.08"/><rect x="656.65" y="305.24" width="19.41" height="1.53" rx="1" fill="#c87876" opacity="0.03" transform="rotate(46.9 656.65 305.24)"/><rect x="194.71" y="649.67" width="14.8" height="1.44" rx="1" fill="#314039" opacity="0.06" transform="rotate(57.74 194.71 649.67)"/><circle cx="20.96" cy="246.77" r="1.09" fill="#314039" opacity="0.06"/><circle cx="105.63" cy="913.8" r="0.84" fill="#314039" opacity="0.03"/><circle cx="1484.44" cy="664.86" r="0.96" fill="#314039" opacity="0.03"/><circle cx="769.12" cy="237.57" r="1.31" fill="#c87876" opacity="0.04"/><rect x="154.34" y="151.73" width="6.85" height="2.14" rx="1" fill="#c87876" opacity="0.05" transform="rotate(103.96 154.34 151.73)"/><rect x="1022.9" y="885.26" width="19.44" height="1.86" rx="1" fill="#c87876" opacity="0.06" transform="rotate(81.7 1022.9 885.26)"/><rect x="107.75" y="612.09" width="22.66" height="0.96" rx="1" fill="#314039" opacity="0.03" transform="rotate(161.44 107.75 612.09)"/><rect x="1131.2" y="443" width="7.59" height="1.33" rx="1" fill="#314039" opacity="0.07" transform="rotate(107.36 1131.2 443)"/><rect x="723.81" y="913.82" width="16.91" height="1.07" rx="1" fill="#c87876" opacity="0.05" transform="rotate(111.45 723.81 913.82)"/><rect x="1361.25" y="423.15" width="18.73" height="1.01" rx="1" fill="#c87876" opacity="0.06" transform="rotate(52.3 1361.25 423.15)"/><circle cx="1195.53" cy="616.72" r="2.06" fill="#314039" opacity="0.06"/><circle cx="950.59" cy="636.29" r="1.7" fill="#314039" opacity="0.07"/><rect x="987.84" y="556.73" width="22.49" height="2.07" rx="1" fill="#c87876" opacity="0.05" transform="rotate(167.48 987.84 556.73)"/><circle cx="1412.48" cy="851.44" r="1.81" fill="#314039" opacity="0.07"/><circle cx="895.64" cy="758.19" r="0.91" fill="#314039" opacity="0.05"/><circle cx="912.08" cy="320.59" r="1.69" fill="#314039" opacity="0.06"/><circle cx="1129.96" cy="859.06" r="1.58" fill="#314039" opacity="0.06"/><rect x="1006.02" y="683.08" width="23.87" height="0.81" rx="1" fill="#314039" opacity="0.06" transform="rotate(61.53 1006.02 683.08)"/><rect x="1012.1" y="322.85" width="26.13" height="2.17" rx="1" fill="#314039" opacity="0.07" transform="rotate(21.15 1012.1 322.85)"/><rect x="780.72" y="992.79" width="19.98" height="1.74" rx="1" fill="#314039" opacity="0.04" transform="rotate(25.04 780.72 992.79)"/><rect x="994.55" y="697.32" width="10.92" height="1.66" rx="1" fill="#314039" opacity="0.04" transform="rotate(81.51 994.55 697.32)"/><rect x="1271.89" y="559.79" width="12.78" height="1.15" rx="1" fill="#c87876" opacity="0.07" transform="rotate(132.47 1271.89 559.79)"/><circle cx="1200.31" cy="313.45" r="1.93" fill="#c87876" opacity="0.07"/><rect x="208.01" y="569.81" width="10.46" height="1.84" rx="1" fill="#314039" opacity="0.06" transform="rotate(152.13 208.01 569.81)"/><rect x="138.25" y="506.85" width="16.89" height="2.41" rx="1" fill="#c87876" opacity="0.07" transform="rotate(49.01 138.25 506.85)"/><circle cx="623.73" cy="414.99" r="0.87" fill="#314039" opacity="0.07"/><rect x="514.42" y="1054.66" width="17.33" height="2.58" rx="1" fill="#c87876" opacity="0.07" transform="rotate(130.25 514.42 1054.66)"/><rect x="503.14" y="418.18" width="27.14" height="1.84" rx="1" fill="#c87876" opacity="0.07" transform="rotate(106.44 503.14 418.18)"/><rect x="1212.73" y="916.41" width="15.65" height="1.86" rx="1" fill="#c87876" opacity="0.04" transform="rotate(83.46 1212.73 916.41)"/><circle cx="1418.77" cy="616.79" r="1.41" fill="#c87876" opacity="0.07"/><rect x="1532.69" y="962.96" width="19.14" height="2.01" rx="1" fill="#314039" opacity="0.07" transform="rotate(94.21 1532.69 962.96)"/><circle cx="806.86" cy="964.04" r="1.74" fill="#c87876" opacity="0.04"/><rect x="1534.62" y="603.94" width="19.29" height="1.61" rx="1" fill="#c87876" opacity="0.07" transform="rotate(103.97 1534.62 603.94)"/><rect x="92.05" y="286.1" width="18.42" height="2.2" rx="1" fill="#c87876" opacity="0.03" transform="rotate(171.21 92.05 286.1)"/><rect x="106.64" y="1065.76" width="26.74" height="0.84" rx="1" fill="#314039" opacity="0.06" transform="rotate(36.43 106.64 1065.76)"/><circle cx="1381.39" cy="541.77" r="1.93" fill="#c87876" opacity="0.04"/><rect x="689.65" y="692.75" width="26.87" height="2.18" rx="1" fill="#c87876" opacity="0.08" transform="rotate(25.4 689.65 692.75)"/><rect x="267.4" y="981.33" width="21.03" height="1.83" rx="1" fill="#c87876" opacity="0.07" transform="rotate(132.7 267.4 981.33)"/><circle cx="1291.07" cy="1035.38" r="2.17" fill="#c87876" opacity="0.05"/><rect x="1244.32" y="615.01" width="22.73" height="2.42" rx="1" fill="#c87876" opacity="0.07" transform="rotate(141.72 1244.32 615.01)"/><rect x="367.01" y="474.41" width="14.12" height="1.77" rx="1" fill="#314039" opacity="0.05" transform="rotate(82.88 367.01 474.41)"/><rect x="19.15" y="234.17" width="11.92" height="1.94" rx="1" fill="#c87876" opacity="0.05" transform="rotate(138.23 19.15 234.17)"/><rect x="1431.89" y="69.01" width="17.2" height="1.66" rx="1" fill="#c87876" opacity="0.05" transform="rotate(156.24 1431.89 69.01)"/><circle cx="1474.72" cy="380.8" r="1.7" fill="#314039" opacity="0.06"/><rect x="558.75" y="1029.5" width="20.06" height="2.5" rx="1" fill="#314039" opacity="0.04" transform="rotate(62.93 558.75 1029.5)"/><rect x="867.49" y="1039.88" width="20.06" height="2.21" rx="1" fill="#c87876" opacity="0.04" transform="rotate(105.56 867.49 1039.88)"/><rect x="295.37" y="935.27" width="15.77" height="2.12" rx="1" fill="#c87876" opacity="0.03" transform="rotate(108.62 295.37 935.27)"/><circle cx="1556.37" cy="469.91" r="2.29" fill="#c87876" opacity="0.05"/><rect x="1273.14" y="233.4" width="15.92" height="1.27" rx="1" fill="#c87876" opacity="0.07" transform="rotate(94.66 1273.14 233.4)"/><rect x="1468.48" y="1061.6" width="17.03" height="1.86" rx="1" fill="#c87876" opacity="0.03" transform="rotate(34.3 1468.48 1061.6)"/><rect x="880.13" y="205.09" width="19.39" height="1.99" rx="1" fill="#314039" opacity="0.03" transform="rotate(66.67 880.13 205.09)"/><rect x="539.54" y="842.17" width="14.55" height="1.76" rx="1" fill="#314039" opacity="0.07" transform="rotate(130.44 539.54 842.17)"/><rect x="892.48" y="1007.77" width="17.18" height="1.38" rx="1" fill="#314039" opacity="0.06" transform="rotate(78.91 892.48 1007.77)"/><rect x="1428.8" y="913.61" width="15.48" height="1.33" rx="1" fill="#c87876" opacity="0.03" transform="rotate(124.5 1428.8 913.61)"/><circle cx="1498.44" cy="636.83" r="0.94" fill="#c87876" opacity="0.08"/><circle cx="379.24" cy="865.27" r="1.16" fill="#c87876" opacity="0.06"/><rect x="1199.59" y="842.53" width="23.89" height="1.34" rx="1" fill="#c87876" opacity="0.04" transform="rotate(44.77 1199.59 842.53)"/><circle cx="937.03" cy="437.07" r="1.2" fill="#314039" opacity="0.03"/><rect x="53.55" y="595.64" width="22.3" height="2.19" rx="1" fill="#314039" opacity="0.08" transform="rotate(75.38 53.55 595.64)"/><rect x="520.31" y="949.11" width="25.89" height="2.37" rx="1" fill="#314039" opacity="0.06" transform="rotate(90.53 520.31 949.11)"/><rect x="1018.69" y="170.83" width="9.87" height="0.98" rx="1" fill="#314039" opacity="0.06" transform="rotate(99.16 1018.69 170.83)"/><rect x="182.65" y="1006.04" width="25.41" height="1.33" rx="1" fill="#314039" opacity="0.03" transform="rotate(77.93 182.65 1006.04)"/><rect x="1056.32" y="39.08" width="10.35" height="2.18" rx="1" fill="#c87876" opacity="0.04" transform="rotate(41.08 1056.32 39.08)"/><circle cx="771.65" cy="585.79" r="1.96" fill="#314039" opacity="0.06"/><rect x="829.64" y="355.64" width="26.26" height="1.23" rx="1" fill="#314039" opacity="0.08" transform="rotate(166.16 829.64 355.64)"/><circle cx="542.81" cy="1042.63" r="2.24" fill="#c87876" opacity="0.06"/><rect x="352.49" y="642.41" width="19.95" height="1.59" rx="1" fill="#314039" opacity="0.03" transform="rotate(100.27 352.49 642.41)"/><rect x="120.78" y="332.04" width="24.84" height="2.32" rx="1" fill="#314039" opacity="0.06" transform="rotate(39.77 120.78 332.04)"/><rect x="847.6" y="736.75" width="13.53" height="1.85" rx="1" fill="#314039" opacity="0.06" transform="rotate(37.97 847.6 736.75)"/><circle cx="242.81" cy="166.83" r="2.18" fill="#c87876" opacity="0.06"/><rect x="418.86" y="352.36" width="21.52" height="0.93" rx="1" fill="#c87876" opacity="0.03" transform="rotate(81.03 418.86 352.36)"/><rect x="81.46" y="874.51" width="25.11" height="2.38" rx="1" fill="#c87876" opacity="0.06" transform="rotate(110.17 81.46 874.51)"/><rect x="860.78" y="741.65" width="17.01" height="2.54" rx="1" fill="#314039" opacity="0.03" transform="rotate(117.58 860.78 741.65)"/><rect x="540.49" y="362.37" width="7.16" height="2.53" rx="1" fill="#c87876" opacity="0.03" transform="rotate(17.85 540.49 362.37)"/><circle cx="1486.69" cy="828.79" r="1.99" fill="#c87876" opacity="0.05"/><circle cx="1596.3" cy="801.43" r="2.15" fill="#314039" opacity="0.04"/><rect x="941.01" y="553.76" width="25.59" height="2.38" rx="1" fill="#314039" opacity="0.06" transform="rotate(121.8 941.01 553.76)"/><rect x="1280.42" y="269.79" width="16.47" height="1.16" rx="1" fill="#c87876" opacity="0.08" transform="rotate(107.3 1280.42 269.79)"/><circle cx="837.6" cy="134.6" r="1.43" fill="#314039" opacity="0.03"/><rect x="565.44" y="201.58" width="11.3" height="2.21" rx="1" fill="#c87876" opacity="0.05" transform="rotate(179.41 565.44 201.58)"/><rect x="1054.86" y="892.7" width="15.02" height="1" rx="1" fill="#c87876" opacity="0.07" transform="rotate(101.11 1054.86 892.7)"/><circle cx="262.68" cy="174.93" r="1.14" fill="#314039" opacity="0.07"/><rect x="341.84" y="35.33" width="15.37" height="2.35" rx="1" fill="#c87876" opacity="0.05" transform="rotate(134.35 341.84 35.33)"/><rect x="1076.27" y="706.73" width="9.13" height="2.14" rx="1" fill="#c87876" opacity="0.06" transform="rotate(61.79 1076.27 706.73)"/><rect x="654.54" y="240.53" width="24.66" height="1.57" rx="1" fill="#c87876" opacity="0.04" transform="rotate(173.25 654.54 240.53)"/><rect x="372.04" y="901.91" width="12.32" height="1.95" rx="1" fill="#314039" opacity="0.04" transform="rotate(57.75 372.04 901.91)"/><rect x="782.2" y="131.7" width="17.6" height="1.58" rx="1" fill="#c87876" opacity="0.07" transform="rotate(50.72 782.2 131.7)"/><rect x="1377.06" y="48.75" width="20.5" height="1.36" rx="1" fill="#c87876" opacity="0.03" transform="rotate(135.67 1377.06 48.75)"/><rect x="775.07" y="549.01" width="8.2" height="1.43" rx="1" fill="#314039" opacity="0.06" transform="rotate(12.55 775.07 549.01)"/><circle cx="144.96" cy="849.78" r="0.78" fill="#314039" opacity="0.04"/><circle cx="152.54" cy="357.4" r="1.31" fill="#314039" opacity="0.06"/><circle cx="448.37" cy="303.77" r="2.21" fill="#c87876" opacity="0.03"/><rect x="668.51" y="998.35" width="26.07" height="2.01" rx="1" fill="#314039" opacity="0.03" transform="rotate(61.66 668.51 998.35)"/><circle cx="1415.01" cy="1075.62" r="1.79" fill="#314039" opacity="0.08"/><rect x="1062.32" y="684.06" width="22.91" height="1.76" rx="1" fill="#c87876" opacity="0.04" transform="rotate(163.95 1062.32 684.06)"/><rect x="696.23" y="855.11" width="21.31" height="2.53" rx="1" fill="#c87876" opacity="0.04" transform="rotate(104.07 696.23 855.11)"/><rect x="1240.33" y="989.51" width="23.35" height="1.89" rx="1" fill="#c87876" opacity="0.08" transform="rotate(56.69 1240.33 989.51)"/><rect x="11.61" y="906.69" width="19.4" height="1.53" rx="1" fill="#c87876" opacity="0.03" transform="rotate(140.71 11.61 906.69)"/><circle cx="928.21" cy="329.76" r="2.24" fill="#c87876" opacity="0.05"/><rect x="1206.27" y="448.87" width="15.17" height="1.93" rx="1" fill="#314039" opacity="0.06" transform="rotate(65.89 1206.27 448.87)"/><rect x="1432.48" y="93.04" width="25.81" height="1.07" rx="1" fill="#314039" opacity="0.05" transform="rotate(158.64 1432.48 93.04)"/><rect x="1575.92" y="596.7" width="26.48" height="1.4" rx="1" fill="#314039" opacity="0.06" transform="rotate(149.09 1575.92 596.7)"/><circle cx="961.82" cy="861.1" r="1.98" fill="#314039" opacity="0.06"/><rect x="506.65" y="1045.29" width="18.58" height="1.35" rx="1" fill="#314039" opacity="0.08" transform="rotate(1.15 506.65 1045.29)"/><rect x="147.52" y="731.04" width="18.46" height="1.59" rx="1" fill="#314039" opacity="0.03" transform="rotate(76.03 147.52 731.04)"/><rect x="46.91" y="33.68" width="26.1" height="2.47" rx="1" fill="#314039" opacity="0.07" transform="rotate(4.69 46.91 33.68)"/><circle cx="954.95" cy="176.01" r="1.57" fill="#314039" opacity="0.07"/><circle cx="1224.91" cy="1077.55" r="0.76" fill="#c87876" opacity="0.04"/><circle cx="1035.24" cy="1077.41" r="1.59" fill="#314039" opacity="0.03"/><rect x="956.6" y="120.52" width="8.95" height="0.97" rx="1" fill="#c87876" opacity="0.05" transform="rotate(159.72 956.6 120.52)"/><rect x="931.27" y="315.43" width="17.85" height="1.66" rx="1" fill="#314039" opacity="0.06" transform="rotate(82.91 931.27 315.43)"/><circle cx="856.59" cy="340.07" r="1.51" fill="#314039" opacity="0.04"/><rect x="235.67" y="611.73" width="6.62" height="1.58" rx="1" fill="#314039" opacity="0.03" transform="rotate(155.1 235.67 611.73)"/><rect x="553.6" y="7.57" width="26.96" height="2.42" rx="1" fill="#c87876" opacity="0.05" transform="rotate(46.97 553.6 7.57)"/><rect x="486.25" y="362.47" width="13.49" height="1.02" rx="1" fill="#314039" opacity="0.07" transform="rotate(23.14 486.25 362.47)"/>
  <circle cx="1350" cy="178" r="184" fill="#c87876" opacity="0.06"/>
  <circle cx="220" cy="894" r="220" fill="#aab59d" opacity="0.08"/>
  <g transform="rotate(-7 515 477)">
    <ellipse cx="531" cy="722.4" rx="323.3" ry="49" fill="#1f211d" opacity="0.1"/>
    <rect x="210" y="232" width="610" height="490" rx="7" fill="#e9cbc8"/>
    <text x="260" y="296" class="micro" fill="#314039" opacity="0.25">FL</text><text x="369.8" y="296" class="micro" fill="#314039" opacity="0.25">FL</text><text x="479.6" y="296" class="micro" fill="#314039" opacity="0.25">FL</text><text x="589.4" y="296" class="micro" fill="#314039" opacity="0.25">FL</text><text x="699.2" y="296" class="micro" fill="#314039" opacity="0.25">FL</text><text x="260" y="403.8" class="micro" fill="#314039" opacity="0.25">FL</text><text x="369.8" y="403.8" class="micro" fill="#314039" opacity="0.25">FL</text><text x="479.6" y="403.8" class="micro" fill="#314039" opacity="0.25">FL</text><text x="589.4" y="403.8" class="micro" fill="#314039" opacity="0.25">FL</text><text x="699.2" y="403.8" class="micro" fill="#314039" opacity="0.25">FL</text><text x="260" y="511.6" class="micro" fill="#314039" opacity="0.25">FL</text><text x="369.8" y="511.6" class="micro" fill="#314039" opacity="0.25">FL</text><text x="479.6" y="511.6" class="micro" fill="#314039" opacity="0.25">FL</text><text x="589.4" y="511.6" class="micro" fill="#314039" opacity="0.25">FL</text><text x="699.2" y="511.6" class="micro" fill="#314039" opacity="0.25">FL</text><text x="260" y="619.4" class="micro" fill="#314039" opacity="0.25">FL</text><text x="369.8" y="619.4" class="micro" fill="#314039" opacity="0.25">FL</text><text x="479.6" y="619.4" class="micro" fill="#314039" opacity="0.25">FL</text><text x="589.4" y="619.4" class="micro" fill="#314039" opacity="0.25">FL</text><text x="699.2" y="619.4" class="micro" fill="#314039" opacity="0.25">FL</text>
  </g><g transform="rotate(4 961 465.88)">
    <ellipse cx="995" cy="804.21" rx="213.06" ry="11.48" fill="#1f211d" opacity="0.14"/>
    <polygon points="760,276 832,245.76 1162,245.76 1090,276" fill="#e9cbc8" opacity="0.96"/>
    <polygon points="1090,276 1162,245.76 1162,655.76 1090,686" fill="#aab59d" opacity="0.62"/>
    <rect x="760" y="276" width="330" height="410" rx="8" fill="#fffaf4"/>
    <rect x="806.2" y="341.6" width="52.8" height="5" rx="3" fill="#c87876"/>
    <text x="806.2" y="448.2" class="brand" fill="#314039" font-size="42.9">FLORA</text>
    <text x="809.5" y="480.2" class="micro" fill="#314039" opacity="0.56">GIFT SLEEVE</text>
    <rect x="809.5" y="538.4" width="77.75" height="3" rx="2" fill="#314039" opacity="0.42"/><rect x="809.5" y="560.4" width="116.62" height="2" rx="2" fill="#314039" opacity="0.22"/><rect x="809.5" y="582.4" width="155.5" height="2" rx="2" fill="#314039" opacity="0.22"/><rect x="809.5" y="604.4" width="87.98" height="2" rx="2" fill="#314039" opacity="0.22"/>
  </g><g transform="rotate(-12 1204 601)">
    <ellipse cx="1216" cy="734" rx="84.8" ry="25" fill="#1f211d" opacity="0.09"/>
    <rect x="1124" y="476" width="160" height="250" rx="7" fill="#fffaf4"/>
    <circle cx="1204" cy="504" r="8" fill="#f4eee6" stroke="#314039" stroke-opacity="0.18"/>
    <text x="1204" y="611" text-anchor="middle" class="brand" fill="#314039" font-size="22.4">FL</text>
    <rect x="1159.2" y="641" width="89.6" height="3" rx="2" fill="#c87876"/>
  </g><g transform="rotate(35 448 322)">
    <path d="M 448 502 C 479.5 394, 433 268, 473.5 142" fill="none" stroke="#536759" stroke-width="1.6500000000000001" opacity="0.72"/>
    <ellipse cx="469" cy="268" rx="25.5" ry="9.75" fill="#aab59d" opacity="0.76" transform="rotate(-24 469 268)"/>
    <ellipse cx="436" cy="340" rx="22.5" ry="9" fill="#e9cbc8" opacity="0.74" transform="rotate(28 436 340)"/>
    <ellipse cx="478" cy="199.6" rx="21" ry="8.25" fill="#c87876" opacity="0.52" transform="rotate(-20 478 199.6)"/>
  </g>
  <g opacity="0.72"><text x="78" y="1004" class="micro" fill="#314039">BOTANICAL PAPER STUDIO</text><text x="78" y="1036" class="micro" fill="#314039" opacity="0.55">TEMPORARY DEMONSTRATION PORTFOLIO VISUAL / GALLERY-2</text></g>
</svg>
