<?xml version="1.0" encoding="UTF-8"?>
<svg xmlns="http://www.w3.org/2000/svg" width="1600" height="1100" viewBox="0 0 1600 1100" role="img" aria-labelledby="title desc">
  <title id="title">FLORA gallery-4 demo portfolio mockup</title>
  <desc id="desc">Temporary fictional demonstration project imagery for portfolio presentation only, not client work.</desc>
  <defs>
    <linearGradient id="bg_flora_gallery_4" x1="0" y1="0" x2="1" y2="1">
      <stop offset="0%" stop-color="#fffaf4"/>
      <stop offset="58%" stop-color="#f4eee6"/>
      <stop offset="100%" stop-color="#e9cbc8"/>
    </linearGradient>
    <radialGradient id="light_flora_gallery_4" cx="74%" cy="18%" r="64%">
      <stop offset="0%" stop-color="#ffffff" stop-opacity="0.62"/>
      <stop offset="100%" stop-color="#ffffff" stop-opacity="0"/>
    </radialGradient>
  </defs>
  <style><![CDATA[
    .brand { font-family: Georgia, Georgia, serif; font-weight: 500; letter-spacing: .02em; }
    .body { font-family: Arial, Arial, sans-serif; font-weight: 500; }
    .micro { font-family: Arial, Arial, sans-serif; font-size: 20px; font-weight: 700; letter-spacing: .12em; }
  ]]></style>
  <rect width="1600" height="1100" fill="url(#bg_flora_gallery_4)"/>
  <rect width="1600" height="1100" fill="url(#light_flora_gallery_4)"/>
  <circle cx="874.03" cy="322.2" r="2.01" fill="#c87876" opacity="0.04"/><rect x="367.61" y="239.64" width="18.52" height="0.97" rx="1" fill="#c87876" opacity="0.04" transform="rotate(129.38 367.61 239.64)"/><circle cx="1077.38" cy="1033.88" r="1.98" fill="#314039" opacity="0.07"/><rect x="1115.77" y="22.98" width="7.22" height="1.5" rx="1" fill="#314039" opacity="0.04" transform="rotate(169.52 1115.77 22.98)"/><circle cx="163.19" cy="200.44" r="1.88" fill="#c87876" opacity="0.06"/><circle cx="976.34" cy="807.11" r="1.58" fill="#c87876" opacity="0.08"/><rect x="834.04" y="607.21" width="10.31" height="1.96" rx="1" fill="#314039" opacity="0.08" transform="rotate(119.35 834.04 607.21)"/><rect x="173.71" y="716.34" width="10.7" height="1.88" rx="1" fill="#c87876" opacity="0.05" transform="rotate(152.33 173.71 716.34)"/><rect x="532.09" y="645.5" width="22.6" height="0.96" rx="1" fill="#c87876" opacity="0.06" transform="rotate(83.48 532.09 645.5)"/><rect x="544.94" y="303.27" width="7.12" height="1.92" rx="1" fill="#c87876" opacity="0.04" transform="rotate(173.45 544.94 303.27)"/><rect x="1266.05" y="476.47" width="22.73" height="1.79" rx="1" fill="#c87876" opacity="0.05" transform="rotate(31.17 1266.05 476.47)"/><circle cx="382.68" cy="781.94" r="1.59" fill="#314039" opacity="0.06"/><circle cx="969.12" cy="846.2" r="1.48" fill="#c87876" opacity="0.06"/><circle cx="451.92" cy="1089.03" r="1.33" fill="#314039" opacity="0.05"/><rect x="1061.01" y="390.12" width="22.27" height="1.8" rx="1" fill="#c87876" opacity="0.06" transform="rotate(46.22 1061.01 390.12)"/><circle cx="967.81" cy="2.44" r="1.4" fill="#c87876" opacity="0.05"/><circle cx="1362.69" cy="1021.67" r="1.7" fill="#314039" opacity="0.06"/><circle cx="194.43" cy="395.77" r="1.49" fill="#314039" opacity="0.04"/><circle cx="1465.32" cy="269.09" r="1.73" fill="#314039" opacity="0.07"/><rect x="1557.38" y="584.37" width="23.41" height="1.51" rx="1" fill="#c87876" opacity="0.05" transform="rotate(58.86 1557.38 584.37)"/><rect x="798.46" y="750.16" width="26.7" height="0.81" rx="1" fill="#314039" opacity="0.05" transform="rotate(3.5 798.46 750.16)"/><circle cx="596.22" cy="98.87" r="1.86" fill="#c87876" opacity="0.03"/><circle cx="190.8" cy="14.35" r="1.96" fill="#314039" opacity="0.05"/><rect x="1354.22" y="1074.73" width="16.09" height="1.21" rx="1" fill="#c87876" opacity="0.07" transform="rotate(85.64 1354.22 1074.73)"/><rect x="926.64" y="958.32" width="20.19" height="1.44" rx="1" fill="#c87876" opacity="0.06" transform="rotate(18.27 926.64 958.32)"/><rect x="89.8" y="130.16" width="11.36" height="2.14" rx="1" fill="#c87876" opacity="0.04" transform="rotate(27.39 89.8 130.16)"/><rect x="946.35" y="704.37" width="11.21" height="1.79" rx="1" fill="#314039" opacity="0.07" transform="rotate(113.65 946.35 704.37)"/><circle cx="105.63" cy="473.19" r="0.92" fill="#c87876" opacity="0.03"/><rect x="126.7" y="955.96" width="10.56" height="1.09" rx="1" fill="#314039" opacity="0.05" transform="rotate(162.52 126.7 955.96)"/><circle cx="1381.72" cy="385.32" r="0.88" fill="#314039" opacity="0.05"/><rect x="563.56" y="83.64" width="16.8" height="0.81" rx="1" fill="#c87876" opacity="0.04" transform="rotate(17.72 563.56 83.64)"/><circle cx="817.32" cy="318.57" r="1.45" fill="#314039" opacity="0.04"/><rect x="916.15" y="730.24" width="20.75" height="0.99" rx="1" fill="#c87876" opacity="0.08" transform="rotate(120.11 916.15 730.24)"/><circle cx="760.28" cy="676.13" r="1.87" fill="#314039" opacity="0.04"/><rect x="661.56" y="373.01" width="9.55" height="0.95" rx="1" fill="#c87876" opacity="0.04" transform="rotate(19.88 661.56 373.01)"/><rect x="948.41" y="523.47" width="14.52" height="1.85" rx="1" fill="#314039" opacity="0.03" transform="rotate(9.67 948.41 523.47)"/><rect x="487.42" y="232.63" width="24.68" height="0.86" rx="1" fill="#c87876" opacity="0.07" transform="rotate(51.9 487.42 232.63)"/><circle cx="1141.64" cy="460.55" r="1.57" fill="#c87876" opacity="0.03"/><circle cx="621.89" cy="18.01" r="2.2" fill="#c87876" opacity="0.03"/><circle cx="453.62" cy="278.13" r="0.77" fill="#314039" opacity="0.06"/><rect x="590.91" y="784.89" width="14.04" height="1.64" rx="1" fill="#c87876" opacity="0.05" transform="rotate(174.89 590.91 784.89)"/><rect x="970.57" y="289.89" width="16.07" height="1.54" rx="1" fill="#314039" opacity="0.06" transform="rotate(98.51 970.57 289.89)"/><rect x="483.97" y="383.3" width="23.65" height="2.21" rx="1" fill="#c87876" opacity="0.05" transform="rotate(55.04 483.97 383.3)"/><circle cx="208.32" cy="845.77" r="1.02" fill="#314039" opacity="0.03"/><rect x="1455.19" y="157.58" width="26.02" height="1.16" rx="1" fill="#c87876" opacity="0.06" transform="rotate(162.68 1455.19 157.58)"/><circle cx="638.53" cy="725.94" r="1.73" fill="#c87876" opacity="0.05"/><rect x="653.57" y="461.61" width="11.6" height="1.26" rx="1" fill="#314039" opacity="0.08" transform="rotate(59.75 653.57 461.61)"/><rect x="301.85" y="833.28" width="12.08" height="1.92" rx="1" fill="#314039" opacity="0.07" transform="rotate(98.71 301.85 833.28)"/><circle cx="189.89" cy="12.39" r="2.04" fill="#314039" opacity="0.05"/><circle cx="205.8" cy="1006.58" r="1.56" fill="#c87876" opacity="0.04"/><rect x="783.26" y="678.8" width="6.62" height="0.92" rx="1" fill="#c87876" opacity="0.07" transform="rotate(140.94 783.26 678.8)"/><rect x="573.67" y="630.97" width="24.65" height="2.29" rx="1" fill="#c87876" opacity="0.06" transform="rotate(94.63 573.67 630.97)"/><rect x="1093.8" y="209.83" width="14.44" height="1.71" rx="1" fill="#314039" opacity="0.03" transform="rotate(63.63 1093.8 209.83)"/><rect x="1065.51" y="21.94" width="16.98" height="1.18" rx="1" fill="#314039" opacity="0.04" transform="rotate(137.84 1065.51 21.94)"/><rect x="257.33" y="891.69" width="11.18" height="1.64" rx="1" fill="#314039" opacity="0.08" transform="rotate(69.51 257.33 891.69)"/><rect x="1545.09" y="633.48" width="17.7" height="2.6" rx="1" fill="#314039" opacity="0.03" transform="rotate(131.23 1545.09 633.48)"/><circle cx="779.44" cy="120.5" r="1.1" fill="#314039" opacity="0.03"/><rect x="1026.96" y="497.66" width="15.69" height="2.42" rx="1" fill="#c87876" opacity="0.03" transform="rotate(170.5 1026.96 497.66)"/><rect x="840.14" y="828.17" width="24.3" height="1.63" rx="1" fill="#c87876" opacity="0.03" transform="rotate(172.12 840.14 828.17)"/><circle cx="935.86" cy="184.37" r="1.91" fill="#c87876" opacity="0.03"/><rect x="1284.32" y="600.21" width="25.01" height="2.2" rx="1" fill="#c87876" opacity="0.05" transform="rotate(171.43 1284.32 600.21)"/><circle cx="1372.17" cy="359.52" r="1.42" fill="#c87876" opacity="0.06"/><rect x="1225.88" y="387.48" width="22.76" height="2.44" rx="1" fill="#314039" opacity="0.05" transform="rotate(114.23 1225.88 387.48)"/><rect x="344.74" y="583.72" width="18.29" height="1.77" rx="1" fill="#c87876" opacity="0.04" transform="rotate(159.27 344.74 583.72)"/><rect x="477.34" y="211.77" width="10.45" height="0.87" rx="1" fill="#314039" opacity="0.03" transform="rotate(58.2 477.34 211.77)"/><circle cx="108.93" cy="247.18" r="0.73" fill="#c87876" opacity="0.03"/><rect x="630.47" y="283.06" width="8.45" height="0.93" rx="1" fill="#c87876" opacity="0.03" transform="rotate(23.61 630.47 283.06)"/><rect x="1255.06" y="150.23" width="16.08" height="2.41" rx="1" fill="#c87876" opacity="0.05" transform="rotate(75.86 1255.06 150.23)"/><circle cx="986.12" cy="242.61" r="0.82" fill="#314039" opacity="0.05"/><rect x="1505.01" y="409.1" width="20.55" height="1.83" rx="1" fill="#314039" opacity="0.05" transform="rotate(65.88 1505.01 409.1)"/><rect x="1293.3" y="951.68" width="25.37" height="2.16" rx="1" fill="#c87876" opacity="0.04" transform="rotate(107.29 1293.3 951.68)"/><rect x="16.42" y="264.74" width="18.62" height="0.93" rx="1" fill="#314039" opacity="0.05" transform="rotate(148.61 16.42 264.74)"/><circle cx="390.63" cy="991.4" r="0.71" fill="#c87876" opacity="0.03"/><rect x="935.3" y="387.08" width="7.49" height="0.93" rx="1" fill="#c87876" opacity="0.07" transform="rotate(29.87 935.3 387.08)"/><rect x="1049.59" y="39.91" width="20.91" height="1.47" rx="1" fill="#c87876" opacity="0.07" transform="rotate(21.67 1049.59 39.91)"/><rect x="822.04" y="629.14" width="7.36" height="1.65" rx="1" fill="#314039" opacity="0.06" transform="rotate(175.54 822.04 629.14)"/><rect x="1360.34" y="777.32" width="7.99" height="2.4" rx="1" fill="#314039" opacity="0.07" transform="rotate(154.79 1360.34 777.32)"/><rect x="1386.8" y="502.44" width="18.48" height="2.09" rx="1" fill="#c87876" opacity="0.03" transform="rotate(28.3 1386.8 502.44)"/><rect x="464.25" y="420.85" width="9.68" height="2.24" rx="1" fill="#c87876" opacity="0.08" transform="rotate(135.92 464.25 420.85)"/><circle cx="1509.87" cy="413.59" r="1.71" fill="#c87876" opacity="0.03"/><rect x="781.36" y="724.08" width="25.04" height="2.52" rx="1" fill="#314039" opacity="0.04" transform="rotate(112.43 781.36 724.08)"/><rect x="900.4" y="961.5" width="10.24" height="1.22" rx="1" fill="#314039" opacity="0.07" transform="rotate(24.44 900.4 961.5)"/><rect x="108.1" y="283.22" width="21.85" height="1.02" rx="1" fill="#c87876" opacity="0.07" transform="rotate(98.15 108.1 283.22)"/><rect x="1037.84" y="1034.1" width="19.01" height="1.9" rx="1" fill="#c87876" opacity="0.03" transform="rotate(49.49 1037.84 1034.1)"/><rect x="634.22" y="368.64" width="25.63" height="1.68" rx="1" fill="#314039" opacity="0.07" transform="rotate(102.14 634.22 368.64)"/><rect x="771.85" y="956.61" width="10.46" height="1.53" rx="1" fill="#314039" opacity="0.04" transform="rotate(50.54 771.85 956.61)"/><rect x="1165.85" y="664.5" width="6.3" height="2.17" rx="1" fill="#314039" opacity="0.07" transform="rotate(131.98 1165.85 664.5)"/><rect x="647.23" y="530.01" width="8.25" height="2.3" rx="1" fill="#314039" opacity="0.03" transform="rotate(154.92 647.23 530.01)"/><circle cx="1111.03" cy="536.71" r="1.92" fill="#c87876" opacity="0.03"/><rect x="375.24" y="898.86" width="17" height="1.91" rx="1" fill="#314039" opacity="0.04" transform="rotate(123.3 375.24 898.86)"/><rect x="1267.08" y="3.48" width="15.08" height="2.45" rx="1" fill="#314039" opacity="0.03" transform="rotate(112.29 1267.08 3.48)"/><rect x="1480" y="958.8" width="26.42" height="2.04" rx="1" fill="#314039" opacity="0.06" transform="rotate(117.45 1480 958.8)"/><rect x="181.07" y="122.23" width="19.43" height="2.5" rx="1" fill="#c87876" opacity="0.03" transform="rotate(53.56 181.07 122.23)"/><circle cx="1325.28" cy="266.53" r="1.66" fill="#314039" opacity="0.03"/><rect x="372.24" y="630.54" width="25.97" height="0.88" rx="1" fill="#314039" opacity="0.04" transform="rotate(111.19 372.24 630.54)"/><rect x="621.72" y="806.7" width="9.65" height="1.67" rx="1" fill="#314039" opacity="0.03" transform="rotate(21 621.72 806.7)"/><circle cx="840.55" cy="580.29" r="0.77" fill="#c87876" opacity="0.03"/><rect x="1218.76" y="322.73" width="21.33" height="1.56" rx="1" fill="#314039" opacity="0.08" transform="rotate(77.5 1218.76 322.73)"/><circle cx="1445.67" cy="735.53" r="2.12" fill="#c87876" opacity="0.08"/><rect x="1273.6" y="31.41" width="7.85" height="2.09" rx="1" fill="#c87876" opacity="0.05" transform="rotate(141.94 1273.6 31.41)"/><rect x="471.66" y="80.39" width="21.36" height="1.87" rx="1" fill="#314039" opacity="0.05" transform="rotate(12.83 471.66 80.39)"/><circle cx="194.59" cy="407.72" r="1.61" fill="#c87876" opacity="0.05"/><circle cx="1528.92" cy="1062.17" r="1.53" fill="#c87876" opacity="0.04"/><rect x="845.61" y="716.22" width="23.18" height="2.49" rx="1" fill="#c87876" opacity="0.07" transform="rotate(31.88 845.61 716.22)"/><circle cx="1335.55" cy="814.41" r="2.04" fill="#314039" opacity="0.08"/><rect x="1387.37" y="893.94" width="10.34" height="1.41" rx="1" fill="#c87876" opacity="0.07" transform="rotate(78.49 1387.37 893.94)"/><circle cx="317.33" cy="123.61" r="1.78" fill="#314039" opacity="0.03"/><rect x="831.03" y="407.6" width="8.61" height="2.45" rx="1" fill="#c87876" opacity="0.04" transform="rotate(67.81 831.03 407.6)"/><rect x="793" y="1010.88" width="15.19" height="1.97" rx="1" fill="#314039" opacity="0.08" transform="rotate(96.74 793 1010.88)"/><rect x="1067.12" y="515.2" width="12.67" height="0.95" rx="1" fill="#c87876" opacity="0.03" transform="rotate(24.72 1067.12 515.2)"/><rect x="866.07" y="1090.06" width="25.06" height="1.52" rx="1" fill="#c87876" opacity="0.03" transform="rotate(126.16 866.07 1090.06)"/><rect x="667.4" y="791.71" width="19.92" height="2" rx="1" fill="#314039" opacity="0.06" transform="rotate(42.99 667.4 791.71)"/><circle cx="183.13" cy="676.08" r="1.56" fill="#314039" opacity="0.04"/><rect x="566.53" y="561.09" width="10.13" height="1.06" rx="1" fill="#c87876" opacity="0.06" transform="rotate(128.21 566.53 561.09)"/><circle cx="800.31" cy="752.79" r="1.09" fill="#314039" opacity="0.06"/><rect x="1080.59" y="964.7" width="27.37" height="2.33" rx="1" fill="#314039" opacity="0.07" transform="rotate(114.46 1080.59 964.7)"/><rect x="621.15" y="287.69" width="17.2" height="2.49" rx="1" fill="#c87876" opacity="0.08" transform="rotate(125.45 621.15 287.69)"/><rect x="1096.17" y="99.13" width="22.88" height="2.26" rx="1" fill="#314039" opacity="0.08" transform="rotate(120.55 1096.17 99.13)"/><rect x="56.93" y="676.27" width="19.19" height="2.55" rx="1" fill="#c87876" opacity="0.07" transform="rotate(54.77 56.93 676.27)"/><rect x="1231.11" y="553.49" width="16.28" height="1.11" rx="1" fill="#314039" opacity="0.08" transform="rotate(112.64 1231.11 553.49)"/><rect x="218.08" y="706.4" width="10.43" height="1.95" rx="1" fill="#c87876" opacity="0.06" transform="rotate(150.61 218.08 706.4)"/><rect x="979.68" y="268.11" width="22.25" height="2.34" rx="1" fill="#c87876" opacity="0.08" transform="rotate(30.72 979.68 268.11)"/><rect x="984.31" y="629.52" width="15.17" height="2.32" rx="1" fill="#314039" opacity="0.04" transform="rotate(175.79 984.31 629.52)"/><circle cx="1003.78" cy="352.73" r="1.97" fill="#c87876" opacity="0.03"/><rect x="1295.32" y="195.93" width="22.64" height="0.98" rx="1" fill="#314039" opacity="0.07" transform="rotate(112.99 1295.32 195.93)"/><rect x="885.61" y="347.88" width="8.75" height="1.75" rx="1" fill="#c87876" opacity="0.08" transform="rotate(164.85 885.61 347.88)"/><circle cx="33.32" cy="194.94" r="1.4" fill="#c87876" opacity="0.06"/><circle cx="156.53" cy="195.74" r="1.18" fill="#c87876" opacity="0.06"/><rect x="1570.62" y="465.09" width="16.09" height="1.23" rx="1" fill="#314039" opacity="0.06" transform="rotate(39.26 1570.62 465.09)"/><rect x="1.97" y="28.49" width="14.28" height="1.69" rx="1" fill="#314039" opacity="0.07" transform="rotate(76.15 1.97 28.49)"/><circle cx="223.94" cy="182.74" r="0.76" fill="#314039" opacity="0.06"/><circle cx="1325.15" cy="595.31" r="1.74" fill="#c87876" opacity="0.07"/><circle cx="1.39" cy="794.76" r="0.81" fill="#c87876" opacity="0.07"/><circle cx="1393.98" cy="249.04" r="2.04" fill="#314039" opacity="0.06"/><rect x="282.34" y="436.86" width="6.6" height="0.95" rx="1" fill="#c87876" opacity="0.08" transform="rotate(69.14 282.34 436.86)"/><rect x="30.79" y="737.1" width="23.66" height="2.18" rx="1" fill="#314039" opacity="0.05" transform="rotate(171.23 30.79 737.1)"/><rect x="1237.85" y="282.84" width="15.46" height="1.94" rx="1" fill="#c87876" opacity="0.08" transform="rotate(83.48 1237.85 282.84)"/><rect x="97.17" y="779.5" width="12.14" height="2.18" rx="1" fill="#314039" opacity="0.03" transform="rotate(38.11 97.17 779.5)"/><rect x="981.22" y="929.41" width="9.81" height="1.91" rx="1" fill="#c87876" opacity="0.06" transform="rotate(35.57 981.22 929.41)"/><circle cx="269.79" cy="1013.89" r="1.05" fill="#c87876" opacity="0.06"/>
  <circle cx="1350" cy="178" r="184" fill="#c87876" opacity="0.06"/>
  <circle cx="220" cy="894" r="220" fill="#aab59d" opacity="0.08"/>
  <g transform="rotate(-6 518 385)">
      <ellipse cx="318" cy="444.32" rx="44.52" ry="4.2" fill="#1f211d" opacity="0.08"/>
      <rect x="268" y="320" width="86" height="116" rx="8" fill="#fffaf4"/>
      <text x="280" y="416" class="micro" fill="#314039" opacity="0.62">01</text>
    
      <ellipse cx="422" cy="444.32" rx="44.52" ry="4.2" fill="#1f211d" opacity="0.08"/>
      <rect x="372" y="320" width="86" height="116" rx="8" fill="#e9cbc8"/>
      <text x="384" y="416" class="micro" fill="#314039" opacity="0.62">02</text>
    
      <ellipse cx="526" cy="444.32" rx="44.52" ry="4.2" fill="#1f211d" opacity="0.08"/>
      <rect x="476" y="320" width="86" height="116" rx="8" fill="#c87876"/>
      <text x="488" y="416" class="micro" fill="#314039" opacity="0.62">03</text>
    
      <ellipse cx="630" cy="444.32" rx="44.52" ry="4.2" fill="#1f211d" opacity="0.08"/>
      <rect x="580" y="320" width="86" height="116" rx="8" fill="#aab59d"/>
      <text x="592" y="416" class="micro" fill="#314039" opacity="0.62">04</text>
    
      <ellipse cx="734" cy="444.32" rx="44.52" ry="4.2" fill="#1f211d" opacity="0.08"/>
      <rect x="684" y="320" width="86" height="116" rx="8" fill="#536759"/>
      <text x="696" y="416" class="micro" fill="#fffaf4" opacity="0.62">05</text>
    </g><g transform="rotate(5 985 470)">
    <ellipse cx="1001" cy="735.2" rx="222.6" ry="52" fill="#1f211d" opacity="0.11"/>
    <rect x="775" y="210" width="420" height="520" rx="10" fill="#fffaf4"/>
    <rect x="793" y="228" width="384" height="484" rx="5" fill="none" stroke="#314039" stroke-opacity="0.11"/>
    <rect x="809" y="252" width="92.4" height="4" rx="2" fill="#c87876" opacity="0.84"/>
    <text x="809" y="386.8" class="brand" fill="#314039" font-size="50.4">PAPER</text>
    <text x="811" y="420.8" class="micro" fill="#314039" opacity="0.65">STOCK STUDY</text>
    <rect x="811" y="511.6" width="114.91" height="3" rx="2" fill="#314039" opacity="0.42"/><rect x="811" y="533.6" width="172.37" height="2" rx="2" fill="#314039" opacity="0.22"/><rect x="811" y="555.6" width="229.82" height="2" rx="2" fill="#314039" opacity="0.22"/><rect x="811" y="577.6" width="130.03" height="2" rx="2" fill="#314039" opacity="0.22"/><rect x="811" y="599.6" width="187.49" height="2" rx="2" fill="#314039" opacity="0.22"/><rect x="811" y="621.6" width="244.94" height="2" rx="2" fill="#314039" opacity="0.22"/><rect x="811" y="643.6" width="145.15" height="2" rx="2" fill="#314039" opacity="0.22"/>
    
  </g><g transform="rotate(-22 1220 500)">
    <path d="M 1220 760 C 1262 604, 1200 422, 1254 240" fill="none" stroke="#536759" stroke-width="2.2" opacity="0.72"/>
    <ellipse cx="1248" cy="422" rx="34" ry="13" fill="#aab59d" opacity="0.76" transform="rotate(-24 1248 422)"/>
    <ellipse cx="1204" cy="526" rx="30" ry="12" fill="#e9cbc8" opacity="0.74" transform="rotate(28 1204 526)"/>
    <ellipse cx="1260" cy="323.2" rx="28" ry="11" fill="#c87876" opacity="0.52" transform="rotate(-20 1260 323.2)"/>
  </g><g transform="rotate(60 1090 740)">
    <path d="M 1090 890 C 1118.56 800, 1076.4 695, 1113.12 590" fill="none" stroke="#536759" stroke-width="1.4960000000000002" opacity="0.72"/>
    <ellipse cx="1109.04" cy="695" rx="23.12" ry="8.84" fill="#aab59d" opacity="0.76" transform="rotate(-24 1109.04 695)"/>
    <ellipse cx="1079.12" cy="755" rx="20.4" ry="8.16" fill="#e9cbc8" opacity="0.74" transform="rotate(28 1079.12 755)"/>
    <ellipse cx="1117.2" cy="638" rx="19.04" ry="7.48" fill="#c87876" opacity="0.52" transform="rotate(-20 1117.2 638)"/>
  </g>
  <g opacity="0.72"><text x="78" y="1004" class="micro" fill="#314039">BOTANICAL PAPER STUDIO</text><text x="78" y="1036" class="micro" fill="#314039" opacity="0.55">TEMPORARY DEMONSTRATION PORTFOLIO VISUAL / GALLERY-4</text></g>
</svg>
