<?xml version="1.0" encoding="UTF-8"?>
<svg xmlns="http://www.w3.org/2000/svg" width="1600" height="1100" viewBox="0 0 1600 1100" role="img" aria-labelledby="title desc">
  <title id="title">FLORA gallery-1 demo portfolio mockup</title>
  <desc id="desc">Temporary fictional demonstration project imagery for portfolio presentation only, not client work.</desc>
  <defs>
    <linearGradient id="bg_flora_gallery_1" x1="0" y1="0" x2="1" y2="1">
      <stop offset="0%" stop-color="#fffaf4"/>
      <stop offset="58%" stop-color="#f4eee6"/>
      <stop offset="100%" stop-color="#e9cbc8"/>
    </linearGradient>
    <radialGradient id="light_flora_gallery_1" cx="74%" cy="18%" r="64%">
      <stop offset="0%" stop-color="#ffffff" stop-opacity="0.62"/>
      <stop offset="100%" stop-color="#ffffff" stop-opacity="0"/>
    </radialGradient>
  </defs>
  <style><![CDATA[
    .brand { font-family: Georgia, Georgia, serif; font-weight: 500; letter-spacing: .02em; }
    .body { font-family: Arial, Arial, sans-serif; font-weight: 500; }
    .micro { font-family: Arial, Arial, sans-serif; font-size: 20px; font-weight: 700; letter-spacing: .12em; }
  ]]></style>
  <rect width="1600" height="1100" fill="url(#bg_flora_gallery_1)"/>
  <rect width="1600" height="1100" fill="url(#light_flora_gallery_1)"/>
  <circle cx="228.43" cy="344.08" r="1.04" fill="#c87876" opacity="0.06"/><circle cx="560.6" cy="614.79" r="1.62" fill="#c87876" opacity="0.03"/><circle cx="841.36" cy="510.26" r="1.65" fill="#c87876" opacity="0.06"/><rect x="823.86" y="906.41" width="21.54" height="2.22" rx="1" fill="#c87876" opacity="0.06" transform="rotate(167.49 823.86 906.41)"/><rect x="920.44" y="610.03" width="22.03" height="1.04" rx="1" fill="#314039" opacity="0.06" transform="rotate(82.28 920.44 610.03)"/><rect x="466.5" y="300.61" width="13.57" height="2.36" rx="1" fill="#314039" opacity="0.06" transform="rotate(112.93 466.5 300.61)"/><rect x="85.43" y="719.99" width="25.35" height="2.34" rx="1" fill="#c87876" opacity="0.05" transform="rotate(14.37 85.43 719.99)"/><rect x="1301.53" y="795.87" width="7.95" height="2.34" rx="1" fill="#c87876" opacity="0.04" transform="rotate(176.84 1301.53 795.87)"/><circle cx="1325.31" cy="269.24" r="1.86" fill="#314039" opacity="0.03"/><rect x="1390.96" y="700.13" width="10.71" height="2.33" rx="1" fill="#c87876" opacity="0.07" transform="rotate(105.92 1390.96 700.13)"/><rect x="892.89" y="544.69" width="22.72" height="1.24" rx="1" fill="#314039" opacity="0.03" transform="rotate(41.83 892.89 544.69)"/><circle cx="377.95" cy="598.31" r="1.94" fill="#314039" opacity="0.04"/><rect x="760.51" y="1047.21" width="9.72" height="2.14" rx="1" fill="#314039" opacity="0.04" transform="rotate(145 760.51 1047.21)"/><rect x="751.74" y="786.29" width="27.98" height="0.86" rx="1" fill="#314039" opacity="0.06" transform="rotate(73.71 751.74 786.29)"/><rect x="838" y="742.89" width="19.73" height="0.93" rx="1" fill="#314039" opacity="0.07" transform="rotate(110.15 838 742.89)"/><rect x="464.49" y="290.23" width="18.76" height="0.85" rx="1" fill="#c87876" opacity="0.06" transform="rotate(57.95 464.49 290.23)"/><circle cx="1329.87" cy="996.48" r="1" fill="#c87876" opacity="0.03"/><circle cx="1249.69" cy="35.87" r="1.61" fill="#c87876" opacity="0.04"/><rect x="598.51" y="256.36" width="13.34" height="1.67" rx="1" fill="#c87876" opacity="0.03" transform="rotate(30.01 598.51 256.36)"/><rect x="330.23" y="909.61" width="11.92" height="1.21" rx="1" fill="#c87876" opacity="0.06" transform="rotate(63.43 330.23 909.61)"/><rect x="444.18" y="1010.94" width="7.83" height="2.23" rx="1" fill="#c87876" opacity="0.03" transform="rotate(141.86 444.18 1010.94)"/><rect x="230.07" y="595.43" width="11.13" height="1.47" rx="1" fill="#314039" opacity="0.08" transform="rotate(54.23 230.07 595.43)"/><rect x="877.43" y="277.34" width="13.26" height="2.31" rx="1" fill="#c87876" opacity="0.04" transform="rotate(54.25 877.43 277.34)"/><rect x="1400.36" y="680.05" width="12.49" height="1.85" rx="1" fill="#314039" opacity="0.04" transform="rotate(42.97 1400.36 680.05)"/><rect x="532.9" y="71.01" width="7.54" height="2.13" rx="1" fill="#c87876" opacity="0.06" transform="rotate(159.24 532.9 71.01)"/><circle cx="1591.6" cy="862.68" r="1.59" fill="#c87876" opacity="0.05"/><rect x="1536.26" y="648.71" width="21.66" height="2.09" rx="1" fill="#314039" opacity="0.06" transform="rotate(30.2 1536.26 648.71)"/><circle cx="254.24" cy="1037.66" r="1.55" fill="#314039" opacity="0.03"/><rect x="1399.66" y="13.26" width="18.04" height="2.33" rx="1" fill="#c87876" opacity="0.06" transform="rotate(155.06 1399.66 13.26)"/><rect x="555.33" y="811.29" width="24.69" height="0.82" rx="1" fill="#314039" opacity="0.08" transform="rotate(178.9 555.33 811.29)"/><rect x="666.03" y="128.6" width="11.38" height="1.34" rx="1" fill="#314039" opacity="0.06" transform="rotate(121.2 666.03 128.6)"/><circle cx="542.67" cy="550.38" r="1.92" fill="#314039" opacity="0.06"/><circle cx="350" cy="224.73" r="1.38" fill="#314039" opacity="0.07"/><rect x="1080.46" y="534.02" width="7.28" height="2.36" rx="1" fill="#c87876" opacity="0.03" transform="rotate(164.05 1080.46 534.02)"/><circle cx="1116.52" cy="442.47" r="1.36" fill="#314039" opacity="0.06"/><rect x="1036.77" y="142.23" width="27.12" height="1.18" rx="1" fill="#c87876" opacity="0.06" transform="rotate(6.24 1036.77 142.23)"/><rect x="12.9" y="583.57" width="18.21" height="1.44" rx="1" fill="#314039" opacity="0.08" transform="rotate(6.3 12.9 583.57)"/><circle cx="449.26" cy="918.89" r="1.66" fill="#c87876" opacity="0.05"/><rect x="374.09" y="830.99" width="14.58" height="1.54" rx="1" fill="#314039" opacity="0.06" transform="rotate(2 374.09 830.99)"/><rect x="1318.03" y="604" width="25.98" height="1.71" rx="1" fill="#c87876" opacity="0.08" transform="rotate(29.97 1318.03 604)"/><rect x="496.85" y="968.35" width="11.89" height="1.64" rx="1" fill="#314039" opacity="0.03" transform="rotate(118.86 496.85 968.35)"/><rect x="306.68" y="888.21" width="27.99" height="1.39" rx="1" fill="#c87876" opacity="0.04" transform="rotate(72.94 306.68 888.21)"/><circle cx="716.46" cy="478.82" r="1.87" fill="#314039" opacity="0.05"/><circle cx="400.95" cy="502.49" r="2.26" fill="#c87876" opacity="0.03"/><rect x="464.79" y="958.36" width="18.63" height="1.59" rx="1" fill="#c87876" opacity="0.07" transform="rotate(174.43 464.79 958.36)"/><rect x="633.22" y="340.33" width="9.19" height="2.36" rx="1" fill="#c87876" opacity="0.05" transform="rotate(38.54 633.22 340.33)"/><circle cx="1008.46" cy="884.11" r="1.51" fill="#c87876" opacity="0.06"/><rect x="660.83" y="850.98" width="25.22" height="1.76" rx="1" fill="#c87876" opacity="0.07" transform="rotate(85.44 660.83 850.98)"/><circle cx="1015.33" cy="752.14" r="0.81" fill="#314039" opacity="0.04"/><rect x="1378.05" y="115.41" width="6.94" height="1.06" rx="1" fill="#c87876" opacity="0.04" transform="rotate(53.11 1378.05 115.41)"/><rect x="1422.74" y="955.41" width="8.8" height="1.2" rx="1" fill="#314039" opacity="0.05" transform="rotate(123.6 1422.74 955.41)"/><rect x="867.8" y="1041.78" width="22.08" height="1.44" rx="1" fill="#314039" opacity="0.05" transform="rotate(95.56 867.8 1041.78)"/><circle cx="1261.53" cy="665.71" r="1.1" fill="#c87876" opacity="0.08"/><rect x="776.46" y="623.77" width="9" height="0.84" rx="1" fill="#c87876" opacity="0.06" transform="rotate(159.6 776.46 623.77)"/><circle cx="1436.73" cy="931.77" r="1.92" fill="#c87876" opacity="0.06"/><circle cx="105.96" cy="375.23" r="1.64" fill="#c87876" opacity="0.08"/><rect x="631.13" y="421.94" width="26.38" height="1.65" rx="1" fill="#c87876" opacity="0.04" transform="rotate(35.25 631.13 421.94)"/><rect x="864.15" y="732.26" width="21.43" height="2.39" rx="1" fill="#314039" opacity="0.08" transform="rotate(16.23 864.15 732.26)"/><rect x="1292.25" y="861.22" width="16.56" height="2.29" rx="1" fill="#314039" opacity="0.03" transform="rotate(163.12 1292.25 861.22)"/><circle cx="1023.45" cy="248.35" r="1.08" fill="#314039" opacity="0.07"/><circle cx="536.18" cy="212.07" r="0.85" fill="#314039" opacity="0.07"/><rect x="678.2" y="342.72" width="27.78" height="1.64" rx="1" fill="#c87876" opacity="0.06" transform="rotate(139.72 678.2 342.72)"/><circle cx="1159.02" cy="820.56" r="1.7" fill="#c87876" opacity="0.03"/><rect x="85.25" y="923.25" width="19.77" height="1.05" rx="1" fill="#c87876" opacity="0.06" transform="rotate(137.3 85.25 923.25)"/><circle cx="172.72" cy="860.04" r="2.21" fill="#c87876" opacity="0.04"/><rect x="1027.8" y="253.44" width="21.03" height="2.1" rx="1" fill="#314039" opacity="0.07" transform="rotate(165.38 1027.8 253.44)"/><rect x="737.23" y="317.68" width="23.9" height="1.91" rx="1" fill="#314039" opacity="0.05" transform="rotate(43.96 737.23 317.68)"/><circle cx="1369.15" cy="470.46" r="1.41" fill="#c87876" opacity="0.04"/><circle cx="638.7" cy="212.98" r="1.08" fill="#314039" opacity="0.07"/><rect x="802.15" y="1092.31" width="9.43" height="2.17" rx="1" fill="#c87876" opacity="0.04" transform="rotate(93.3 802.15 1092.31)"/><circle cx="951.84" cy="994.25" r="0.84" fill="#c87876" opacity="0.05"/><circle cx="336.72" cy="666.03" r="2.13" fill="#314039" opacity="0.07"/><circle cx="391.57" cy="175.98" r="0.99" fill="#c87876" opacity="0.04"/><circle cx="656.56" cy="879.81" r="2.25" fill="#314039" opacity="0.04"/><circle cx="1352.22" cy="1087.22" r="0.95" fill="#c87876" opacity="0.07"/><rect x="816.99" y="692.41" width="19.81" height="2.27" rx="1" fill="#c87876" opacity="0.06" transform="rotate(76.97 816.99 692.41)"/><circle cx="835.82" cy="89.16" r="0.86" fill="#c87876" opacity="0.07"/><rect x="279.15" y="216.27" width="9.69" height="2.5" rx="1" fill="#314039" opacity="0.05" transform="rotate(154.58 279.15 216.27)"/><circle cx="1041.37" cy="1029.1" r="0.81" fill="#314039" opacity="0.07"/><circle cx="1122.84" cy="727.38" r="1.23" fill="#c87876" opacity="0.04"/><rect x="348.72" y="858.49" width="22.42" height="2.52" rx="1" fill="#c87876" opacity="0.05" transform="rotate(9.89 348.72 858.49)"/><rect x="82.26" y="1021.4" width="21.72" height="0.93" rx="1" fill="#c87876" opacity="0.04" transform="rotate(129.28 82.26 1021.4)"/><rect x="1547.68" y="603.5" width="24.9" height="1.5" rx="1" fill="#c87876" opacity="0.05" transform="rotate(126.43 1547.68 603.5)"/><circle cx="471.16" cy="632.45" r="1.67" fill="#c87876" opacity="0.06"/><rect x="1344.37" y="149.55" width="26.43" height="1.06" rx="1" fill="#314039" opacity="0.03" transform="rotate(56.58 1344.37 149.55)"/><rect x="1131.57" y="437.73" width="13.1" height="1.31" rx="1" fill="#314039" opacity="0.06" transform="rotate(178.25 1131.57 437.73)"/><rect x="1059.78" y="602.75" width="18.91" height="1.98" rx="1" fill="#c87876" opacity="0.08" transform="rotate(52.31 1059.78 602.75)"/><rect x="213.88" y="34.07" width="9.38" height="1.79" rx="1" fill="#c87876" opacity="0.06" transform="rotate(62.53 213.88 34.07)"/><rect x="1391.14" y="857.79" width="23.08" height="1.54" rx="1" fill="#c87876" opacity="0.07" transform="rotate(44.62 1391.14 857.79)"/><circle cx="1397.28" cy="882.13" r="0.85" fill="#314039" opacity="0.06"/><rect x="1133.75" y="217.17" width="11.94" height="1.55" rx="1" fill="#314039" opacity="0.06" transform="rotate(25.64 1133.75 217.17)"/><rect x="268.94" y="1060.97" width="25.29" height="2.05" rx="1" fill="#c87876" opacity="0.03" transform="rotate(96.69 268.94 1060.97)"/><circle cx="1100.01" cy="446.17" r="1.87" fill="#c87876" opacity="0.07"/><rect x="1581.09" y="446.38" width="20.82" height="1.44" rx="1" fill="#c87876" opacity="0.04" transform="rotate(106.98 1581.09 446.38)"/><circle cx="470.47" cy="814.58" r="1.24" fill="#314039" opacity="0.03"/><rect x="1559.94" y="76.63" width="19.54" height="2.54" rx="1" fill="#314039" opacity="0.03" transform="rotate(57.61 1559.94 76.63)"/><rect x="1019.23" y="837.23" width="16.72" height="1.68" rx="1" fill="#314039" opacity="0.07" transform="rotate(82.96 1019.23 837.23)"/><rect x="199.71" y="941.91" width="24.87" height="2.07" rx="1" fill="#c87876" opacity="0.03" transform="rotate(99.77 199.71 941.91)"/><rect x="265.72" y="684.16" width="16.81" height="1.37" rx="1" fill="#314039" opacity="0.04" transform="rotate(38.68 265.72 684.16)"/><rect x="1034" y="134.94" width="11.42" height="2.1" rx="1" fill="#c87876" opacity="0.03" transform="rotate(165.05 1034 134.94)"/><circle cx="593.67" cy="743.43" r="1.02" fill="#314039" opacity="0.06"/><circle cx="466.23" cy="125.4" r="1.1" fill="#c87876" opacity="0.05"/><rect x="1206.15" y="16.02" width="21.12" height="2.37" rx="1" fill="#c87876" opacity="0.07" transform="rotate(136.69 1206.15 16.02)"/><rect x="728.04" y="687.17" width="26.11" height="1.74" rx="1" fill="#c87876" opacity="0.07" transform="rotate(43.5 728.04 687.17)"/><rect x="266.35" y="970.23" width="27.69" height="1.17" rx="1" fill="#c87876" opacity="0.07" transform="rotate(158.97 266.35 970.23)"/><circle cx="584.58" cy="60.26" r="1.93" fill="#c87876" opacity="0.08"/><rect x="1545.42" y="352.9" width="10.57" height="1.68" rx="1" fill="#314039" opacity="0.03" transform="rotate(117.5 1545.42 352.9)"/><circle cx="1322.75" cy="956.03" r="1.14" fill="#314039" opacity="0.04"/><rect x="390.26" y="832.79" width="24.57" height="1.48" rx="1" fill="#314039" opacity="0.06" transform="rotate(38.71 390.26 832.79)"/><circle cx="655.6" cy="1012.23" r="1.53" fill="#314039" opacity="0.03"/><rect x="924.26" y="217.43" width="16.02" height="1.36" rx="1" fill="#c87876" opacity="0.06" transform="rotate(3.36 924.26 217.43)"/><circle cx="24.91" cy="540.26" r="1.73" fill="#314039" opacity="0.03"/><circle cx="1381.09" cy="472.17" r="1.68" fill="#c87876" opacity="0.07"/><rect x="1283.68" y="203.35" width="17.06" height="1.82" rx="1" fill="#c87876" opacity="0.06" transform="rotate(61.16 1283.68 203.35)"/><circle cx="1588.09" cy="453.15" r="1.85" fill="#c87876" opacity="0.03"/><circle cx="1575.07" cy="708.03" r="0.97" fill="#314039" opacity="0.05"/><circle cx="417.7" cy="521.56" r="1.3" fill="#314039" opacity="0.05"/><rect x="157.67" y="932.08" width="6.16" height="1.72" rx="1" fill="#c87876" opacity="0.04" transform="rotate(148.11 157.67 932.08)"/><rect x="1028.91" y="1073.23" width="20.16" height="2.35" rx="1" fill="#c87876" opacity="0.06" transform="rotate(174.48 1028.91 1073.23)"/><circle cx="222.36" cy="399.25" r="1.83" fill="#314039" opacity="0.07"/><circle cx="1009.2" cy="829.88" r="1.13" fill="#c87876" opacity="0.04"/><rect x="406.59" y="23.44" width="7.28" height="0.9" rx="1" fill="#c87876" opacity="0.05" transform="rotate(107.75 406.59 23.44)"/><rect x="386.23" y="151.31" width="19.08" height="2" rx="1" fill="#c87876" opacity="0.03" transform="rotate(72.04 386.23 151.31)"/><rect x="278.28" y="924.72" width="22.53" height="1.5" rx="1" fill="#c87876" opacity="0.08" transform="rotate(102.92 278.28 924.72)"/><rect x="935.95" y="239.79" width="20.71" height="1.75" rx="1" fill="#c87876" opacity="0.07" transform="rotate(138.55 935.95 239.79)"/><rect x="1419.82" y="318.13" width="21.55" height="1.07" rx="1" fill="#c87876" opacity="0.05" transform="rotate(96.16 1419.82 318.13)"/><circle cx="1249.62" cy="1074.6" r="2.23" fill="#c87876" opacity="0.07"/><circle cx="1365.58" cy="136.21" r="0.82" fill="#c87876" opacity="0.04"/><rect x="63.07" y="716.39" width="7.32" height="1.95" rx="1" fill="#c87876" opacity="0.05" transform="rotate(69.14 63.07 716.39)"/><rect x="41.96" y="796.21" width="7.85" height="2.17" rx="1" fill="#314039" opacity="0.03" transform="rotate(28.07 41.96 796.21)"/><rect x="760.39" y="128.76" width="23.15" height="1.59" rx="1" fill="#314039" opacity="0.05" transform="rotate(136.62 760.39 128.76)"/><circle cx="1526.35" cy="854.49" r="0.87" fill="#c87876" opacity="0.03"/><rect x="870.13" y="332.18" width="7.44" height="1.1" rx="1" fill="#314039" opacity="0.04" transform="rotate(66.97 870.13 332.18)"/><rect x="395.35" y="685.62" width="7.52" height="1.75" rx="1" fill="#c87876" opacity="0.05" transform="rotate(68 395.35 685.62)"/><rect x="1141.8" y="882.84" width="9.18" height="1.53" rx="1" fill="#c87876" opacity="0.04" transform="rotate(18.23 1141.8 882.84)"/><rect x="578.03" y="379.05" width="22.19" height="1.75" rx="1" fill="#c87876" opacity="0.03" transform="rotate(13.45 578.03 379.05)"/><rect x="420.34" y="982.36" width="10.3" height="2.21" rx="1" fill="#c87876" opacity="0.03" transform="rotate(172.82 420.34 982.36)"/><circle cx="492.79" cy="585.89" r="2.28" fill="#c87876" opacity="0.07"/><circle cx="1243.43" cy="910.84" r="1.4" fill="#314039" opacity="0.06"/><circle cx="1007.4" cy="720.54" r="1.93" fill="#c87876" opacity="0.06"/>
  <circle cx="1350" cy="178" r="184" fill="#c87876" opacity="0.06"/>
  <circle cx="220" cy="894" r="220" fill="#aab59d" opacity="0.08"/>
  <g transform="rotate(-6 520 390)">
    <ellipse cx="534" cy="557.2" rx="296.8" ry="32" fill="#1f211d" opacity="0.1"/>
    <rect x="240" y="230" width="560" height="320" rx="8" fill="#fffaf4"/>
    <path d="M 240 238 L 520 409.20000000000005 L 800 238" fill="none" stroke="#314039" stroke-opacity="0.16" stroke-width="2"/>
    <path d="M 242 542 L 475.2 377.20000000000005" fill="none" stroke="#314039" stroke-opacity="0.11" stroke-width="2"/>
    <path d="M 798 542 L 564.8 377.20000000000005" fill="none" stroke="#314039" stroke-opacity="0.11" stroke-width="2"/>
    <text x="762" y="514" text-anchor="end" class="micro" fill="#314039" opacity="0.55">BOTANICAL STUDIO</text>
  </g><g transform="rotate(4 860 620)">
    <ellipse cx="876" cy="885.2" rx="222.6" ry="52" fill="#1f211d" opacity="0.11"/>
    <rect x="650" y="360" width="420" height="520" rx="10" fill="#fffaf4"/>
    <rect x="668" y="378" width="384" height="484" rx="5" fill="none" stroke="#314039" stroke-opacity="0.11"/>
    <rect x="684" y="402" width="92.4" height="4" rx="2" fill="#c87876" opacity="0.84"/>
    <text x="684" y="536.8" class="brand" fill="#314039" font-size="50.4">FLORA</text>
    <text x="686" y="570.8" class="micro" fill="#314039" opacity="0.65">LETTERHEAD</text>
    <rect x="686" y="661.6" width="114.91" height="3" rx="2" fill="#314039" opacity="0.42"/><rect x="686" y="683.6" width="172.37" height="2" rx="2" fill="#314039" opacity="0.22"/><rect x="686" y="705.6" width="229.82" height="2" rx="2" fill="#314039" opacity="0.22"/><rect x="686" y="727.6" width="130.03" height="2" rx="2" fill="#314039" opacity="0.22"/>
    <circle cx="1004" cy="810" r="35" fill="#c87876" opacity="0.86"/><text x="1004" y="821" text-anchor="middle" class="micro" fill="#fffaf4" font-size="20">FL</text>
  </g><g transform="rotate(-3 1140 325)">
    <ellipse cx="1156" cy="438.4" rx="159" ry="19" fill="#1f211d" opacity="0.11"/>
    <rect x="990" y="230" width="300" height="190" rx="10" fill="#fffaf4"/>
    <rect x="1008" y="248" width="264" height="154" rx="5" fill="none" stroke="#314039" stroke-opacity="0.11"/>
    <rect x="1024" y="272" width="66" height="4" rx="2" fill="#c87876" opacity="0.84"/>
    <text x="1024" y="294.6" class="brand" fill="#314039" font-size="36">NB</text>
    <text x="1026" y="328.6" class="micro" fill="#314039" opacity="0.65">CALLING CARD</text>
    <rect x="1026" y="340.2" width="82.08" height="3" rx="2" fill="#314039" opacity="0.42"/><rect x="1026" y="362.2" width="123.12" height="2" rx="2" fill="#314039" opacity="0.22"/>
    
  </g><g transform="rotate(-18 1180 665)">
    <path d="M 1180 860 C 1217.8 743, 1162 606.5, 1210.6 470" fill="none" stroke="#536759" stroke-width="1.9800000000000002" opacity="0.72"/>
    <ellipse cx="1205.2" cy="606.5" rx="30.6" ry="11.7" fill="#aab59d" opacity="0.76" transform="rotate(-24 1205.2 606.5)"/>
    <ellipse cx="1165.6" cy="684.5" rx="27" ry="10.8" fill="#e9cbc8" opacity="0.74" transform="rotate(28 1165.6 684.5)"/>
    <ellipse cx="1216" cy="532.4" rx="25.2" ry="9.9" fill="#c87876" opacity="0.52" transform="rotate(-20 1216 532.4)"/>
  </g>
  <g opacity="0.72"><text x="78" y="1004" class="micro" fill="#314039">BOTANICAL PAPER STUDIO</text><text x="78" y="1036" class="micro" fill="#314039" opacity="0.55">TEMPORARY DEMONSTRATION PORTFOLIO VISUAL / GALLERY-1</text></g>
</svg>
