<?xml version="1.0" encoding="UTF-8"?>
<svg xmlns="http://www.w3.org/2000/svg" width="1600" height="1100" viewBox="0 0 1600 1100" role="img" aria-labelledby="title desc">
  <title id="title">FLORA hero demo portfolio mockup</title>
  <desc id="desc">Temporary fictional demonstration project imagery for portfolio presentation only, not client work.</desc>
  <defs>
    <linearGradient id="bg_flora_hero" x1="0" y1="0" x2="1" y2="1">
      <stop offset="0%" stop-color="#fffaf4"/>
      <stop offset="58%" stop-color="#f4eee6"/>
      <stop offset="100%" stop-color="#e9cbc8"/>
    </linearGradient>
    <radialGradient id="light_flora_hero" cx="74%" cy="18%" r="64%">
      <stop offset="0%" stop-color="#ffffff" stop-opacity="0.62"/>
      <stop offset="100%" stop-color="#ffffff" stop-opacity="0"/>
    </radialGradient>
  </defs>
  <style><![CDATA[
    .brand { font-family: Georgia, Georgia, serif; font-weight: 500; letter-spacing: .02em; }
    .body { font-family: Arial, Arial, sans-serif; font-weight: 500; }
    .micro { font-family: Arial, Arial, sans-serif; font-size: 20px; font-weight: 700; letter-spacing: .12em; }
  ]]></style>
  <rect width="1600" height="1100" fill="url(#bg_flora_hero)"/>
  <rect width="1600" height="1100" fill="url(#light_flora_hero)"/>
  <circle cx="278.4" cy="619.13" r="2.27" fill="#314039" opacity="0.07"/><rect x="520.21" y="399.23" width="14.53" height="1.04" rx="1" fill="#314039" opacity="0.07" transform="rotate(119.33 520.21 399.23)"/><rect x="1167.77" y="52.57" width="6.04" height="2.14" rx="1" fill="#c87876" opacity="0.05" transform="rotate(161.72 1167.77 52.57)"/><rect x="239.17" y="865.64" width="18.65" height="2.47" rx="1" fill="#c87876" opacity="0.07" transform="rotate(40.69 239.17 865.64)"/><rect x="179.86" y="198.43" width="10.61" height="1.79" rx="1" fill="#c87876" opacity="0.05" transform="rotate(148.84 179.86 198.43)"/><circle cx="566.39" cy="883.88" r="0.8" fill="#314039" opacity="0.05"/><circle cx="1027.78" cy="518.98" r="1.01" fill="#314039" opacity="0.03"/><rect x="1324.63" y="169.19" width="27.51" height="1.53" rx="1" fill="#314039" opacity="0.04" transform="rotate(13.04 1324.63 169.19)"/><circle cx="1144.34" cy="560.35" r="1.18" fill="#c87876" opacity="0.07"/><rect x="536.24" y="834.74" width="16.12" height="2.15" rx="1" fill="#c87876" opacity="0.04" transform="rotate(133.35 536.24 834.74)"/><circle cx="901.48" cy="167.35" r="1.93" fill="#314039" opacity="0.03"/><circle cx="748.04" cy="509.59" r="1.09" fill="#c87876" opacity="0.04"/><circle cx="537.5" cy="524.19" r="0.75" fill="#314039" opacity="0.06"/><rect x="160.35" y="154.55" width="23.22" height="1.57" rx="1" fill="#314039" opacity="0.03" transform="rotate(79.24 160.35 154.55)"/><rect x="1182.17" y="523.61" width="23.74" height="2.3" rx="1" fill="#c87876" opacity="0.03" transform="rotate(108.07 1182.17 523.61)"/><rect x="410.41" y="590.22" width="27.98" height="1.28" rx="1" fill="#c87876" opacity="0.06" transform="rotate(75.96 410.41 590.22)"/><circle cx="1148.85" cy="38.13" r="1.95" fill="#c87876" opacity="0.04"/><rect x="1406.64" y="388.32" width="22.45" height="1.65" rx="1" fill="#c87876" opacity="0.03" transform="rotate(103.4 1406.64 388.32)"/><circle cx="1552.48" cy="386.97" r="1.64" fill="#c87876" opacity="0.07"/><rect x="1125.23" y="453.71" width="24.89" height="1.81" rx="1" fill="#c87876" opacity="0.07" transform="rotate(85.62 1125.23 453.71)"/><rect x="1554.88" y="1032.25" width="20.11" height="1.49" rx="1" fill="#314039" opacity="0.07" transform="rotate(113.24 1554.88 1032.25)"/><circle cx="1277.01" cy="826.93" r="1.4" fill="#c87876" opacity="0.04"/><rect x="532.56" y="762.32" width="19.54" height="2.24" rx="1" fill="#314039" opacity="0.08" transform="rotate(59.02 532.56 762.32)"/><rect x="505.57" y="166.55" width="24.32" height="1.88" rx="1" fill="#314039" opacity="0.07" transform="rotate(50.26 505.57 166.55)"/><rect x="684.59" y="1085.36" width="11.49" height="2.5" rx="1" fill="#314039" opacity="0.07" transform="rotate(78.68 684.59 1085.36)"/><rect x="1145.54" y="466.57" width="6.28" height="1.19" rx="1" fill="#c87876" opacity="0.07" transform="rotate(169.94 1145.54 466.57)"/><rect x="542.06" y="82.84" width="12.96" height="1.64" rx="1" fill="#c87876" opacity="0.08" transform="rotate(24.15 542.06 82.84)"/><circle cx="1315.28" cy="334.16" r="2.22" fill="#314039" opacity="0.07"/><circle cx="948.26" cy="824.93" r="2.15" fill="#314039" opacity="0.08"/><rect x="1422.76" y="820.24" width="10.86" height="1.09" rx="1" fill="#c87876" opacity="0.07" transform="rotate(132.97 1422.76 820.24)"/><circle cx="5.83" cy="643.17" r="2" fill="#c87876" opacity="0.04"/><rect x="823.87" y="855.17" width="27.71" height="1.28" rx="1" fill="#c87876" opacity="0.06" transform="rotate(155.71 823.87 855.17)"/><rect x="191.96" y="357.9" width="23.57" height="1.28" rx="1" fill="#c87876" opacity="0.06" transform="rotate(64.92 191.96 357.9)"/><circle cx="234.74" cy="502.36" r="2.06" fill="#c87876" opacity="0.06"/><rect x="296.8" y="105.55" width="7.18" height="1.53" rx="1" fill="#c87876" opacity="0.07" transform="rotate(42.23 296.8 105.55)"/><circle cx="1359.89" cy="124.85" r="1.04" fill="#c87876" opacity="0.04"/><rect x="1406.84" y="293.23" width="27.37" height="2.28" rx="1" fill="#c87876" opacity="0.03" transform="rotate(106.41 1406.84 293.23)"/><rect x="1485.63" y="408.82" width="24.99" height="2.41" rx="1" fill="#314039" opacity="0.05" transform="rotate(94.4 1485.63 408.82)"/><circle cx="1163.88" cy="372.78" r="2.06" fill="#314039" opacity="0.07"/><rect x="275.34" y="1013.81" width="22.15" height="1.49" rx="1" fill="#314039" opacity="0.03" transform="rotate(125.13 275.34 1013.81)"/><circle cx="459.42" cy="566.47" r="2.06" fill="#314039" opacity="0.05"/><circle cx="267.53" cy="833.59" r="1.86" fill="#314039" opacity="0.07"/><rect x="1130.69" y="966.77" width="21.88" height="1.42" rx="1" fill="#314039" opacity="0.07" transform="rotate(116.84 1130.69 966.77)"/><rect x="1546.96" y="57.48" width="15.6" height="1.23" rx="1" fill="#314039" opacity="0.03" transform="rotate(11.94 1546.96 57.48)"/><circle cx="1129.96" cy="387.98" r="1.54" fill="#314039" opacity="0.06"/><rect x="1139.25" y="181.95" width="10.7" height="0.96" rx="1" fill="#c87876" opacity="0.03" transform="rotate(17.74 1139.25 181.95)"/><rect x="202.75" y="191.17" width="20.12" height="1.8" rx="1" fill="#314039" opacity="0.04" transform="rotate(93.8 202.75 191.17)"/><rect x="318.44" y="826.89" width="14.93" height="2.22" rx="1" fill="#314039" opacity="0.08" transform="rotate(160.31 318.44 826.89)"/><rect x="738.79" y="1063.29" width="6.65" height="1.39" rx="1" fill="#314039" opacity="0.07" transform="rotate(151.76 738.79 1063.29)"/><circle cx="1026.92" cy="793.62" r="1.95" fill="#c87876" opacity="0.05"/><circle cx="1406.38" cy="554.36" r="2.05" fill="#c87876" opacity="0.06"/><circle cx="95.61" cy="1058.68" r="1.64" fill="#314039" opacity="0.05"/><circle cx="707.56" cy="951.48" r="1.89" fill="#314039" opacity="0.03"/><rect x="1463.34" y="194.31" width="20.32" height="2.14" rx="1" fill="#c87876" opacity="0.08" transform="rotate(113.07 1463.34 194.31)"/><rect x="1281.61" y="880.92" width="14.7" height="1.61" rx="1" fill="#314039" opacity="0.04" transform="rotate(109.25 1281.61 880.92)"/><rect x="141.55" y="1017.13" width="8.68" height="1.49" rx="1" fill="#c87876" opacity="0.04" transform="rotate(87.59 141.55 1017.13)"/><rect x="978.53" y="115.58" width="14.49" height="2.53" rx="1" fill="#c87876" opacity="0.06" transform="rotate(173.37 978.53 115.58)"/><rect x="911.59" y="685.35" width="11.22" height="2.19" rx="1" fill="#314039" opacity="0.04" transform="rotate(62.47 911.59 685.35)"/><rect x="1305.36" y="411.19" width="12.21" height="1.46" rx="1" fill="#c87876" opacity="0.03" transform="rotate(140.5 1305.36 411.19)"/><rect x="783.04" y="876.36" width="10.09" height="1.1" rx="1" fill="#314039" opacity="0.04" transform="rotate(161.57 783.04 876.36)"/><circle cx="710.16" cy="469.24" r="1.73" fill="#c87876" opacity="0.05"/><circle cx="555.12" cy="623.95" r="0.74" fill="#c87876" opacity="0.03"/><circle cx="449.97" cy="246.71" r="1.73" fill="#314039" opacity="0.03"/><circle cx="374.18" cy="791.18" r="1.34" fill="#c87876" opacity="0.05"/><rect x="666.37" y="484.76" width="19.47" height="0.84" rx="1" fill="#c87876" opacity="0.04" transform="rotate(127.58 666.37 484.76)"/><rect x="1168.26" y="649.95" width="14.28" height="0.97" rx="1" fill="#c87876" opacity="0.04" transform="rotate(161.48 1168.26 649.95)"/><rect x="202.37" y="764.61" width="16.8" height="1.45" rx="1" fill="#314039" opacity="0.06" transform="rotate(41.49 202.37 764.61)"/><rect x="58.38" y="355.53" width="15.66" height="2.24" rx="1" fill="#314039" opacity="0.07" transform="rotate(90.61 58.38 355.53)"/><circle cx="1318.33" cy="988.38" r="2" fill="#314039" opacity="0.07"/><circle cx="1567.6" cy="551.64" r="0.79" fill="#314039" opacity="0.04"/><rect x="757.39" y="1027.96" width="23.65" height="1.54" rx="1" fill="#314039" opacity="0.05" transform="rotate(176.04 757.39 1027.96)"/><rect x="172.71" y="825.31" width="25.58" height="1.76" rx="1" fill="#314039" opacity="0.05" transform="rotate(118.48 172.71 825.31)"/><rect x="336.97" y="521.44" width="25.57" height="0.85" rx="1" fill="#c87876" opacity="0.03" transform="rotate(65.03 336.97 521.44)"/><rect x="1584.45" y="331.07" width="10.02" height="1.4" rx="1" fill="#c87876" opacity="0.08" transform="rotate(119.67 1584.45 331.07)"/><circle cx="1093.76" cy="191.08" r="1.84" fill="#c87876" opacity="0.04"/><rect x="1182.34" y="1090.53" width="7.03" height="1.5" rx="1" fill="#314039" opacity="0.03" transform="rotate(124.62 1182.34 1090.53)"/><rect x="493.22" y="971.94" width="24.51" height="1.99" rx="1" fill="#314039" opacity="0.07" transform="rotate(172.59 493.22 971.94)"/><rect x="15.66" y="0.83" width="22.99" height="0.81" rx="1" fill="#c87876" opacity="0.05" transform="rotate(161.91 15.66 0.83)"/><rect x="909.18" y="2.59" width="22.63" height="1.21" rx="1" fill="#314039" opacity="0.05" transform="rotate(58.36 909.18 2.59)"/><rect x="181.14" y="828.77" width="27.11" height="0.97" rx="1" fill="#314039" opacity="0.07" transform="rotate(71.57 181.14 828.77)"/><circle cx="749.2" cy="371.96" r="1.4" fill="#c87876" opacity="0.05"/><circle cx="1436" cy="791.65" r="1.06" fill="#c87876" opacity="0.07"/><rect x="979.16" y="621.53" width="23.35" height="2.5" rx="1" fill="#c87876" opacity="0.06" transform="rotate(65.04 979.16 621.53)"/><rect x="1201.39" y="591.1" width="22" height="0.94" rx="1" fill="#c87876" opacity="0.03" transform="rotate(31.96 1201.39 591.1)"/><rect x="185.42" y="934.9" width="22.7" height="2.4" rx="1" fill="#c87876" opacity="0.05" transform="rotate(63.2 185.42 934.9)"/><rect x="161.9" y="741.44" width="18.64" height="2.09" rx="1" fill="#c87876" opacity="0.05" transform="rotate(79.29 161.9 741.44)"/><rect x="761.92" y="1096.11" width="18.74" height="1.97" rx="1" fill="#c87876" opacity="0.06" transform="rotate(64.77 761.92 1096.11)"/><rect x="292.28" y="201.81" width="22.64" height="2.57" rx="1" fill="#c87876" opacity="0.04" transform="rotate(129.36 292.28 201.81)"/><circle cx="311.98" cy="473.27" r="1.25" fill="#314039" opacity="0.06"/><rect x="1571.43" y="588.01" width="17.3" height="1.1" rx="1" fill="#c87876" opacity="0.06" transform="rotate(177.58 1571.43 588.01)"/><rect x="563.59" y="216.52" width="16.26" height="2.44" rx="1" fill="#c87876" opacity="0.05" transform="rotate(122.99 563.59 216.52)"/><circle cx="864.4" cy="785.28" r="1.02" fill="#314039" opacity="0.05"/><rect x="1550.56" y="365.18" width="22.68" height="0.88" rx="1" fill="#c87876" opacity="0.03" transform="rotate(52.31 1550.56 365.18)"/><circle cx="1572.73" cy="1060.86" r="1.84" fill="#c87876" opacity="0.05"/><rect x="526.91" y="918.64" width="20.56" height="1.56" rx="1" fill="#c87876" opacity="0.04" transform="rotate(64.59 526.91 918.64)"/><rect x="95.25" y="708.47" width="20.97" height="1.44" rx="1" fill="#c87876" opacity="0.05" transform="rotate(119.73 95.25 708.47)"/><rect x="546.34" y="929.62" width="25.74" height="1.58" rx="1" fill="#c87876" opacity="0.03" transform="rotate(74.97 546.34 929.62)"/><rect x="833.48" y="815.53" width="8.94" height="0.98" rx="1" fill="#c87876" opacity="0.07" transform="rotate(125.43 833.48 815.53)"/><rect x="1295.25" y="129.04" width="17.71" height="2.02" rx="1" fill="#c87876" opacity="0.08" transform="rotate(81.41 1295.25 129.04)"/><rect x="1447.45" y="176.02" width="10.98" height="2.16" rx="1" fill="#314039" opacity="0.04" transform="rotate(53.98 1447.45 176.02)"/><circle cx="645.79" cy="1037.03" r="0.89" fill="#c87876" opacity="0.07"/><rect x="897.83" y="906.87" width="7.32" height="1.13" rx="1" fill="#c87876" opacity="0.05" transform="rotate(121.72 897.83 906.87)"/><rect x="599.02" y="756.57" width="14.04" height="1.6" rx="1" fill="#c87876" opacity="0.06" transform="rotate(155.76 599.02 756.57)"/><rect x="103.1" y="668.99" width="13.47" height="2.05" rx="1" fill="#c87876" opacity="0.06" transform="rotate(109.71 103.1 668.99)"/><rect x="1338.08" y="54.23" width="27.3" height="2.45" rx="1" fill="#c87876" opacity="0.06" transform="rotate(94.69 1338.08 54.23)"/><rect x="956.61" y="660.59" width="13.39" height="2.25" rx="1" fill="#314039" opacity="0.05" transform="rotate(70.34 956.61 660.59)"/><rect x="1077.75" y="199.48" width="6.24" height="1" rx="1" fill="#c87876" opacity="0.05" transform="rotate(57.09 1077.75 199.48)"/><circle cx="439.47" cy="202.39" r="2.05" fill="#314039" opacity="0.06"/><circle cx="1005.75" cy="292.68" r="1.67" fill="#c87876" opacity="0.06"/><rect x="1389.47" y="576.04" width="12.94" height="1.18" rx="1" fill="#314039" opacity="0.05" transform="rotate(80.64 1389.47 576.04)"/><rect x="333.59" y="924.07" width="26.59" height="1.03" rx="1" fill="#314039" opacity="0.05" transform="rotate(65.22 333.59 924.07)"/><circle cx="906.6" cy="274.18" r="0.71" fill="#c87876" opacity="0.03"/><rect x="347.97" y="505.78" width="22.52" height="2.48" rx="1" fill="#314039" opacity="0.03" transform="rotate(50.05 347.97 505.78)"/><rect x="961.77" y="726.15" width="18.14" height="1.78" rx="1" fill="#314039" opacity="0.06" transform="rotate(109.4 961.77 726.15)"/><circle cx="1391.78" cy="641.63" r="2.2" fill="#c87876" opacity="0.07"/><rect x="1387.87" y="853.89" width="6.31" height="1.51" rx="1" fill="#c87876" opacity="0.08" transform="rotate(161.22 1387.87 853.89)"/><circle cx="11.89" cy="406.49" r="1.73" fill="#c87876" opacity="0.07"/><rect x="1198.87" y="609.16" width="16.15" height="2.56" rx="1" fill="#c87876" opacity="0.04" transform="rotate(86.14 1198.87 609.16)"/><rect x="313.14" y="878.1" width="20.8" height="1.82" rx="1" fill="#c87876" opacity="0.03" transform="rotate(141.76 313.14 878.1)"/><rect x="943.86" y="731.87" width="12.73" height="2.45" rx="1" fill="#c87876" opacity="0.03" transform="rotate(96.7 943.86 731.87)"/><circle cx="961.16" cy="560.57" r="2.05" fill="#314039" opacity="0.08"/><rect x="384.18" y="1027.3" width="13.67" height="2.19" rx="1" fill="#314039" opacity="0.08" transform="rotate(24.49 384.18 1027.3)"/><rect x="990.78" y="1050.12" width="9.91" height="1.06" rx="1" fill="#314039" opacity="0.03" transform="rotate(79.31 990.78 1050.12)"/><rect x="1503.22" y="401.84" width="17.94" height="0.88" rx="1" fill="#c87876" opacity="0.03" transform="rotate(71.55 1503.22 401.84)"/><rect x="345.67" y="895.7" width="25.88" height="1.83" rx="1" fill="#314039" opacity="0.04" transform="rotate(132.49 345.67 895.7)"/><rect x="41.56" y="537.81" width="24.73" height="1.28" rx="1" fill="#c87876" opacity="0.06" transform="rotate(49.67 41.56 537.81)"/><rect x="1342.11" y="769.88" width="26.75" height="1.91" rx="1" fill="#c87876" opacity="0.03" transform="rotate(78.74 1342.11 769.88)"/><circle cx="323.23" cy="3.11" r="0.89" fill="#c87876" opacity="0.06"/><circle cx="1333.72" cy="1020.49" r="1.55" fill="#c87876" opacity="0.03"/><rect x="1428.1" y="1092.31" width="22.66" height="1.57" rx="1" fill="#314039" opacity="0.07" transform="rotate(77.26 1428.1 1092.31)"/><rect x="176.21" y="1072.92" width="24.15" height="2.32" rx="1" fill="#c87876" opacity="0.06" transform="rotate(62.17 176.21 1072.92)"/><circle cx="1211.16" cy="169.1" r="1.62" fill="#314039" opacity="0.05"/><rect x="444.5" y="207.21" width="14.41" height="1.16" rx="1" fill="#c87876" opacity="0.05" transform="rotate(63.35 444.5 207.21)"/><rect x="614.36" y="454.91" width="26.07" height="0.82" rx="1" fill="#314039" opacity="0.04" transform="rotate(54.86 614.36 454.91)"/><rect x="1019.52" y="562.34" width="17.94" height="2.54" rx="1" fill="#c87876" opacity="0.04" transform="rotate(173.43 1019.52 562.34)"/><rect x="376.83" y="647.34" width="9.12" height="1.68" rx="1" fill="#c87876" opacity="0.03" transform="rotate(109.55 376.83 647.34)"/><rect x="1132.71" y="1059.59" width="26.99" height="1.36" rx="1" fill="#314039" opacity="0.03" transform="rotate(84.27 1132.71 1059.59)"/><rect x="525.58" y="847.29" width="15.19" height="2.56" rx="1" fill="#c87876" opacity="0.03" transform="rotate(28.84 525.58 847.29)"/><rect x="345.34" y="207.34" width="27.7" height="1.78" rx="1" fill="#c87876" opacity="0.05" transform="rotate(171.78 345.34 207.34)"/><rect x="1486.91" y="882.4" width="13.86" height="1.07" rx="1" fill="#314039" opacity="0.07" transform="rotate(117.5 1486.91 882.4)"/>
  <circle cx="1350" cy="178" r="184" fill="#c87876" opacity="0.06"/>
  <circle cx="220" cy="894" r="220" fill="#aab59d" opacity="0.08"/>
  
      <g transform="rotate(-20 1190 450)">
    <path d="M 1190 790 C 1240.4 586, 1166 348, 1230.8 110" fill="none" stroke="#536759" stroke-width="2.64" opacity="0.72"/>
    <ellipse cx="1223.6" cy="348" rx="40.8" ry="15.6" fill="#aab59d" opacity="0.76" transform="rotate(-24 1223.6 348)"/>
    <ellipse cx="1170.8" cy="484" rx="36" ry="14.4" fill="#e9cbc8" opacity="0.74" transform="rotate(28 1170.8 484)"/>
    <ellipse cx="1238" cy="218.8" rx="33.6" ry="13.2" fill="#c87876" opacity="0.52" transform="rotate(-20 1238 218.8)"/>
  </g>
      <g transform="rotate(-7 432 535)">
    <ellipse cx="448" cy="850.8" rx="233.2" ry="63" fill="#1f211d" opacity="0.11"/>
    <rect x="212" y="220" width="440" height="630" rx="10" fill="#fffaf4"/>
    <rect x="230" y="238" width="404" height="594" rx="5" fill="none" stroke="#314039" stroke-opacity="0.11"/>
    <rect x="246" y="262" width="96.8" height="4" rx="2" fill="#c87876" opacity="0.84"/>
    <text x="246" y="434.2" class="brand" fill="#314039" font-size="52.8">FLORA</text>
    <text x="248" y="468.2" class="micro" fill="#314039" opacity="0.65">NOTECARDS</text>
    <rect x="248" y="585.4" width="120.38" height="3" rx="2" fill="#314039" opacity="0.42"/><rect x="248" y="607.4" width="180.58" height="2" rx="2" fill="#314039" opacity="0.22"/><rect x="248" y="629.4" width="240.77" height="2" rx="2" fill="#314039" opacity="0.22"/><rect x="248" y="651.4" width="136.22" height="2" rx="2" fill="#314039" opacity="0.22"/>
    <circle cx="586" cy="780" r="35" fill="#c87876" opacity="0.86"/><text x="586" y="791" text-anchor="middle" class="micro" fill="#fffaf4" font-size="20">FL</text>
  </g>
      <g transform="rotate(5 793 735.5)">
    <ellipse cx="807" cy="872.8" rx="249.1" ry="25.5" fill="#1f211d" opacity="0.1"/>
    <rect x="558" y="608" width="470" height="255" rx="8" fill="#fffaf4"/>
    <path d="M 558 616 L 793 750.8 L 1028 616" fill="none" stroke="#314039" stroke-opacity="0.16" stroke-width="2"/>
    <path d="M 560 855 L 755.4 725.3" fill="none" stroke="#314039" stroke-opacity="0.11" stroke-width="2"/>
    <path d="M 1026 855 L 830.5999999999999 725.3" fill="none" stroke="#314039" stroke-opacity="0.11" stroke-width="2"/>
    <text x="990" y="827" text-anchor="end" class="micro" fill="#314039" opacity="0.55">GIFT NOTE</text>
  </g>
      <g transform="rotate(8 1050 475)">
    <ellipse cx="1066" cy="781.6" rx="222.6" ry="61" fill="#1f211d" opacity="0.11"/>
    <rect x="840" y="170" width="420" height="610" rx="10" fill="#536759"/>
    <rect x="858" y="188" width="384" height="574" rx="5" fill="none" stroke="#fffaf4" stroke-opacity="0.11"/>
    <rect x="874" y="212" width="92.4" height="4" rx="2" fill="#e9cbc8" opacity="0.84"/>
    <text x="874" y="377.4" class="brand" fill="#fffaf4" font-size="50.4">HERBARIUM</text>
    <text x="876" y="411.4" class="micro" fill="#fffaf4" opacity="0.65">PAPER GOODS</text>
    <rect x="876" y="523.8" width="114.91" height="3" rx="2" fill="#fffaf4" opacity="0.42"/><rect x="876" y="545.8" width="172.37" height="2" rx="2" fill="#fffaf4" opacity="0.22"/><rect x="876" y="567.8" width="229.82" height="2" rx="2" fill="#fffaf4" opacity="0.22"/><rect x="876" y="589.8" width="130.03" height="2" rx="2" fill="#fffaf4" opacity="0.22"/><rect x="876" y="611.8" width="187.49" height="2" rx="2" fill="#fffaf4" opacity="0.22"/><rect x="876" y="633.8" width="244.94" height="2" rx="2" fill="#fffaf4" opacity="0.22"/>
    
  </g>
      <g transform="rotate(-5 1185 751)">
    <ellipse cx="1201" cy="876.8" rx="174.9" ry="23" fill="#1f211d" opacity="0.1"/>
    <rect x="1020" y="636" width="330" height="230" rx="7" fill="#e9cbc8"/>
    <text x="1070" y="700" class="micro" fill="#314039" opacity="0.25">FL</text><text x="1129.4" y="700" class="micro" fill="#314039" opacity="0.25">FL</text><text x="1188.8" y="700" class="micro" fill="#314039" opacity="0.25">FL</text><text x="1248.2" y="700" class="micro" fill="#314039" opacity="0.25">FL</text><text x="1307.6" y="700" class="micro" fill="#314039" opacity="0.25">FL</text><text x="1070" y="750.6" class="micro" fill="#314039" opacity="0.25">FL</text><text x="1129.4" y="750.6" class="micro" fill="#314039" opacity="0.25">FL</text><text x="1188.8" y="750.6" class="micro" fill="#314039" opacity="0.25">FL</text><text x="1248.2" y="750.6" class="micro" fill="#314039" opacity="0.25">FL</text><text x="1307.6" y="750.6" class="micro" fill="#314039" opacity="0.25">FL</text><text x="1070" y="801.2" class="micro" fill="#314039" opacity="0.25">FL</text><text x="1129.4" y="801.2" class="micro" fill="#314039" opacity="0.25">FL</text><text x="1188.8" y="801.2" class="micro" fill="#314039" opacity="0.25">FL</text><text x="1248.2" y="801.2" class="micro" fill="#314039" opacity="0.25">FL</text><text x="1307.6" y="801.2" class="micro" fill="#314039" opacity="0.25">FL</text><text x="1070" y="851.8" class="micro" fill="#314039" opacity="0.25">FL</text><text x="1129.4" y="851.8" class="micro" fill="#314039" opacity="0.25">FL</text><text x="1188.8" y="851.8" class="micro" fill="#314039" opacity="0.25">FL</text><text x="1248.2" y="851.8" class="micro" fill="#314039" opacity="0.25">FL</text><text x="1307.6" y="851.8" class="micro" fill="#314039" opacity="0.25">FL</text>
  </g>
      <g transform="rotate(48 690 391)">
    <path d="M 690 606 C 724.44 477, 673.6 326.5, 717.88 176" fill="none" stroke="#536759" stroke-width="1.804" opacity="0.72"/>
    <ellipse cx="712.96" cy="326.5" rx="27.88" ry="10.66" fill="#aab59d" opacity="0.76" transform="rotate(-24 712.96 326.5)"/>
    <ellipse cx="676.88" cy="412.5" rx="24.6" ry="9.84" fill="#e9cbc8" opacity="0.74" transform="rotate(28 676.88 412.5)"/>
    <ellipse cx="722.8" cy="244.8" rx="22.96" ry="9.02" fill="#c87876" opacity="0.52" transform="rotate(-20 722.8 244.8)"/>
  </g>
      <g transform="rotate(-2 510 907)">
      <ellipse cx="310" cy="966.32" rx="44.52" ry="4.2" fill="#1f211d" opacity="0.08"/>
      <rect x="260" y="842" width="86" height="116" rx="8" fill="#fffaf4"/>
      <text x="272" y="938" class="micro" fill="#314039" opacity="0.62">01</text>
    
      <ellipse cx="414" cy="966.32" rx="44.52" ry="4.2" fill="#1f211d" opacity="0.08"/>
      <rect x="364" y="842" width="86" height="116" rx="8" fill="#e9cbc8"/>
      <text x="376" y="938" class="micro" fill="#314039" opacity="0.62">02</text>
    
      <ellipse cx="518" cy="966.32" rx="44.52" ry="4.2" fill="#1f211d" opacity="0.08"/>
      <rect x="468" y="842" width="86" height="116" rx="8" fill="#c87876"/>
      <text x="480" y="938" class="micro" fill="#314039" opacity="0.62">03</text>
    
      <ellipse cx="622" cy="966.32" rx="44.52" ry="4.2" fill="#1f211d" opacity="0.08"/>
      <rect x="572" y="842" width="86" height="116" rx="8" fill="#aab59d"/>
      <text x="584" y="938" class="micro" fill="#314039" opacity="0.62">04</text>
    
      <ellipse cx="726" cy="966.32" rx="44.52" ry="4.2" fill="#1f211d" opacity="0.08"/>
      <rect x="676" y="842" width="86" height="116" rx="8" fill="#536759"/>
      <text x="688" y="938" class="micro" fill="#fffaf4" opacity="0.62">05</text>
    </g>
    
  <g opacity="0.72"><text x="78" y="1004" class="micro" fill="#314039">BOTANICAL PAPER STUDIO</text><text x="78" y="1036" class="micro" fill="#314039" opacity="0.55">TEMPORARY DEMONSTRATION PORTFOLIO VISUAL / HERO</text></g>
</svg>
