<?xml version="1.0" encoding="UTF-8"?>
<svg xmlns="http://www.w3.org/2000/svg" width="1600" height="1100" viewBox="0 0 1600 1100" role="img" aria-labelledby="title desc">
  <title id="title">AURORA cover demo portfolio mockup</title>
  <desc id="desc">Temporary fictional demonstration project imagery for portfolio presentation only, not client work.</desc>
  <defs>
    <linearGradient id="bg_aurora_cover" x1="0" y1="0" x2="1" y2="1">
      <stop offset="0%" stop-color="#fff8f4"/>
      <stop offset="58%" stop-color="#fbf0ec"/>
      <stop offset="100%" stop-color="#efc8c6"/>
    </linearGradient>
    <radialGradient id="light_aurora_cover" cx="74%" cy="18%" r="64%">
      <stop offset="0%" stop-color="#ffffff" stop-opacity="0.62"/>
      <stop offset="100%" stop-color="#ffffff" stop-opacity="0"/>
    </radialGradient>
  </defs>
  <style><![CDATA[
    .brand { font-family: Times New Roman, Georgia, serif; font-weight: 500; letter-spacing: .02em; }
    .body { font-family: Helvetica, Arial, sans-serif; font-weight: 500; }
    .micro { font-family: Helvetica, Arial, sans-serif; font-size: 20px; font-weight: 700; letter-spacing: .12em; }
  ]]></style>
  <rect width="1600" height="1100" fill="url(#bg_aurora_cover)"/>
  <rect width="1600" height="1100" fill="url(#light_aurora_cover)"/>
  <circle cx="457.52" cy="295.26" r="1.22" fill="#d68a84" opacity="0.03"/><circle cx="621.19" cy="665.19" r="1.18" fill="#d68a84" opacity="0.06"/><circle cx="902.26" cy="959.6" r="0.94" fill="#4d5d52" opacity="0.08"/><circle cx="1270.35" cy="240.82" r="1.8" fill="#d68a84" opacity="0.04"/><circle cx="997.66" cy="592.65" r="1.66" fill="#4d5d52" opacity="0.03"/><circle cx="1512.14" cy="611.82" r="1.44" fill="#4d5d52" opacity="0.04"/><circle cx="70.56" cy="739.46" r="2.23" fill="#d68a84" opacity="0.03"/><rect x="1238.15" y="440.02" width="11.43" height="0.91" rx="1" fill="#d68a84" opacity="0.05" transform="rotate(3.35 1238.15 440.02)"/><rect x="141.76" y="559.1" width="25.59" height="0.84" rx="1" fill="#4d5d52" opacity="0.04" transform="rotate(6.78 141.76 559.1)"/><rect x="1578.03" y="238.2" width="6.27" height="2.48" rx="1" fill="#4d5d52" opacity="0.07" transform="rotate(5.52 1578.03 238.2)"/><circle cx="1395.69" cy="927.45" r="0.75" fill="#d68a84" opacity="0.08"/><circle cx="501.8" cy="383.19" r="2.26" fill="#d68a84" opacity="0.05"/><circle cx="1400.27" cy="502.9" r="2.1" fill="#4d5d52" opacity="0.03"/><rect x="934.92" y="80.25" width="23.93" height="1.35" rx="1" fill="#4d5d52" opacity="0.04" transform="rotate(95.84 934.92 80.25)"/><rect x="1371.84" y="732.58" width="15.28" height="1.58" rx="1" fill="#d68a84" opacity="0.08" transform="rotate(74.96 1371.84 732.58)"/><circle cx="881.32" cy="881.35" r="1.46" fill="#d68a84" opacity="0.05"/><circle cx="1079.07" cy="62.08" r="1.76" fill="#d68a84" opacity="0.03"/><circle cx="696.32" cy="819.98" r="1.4" fill="#d68a84" opacity="0.08"/><circle cx="294.33" cy="562.52" r="0.8" fill="#4d5d52" opacity="0.05"/><rect x="992.26" y="951.42" width="17.69" height="2.18" rx="1" fill="#4d5d52" opacity="0.03" transform="rotate(101.07 992.26 951.42)"/><rect x="1021.28" y="171.23" width="10.48" height="2.17" rx="1" fill="#4d5d52" opacity="0.03" transform="rotate(97.97 1021.28 171.23)"/><rect x="376.24" y="948.07" width="27.28" height="1.08" rx="1" fill="#d68a84" opacity="0.08" transform="rotate(99.41 376.24 948.07)"/><circle cx="1448.6" cy="501.24" r="0.7" fill="#d68a84" opacity="0.07"/><rect x="865.15" y="244.3" width="25.28" height="2.34" rx="1" fill="#d68a84" opacity="0.08" transform="rotate(20.8 865.15 244.3)"/><rect x="673.35" y="540.08" width="21.89" height="1.02" rx="1" fill="#4d5d52" opacity="0.04" transform="rotate(161.22 673.35 540.08)"/><rect x="379.04" y="204.75" width="21.86" height="1.78" rx="1" fill="#4d5d52" opacity="0.07" transform="rotate(150.14 379.04 204.75)"/><rect x="530.97" y="707.18" width="23.85" height="1.38" rx="1" fill="#4d5d52" opacity="0.03" transform="rotate(18.48 530.97 707.18)"/><circle cx="1582.53" cy="687.31" r="1.91" fill="#d68a84" opacity="0.03"/><rect x="552.57" y="1041.22" width="20.47" height="1.14" rx="1" fill="#4d5d52" opacity="0.06" transform="rotate(36.78 552.57 1041.22)"/><circle cx="1277.43" cy="618.53" r="2.19" fill="#d68a84" opacity="0.07"/><rect x="607.47" y="169.33" width="19.64" height="1.09" rx="1" fill="#d68a84" opacity="0.05" transform="rotate(112.11 607.47 169.33)"/><rect x="1472.34" y="583.67" width="27.81" height="1.56" rx="1" fill="#4d5d52" opacity="0.04" transform="rotate(54.55 1472.34 583.67)"/><rect x="911.28" y="338.99" width="14.1" height="1.72" rx="1" fill="#4d5d52" opacity="0.06" transform="rotate(54.69 911.28 338.99)"/><circle cx="368.62" cy="948.77" r="1.29" fill="#4d5d52" opacity="0.07"/><rect x="597.93" y="518.59" width="15.52" height="2.58" rx="1" fill="#d68a84" opacity="0.06" transform="rotate(167.38 597.93 518.59)"/><rect x="1400.35" y="464.34" width="24.69" height="1.61" rx="1" fill="#d68a84" opacity="0.04" transform="rotate(163.4 1400.35 464.34)"/><rect x="700.83" y="395.48" width="16.02" height="2.27" rx="1" fill="#4d5d52" opacity="0.06" transform="rotate(147.58 700.83 395.48)"/><circle cx="416.64" cy="39.67" r="1.26" fill="#d68a84" opacity="0.06"/><rect x="285.17" y="985.36" width="24.84" height="1.75" rx="1" fill="#4d5d52" opacity="0.04" transform="rotate(71.85 285.17 985.36)"/><circle cx="798.43" cy="1091.36" r="2.03" fill="#4d5d52" opacity="0.07"/><circle cx="1102" cy="1028.57" r="1.31" fill="#d68a84" opacity="0.05"/><circle cx="1348.07" cy="640.35" r="1.41" fill="#4d5d52" opacity="0.04"/><rect x="941.15" y="746.42" width="7.47" height="2.45" rx="1" fill="#4d5d52" opacity="0.05" transform="rotate(102.47 941.15 746.42)"/><circle cx="544.79" cy="548.83" r="2.18" fill="#4d5d52" opacity="0.03"/><rect x="434.46" y="397.41" width="9.85" height="1.1" rx="1" fill="#d68a84" opacity="0.04" transform="rotate(1.76 434.46 397.41)"/><circle cx="1495.34" cy="117.27" r="1.61" fill="#d68a84" opacity="0.06"/><circle cx="1060.47" cy="996.39" r="0.9" fill="#4d5d52" opacity="0.06"/><rect x="285.45" y="642.26" width="12.26" height="2.53" rx="1" fill="#4d5d52" opacity="0.05" transform="rotate(99.66 285.45 642.26)"/><circle cx="1177.39" cy="398.74" r="1.39" fill="#d68a84" opacity="0.05"/><rect x="1496.63" y="769.96" width="24.27" height="2.25" rx="1" fill="#4d5d52" opacity="0.04" transform="rotate(16.33 1496.63 769.96)"/><rect x="1561.75" y="288.76" width="19.94" height="2.25" rx="1" fill="#d68a84" opacity="0.04" transform="rotate(18.54 1561.75 288.76)"/><circle cx="1013.18" cy="481.9" r="1.83" fill="#d68a84" opacity="0.07"/><rect x="801.72" y="850.76" width="10.68" height="2.42" rx="1" fill="#4d5d52" opacity="0.07" transform="rotate(161.08 801.72 850.76)"/><circle cx="219.47" cy="857.38" r="2.16" fill="#d68a84" opacity="0.04"/><rect x="1218.31" y="616.16" width="18.76" height="2.35" rx="1" fill="#d68a84" opacity="0.08" transform="rotate(117.82 1218.31 616.16)"/><rect x="1573.13" y="579.02" width="17.94" height="1.63" rx="1" fill="#4d5d52" opacity="0.04" transform="rotate(119.95 1573.13 579.02)"/><rect x="1166.02" y="341.01" width="8.2" height="1.96" rx="1" fill="#4d5d52" opacity="0.03" transform="rotate(171.82 1166.02 341.01)"/><circle cx="230.66" cy="198.1" r="2.28" fill="#d68a84" opacity="0.03"/><circle cx="1380.31" cy="715.76" r="1.59" fill="#d68a84" opacity="0.07"/><rect x="798.1" y="314.61" width="21.86" height="1.63" rx="1" fill="#4d5d52" opacity="0.03" transform="rotate(146.22 798.1 314.61)"/><circle cx="197.85" cy="708.49" r="1.72" fill="#4d5d52" opacity="0.04"/><rect x="1389.89" y="712.54" width="20.99" height="1.9" rx="1" fill="#4d5d52" opacity="0.07" transform="rotate(27.29 1389.89 712.54)"/><circle cx="1048.52" cy="781.03" r="2.09" fill="#d68a84" opacity="0.07"/><rect x="295.16" y="131.32" width="15.29" height="1.68" rx="1" fill="#d68a84" opacity="0.05" transform="rotate(69.36 295.16 131.32)"/><rect x="1378.03" y="604.38" width="19.97" height="1.06" rx="1" fill="#d68a84" opacity="0.07" transform="rotate(8.5 1378.03 604.38)"/><rect x="1492.87" y="641.49" width="6.12" height="1.89" rx="1" fill="#d68a84" opacity="0.08" transform="rotate(23.92 1492.87 641.49)"/><rect x="889.15" y="599.77" width="22.77" height="1.07" rx="1" fill="#4d5d52" opacity="0.05" transform="rotate(36.05 889.15 599.77)"/><rect x="1507.4" y="485.47" width="6.96" height="0.89" rx="1" fill="#4d5d52" opacity="0.04" transform="rotate(138.87 1507.4 485.47)"/><circle cx="1555.23" cy="475.99" r="0.71" fill="#d68a84" opacity="0.07"/><circle cx="138.79" cy="154.15" r="1.07" fill="#d68a84" opacity="0.06"/><circle cx="1340.88" cy="433.9" r="1.51" fill="#4d5d52" opacity="0.05"/><rect x="1594.2" y="351.25" width="22.26" height="2.26" rx="1" fill="#d68a84" opacity="0.03" transform="rotate(179.95 1594.2 351.25)"/><rect x="1534.63" y="997.07" width="16.85" height="1.08" rx="1" fill="#4d5d52" opacity="0.03" transform="rotate(121.14 1534.63 997.07)"/><rect x="273.09" y="927.64" width="19.56" height="2.53" rx="1" fill="#d68a84" opacity="0.03" transform="rotate(82.02 273.09 927.64)"/><circle cx="61.52" cy="366.65" r="0.7" fill="#4d5d52" opacity="0.08"/><rect x="1450.09" y="113.44" width="9.56" height="1.08" rx="1" fill="#4d5d52" opacity="0.05" transform="rotate(23.78 1450.09 113.44)"/><rect x="1579.63" y="546.35" width="17.65" height="2.01" rx="1" fill="#4d5d52" opacity="0.03" transform="rotate(11 1579.63 546.35)"/><rect x="143.55" y="574.11" width="10.43" height="1.16" rx="1" fill="#4d5d52" opacity="0.05" transform="rotate(93.18 143.55 574.11)"/><rect x="300.66" y="0.82" width="23.27" height="1.63" rx="1" fill="#4d5d52" opacity="0.04" transform="rotate(134.32 300.66 0.82)"/><rect x="95.22" y="836.52" width="21.38" height="2.39" rx="1" fill="#d68a84" opacity="0.04" transform="rotate(136.57 95.22 836.52)"/><rect x="488.17" y="640.15" width="8.87" height="2.34" rx="1" fill="#4d5d52" opacity="0.05" transform="rotate(1.75 488.17 640.15)"/><rect x="251.38" y="306.83" width="21.22" height="1.65" rx="1" fill="#4d5d52" opacity="0.04" transform="rotate(121.4 251.38 306.83)"/><circle cx="424.56" cy="711.45" r="1.57" fill="#d68a84" opacity="0.05"/><rect x="376.22" y="1018.92" width="17.24" height="1.98" rx="1" fill="#d68a84" opacity="0.06" transform="rotate(98.26 376.22 1018.92)"/><rect x="1458" y="478.62" width="17.52" height="1.18" rx="1" fill="#d68a84" opacity="0.05" transform="rotate(90.62 1458 478.62)"/><rect x="820.08" y="1033.77" width="13.57" height="1.25" rx="1" fill="#4d5d52" opacity="0.07" transform="rotate(116.22 820.08 1033.77)"/><rect x="881.93" y="453.77" width="8.87" height="2.03" rx="1" fill="#4d5d52" opacity="0.04" transform="rotate(141.39 881.93 453.77)"/><rect x="1527.14" y="898.7" width="24.67" height="1.59" rx="1" fill="#d68a84" opacity="0.05" transform="rotate(23.06 1527.14 898.7)"/><rect x="766.19" y="843.67" width="15.47" height="1.89" rx="1" fill="#4d5d52" opacity="0.04" transform="rotate(146.88 766.19 843.67)"/><circle cx="217.01" cy="674.74" r="1.29" fill="#d68a84" opacity="0.04"/><circle cx="889.02" cy="511.17" r="1.23" fill="#d68a84" opacity="0.08"/><rect x="67.1" y="413.03" width="25.09" height="1.23" rx="1" fill="#d68a84" opacity="0.04" transform="rotate(66.8 67.1 413.03)"/><circle cx="829.4" cy="678.26" r="1.88" fill="#4d5d52" opacity="0.06"/><circle cx="837.64" cy="1087.76" r="2.13" fill="#d68a84" opacity="0.04"/><rect x="1589.46" y="255.59" width="25.53" height="1.11" rx="1" fill="#4d5d52" opacity="0.04" transform="rotate(148.04 1589.46 255.59)"/><rect x="1563.37" y="923.27" width="10.23" height="1.16" rx="1" fill="#4d5d52" opacity="0.07" transform="rotate(138.97 1563.37 923.27)"/><rect x="1466.45" y="558.92" width="23.51" height="0.83" rx="1" fill="#4d5d52" opacity="0.03" transform="rotate(64.98 1466.45 558.92)"/><rect x="130.41" y="429.49" width="26.19" height="2.12" rx="1" fill="#d68a84" opacity="0.03" transform="rotate(32.77 130.41 429.49)"/><circle cx="1018.87" cy="558.63" r="1.7" fill="#d68a84" opacity="0.05"/><rect x="309.31" y="877.91" width="22.05" height="2.39" rx="1" fill="#d68a84" opacity="0.03" transform="rotate(126.44 309.31 877.91)"/><rect x="1523.34" y="885.7" width="24.15" height="0.82" rx="1" fill="#4d5d52" opacity="0.06" transform="rotate(172.81 1523.34 885.7)"/><rect x="1124.47" y="154.92" width="7.1" height="2.55" rx="1" fill="#4d5d52" opacity="0.08" transform="rotate(0.4 1124.47 154.92)"/><rect x="80.02" y="583.29" width="18.1" height="2.51" rx="1" fill="#d68a84" opacity="0.06" transform="rotate(100.61 80.02 583.29)"/><rect x="421.36" y="601.21" width="23.91" height="2.48" rx="1" fill="#4d5d52" opacity="0.04" transform="rotate(11.89 421.36 601.21)"/><circle cx="215.47" cy="706.53" r="0.79" fill="#4d5d52" opacity="0.05"/><circle cx="930.87" cy="707.87" r="1.72" fill="#d68a84" opacity="0.03"/><circle cx="1235.55" cy="709.86" r="1.74" fill="#d68a84" opacity="0.04"/><rect x="685.74" y="1033.35" width="11.97" height="1.6" rx="1" fill="#d68a84" opacity="0.07" transform="rotate(93.32 685.74 1033.35)"/><rect x="880.43" y="573.08" width="27.69" height="2.42" rx="1" fill="#4d5d52" opacity="0.07" transform="rotate(39.81 880.43 573.08)"/><rect x="1214.77" y="989.86" width="23.05" height="2.03" rx="1" fill="#4d5d52" opacity="0.07" transform="rotate(64.56 1214.77 989.86)"/><rect x="13.15" y="1004.54" width="18.9" height="1.68" rx="1" fill="#d68a84" opacity="0.05" transform="rotate(30.67 13.15 1004.54)"/><circle cx="1165.62" cy="683.5" r="1.83" fill="#4d5d52" opacity="0.04"/><circle cx="1070.48" cy="66.24" r="2.06" fill="#4d5d52" opacity="0.04"/><rect x="106.57" y="517.85" width="19.21" height="1.64" rx="1" fill="#4d5d52" opacity="0.05" transform="rotate(103.6 106.57 517.85)"/><rect x="387.87" y="295.05" width="8.08" height="2.26" rx="1" fill="#d68a84" opacity="0.04" transform="rotate(7.47 387.87 295.05)"/><circle cx="165.06" cy="911.68" r="1.45" fill="#d68a84" opacity="0.06"/><rect x="489.29" y="61.9" width="19.8" height="1.26" rx="1" fill="#4d5d52" opacity="0.06" transform="rotate(56.95 489.29 61.9)"/><circle cx="306.21" cy="717.02" r="1.72" fill="#d68a84" opacity="0.03"/><rect x="1077.01" y="732" width="9.16" height="0.87" rx="1" fill="#d68a84" opacity="0.08" transform="rotate(154.86 1077.01 732)"/><circle cx="231.87" cy="1087.26" r="1.64" fill="#d68a84" opacity="0.05"/><rect x="980.41" y="239.15" width="7.76" height="1.82" rx="1" fill="#d68a84" opacity="0.05" transform="rotate(179.73 980.41 239.15)"/><rect x="916.88" y="189.71" width="14.57" height="2.5" rx="1" fill="#d68a84" opacity="0.05" transform="rotate(116.88 916.88 189.71)"/><circle cx="143.44" cy="101.66" r="1.86" fill="#d68a84" opacity="0.08"/><circle cx="355.41" cy="100.37" r="2.29" fill="#d68a84" opacity="0.05"/><circle cx="1242.18" cy="819.32" r="1.88" fill="#4d5d52" opacity="0.03"/><rect x="258.44" y="731.77" width="25.5" height="1.12" rx="1" fill="#4d5d52" opacity="0.07" transform="rotate(26.59 258.44 731.77)"/><rect x="893.08" y="103.81" width="26.57" height="2.33" rx="1" fill="#4d5d52" opacity="0.04" transform="rotate(113.91 893.08 103.81)"/><rect x="558.1" y="326.33" width="9.52" height="1.49" rx="1" fill="#d68a84" opacity="0.05" transform="rotate(15.32 558.1 326.33)"/><rect x="762.58" y="514.28" width="19.03" height="1.47" rx="1" fill="#d68a84" opacity="0.08" transform="rotate(124.12 762.58 514.28)"/><rect x="1516.06" y="896.29" width="14.2" height="2.1" rx="1" fill="#d68a84" opacity="0.06" transform="rotate(18.37 1516.06 896.29)"/><circle cx="1560.81" cy="98.23" r="0.94" fill="#4d5d52" opacity="0.04"/><rect x="415.13" y="36.65" width="6.88" height="2.12" rx="1" fill="#4d5d52" opacity="0.04" transform="rotate(164.26 415.13 36.65)"/><rect x="238.65" y="583.06" width="25.84" height="2.32" rx="1" fill="#d68a84" opacity="0.06" transform="rotate(45.1 238.65 583.06)"/><rect x="375.64" y="938.75" width="27.07" height="2.32" rx="1" fill="#4d5d52" opacity="0.03" transform="rotate(25.02 375.64 938.75)"/><circle cx="81.7" cy="1094.68" r="1.35" fill="#d68a84" opacity="0.08"/><rect x="718.13" y="80.38" width="26.84" height="2.04" rx="1" fill="#d68a84" opacity="0.05" transform="rotate(45.01 718.13 80.38)"/><circle cx="213.95" cy="629.2" r="2.12" fill="#4d5d52" opacity="0.05"/><circle cx="1553.08" cy="620.41" r="1.75" fill="#4d5d52" opacity="0.03"/><circle cx="228.45" cy="830.98" r="2.17" fill="#4d5d52" opacity="0.05"/><rect x="210.11" y="963.73" width="18.92" height="1.72" rx="1" fill="#d68a84" opacity="0.07" transform="rotate(176.61 210.11 963.73)"/>
  <circle cx="1350" cy="178" r="184" fill="#d68a84" opacity="0.06"/>
  <circle cx="220" cy="894" r="220" fill="#bac6b5" opacity="0.08"/>
  <g transform="rotate(-5 551 482.04)">
    <ellipse cx="585" cy="853.5" rx="215.18" ry="12.66" fill="#1f211d" opacity="0.14"/>
    <polygon points="348,272 424,240.08 754,240.08 678,272" fill="#efc8c6" opacity="0.96"/>
    <polygon points="678,272 754,240.08 754,692.08 678,724" fill="#bac6b5" opacity="0.62"/>
    <rect x="348" y="272" width="330" height="452" rx="8" fill="#fff8f4"/>
    <rect x="394.2" y="344.32" width="52.8" height="5" rx="3" fill="#d68a84"/>
    <text x="394.2" y="461.84" class="brand" fill="#4d5d52" font-size="42.9">AURORA</text>
    <text x="397.5" y="493.84" class="micro" fill="#4d5d52" opacity="0.56">SKINCARE</text>
    <rect x="397.5" y="561.28" width="77.75" height="3" rx="2" fill="#4d5d52" opacity="0.42"/><rect x="397.5" y="583.28" width="116.62" height="2" rx="2" fill="#4d5d52" opacity="0.22"/><rect x="397.5" y="605.28" width="155.5" height="2" rx="2" fill="#4d5d52" opacity="0.22"/><rect x="397.5" y="627.28" width="87.98" height="2" rx="2" fill="#4d5d52" opacity="0.22"/>
  </g><g transform="rotate(4 830 598)">
    <ellipse cx="848" cy="781.92" rx="116.6" ry="5.2" fill="#1f211d" opacity="0.14"/>
    <ellipse cx="830" cy="492" rx="110" ry="24" fill="#fff8f4" opacity="0.82"/>
    <rect x="720" y="492" width="220" height="212" rx="39.6" fill="#f6e7e4" opacity="0.86"/>
    <ellipse cx="830" cy="704" rx="110" ry="24" fill="#efc8c6" opacity="0.52"/>
    <rect x="759.6" y="577.2" width="140.8" height="67.6" rx="8" fill="#fff8f4"/>
    <text x="830" y="608.4" text-anchor="middle" class="brand" fill="#4d5d52" font-size="35.2">AU</text>
    <text x="830" y="626.6" text-anchor="middle" class="micro" fill="#4d5d52" opacity="0.58">CREAM</text>
    <rect x="768.4" y="474" width="123.2" height="38" rx="7" fill="#607264"/>
  </g><g transform="rotate(8 1091 490)">
    <ellipse cx="1103" cy="783.3" rx="79.5" ry="7.74" fill="#1f211d" opacity="0.13"/>
    <rect x="1073" y="275" width="36" height="47.3" rx="8" fill="#607264"/>
    <rect x="1061" y="318" width="60" height="38.7" rx="8" fill="#d68a84"/>
    <rect x="1016" y="352.4" width="150" height="352.6" rx="34.5" fill="#edf4ed" opacity="0.88"/>
    <rect x="1043" y="464.2" width="96" height="120.4" rx="8" fill="#fff8f4"/>
    <text x="1091" y="511.5" text-anchor="middle" class="brand" fill="#4d5d52" font-size="19.5">SERUM</text>
    <rect x="1058" y="537.3" width="25.08" height="3" rx="2" fill="#4d5d52" opacity="0.42"/><rect x="1058" y="559.3" width="37.62" height="2" rx="2" fill="#4d5d52" opacity="0.22"/><rect x="1058" y="581.3" width="50.16" height="2" rx="2" fill="#4d5d52" opacity="0.22"/>
  </g><g transform="rotate(-4 1135 807.5)">
    <ellipse cx="1151" cy="914" rx="164.3" ry="17.5" fill="#1f211d" opacity="0.11"/>
    <rect x="980" y="720" width="310" height="175" rx="10" fill="#fff8f4"/>
    <rect x="998" y="738" width="274" height="139" rx="5" fill="none" stroke="#4d5d52" stroke-opacity="0.11"/>
    <rect x="1014" y="762" width="68.2" height="4" rx="2" fill="#d68a84" opacity="0.84"/>
    <text x="1014" y="779.5" class="brand" fill="#4d5d52" font-size="37.2">RITUAL</text>
    <text x="1016" y="813.5" class="micro" fill="#4d5d52" opacity="0.65">LAUNCH CARD</text>
    <rect x="1016" y="821.5" width="84.82" height="3" rx="2" fill="#4d5d52" opacity="0.42"/><rect x="1016" y="843.5" width="127.22" height="2" rx="2" fill="#4d5d52" opacity="0.22"/>
    
  </g>
  <g opacity="0.72"><text x="78" y="1004" class="micro" fill="#4d5d52">LUXURY SKINCARE PACKAGING</text><text x="78" y="1036" class="micro" fill="#4d5d52" opacity="0.55">TEMPORARY DEMONSTRATION PORTFOLIO VISUAL / COVER</text></g>
</svg>
