<?xml version="1.0" encoding="UTF-8"?>
<svg xmlns="http://www.w3.org/2000/svg" width="1600" height="1100" viewBox="0 0 1600 1100" role="img" aria-labelledby="title desc">
  <title id="title">AURORA gallery-2 demo portfolio mockup</title>
  <desc id="desc">Temporary fictional demonstration project imagery for portfolio presentation only, not client work.</desc>
  <defs>
    <linearGradient id="bg_aurora_gallery_2" x1="0" y1="0" x2="1" y2="1">
      <stop offset="0%" stop-color="#fff8f4"/>
      <stop offset="58%" stop-color="#fbf0ec"/>
      <stop offset="100%" stop-color="#efc8c6"/>
    </linearGradient>
    <radialGradient id="light_aurora_gallery_2" cx="74%" cy="18%" r="64%">
      <stop offset="0%" stop-color="#ffffff" stop-opacity="0.62"/>
      <stop offset="100%" stop-color="#ffffff" stop-opacity="0"/>
    </radialGradient>
  </defs>
  <style><![CDATA[
    .brand { font-family: Times New Roman, Georgia, serif; font-weight: 500; letter-spacing: .02em; }
    .body { font-family: Helvetica, Arial, sans-serif; font-weight: 500; }
    .micro { font-family: Helvetica, Arial, sans-serif; font-size: 20px; font-weight: 700; letter-spacing: .12em; }
  ]]></style>
  <rect width="1600" height="1100" fill="url(#bg_aurora_gallery_2)"/>
  <rect width="1600" height="1100" fill="url(#light_aurora_gallery_2)"/>
  <rect x="1324.04" y="135.93" width="22.86" height="1.2" rx="1" fill="#d68a84" opacity="0.06" transform="rotate(98.63 1324.04 135.93)"/><circle cx="1139.79" cy="1088.3" r="2.06" fill="#4d5d52" opacity="0.04"/><circle cx="1203.26" cy="1095.34" r="1.31" fill="#d68a84" opacity="0.07"/><rect x="1299.2" y="531.17" width="11.94" height="1.66" rx="1" fill="#4d5d52" opacity="0.06" transform="rotate(90.3 1299.2 531.17)"/><rect x="1535.52" y="332.18" width="14.58" height="1.07" rx="1" fill="#4d5d52" opacity="0.08" transform="rotate(149.78 1535.52 332.18)"/><circle cx="257.89" cy="163.72" r="0.79" fill="#d68a84" opacity="0.07"/><rect x="7.15" y="286.15" width="10.94" height="0.97" rx="1" fill="#d68a84" opacity="0.06" transform="rotate(62.03 7.15 286.15)"/><rect x="981.83" y="905.56" width="23.85" height="1.67" rx="1" fill="#d68a84" opacity="0.07" transform="rotate(152.92 981.83 905.56)"/><rect x="260.79" y="616.17" width="25.57" height="1.35" rx="1" fill="#d68a84" opacity="0.07" transform="rotate(50.41 260.79 616.17)"/><rect x="1495.4" y="840.09" width="15.04" height="2.54" rx="1" fill="#d68a84" opacity="0.05" transform="rotate(55.83 1495.4 840.09)"/><rect x="2.02" y="120.74" width="26.42" height="2.21" rx="1" fill="#d68a84" opacity="0.07" transform="rotate(34.91 2.02 120.74)"/><rect x="1499.85" y="315.29" width="8.58" height="1.9" rx="1" fill="#4d5d52" opacity="0.04" transform="rotate(35.05 1499.85 315.29)"/><circle cx="688.23" cy="460.75" r="1.23" fill="#d68a84" opacity="0.05"/><rect x="1001.13" y="82.7" width="8.89" height="0.9" rx="1" fill="#d68a84" opacity="0.04" transform="rotate(175.51 1001.13 82.7)"/><rect x="726.5" y="233.67" width="10.2" height="2.14" rx="1" fill="#d68a84" opacity="0.03" transform="rotate(149.61 726.5 233.67)"/><rect x="696.33" y="734.26" width="9.89" height="2.57" rx="1" fill="#4d5d52" opacity="0.07" transform="rotate(141.48 696.33 734.26)"/><rect x="636.43" y="696.98" width="14.07" height="1.16" rx="1" fill="#d68a84" opacity="0.07" transform="rotate(124.2 636.43 696.98)"/><circle cx="625.63" cy="980.15" r="0.92" fill="#d68a84" opacity="0.03"/><rect x="71.52" y="776.66" width="10.85" height="1.83" rx="1" fill="#4d5d52" opacity="0.03" transform="rotate(49.3 71.52 776.66)"/><circle cx="1354.27" cy="915.63" r="0.88" fill="#d68a84" opacity="0.04"/><rect x="869.78" y="108.35" width="21.98" height="1.94" rx="1" fill="#d68a84" opacity="0.03" transform="rotate(76.06 869.78 108.35)"/><circle cx="100.44" cy="576" r="2.28" fill="#d68a84" opacity="0.07"/><rect x="262.45" y="710.43" width="24.61" height="1.3" rx="1" fill="#d68a84" opacity="0.03" transform="rotate(172.83 262.45 710.43)"/><rect x="51.88" y="1011.67" width="9.16" height="2.22" rx="1" fill="#4d5d52" opacity="0.03" transform="rotate(150.43 51.88 1011.67)"/><rect x="606.22" y="1091.83" width="26.71" height="1.69" rx="1" fill="#4d5d52" opacity="0.04" transform="rotate(65.81 606.22 1091.83)"/><rect x="842.87" y="31.29" width="22.7" height="0.96" rx="1" fill="#4d5d52" opacity="0.06" transform="rotate(151.24 842.87 31.29)"/><circle cx="1347.94" cy="44.72" r="0.72" fill="#4d5d52" opacity="0.07"/><circle cx="1577.7" cy="496.52" r="1.44" fill="#4d5d52" opacity="0.05"/><circle cx="725.86" cy="608.73" r="1.23" fill="#d68a84" opacity="0.03"/><rect x="649.01" y="695.01" width="18.51" height="0.8" rx="1" fill="#d68a84" opacity="0.08" transform="rotate(46.57 649.01 695.01)"/><rect x="1488.57" y="672.69" width="16.88" height="2.17" rx="1" fill="#d68a84" opacity="0.07" transform="rotate(35.78 1488.57 672.69)"/><rect x="651.5" y="188.71" width="16.16" height="1.24" rx="1" fill="#d68a84" opacity="0.03" transform="rotate(167.92 651.5 188.71)"/><rect x="540.19" y="474.52" width="26.48" height="1.76" rx="1" fill="#4d5d52" opacity="0.05" transform="rotate(4.44 540.19 474.52)"/><rect x="639.84" y="897.74" width="16.18" height="1.71" rx="1" fill="#4d5d52" opacity="0.06" transform="rotate(173.73 639.84 897.74)"/><rect x="1408.9" y="298.2" width="25.91" height="2.27" rx="1" fill="#4d5d52" opacity="0.07" transform="rotate(144.35 1408.9 298.2)"/><circle cx="304.3" cy="657.05" r="1.69" fill="#4d5d52" opacity="0.08"/><rect x="1278.43" y="789.85" width="6.82" height="1.12" rx="1" fill="#4d5d52" opacity="0.03" transform="rotate(81.47 1278.43 789.85)"/><rect x="852.84" y="1078.32" width="16.45" height="1.95" rx="1" fill="#d68a84" opacity="0.03" transform="rotate(115.2 852.84 1078.32)"/><circle cx="1337.52" cy="797.43" r="1" fill="#4d5d52" opacity="0.06"/><rect x="538.24" y="622.7" width="6.83" height="1.49" rx="1" fill="#4d5d52" opacity="0.03" transform="rotate(175.88 538.24 622.7)"/><circle cx="58.11" cy="1036.16" r="1.53" fill="#d68a84" opacity="0.04"/><circle cx="1136.29" cy="418.72" r="1.57" fill="#d68a84" opacity="0.04"/><rect x="831.25" y="855.04" width="25.55" height="2.31" rx="1" fill="#d68a84" opacity="0.03" transform="rotate(40.96 831.25 855.04)"/><circle cx="244.32" cy="89.93" r="0.82" fill="#4d5d52" opacity="0.08"/><rect x="269.71" y="197.62" width="12.86" height="1.31" rx="1" fill="#4d5d52" opacity="0.07" transform="rotate(152.03 269.71 197.62)"/><circle cx="275.01" cy="1033.02" r="1.65" fill="#4d5d52" opacity="0.07"/><rect x="397.76" y="518.08" width="22.24" height="1.32" rx="1" fill="#4d5d52" opacity="0.06" transform="rotate(42.58 397.76 518.08)"/><rect x="94.71" y="192.41" width="16.26" height="1.23" rx="1" fill="#4d5d52" opacity="0.04" transform="rotate(71.29 94.71 192.41)"/><circle cx="1512.96" cy="74.61" r="0.84" fill="#d68a84" opacity="0.03"/><rect x="362.89" y="778.83" width="6.54" height="0.92" rx="1" fill="#4d5d52" opacity="0.04" transform="rotate(63.22 362.89 778.83)"/><rect x="53.99" y="107.24" width="25.15" height="1.78" rx="1" fill="#d68a84" opacity="0.07" transform="rotate(151.08 53.99 107.24)"/><rect x="254.68" y="466.37" width="12.44" height="2.03" rx="1" fill="#d68a84" opacity="0.03" transform="rotate(62.18 254.68 466.37)"/><rect x="1428.69" y="1092.71" width="16.03" height="1.45" rx="1" fill="#d68a84" opacity="0.04" transform="rotate(121.4 1428.69 1092.71)"/><circle cx="1296.01" cy="238.75" r="0.98" fill="#d68a84" opacity="0.06"/><circle cx="477" cy="27.16" r="1.77" fill="#4d5d52" opacity="0.05"/><rect x="720.23" y="874.83" width="20.38" height="1.03" rx="1" fill="#4d5d52" opacity="0.05" transform="rotate(65.9 720.23 874.83)"/><rect x="42.3" y="533.6" width="15.02" height="2.38" rx="1" fill="#4d5d52" opacity="0.03" transform="rotate(119.97 42.3 533.6)"/><rect x="1431.57" y="584.31" width="12.87" height="0.82" rx="1" fill="#4d5d52" opacity="0.07" transform="rotate(74.32 1431.57 584.31)"/><rect x="484.14" y="247.28" width="12.57" height="1.76" rx="1" fill="#d68a84" opacity="0.08" transform="rotate(102.24 484.14 247.28)"/><rect x="1039.61" y="1083.05" width="27.97" height="1.45" rx="1" fill="#d68a84" opacity="0.05" transform="rotate(80.49 1039.61 1083.05)"/><circle cx="477.26" cy="126.41" r="1.81" fill="#4d5d52" opacity="0.06"/><circle cx="381.59" cy="607.16" r="0.97" fill="#d68a84" opacity="0.05"/><circle cx="243.96" cy="660.58" r="1.07" fill="#4d5d52" opacity="0.05"/><rect x="634.52" y="297.22" width="22.31" height="2.32" rx="1" fill="#4d5d52" opacity="0.06" transform="rotate(39.56 634.52 297.22)"/><circle cx="1417.45" cy="493.04" r="0.95" fill="#d68a84" opacity="0.03"/><rect x="918.91" y="271.34" width="8.25" height="1.13" rx="1" fill="#d68a84" opacity="0.06" transform="rotate(17.85 918.91 271.34)"/><circle cx="159.33" cy="903.3" r="2.11" fill="#d68a84" opacity="0.07"/><rect x="148.93" y="516.9" width="27.39" height="0.92" rx="1" fill="#d68a84" opacity="0.06" transform="rotate(52.58 148.93 516.9)"/><rect x="1125.54" y="407.9" width="10.4" height="1.63" rx="1" fill="#4d5d52" opacity="0.07" transform="rotate(46.07 1125.54 407.9)"/><circle cx="494.21" cy="22.95" r="1.13" fill="#4d5d52" opacity="0.06"/><rect x="426.7" y="709.75" width="19.99" height="2.47" rx="1" fill="#4d5d52" opacity="0.05" transform="rotate(14.77 426.7 709.75)"/><rect x="1584.15" y="1043.57" width="18.62" height="1.97" rx="1" fill="#d68a84" opacity="0.05" transform="rotate(4.02 1584.15 1043.57)"/><rect x="49.59" y="519.29" width="14.5" height="1.82" rx="1" fill="#4d5d52" opacity="0.04" transform="rotate(162.9 49.59 519.29)"/><rect x="663.97" y="796.71" width="18.14" height="2.54" rx="1" fill="#d68a84" opacity="0.07" transform="rotate(179.05 663.97 796.71)"/><circle cx="1419.05" cy="641.9" r="1.2" fill="#4d5d52" opacity="0.07"/><rect x="865.72" y="961.12" width="20.18" height="2.24" rx="1" fill="#d68a84" opacity="0.05" transform="rotate(88.29 865.72 961.12)"/><rect x="366.04" y="547.83" width="9.14" height="1.74" rx="1" fill="#4d5d52" opacity="0.03" transform="rotate(54.64 366.04 547.83)"/><circle cx="5.63" cy="162.06" r="1.97" fill="#d68a84" opacity="0.07"/><rect x="889.19" y="84.51" width="20.05" height="2.17" rx="1" fill="#4d5d52" opacity="0.04" transform="rotate(38.85 889.19 84.51)"/><rect x="1112.99" y="157.71" width="21.14" height="1.29" rx="1" fill="#d68a84" opacity="0.05" transform="rotate(90.79 1112.99 157.71)"/><rect x="261.68" y="865.12" width="21.17" height="2.23" rx="1" fill="#4d5d52" opacity="0.07" transform="rotate(90.29 261.68 865.12)"/><rect x="160.29" y="401.4" width="17.4" height="1.9" rx="1" fill="#4d5d52" opacity="0.06" transform="rotate(135.25 160.29 401.4)"/><circle cx="1142.41" cy="538.36" r="1.79" fill="#4d5d52" opacity="0.05"/><rect x="1286.52" y="968.53" width="15.45" height="1.85" rx="1" fill="#d68a84" opacity="0.05" transform="rotate(40.22 1286.52 968.53)"/><circle cx="1174.84" cy="1009.94" r="1.21" fill="#4d5d52" opacity="0.08"/><circle cx="1033.47" cy="324.34" r="1.53" fill="#4d5d52" opacity="0.05"/><rect x="1567.96" y="998.23" width="19.28" height="2.18" rx="1" fill="#d68a84" opacity="0.05" transform="rotate(58.25 1567.96 998.23)"/><rect x="1309.69" y="308.68" width="22.51" height="2.38" rx="1" fill="#d68a84" opacity="0.04" transform="rotate(76.35 1309.69 308.68)"/><circle cx="178.78" cy="216.96" r="1.95" fill="#4d5d52" opacity="0.08"/><circle cx="1051.02" cy="562.74" r="1.82" fill="#4d5d52" opacity="0.07"/><rect x="717.41" y="254.8" width="21.74" height="2.04" rx="1" fill="#4d5d52" opacity="0.05" transform="rotate(33.84 717.41 254.8)"/><circle cx="1297.68" cy="144.06" r="1.3" fill="#d68a84" opacity="0.07"/><rect x="1274.11" y="31.56" width="13.61" height="1.97" rx="1" fill="#4d5d52" opacity="0.08" transform="rotate(79.76 1274.11 31.56)"/><rect x="502.18" y="416.13" width="8.2" height="1.87" rx="1" fill="#d68a84" opacity="0.05" transform="rotate(45.63 502.18 416.13)"/><rect x="1398.72" y="362.75" width="27.56" height="0.97" rx="1" fill="#d68a84" opacity="0.06" transform="rotate(178.51 1398.72 362.75)"/><rect x="1563.5" y="69.77" width="14.43" height="1.78" rx="1" fill="#4d5d52" opacity="0.04" transform="rotate(101.02 1563.5 69.77)"/><rect x="61.72" y="948.97" width="22.18" height="2.41" rx="1" fill="#d68a84" opacity="0.04" transform="rotate(15.01 61.72 948.97)"/><rect x="338.95" y="92.98" width="19.98" height="1.26" rx="1" fill="#d68a84" opacity="0.08" transform="rotate(141.53 338.95 92.98)"/><circle cx="786.08" cy="943.55" r="0.74" fill="#4d5d52" opacity="0.04"/><rect x="1003.13" y="167.69" width="6.52" height="1.87" rx="1" fill="#d68a84" opacity="0.03" transform="rotate(53.21 1003.13 167.69)"/><circle cx="613.84" cy="366.51" r="2.21" fill="#4d5d52" opacity="0.05"/><rect x="1427.51" y="46.73" width="13.97" height="1.05" rx="1" fill="#4d5d52" opacity="0.04" transform="rotate(3.24 1427.51 46.73)"/><circle cx="463.01" cy="279.64" r="2.25" fill="#d68a84" opacity="0.03"/><circle cx="508.79" cy="256.98" r="0.83" fill="#d68a84" opacity="0.07"/><rect x="1189.21" y="835.27" width="13.07" height="1.9" rx="1" fill="#d68a84" opacity="0.06" transform="rotate(128.46 1189.21 835.27)"/><rect x="695.31" y="265.84" width="26.89" height="1.33" rx="1" fill="#4d5d52" opacity="0.08" transform="rotate(140.32 695.31 265.84)"/><rect x="30.88" y="626.75" width="22.98" height="0.95" rx="1" fill="#4d5d52" opacity="0.04" transform="rotate(90.16 30.88 626.75)"/><rect x="125.24" y="663.93" width="17.47" height="1.81" rx="1" fill="#d68a84" opacity="0.04" transform="rotate(0.34 125.24 663.93)"/><rect x="1577.21" y="93.65" width="26.98" height="2.23" rx="1" fill="#d68a84" opacity="0.03" transform="rotate(95.43 1577.21 93.65)"/><rect x="383.65" y="352.29" width="24.18" height="2.35" rx="1" fill="#d68a84" opacity="0.08" transform="rotate(68.01 383.65 352.29)"/><circle cx="579.82" cy="152.7" r="0.7" fill="#d68a84" opacity="0.08"/><circle cx="1130.93" cy="123.63" r="1.96" fill="#d68a84" opacity="0.03"/><rect x="224.04" y="721.05" width="24.17" height="1.42" rx="1" fill="#4d5d52" opacity="0.05" transform="rotate(169.17 224.04 721.05)"/><rect x="716.4" y="863.54" width="20.57" height="1.73" rx="1" fill="#d68a84" opacity="0.04" transform="rotate(18.51 716.4 863.54)"/><circle cx="1084.73" cy="516.36" r="1.1" fill="#4d5d52" opacity="0.05"/><circle cx="782.3" cy="989.13" r="1.16" fill="#d68a84" opacity="0.06"/><circle cx="441.9" cy="884.66" r="1.34" fill="#4d5d52" opacity="0.06"/><rect x="1188.01" y="236.92" width="21.24" height="2.33" rx="1" fill="#d68a84" opacity="0.05" transform="rotate(56.25 1188.01 236.92)"/><rect x="305.6" y="1090.4" width="19.81" height="1.25" rx="1" fill="#d68a84" opacity="0.07" transform="rotate(95.34 305.6 1090.4)"/><circle cx="359.5" cy="866.34" r="1.66" fill="#4d5d52" opacity="0.04"/><rect x="1215.99" y="407.5" width="18" height="2.5" rx="1" fill="#d68a84" opacity="0.06" transform="rotate(23.32 1215.99 407.5)"/><circle cx="1335.32" cy="137.46" r="1.36" fill="#4d5d52" opacity="0.07"/><circle cx="11.16" cy="218.6" r="1.78" fill="#4d5d52" opacity="0.03"/><circle cx="113.73" cy="78.32" r="1.89" fill="#4d5d52" opacity="0.07"/><rect x="596.79" y="988" width="17.55" height="1.38" rx="1" fill="#4d5d52" opacity="0.06" transform="rotate(51.61 596.79 988)"/><circle cx="1530.57" cy="939.14" r="1.55" fill="#d68a84" opacity="0.04"/><rect x="389.49" y="95.16" width="12.1" height="1.48" rx="1" fill="#d68a84" opacity="0.04" transform="rotate(151.8 389.49 95.16)"/><circle cx="62.41" cy="487.74" r="0.94" fill="#4d5d52" opacity="0.07"/><rect x="478.5" y="475.9" width="8.69" height="2.53" rx="1" fill="#4d5d52" opacity="0.03" transform="rotate(93.32 478.5 475.9)"/><rect x="733.5" y="59.54" width="10.97" height="2.21" rx="1" fill="#4d5d52" opacity="0.06" transform="rotate(123.96 733.5 59.54)"/><circle cx="1282.71" cy="312.85" r="1.25" fill="#d68a84" opacity="0.03"/><rect x="278.68" y="1016.56" width="25.66" height="1.27" rx="1" fill="#4d5d52" opacity="0.07" transform="rotate(92.54 278.68 1016.56)"/><circle cx="701.88" cy="92.56" r="0.8" fill="#4d5d52" opacity="0.07"/><circle cx="1063.79" cy="59.24" r="1.55" fill="#d68a84" opacity="0.06"/><rect x="610.93" y="749.97" width="12.85" height="2.03" rx="1" fill="#4d5d52" opacity="0.04" transform="rotate(26.24 610.93 749.97)"/><circle cx="1012.08" cy="664.75" r="0.84" fill="#4d5d52" opacity="0.06"/><circle cx="1193.17" cy="1087.29" r="1.35" fill="#d68a84" opacity="0.03"/><rect x="470.69" y="977.38" width="10.67" height="0.86" rx="1" fill="#4d5d52" opacity="0.05" transform="rotate(59.81 470.69 977.38)"/><rect x="163.34" y="725.14" width="20.51" height="2.41" rx="1" fill="#d68a84" opacity="0.04" transform="rotate(153.99 163.34 725.14)"/><rect x="993.25" y="998.3" width="20.09" height="2.06" rx="1" fill="#d68a84" opacity="0.06" transform="rotate(168.8 993.25 998.3)"/>
  <circle cx="1350" cy="178" r="184" fill="#d68a84" opacity="0.06"/>
  <circle cx="220" cy="894" r="220" fill="#bac6b5" opacity="0.08"/>
  <g transform="rotate(-3 635 510)">
    <ellipse cx="653" cy="764" rx="429.3" ry="50" fill="#1f211d" opacity="0.12"/>
    <rect x="230" y="260" width="810" height="500" rx="6" fill="#fff8f4"/>
    <rect x="634" y="284" width="2" height="452" fill="#4d5d52" opacity="0.12"/>
    <rect x="262" y="300" width="335" height="420" rx="4" fill="#efc8c6"/>
    <path d="M 280 570 C 334.9 480, 415.9 625, 569.8 430" fill="none" stroke="#fff8f4" stroke-width="5" opacity="0.72"/>
    <text x="679" y="348" class="brand" fill="#4d5d52" font-size="44.55">INGREDIENT INDEX</text>
    <rect x="679" y="398" width="119.7" height="3" rx="2" fill="#4d5d52" opacity="0.42"/><rect x="679" y="420" width="179.55" height="2" rx="2" fill="#4d5d52" opacity="0.22"/><rect x="679" y="442" width="239.4" height="2" rx="2" fill="#4d5d52" opacity="0.22"/><rect x="679" y="464" width="135.45" height="2" rx="2" fill="#4d5d52" opacity="0.22"/><rect x="679" y="486" width="195.3" height="2" rx="2" fill="#4d5d52" opacity="0.22"/><rect x="679" y="508" width="255.15" height="2" rx="2" fill="#4d5d52" opacity="0.22"/><rect x="679" y="530" width="151.2" height="2" rx="2" fill="#4d5d52" opacity="0.22"/><rect x="679" y="552" width="211.05" height="2" rx="2" fill="#4d5d52" opacity="0.22"/><rect x="679" y="574" width="270.9" height="2" rx="2" fill="#4d5d52" opacity="0.22"/>
  </g><g transform="rotate(6 1175 445)">
    <ellipse cx="1191" cy="664.2" rx="164.3" ry="42" fill="#1f211d" opacity="0.11"/>
    <rect x="1020" y="235" width="310" height="420" rx="10" fill="#fff8f4"/>
    <rect x="1038" y="253" width="274" height="384" rx="5" fill="none" stroke="#4d5d52" stroke-opacity="0.11"/>
    <rect x="1054" y="277" width="68.2" height="4" rx="2" fill="#d68a84" opacity="0.84"/>
    <text x="1054" y="377.8" class="brand" fill="#4d5d52" font-size="37.2">RITUAL</text>
    <text x="1056" y="411.8" class="micro" fill="#4d5d52" opacity="0.65">CARD 03</text>
    <rect x="1056" y="478.6" width="84.82" height="3" rx="2" fill="#4d5d52" opacity="0.42"/><rect x="1056" y="500.6" width="127.22" height="2" rx="2" fill="#4d5d52" opacity="0.22"/><rect x="1056" y="522.6" width="169.63" height="2" rx="2" fill="#4d5d52" opacity="0.22"/><rect x="1056" y="544.6" width="95.98" height="2" rx="2" fill="#4d5d52" opacity="0.22"/><rect x="1056" y="566.6" width="138.38" height="2" rx="2" fill="#4d5d52" opacity="0.22"/><rect x="1056" y="588.6" width="180.79" height="2" rx="2" fill="#4d5d52" opacity="0.22"/>
    <circle cx="1264" cy="585" r="35" fill="#d68a84" opacity="0.86"/><text x="1264" y="596" text-anchor="middle" class="micro" fill="#fff8f4" font-size="20">RI</text>
  </g><g transform="rotate(-7 1245 731)">
    <ellipse cx="1257" cy="916.66" rx="58.3" ry="4.86" fill="#1f211d" opacity="0.13"/>
    <rect x="1231.8" y="596" width="26.4" height="29.7" rx="8" fill="#607264"/>
    <rect x="1223" y="623" width="44" height="24.3" rx="8" fill="#d68a84"/>
    <rect x="1190" y="644.6" width="110" height="221.4" rx="25.3" fill="#edf4ed" opacity="0.88"/>
    <rect x="1209.8" y="714.8" width="70.4" height="75.6" rx="8" fill="#fff8f4"/>
    <text x="1245" y="744.5" text-anchor="middle" class="brand" fill="#4d5d52" font-size="14.3">AU</text>
    <rect x="1220.8" y="760.7" width="18.39" height="3" rx="2" fill="#4d5d52" opacity="0.42"/><rect x="1220.8" y="782.7" width="27.59" height="2" rx="2" fill="#4d5d52" opacity="0.22"/><rect x="1220.8" y="804.7" width="36.78" height="2" rx="2" fill="#4d5d52" opacity="0.22"/>
  </g>
  <g opacity="0.72"><text x="78" y="1004" class="micro" fill="#4d5d52">LUXURY SKINCARE PACKAGING</text><text x="78" y="1036" class="micro" fill="#4d5d52" opacity="0.55">TEMPORARY DEMONSTRATION PORTFOLIO VISUAL / GALLERY-2</text></g>
</svg>
