<?xml version="1.0" encoding="UTF-8"?>
<svg xmlns="http://www.w3.org/2000/svg" width="1600" height="1100" viewBox="0 0 1600 1100" role="img" aria-labelledby="title desc">
  <title id="title">AURORA gallery-3 demo portfolio mockup</title>
  <desc id="desc">Temporary fictional demonstration project imagery for portfolio presentation only, not client work.</desc>
  <defs>
    <linearGradient id="bg_aurora_gallery_3" x1="0" y1="0" x2="1" y2="1">
      <stop offset="0%" stop-color="#fff8f4"/>
      <stop offset="58%" stop-color="#fbf0ec"/>
      <stop offset="100%" stop-color="#efc8c6"/>
    </linearGradient>
    <radialGradient id="light_aurora_gallery_3" cx="74%" cy="18%" r="64%">
      <stop offset="0%" stop-color="#ffffff" stop-opacity="0.62"/>
      <stop offset="100%" stop-color="#ffffff" stop-opacity="0"/>
    </radialGradient>
  </defs>
  <style><![CDATA[
    .brand { font-family: Times New Roman, Georgia, serif; font-weight: 500; letter-spacing: .02em; }
    .body { font-family: Helvetica, Arial, sans-serif; font-weight: 500; }
    .micro { font-family: Helvetica, Arial, sans-serif; font-size: 20px; font-weight: 700; letter-spacing: .12em; }
  ]]></style>
  <rect width="1600" height="1100" fill="url(#bg_aurora_gallery_3)"/>
  <rect width="1600" height="1100" fill="url(#light_aurora_gallery_3)"/>
  <circle cx="417.03" cy="448.1" r="0.8" fill="#d68a84" opacity="0.07"/><rect x="209.26" y="548.88" width="11.23" height="2.49" rx="1" fill="#d68a84" opacity="0.03" transform="rotate(82.36 209.26 548.88)"/><circle cx="83.35" cy="597.39" r="1.43" fill="#d68a84" opacity="0.08"/><rect x="1240.44" y="956.47" width="18.65" height="2.01" rx="1" fill="#d68a84" opacity="0.07" transform="rotate(109.48 1240.44 956.47)"/><circle cx="680.95" cy="938.39" r="1.33" fill="#d68a84" opacity="0.06"/><rect x="590.28" y="1086.95" width="19.01" height="1.76" rx="1" fill="#4d5d52" opacity="0.08" transform="rotate(70.55 590.28 1086.95)"/><rect x="1378.66" y="549.41" width="24.43" height="1.84" rx="1" fill="#d68a84" opacity="0.06" transform="rotate(75.57 1378.66 549.41)"/><rect x="1296.36" y="3.66" width="19.86" height="2.29" rx="1" fill="#d68a84" opacity="0.07" transform="rotate(25.13 1296.36 3.66)"/><rect x="229.21" y="440" width="15.16" height="1.06" rx="1" fill="#d68a84" opacity="0.07" transform="rotate(165.47 229.21 440)"/><rect x="1221.44" y="212.64" width="20.26" height="1.95" rx="1" fill="#d68a84" opacity="0.03" transform="rotate(117.8 1221.44 212.64)"/><circle cx="1298.09" cy="44.04" r="1.43" fill="#d68a84" opacity="0.05"/><circle cx="278.92" cy="926.05" r="1.56" fill="#d68a84" opacity="0.03"/><rect x="1059.37" y="391.72" width="24.15" height="1" rx="1" fill="#d68a84" opacity="0.05" transform="rotate(164.81 1059.37 391.72)"/><circle cx="949.39" cy="804.12" r="2.11" fill="#d68a84" opacity="0.06"/><rect x="1581.06" y="744.76" width="25.29" height="0.92" rx="1" fill="#d68a84" opacity="0.05" transform="rotate(41.57 1581.06 744.76)"/><circle cx="382.46" cy="989.88" r="2.08" fill="#d68a84" opacity="0.07"/><rect x="1331.49" y="1038.97" width="6.06" height="2.05" rx="1" fill="#d68a84" opacity="0.04" transform="rotate(46.08 1331.49 1038.97)"/><rect x="993.19" y="960.11" width="6.57" height="1.46" rx="1" fill="#4d5d52" opacity="0.07" transform="rotate(151.62 993.19 960.11)"/><circle cx="639.87" cy="80.94" r="0.93" fill="#4d5d52" opacity="0.03"/><circle cx="899.8" cy="569.82" r="1.86" fill="#d68a84" opacity="0.08"/><circle cx="435.73" cy="910.75" r="1.38" fill="#4d5d52" opacity="0.05"/><rect x="593.47" y="558.82" width="22.68" height="2.28" rx="1" fill="#d68a84" opacity="0.07" transform="rotate(83.33 593.47 558.82)"/><circle cx="122.47" cy="745.32" r="0.85" fill="#d68a84" opacity="0.04"/><rect x="586.38" y="381.6" width="18.7" height="0.94" rx="1" fill="#4d5d52" opacity="0.07" transform="rotate(14.82 586.38 381.6)"/><circle cx="629.38" cy="880.66" r="1.49" fill="#4d5d52" opacity="0.04"/><circle cx="764.73" cy="787.13" r="0.88" fill="#4d5d52" opacity="0.05"/><rect x="1017.49" y="1017.58" width="10.2" height="1.6" rx="1" fill="#4d5d52" opacity="0.03" transform="rotate(63.23 1017.49 1017.58)"/><circle cx="339.05" cy="303.36" r="1.05" fill="#d68a84" opacity="0.05"/><rect x="1326.67" y="1063.27" width="23.62" height="1.45" rx="1" fill="#4d5d52" opacity="0.07" transform="rotate(155.38 1326.67 1063.27)"/><rect x="389.19" y="715.55" width="10.93" height="1.19" rx="1" fill="#d68a84" opacity="0.06" transform="rotate(112.49 389.19 715.55)"/><rect x="939.58" y="107.66" width="10.15" height="1.8" rx="1" fill="#d68a84" opacity="0.06" transform="rotate(95.27 939.58 107.66)"/><circle cx="295.64" cy="697" r="1.39" fill="#4d5d52" opacity="0.05"/><circle cx="564.85" cy="238.1" r="2.06" fill="#4d5d52" opacity="0.04"/><rect x="1096.24" y="284.62" width="16.79" height="1.53" rx="1" fill="#4d5d52" opacity="0.04" transform="rotate(99.91 1096.24 284.62)"/><rect x="54.11" y="628.47" width="13.02" height="1.08" rx="1" fill="#d68a84" opacity="0.03" transform="rotate(116.31 54.11 628.47)"/><rect x="88.29" y="721.09" width="8.4" height="1.19" rx="1" fill="#d68a84" opacity="0.05" transform="rotate(9.21 88.29 721.09)"/><rect x="1059.7" y="860.43" width="27.76" height="1.23" rx="1" fill="#4d5d52" opacity="0.07" transform="rotate(9.82 1059.7 860.43)"/><rect x="1172.08" y="590.85" width="22.56" height="1.46" rx="1" fill="#4d5d52" opacity="0.06" transform="rotate(17.54 1172.08 590.85)"/><rect x="1333.6" y="917.07" width="21.29" height="2.5" rx="1" fill="#4d5d52" opacity="0.03" transform="rotate(12.6 1333.6 917.07)"/><rect x="722.94" y="63.07" width="9.55" height="2.09" rx="1" fill="#4d5d52" opacity="0.05" transform="rotate(55.13 722.94 63.07)"/><rect x="140.59" y="546.77" width="21.97" height="1.08" rx="1" fill="#d68a84" opacity="0.08" transform="rotate(38.49 140.59 546.77)"/><rect x="93.66" y="23.24" width="24.15" height="2.01" rx="1" fill="#d68a84" opacity="0.03" transform="rotate(81.55 93.66 23.24)"/><rect x="362.31" y="734.94" width="17.67" height="1.23" rx="1" fill="#d68a84" opacity="0.07" transform="rotate(129.74 362.31 734.94)"/><rect x="1299.3" y="774.29" width="10.63" height="1.62" rx="1" fill="#4d5d52" opacity="0.05" transform="rotate(116.82 1299.3 774.29)"/><rect x="1424.71" y="718.86" width="14.28" height="1.54" rx="1" fill="#4d5d52" opacity="0.04" transform="rotate(69.55 1424.71 718.86)"/><rect x="1482.02" y="418.91" width="9.13" height="2.26" rx="1" fill="#d68a84" opacity="0.06" transform="rotate(16.4 1482.02 418.91)"/><circle cx="479.83" cy="665.07" r="1.74" fill="#d68a84" opacity="0.07"/><rect x="261.8" y="808.37" width="16.08" height="1.85" rx="1" fill="#4d5d52" opacity="0.07" transform="rotate(13.52 261.8 808.37)"/><circle cx="725.88" cy="784.27" r="1.85" fill="#d68a84" opacity="0.04"/><rect x="1493.98" y="408.83" width="14.82" height="0.84" rx="1" fill="#4d5d52" opacity="0.03" transform="rotate(160.64 1493.98 408.83)"/><rect x="1173.21" y="961.18" width="27.6" height="1.15" rx="1" fill="#d68a84" opacity="0.04" transform="rotate(6.19 1173.21 961.18)"/><rect x="1122.9" y="832.91" width="11.7" height="1.51" rx="1" fill="#d68a84" opacity="0.07" transform="rotate(75.31 1122.9 832.91)"/><circle cx="1314.44" cy="558.81" r="1.46" fill="#d68a84" opacity="0.03"/><circle cx="1221.71" cy="202.9" r="1.54" fill="#d68a84" opacity="0.03"/><rect x="544.82" y="414.24" width="11.12" height="2.43" rx="1" fill="#d68a84" opacity="0.06" transform="rotate(75.17 544.82 414.24)"/><circle cx="727.2" cy="723.02" r="1.33" fill="#d68a84" opacity="0.05"/><circle cx="900.08" cy="516.01" r="1.74" fill="#d68a84" opacity="0.06"/><rect x="839.35" y="403.5" width="6.69" height="0.96" rx="1" fill="#4d5d52" opacity="0.04" transform="rotate(113.87 839.35 403.5)"/><rect x="1384.95" y="1033.29" width="18.29" height="1.96" rx="1" fill="#d68a84" opacity="0.08" transform="rotate(80.65 1384.95 1033.29)"/><circle cx="12.03" cy="192.13" r="1.44" fill="#d68a84" opacity="0.04"/><rect x="1329.93" y="558.75" width="23.33" height="1.28" rx="1" fill="#d68a84" opacity="0.05" transform="rotate(157.39 1329.93 558.75)"/><circle cx="569.43" cy="737.28" r="1.91" fill="#4d5d52" opacity="0.04"/><circle cx="1444.27" cy="450.99" r="1.52" fill="#4d5d52" opacity="0.07"/><rect x="313.25" y="661.07" width="17.91" height="1.53" rx="1" fill="#4d5d52" opacity="0.04" transform="rotate(170.51 313.25 661.07)"/><rect x="1118.12" y="214.25" width="13.76" height="1.65" rx="1" fill="#4d5d52" opacity="0.04" transform="rotate(84.99 1118.12 214.25)"/><rect x="350.38" y="1027.98" width="8.63" height="1.04" rx="1" fill="#d68a84" opacity="0.08" transform="rotate(72.39 350.38 1027.98)"/><circle cx="720.39" cy="998.01" r="1.07" fill="#4d5d52" opacity="0.05"/><circle cx="927.36" cy="493.33" r="1.06" fill="#4d5d52" opacity="0.07"/><circle cx="11.08" cy="484.43" r="2.11" fill="#d68a84" opacity="0.05"/><rect x="655.53" y="542.95" width="11.35" height="1.61" rx="1" fill="#d68a84" opacity="0.04" transform="rotate(161.55 655.53 542.95)"/><circle cx="96.65" cy="1073.16" r="1.19" fill="#d68a84" opacity="0.04"/><rect x="668.78" y="471.55" width="20.56" height="1.61" rx="1" fill="#4d5d52" opacity="0.07" transform="rotate(24.12 668.78 471.55)"/><circle cx="629.3" cy="743.8" r="1.48" fill="#d68a84" opacity="0.05"/><rect x="1027.66" y="755.05" width="15.94" height="2.44" rx="1" fill="#d68a84" opacity="0.03" transform="rotate(109.23 1027.66 755.05)"/><rect x="1548.31" y="999.87" width="21.52" height="1.06" rx="1" fill="#d68a84" opacity="0.04" transform="rotate(37.74 1548.31 999.87)"/><circle cx="537.26" cy="577" r="2.05" fill="#d68a84" opacity="0.03"/><circle cx="1346.39" cy="929.28" r="1.6" fill="#d68a84" opacity="0.05"/><rect x="241.17" y="420.2" width="20.96" height="1.54" rx="1" fill="#4d5d52" opacity="0.07" transform="rotate(10.8 241.17 420.2)"/><circle cx="1372.61" cy="719.73" r="1.7" fill="#d68a84" opacity="0.05"/><rect x="1173.33" y="36.04" width="10.61" height="2.55" rx="1" fill="#4d5d52" opacity="0.08" transform="rotate(54.12 1173.33 36.04)"/><circle cx="147.79" cy="962.31" r="1.59" fill="#d68a84" opacity="0.05"/><circle cx="936.6" cy="1040.17" r="0.71" fill="#d68a84" opacity="0.03"/><circle cx="5.7" cy="743.12" r="1.93" fill="#d68a84" opacity="0.04"/><rect x="1506.71" y="59.78" width="23.93" height="2.06" rx="1" fill="#d68a84" opacity="0.08" transform="rotate(53.47 1506.71 59.78)"/><rect x="1232.51" y="415.06" width="8.58" height="1.93" rx="1" fill="#4d5d52" opacity="0.03" transform="rotate(66.45 1232.51 415.06)"/><circle cx="1106.69" cy="62.96" r="2.03" fill="#d68a84" opacity="0.06"/><rect x="416.74" y="745.14" width="14.42" height="1.82" rx="1" fill="#d68a84" opacity="0.05" transform="rotate(146.33 416.74 745.14)"/><rect x="305.41" y="235.69" width="21.07" height="0.87" rx="1" fill="#d68a84" opacity="0.06" transform="rotate(170.9 305.41 235.69)"/><rect x="141.05" y="332.14" width="16.98" height="1.96" rx="1" fill="#d68a84" opacity="0.05" transform="rotate(139.91 141.05 332.14)"/><rect x="890.64" y="861.91" width="18.72" height="2.35" rx="1" fill="#4d5d52" opacity="0.03" transform="rotate(124.53 890.64 861.91)"/><rect x="582.4" y="898.82" width="8.32" height="1.98" rx="1" fill="#4d5d52" opacity="0.04" transform="rotate(167.47 582.4 898.82)"/><circle cx="1228.43" cy="573.03" r="1.9" fill="#d68a84" opacity="0.04"/><rect x="577.41" y="902.46" width="11.36" height="1.13" rx="1" fill="#4d5d52" opacity="0.03" transform="rotate(39.25 577.41 902.46)"/><rect x="1247.36" y="394.66" width="19.72" height="1.97" rx="1" fill="#d68a84" opacity="0.05" transform="rotate(53.93 1247.36 394.66)"/><rect x="1002.62" y="974.76" width="24.6" height="2.43" rx="1" fill="#4d5d52" opacity="0.04" transform="rotate(167.35 1002.62 974.76)"/><rect x="259.34" y="1048.39" width="23.38" height="1.54" rx="1" fill="#4d5d52" opacity="0.05" transform="rotate(151.02 259.34 1048.39)"/><circle cx="1544.55" cy="877.6" r="1.49" fill="#4d5d52" opacity="0.04"/><rect x="1469.99" y="595.8" width="12.82" height="1.37" rx="1" fill="#4d5d52" opacity="0.06" transform="rotate(144.77 1469.99 595.8)"/><rect x="1240.39" y="450.72" width="15.9" height="1.64" rx="1" fill="#d68a84" opacity="0.07" transform="rotate(15.42 1240.39 450.72)"/><circle cx="1009.95" cy="647.43" r="1.14" fill="#d68a84" opacity="0.07"/><rect x="1352.96" y="10.7" width="23.02" height="1.84" rx="1" fill="#4d5d52" opacity="0.05" transform="rotate(144.79 1352.96 10.7)"/><circle cx="162.81" cy="1052.92" r="2.07" fill="#d68a84" opacity="0.08"/><circle cx="877.74" cy="392.85" r="1.04" fill="#4d5d52" opacity="0.06"/><rect x="772.47" y="406.38" width="9.8" height="2.45" rx="1" fill="#4d5d52" opacity="0.03" transform="rotate(1.02 772.47 406.38)"/><circle cx="575.41" cy="909.8" r="0.91" fill="#d68a84" opacity="0.04"/><circle cx="266.14" cy="627.32" r="1.05" fill="#4d5d52" opacity="0.05"/><rect x="1374.42" y="393.66" width="18.27" height="2.07" rx="1" fill="#d68a84" opacity="0.07" transform="rotate(116.99 1374.42 393.66)"/><rect x="1311.35" y="215.52" width="15.77" height="1.51" rx="1" fill="#4d5d52" opacity="0.07" transform="rotate(76.87 1311.35 215.52)"/><rect x="1092.86" y="462.91" width="21.62" height="1.09" rx="1" fill="#d68a84" opacity="0.03" transform="rotate(36.81 1092.86 462.91)"/><circle cx="185.79" cy="664.63" r="1.86" fill="#4d5d52" opacity="0.05"/><rect x="152.79" y="603.22" width="18.42" height="2.54" rx="1" fill="#d68a84" opacity="0.03" transform="rotate(103.57 152.79 603.22)"/><rect x="411.47" y="461.31" width="11.47" height="1.73" rx="1" fill="#d68a84" opacity="0.04" transform="rotate(63.96 411.47 461.31)"/><rect x="982.28" y="933.84" width="18.74" height="1.41" rx="1" fill="#d68a84" opacity="0.03" transform="rotate(176.45 982.28 933.84)"/><circle cx="1489.49" cy="769.03" r="0.87" fill="#d68a84" opacity="0.04"/><rect x="711.7" y="49.73" width="13.92" height="2.15" rx="1" fill="#d68a84" opacity="0.07" transform="rotate(123.22 711.7 49.73)"/><circle cx="162.51" cy="97.74" r="1.66" fill="#d68a84" opacity="0.03"/><circle cx="342.45" cy="301.83" r="0.86" fill="#4d5d52" opacity="0.04"/><rect x="1471.29" y="595.09" width="14.17" height="2.57" rx="1" fill="#d68a84" opacity="0.07" transform="rotate(112.29 1471.29 595.09)"/><circle cx="1565.36" cy="25.93" r="1.72" fill="#d68a84" opacity="0.05"/><circle cx="1417.95" cy="222.36" r="0.9" fill="#d68a84" opacity="0.04"/><rect x="1527.81" y="660.92" width="17.92" height="2.3" rx="1" fill="#d68a84" opacity="0.06" transform="rotate(74.39 1527.81 660.92)"/><circle cx="750.46" cy="1079.35" r="1.34" fill="#4d5d52" opacity="0.04"/><rect x="574.32" y="876.42" width="9.07" height="1.59" rx="1" fill="#4d5d52" opacity="0.06" transform="rotate(23.48 574.32 876.42)"/><circle cx="504.81" cy="838.06" r="1.71" fill="#4d5d52" opacity="0.04"/><circle cx="1227.98" cy="85.28" r="0.9" fill="#4d5d52" opacity="0.04"/><rect x="473.24" y="853.22" width="23" height="1.92" rx="1" fill="#d68a84" opacity="0.05" transform="rotate(68.24 473.24 853.22)"/><circle cx="127.37" cy="795.32" r="1.16" fill="#d68a84" opacity="0.07"/><rect x="828.26" y="356.1" width="20.67" height="2.41" rx="1" fill="#4d5d52" opacity="0.04" transform="rotate(33.13 828.26 356.1)"/><rect x="974.18" y="622.06" width="8.31" height="1.36" rx="1" fill="#4d5d52" opacity="0.06" transform="rotate(65.15 974.18 622.06)"/><circle cx="1210.3" cy="675.44" r="1.84" fill="#d68a84" opacity="0.03"/><rect x="1044.28" y="4.02" width="17.47" height="2.4" rx="1" fill="#d68a84" opacity="0.08" transform="rotate(158.52 1044.28 4.02)"/><rect x="487.36" y="243.59" width="18.27" height="1.97" rx="1" fill="#4d5d52" opacity="0.05" transform="rotate(179.06 487.36 243.59)"/><rect x="920.51" y="507.62" width="8.13" height="2.4" rx="1" fill="#4d5d52" opacity="0.05" transform="rotate(131.19 920.51 507.62)"/><rect x="252.12" y="497.07" width="13.55" height="0.88" rx="1" fill="#d68a84" opacity="0.03" transform="rotate(174.86 252.12 497.07)"/><circle cx="1177.8" cy="38.85" r="0.81" fill="#d68a84" opacity="0.03"/><rect x="1253.37" y="742.05" width="18.16" height="2.51" rx="1" fill="#4d5d52" opacity="0.04" transform="rotate(163.5 1253.37 742.05)"/><rect x="719.52" y="455.82" width="27.96" height="2.17" rx="1" fill="#4d5d52" opacity="0.06" transform="rotate(174.92 719.52 455.82)"/><rect x="1372.75" y="395.71" width="6.59" height="1.35" rx="1" fill="#d68a84" opacity="0.05" transform="rotate(38.28 1372.75 395.71)"/><rect x="1302.06" y="1053.25" width="18.86" height="1.05" rx="1" fill="#d68a84" opacity="0.03" transform="rotate(39.31 1302.06 1053.25)"/><rect x="1030.75" y="731.74" width="9.4" height="1.94" rx="1" fill="#4d5d52" opacity="0.07" transform="rotate(166.25 1030.75 731.74)"/>
  <circle cx="1350" cy="178" r="184" fill="#d68a84" opacity="0.06"/>
  <circle cx="220" cy="894" r="220" fill="#bac6b5" opacity="0.08"/>
  <g transform="rotate(-6 469 525)">
    <ellipse cx="487" cy="845.4" rx="164.3" ry="64" fill="#1f211d" opacity="0.14"/>
    <rect x="314" y="205" width="310" height="640" rx="43.4" fill="#607264"/>
    <rect x="332" y="223" width="274" height="604" rx="34.1" fill="#fff8f4"/>
    <text x="354.3" y="307.4" class="micro" fill="#4d5d52" opacity="0.62">AURORA</text>
    <rect x="354.3" y="365" width="68.2" height="68.2" rx="10" fill="#efc8c6" opacity="0.92"/><rect x="432.5" y="365" width="68.2" height="68.2" rx="10" fill="#bac6b5" opacity="0.92"/><rect x="510.7" y="365" width="68.2" height="68.2" rx="10" fill="#d68a84" opacity="0.92"/><rect x="354.3" y="443.2" width="68.2" height="68.2" rx="10" fill="#fff8f4" opacity="0.92"/><rect x="432.5" y="443.2" width="68.2" height="68.2" rx="10" fill="#efc8c6" opacity="0.92"/><rect x="510.7" y="443.2" width="68.2" height="68.2" rx="10" fill="#bac6b5" opacity="0.92"/><rect x="354.3" y="521.4" width="68.2" height="68.2" rx="10" fill="#d68a84" opacity="0.92"/><rect x="432.5" y="521.4" width="68.2" height="68.2" rx="10" fill="#fff8f4" opacity="0.92"/><rect x="510.7" y="521.4" width="68.2" height="68.2" rx="10" fill="#efc8c6" opacity="0.92"/>
  </g><g transform="rotate(4 810 410)">
    <ellipse cx="822" cy="579.8" rx="148.4" ry="33" fill="#1f211d" opacity="0.09"/>
    <rect x="670" y="245" width="280" height="330" rx="14" fill="#fff8f4"/>
    <rect x="692" y="267" width="236" height="158.4" rx="10" fill="#efc8c6"/>
    <text x="694" y="462.8" class="brand" fill="#4d5d52" font-size="25.2">RITUAL</text>
    <rect x="694" y="489.2" width="72.35" height="3" rx="2" fill="#4d5d52" opacity="0.42"/><rect x="694" y="511.2" width="108.53" height="2" rx="2" fill="#4d5d52" opacity="0.22"/><rect x="694" y="533.2" width="144.7" height="2" rx="2" fill="#4d5d52" opacity="0.22"/>
  </g><g transform="rotate(-5 1074 685)">
    <ellipse cx="1086" cy="854.8" rx="148.4" ry="33" fill="#1f211d" opacity="0.09"/>
    <rect x="934" y="520" width="280" height="330" rx="14" fill="#fff8f4"/>
    <rect x="956" y="542" width="236" height="158.4" rx="10" fill="#bac6b5"/>
    <text x="958" y="737.8" class="brand" fill="#4d5d52" font-size="25.2">SERUM</text>
    <rect x="958" y="764.2" width="72.35" height="3" rx="2" fill="#4d5d52" opacity="0.42"/><rect x="958" y="786.2" width="108.53" height="2" rx="2" fill="#4d5d52" opacity="0.22"/><rect x="958" y="808.2" width="144.7" height="2" rx="2" fill="#4d5d52" opacity="0.22"/>
  </g><g transform="rotate(8 1242.5 332.5)">
    <ellipse cx="1260.5" cy="478.36" rx="87.45" ry="4.1" fill="#1f211d" opacity="0.14"/>
    <ellipse cx="1242.5" cy="254" rx="82.5" ry="24" fill="#fff8f4" opacity="0.82"/>
    <rect x="1160" y="254" width="165" height="157" rx="29.7" fill="#f5ddd9" opacity="0.86"/>
    <ellipse cx="1242.5" cy="411" rx="82.5" ry="24" fill="#efc8c6" opacity="0.52"/>
    <rect x="1189.7" y="316.1" width="105.6" height="53.3" rx="8" fill="#fff8f4"/>
    <text x="1242.5" y="340.7" text-anchor="middle" class="brand" fill="#4d5d52" font-size="26.4">AU</text>
    <text x="1242.5" y="355.05" text-anchor="middle" class="micro" fill="#4d5d52" opacity="0.58">01</text>
    <rect x="1196.3" y="236" width="92.4" height="38" rx="7" fill="#607264"/>
  </g>
  <g opacity="0.72"><text x="78" y="1004" class="micro" fill="#4d5d52">LUXURY SKINCARE PACKAGING</text><text x="78" y="1036" class="micro" fill="#4d5d52" opacity="0.55">TEMPORARY DEMONSTRATION PORTFOLIO VISUAL / GALLERY-3</text></g>
</svg>
