<?xml version="1.0" encoding="UTF-8"?>
<svg xmlns="http://www.w3.org/2000/svg" width="1600" height="1100" viewBox="0 0 1600 1100" role="img" aria-labelledby="title desc">
  <title id="title">AURORA gallery-4 demo portfolio mockup</title>
  <desc id="desc">Temporary fictional demonstration project imagery for portfolio presentation only, not client work.</desc>
  <defs>
    <linearGradient id="bg_aurora_gallery_4" x1="0" y1="0" x2="1" y2="1">
      <stop offset="0%" stop-color="#fff8f4"/>
      <stop offset="58%" stop-color="#fbf0ec"/>
      <stop offset="100%" stop-color="#efc8c6"/>
    </linearGradient>
    <radialGradient id="light_aurora_gallery_4" cx="74%" cy="18%" r="64%">
      <stop offset="0%" stop-color="#ffffff" stop-opacity="0.62"/>
      <stop offset="100%" stop-color="#ffffff" stop-opacity="0"/>
    </radialGradient>
  </defs>
  <style><![CDATA[
    .brand { font-family: Times New Roman, Georgia, serif; font-weight: 500; letter-spacing: .02em; }
    .body { font-family: Helvetica, Arial, sans-serif; font-weight: 500; }
    .micro { font-family: Helvetica, Arial, sans-serif; font-size: 20px; font-weight: 700; letter-spacing: .12em; }
  ]]></style>
  <rect width="1600" height="1100" fill="url(#bg_aurora_gallery_4)"/>
  <rect width="1600" height="1100" fill="url(#light_aurora_gallery_4)"/>
  <circle cx="908.12" cy="1050.72" r="1.52" fill="#d68a84" opacity="0.06"/><circle cx="1588.02" cy="143.09" r="1.51" fill="#d68a84" opacity="0.06"/><rect x="350.77" y="564.17" width="9.66" height="1.73" rx="1" fill="#d68a84" opacity="0.07" transform="rotate(147.11 350.77 564.17)"/><circle cx="545.91" cy="356.43" r="0.95" fill="#4d5d52" opacity="0.07"/><rect x="986.69" y="697.51" width="12.21" height="1.99" rx="1" fill="#4d5d52" opacity="0.08" transform="rotate(68.72 986.69 697.51)"/><rect x="732.77" y="624.03" width="8.83" height="1.34" rx="1" fill="#4d5d52" opacity="0.07" transform="rotate(125.22 732.77 624.03)"/><rect x="605.37" y="744.56" width="26.16" height="2.47" rx="1" fill="#4d5d52" opacity="0.03" transform="rotate(65.86 605.37 744.56)"/><circle cx="976.7" cy="1085.15" r="1.03" fill="#d68a84" opacity="0.07"/><circle cx="863.55" cy="530.58" r="1.04" fill="#d68a84" opacity="0.04"/><rect x="1163.94" y="998.52" width="20.71" height="1.75" rx="1" fill="#d68a84" opacity="0.07" transform="rotate(37 1163.94 998.52)"/><rect x="585.97" y="221.48" width="18.4" height="1.08" rx="1" fill="#d68a84" opacity="0.06" transform="rotate(2.31 585.97 221.48)"/><circle cx="901.44" cy="861.23" r="1.67" fill="#d68a84" opacity="0.03"/><rect x="148.18" y="1053.82" width="18.04" height="1.64" rx="1" fill="#d68a84" opacity="0.08" transform="rotate(156.53 148.18 1053.82)"/><circle cx="1037.93" cy="815.05" r="1.98" fill="#4d5d52" opacity="0.03"/><circle cx="1340.95" cy="385.04" r="1.8" fill="#4d5d52" opacity="0.06"/><rect x="283.24" y="823.35" width="16.57" height="1.94" rx="1" fill="#d68a84" opacity="0.06" transform="rotate(139.53 283.24 823.35)"/><rect x="402.74" y="1032.76" width="12.8" height="2.15" rx="1" fill="#4d5d52" opacity="0.04" transform="rotate(47.77 402.74 1032.76)"/><rect x="241.39" y="913.16" width="6.02" height="2.49" rx="1" fill="#d68a84" opacity="0.06" transform="rotate(73.89 241.39 913.16)"/><rect x="879.68" y="26.45" width="8.76" height="1.14" rx="1" fill="#d68a84" opacity="0.06" transform="rotate(36.38 879.68 26.45)"/><rect x="1126.56" y="202.22" width="22.63" height="1.18" rx="1" fill="#d68a84" opacity="0.04" transform="rotate(83.65 1126.56 202.22)"/><circle cx="457.68" cy="517.05" r="0.81" fill="#4d5d52" opacity="0.05"/><rect x="619.72" y="427.06" width="25.24" height="2.44" rx="1" fill="#d68a84" opacity="0.03" transform="rotate(167.21 619.72 427.06)"/><rect x="117.24" y="200.77" width="20.22" height="2.21" rx="1" fill="#4d5d52" opacity="0.07" transform="rotate(42.29 117.24 200.77)"/><rect x="870.93" y="45.75" width="21.84" height="1.47" rx="1" fill="#d68a84" opacity="0.07" transform="rotate(51.19 870.93 45.75)"/><rect x="882.17" y="450.83" width="16.56" height="1.89" rx="1" fill="#4d5d52" opacity="0.06" transform="rotate(36.27 882.17 450.83)"/><circle cx="286.55" cy="887.22" r="2.22" fill="#4d5d52" opacity="0.06"/><circle cx="96.61" cy="45.15" r="1.98" fill="#d68a84" opacity="0.06"/><rect x="449.98" y="939.74" width="21.57" height="2.09" rx="1" fill="#4d5d52" opacity="0.07" transform="rotate(81.99 449.98 939.74)"/><circle cx="979.98" cy="864.2" r="1.55" fill="#d68a84" opacity="0.07"/><rect x="494.86" y="874.05" width="15.78" height="2.2" rx="1" fill="#d68a84" opacity="0.03" transform="rotate(47.18 494.86 874.05)"/><rect x="751.44" y="851.01" width="9.34" height="1.94" rx="1" fill="#4d5d52" opacity="0.04" transform="rotate(32.6 751.44 851.01)"/><rect x="1200.09" y="657.03" width="15.94" height="1.48" rx="1" fill="#d68a84" opacity="0.04" transform="rotate(125.83 1200.09 657.03)"/><circle cx="366.7" cy="1057.67" r="1.59" fill="#d68a84" opacity="0.03"/><circle cx="1255.39" cy="914.77" r="1.05" fill="#d68a84" opacity="0.03"/><rect x="565.73" y="93.99" width="25.06" height="2.55" rx="1" fill="#d68a84" opacity="0.07" transform="rotate(100.42 565.73 93.99)"/><circle cx="590.27" cy="354.1" r="1.47" fill="#d68a84" opacity="0.04"/><rect x="179.27" y="139.52" width="10.86" height="0.91" rx="1" fill="#d68a84" opacity="0.03" transform="rotate(35.21 179.27 139.52)"/><circle cx="163.83" cy="1054.31" r="1.34" fill="#d68a84" opacity="0.05"/><rect x="496.92" y="755.9" width="23.43" height="1.43" rx="1" fill="#d68a84" opacity="0.08" transform="rotate(111.7 496.92 755.9)"/><circle cx="392.16" cy="920.36" r="1" fill="#4d5d52" opacity="0.07"/><rect x="745.52" y="122.87" width="20.01" height="2.51" rx="1" fill="#4d5d52" opacity="0.07" transform="rotate(138.8 745.52 122.87)"/><rect x="543.59" y="597.21" width="17.62" height="2.59" rx="1" fill="#d68a84" opacity="0.03" transform="rotate(117.57 543.59 597.21)"/><rect x="24.95" y="345.29" width="19.89" height="2.09" rx="1" fill="#4d5d52" opacity="0.06" transform="rotate(30.07 24.95 345.29)"/><circle cx="1101.11" cy="248.62" r="1.98" fill="#4d5d52" opacity="0.05"/><rect x="430.77" y="596.78" width="27.1" height="1.8" rx="1" fill="#4d5d52" opacity="0.07" transform="rotate(16.35 430.77 596.78)"/><circle cx="1334.65" cy="880.11" r="0.85" fill="#d68a84" opacity="0.05"/><circle cx="374.41" cy="792.08" r="2" fill="#4d5d52" opacity="0.05"/><rect x="932.29" y="1079.05" width="19.74" height="1.14" rx="1" fill="#4d5d52" opacity="0.03" transform="rotate(8.63 932.29 1079.05)"/><rect x="1075.67" y="281.44" width="18.65" height="1.04" rx="1" fill="#d68a84" opacity="0.03" transform="rotate(41.3 1075.67 281.44)"/><rect x="750.31" y="309.94" width="15.17" height="2.15" rx="1" fill="#4d5d52" opacity="0.06" transform="rotate(90.16 750.31 309.94)"/><rect x="969.82" y="736.53" width="27.26" height="2.19" rx="1" fill="#d68a84" opacity="0.06" transform="rotate(96.41 969.82 736.53)"/><circle cx="427.47" cy="559.1" r="1.84" fill="#d68a84" opacity="0.08"/><circle cx="1309.23" cy="668.56" r="1.58" fill="#4d5d52" opacity="0.05"/><rect x="978.95" y="794.05" width="27.52" height="1.53" rx="1" fill="#d68a84" opacity="0.07" transform="rotate(123.29 978.95 794.05)"/><circle cx="696.25" cy="210.29" r="2.05" fill="#4d5d52" opacity="0.06"/><rect x="433.18" y="356.29" width="7.55" height="1.02" rx="1" fill="#4d5d52" opacity="0.04" transform="rotate(138.99 433.18 356.29)"/><rect x="1201.44" y="1068.96" width="17.3" height="1.94" rx="1" fill="#d68a84" opacity="0.04" transform="rotate(34.11 1201.44 1068.96)"/><circle cx="1476.22" cy="781.74" r="1.09" fill="#d68a84" opacity="0.07"/><circle cx="1589.78" cy="1041.08" r="1.47" fill="#d68a84" opacity="0.06"/><circle cx="805.32" cy="118.08" r="2.13" fill="#d68a84" opacity="0.03"/><rect x="409.75" y="1.05" width="20.31" height="2.45" rx="1" fill="#d68a84" opacity="0.07" transform="rotate(130.85 409.75 1.05)"/><rect x="688.97" y="900.79" width="16.68" height="1.38" rx="1" fill="#d68a84" opacity="0.03" transform="rotate(11.77 688.97 900.79)"/><rect x="975.17" y="328.81" width="17.29" height="2.16" rx="1" fill="#d68a84" opacity="0.05" transform="rotate(77.61 975.17 328.81)"/><rect x="503.87" y="773.97" width="6.7" height="1.7" rx="1" fill="#4d5d52" opacity="0.07" transform="rotate(158.07 503.87 773.97)"/><circle cx="303.43" cy="277.56" r="1.73" fill="#d68a84" opacity="0.05"/><rect x="1410.38" y="805.38" width="11.61" height="2.43" rx="1" fill="#4d5d52" opacity="0.08" transform="rotate(53.23 1410.38 805.38)"/><rect x="1341.58" y="291.25" width="26.75" height="2.34" rx="1" fill="#d68a84" opacity="0.04" transform="rotate(80.88 1341.58 291.25)"/><rect x="1402.44" y="949.94" width="16.01" height="1.35" rx="1" fill="#d68a84" opacity="0.08" transform="rotate(176.6 1402.44 949.94)"/><rect x="1336.61" y="913.24" width="14.75" height="0.86" rx="1" fill="#4d5d52" opacity="0.07" transform="rotate(167.06 1336.61 913.24)"/><rect x="873.62" y="211.3" width="21.13" height="1.77" rx="1" fill="#4d5d52" opacity="0.07" transform="rotate(163.66 873.62 211.3)"/><rect x="862.19" y="896.92" width="24.6" height="1.93" rx="1" fill="#d68a84" opacity="0.08" transform="rotate(32.64 862.19 896.92)"/><circle cx="1287.53" cy="22.46" r="2.16" fill="#d68a84" opacity="0.05"/><rect x="1192.9" y="556.53" width="10.37" height="1.42" rx="1" fill="#4d5d52" opacity="0.07" transform="rotate(165.58 1192.9 556.53)"/><rect x="102.07" y="585.6" width="23.72" height="1.07" rx="1" fill="#d68a84" opacity="0.08" transform="rotate(74.69 102.07 585.6)"/><circle cx="29.44" cy="59.07" r="1.15" fill="#d68a84" opacity="0.05"/><rect x="886.28" y="703.67" width="7.26" height="1.08" rx="1" fill="#d68a84" opacity="0.03" transform="rotate(114.96 886.28 703.67)"/><rect x="381.88" y="555.56" width="19.56" height="1.21" rx="1" fill="#d68a84" opacity="0.06" transform="rotate(57.8 381.88 555.56)"/><rect x="248.35" y="547.27" width="17.84" height="2.5" rx="1" fill="#d68a84" opacity="0.04" transform="rotate(64.55 248.35 547.27)"/><circle cx="809.87" cy="736.33" r="2.28" fill="#d68a84" opacity="0.06"/><rect x="1478.56" y="140.31" width="12.23" height="2.4" rx="1" fill="#d68a84" opacity="0.07" transform="rotate(179.77 1478.56 140.31)"/><circle cx="1440.16" cy="453.36" r="0.77" fill="#4d5d52" opacity="0.04"/><circle cx="654.94" cy="620.66" r="1.48" fill="#4d5d52" opacity="0.07"/><rect x="397.11" y="307.53" width="23.78" height="1.85" rx="1" fill="#4d5d52" opacity="0.06" transform="rotate(30.68 397.11 307.53)"/><rect x="1209.9" y="669.54" width="18.65" height="1.45" rx="1" fill="#4d5d52" opacity="0.05" transform="rotate(4.63 1209.9 669.54)"/><circle cx="1267.31" cy="589.86" r="1.95" fill="#d68a84" opacity="0.08"/><circle cx="563.66" cy="215.44" r="0.76" fill="#4d5d52" opacity="0.07"/><rect x="215.94" y="957.81" width="14.36" height="1.27" rx="1" fill="#d68a84" opacity="0.07" transform="rotate(52.72 215.94 957.81)"/><rect x="513.19" y="336.39" width="17.87" height="0.8" rx="1" fill="#4d5d52" opacity="0.07" transform="rotate(160.35 513.19 336.39)"/><circle cx="1022.28" cy="507.09" r="1.89" fill="#4d5d52" opacity="0.03"/><rect x="725.33" y="403.87" width="7.16" height="1.6" rx="1" fill="#4d5d52" opacity="0.08" transform="rotate(105.24 725.33 403.87)"/><circle cx="605.73" cy="103.65" r="2.06" fill="#4d5d52" opacity="0.03"/><circle cx="441.63" cy="300.65" r="0.85" fill="#4d5d52" opacity="0.04"/><rect x="1194.69" y="1071.29" width="19.97" height="1.63" rx="1" fill="#d68a84" opacity="0.04" transform="rotate(78.81 1194.69 1071.29)"/><rect x="1336.76" y="999.61" width="25.01" height="1.17" rx="1" fill="#4d5d52" opacity="0.06" transform="rotate(23.95 1336.76 999.61)"/><rect x="434.49" y="1034.96" width="6.28" height="1.06" rx="1" fill="#4d5d52" opacity="0.03" transform="rotate(55.83 434.49 1034.96)"/><rect x="1320.85" y="1030.05" width="6.78" height="1.36" rx="1" fill="#d68a84" opacity="0.07" transform="rotate(132.55 1320.85 1030.05)"/><rect x="968.78" y="451.22" width="9.43" height="1.4" rx="1" fill="#4d5d52" opacity="0.06" transform="rotate(50.65 968.78 451.22)"/><rect x="981.36" y="115.58" width="8.08" height="1.95" rx="1" fill="#4d5d52" opacity="0.06" transform="rotate(0.55 981.36 115.58)"/><rect x="1340.19" y="527.3" width="19.4" height="1.75" rx="1" fill="#d68a84" opacity="0.08" transform="rotate(158.56 1340.19 527.3)"/><circle cx="1363.53" cy="587.83" r="1.69" fill="#d68a84" opacity="0.03"/><rect x="340.03" y="187.35" width="11.09" height="2.09" rx="1" fill="#4d5d52" opacity="0.05" transform="rotate(87.77 340.03 187.35)"/><circle cx="638.23" cy="279.37" r="1.71" fill="#4d5d52" opacity="0.03"/><circle cx="258.79" cy="134.58" r="1.01" fill="#4d5d52" opacity="0.07"/><rect x="514.66" y="690.6" width="23.2" height="0.93" rx="1" fill="#4d5d52" opacity="0.05" transform="rotate(57.46 514.66 690.6)"/><circle cx="1124.68" cy="1044.58" r="1.73" fill="#d68a84" opacity="0.06"/><rect x="1289.32" y="482.8" width="21.6" height="0.93" rx="1" fill="#d68a84" opacity="0.04" transform="rotate(25.69 1289.32 482.8)"/><rect x="1003.4" y="301.38" width="21.1" height="2.38" rx="1" fill="#4d5d52" opacity="0.07" transform="rotate(29.3 1003.4 301.38)"/><rect x="769.49" y="306.29" width="12.17" height="1.58" rx="1" fill="#d68a84" opacity="0.06" transform="rotate(6.18 769.49 306.29)"/><circle cx="381.98" cy="400.52" r="1.75" fill="#d68a84" opacity="0.07"/><rect x="1392.27" y="1081.23" width="27.98" height="2.17" rx="1" fill="#d68a84" opacity="0.08" transform="rotate(85.41 1392.27 1081.23)"/><rect x="799.51" y="148.31" width="20.98" height="1.54" rx="1" fill="#d68a84" opacity="0.05" transform="rotate(29.75 799.51 148.31)"/><circle cx="1224.36" cy="865.73" r="1.53" fill="#d68a84" opacity="0.07"/><rect x="232.58" y="62.42" width="26.13" height="1.73" rx="1" fill="#d68a84" opacity="0.08" transform="rotate(40.18 232.58 62.42)"/><rect x="81.65" y="989.03" width="27.47" height="1.35" rx="1" fill="#d68a84" opacity="0.07" transform="rotate(47.62 81.65 989.03)"/><circle cx="1113.48" cy="762.96" r="0.76" fill="#4d5d52" opacity="0.05"/><rect x="1578.92" y="636.82" width="13.06" height="1.22" rx="1" fill="#d68a84" opacity="0.03" transform="rotate(34.7 1578.92 636.82)"/><rect x="1511.78" y="654.04" width="13.97" height="1.69" rx="1" fill="#4d5d52" opacity="0.07" transform="rotate(54.86 1511.78 654.04)"/><rect x="1286.23" y="442.3" width="9.3" height="1.3" rx="1" fill="#d68a84" opacity="0.07" transform="rotate(166.11 1286.23 442.3)"/><rect x="1093.19" y="602.17" width="18.21" height="1.56" rx="1" fill="#d68a84" opacity="0.06" transform="rotate(154.07 1093.19 602.17)"/><rect x="987.08" y="863.52" width="25" height="2.54" rx="1" fill="#d68a84" opacity="0.04" transform="rotate(32.23 987.08 863.52)"/><rect x="919.97" y="1093.86" width="24.75" height="2.26" rx="1" fill="#4d5d52" opacity="0.06" transform="rotate(38.52 919.97 1093.86)"/><rect x="139.67" y="344.3" width="14.48" height="1.36" rx="1" fill="#d68a84" opacity="0.05" transform="rotate(42.95 139.67 344.3)"/><circle cx="1221.05" cy="126.64" r="2.15" fill="#d68a84" opacity="0.04"/><rect x="898.48" y="583.61" width="14.97" height="1.21" rx="1" fill="#4d5d52" opacity="0.05" transform="rotate(58.49 898.48 583.61)"/><rect x="846.49" y="781.23" width="26.58" height="2.02" rx="1" fill="#4d5d52" opacity="0.06" transform="rotate(55.78 846.49 781.23)"/><rect x="382" y="907.76" width="21.96" height="1.7" rx="1" fill="#d68a84" opacity="0.05" transform="rotate(2.29 382 907.76)"/><rect x="1270.86" y="1094.13" width="18.62" height="1.6" rx="1" fill="#4d5d52" opacity="0.03" transform="rotate(164.85 1270.86 1094.13)"/><circle cx="1499.69" cy="541.69" r="2.17" fill="#4d5d52" opacity="0.03"/><circle cx="166.28" cy="648.79" r="0.92" fill="#4d5d52" opacity="0.06"/><circle cx="1428.92" cy="111.28" r="1.72" fill="#d68a84" opacity="0.03"/><circle cx="166.62" cy="177.6" r="2.28" fill="#d68a84" opacity="0.07"/><circle cx="149.28" cy="493.33" r="2.07" fill="#d68a84" opacity="0.05"/><rect x="878.04" y="652.4" width="20.18" height="2.55" rx="1" fill="#d68a84" opacity="0.05" transform="rotate(68.19 878.04 652.4)"/><circle cx="1127.42" cy="133.81" r="1.06" fill="#d68a84" opacity="0.05"/><rect x="1203.82" y="1078.94" width="20.89" height="0.94" rx="1" fill="#d68a84" opacity="0.05" transform="rotate(24.36 1203.82 1078.94)"/><circle cx="1098.84" cy="853.72" r="1.19" fill="#4d5d52" opacity="0.04"/><circle cx="1584.86" cy="651.04" r="1.23" fill="#4d5d52" opacity="0.05"/><circle cx="1111.46" cy="938.19" r="1.21" fill="#4d5d52" opacity="0.04"/><rect x="829.38" y="310.18" width="8.07" height="2.48" rx="1" fill="#d68a84" opacity="0.04" transform="rotate(106.37 829.38 310.18)"/><circle cx="370.04" cy="288.09" r="1.38" fill="#d68a84" opacity="0.03"/>
  <circle cx="1350" cy="178" r="184" fill="#d68a84" opacity="0.06"/>
  <circle cx="220" cy="894" r="220" fill="#bac6b5" opacity="0.08"/>
  <g transform="rotate(-4 515 425)">
      <ellipse cx="315" cy="484.32" rx="44.52" ry="4.2" fill="#1f211d" opacity="0.08"/>
      <rect x="265" y="360" width="86" height="116" rx="8" fill="#fff8f4"/>
      <text x="277" y="456" class="micro" fill="#4d5d52" opacity="0.62">01</text>
    
      <ellipse cx="419" cy="484.32" rx="44.52" ry="4.2" fill="#1f211d" opacity="0.08"/>
      <rect x="369" y="360" width="86" height="116" rx="8" fill="#efc8c6"/>
      <text x="381" y="456" class="micro" fill="#4d5d52" opacity="0.62">02</text>
    
      <ellipse cx="523" cy="484.32" rx="44.52" ry="4.2" fill="#1f211d" opacity="0.08"/>
      <rect x="473" y="360" width="86" height="116" rx="8" fill="#d68a84"/>
      <text x="485" y="456" class="micro" fill="#4d5d52" opacity="0.62">03</text>
    
      <ellipse cx="627" cy="484.32" rx="44.52" ry="4.2" fill="#1f211d" opacity="0.08"/>
      <rect x="577" y="360" width="86" height="116" rx="8" fill="#bac6b5"/>
      <text x="589" y="456" class="micro" fill="#4d5d52" opacity="0.62">04</text>
    
      <ellipse cx="731" cy="484.32" rx="44.52" ry="4.2" fill="#1f211d" opacity="0.08"/>
      <rect x="681" y="360" width="86" height="116" rx="8" fill="#607264"/>
      <text x="693" y="456" class="micro" fill="#fff8f4" opacity="0.62">05</text>
    </g><g transform="rotate(4 970 408.5)">
    <ellipse cx="988" cy="609.72" rx="127.2" ry="5.7" fill="#1f211d" opacity="0.14"/>
    <ellipse cx="970" cy="290" rx="120" ry="24" fill="#fff8f4" opacity="0.82"/>
    <rect x="850" y="290" width="240" height="237" rx="43.2" fill="#f4e1dd" opacity="0.86"/>
    <ellipse cx="970" cy="527" rx="120" ry="24" fill="#efc8c6" opacity="0.52"/>
    <rect x="893.2" y="385.7" width="153.6" height="74.1" rx="8" fill="#fff8f4"/>
    <text x="970" y="419.9" text-anchor="middle" class="brand" fill="#4d5d52" font-size="38.4">AU</text>
    <text x="970" y="439.85" text-anchor="middle" class="micro" fill="#4d5d52" opacity="0.58">GLASS</text>
    <rect x="902.8" y="272" width="134.4" height="38" rx="7" fill="#607264"/>
  </g><g transform="rotate(-6 1165 690)">
    <ellipse cx="1181" cy="812.6" rx="174.9" ry="21" fill="#1f211d" opacity="0.11"/>
    <rect x="1000" y="585" width="330" height="210" rx="10" fill="#fff8f4"/>
    <rect x="1018" y="603" width="294" height="174" rx="5" fill="none" stroke="#4d5d52" stroke-opacity="0.11"/>
    <rect x="1034" y="627" width="72.6" height="4" rx="2" fill="#d68a84" opacity="0.84"/>
    <text x="1034" y="656.4" class="brand" fill="#4d5d52" font-size="39.6">LABEL STOCK</text>
    <text x="1036" y="690.4" class="micro" fill="#4d5d52" opacity="0.65">MATTE SEAL</text>
    <rect x="1036" y="706.8" width="90.29" height="3" rx="2" fill="#4d5d52" opacity="0.42"/><rect x="1036" y="728.8" width="135.43" height="2" rx="2" fill="#4d5d52" opacity="0.22"/><rect x="1036" y="750.8" width="180.58" height="2" rx="2" fill="#4d5d52" opacity="0.22"/><rect x="1036" y="772.8" width="102.17" height="2" rx="2" fill="#4d5d52" opacity="0.22"/>
    
  </g>
  <g opacity="0.72"><text x="78" y="1004" class="micro" fill="#4d5d52">LUXURY SKINCARE PACKAGING</text><text x="78" y="1036" class="micro" fill="#4d5d52" opacity="0.55">TEMPORARY DEMONSTRATION PORTFOLIO VISUAL / GALLERY-4</text></g>
</svg>
