<?xml version="1.0" encoding="UTF-8"?>
<svg xmlns="http://www.w3.org/2000/svg" width="1600" height="1100" viewBox="0 0 1600 1100" role="img" aria-labelledby="title desc">
  <title id="title">AURORA gallery-1 demo portfolio mockup</title>
  <desc id="desc">Temporary fictional demonstration project imagery for portfolio presentation only, not client work.</desc>
  <defs>
    <linearGradient id="bg_aurora_gallery_1" x1="0" y1="0" x2="1" y2="1">
      <stop offset="0%" stop-color="#fff8f4"/>
      <stop offset="58%" stop-color="#fbf0ec"/>
      <stop offset="100%" stop-color="#efc8c6"/>
    </linearGradient>
    <radialGradient id="light_aurora_gallery_1" cx="74%" cy="18%" r="64%">
      <stop offset="0%" stop-color="#ffffff" stop-opacity="0.62"/>
      <stop offset="100%" stop-color="#ffffff" stop-opacity="0"/>
    </radialGradient>
  </defs>
  <style><![CDATA[
    .brand { font-family: Times New Roman, Georgia, serif; font-weight: 500; letter-spacing: .02em; }
    .body { font-family: Helvetica, Arial, sans-serif; font-weight: 500; }
    .micro { font-family: Helvetica, Arial, sans-serif; font-size: 20px; font-weight: 700; letter-spacing: .12em; }
  ]]></style>
  <rect width="1600" height="1100" fill="url(#bg_aurora_gallery_1)"/>
  <rect width="1600" height="1100" fill="url(#light_aurora_gallery_1)"/>
  <circle cx="430" cy="9.4" r="0.97" fill="#4d5d52" opacity="0.04"/><circle cx="1177.99" cy="578.13" r="1.23" fill="#d68a84" opacity="0.03"/><rect x="744.79" y="132.25" width="11.47" height="2.35" rx="1" fill="#d68a84" opacity="0.04" transform="rotate(157.31 744.79 132.25)"/><rect x="1444.97" y="728.12" width="12.6" height="1.97" rx="1" fill="#4d5d52" opacity="0.07" transform="rotate(114.07 1444.97 728.12)"/><rect x="900.39" y="302.35" width="24.2" height="2.26" rx="1" fill="#4d5d52" opacity="0.03" transform="rotate(145.67 900.39 302.35)"/><rect x="748.81" y="576.9" width="24.7" height="1.87" rx="1" fill="#d68a84" opacity="0.03" transform="rotate(43.54 748.81 576.9)"/><circle cx="770.71" cy="670.75" r="0.84" fill="#4d5d52" opacity="0.07"/><rect x="1079.08" y="699.29" width="23.16" height="2.08" rx="1" fill="#4d5d52" opacity="0.04" transform="rotate(100.84 1079.08 699.29)"/><circle cx="101.4" cy="318.36" r="1.82" fill="#4d5d52" opacity="0.03"/><circle cx="618.2" cy="136.87" r="2.22" fill="#d68a84" opacity="0.07"/><rect x="550.99" y="175.42" width="13.89" height="1.46" rx="1" fill="#4d5d52" opacity="0.05" transform="rotate(56.21 550.99 175.42)"/><circle cx="1313.41" cy="705.79" r="0.97" fill="#d68a84" opacity="0.04"/><rect x="757.37" y="720.43" width="19.19" height="1.83" rx="1" fill="#d68a84" opacity="0.04" transform="rotate(119.28 757.37 720.43)"/><rect x="1160.62" y="32.52" width="20.93" height="1.32" rx="1" fill="#d68a84" opacity="0.07" transform="rotate(56.26 1160.62 32.52)"/><rect x="420.91" y="360.02" width="7.22" height="1.84" rx="1" fill="#d68a84" opacity="0.08" transform="rotate(21.35 420.91 360.02)"/><rect x="1010.46" y="347.83" width="23.14" height="1.23" rx="1" fill="#4d5d52" opacity="0.06" transform="rotate(119.43 1010.46 347.83)"/><rect x="631.31" y="417.62" width="11.37" height="1.11" rx="1" fill="#d68a84" opacity="0.07" transform="rotate(178.79 631.31 417.62)"/><rect x="788.91" y="901.62" width="19.73" height="1.84" rx="1" fill="#4d5d52" opacity="0.06" transform="rotate(153.66 788.91 901.62)"/><circle cx="439.71" cy="911.09" r="1.11" fill="#d68a84" opacity="0.08"/><rect x="43.59" y="816.88" width="27.99" height="2.52" rx="1" fill="#d68a84" opacity="0.06" transform="rotate(147.49 43.59 816.88)"/><rect x="423.8" y="688.12" width="26.07" height="1.75" rx="1" fill="#d68a84" opacity="0.07" transform="rotate(31.78 423.8 688.12)"/><rect x="282.45" y="47.97" width="6.06" height="1.48" rx="1" fill="#d68a84" opacity="0.08" transform="rotate(132.33 282.45 47.97)"/><rect x="494.05" y="737.34" width="25.64" height="2.38" rx="1" fill="#4d5d52" opacity="0.07" transform="rotate(144.2 494.05 737.34)"/><circle cx="1550.87" cy="348.86" r="1.59" fill="#4d5d52" opacity="0.07"/><circle cx="512.13" cy="788.8" r="0.8" fill="#d68a84" opacity="0.08"/><circle cx="1106.29" cy="590.22" r="1.12" fill="#4d5d52" opacity="0.03"/><rect x="528.13" y="942.76" width="23.05" height="1.76" rx="1" fill="#d68a84" opacity="0.05" transform="rotate(101.24 528.13 942.76)"/><circle cx="724.58" cy="436.99" r="2.03" fill="#4d5d52" opacity="0.07"/><rect x="943.86" y="811.48" width="23.85" height="1.27" rx="1" fill="#d68a84" opacity="0.06" transform="rotate(148.11 943.86 811.48)"/><rect x="857.11" y="51.81" width="6.19" height="1.6" rx="1" fill="#4d5d52" opacity="0.07" transform="rotate(177.28 857.11 51.81)"/><rect x="165.41" y="596.7" width="27.26" height="0.87" rx="1" fill="#d68a84" opacity="0.03" transform="rotate(25.88 165.41 596.7)"/><circle cx="1020.62" cy="57.22" r="2.2" fill="#4d5d52" opacity="0.03"/><rect x="853.85" y="142.5" width="13.15" height="0.82" rx="1" fill="#d68a84" opacity="0.04" transform="rotate(95.22 853.85 142.5)"/><circle cx="686.16" cy="33.05" r="1.49" fill="#d68a84" opacity="0.03"/><rect x="52.87" y="910.89" width="13.34" height="1.56" rx="1" fill="#4d5d52" opacity="0.03" transform="rotate(177.68 52.87 910.89)"/><circle cx="965.45" cy="722.41" r="0.74" fill="#d68a84" opacity="0.07"/><circle cx="1562.93" cy="1011.29" r="1.27" fill="#4d5d52" opacity="0.08"/><circle cx="208.75" cy="905.51" r="1.59" fill="#d68a84" opacity="0.07"/><rect x="784.09" y="602.86" width="22.07" height="2.04" rx="1" fill="#4d5d52" opacity="0.05" transform="rotate(162.49 784.09 602.86)"/><circle cx="324.5" cy="44.48" r="1.44" fill="#d68a84" opacity="0.03"/><rect x="271.34" y="604.55" width="8.36" height="1.29" rx="1" fill="#d68a84" opacity="0.04" transform="rotate(25.34 271.34 604.55)"/><rect x="1065.02" y="785.09" width="7.67" height="1.24" rx="1" fill="#d68a84" opacity="0.07" transform="rotate(174.6 1065.02 785.09)"/><rect x="1029.6" y="528.02" width="24.33" height="1.08" rx="1" fill="#d68a84" opacity="0.07" transform="rotate(136.22 1029.6 528.02)"/><circle cx="722.21" cy="572.45" r="0.97" fill="#4d5d52" opacity="0.04"/><rect x="821.72" y="513.05" width="22.52" height="1.18" rx="1" fill="#d68a84" opacity="0.07" transform="rotate(159.32 821.72 513.05)"/><circle cx="1451.31" cy="423.09" r="2.3" fill="#4d5d52" opacity="0.03"/><circle cx="896.86" cy="283.61" r="1.21" fill="#d68a84" opacity="0.04"/><circle cx="866.37" cy="618.19" r="1.9" fill="#d68a84" opacity="0.03"/><rect x="330.51" y="327.7" width="24.15" height="1.96" rx="1" fill="#d68a84" opacity="0.05" transform="rotate(64.74 330.51 327.7)"/><circle cx="1595.75" cy="405.99" r="0.96" fill="#d68a84" opacity="0.04"/><rect x="1598.22" y="367.81" width="8.62" height="0.99" rx="1" fill="#4d5d52" opacity="0.03" transform="rotate(87.75 1598.22 367.81)"/><rect x="802.18" y="394.4" width="15.9" height="1.69" rx="1" fill="#4d5d52" opacity="0.04" transform="rotate(101.74 802.18 394.4)"/><circle cx="1058.27" cy="1081.44" r="1.22" fill="#d68a84" opacity="0.04"/><rect x="930.07" y="109.04" width="14.73" height="2.07" rx="1" fill="#d68a84" opacity="0.04" transform="rotate(144.37 930.07 109.04)"/><rect x="504.86" y="673.37" width="10.04" height="2.06" rx="1" fill="#d68a84" opacity="0.06" transform="rotate(170.89 504.86 673.37)"/><rect x="231.12" y="613.94" width="11.94" height="2.22" rx="1" fill="#d68a84" opacity="0.06" transform="rotate(171.85 231.12 613.94)"/><rect x="42.4" y="728" width="6.19" height="2.19" rx="1" fill="#d68a84" opacity="0.05" transform="rotate(157.97 42.4 728)"/><rect x="343.35" y="865.41" width="8.96" height="2.27" rx="1" fill="#4d5d52" opacity="0.06" transform="rotate(110.83 343.35 865.41)"/><rect x="101.12" y="193.49" width="19.98" height="1.81" rx="1" fill="#d68a84" opacity="0.05" transform="rotate(170.25 101.12 193.49)"/><circle cx="567.99" cy="586.51" r="2.21" fill="#d68a84" opacity="0.04"/><circle cx="881.96" cy="320.61" r="2.22" fill="#4d5d52" opacity="0.05"/><rect x="1194.63" y="509.19" width="25.15" height="1.81" rx="1" fill="#4d5d52" opacity="0.06" transform="rotate(148.48 1194.63 509.19)"/><circle cx="812.11" cy="45.46" r="2.11" fill="#d68a84" opacity="0.05"/><circle cx="1526.57" cy="22.35" r="1.8" fill="#d68a84" opacity="0.08"/><rect x="833.08" y="996.07" width="11" height="0.94" rx="1" fill="#d68a84" opacity="0.08" transform="rotate(119.52 833.08 996.07)"/><circle cx="1295.5" cy="436.98" r="1.14" fill="#4d5d52" opacity="0.05"/><rect x="1149.42" y="756.07" width="19.78" height="2.45" rx="1" fill="#4d5d52" opacity="0.07" transform="rotate(127.3 1149.42 756.07)"/><rect x="1326.35" y="941.37" width="21.53" height="1.45" rx="1" fill="#d68a84" opacity="0.03" transform="rotate(152.56 1326.35 941.37)"/><circle cx="402.94" cy="616.78" r="0.87" fill="#d68a84" opacity="0.06"/><rect x="1579.04" y="615.8" width="19.19" height="1.25" rx="1" fill="#d68a84" opacity="0.05" transform="rotate(103.68 1579.04 615.8)"/><rect x="219.77" y="305.62" width="27.47" height="2.35" rx="1" fill="#d68a84" opacity="0.03" transform="rotate(140.87 219.77 305.62)"/><rect x="1043.6" y="353.7" width="16.96" height="0.85" rx="1" fill="#d68a84" opacity="0.08" transform="rotate(155.17 1043.6 353.7)"/><circle cx="609.16" cy="870.28" r="1.76" fill="#d68a84" opacity="0.07"/><circle cx="444.4" cy="376.62" r="0.96" fill="#d68a84" opacity="0.07"/><circle cx="1045.62" cy="610.31" r="1.72" fill="#d68a84" opacity="0.05"/><rect x="658.04" y="1098.14" width="21.9" height="1.72" rx="1" fill="#d68a84" opacity="0.07" transform="rotate(167.07 658.04 1098.14)"/><rect x="1290.92" y="186.59" width="20.08" height="0.92" rx="1" fill="#4d5d52" opacity="0.08" transform="rotate(53.21 1290.92 186.59)"/><rect x="664.09" y="985.08" width="10.59" height="2.47" rx="1" fill="#4d5d52" opacity="0.03" transform="rotate(26.27 664.09 985.08)"/><rect x="671.85" y="955.69" width="6.09" height="2.16" rx="1" fill="#d68a84" opacity="0.05" transform="rotate(87.48 671.85 955.69)"/><rect x="895.18" y="417.37" width="24.72" height="1.39" rx="1" fill="#d68a84" opacity="0.07" transform="rotate(143.63 895.18 417.37)"/><circle cx="1099.31" cy="409.97" r="0.97" fill="#d68a84" opacity="0.03"/><circle cx="753.7" cy="60.88" r="2.28" fill="#4d5d52" opacity="0.03"/><rect x="236.06" y="10.82" width="18.62" height="1.19" rx="1" fill="#4d5d52" opacity="0.08" transform="rotate(76.97 236.06 10.82)"/><circle cx="1015.87" cy="597.84" r="2.15" fill="#4d5d52" opacity="0.04"/><rect x="314.71" y="654.08" width="20.76" height="1.61" rx="1" fill="#4d5d52" opacity="0.07" transform="rotate(178.94 314.71 654.08)"/><rect x="165.48" y="1025.88" width="19.58" height="1.58" rx="1" fill="#d68a84" opacity="0.07" transform="rotate(140.31 165.48 1025.88)"/><rect x="554.59" y="1065.75" width="7" height="1.03" rx="1" fill="#4d5d52" opacity="0.03" transform="rotate(139.36 554.59 1065.75)"/><circle cx="952.45" cy="488.45" r="1.23" fill="#d68a84" opacity="0.05"/><rect x="265.66" y="206.82" width="10.37" height="0.82" rx="1" fill="#d68a84" opacity="0.05" transform="rotate(39.16 265.66 206.82)"/><rect x="1230.15" y="950.56" width="11.14" height="1.43" rx="1" fill="#d68a84" opacity="0.08" transform="rotate(171.41 1230.15 950.56)"/><circle cx="372.78" cy="859.82" r="1.15" fill="#d68a84" opacity="0.05"/><circle cx="1257.66" cy="503.27" r="1.59" fill="#d68a84" opacity="0.07"/><rect x="1064.92" y="338.69" width="18.29" height="1.94" rx="1" fill="#d68a84" opacity="0.05" transform="rotate(77.12 1064.92 338.69)"/><rect x="458.38" y="1095.67" width="15.07" height="1.6" rx="1" fill="#d68a84" opacity="0.08" transform="rotate(4.59 458.38 1095.67)"/><circle cx="1134.79" cy="24.18" r="1.21" fill="#4d5d52" opacity="0.03"/><rect x="936.4" y="819.58" width="13.85" height="1.47" rx="1" fill="#4d5d52" opacity="0.06" transform="rotate(53.54 936.4 819.58)"/><circle cx="103.03" cy="472.17" r="1.14" fill="#4d5d52" opacity="0.03"/><rect x="679.2" y="1098.64" width="25.1" height="1.13" rx="1" fill="#d68a84" opacity="0.05" transform="rotate(166.78 679.2 1098.64)"/><circle cx="539.28" cy="1001.64" r="2.29" fill="#d68a84" opacity="0.04"/><circle cx="769.94" cy="50.02" r="2.28" fill="#d68a84" opacity="0.06"/><rect x="1136.52" y="12.47" width="22.68" height="1.46" rx="1" fill="#4d5d52" opacity="0.07" transform="rotate(26.88 1136.52 12.47)"/><rect x="734.26" y="848.95" width="19.6" height="1.24" rx="1" fill="#d68a84" opacity="0.05" transform="rotate(73.19 734.26 848.95)"/><rect x="201.38" y="395.56" width="27.2" height="1.86" rx="1" fill="#d68a84" opacity="0.04" transform="rotate(61 201.38 395.56)"/><rect x="1118.05" y="157.2" width="19.87" height="1.1" rx="1" fill="#d68a84" opacity="0.06" transform="rotate(110.16 1118.05 157.2)"/><rect x="1351.77" y="52.07" width="14.01" height="1.02" rx="1" fill="#d68a84" opacity="0.03" transform="rotate(53.06 1351.77 52.07)"/><circle cx="1136.69" cy="231.99" r="1.62" fill="#d68a84" opacity="0.06"/><circle cx="224.96" cy="804.74" r="1.96" fill="#d68a84" opacity="0.04"/><rect x="978.83" y="267.72" width="27.08" height="1.85" rx="1" fill="#d68a84" opacity="0.04" transform="rotate(105.17 978.83 267.72)"/><rect x="261.68" y="982.67" width="18.2" height="1.47" rx="1" fill="#d68a84" opacity="0.03" transform="rotate(158.02 261.68 982.67)"/><rect x="297.34" y="153.17" width="9.33" height="1.58" rx="1" fill="#4d5d52" opacity="0.06" transform="rotate(14.44 297.34 153.17)"/><rect x="838.97" y="456.08" width="14.86" height="1.99" rx="1" fill="#d68a84" opacity="0.04" transform="rotate(142.51 838.97 456.08)"/><rect x="241.02" y="740.14" width="25.1" height="0.89" rx="1" fill="#d68a84" opacity="0.04" transform="rotate(75.7 241.02 740.14)"/><circle cx="1539.41" cy="210.01" r="1.23" fill="#4d5d52" opacity="0.08"/><rect x="863.67" y="1045.54" width="9.93" height="1.5" rx="1" fill="#4d5d52" opacity="0.05" transform="rotate(21.7 863.67 1045.54)"/><circle cx="1341.54" cy="1097.57" r="1.14" fill="#d68a84" opacity="0.07"/><rect x="1350.57" y="909.55" width="26.29" height="2.14" rx="1" fill="#d68a84" opacity="0.04" transform="rotate(82.6 1350.57 909.55)"/><circle cx="86.24" cy="746.88" r="1.78" fill="#4d5d52" opacity="0.05"/><rect x="1314.33" y="37.45" width="24.96" height="1.07" rx="1" fill="#4d5d52" opacity="0.08" transform="rotate(47.46 1314.33 37.45)"/><rect x="930.17" y="1036.88" width="16.37" height="1.31" rx="1" fill="#4d5d52" opacity="0.05" transform="rotate(106.47 930.17 1036.88)"/><rect x="1280.66" y="990.57" width="10.05" height="1.95" rx="1" fill="#d68a84" opacity="0.04" transform="rotate(71.33 1280.66 990.57)"/><circle cx="960.11" cy="766.92" r="0.77" fill="#4d5d52" opacity="0.05"/><rect x="651.7" y="9.94" width="23.15" height="2.53" rx="1" fill="#d68a84" opacity="0.05" transform="rotate(145.31 651.7 9.94)"/><circle cx="1352.45" cy="622.03" r="1.62" fill="#d68a84" opacity="0.04"/><rect x="80.72" y="73.14" width="17.55" height="1.39" rx="1" fill="#4d5d52" opacity="0.07" transform="rotate(113.03 80.72 73.14)"/><rect x="480.98" y="356.59" width="14.82" height="1.54" rx="1" fill="#4d5d52" opacity="0.04" transform="rotate(90.95 480.98 356.59)"/><circle cx="139.36" cy="281.37" r="1.63" fill="#4d5d52" opacity="0.03"/><rect x="571.23" y="669.8" width="27.83" height="1.73" rx="1" fill="#d68a84" opacity="0.04" transform="rotate(22.14 571.23 669.8)"/><rect x="635.97" y="264.42" width="19.51" height="1.17" rx="1" fill="#d68a84" opacity="0.04" transform="rotate(128.73 635.97 264.42)"/><circle cx="106.28" cy="455.33" r="0.83" fill="#4d5d52" opacity="0.07"/><rect x="545.91" y="311.72" width="9.26" height="0.81" rx="1" fill="#d68a84" opacity="0.06" transform="rotate(164.25 545.91 311.72)"/><rect x="613.31" y="1057.91" width="10.56" height="0.82" rx="1" fill="#d68a84" opacity="0.06" transform="rotate(20.9 613.31 1057.91)"/><rect x="602.24" y="1090.26" width="11.15" height="2.53" rx="1" fill="#4d5d52" opacity="0.08" transform="rotate(64.25 602.24 1090.26)"/><circle cx="515.64" cy="791.56" r="1.01" fill="#4d5d52" opacity="0.05"/><rect x="1512.27" y="485.47" width="8.98" height="1.99" rx="1" fill="#d68a84" opacity="0.08" transform="rotate(141.6 1512.27 485.47)"/><circle cx="530.64" cy="416.09" r="0.74" fill="#d68a84" opacity="0.04"/><circle cx="1080.96" cy="115.7" r="2.09" fill="#d68a84" opacity="0.07"/><circle cx="363.52" cy="1082.62" r="1.61" fill="#d68a84" opacity="0.05"/><circle cx="1550.13" cy="470.94" r="1.79" fill="#d68a84" opacity="0.07"/><circle cx="1427.5" cy="169.82" r="1.21" fill="#d68a84" opacity="0.03"/><circle cx="1043.51" cy="781.24" r="1.81" fill="#d68a84" opacity="0.04"/>
  <circle cx="1350" cy="178" r="184" fill="#d68a84" opacity="0.06"/>
  <circle cx="220" cy="894" r="220" fill="#bac6b5" opacity="0.08"/>
  <g transform="rotate(-6 542 449.46)">
    <ellipse cx="576" cy="826.65" rx="214.12" ry="12.88" fill="#1f211d" opacity="0.14"/>
    <polygon points="340,235 414,203.92000000000002 744,203.92000000000002 670,235" fill="#efc8c6" opacity="0.96"/>
    <polygon points="670,235 744,203.92000000000002 744,663.92 670,695" fill="#bac6b5" opacity="0.62"/>
    <rect x="340" y="235" width="330" height="460" rx="8" fill="#fff8f4"/>
    <rect x="386.2" y="308.6" width="52.8" height="5" rx="3" fill="#d68a84"/>
    <text x="386.2" y="428.2" class="brand" fill="#4d5d52" font-size="42.9">SERUM</text>
    <text x="389.5" y="460.2" class="micro" fill="#4d5d52" opacity="0.56">FROSTED GLASS</text>
    <rect x="389.5" y="529.4" width="77.75" height="3" rx="2" fill="#4d5d52" opacity="0.42"/><rect x="389.5" y="551.4" width="116.62" height="2" rx="2" fill="#4d5d52" opacity="0.22"/><rect x="389.5" y="573.4" width="155.5" height="2" rx="2" fill="#4d5d52" opacity="0.22"/><rect x="389.5" y="595.4" width="87.98" height="2" rx="2" fill="#4d5d52" opacity="0.22"/>
  </g><g transform="rotate(3 850 574)">
    <ellipse cx="868" cy="757.92" rx="121.9" ry="5.2" fill="#1f211d" opacity="0.14"/>
    <ellipse cx="850" cy="468" rx="115" ry="24" fill="#fff8f4" opacity="0.82"/>
    <rect x="735" y="468" width="230" height="212" rx="41.4" fill="#f5ddd9" opacity="0.86"/>
    <ellipse cx="850" cy="680" rx="115" ry="24" fill="#efc8c6" opacity="0.52"/>
    <rect x="776.4" y="553.2" width="147.2" height="67.6" rx="8" fill="#fff8f4"/>
    <text x="850" y="584.4" text-anchor="middle" class="brand" fill="#4d5d52" font-size="36.8">AU</text>
    <text x="850" y="602.6" text-anchor="middle" class="micro" fill="#4d5d52" opacity="0.58">HYDRATE</text>
    <rect x="785.6" y="450" width="128.8" height="38" rx="7" fill="#607264"/>
  </g><g transform="rotate(7 1141 476.98)">
    <ellipse cx="1175" cy="797.83" rx="170.66" ry="10.92" fill="#1f211d" opacity="0.14"/>
    <polygon points="980,295 1042,268.96 1302,268.96 1240,295" fill="#bac6b5" opacity="0.96"/>
    <polygon points="1240,295 1302,268.96 1302,658.96 1240,685" fill="#bac6b5" opacity="0.62"/>
    <rect x="980" y="295" width="260" height="390" rx="8" fill="#efc8c6"/>
    <rect x="1016.4" y="357.4" width="41.6" height="5" rx="3" fill="#d68a84"/>
    <text x="1016.4" y="458.8" class="brand" fill="#4d5d52" font-size="33.8">REFILL</text>
    <text x="1019" y="490.8" class="micro" fill="#4d5d52" opacity="0.56">SLEEVE</text>
    <rect x="1019" y="544.6" width="61.26" height="3" rx="2" fill="#4d5d52" opacity="0.42"/><rect x="1019" y="566.6" width="91.88" height="2" rx="2" fill="#4d5d52" opacity="0.22"/><rect x="1019" y="588.6" width="122.51" height="2" rx="2" fill="#4d5d52" opacity="0.22"/><rect x="1019" y="610.6" width="69.32" height="2" rx="2" fill="#4d5d52" opacity="0.22"/>
  </g>
  <g opacity="0.72"><text x="78" y="1004" class="micro" fill="#4d5d52">LUXURY SKINCARE PACKAGING</text><text x="78" y="1036" class="micro" fill="#4d5d52" opacity="0.55">TEMPORARY DEMONSTRATION PORTFOLIO VISUAL / GALLERY-1</text></g>
</svg>
