<?xml version="1.0" encoding="UTF-8"?>
<svg xmlns="http://www.w3.org/2000/svg" width="1600" height="1100" viewBox="0 0 1600 1100" role="img" aria-labelledby="title desc">
  <title id="title">AURORA hero demo portfolio mockup</title>
  <desc id="desc">Temporary fictional demonstration project imagery for portfolio presentation only, not client work.</desc>
  <defs>
    <linearGradient id="bg_aurora_hero" x1="0" y1="0" x2="1" y2="1">
      <stop offset="0%" stop-color="#fff8f4"/>
      <stop offset="58%" stop-color="#fbf0ec"/>
      <stop offset="100%" stop-color="#efc8c6"/>
    </linearGradient>
    <radialGradient id="light_aurora_hero" cx="74%" cy="18%" r="64%">
      <stop offset="0%" stop-color="#ffffff" stop-opacity="0.62"/>
      <stop offset="100%" stop-color="#ffffff" stop-opacity="0"/>
    </radialGradient>
  </defs>
  <style><![CDATA[
    .brand { font-family: Times New Roman, Georgia, serif; font-weight: 500; letter-spacing: .02em; }
    .body { font-family: Helvetica, Arial, sans-serif; font-weight: 500; }
    .micro { font-family: Helvetica, Arial, sans-serif; font-size: 20px; font-weight: 700; letter-spacing: .12em; }
  ]]></style>
  <rect width="1600" height="1100" fill="url(#bg_aurora_hero)"/>
  <rect width="1600" height="1100" fill="url(#light_aurora_hero)"/>
  <rect x="1459.72" y="828.6" width="26.58" height="1.56" rx="1" fill="#d68a84" opacity="0.06" transform="rotate(119.65 1459.72 828.6)"/><circle cx="1466.66" cy="377.1" r="1.08" fill="#4d5d52" opacity="0.05"/><circle cx="190.59" cy="787.3" r="1.23" fill="#d68a84" opacity="0.08"/><circle cx="1328.49" cy="553.22" r="0.99" fill="#d68a84" opacity="0.03"/><circle cx="1429.87" cy="842.85" r="2.19" fill="#d68a84" opacity="0.08"/><rect x="876.91" y="628" width="14.75" height="0.99" rx="1" fill="#4d5d52" opacity="0.04" transform="rotate(39.28 876.91 628)"/><circle cx="858" cy="906.27" r="1.95" fill="#d68a84" opacity="0.06"/><circle cx="104.25" cy="850.44" r="1.31" fill="#4d5d52" opacity="0.03"/><rect x="532.81" y="102.27" width="22.14" height="1.54" rx="1" fill="#d68a84" opacity="0.06" transform="rotate(59.14 532.81 102.27)"/><rect x="1075.94" y="741.77" width="25.55" height="1.5" rx="1" fill="#4d5d52" opacity="0.05" transform="rotate(58.81 1075.94 741.77)"/><circle cx="1010.35" cy="387.77" r="1.98" fill="#d68a84" opacity="0.07"/><rect x="536.02" y="868.34" width="25.22" height="2.38" rx="1" fill="#d68a84" opacity="0.07" transform="rotate(92.84 536.02 868.34)"/><rect x="173.42" y="637.36" width="9.31" height="1.79" rx="1" fill="#4d5d52" opacity="0.05" transform="rotate(74.55 173.42 637.36)"/><rect x="1140.89" y="779.62" width="23.48" height="2.04" rx="1" fill="#d68a84" opacity="0.06" transform="rotate(62.84 1140.89 779.62)"/><circle cx="352.64" cy="809.43" r="1.5" fill="#d68a84" opacity="0.03"/><rect x="338.26" y="730.37" width="14.21" height="1.47" rx="1" fill="#d68a84" opacity="0.05" transform="rotate(52.36 338.26 730.37)"/><circle cx="1417.71" cy="1014.81" r="1.19" fill="#4d5d52" opacity="0.03"/><rect x="1413.84" y="1043.61" width="19.76" height="1.42" rx="1" fill="#d68a84" opacity="0.04" transform="rotate(78.73 1413.84 1043.61)"/><rect x="642.8" y="171.43" width="24.3" height="2.36" rx="1" fill="#d68a84" opacity="0.03" transform="rotate(2.01 642.8 171.43)"/><rect x="1151.53" y="693" width="12.77" height="1.9" rx="1" fill="#4d5d52" opacity="0.08" transform="rotate(14.09 1151.53 693)"/><circle cx="752.56" cy="110.03" r="1.17" fill="#d68a84" opacity="0.08"/><rect x="913.94" y="818.14" width="26.23" height="1.78" rx="1" fill="#d68a84" opacity="0.05" transform="rotate(97.33 913.94 818.14)"/><circle cx="1041.96" cy="221.42" r="2.02" fill="#d68a84" opacity="0.05"/><rect x="571.9" y="503.98" width="22.89" height="2.56" rx="1" fill="#d68a84" opacity="0.08" transform="rotate(50.54 571.9 503.98)"/><rect x="654.49" y="759.28" width="18.21" height="1.27" rx="1" fill="#4d5d52" opacity="0.05" transform="rotate(116.47 654.49 759.28)"/><circle cx="995.58" cy="1014.56" r="1.95" fill="#d68a84" opacity="0.04"/><circle cx="535.2" cy="257.54" r="2.09" fill="#4d5d52" opacity="0.08"/><circle cx="724.54" cy="258.72" r="2.05" fill="#4d5d52" opacity="0.08"/><rect x="1536.99" y="692.36" width="20.61" height="1.17" rx="1" fill="#d68a84" opacity="0.03" transform="rotate(137.1 1536.99 692.36)"/><rect x="1589.43" y="986.17" width="17.41" height="2.18" rx="1" fill="#d68a84" opacity="0.05" transform="rotate(63.86 1589.43 986.17)"/><rect x="821.94" y="122.55" width="12.17" height="0.86" rx="1" fill="#4d5d52" opacity="0.03" transform="rotate(152.97 821.94 122.55)"/><circle cx="1507.79" cy="148.59" r="1" fill="#d68a84" opacity="0.05"/><circle cx="604.08" cy="176.92" r="2.01" fill="#d68a84" opacity="0.04"/><rect x="1118.95" y="683.16" width="10.47" height="2.32" rx="1" fill="#d68a84" opacity="0.07" transform="rotate(109.48 1118.95 683.16)"/><rect x="346.71" y="56.76" width="8.16" height="1.86" rx="1" fill="#d68a84" opacity="0.03" transform="rotate(32.53 346.71 56.76)"/><circle cx="968.08" cy="489.66" r="2.14" fill="#d68a84" opacity="0.03"/><rect x="513.73" y="719.46" width="13.57" height="0.8" rx="1" fill="#4d5d52" opacity="0.05" transform="rotate(21.32 513.73 719.46)"/><circle cx="395.74" cy="26.03" r="1.76" fill="#4d5d52" opacity="0.03"/><rect x="410.75" y="295.87" width="11.1" height="0.96" rx="1" fill="#4d5d52" opacity="0.06" transform="rotate(170.96 410.75 295.87)"/><rect x="66.08" y="652.29" width="24.83" height="1.41" rx="1" fill="#4d5d52" opacity="0.07" transform="rotate(173.42 66.08 652.29)"/><rect x="1531.29" y="8.79" width="14.09" height="1.86" rx="1" fill="#4d5d52" opacity="0.04" transform="rotate(8.77 1531.29 8.79)"/><circle cx="1563.28" cy="862.86" r="1.45" fill="#4d5d52" opacity="0.07"/><circle cx="514.38" cy="735.08" r="1.36" fill="#d68a84" opacity="0.03"/><circle cx="130.18" cy="775.32" r="1.45" fill="#4d5d52" opacity="0.06"/><rect x="519.04" y="129.75" width="15.54" height="2.21" rx="1" fill="#4d5d52" opacity="0.06" transform="rotate(58.54 519.04 129.75)"/><circle cx="79.24" cy="830.22" r="1.2" fill="#4d5d52" opacity="0.06"/><circle cx="400.18" cy="1090.95" r="1.71" fill="#d68a84" opacity="0.03"/><circle cx="1052.97" cy="786.53" r="1.97" fill="#d68a84" opacity="0.04"/><rect x="21.72" y="434.97" width="10.89" height="1.24" rx="1" fill="#d68a84" opacity="0.05" transform="rotate(168.08 21.72 434.97)"/><rect x="1282.72" y="972.06" width="7.12" height="0.99" rx="1" fill="#d68a84" opacity="0.06" transform="rotate(169.69 1282.72 972.06)"/><circle cx="1155.69" cy="470.63" r="1.14" fill="#4d5d52" opacity="0.03"/><circle cx="1414.54" cy="273.05" r="0.91" fill="#d68a84" opacity="0.06"/><rect x="1524.06" y="1079.99" width="20.53" height="2.37" rx="1" fill="#d68a84" opacity="0.08" transform="rotate(133.98 1524.06 1079.99)"/><circle cx="399.2" cy="166.96" r="1.38" fill="#d68a84" opacity="0.08"/><circle cx="294.78" cy="1077.17" r="1.06" fill="#4d5d52" opacity="0.07"/><rect x="470.55" y="703.39" width="24.73" height="2.04" rx="1" fill="#4d5d52" opacity="0.05" transform="rotate(102.34 470.55 703.39)"/><rect x="169.28" y="52.73" width="7" height="1.56" rx="1" fill="#d68a84" opacity="0.07" transform="rotate(91.28 169.28 52.73)"/><rect x="1447.36" y="968.32" width="18.13" height="1.2" rx="1" fill="#4d5d52" opacity="0.03" transform="rotate(13.09 1447.36 968.32)"/><rect x="1306.88" y="658.32" width="19.78" height="0.99" rx="1" fill="#4d5d52" opacity="0.05" transform="rotate(155.52 1306.88 658.32)"/><circle cx="966.03" cy="529.49" r="1.36" fill="#4d5d52" opacity="0.06"/><rect x="823.03" y="359.7" width="16.24" height="1.57" rx="1" fill="#4d5d52" opacity="0.05" transform="rotate(84.88 823.03 359.7)"/><rect x="862.55" y="414.83" width="7.78" height="2.28" rx="1" fill="#d68a84" opacity="0.03" transform="rotate(100.2 862.55 414.83)"/><rect x="892.15" y="107.18" width="16.68" height="1.6" rx="1" fill="#4d5d52" opacity="0.05" transform="rotate(176.06 892.15 107.18)"/><rect x="172.7" y="742.59" width="14.22" height="1.83" rx="1" fill="#4d5d52" opacity="0.05" transform="rotate(43.93 172.7 742.59)"/><rect x="493.54" y="346.01" width="24.15" height="1.01" rx="1" fill="#d68a84" opacity="0.04" transform="rotate(31.13 493.54 346.01)"/><circle cx="202.9" cy="836.64" r="1.13" fill="#d68a84" opacity="0.03"/><circle cx="480.13" cy="980.37" r="1.59" fill="#d68a84" opacity="0.05"/><rect x="454.78" y="136.75" width="22.14" height="2.53" rx="1" fill="#4d5d52" opacity="0.06" transform="rotate(14.52 454.78 136.75)"/><rect x="1398.78" y="497.72" width="10.66" height="1.48" rx="1" fill="#d68a84" opacity="0.08" transform="rotate(130.16 1398.78 497.72)"/><rect x="1589.36" y="484.48" width="25.65" height="1.52" rx="1" fill="#4d5d52" opacity="0.07" transform="rotate(34.28 1589.36 484.48)"/><rect x="705.03" y="868.18" width="16.28" height="2.47" rx="1" fill="#d68a84" opacity="0.07" transform="rotate(138.44 705.03 868.18)"/><rect x="590.88" y="601.5" width="9.88" height="1.36" rx="1" fill="#4d5d52" opacity="0.07" transform="rotate(141.5 590.88 601.5)"/><circle cx="1218.33" cy="590.49" r="1.51" fill="#d68a84" opacity="0.06"/><circle cx="1057.29" cy="475.63" r="2.12" fill="#d68a84" opacity="0.05"/><rect x="1137.53" y="80.42" width="12.31" height="1.12" rx="1" fill="#d68a84" opacity="0.07" transform="rotate(133.85 1137.53 80.42)"/><rect x="200.25" y="368.02" width="8.42" height="2.4" rx="1" fill="#d68a84" opacity="0.03" transform="rotate(130.7 200.25 368.02)"/><rect x="1393.08" y="469.63" width="19.48" height="1.65" rx="1" fill="#4d5d52" opacity="0.05" transform="rotate(64.65 1393.08 469.63)"/><circle cx="1163.66" cy="781.2" r="0.92" fill="#d68a84" opacity="0.04"/><circle cx="1356.54" cy="705.2" r="1.44" fill="#4d5d52" opacity="0.06"/><rect x="1157.79" y="304.06" width="15.28" height="1.5" rx="1" fill="#d68a84" opacity="0.07" transform="rotate(101.79 1157.79 304.06)"/><circle cx="715.58" cy="190.5" r="1.18" fill="#d68a84" opacity="0.08"/><circle cx="97.07" cy="950.7" r="1.19" fill="#4d5d52" opacity="0.04"/><circle cx="1599.03" cy="986.86" r="0.84" fill="#d68a84" opacity="0.04"/><rect x="224.07" y="490.52" width="9.66" height="0.8" rx="1" fill="#d68a84" opacity="0.04" transform="rotate(90.08 224.07 490.52)"/><rect x="1093.93" y="210.28" width="18.02" height="2.14" rx="1" fill="#d68a84" opacity="0.04" transform="rotate(160.05 1093.93 210.28)"/><circle cx="69.57" cy="404.11" r="0.9" fill="#d68a84" opacity="0.04"/><rect x="494.12" y="309.28" width="7.46" height="1.96" rx="1" fill="#d68a84" opacity="0.04" transform="rotate(91.66 494.12 309.28)"/><rect x="266.97" y="308.99" width="13.73" height="2.23" rx="1" fill="#4d5d52" opacity="0.06" transform="rotate(2.04 266.97 308.99)"/><rect x="362.07" y="818.69" width="27.35" height="1.05" rx="1" fill="#4d5d52" opacity="0.07" transform="rotate(149.34 362.07 818.69)"/><rect x="990.5" y="131.04" width="21.65" height="2.04" rx="1" fill="#d68a84" opacity="0.03" transform="rotate(89.98 990.5 131.04)"/><rect x="82.53" y="963.73" width="21.71" height="1.98" rx="1" fill="#4d5d52" opacity="0.06" transform="rotate(55.62 82.53 963.73)"/><rect x="204.66" y="744.76" width="16.38" height="1.47" rx="1" fill="#d68a84" opacity="0.05" transform="rotate(86.75 204.66 744.76)"/><rect x="1123.08" y="61.18" width="21.29" height="2.31" rx="1" fill="#4d5d52" opacity="0.07" transform="rotate(102.31 1123.08 61.18)"/><rect x="1598.22" y="601.52" width="10.45" height="1.92" rx="1" fill="#4d5d52" opacity="0.07" transform="rotate(39.08 1598.22 601.52)"/><circle cx="1384.81" cy="15.5" r="0.96" fill="#d68a84" opacity="0.07"/><circle cx="495.49" cy="36.8" r="1.58" fill="#d68a84" opacity="0.06"/><rect x="205.89" y="370.61" width="14.03" height="1.16" rx="1" fill="#d68a84" opacity="0.05" transform="rotate(69.13 205.89 370.61)"/><rect x="1504.19" y="641.08" width="24.46" height="1.79" rx="1" fill="#d68a84" opacity="0.08" transform="rotate(47.49 1504.19 641.08)"/><rect x="1170.57" y="1061.15" width="21.54" height="2.06" rx="1" fill="#d68a84" opacity="0.08" transform="rotate(42.8 1170.57 1061.15)"/><circle cx="1307.88" cy="1024.5" r="1.62" fill="#d68a84" opacity="0.03"/><rect x="935.79" y="623.39" width="10.21" height="2.16" rx="1" fill="#d68a84" opacity="0.05" transform="rotate(52.24 935.79 623.39)"/><rect x="238.04" y="1070.95" width="7.8" height="2.51" rx="1" fill="#4d5d52" opacity="0.05" transform="rotate(80.42 238.04 1070.95)"/><circle cx="796.34" cy="411.23" r="1.44" fill="#4d5d52" opacity="0.05"/><circle cx="512.74" cy="414.46" r="1.61" fill="#d68a84" opacity="0.06"/><circle cx="1560.69" cy="292.61" r="0.95" fill="#d68a84" opacity="0.07"/><circle cx="1435.49" cy="938.4" r="2.14" fill="#d68a84" opacity="0.05"/><rect x="1568.24" y="252.26" width="14.33" height="1.43" rx="1" fill="#d68a84" opacity="0.06" transform="rotate(24.63 1568.24 252.26)"/><rect x="141.69" y="169.96" width="22.38" height="1.96" rx="1" fill="#d68a84" opacity="0.04" transform="rotate(166.62 141.69 169.96)"/><circle cx="371.89" cy="440.51" r="0.88" fill="#4d5d52" opacity="0.03"/><rect x="729.49" y="801.35" width="8.91" height="1.96" rx="1" fill="#4d5d52" opacity="0.04" transform="rotate(134.43 729.49 801.35)"/><circle cx="1217.59" cy="678.31" r="1.07" fill="#d68a84" opacity="0.03"/><rect x="4.4" y="783.09" width="16.8" height="0.89" rx="1" fill="#d68a84" opacity="0.06" transform="rotate(103.58 4.4 783.09)"/><rect x="629.44" y="702.76" width="24.24" height="1.06" rx="1" fill="#4d5d52" opacity="0.04" transform="rotate(59.2 629.44 702.76)"/><circle cx="1031.39" cy="239.13" r="0.95" fill="#4d5d52" opacity="0.05"/><circle cx="758.46" cy="586.87" r="0.74" fill="#4d5d52" opacity="0.07"/><rect x="537.12" y="878.06" width="26.36" height="1.63" rx="1" fill="#d68a84" opacity="0.05" transform="rotate(139.29 537.12 878.06)"/><circle cx="926.62" cy="230.44" r="1.66" fill="#d68a84" opacity="0.07"/><rect x="1211.09" y="468.52" width="11.15" height="2.26" rx="1" fill="#4d5d52" opacity="0.05" transform="rotate(96.7 1211.09 468.52)"/><circle cx="551.16" cy="636.05" r="2.24" fill="#d68a84" opacity="0.05"/><rect x="1560.24" y="457.33" width="22.94" height="1.04" rx="1" fill="#4d5d52" opacity="0.04" transform="rotate(64.48 1560.24 457.33)"/><rect x="1298.78" y="78.81" width="10.7" height="2.05" rx="1" fill="#4d5d52" opacity="0.07" transform="rotate(171.98 1298.78 78.81)"/><rect x="1352.49" y="762.04" width="21.02" height="1.08" rx="1" fill="#d68a84" opacity="0.07" transform="rotate(26.65 1352.49 762.04)"/><rect x="386.21" y="114.87" width="21.27" height="1.33" rx="1" fill="#4d5d52" opacity="0.08" transform="rotate(115.45 386.21 114.87)"/><circle cx="1307.42" cy="574.47" r="1.62" fill="#d68a84" opacity="0.05"/><rect x="336.47" y="572.38" width="23.23" height="1.07" rx="1" fill="#4d5d52" opacity="0.06" transform="rotate(118.77 336.47 572.38)"/><rect x="1194.6" y="394.6" width="8.78" height="2.04" rx="1" fill="#4d5d52" opacity="0.06" transform="rotate(102.34 1194.6 394.6)"/><rect x="61.01" y="876.27" width="15.28" height="1.89" rx="1" fill="#4d5d52" opacity="0.08" transform="rotate(168.52 61.01 876.27)"/><circle cx="12.78" cy="1033" r="0.92" fill="#d68a84" opacity="0.05"/><rect x="1026.56" y="698.03" width="16.22" height="2.37" rx="1" fill="#d68a84" opacity="0.06" transform="rotate(21.83 1026.56 698.03)"/><circle cx="1002.23" cy="986.9" r="1.11" fill="#d68a84" opacity="0.04"/><circle cx="476.19" cy="732.06" r="0.88" fill="#d68a84" opacity="0.04"/><rect x="35.43" y="225.4" width="17.73" height="1.26" rx="1" fill="#4d5d52" opacity="0.06" transform="rotate(41.99 35.43 225.4)"/><circle cx="699.22" cy="1006.54" r="1.49" fill="#d68a84" opacity="0.03"/><rect x="597.18" y="757.87" width="23.01" height="2.5" rx="1" fill="#d68a84" opacity="0.04" transform="rotate(1.06 597.18 757.87)"/><rect x="121.15" y="737.86" width="18.35" height="1.5" rx="1" fill="#4d5d52" opacity="0.03" transform="rotate(169.81 121.15 737.86)"/><rect x="1016.94" y="395.95" width="6.08" height="2.27" rx="1" fill="#4d5d52" opacity="0.05" transform="rotate(167.05 1016.94 395.95)"/><rect x="1279.69" y="110.8" width="18.28" height="1.12" rx="1" fill="#d68a84" opacity="0.06" transform="rotate(30.01 1279.69 110.8)"/><rect x="541.25" y="40" width="9.45" height="2.17" rx="1" fill="#d68a84" opacity="0.03" transform="rotate(63.34 541.25 40)"/><rect x="791.77" y="227.27" width="13.97" height="2.56" rx="1" fill="#d68a84" opacity="0.06" transform="rotate(78.24 791.77 227.27)"/><rect x="279.17" y="677.55" width="13.98" height="1.72" rx="1" fill="#4d5d52" opacity="0.06" transform="rotate(85.62 279.17 677.55)"/>
  <circle cx="1350" cy="178" r="184" fill="#d68a84" opacity="0.06"/>
  <circle cx="220" cy="894" r="220" fill="#bac6b5" opacity="0.08"/>
  <g transform="rotate(-4 464 531.12)">
    <ellipse cx="498" cy="905.3" rx="205.64" ry="12.74" fill="#1f211d" opacity="0.14"/>
    <polygon points="270,320 348,287.24 658,287.24 580,320" fill="#efc8c6" opacity="0.96"/>
    <polygon points="580,320 658,287.24 658,742.24 580,775" fill="#bac6b5" opacity="0.62"/>
    <rect x="270" y="320" width="310" height="455" rx="8" fill="#fff8f4"/>
    <rect x="313.4" y="392.8" width="49.6" height="5" rx="3" fill="#d68a84"/>
    <text x="313.4" y="511.1" class="brand" fill="#4d5d52" font-size="40.3">AURORA</text>
    <text x="316.5" y="543.1" class="micro" fill="#4d5d52" opacity="0.56">DAY SERUM</text>
    <rect x="316.5" y="611.2" width="73.04" height="3" rx="2" fill="#4d5d52" opacity="0.42"/><rect x="316.5" y="633.2" width="109.55" height="2" rx="2" fill="#4d5d52" opacity="0.22"/><rect x="316.5" y="655.2" width="146.07" height="2" rx="2" fill="#4d5d52" opacity="0.22"/><rect x="316.5" y="677.2" width="82.65" height="2" rx="2" fill="#4d5d52" opacity="0.22"/>
  </g><g transform="rotate(5 717 417.56)">
    <ellipse cx="751" cy="738.83" rx="171.72" ry="10.92" fill="#1f211d" opacity="0.14"/>
    <polygon points="555,236 619,209.12 879,209.12 815,236" fill="#fff8f4" opacity="0.96"/>
    <polygon points="815,236 879,209.12 879,599.12 815,626" fill="#bac6b5" opacity="0.62"/>
    <rect x="555" y="236" width="260" height="390" rx="8" fill="#efc8c6"/>
    <rect x="591.4" y="298.4" width="41.6" height="5" rx="3" fill="#d68a84"/>
    <text x="591.4" y="399.8" class="brand" fill="#4d5d52" font-size="33.8">REFILL</text>
    <text x="594" y="431.8" class="micro" fill="#4d5d52" opacity="0.56">MINERAL CREAM</text>
    <rect x="594" y="485.6" width="61.26" height="3" rx="2" fill="#4d5d52" opacity="0.42"/><rect x="594" y="507.6" width="91.88" height="2" rx="2" fill="#4d5d52" opacity="0.22"/><rect x="594" y="529.6" width="122.51" height="2" rx="2" fill="#4d5d52" opacity="0.22"/><rect x="594" y="551.6" width="69.32" height="2" rx="2" fill="#4d5d52" opacity="0.22"/>
  </g><g transform="rotate(-2 955 574.5)">
    <ellipse cx="973" cy="748.04" rx="111.3" ry="4.9" fill="#1f211d" opacity="0.14"/>
    <ellipse cx="955" cy="476" rx="105" ry="24" fill="#fff8f4" opacity="0.82"/>
    <rect x="850" y="476" width="210" height="197" rx="37.8" fill="#f6e7e4" opacity="0.86"/>
    <ellipse cx="955" cy="673" rx="105" ry="24" fill="#efc8c6" opacity="0.52"/>
    <rect x="887.8" y="554.9" width="134.4" height="63.7" rx="8" fill="#fff8f4"/>
    <text x="955" y="584.3" text-anchor="middle" class="brand" fill="#4d5d52" font-size="33.6">AU</text>
    <text x="955" y="601.45" text-anchor="middle" class="micro" fill="#4d5d52" opacity="0.58">CREAM</text>
    <rect x="896.2" y="458" width="117.6" height="38" rx="7" fill="#607264"/>
  </g><g transform="rotate(6 1132.5 473)">
    <ellipse cx="1144.5" cy="766.3" rx="76.85" ry="7.74" fill="#1f211d" opacity="0.13"/>
    <rect x="1115.1" y="258" width="34.8" height="47.3" rx="8" fill="#607264"/>
    <rect x="1103.5" y="301" width="58" height="38.7" rx="8" fill="#d68a84"/>
    <rect x="1060" y="335.4" width="145" height="352.6" rx="33.35" fill="#e9f0e8" opacity="0.88"/>
    <rect x="1086.1" y="447.2" width="92.8" height="120.4" rx="8" fill="#fff8f4"/>
    <text x="1132.5" y="494.5" text-anchor="middle" class="brand" fill="#4d5d52" font-size="18.85">AURORA</text>
    <rect x="1100.6" y="520.3" width="24.24" height="3" rx="2" fill="#4d5d52" opacity="0.42"/><rect x="1100.6" y="542.3" width="36.37" height="2" rx="2" fill="#4d5d52" opacity="0.22"/><rect x="1100.6" y="564.3" width="48.49" height="2" rx="2" fill="#4d5d52" opacity="0.22"/>
  </g><g transform="rotate(-8 1315 530)">
    <ellipse cx="1335" cy="868.4" rx="79.5" ry="9" fill="#1f211d" opacity="0.11"/>
    <rect x="1240" y="280" width="150" height="500" rx="67.5" fill="#fff8f4"/>
    <rect x="1267" y="320" width="96" height="55" rx="10" fill="#efc8c6"/>
    <text x="1315" y="520" text-anchor="middle" class="brand" fill="#4d5d52" font-size="24" transform="rotate(-90 1315 520)">RITUAL</text>
    <rect x="1270" y="732" width="90" height="34" rx="7" fill="#607264"/>
  </g><g transform="rotate(-3 860 815)">
    <ellipse cx="876" cy="928.4" rx="222.6" ry="19" fill="#1f211d" opacity="0.11"/>
    <rect x="650" y="720" width="420" height="190" rx="10" fill="#fff8f4"/>
    <rect x="668" y="738" width="384" height="154" rx="5" fill="none" stroke="#4d5d52" stroke-opacity="0.11"/>
    <rect x="684" y="762" width="92.4" height="4" rx="2" fill="#d68a84" opacity="0.84"/>
    <text x="684" y="784.6" class="brand" fill="#4d5d52" font-size="50.4">AM ROUTINE</text>
    <text x="686" y="818.6" class="micro" fill="#4d5d52" opacity="0.65">PRODUCT CARD</text>
    <rect x="686" y="830.2" width="114.91" height="3" rx="2" fill="#4d5d52" opacity="0.42"/><rect x="686" y="852.2" width="172.37" height="2" rx="2" fill="#4d5d52" opacity="0.22"/><rect x="686" y="874.2" width="229.82" height="2" rx="2" fill="#4d5d52" opacity="0.22"/>
    <circle cx="1004" cy="840" r="35" fill="#d68a84" opacity="0.86"/><text x="1004" y="851" text-anchor="middle" class="micro" fill="#fff8f4" font-size="20">AM</text>
  </g><g transform="rotate(2 480 885)">
      <ellipse cx="280" cy="944.32" rx="44.52" ry="4.2" fill="#1f211d" opacity="0.08"/>
      <rect x="230" y="820" width="86" height="116" rx="8" fill="#fff8f4"/>
      <text x="242" y="916" class="micro" fill="#4d5d52" opacity="0.62">01</text>
    
      <ellipse cx="384" cy="944.32" rx="44.52" ry="4.2" fill="#1f211d" opacity="0.08"/>
      <rect x="334" y="820" width="86" height="116" rx="8" fill="#efc8c6"/>
      <text x="346" y="916" class="micro" fill="#4d5d52" opacity="0.62">02</text>
    
      <ellipse cx="488" cy="944.32" rx="44.52" ry="4.2" fill="#1f211d" opacity="0.08"/>
      <rect x="438" y="820" width="86" height="116" rx="8" fill="#d68a84"/>
      <text x="450" y="916" class="micro" fill="#4d5d52" opacity="0.62">03</text>
    
      <ellipse cx="592" cy="944.32" rx="44.52" ry="4.2" fill="#1f211d" opacity="0.08"/>
      <rect x="542" y="820" width="86" height="116" rx="8" fill="#bac6b5"/>
      <text x="554" y="916" class="micro" fill="#4d5d52" opacity="0.62">04</text>
    
      <ellipse cx="696" cy="944.32" rx="44.52" ry="4.2" fill="#1f211d" opacity="0.08"/>
      <rect x="646" y="820" width="86" height="116" rx="8" fill="#607264"/>
      <text x="658" y="916" class="micro" fill="#fff8f4" opacity="0.62">05</text>
    </g>
  <g opacity="0.72"><text x="78" y="1004" class="micro" fill="#4d5d52">LUXURY SKINCARE PACKAGING</text><text x="78" y="1036" class="micro" fill="#4d5d52" opacity="0.55">TEMPORARY DEMONSTRATION PORTFOLIO VISUAL / HERO</text></g>
</svg>
