<?xml version="1.0" encoding="UTF-8"?>
<svg xmlns="http://www.w3.org/2000/svg" width="1600" height="1100" viewBox="0 0 1600 1100" role="img" aria-labelledby="title desc">
  <title id="title">KINFOLK cover demo portfolio mockup</title>
  <desc id="desc">Temporary fictional demonstration project imagery for portfolio presentation only, not client work.</desc>
  <defs>
    <linearGradient id="bg_kinfolk_concept_cover" x1="0" y1="0" x2="1" y2="1">
      <stop offset="0%" stop-color="#fff7ee"/>
      <stop offset="58%" stop-color="#f2ebe2"/>
      <stop offset="100%" stop-color="#d3bea8"/>
    </linearGradient>
    <radialGradient id="light_kinfolk_concept_cover" cx="74%" cy="18%" r="64%">
      <stop offset="0%" stop-color="#ffffff" stop-opacity="0.62"/>
      <stop offset="100%" stop-color="#ffffff" stop-opacity="0"/>
    </radialGradient>
  </defs>
  <style><![CDATA[
    .brand { font-family: Georgia, Georgia, serif; font-weight: 500; letter-spacing: .02em; }
    .body { font-family: Helvetica, Arial, sans-serif; font-weight: 500; }
    .micro { font-family: Helvetica, Arial, sans-serif; font-size: 20px; font-weight: 700; letter-spacing: .12em; }
  ]]></style>
  <rect width="1600" height="1100" fill="url(#bg_kinfolk_concept_cover)"/>
  <rect width="1600" height="1100" fill="url(#light_kinfolk_concept_cover)"/>
  <rect x="1549.72" y="331.34" width="7.85" height="2.41" rx="1" fill="#30362e" opacity="0.06" transform="rotate(43.95 1549.72 331.34)"/><rect x="507.59" y="28.38" width="23.15" height="2.31" rx="1" fill="#30362e" opacity="0.07" transform="rotate(54.17 507.59 28.38)"/><circle cx="1524.05" cy="218.57" r="1.13" fill="#b88a80" opacity="0.05"/><rect x="80.56" y="795.54" width="23.15" height="2.2" rx="1" fill="#30362e" opacity="0.08" transform="rotate(140.65 80.56 795.54)"/><circle cx="412.22" cy="771.76" r="1.88" fill="#b88a80" opacity="0.07"/><rect x="1446.16" y="957.78" width="9.88" height="2.48" rx="1" fill="#b88a80" opacity="0.06" transform="rotate(24.26 1446.16 957.78)"/><rect x="1392.62" y="1099.87" width="19.94" height="2.11" rx="1" fill="#30362e" opacity="0.03" transform="rotate(41.07 1392.62 1099.87)"/><rect x="1570.8" y="349.44" width="21.38" height="1.81" rx="1" fill="#b88a80" opacity="0.07" transform="rotate(146.2 1570.8 349.44)"/><circle cx="611.24" cy="522.17" r="2" fill="#b88a80" opacity="0.03"/><rect x="758.14" y="915.43" width="12.53" height="1.14" rx="1" fill="#b88a80" opacity="0.06" transform="rotate(5.71 758.14 915.43)"/><rect x="1228.21" y="284.13" width="16.92" height="2.13" rx="1" fill="#30362e" opacity="0.03" transform="rotate(126.28 1228.21 284.13)"/><rect x="1014.62" y="985.08" width="19.44" height="1.13" rx="1" fill="#b88a80" opacity="0.04" transform="rotate(36.52 1014.62 985.08)"/><rect x="1401.29" y="1066.91" width="12.66" height="2.32" rx="1" fill="#30362e" opacity="0.07" transform="rotate(87.37 1401.29 1066.91)"/><rect x="324" y="217.82" width="25.97" height="1" rx="1" fill="#b88a80" opacity="0.06" transform="rotate(48.18 324 217.82)"/><rect x="1045.47" y="795.11" width="9.59" height="1.54" rx="1" fill="#b88a80" opacity="0.05" transform="rotate(117.07 1045.47 795.11)"/><circle cx="60.79" cy="467.4" r="1.84" fill="#30362e" opacity="0.03"/><rect x="952.89" y="39.1" width="14.14" height="1.81" rx="1" fill="#b88a80" opacity="0.05" transform="rotate(108.88 952.89 39.1)"/><rect x="1222.68" y="426.68" width="19.98" height="0.83" rx="1" fill="#b88a80" opacity="0.06" transform="rotate(172.39 1222.68 426.68)"/><circle cx="878.84" cy="525.91" r="1.17" fill="#30362e" opacity="0.07"/><circle cx="31.46" cy="831.82" r="0.9" fill="#b88a80" opacity="0.05"/><circle cx="1079.85" cy="1097.57" r="2.04" fill="#30362e" opacity="0.03"/><circle cx="985.53" cy="1009.35" r="1.37" fill="#b88a80" opacity="0.08"/><rect x="1148.55" y="269.15" width="23.61" height="1.43" rx="1" fill="#b88a80" opacity="0.04" transform="rotate(12.87 1148.55 269.15)"/><circle cx="994.58" cy="806.19" r="2.24" fill="#30362e" opacity="0.06"/><circle cx="1336.71" cy="507.94" r="2.1" fill="#b88a80" opacity="0.07"/><rect x="950.59" y="1003.04" width="7.95" height="1.79" rx="1" fill="#30362e" opacity="0.03" transform="rotate(97.48 950.59 1003.04)"/><rect x="1376.12" y="1060.5" width="21.3" height="2.19" rx="1" fill="#b88a80" opacity="0.05" transform="rotate(140.62 1376.12 1060.5)"/><rect x="475.45" y="384.67" width="15.39" height="2.33" rx="1" fill="#b88a80" opacity="0.04" transform="rotate(66.74 475.45 384.67)"/><circle cx="1269.34" cy="1.57" r="1.71" fill="#b88a80" opacity="0.08"/><circle cx="1157.78" cy="206.99" r="2.03" fill="#b88a80" opacity="0.05"/><rect x="435.51" y="623.31" width="16.55" height="1.54" rx="1" fill="#30362e" opacity="0.03" transform="rotate(170.81 435.51 623.31)"/><circle cx="1466.4" cy="300.78" r="2.19" fill="#30362e" opacity="0.04"/><rect x="1263.35" y="912.66" width="20.79" height="0.89" rx="1" fill="#30362e" opacity="0.04" transform="rotate(33.73 1263.35 912.66)"/><rect x="1183.81" y="430.17" width="24.43" height="1.06" rx="1" fill="#b88a80" opacity="0.07" transform="rotate(35.09 1183.81 430.17)"/><circle cx="656.07" cy="1081.16" r="0.86" fill="#30362e" opacity="0.03"/><rect x="264.05" y="724.89" width="23.26" height="2.39" rx="1" fill="#b88a80" opacity="0.08" transform="rotate(20.32 264.05 724.89)"/><circle cx="1142.92" cy="803.34" r="2.12" fill="#b88a80" opacity="0.03"/><rect x="178.11" y="986.43" width="12.97" height="1.19" rx="1" fill="#b88a80" opacity="0.07" transform="rotate(154.23 178.11 986.43)"/><circle cx="1271.85" cy="315.26" r="1.88" fill="#b88a80" opacity="0.06"/><rect x="865.93" y="178.5" width="18.69" height="1.35" rx="1" fill="#30362e" opacity="0.03" transform="rotate(86.13 865.93 178.5)"/><rect x="392.89" y="948.72" width="6.85" height="1.16" rx="1" fill="#30362e" opacity="0.03" transform="rotate(4.81 392.89 948.72)"/><circle cx="266.08" cy="1049.57" r="0.76" fill="#b88a80" opacity="0.07"/><rect x="277.6" y="459.5" width="25.19" height="2.08" rx="1" fill="#30362e" opacity="0.03" transform="rotate(167.03 277.6 459.5)"/><rect x="501.91" y="126.09" width="11.87" height="2.4" rx="1" fill="#b88a80" opacity="0.04" transform="rotate(75.92 501.91 126.09)"/><rect x="835.62" y="590.35" width="9.36" height="1.03" rx="1" fill="#30362e" opacity="0.03" transform="rotate(81.7 835.62 590.35)"/><rect x="902.7" y="545.3" width="6.02" height="1.21" rx="1" fill="#b88a80" opacity="0.03" transform="rotate(171.82 902.7 545.3)"/><rect x="148.72" y="504.16" width="22.91" height="1.75" rx="1" fill="#30362e" opacity="0.07" transform="rotate(179.77 148.72 504.16)"/><circle cx="1573.04" cy="692.34" r="1.41" fill="#b88a80" opacity="0.07"/><circle cx="1434.81" cy="560.13" r="1.98" fill="#30362e" opacity="0.06"/><rect x="512.22" y="1066.4" width="26.47" height="1.59" rx="1" fill="#30362e" opacity="0.05" transform="rotate(167.25 512.22 1066.4)"/><rect x="568.84" y="1046.45" width="15.03" height="2.37" rx="1" fill="#b88a80" opacity="0.05" transform="rotate(94.86 568.84 1046.45)"/><rect x="217.37" y="872.24" width="8.31" height="2.57" rx="1" fill="#b88a80" opacity="0.08" transform="rotate(83.14 217.37 872.24)"/><circle cx="1565.84" cy="393.72" r="0.76" fill="#30362e" opacity="0.07"/><circle cx="412.01" cy="695.64" r="1.26" fill="#b88a80" opacity="0.06"/><circle cx="185.69" cy="602.72" r="1.09" fill="#30362e" opacity="0.05"/><rect x="1469.5" y="250.25" width="12.52" height="1.18" rx="1" fill="#b88a80" opacity="0.05" transform="rotate(100.79 1469.5 250.25)"/><circle cx="781.73" cy="219.62" r="1.79" fill="#b88a80" opacity="0.06"/><rect x="1430.7" y="72.36" width="8.52" height="0.92" rx="1" fill="#30362e" opacity="0.03" transform="rotate(66.69 1430.7 72.36)"/><circle cx="1039.17" cy="651.65" r="1.07" fill="#30362e" opacity="0.03"/><circle cx="1009.56" cy="75.35" r="1.38" fill="#30362e" opacity="0.05"/><rect x="1179.33" y="1009.43" width="16.87" height="1.72" rx="1" fill="#b88a80" opacity="0.05" transform="rotate(151.65 1179.33 1009.43)"/><circle cx="958.9" cy="907.79" r="1.15" fill="#30362e" opacity="0.08"/><rect x="1161.7" y="845.99" width="22.96" height="1.67" rx="1" fill="#30362e" opacity="0.04" transform="rotate(20.37 1161.7 845.99)"/><rect x="632.73" y="368.96" width="6.8" height="2.29" rx="1" fill="#30362e" opacity="0.04" transform="rotate(173.66 632.73 368.96)"/><circle cx="326.02" cy="882.94" r="2.18" fill="#b88a80" opacity="0.07"/><rect x="590.13" y="535.1" width="26.89" height="2.58" rx="1" fill="#b88a80" opacity="0.07" transform="rotate(141.89 590.13 535.1)"/><circle cx="1257.81" cy="654.75" r="1.27" fill="#b88a80" opacity="0.08"/><circle cx="1081.33" cy="394.94" r="1.46" fill="#b88a80" opacity="0.08"/><circle cx="402.17" cy="1013.03" r="1.45" fill="#b88a80" opacity="0.04"/><circle cx="432.22" cy="600.91" r="1.64" fill="#b88a80" opacity="0.06"/><rect x="860.95" y="446.5" width="6.63" height="1.49" rx="1" fill="#30362e" opacity="0.03" transform="rotate(28.7 860.95 446.5)"/><circle cx="1596.46" cy="113.54" r="1.93" fill="#30362e" opacity="0.08"/><circle cx="1083.32" cy="666.21" r="1.63" fill="#30362e" opacity="0.04"/><circle cx="485.94" cy="906.51" r="1.84" fill="#b88a80" opacity="0.06"/><rect x="1453.51" y="979.29" width="11.53" height="0.94" rx="1" fill="#b88a80" opacity="0.03" transform="rotate(17.44 1453.51 979.29)"/><rect x="1545.47" y="758.04" width="24.98" height="2.47" rx="1" fill="#b88a80" opacity="0.06" transform="rotate(44.64 1545.47 758.04)"/><rect x="1080.26" y="560.57" width="18.68" height="1.62" rx="1" fill="#30362e" opacity="0.05" transform="rotate(11.53 1080.26 560.57)"/><rect x="14.92" y="595.03" width="9.3" height="1.11" rx="1" fill="#30362e" opacity="0.08" transform="rotate(12.2 14.92 595.03)"/><circle cx="1047.43" cy="1009.69" r="1.73" fill="#b88a80" opacity="0.04"/><rect x="909.43" y="773.11" width="23.1" height="2.08" rx="1" fill="#b88a80" opacity="0.04" transform="rotate(86.46 909.43 773.11)"/><circle cx="1043.75" cy="698.82" r="2.27" fill="#30362e" opacity="0.06"/><rect x="579.8" y="532.32" width="14.55" height="1.81" rx="1" fill="#30362e" opacity="0.06" transform="rotate(52.93 579.8 532.32)"/><rect x="1478.19" y="588.96" width="9.85" height="0.92" rx="1" fill="#30362e" opacity="0.07" transform="rotate(8.14 1478.19 588.96)"/><circle cx="350.28" cy="555.03" r="1.49" fill="#b88a80" opacity="0.05"/><rect x="401.79" y="57.88" width="18.48" height="1.31" rx="1" fill="#b88a80" opacity="0.03" transform="rotate(8.29 401.79 57.88)"/><rect x="1464.08" y="814.92" width="8.51" height="1.56" rx="1" fill="#30362e" opacity="0.06" transform="rotate(54.17 1464.08 814.92)"/><rect x="1531.77" y="480.22" width="7.45" height="1.05" rx="1" fill="#b88a80" opacity="0.08" transform="rotate(92.14 1531.77 480.22)"/><circle cx="511.44" cy="580.46" r="1.33" fill="#30362e" opacity="0.07"/><rect x="1559.29" y="152.2" width="22" height="1.4" rx="1" fill="#30362e" opacity="0.05" transform="rotate(11.91 1559.29 152.2)"/><rect x="1310.41" y="717.08" width="7.42" height="2.16" rx="1" fill="#b88a80" opacity="0.07" transform="rotate(86.58 1310.41 717.08)"/><circle cx="1335.38" cy="830.35" r="1.92" fill="#30362e" opacity="0.06"/><rect x="128.51" y="60.31" width="15.52" height="1.02" rx="1" fill="#30362e" opacity="0.08" transform="rotate(38.08 128.51 60.31)"/><circle cx="783.22" cy="37.3" r="0.92" fill="#30362e" opacity="0.03"/><circle cx="931.03" cy="566.54" r="1.02" fill="#30362e" opacity="0.05"/><circle cx="712.6" cy="1029.91" r="1.49" fill="#b88a80" opacity="0.03"/><rect x="943.02" y="165.78" width="9.95" height="1.71" rx="1" fill="#b88a80" opacity="0.06" transform="rotate(62.25 943.02 165.78)"/><rect x="1374.72" y="601.23" width="16.21" height="1.92" rx="1" fill="#30362e" opacity="0.04" transform="rotate(32.16 1374.72 601.23)"/><rect x="1031.45" y="896.17" width="9.91" height="2.34" rx="1" fill="#b88a80" opacity="0.04" transform="rotate(66.94 1031.45 896.17)"/><rect x="1387.69" y="997.72" width="16.14" height="1.08" rx="1" fill="#b88a80" opacity="0.05" transform="rotate(136.35 1387.69 997.72)"/><rect x="804.6" y="198.82" width="17.26" height="1.74" rx="1" fill="#30362e" opacity="0.05" transform="rotate(98.58 804.6 198.82)"/><rect x="700.31" y="667.77" width="22.37" height="1.5" rx="1" fill="#b88a80" opacity="0.03" transform="rotate(1.85 700.31 667.77)"/><circle cx="153.05" cy="561.89" r="1.53" fill="#30362e" opacity="0.05"/><rect x="1404.93" y="607.79" width="9.51" height="1.78" rx="1" fill="#30362e" opacity="0.06" transform="rotate(21.49 1404.93 607.79)"/><rect x="933.29" y="81.22" width="12.14" height="2.34" rx="1" fill="#b88a80" opacity="0.03" transform="rotate(27.8 933.29 81.22)"/><rect x="534.12" y="680.58" width="7.42" height="2.09" rx="1" fill="#30362e" opacity="0.04" transform="rotate(126.45 534.12 680.58)"/><circle cx="923.42" cy="124.85" r="1.39" fill="#b88a80" opacity="0.07"/><rect x="1391.66" y="92.8" width="9.31" height="2.26" rx="1" fill="#b88a80" opacity="0.05" transform="rotate(22.37 1391.66 92.8)"/><rect x="242.32" y="208.13" width="18.89" height="1.69" rx="1" fill="#30362e" opacity="0.08" transform="rotate(74.6 242.32 208.13)"/><circle cx="691.25" cy="11.11" r="2.18" fill="#b88a80" opacity="0.08"/><rect x="1454.66" y="849.55" width="8.9" height="2.51" rx="1" fill="#30362e" opacity="0.06" transform="rotate(31.04 1454.66 849.55)"/><rect x="1423.24" y="391.65" width="23.23" height="2.42" rx="1" fill="#30362e" opacity="0.06" transform="rotate(35.76 1423.24 391.65)"/><circle cx="455.58" cy="418.08" r="2.28" fill="#b88a80" opacity="0.06"/><rect x="1006.72" y="504.57" width="16.94" height="1.13" rx="1" fill="#30362e" opacity="0.05" transform="rotate(12.22 1006.72 504.57)"/><rect x="645.49" y="278.54" width="11.27" height="2.3" rx="1" fill="#b88a80" opacity="0.07" transform="rotate(158.05 645.49 278.54)"/><rect x="625.69" y="520.93" width="16.46" height="2.04" rx="1" fill="#30362e" opacity="0.03" transform="rotate(116.42 625.69 520.93)"/><circle cx="316.9" cy="595.52" r="2.21" fill="#b88a80" opacity="0.04"/><rect x="727.5" y="669.09" width="7.19" height="0.89" rx="1" fill="#b88a80" opacity="0.07" transform="rotate(2.37 727.5 669.09)"/><circle cx="1083.51" cy="529.39" r="1.98" fill="#b88a80" opacity="0.05"/><circle cx="861.02" cy="921.91" r="0.77" fill="#30362e" opacity="0.07"/><circle cx="314.8" cy="312.86" r="0.92" fill="#30362e" opacity="0.06"/><circle cx="1464.56" cy="182.96" r="1.86" fill="#b88a80" opacity="0.06"/><rect x="46.61" y="220.29" width="11.55" height="1.01" rx="1" fill="#30362e" opacity="0.05" transform="rotate(177.38 46.61 220.29)"/><rect x="132.82" y="238.52" width="14.59" height="0.89" rx="1" fill="#b88a80" opacity="0.08" transform="rotate(128.66 132.82 238.52)"/><rect x="121.15" y="516.45" width="23.2" height="1.25" rx="1" fill="#b88a80" opacity="0.07" transform="rotate(169.58 121.15 516.45)"/><rect x="163.27" y="30.67" width="15.11" height="1.93" rx="1" fill="#30362e" opacity="0.04" transform="rotate(35.02 163.27 30.67)"/><rect x="1531.44" y="684.43" width="17.28" height="1.53" rx="1" fill="#b88a80" opacity="0.05" transform="rotate(27.02 1531.44 684.43)"/><rect x="395.16" y="190.06" width="21.04" height="1.84" rx="1" fill="#b88a80" opacity="0.06" transform="rotate(89.89 395.16 190.06)"/><rect x="1003.9" y="568.33" width="13.53" height="2.56" rx="1" fill="#30362e" opacity="0.06" transform="rotate(108.21 1003.9 568.33)"/><rect x="1242.39" y="742.8" width="15.82" height="2.14" rx="1" fill="#b88a80" opacity="0.07" transform="rotate(141.04 1242.39 742.8)"/><circle cx="1155.07" cy="678.86" r="2.02" fill="#b88a80" opacity="0.06"/><rect x="1307.54" y="766.2" width="17.84" height="2.1" rx="1" fill="#b88a80" opacity="0.08" transform="rotate(89.56 1307.54 766.2)"/><circle cx="1168.07" cy="341.66" r="2.12" fill="#b88a80" opacity="0.07"/><rect x="155.57" y="89.49" width="27.21" height="2.53" rx="1" fill="#b88a80" opacity="0.03" transform="rotate(13.98 155.57 89.49)"/><rect x="1127.8" y="180.99" width="12.81" height="1.09" rx="1" fill="#b88a80" opacity="0.04" transform="rotate(159.34 1127.8 180.99)"/><circle cx="112.32" cy="627.31" r="2.01" fill="#b88a80" opacity="0.07"/><rect x="1062.72" y="359.56" width="16.73" height="1.4" rx="1" fill="#b88a80" opacity="0.04" transform="rotate(99.89 1062.72 359.56)"/><rect x="1008.39" y="888.89" width="14.48" height="1.96" rx="1" fill="#30362e" opacity="0.04" transform="rotate(72.29 1008.39 888.89)"/><circle cx="592.1" cy="737.67" r="1.09" fill="#30362e" opacity="0.03"/><rect x="657.19" y="126.66" width="23.09" height="2.44" rx="1" fill="#b88a80" opacity="0.08" transform="rotate(30.66 657.19 126.66)"/><rect x="578.7" y="645.28" width="6.69" height="1.22" rx="1" fill="#b88a80" opacity="0.07" transform="rotate(138.23 578.7 645.28)"/>
  <circle cx="1350" cy="178" r="184" fill="#b88a80" opacity="0.06"/>
  <circle cx="220" cy="894" r="220" fill="#6d7b62" opacity="0.08"/>
  <g transform="rotate(-7 530 510)">
    <ellipse cx="548" cy="810" rx="212" ry="60" fill="#1f211d" opacity="0.13"/>
    <rect x="330" y="210" width="400" height="600" rx="5" fill="#414a3a"/>
    <text x="362" y="330" class="brand" fill="#fff7ee" font-size="52">RITUALS</text>
    <rect x="362" y="396" width="336" height="192" fill="#b88a80" opacity="0.85"/>
    <rect x="362" y="642" width="103.36" height="3" rx="2" fill="#fff7ee" opacity="0.42"/><rect x="362" y="664" width="155.04" height="2" rx="2" fill="#fff7ee" opacity="0.22"/><rect x="362" y="686" width="206.72" height="2" rx="2" fill="#fff7ee" opacity="0.22"/><rect x="362" y="708" width="116.96" height="2" rx="2" fill="#fff7ee" opacity="0.22"/>
  </g><g transform="rotate(5 930 485)">
    <ellipse cx="946" cy="635.2" rx="222.6" ry="27" fill="#1f211d" opacity="0.11"/>
    <rect x="720" y="350" width="420" height="270" rx="10" fill="#fff7ee"/>
    <rect x="738" y="368" width="384" height="234" rx="5" fill="none" stroke="#30362e" stroke-opacity="0.11"/>
    <rect x="754" y="392" width="92.4" height="4" rx="2" fill="#b88a80" opacity="0.84"/>
    <text x="754" y="441.8" class="brand" fill="#30362e" font-size="50.4">INVITE</text>
    <text x="756" y="475.8" class="micro" fill="#30362e" opacity="0.65">CAMPAIGN</text>
    <rect x="756" y="506.6" width="114.91" height="3" rx="2" fill="#30362e" opacity="0.42"/><rect x="756" y="528.6" width="172.37" height="2" rx="2" fill="#30362e" opacity="0.22"/><rect x="756" y="550.6" width="229.82" height="2" rx="2" fill="#30362e" opacity="0.22"/><rect x="756" y="572.6" width="130.03" height="2" rx="2" fill="#30362e" opacity="0.22"/>
    <circle cx="1074" cy="550" r="35" fill="#b88a80" opacity="0.86"/><text x="1074" y="561" text-anchor="middle" class="micro" fill="#fff7ee" font-size="20">IN</text>
  </g><g transform="rotate(-4 1110 735)">
    <ellipse cx="1126" cy="860.8" rx="180.2" ry="23" fill="#1f211d" opacity="0.1"/>
    <rect x="940" y="620" width="340" height="230" rx="7" fill="#d3bea8"/>
    <text x="990" y="684" class="micro" fill="#30362e" opacity="0.25">KC</text><text x="1051.2" y="684" class="micro" fill="#30362e" opacity="0.25">KC</text><text x="1112.4" y="684" class="micro" fill="#30362e" opacity="0.25">KC</text><text x="1173.6" y="684" class="micro" fill="#30362e" opacity="0.25">KC</text><text x="1234.8" y="684" class="micro" fill="#30362e" opacity="0.25">KC</text><text x="990" y="734.6" class="micro" fill="#30362e" opacity="0.25">KC</text><text x="1051.2" y="734.6" class="micro" fill="#30362e" opacity="0.25">KC</text><text x="1112.4" y="734.6" class="micro" fill="#30362e" opacity="0.25">KC</text><text x="1173.6" y="734.6" class="micro" fill="#30362e" opacity="0.25">KC</text><text x="1234.8" y="734.6" class="micro" fill="#30362e" opacity="0.25">KC</text><text x="990" y="785.2" class="micro" fill="#30362e" opacity="0.25">KC</text><text x="1051.2" y="785.2" class="micro" fill="#30362e" opacity="0.25">KC</text><text x="1112.4" y="785.2" class="micro" fill="#30362e" opacity="0.25">KC</text><text x="1173.6" y="785.2" class="micro" fill="#30362e" opacity="0.25">KC</text><text x="1234.8" y="785.2" class="micro" fill="#30362e" opacity="0.25">KC</text><text x="990" y="835.8" class="micro" fill="#30362e" opacity="0.25">KC</text><text x="1051.2" y="835.8" class="micro" fill="#30362e" opacity="0.25">KC</text><text x="1112.4" y="835.8" class="micro" fill="#30362e" opacity="0.25">KC</text><text x="1173.6" y="835.8" class="micro" fill="#30362e" opacity="0.25">KC</text><text x="1234.8" y="835.8" class="micro" fill="#30362e" opacity="0.25">KC</text>
  </g>
  <g opacity="0.72"><text x="78" y="1004" class="micro" fill="#30362e">LIFESTYLE CAMPAIGN CONCEPT</text><text x="78" y="1036" class="micro" fill="#30362e" opacity="0.55">TEMPORARY DEMONSTRATION PORTFOLIO VISUAL / COVER</text></g>
</svg>
