<?xml version="1.0" encoding="UTF-8"?>
<svg xmlns="http://www.w3.org/2000/svg" width="1600" height="1100" viewBox="0 0 1600 1100" role="img" aria-labelledby="title desc">
  <title id="title">KINFOLK gallery-4 demo portfolio mockup</title>
  <desc id="desc">Temporary fictional demonstration project imagery for portfolio presentation only, not client work.</desc>
  <defs>
    <linearGradient id="bg_kinfolk_concept_gallery_4" x1="0" y1="0" x2="1" y2="1">
      <stop offset="0%" stop-color="#fff7ee"/>
      <stop offset="58%" stop-color="#f2ebe2"/>
      <stop offset="100%" stop-color="#d3bea8"/>
    </linearGradient>
    <radialGradient id="light_kinfolk_concept_gallery_4" cx="74%" cy="18%" r="64%">
      <stop offset="0%" stop-color="#ffffff" stop-opacity="0.62"/>
      <stop offset="100%" stop-color="#ffffff" stop-opacity="0"/>
    </radialGradient>
  </defs>
  <style><![CDATA[
    .brand { font-family: Georgia, Georgia, serif; font-weight: 500; letter-spacing: .02em; }
    .body { font-family: Helvetica, Arial, sans-serif; font-weight: 500; }
    .micro { font-family: Helvetica, Arial, sans-serif; font-size: 20px; font-weight: 700; letter-spacing: .12em; }
  ]]></style>
  <rect width="1600" height="1100" fill="url(#bg_kinfolk_concept_gallery_4)"/>
  <rect width="1600" height="1100" fill="url(#light_kinfolk_concept_gallery_4)"/>
  <circle cx="876.79" cy="751.07" r="1.77" fill="#b88a80" opacity="0.06"/><circle cx="452.78" cy="389.68" r="1.08" fill="#b88a80" opacity="0.06"/><rect x="127.08" y="692.29" width="16.08" height="2.2" rx="1" fill="#b88a80" opacity="0.04" transform="rotate(163 127.08 692.29)"/><rect x="698.48" y="929.18" width="21.85" height="1.14" rx="1" fill="#30362e" opacity="0.06" transform="rotate(147.62 698.48 929.18)"/><rect x="1345.15" y="59.55" width="16.2" height="1.95" rx="1" fill="#b88a80" opacity="0.04" transform="rotate(150.65 1345.15 59.55)"/><rect x="1351.14" y="954.36" width="6.47" height="1.46" rx="1" fill="#30362e" opacity="0.05" transform="rotate(114.7 1351.14 954.36)"/><rect x="1245.82" y="85.97" width="13.24" height="1.98" rx="1" fill="#b88a80" opacity="0.06" transform="rotate(154.78 1245.82 85.97)"/><circle cx="503.03" cy="749.77" r="2" fill="#b88a80" opacity="0.03"/><rect x="422.86" y="711.72" width="16.44" height="1.29" rx="1" fill="#30362e" opacity="0.04" transform="rotate(50.61 422.86 711.72)"/><rect x="651.36" y="40.14" width="16.47" height="2.24" rx="1" fill="#b88a80" opacity="0.07" transform="rotate(178.68 651.36 40.14)"/><circle cx="510.66" cy="493.6" r="1.02" fill="#30362e" opacity="0.05"/><rect x="928.77" y="435.26" width="10.68" height="1.65" rx="1" fill="#b88a80" opacity="0.03" transform="rotate(40.83 928.77 435.26)"/><rect x="257.03" y="930.46" width="20.03" height="2.03" rx="1" fill="#30362e" opacity="0.06" transform="rotate(119.51 257.03 930.46)"/><circle cx="496.07" cy="474.21" r="0.8" fill="#30362e" opacity="0.05"/><rect x="1050.84" y="582.07" width="11.61" height="1.44" rx="1" fill="#30362e" opacity="0.07" transform="rotate(52.5 1050.84 582.07)"/><rect x="181.67" y="615.14" width="24.65" height="1.57" rx="1" fill="#30362e" opacity="0.07" transform="rotate(145.19 181.67 615.14)"/><rect x="1345.81" y="259.81" width="16.4" height="2.47" rx="1" fill="#b88a80" opacity="0.07" transform="rotate(138.7 1345.81 259.81)"/><circle cx="436.46" cy="1085.21" r="2.2" fill="#b88a80" opacity="0.07"/><circle cx="1447.32" cy="137.77" r="2.28" fill="#b88a80" opacity="0.05"/><rect x="1407.37" y="491.33" width="14.98" height="1.46" rx="1" fill="#30362e" opacity="0.05" transform="rotate(167.06 1407.37 491.33)"/><rect x="1024.87" y="372.65" width="20.73" height="1.05" rx="1" fill="#b88a80" opacity="0.06" transform="rotate(144.11 1024.87 372.65)"/><rect x="135.13" y="840.92" width="16.2" height="1.16" rx="1" fill="#30362e" opacity="0.06" transform="rotate(108.72 135.13 840.92)"/><circle cx="884.21" cy="33.92" r="1.97" fill="#30362e" opacity="0.04"/><rect x="1304.49" y="569.2" width="11.82" height="1.46" rx="1" fill="#b88a80" opacity="0.03" transform="rotate(17.42 1304.49 569.2)"/><rect x="165.52" y="109.19" width="14.35" height="1.6" rx="1" fill="#30362e" opacity="0.04" transform="rotate(159.77 165.52 109.19)"/><rect x="1379.25" y="1.42" width="17.61" height="2.38" rx="1" fill="#30362e" opacity="0.07" transform="rotate(105.75 1379.25 1.42)"/><rect x="16.45" y="1037.85" width="24.65" height="2.13" rx="1" fill="#b88a80" opacity="0.03" transform="rotate(122.41 16.45 1037.85)"/><circle cx="1457.37" cy="1088.77" r="1.43" fill="#b88a80" opacity="0.03"/><rect x="999.86" y="712.71" width="17.73" height="2.54" rx="1" fill="#b88a80" opacity="0.07" transform="rotate(99.67 999.86 712.71)"/><circle cx="281.79" cy="595.88" r="1.59" fill="#30362e" opacity="0.04"/><circle cx="1509.13" cy="835.11" r="1.71" fill="#b88a80" opacity="0.04"/><rect x="866.24" y="768.24" width="23.92" height="1.8" rx="1" fill="#b88a80" opacity="0.05" transform="rotate(113.18 866.24 768.24)"/><circle cx="332.11" cy="838.23" r="1.21" fill="#b88a80" opacity="0.08"/><rect x="340.78" y="817.36" width="9.18" height="1.23" rx="1" fill="#30362e" opacity="0.05" transform="rotate(50.32 340.78 817.36)"/><circle cx="827.04" cy="731.51" r="1.53" fill="#30362e" opacity="0.03"/><rect x="38.17" y="374.08" width="15.91" height="1.8" rx="1" fill="#30362e" opacity="0.07" transform="rotate(2.92 38.17 374.08)"/><circle cx="1130.17" cy="199.59" r="2.11" fill="#b88a80" opacity="0.07"/><rect x="378.18" y="417.34" width="22.85" height="1.53" rx="1" fill="#b88a80" opacity="0.05" transform="rotate(19.19 378.18 417.34)"/><circle cx="982.04" cy="483.43" r="0.71" fill="#b88a80" opacity="0.06"/><rect x="9.78" y="968.45" width="25.38" height="2.19" rx="1" fill="#b88a80" opacity="0.04" transform="rotate(131.52 9.78 968.45)"/><rect x="1273.81" y="414.08" width="7.44" height="0.95" rx="1" fill="#30362e" opacity="0.04" transform="rotate(71.25 1273.81 414.08)"/><rect x="499.37" y="966.01" width="18.14" height="1.9" rx="1" fill="#30362e" opacity="0.06" transform="rotate(83.58 499.37 966.01)"/><rect x="710.11" y="546.32" width="20.37" height="1.81" rx="1" fill="#30362e" opacity="0.04" transform="rotate(152.42 710.11 546.32)"/><rect x="1552.12" y="35.41" width="14.6" height="2.3" rx="1" fill="#b88a80" opacity="0.07" transform="rotate(117.59 1552.12 35.41)"/><rect x="829.88" y="78.29" width="10.17" height="2" rx="1" fill="#b88a80" opacity="0.06" transform="rotate(179.64 829.88 78.29)"/><rect x="266.09" y="478.93" width="8.22" height="2.16" rx="1" fill="#b88a80" opacity="0.06" transform="rotate(15.93 266.09 478.93)"/><rect x="519.29" y="913.56" width="21.2" height="1.8" rx="1" fill="#b88a80" opacity="0.08" transform="rotate(12.44 519.29 913.56)"/><circle cx="699.52" cy="434.73" r="1.29" fill="#30362e" opacity="0.04"/><rect x="1586.75" y="561.67" width="13.95" height="2.29" rx="1" fill="#b88a80" opacity="0.06" transform="rotate(137.87 1586.75 561.67)"/><rect x="1050.04" y="321.43" width="15.74" height="1.46" rx="1" fill="#30362e" opacity="0.06" transform="rotate(4.52 1050.04 321.43)"/><circle cx="1166.01" cy="1027.43" r="1.1" fill="#30362e" opacity="0.06"/><rect x="77.99" y="896.8" width="26.67" height="1.08" rx="1" fill="#b88a80" opacity="0.08" transform="rotate(6.27 77.99 896.8)"/><rect x="1106.64" y="450.14" width="23.74" height="1.58" rx="1" fill="#30362e" opacity="0.08" transform="rotate(4.18 1106.64 450.14)"/><rect x="1269.05" y="33.96" width="14.45" height="2.48" rx="1" fill="#b88a80" opacity="0.05" transform="rotate(47.44 1269.05 33.96)"/><rect x="1030.82" y="564.37" width="15.74" height="2.17" rx="1" fill="#b88a80" opacity="0.03" transform="rotate(46.04 1030.82 564.37)"/><rect x="847.72" y="150.3" width="18.78" height="1.39" rx="1" fill="#b88a80" opacity="0.03" transform="rotate(112.54 847.72 150.3)"/><circle cx="679.68" cy="147.74" r="1.36" fill="#b88a80" opacity="0.07"/><rect x="651.12" y="577.83" width="25.36" height="1.19" rx="1" fill="#b88a80" opacity="0.03" transform="rotate(34.42 651.12 577.83)"/><circle cx="1070.58" cy="636.98" r="1.4" fill="#30362e" opacity="0.06"/><rect x="426.51" y="150.36" width="6.14" height="2.29" rx="1" fill="#b88a80" opacity="0.05" transform="rotate(66.1 426.51 150.36)"/><circle cx="710.56" cy="195.97" r="1.94" fill="#30362e" opacity="0.03"/><circle cx="1133.27" cy="86.01" r="1.12" fill="#b88a80" opacity="0.06"/><rect x="107.34" y="423.41" width="9.24" height="1.78" rx="1" fill="#b88a80" opacity="0.03" transform="rotate(43.82 107.34 423.41)"/><circle cx="617.75" cy="685.85" r="0.72" fill="#30362e" opacity="0.05"/><rect x="1288.56" y="672.06" width="27.93" height="1.4" rx="1" fill="#30362e" opacity="0.06" transform="rotate(44.46 1288.56 672.06)"/><rect x="75.72" y="981.95" width="8.27" height="2.57" rx="1" fill="#b88a80" opacity="0.05" transform="rotate(45.55 75.72 981.95)"/><circle cx="762.65" cy="871.21" r="1.72" fill="#b88a80" opacity="0.05"/><rect x="470.8" y="1020.34" width="23.67" height="1.23" rx="1" fill="#30362e" opacity="0.05" transform="rotate(6.14 470.8 1020.34)"/><rect x="1515.42" y="292.12" width="23.08" height="1.12" rx="1" fill="#b88a80" opacity="0.03" transform="rotate(74.02 1515.42 292.12)"/><circle cx="1456.87" cy="45.45" r="1.29" fill="#b88a80" opacity="0.06"/><circle cx="195.89" cy="726.63" r="1.71" fill="#b88a80" opacity="0.06"/><rect x="493.26" y="310.28" width="22.21" height="2.41" rx="1" fill="#30362e" opacity="0.05" transform="rotate(107.33 493.26 310.28)"/><rect x="1016.75" y="840.71" width="13.49" height="0.91" rx="1" fill="#b88a80" opacity="0.06" transform="rotate(134.02 1016.75 840.71)"/><rect x="992.21" y="990.02" width="18.45" height="2.46" rx="1" fill="#b88a80" opacity="0.06" transform="rotate(50.79 992.21 990.02)"/><circle cx="577.77" cy="824.48" r="0.83" fill="#30362e" opacity="0.08"/><rect x="90.14" y="480.86" width="7.59" height="1.55" rx="1" fill="#b88a80" opacity="0.03" transform="rotate(171.97 90.14 480.86)"/><circle cx="493.57" cy="223.76" r="1.36" fill="#b88a80" opacity="0.04"/><rect x="89.88" y="12.89" width="12.74" height="1.06" rx="1" fill="#30362e" opacity="0.08" transform="rotate(6.09 89.88 12.89)"/><rect x="453.95" y="147.23" width="19.72" height="2.07" rx="1" fill="#30362e" opacity="0.05" transform="rotate(13.71 453.95 147.23)"/><rect x="499.29" y="92.11" width="9.69" height="2.17" rx="1" fill="#30362e" opacity="0.03" transform="rotate(178.88 499.29 92.11)"/><rect x="453.7" y="767.76" width="16.1" height="1.32" rx="1" fill="#30362e" opacity="0.05" transform="rotate(84.57 453.7 767.76)"/><rect x="351.73" y="789.34" width="14.1" height="2.12" rx="1" fill="#b88a80" opacity="0.06" transform="rotate(81.97 351.73 789.34)"/><circle cx="1433.08" cy="494.47" r="2.19" fill="#30362e" opacity="0.04"/><circle cx="441.49" cy="689.13" r="1.78" fill="#30362e" opacity="0.06"/><circle cx="536.46" cy="1077.17" r="1.32" fill="#b88a80" opacity="0.07"/><rect x="1345.59" y="900.63" width="10.34" height="1.82" rx="1" fill="#b88a80" opacity="0.07" transform="rotate(80.65 1345.59 900.63)"/><circle cx="556.82" cy="151.39" r="1.43" fill="#b88a80" opacity="0.06"/><rect x="898.19" y="68.97" width="7.74" height="0.93" rx="1" fill="#30362e" opacity="0.07" transform="rotate(136.46 898.19 68.97)"/><rect x="620.43" y="666.15" width="14.56" height="0.99" rx="1" fill="#30362e" opacity="0.04" transform="rotate(167.57 620.43 666.15)"/><rect x="1177.58" y="88.34" width="21.26" height="1.4" rx="1" fill="#b88a80" opacity="0.04" transform="rotate(139.52 1177.58 88.34)"/><circle cx="1190.93" cy="838.72" r="2.17" fill="#b88a80" opacity="0.03"/><rect x="819.07" y="844.92" width="27.84" height="1.38" rx="1" fill="#30362e" opacity="0.03" transform="rotate(39.42 819.07 844.92)"/><rect x="1513.89" y="935.05" width="15.71" height="2.42" rx="1" fill="#30362e" opacity="0.08" transform="rotate(107.49 1513.89 935.05)"/><rect x="1035.53" y="715.88" width="20.15" height="1.09" rx="1" fill="#30362e" opacity="0.08" transform="rotate(171.94 1035.53 715.88)"/><rect x="464.39" y="896.98" width="26.09" height="1.47" rx="1" fill="#b88a80" opacity="0.06" transform="rotate(133.59 464.39 896.98)"/><rect x="17.21" y="477.4" width="13.96" height="1.24" rx="1" fill="#b88a80" opacity="0.04" transform="rotate(10.14 17.21 477.4)"/><circle cx="1118.21" cy="977.16" r="2.28" fill="#30362e" opacity="0.06"/><rect x="5.75" y="452.54" width="16.99" height="2.06" rx="1" fill="#b88a80" opacity="0.06" transform="rotate(126.99 5.75 452.54)"/><rect x="104.98" y="276.5" width="7.27" height="1.84" rx="1" fill="#30362e" opacity="0.03" transform="rotate(78.71 104.98 276.5)"/><rect x="405.17" y="850.48" width="7.14" height="1.3" rx="1" fill="#30362e" opacity="0.07" transform="rotate(120.96 405.17 850.48)"/><rect x="1419.25" y="1022.41" width="11.65" height="2.11" rx="1" fill="#30362e" opacity="0.07" transform="rotate(62.98 1419.25 1022.41)"/><circle cx="1348.42" cy="8.41" r="0.89" fill="#b88a80" opacity="0.06"/><circle cx="1533.75" cy="469.21" r="1.35" fill="#b88a80" opacity="0.07"/><circle cx="969.19" cy="788.81" r="0.91" fill="#30362e" opacity="0.05"/><circle cx="341.33" cy="522.37" r="1.72" fill="#b88a80" opacity="0.05"/><circle cx="799.74" cy="837.5" r="1.63" fill="#b88a80" opacity="0.04"/><circle cx="415.34" cy="938.6" r="0.95" fill="#30362e" opacity="0.05"/><circle cx="1291.93" cy="139.66" r="2.25" fill="#30362e" opacity="0.03"/><rect x="1576.32" y="962.51" width="6.75" height="0.84" rx="1" fill="#b88a80" opacity="0.05" transform="rotate(70.56 1576.32 962.51)"/><rect x="71.58" y="939.69" width="18.76" height="1.19" rx="1" fill="#30362e" opacity="0.05" transform="rotate(157.75 71.58 939.69)"/><circle cx="1134.15" cy="295.09" r="1.21" fill="#b88a80" opacity="0.04"/><rect x="782.4" y="570.51" width="22.98" height="2.19" rx="1" fill="#b88a80" opacity="0.08" transform="rotate(85.15 782.4 570.51)"/><circle cx="1521.84" cy="77.83" r="1.07" fill="#b88a80" opacity="0.07"/><circle cx="1531.17" cy="254.17" r="2.16" fill="#b88a80" opacity="0.07"/><circle cx="818.41" cy="90.13" r="2.02" fill="#30362e" opacity="0.06"/><rect x="560.87" y="148.95" width="15.64" height="2.46" rx="1" fill="#30362e" opacity="0.07" transform="rotate(148.4 560.87 148.95)"/><rect x="243.08" y="307.34" width="17.61" height="1.77" rx="1" fill="#b88a80" opacity="0.07" transform="rotate(115.78 243.08 307.34)"/><rect x="691.65" y="425.16" width="11.79" height="1.85" rx="1" fill="#30362e" opacity="0.04" transform="rotate(20.05 691.65 425.16)"/><rect x="1511.41" y="500.23" width="8.1" height="1.38" rx="1" fill="#b88a80" opacity="0.08" transform="rotate(31.09 1511.41 500.23)"/><rect x="1143.08" y="356.15" width="25.21" height="1.33" rx="1" fill="#b88a80" opacity="0.08" transform="rotate(68.29 1143.08 356.15)"/><rect x="9.21" y="977.08" width="9.05" height="1.39" rx="1" fill="#30362e" opacity="0.06" transform="rotate(173.08 9.21 977.08)"/><circle cx="718.49" cy="116.31" r="1.1" fill="#b88a80" opacity="0.06"/><rect x="1376.22" y="608.59" width="26.41" height="1.79" rx="1" fill="#b88a80" opacity="0.07" transform="rotate(22.26 1376.22 608.59)"/><rect x="256.56" y="705.62" width="10.79" height="1.66" rx="1" fill="#b88a80" opacity="0.05" transform="rotate(152.01 256.56 705.62)"/><rect x="1203.41" y="268.35" width="22.12" height="1.85" rx="1" fill="#30362e" opacity="0.04" transform="rotate(17.31 1203.41 268.35)"/><rect x="541.67" y="53.7" width="27.65" height="1.6" rx="1" fill="#b88a80" opacity="0.03" transform="rotate(72 541.67 53.7)"/><circle cx="412.66" cy="979.83" r="1.89" fill="#30362e" opacity="0.05"/><circle cx="570.47" cy="789.76" r="1.04" fill="#b88a80" opacity="0.06"/><rect x="1372.24" y="1076.61" width="15.46" height="1.22" rx="1" fill="#30362e" opacity="0.08" transform="rotate(55.21 1372.24 1076.61)"/><rect x="243.95" y="670.51" width="18.97" height="1.31" rx="1" fill="#b88a80" opacity="0.05" transform="rotate(3.64 243.95 670.51)"/><rect x="469.35" y="395.24" width="16.43" height="0.94" rx="1" fill="#b88a80" opacity="0.07" transform="rotate(29.15 469.35 395.24)"/><rect x="750.32" y="962.8" width="24.69" height="1.88" rx="1" fill="#b88a80" opacity="0.05" transform="rotate(67.97 750.32 962.8)"/><rect x="303.6" y="252.84" width="7.66" height="2.02" rx="1" fill="#b88a80" opacity="0.04" transform="rotate(169.09 303.6 252.84)"/><rect x="549.06" y="768.1" width="15.23" height="1.05" rx="1" fill="#30362e" opacity="0.04" transform="rotate(108.9 549.06 768.1)"/><circle cx="184.18" cy="251.54" r="0.9" fill="#30362e" opacity="0.03"/><rect x="1325.84" y="1012.04" width="12.22" height="1.46" rx="1" fill="#b88a80" opacity="0.06" transform="rotate(7.86 1325.84 1012.04)"/><circle cx="1549.6" cy="352.84" r="2.12" fill="#b88a80" opacity="0.04"/><rect x="917.69" y="925" width="20.89" height="0.97" rx="1" fill="#b88a80" opacity="0.05" transform="rotate(111.07 917.69 925)"/><rect x="1599.38" y="348.27" width="19.78" height="1.33" rx="1" fill="#b88a80" opacity="0.06" transform="rotate(7.59 1599.38 348.27)"/><circle cx="379.72" cy="408.03" r="0.83" fill="#30362e" opacity="0.08"/>
  <circle cx="1350" cy="178" r="184" fill="#b88a80" opacity="0.06"/>
  <circle cx="220" cy="894" r="220" fill="#6d7b62" opacity="0.08"/>
  <g transform="rotate(-7 580 500)">
    <ellipse cx="596" cy="713.2" rx="318" ry="42" fill="#1f211d" opacity="0.1"/>
    <rect x="280" y="290" width="600" height="420" rx="7" fill="#d3bea8"/>
    <text x="330" y="354" class="micro" fill="#30362e" opacity="0.25">KC</text><text x="438" y="354" class="micro" fill="#30362e" opacity="0.25">KC</text><text x="546" y="354" class="micro" fill="#30362e" opacity="0.25">KC</text><text x="654" y="354" class="micro" fill="#30362e" opacity="0.25">KC</text><text x="762" y="354" class="micro" fill="#30362e" opacity="0.25">KC</text><text x="330" y="446.4" class="micro" fill="#30362e" opacity="0.25">KC</text><text x="438" y="446.4" class="micro" fill="#30362e" opacity="0.25">KC</text><text x="546" y="446.4" class="micro" fill="#30362e" opacity="0.25">KC</text><text x="654" y="446.4" class="micro" fill="#30362e" opacity="0.25">KC</text><text x="762" y="446.4" class="micro" fill="#30362e" opacity="0.25">KC</text><text x="330" y="538.8" class="micro" fill="#30362e" opacity="0.25">KC</text><text x="438" y="538.8" class="micro" fill="#30362e" opacity="0.25">KC</text><text x="546" y="538.8" class="micro" fill="#30362e" opacity="0.25">KC</text><text x="654" y="538.8" class="micro" fill="#30362e" opacity="0.25">KC</text><text x="762" y="538.8" class="micro" fill="#30362e" opacity="0.25">KC</text><text x="330" y="631.2" class="micro" fill="#30362e" opacity="0.25">KC</text><text x="438" y="631.2" class="micro" fill="#30362e" opacity="0.25">KC</text><text x="546" y="631.2" class="micro" fill="#30362e" opacity="0.25">KC</text><text x="654" y="631.2" class="micro" fill="#30362e" opacity="0.25">KC</text><text x="762" y="631.2" class="micro" fill="#30362e" opacity="0.25">KC</text>
  </g><g transform="rotate(5 1050 457.3)">
    <ellipse cx="1084" cy="710.64" rx="212" ry="8.4" fill="#1f211d" opacity="0.14"/>
    <polygon points="850,322 920,292.6 1250,292.6 1180,322" fill="#d3bea8" opacity="0.96"/>
    <polygon points="1180,322 1250,292.6 1250,592.6 1180,622" fill="#6d7b62" opacity="0.62"/>
    <rect x="850" y="322" width="330" height="300" rx="8" fill="#fff7ee"/>
    <rect x="896.2" y="370" width="52.8" height="5" rx="3" fill="#b88a80"/>
    <text x="896.2" y="448" class="brand" fill="#30362e" font-size="42.9">SLEEVE</text>
    <text x="899.5" y="480" class="micro" fill="#30362e" opacity="0.56">CAMPAIGN KIT</text>
    <rect x="899.5" y="514" width="77.75" height="3" rx="2" fill="#30362e" opacity="0.42"/><rect x="899.5" y="536" width="116.62" height="2" rx="2" fill="#30362e" opacity="0.22"/><rect x="899.5" y="558" width="155.5" height="2" rx="2" fill="#30362e" opacity="0.22"/><rect x="899.5" y="580" width="87.98" height="2" rx="2" fill="#30362e" opacity="0.22"/>
  </g><g transform="rotate(-8 1160 740)">
    <ellipse cx="1176" cy="848.8" rx="137.8" ry="18" fill="#1f211d" opacity="0.11"/>
    <rect x="1030" y="650" width="260" height="180" rx="10" fill="#fff7ee"/>
    <rect x="1048" y="668" width="224" height="144" rx="5" fill="none" stroke="#30362e" stroke-opacity="0.11"/>
    <rect x="1064" y="692" width="57.2" height="4" rx="2" fill="#b88a80" opacity="0.84"/>
    <text x="1064" y="711.2" class="brand" fill="#30362e" font-size="31.2">INSERT</text>
    <text x="1066" y="745.2" class="micro" fill="#30362e" opacity="0.65">NOTES</text>
    <rect x="1066" y="754.4" width="71.14" height="3" rx="2" fill="#30362e" opacity="0.42"/><rect x="1066" y="776.4" width="106.7" height="2" rx="2" fill="#30362e" opacity="0.22"/><rect x="1066" y="798.4" width="142.27" height="2" rx="2" fill="#30362e" opacity="0.22"/>
    
  </g>
  <g opacity="0.72"><text x="78" y="1004" class="micro" fill="#30362e">LIFESTYLE CAMPAIGN CONCEPT</text><text x="78" y="1036" class="micro" fill="#30362e" opacity="0.55">TEMPORARY DEMONSTRATION PORTFOLIO VISUAL / GALLERY-4</text></g>
</svg>
