<?xml version="1.0" encoding="UTF-8"?>
<svg xmlns="http://www.w3.org/2000/svg" width="1600" height="1100" viewBox="0 0 1600 1100" role="img" aria-labelledby="title desc">
  <title id="title">KINFOLK gallery-3 demo portfolio mockup</title>
  <desc id="desc">Temporary fictional demonstration project imagery for portfolio presentation only, not client work.</desc>
  <defs>
    <linearGradient id="bg_kinfolk_concept_gallery_3" x1="0" y1="0" x2="1" y2="1">
      <stop offset="0%" stop-color="#fff7ee"/>
      <stop offset="58%" stop-color="#f2ebe2"/>
      <stop offset="100%" stop-color="#d3bea8"/>
    </linearGradient>
    <radialGradient id="light_kinfolk_concept_gallery_3" cx="74%" cy="18%" r="64%">
      <stop offset="0%" stop-color="#ffffff" stop-opacity="0.62"/>
      <stop offset="100%" stop-color="#ffffff" stop-opacity="0"/>
    </radialGradient>
  </defs>
  <style><![CDATA[
    .brand { font-family: Georgia, Georgia, serif; font-weight: 500; letter-spacing: .02em; }
    .body { font-family: Helvetica, Arial, sans-serif; font-weight: 500; }
    .micro { font-family: Helvetica, Arial, sans-serif; font-size: 20px; font-weight: 700; letter-spacing: .12em; }
  ]]></style>
  <rect width="1600" height="1100" fill="url(#bg_kinfolk_concept_gallery_3)"/>
  <rect width="1600" height="1100" fill="url(#light_kinfolk_concept_gallery_3)"/>
  <rect x="466.79" y="829.06" width="9.92" height="2.52" rx="1" fill="#30362e" opacity="0.03" transform="rotate(109.76 466.79 829.06)"/><rect x="557.52" y="845.98" width="8.03" height="2.44" rx="1" fill="#b88a80" opacity="0.03" transform="rotate(42.33 557.52 845.98)"/><rect x="464.17" y="921.99" width="9.57" height="2.33" rx="1" fill="#b88a80" opacity="0.05" transform="rotate(12.7 464.17 921.99)"/><rect x="318.4" y="943.4" width="24.03" height="1.2" rx="1" fill="#b88a80" opacity="0.08" transform="rotate(165.14 318.4 943.4)"/><rect x="1192.47" y="939.09" width="6.03" height="1.95" rx="1" fill="#b88a80" opacity="0.04" transform="rotate(173.08 1192.47 939.09)"/><rect x="1348.81" y="381.86" width="20.59" height="2.37" rx="1" fill="#30362e" opacity="0.06" transform="rotate(66.92 1348.81 381.86)"/><rect x="478.15" y="227.08" width="17.44" height="1.65" rx="1" fill="#30362e" opacity="0.03" transform="rotate(36.82 478.15 227.08)"/><rect x="1220.18" y="196.37" width="21.87" height="2.21" rx="1" fill="#b88a80" opacity="0.08" transform="rotate(123.16 1220.18 196.37)"/><rect x="1481.24" y="182.45" width="13.5" height="1.15" rx="1" fill="#b88a80" opacity="0.08" transform="rotate(147.58 1481.24 182.45)"/><rect x="1589.19" y="448.4" width="23.15" height="1.7" rx="1" fill="#30362e" opacity="0.03" transform="rotate(111.23 1589.19 448.4)"/><rect x="573.23" y="576.48" width="16.64" height="1.26" rx="1" fill="#b88a80" opacity="0.03" transform="rotate(57.67 573.23 576.48)"/><rect x="1500.2" y="1036.9" width="23.65" height="1.46" rx="1" fill="#30362e" opacity="0.06" transform="rotate(80.81 1500.2 1036.9)"/><rect x="578.01" y="233.92" width="16.07" height="1.84" rx="1" fill="#30362e" opacity="0.06" transform="rotate(69.62 578.01 233.92)"/><rect x="917.81" y="902.92" width="12.72" height="2.43" rx="1" fill="#b88a80" opacity="0.03" transform="rotate(24.5 917.81 902.92)"/><rect x="788.61" y="243.13" width="19.06" height="1.19" rx="1" fill="#b88a80" opacity="0.05" transform="rotate(161.56 788.61 243.13)"/><rect x="1170.87" y="4.99" width="23.69" height="1.01" rx="1" fill="#30362e" opacity="0.03" transform="rotate(114.57 1170.87 4.99)"/><rect x="1334.72" y="879.76" width="18.6" height="1.02" rx="1" fill="#b88a80" opacity="0.07" transform="rotate(36.42 1334.72 879.76)"/><rect x="1573.19" y="755.6" width="13.37" height="0.84" rx="1" fill="#b88a80" opacity="0.04" transform="rotate(55.2 1573.19 755.6)"/><rect x="1016.43" y="709.62" width="18.22" height="0.97" rx="1" fill="#b88a80" opacity="0.05" transform="rotate(165.3 1016.43 709.62)"/><rect x="685.65" y="1095.86" width="9.5" height="2.5" rx="1" fill="#b88a80" opacity="0.04" transform="rotate(45.45 685.65 1095.86)"/><circle cx="318.63" cy="593.45" r="2.2" fill="#30362e" opacity="0.05"/><rect x="594" y="402.2" width="21.57" height="1.11" rx="1" fill="#b88a80" opacity="0.03" transform="rotate(15.21 594 402.2)"/><rect x="1126.41" y="379.17" width="11.73" height="1.44" rx="1" fill="#b88a80" opacity="0.06" transform="rotate(131.53 1126.41 379.17)"/><rect x="190.87" y="8.57" width="7.16" height="1.85" rx="1" fill="#b88a80" opacity="0.05" transform="rotate(93.09 190.87 8.57)"/><circle cx="1074.1" cy="1046.49" r="2.01" fill="#30362e" opacity="0.03"/><circle cx="1104.59" cy="934.65" r="1.34" fill="#30362e" opacity="0.07"/><rect x="1285.77" y="505.31" width="17.73" height="2.44" rx="1" fill="#b88a80" opacity="0.03" transform="rotate(47.66 1285.77 505.31)"/><rect x="517.92" y="270.37" width="15.04" height="1.88" rx="1" fill="#b88a80" opacity="0.05" transform="rotate(82.17 517.92 270.37)"/><rect x="1378.06" y="1026.84" width="24.03" height="2.57" rx="1" fill="#b88a80" opacity="0.07" transform="rotate(108.24 1378.06 1026.84)"/><rect x="902.79" y="444.64" width="6.84" height="1.97" rx="1" fill="#b88a80" opacity="0.07" transform="rotate(176.19 902.79 444.64)"/><rect x="822.86" y="451.69" width="19.89" height="1.3" rx="1" fill="#b88a80" opacity="0.06" transform="rotate(1.94 822.86 451.69)"/><rect x="1541.66" y="240.41" width="14.45" height="1.77" rx="1" fill="#30362e" opacity="0.03" transform="rotate(119.24 1541.66 240.41)"/><rect x="538.73" y="679.03" width="14.95" height="1.62" rx="1" fill="#30362e" opacity="0.08" transform="rotate(86.57 538.73 679.03)"/><circle cx="1499.95" cy="140.95" r="1.25" fill="#b88a80" opacity="0.04"/><rect x="1467.89" y="161.69" width="16.04" height="1.51" rx="1" fill="#30362e" opacity="0.06" transform="rotate(101.37 1467.89 161.69)"/><rect x="741.37" y="19.27" width="25.07" height="0.85" rx="1" fill="#30362e" opacity="0.05" transform="rotate(54.1 741.37 19.27)"/><circle cx="1527.91" cy="516.15" r="1.56" fill="#b88a80" opacity="0.06"/><rect x="34" y="960.35" width="20.06" height="1.57" rx="1" fill="#b88a80" opacity="0.04" transform="rotate(28.21 34 960.35)"/><rect x="784.31" y="874.84" width="18.78" height="2.43" rx="1" fill="#b88a80" opacity="0.05" transform="rotate(67 784.31 874.84)"/><circle cx="1305.84" cy="623.37" r="1.86" fill="#b88a80" opacity="0.07"/><circle cx="642.55" cy="581.15" r="2.27" fill="#b88a80" opacity="0.03"/><circle cx="1327.96" cy="595.1" r="1.54" fill="#b88a80" opacity="0.03"/><rect x="1288.93" y="797.54" width="20.77" height="1.58" rx="1" fill="#b88a80" opacity="0.03" transform="rotate(132.92 1288.93 797.54)"/><rect x="707.31" y="237.05" width="24.38" height="2.57" rx="1" fill="#b88a80" opacity="0.04" transform="rotate(129.51 707.31 237.05)"/><circle cx="282.61" cy="962.32" r="1.14" fill="#b88a80" opacity="0.03"/><rect x="838.92" y="622.56" width="6.71" height="1.26" rx="1" fill="#b88a80" opacity="0.05" transform="rotate(92.75 838.92 622.56)"/><circle cx="834.44" cy="507.74" r="2.17" fill="#30362e" opacity="0.07"/><rect x="446.33" y="574.07" width="9.54" height="1.39" rx="1" fill="#30362e" opacity="0.07" transform="rotate(56.04 446.33 574.07)"/><rect x="1262.92" y="650.54" width="21.43" height="2.15" rx="1" fill="#b88a80" opacity="0.04" transform="rotate(122.71 1262.92 650.54)"/><rect x="724.73" y="58.67" width="21.85" height="0.92" rx="1" fill="#b88a80" opacity="0.03" transform="rotate(165.99 724.73 58.67)"/><rect x="978.88" y="1078.7" width="19.11" height="1.87" rx="1" fill="#b88a80" opacity="0.05" transform="rotate(67.81 978.88 1078.7)"/><circle cx="963.04" cy="923.12" r="2.01" fill="#30362e" opacity="0.06"/><rect x="895.96" y="89.16" width="20.25" height="2.48" rx="1" fill="#30362e" opacity="0.07" transform="rotate(75.37 895.96 89.16)"/><circle cx="137.47" cy="527.06" r="1.33" fill="#b88a80" opacity="0.04"/><rect x="49.44" y="498.09" width="24.28" height="2.55" rx="1" fill="#b88a80" opacity="0.03" transform="rotate(52.6 49.44 498.09)"/><rect x="1088.5" y="235.26" width="19.55" height="2.33" rx="1" fill="#b88a80" opacity="0.06" transform="rotate(167.67 1088.5 235.26)"/><circle cx="980.83" cy="262.73" r="0.71" fill="#b88a80" opacity="0.05"/><rect x="727.66" y="771.55" width="19.05" height="2.31" rx="1" fill="#30362e" opacity="0.03" transform="rotate(128.8 727.66 771.55)"/><rect x="1397.84" y="551.11" width="9.73" height="1.84" rx="1" fill="#b88a80" opacity="0.05" transform="rotate(125.46 1397.84 551.11)"/><rect x="980.47" y="540.09" width="24.86" height="2.1" rx="1" fill="#b88a80" opacity="0.08" transform="rotate(82.45 980.47 540.09)"/><rect x="503.2" y="16.98" width="8.37" height="2.5" rx="1" fill="#b88a80" opacity="0.03" transform="rotate(161.33 503.2 16.98)"/><rect x="1003.23" y="954.28" width="14.38" height="2.45" rx="1" fill="#30362e" opacity="0.06" transform="rotate(82.73 1003.23 954.28)"/><rect x="693.03" y="719.31" width="9.35" height="1.04" rx="1" fill="#30362e" opacity="0.03" transform="rotate(44.44 693.03 719.31)"/><rect x="427.93" y="372.31" width="7.87" height="1.72" rx="1" fill="#b88a80" opacity="0.07" transform="rotate(33.15 427.93 372.31)"/><rect x="1213.94" y="595.3" width="24.59" height="1.52" rx="1" fill="#30362e" opacity="0.07" transform="rotate(74.5 1213.94 595.3)"/><rect x="151.11" y="667.1" width="13.6" height="2.44" rx="1" fill="#b88a80" opacity="0.04" transform="rotate(65.81 151.11 667.1)"/><circle cx="1078.15" cy="624.6" r="2.23" fill="#b88a80" opacity="0.08"/><rect x="353.79" y="1050.96" width="19.76" height="1.88" rx="1" fill="#b88a80" opacity="0.07" transform="rotate(123.95 353.79 1050.96)"/><circle cx="519.99" cy="871.83" r="1.03" fill="#b88a80" opacity="0.04"/><rect x="363.84" y="430.51" width="7.36" height="1.15" rx="1" fill="#30362e" opacity="0.08" transform="rotate(80.21 363.84 430.51)"/><circle cx="1570.39" cy="43.05" r="1.52" fill="#b88a80" opacity="0.04"/><circle cx="83.32" cy="273.57" r="2.04" fill="#30362e" opacity="0.05"/><circle cx="802.26" cy="688.59" r="1.81" fill="#b88a80" opacity="0.07"/><circle cx="1515.09" cy="507.77" r="1.56" fill="#b88a80" opacity="0.06"/><rect x="273.19" y="1025.05" width="23.34" height="2.22" rx="1" fill="#b88a80" opacity="0.07" transform="rotate(108.25 273.19 1025.05)"/><rect x="1469.65" y="593.5" width="25.09" height="1.9" rx="1" fill="#b88a80" opacity="0.03" transform="rotate(30.07 1469.65 593.5)"/><rect x="946.99" y="63.62" width="19.08" height="2.14" rx="1" fill="#b88a80" opacity="0.03" transform="rotate(61.47 946.99 63.62)"/><rect x="67.67" y="145.11" width="16.69" height="2.55" rx="1" fill="#30362e" opacity="0.06" transform="rotate(112.31 67.67 145.11)"/><rect x="807.94" y="87.84" width="12.58" height="2.53" rx="1" fill="#30362e" opacity="0.07" transform="rotate(131.75 807.94 87.84)"/><rect x="826.34" y="249.92" width="27.29" height="2.54" rx="1" fill="#b88a80" opacity="0.06" transform="rotate(125.47 826.34 249.92)"/><rect x="1455.71" y="829.71" width="7.31" height="1.02" rx="1" fill="#30362e" opacity="0.05" transform="rotate(39.64 1455.71 829.71)"/><circle cx="794.94" cy="628.54" r="0.81" fill="#b88a80" opacity="0.07"/><circle cx="238.65" cy="93.22" r="2.12" fill="#b88a80" opacity="0.05"/><circle cx="717.54" cy="1013.94" r="2.25" fill="#30362e" opacity="0.06"/><rect x="624.01" y="1053.49" width="21.48" height="1.02" rx="1" fill="#30362e" opacity="0.05" transform="rotate(100.39 624.01 1053.49)"/><rect x="763.32" y="431.62" width="18.51" height="2.06" rx="1" fill="#b88a80" opacity="0.05" transform="rotate(77.34 763.32 431.62)"/><circle cx="242.28" cy="584.38" r="1.54" fill="#b88a80" opacity="0.04"/><circle cx="301.42" cy="636.02" r="1.06" fill="#b88a80" opacity="0.04"/><circle cx="463.22" cy="308.01" r="1" fill="#b88a80" opacity="0.06"/><rect x="219.44" y="828.87" width="8.47" height="1.97" rx="1" fill="#b88a80" opacity="0.03" transform="rotate(99.08 219.44 828.87)"/><rect x="990.95" y="579.42" width="12.38" height="1.33" rx="1" fill="#30362e" opacity="0.04" transform="rotate(62.5 990.95 579.42)"/><circle cx="1222.99" cy="245.54" r="0.92" fill="#b88a80" opacity="0.05"/><rect x="1469.76" y="323.38" width="13.29" height="1.34" rx="1" fill="#b88a80" opacity="0.04" transform="rotate(176.83 1469.76 323.38)"/><rect x="121.2" y="525.4" width="13.55" height="2.18" rx="1" fill="#b88a80" opacity="0.04" transform="rotate(90.49 121.2 525.4)"/><circle cx="1434.31" cy="211.81" r="1.63" fill="#b88a80" opacity="0.05"/><rect x="1205.05" y="802.8" width="15.56" height="1.5" rx="1" fill="#b88a80" opacity="0.05" transform="rotate(65.87 1205.05 802.8)"/><rect x="26.48" y="538.31" width="19.89" height="2.04" rx="1" fill="#b88a80" opacity="0.03" transform="rotate(96.02 26.48 538.31)"/><circle cx="881.28" cy="493.06" r="1.34" fill="#b88a80" opacity="0.03"/><rect x="747.26" y="298.61" width="6.73" height="2.15" rx="1" fill="#30362e" opacity="0.03" transform="rotate(26.22 747.26 298.61)"/><rect x="555.36" y="71.71" width="11.34" height="1.88" rx="1" fill="#30362e" opacity="0.04" transform="rotate(24.19 555.36 71.71)"/><rect x="79.15" y="961.7" width="24.31" height="2.39" rx="1" fill="#b88a80" opacity="0.03" transform="rotate(55.54 79.15 961.7)"/><circle cx="459.25" cy="785.04" r="2.18" fill="#b88a80" opacity="0.05"/><rect x="249.43" y="236.22" width="24.79" height="0.8" rx="1" fill="#30362e" opacity="0.06" transform="rotate(36.29 249.43 236.22)"/><circle cx="817.63" cy="11.01" r="1.92" fill="#b88a80" opacity="0.06"/><circle cx="1208.63" cy="247.35" r="1.65" fill="#30362e" opacity="0.07"/><rect x="1356.7" y="414.43" width="12.06" height="1.63" rx="1" fill="#30362e" opacity="0.07" transform="rotate(19.78 1356.7 414.43)"/><circle cx="772.1" cy="173.8" r="1.6" fill="#30362e" opacity="0.03"/><circle cx="1527.08" cy="499.46" r="1.61" fill="#b88a80" opacity="0.06"/><circle cx="152.65" cy="273.86" r="1.27" fill="#30362e" opacity="0.03"/><rect x="1115.48" y="380.66" width="6.61" height="1.67" rx="1" fill="#b88a80" opacity="0.05" transform="rotate(27.9 1115.48 380.66)"/><rect x="657.85" y="671.12" width="8.03" height="2.05" rx="1" fill="#b88a80" opacity="0.06" transform="rotate(145.89 657.85 671.12)"/><rect x="842.85" y="902.4" width="10.05" height="2.23" rx="1" fill="#30362e" opacity="0.04" transform="rotate(76.43 842.85 902.4)"/><circle cx="393.68" cy="119.75" r="1.48" fill="#30362e" opacity="0.03"/><rect x="1572.41" y="729.94" width="9.62" height="2.17" rx="1" fill="#30362e" opacity="0.05" transform="rotate(1.96 1572.41 729.94)"/><rect x="692.5" y="586.95" width="23.74" height="1.77" rx="1" fill="#b88a80" opacity="0.04" transform="rotate(108.31 692.5 586.95)"/><rect x="394.7" y="12.61" width="24.77" height="1.95" rx="1" fill="#b88a80" opacity="0.05" transform="rotate(177.65 394.7 12.61)"/><rect x="86.97" y="280.5" width="21.46" height="2.02" rx="1" fill="#b88a80" opacity="0.05" transform="rotate(14.14 86.97 280.5)"/><rect x="677.48" y="557.27" width="14.2" height="1.11" rx="1" fill="#b88a80" opacity="0.03" transform="rotate(8.6 677.48 557.27)"/><rect x="135.24" y="668.46" width="23.31" height="2.55" rx="1" fill="#30362e" opacity="0.05" transform="rotate(96.99 135.24 668.46)"/><circle cx="552" cy="768.82" r="1.72" fill="#30362e" opacity="0.08"/><rect x="803.64" y="696.96" width="14.2" height="1.95" rx="1" fill="#b88a80" opacity="0.03" transform="rotate(170.39 803.64 696.96)"/><rect x="1178.97" y="888.32" width="14.44" height="1.62" rx="1" fill="#b88a80" opacity="0.07" transform="rotate(37.75 1178.97 888.32)"/><circle cx="223.72" cy="1064.28" r="1.07" fill="#30362e" opacity="0.05"/><rect x="1057.47" y="427.94" width="8.47" height="1.22" rx="1" fill="#30362e" opacity="0.04" transform="rotate(155.83 1057.47 427.94)"/><rect x="1475.74" y="455.41" width="14.31" height="1.57" rx="1" fill="#30362e" opacity="0.07" transform="rotate(57.26 1475.74 455.41)"/><circle cx="481.53" cy="345.31" r="0.72" fill="#b88a80" opacity="0.06"/><rect x="582.12" y="938.92" width="22.83" height="2.31" rx="1" fill="#30362e" opacity="0.07" transform="rotate(136.62 582.12 938.92)"/><rect x="873.7" y="520.79" width="13.13" height="2.36" rx="1" fill="#b88a80" opacity="0.07" transform="rotate(18.8 873.7 520.79)"/><rect x="1140.36" y="658.27" width="6.94" height="1.95" rx="1" fill="#b88a80" opacity="0.03" transform="rotate(156.71 1140.36 658.27)"/><rect x="50.94" y="508.04" width="14.09" height="2.58" rx="1" fill="#b88a80" opacity="0.04" transform="rotate(127.72 50.94 508.04)"/><rect x="79.53" y="190.87" width="20.49" height="1.39" rx="1" fill="#30362e" opacity="0.06" transform="rotate(150.22 79.53 190.87)"/><rect x="802.87" y="299.53" width="13.83" height="1.82" rx="1" fill="#b88a80" opacity="0.03" transform="rotate(12.17 802.87 299.53)"/><rect x="264.38" y="233.27" width="12.19" height="2.08" rx="1" fill="#b88a80" opacity="0.05" transform="rotate(141.06 264.38 233.27)"/><circle cx="1379.12" cy="913.53" r="2.14" fill="#b88a80" opacity="0.03"/><rect x="1047.86" y="942.97" width="27.88" height="1.39" rx="1" fill="#b88a80" opacity="0.05" transform="rotate(140.72 1047.86 942.97)"/><rect x="339.89" y="434.17" width="11.23" height="2.56" rx="1" fill="#30362e" opacity="0.08" transform="rotate(53.54 339.89 434.17)"/><rect x="1220.14" y="1034.12" width="22.99" height="0.8" rx="1" fill="#30362e" opacity="0.07" transform="rotate(1.01 1220.14 1034.12)"/><rect x="623.34" y="860.26" width="19.08" height="1.91" rx="1" fill="#b88a80" opacity="0.07" transform="rotate(132.7 623.34 860.26)"/><rect x="981.47" y="879.86" width="16.44" height="1.96" rx="1" fill="#30362e" opacity="0.06" transform="rotate(110.37 981.47 879.86)"/><rect x="885.2" y="667.98" width="13.92" height="1.68" rx="1" fill="#b88a80" opacity="0.05" transform="rotate(80.64 885.2 667.98)"/>
  <circle cx="1350" cy="178" r="184" fill="#b88a80" opacity="0.06"/>
  <circle cx="220" cy="894" r="220" fill="#6d7b62" opacity="0.08"/>
  <g transform="rotate(-6 457.5 530)">
    <ellipse cx="475.5" cy="850.4" rx="161.65" ry="64" fill="#1f211d" opacity="0.14"/>
    <rect x="305" y="210" width="305" height="640" rx="42.7" fill="#414a3a"/>
    <rect x="323" y="228" width="269" height="604" rx="33.55" fill="#fff7ee"/>
    <text x="344.65" y="312.4" class="micro" fill="#30362e" opacity="0.62">KINFOLK</text>
    <rect x="344.65" y="370" width="67.1" height="67.1" rx="10" fill="#d3bea8" opacity="0.92"/><rect x="421.75" y="370" width="67.1" height="67.1" rx="10" fill="#6d7b62" opacity="0.92"/><rect x="498.85" y="370" width="67.1" height="67.1" rx="10" fill="#b88a80" opacity="0.92"/><rect x="344.65" y="447.1" width="67.1" height="67.1" rx="10" fill="#fff7ee" opacity="0.92"/><rect x="421.75" y="447.1" width="67.1" height="67.1" rx="10" fill="#d3bea8" opacity="0.92"/><rect x="498.85" y="447.1" width="67.1" height="67.1" rx="10" fill="#6d7b62" opacity="0.92"/><rect x="344.65" y="524.2" width="67.1" height="67.1" rx="10" fill="#b88a80" opacity="0.92"/><rect x="421.75" y="524.2" width="67.1" height="67.1" rx="10" fill="#fff7ee" opacity="0.92"/><rect x="498.85" y="524.2" width="67.1" height="67.1" rx="10" fill="#d3bea8" opacity="0.92"/>
  </g><g transform="rotate(4 805 420)">
    <ellipse cx="817" cy="594.4" rx="159" ry="34" fill="#1f211d" opacity="0.09"/>
    <rect x="655" y="250" width="300" height="340" rx="14" fill="#fff7ee"/>
    <rect x="677" y="272" width="256" height="163.2" rx="10" fill="#d3bea8"/>
    <text x="679" y="474.4" class="brand" fill="#30362e" font-size="27">HOME</text>
    <rect x="679" y="501.6" width="77.52" height="3" rx="2" fill="#30362e" opacity="0.42"/><rect x="679" y="523.6" width="116.28" height="2" rx="2" fill="#30362e" opacity="0.22"/><rect x="679" y="545.6" width="155.04" height="2" rx="2" fill="#30362e" opacity="0.22"/>
  </g><g transform="rotate(-5 1110 655)">
    <ellipse cx="1122" cy="829.4" rx="159" ry="34" fill="#1f211d" opacity="0.09"/>
    <rect x="960" y="485" width="300" height="340" rx="14" fill="#fff7ee"/>
    <rect x="982" y="507" width="256" height="163.2" rx="10" fill="#6d7b62"/>
    <text x="984" y="709.4" class="brand" fill="#30362e" font-size="27">DINNER</text>
    <rect x="984" y="736.6" width="77.52" height="3" rx="2" fill="#30362e" opacity="0.42"/><rect x="984" y="758.6" width="116.28" height="2" rx="2" fill="#30362e" opacity="0.22"/><rect x="984" y="780.6" width="155.04" height="2" rx="2" fill="#30362e" opacity="0.22"/>
  </g>
  <g opacity="0.72"><text x="78" y="1004" class="micro" fill="#30362e">LIFESTYLE CAMPAIGN CONCEPT</text><text x="78" y="1036" class="micro" fill="#30362e" opacity="0.55">TEMPORARY DEMONSTRATION PORTFOLIO VISUAL / GALLERY-3</text></g>
</svg>
