<?xml version="1.0" encoding="UTF-8"?>
<svg xmlns="http://www.w3.org/2000/svg" width="1600" height="1100" viewBox="0 0 1600 1100" role="img" aria-labelledby="title desc">
  <title id="title">KINFOLK gallery-1 demo portfolio mockup</title>
  <desc id="desc">Temporary fictional demonstration project imagery for portfolio presentation only, not client work.</desc>
  <defs>
    <linearGradient id="bg_kinfolk_concept_gallery_1" x1="0" y1="0" x2="1" y2="1">
      <stop offset="0%" stop-color="#fff7ee"/>
      <stop offset="58%" stop-color="#f2ebe2"/>
      <stop offset="100%" stop-color="#d3bea8"/>
    </linearGradient>
    <radialGradient id="light_kinfolk_concept_gallery_1" cx="74%" cy="18%" r="64%">
      <stop offset="0%" stop-color="#ffffff" stop-opacity="0.62"/>
      <stop offset="100%" stop-color="#ffffff" stop-opacity="0"/>
    </radialGradient>
  </defs>
  <style><![CDATA[
    .brand { font-family: Georgia, Georgia, serif; font-weight: 500; letter-spacing: .02em; }
    .body { font-family: Helvetica, Arial, sans-serif; font-weight: 500; }
    .micro { font-family: Helvetica, Arial, sans-serif; font-size: 20px; font-weight: 700; letter-spacing: .12em; }
  ]]></style>
  <rect width="1600" height="1100" fill="url(#bg_kinfolk_concept_gallery_1)"/>
  <rect width="1600" height="1100" fill="url(#light_kinfolk_concept_gallery_1)"/>
  <circle cx="385.52" cy="1092.92" r="1.6" fill="#30362e" opacity="0.03"/><rect x="844.06" y="989.7" width="25.01" height="1.02" rx="1" fill="#b88a80" opacity="0.03" transform="rotate(116.86 844.06 989.7)"/><rect x="1024.32" y="376.82" width="6.63" height="1.11" rx="1" fill="#30362e" opacity="0.07" transform="rotate(93.63 1024.32 376.82)"/><circle cx="1221.65" cy="496.69" r="1.12" fill="#b88a80" opacity="0.05"/><rect x="521.57" y="582.42" width="23.01" height="2.09" rx="1" fill="#30362e" opacity="0.03" transform="rotate(31.05 521.57 582.42)"/><rect x="14" y="317.11" width="24.21" height="1.42" rx="1" fill="#b88a80" opacity="0.03" transform="rotate(56.52 14 317.11)"/><circle cx="86.6" cy="74.76" r="2.19" fill="#30362e" opacity="0.06"/><circle cx="1490.57" cy="673.81" r="1.16" fill="#b88a80" opacity="0.08"/><rect x="961.86" y="345.29" width="13.84" height="1.64" rx="1" fill="#30362e" opacity="0.04" transform="rotate(43.55 961.86 345.29)"/><rect x="1528.12" y="844.43" width="25.37" height="0.89" rx="1" fill="#b88a80" opacity="0.06" transform="rotate(91.42 1528.12 844.43)"/><rect x="1020.56" y="824.24" width="8.27" height="2.04" rx="1" fill="#b88a80" opacity="0.07" transform="rotate(94.52 1020.56 824.24)"/><circle cx="316.43" cy="194.96" r="1.74" fill="#b88a80" opacity="0.06"/><rect x="730.39" y="183.94" width="14.66" height="1.72" rx="1" fill="#30362e" opacity="0.03" transform="rotate(59.74 730.39 183.94)"/><circle cx="257.67" cy="418.31" r="0.82" fill="#30362e" opacity="0.03"/><rect x="1319.31" y="431.17" width="10.41" height="2.08" rx="1" fill="#30362e" opacity="0.07" transform="rotate(166.33 1319.31 431.17)"/><circle cx="1222.86" cy="1079.3" r="1.76" fill="#b88a80" opacity="0.03"/><rect x="719.83" y="922.35" width="21.12" height="1.06" rx="1" fill="#b88a80" opacity="0.06" transform="rotate(81.21 719.83 922.35)"/><rect x="232.71" y="578.1" width="18.28" height="2" rx="1" fill="#30362e" opacity="0.06" transform="rotate(91.65 232.71 578.1)"/><rect x="158.32" y="390.8" width="16.89" height="1.03" rx="1" fill="#30362e" opacity="0.07" transform="rotate(162.98 158.32 390.8)"/><circle cx="824.58" cy="950.76" r="2.28" fill="#30362e" opacity="0.03"/><rect x="723.51" y="490.57" width="14.41" height="1.6" rx="1" fill="#b88a80" opacity="0.06" transform="rotate(160.9 723.51 490.57)"/><rect x="394.43" y="658.44" width="10.1" height="2.33" rx="1" fill="#b88a80" opacity="0.07" transform="rotate(46.37 394.43 658.44)"/><rect x="861.99" y="567.08" width="23.2" height="2.19" rx="1" fill="#30362e" opacity="0.05" transform="rotate(124.22 861.99 567.08)"/><circle cx="1491.42" cy="985.06" r="2.24" fill="#b88a80" opacity="0.05"/><circle cx="127.52" cy="13.32" r="1.54" fill="#30362e" opacity="0.03"/><rect x="956.14" y="563.63" width="20.7" height="1.25" rx="1" fill="#b88a80" opacity="0.03" transform="rotate(13.23 956.14 563.63)"/><circle cx="1153.55" cy="477.9" r="2.14" fill="#30362e" opacity="0.05"/><rect x="266.4" y="935.65" width="6.3" height="2.01" rx="1" fill="#30362e" opacity="0.07" transform="rotate(120.9 266.4 935.65)"/><circle cx="1596.02" cy="890.91" r="1.62" fill="#30362e" opacity="0.06"/><rect x="1552.44" y="403.43" width="21.97" height="1.61" rx="1" fill="#b88a80" opacity="0.03" transform="rotate(99.34 1552.44 403.43)"/><circle cx="1434.23" cy="793.01" r="1.53" fill="#b88a80" opacity="0.06"/><circle cx="199.54" cy="148.29" r="1.6" fill="#b88a80" opacity="0.07"/><rect x="697.4" y="1012.08" width="16.27" height="1.08" rx="1" fill="#b88a80" opacity="0.03" transform="rotate(111.9 697.4 1012.08)"/><rect x="908.59" y="906.53" width="27.87" height="1.89" rx="1" fill="#30362e" opacity="0.04" transform="rotate(19.85 908.59 906.53)"/><circle cx="45.45" cy="565.62" r="0.99" fill="#30362e" opacity="0.03"/><rect x="1132.55" y="236.59" width="13.39" height="1.9" rx="1" fill="#30362e" opacity="0.06" transform="rotate(126.29 1132.55 236.59)"/><rect x="1506.88" y="653.51" width="9.63" height="0.83" rx="1" fill="#b88a80" opacity="0.07" transform="rotate(49.37 1506.88 653.51)"/><rect x="259.37" y="460.14" width="18.71" height="1.29" rx="1" fill="#30362e" opacity="0.05" transform="rotate(47.41 259.37 460.14)"/><circle cx="360.96" cy="281.92" r="1.02" fill="#30362e" opacity="0.03"/><rect x="1005.28" y="917.81" width="12.48" height="1.33" rx="1" fill="#b88a80" opacity="0.07" transform="rotate(109.01 1005.28 917.81)"/><circle cx="845.18" cy="526.79" r="2.26" fill="#b88a80" opacity="0.07"/><rect x="1000.75" y="420.06" width="12.81" height="1.25" rx="1" fill="#b88a80" opacity="0.08" transform="rotate(5.62 1000.75 420.06)"/><rect x="223.85" y="442.26" width="17.96" height="1.68" rx="1" fill="#b88a80" opacity="0.04" transform="rotate(156.84 223.85 442.26)"/><circle cx="700.68" cy="5.99" r="2.21" fill="#b88a80" opacity="0.04"/><rect x="799.81" y="238.3" width="20.28" height="2.56" rx="1" fill="#b88a80" opacity="0.05" transform="rotate(49.81 799.81 238.3)"/><rect x="7.42" y="812.12" width="8.95" height="2.39" rx="1" fill="#30362e" opacity="0.08" transform="rotate(7.18 7.42 812.12)"/><rect x="1490.35" y="733.34" width="25.96" height="2.55" rx="1" fill="#b88a80" opacity="0.06" transform="rotate(119.67 1490.35 733.34)"/><rect x="1173.29" y="270.22" width="23.75" height="2.58" rx="1" fill="#b88a80" opacity="0.08" transform="rotate(37.93 1173.29 270.22)"/><rect x="1120.16" y="1011.43" width="22.87" height="1.64" rx="1" fill="#b88a80" opacity="0.06" transform="rotate(142.33 1120.16 1011.43)"/><circle cx="1466.77" cy="220.48" r="1.9" fill="#b88a80" opacity="0.06"/><rect x="736.95" y="252.77" width="27.49" height="1.99" rx="1" fill="#30362e" opacity="0.05" transform="rotate(168.77 736.95 252.77)"/><rect x="670.75" y="568.1" width="7.08" height="2.11" rx="1" fill="#b88a80" opacity="0.07" transform="rotate(47.81 670.75 568.1)"/><rect x="1223.78" y="79.69" width="22.65" height="2.16" rx="1" fill="#b88a80" opacity="0.05" transform="rotate(27.74 1223.78 79.69)"/><rect x="266.61" y="979.13" width="14.43" height="0.97" rx="1" fill="#b88a80" opacity="0.03" transform="rotate(48.97 266.61 979.13)"/><rect x="1081.13" y="129.31" width="20.48" height="1.28" rx="1" fill="#30362e" opacity="0.05" transform="rotate(156.57 1081.13 129.31)"/><rect x="1196.53" y="902.76" width="23.02" height="2.34" rx="1" fill="#b88a80" opacity="0.03" transform="rotate(59.57 1196.53 902.76)"/><circle cx="682.8" cy="289.51" r="1.68" fill="#b88a80" opacity="0.07"/><circle cx="861.74" cy="437.31" r="1.92" fill="#b88a80" opacity="0.05"/><circle cx="1511.71" cy="516.94" r="0.86" fill="#b88a80" opacity="0.08"/><rect x="307.1" y="143.22" width="6.91" height="0.87" rx="1" fill="#b88a80" opacity="0.05" transform="rotate(99.45 307.1 143.22)"/><circle cx="1325.6" cy="605.83" r="1.83" fill="#b88a80" opacity="0.03"/><circle cx="67.71" cy="1091.83" r="1.71" fill="#b88a80" opacity="0.04"/><rect x="242.38" y="648.03" width="6.41" height="1.21" rx="1" fill="#b88a80" opacity="0.05" transform="rotate(45.46 242.38 648.03)"/><rect x="584.01" y="139.43" width="16.42" height="1.23" rx="1" fill="#b88a80" opacity="0.06" transform="rotate(30.16 584.01 139.43)"/><rect x="1456.87" y="296.25" width="23.18" height="2.52" rx="1" fill="#b88a80" opacity="0.05" transform="rotate(8.17 1456.87 296.25)"/><rect x="1127.82" y="249.79" width="25.36" height="2.43" rx="1" fill="#30362e" opacity="0.03" transform="rotate(54.61 1127.82 249.79)"/><rect x="955.82" y="709.35" width="24.04" height="2.49" rx="1" fill="#30362e" opacity="0.08" transform="rotate(26.45 955.82 709.35)"/><rect x="1318.89" y="723.01" width="9.51" height="1.7" rx="1" fill="#b88a80" opacity="0.07" transform="rotate(18.96 1318.89 723.01)"/><circle cx="1103.03" cy="130.47" r="2.13" fill="#30362e" opacity="0.04"/><rect x="437.05" y="235.71" width="12.42" height="0.83" rx="1" fill="#30362e" opacity="0.06" transform="rotate(104.1 437.05 235.71)"/><rect x="1288.65" y="953.33" width="11.58" height="1.24" rx="1" fill="#30362e" opacity="0.04" transform="rotate(148.2 1288.65 953.33)"/><rect x="275.94" y="477.41" width="9.63" height="1.94" rx="1" fill="#30362e" opacity="0.06" transform="rotate(67.06 275.94 477.41)"/><rect x="174.4" y="861.66" width="12.76" height="1.89" rx="1" fill="#b88a80" opacity="0.08" transform="rotate(48.93 174.4 861.66)"/><rect x="1340.92" y="1011.9" width="20.73" height="2.25" rx="1" fill="#b88a80" opacity="0.07" transform="rotate(97.17 1340.92 1011.9)"/><rect x="677.16" y="1074.79" width="7.1" height="1.02" rx="1" fill="#30362e" opacity="0.04" transform="rotate(79 677.16 1074.79)"/><rect x="826.35" y="876.91" width="14.25" height="1.78" rx="1" fill="#b88a80" opacity="0.05" transform="rotate(84.77 826.35 876.91)"/><rect x="1517.83" y="347.3" width="12.01" height="2.22" rx="1" fill="#30362e" opacity="0.03" transform="rotate(86.82 1517.83 347.3)"/><circle cx="449.65" cy="739.23" r="1.17" fill="#b88a80" opacity="0.08"/><rect x="427.38" y="292.46" width="25.54" height="1" rx="1" fill="#b88a80" opacity="0.05" transform="rotate(125.97 427.38 292.46)"/><rect x="341.11" y="919.21" width="9.47" height="2.16" rx="1" fill="#b88a80" opacity="0.07" transform="rotate(16.51 341.11 919.21)"/><rect x="735.35" y="429.04" width="22.45" height="1.71" rx="1" fill="#b88a80" opacity="0.05" transform="rotate(161.4 735.35 429.04)"/><rect x="1550.15" y="722.93" width="6.37" height="1.52" rx="1" fill="#b88a80" opacity="0.03" transform="rotate(118.37 1550.15 722.93)"/><rect x="319.73" y="136.86" width="11.87" height="1.58" rx="1" fill="#30362e" opacity="0.07" transform="rotate(109.05 319.73 136.86)"/><rect x="340.79" y="1055.04" width="24.05" height="1.46" rx="1" fill="#30362e" opacity="0.03" transform="rotate(127.93 340.79 1055.04)"/><rect x="905.14" y="149.11" width="22.01" height="1.77" rx="1" fill="#30362e" opacity="0.03" transform="rotate(76.77 905.14 149.11)"/><rect x="632.69" y="189.02" width="25.04" height="2.09" rx="1" fill="#30362e" opacity="0.04" transform="rotate(36.97 632.69 189.02)"/><rect x="1062.09" y="692.33" width="27.01" height="1" rx="1" fill="#30362e" opacity="0.07" transform="rotate(49.48 1062.09 692.33)"/><rect x="941.46" y="1007.43" width="21.42" height="1.54" rx="1" fill="#b88a80" opacity="0.04" transform="rotate(155.64 941.46 1007.43)"/><circle cx="225.86" cy="560.57" r="2.24" fill="#b88a80" opacity="0.06"/><circle cx="277.29" cy="1047.95" r="2.22" fill="#30362e" opacity="0.03"/><circle cx="883.28" cy="566.37" r="1.36" fill="#30362e" opacity="0.05"/><rect x="577.77" y="649.69" width="12.31" height="1.17" rx="1" fill="#b88a80" opacity="0.07" transform="rotate(70.69 577.77 649.69)"/><circle cx="1460.37" cy="508.94" r="1.83" fill="#b88a80" opacity="0.08"/><rect x="1393.18" y="436.73" width="21.38" height="1.15" rx="1" fill="#b88a80" opacity="0.04" transform="rotate(61.68 1393.18 436.73)"/><rect x="1103.1" y="1003.9" width="23.27" height="1.2" rx="1" fill="#b88a80" opacity="0.07" transform="rotate(138.43 1103.1 1003.9)"/><rect x="1327.63" y="1046.47" width="23.33" height="1.02" rx="1" fill="#b88a80" opacity="0.06" transform="rotate(14.18 1327.63 1046.47)"/><circle cx="1344.67" cy="679.5" r="0.95" fill="#b88a80" opacity="0.08"/><rect x="1103.91" y="965.05" width="9.31" height="2.27" rx="1" fill="#30362e" opacity="0.04" transform="rotate(107.38 1103.91 965.05)"/><rect x="59.07" y="1072.69" width="14.3" height="2.03" rx="1" fill="#b88a80" opacity="0.06" transform="rotate(58.03 59.07 1072.69)"/><circle cx="1526.35" cy="985.33" r="1.5" fill="#30362e" opacity="0.04"/><rect x="1116.63" y="533.26" width="26.37" height="1.94" rx="1" fill="#b88a80" opacity="0.07" transform="rotate(102.71 1116.63 533.26)"/><rect x="1474.97" y="238.57" width="19.53" height="2.25" rx="1" fill="#b88a80" opacity="0.07" transform="rotate(52.92 1474.97 238.57)"/><rect x="1472.95" y="911.18" width="9.74" height="1.55" rx="1" fill="#b88a80" opacity="0.03" transform="rotate(40.34 1472.95 911.18)"/><rect x="1154.01" y="331.82" width="9.29" height="2.11" rx="1" fill="#b88a80" opacity="0.03" transform="rotate(140.58 1154.01 331.82)"/><rect x="491.85" y="304.83" width="17.47" height="1.91" rx="1" fill="#b88a80" opacity="0.04" transform="rotate(23.46 491.85 304.83)"/><rect x="1400.66" y="782.12" width="9.11" height="1.32" rx="1" fill="#30362e" opacity="0.06" transform="rotate(23.28 1400.66 782.12)"/><circle cx="413.71" cy="157.8" r="0.73" fill="#30362e" opacity="0.07"/><rect x="1470.95" y="616.62" width="10.19" height="1.89" rx="1" fill="#b88a80" opacity="0.05" transform="rotate(10.84 1470.95 616.62)"/><rect x="1405.14" y="534.7" width="16.11" height="1.74" rx="1" fill="#30362e" opacity="0.06" transform="rotate(154.92 1405.14 534.7)"/><circle cx="19.85" cy="785.16" r="2.08" fill="#30362e" opacity="0.03"/><circle cx="977.44" cy="184.52" r="1.26" fill="#b88a80" opacity="0.07"/><rect x="272.24" y="705.82" width="13.88" height="1.52" rx="1" fill="#b88a80" opacity="0.06" transform="rotate(179.82 272.24 705.82)"/><rect x="1011.85" y="832.16" width="27.04" height="1.29" rx="1" fill="#30362e" opacity="0.04" transform="rotate(87.98 1011.85 832.16)"/><rect x="1292.98" y="237.31" width="18.08" height="1.86" rx="1" fill="#30362e" opacity="0.07" transform="rotate(40.42 1292.98 237.31)"/><circle cx="166.72" cy="346.59" r="1.52" fill="#30362e" opacity="0.03"/><circle cx="489.44" cy="220.14" r="0.75" fill="#30362e" opacity="0.08"/><rect x="1272.13" y="814.39" width="12.31" height="2.13" rx="1" fill="#30362e" opacity="0.05" transform="rotate(68.76 1272.13 814.39)"/><rect x="86.17" y="573.36" width="27.56" height="1.15" rx="1" fill="#b88a80" opacity="0.06" transform="rotate(136.98 86.17 573.36)"/><circle cx="400.58" cy="246.37" r="1.12" fill="#b88a80" opacity="0.08"/><circle cx="743.65" cy="970.68" r="1.94" fill="#b88a80" opacity="0.04"/><rect x="1528.43" y="534.13" width="19.1" height="2.33" rx="1" fill="#b88a80" opacity="0.03" transform="rotate(118.95 1528.43 534.13)"/><circle cx="169.09" cy="339.91" r="1.41" fill="#30362e" opacity="0.07"/><rect x="667.41" y="248.19" width="26.1" height="1.3" rx="1" fill="#30362e" opacity="0.04" transform="rotate(44.58 667.41 248.19)"/><circle cx="890.77" cy="229.88" r="1.47" fill="#b88a80" opacity="0.03"/><rect x="895.06" y="1011.27" width="24.75" height="2.3" rx="1" fill="#b88a80" opacity="0.06" transform="rotate(134.97 895.06 1011.27)"/><rect x="1083.62" y="220.18" width="12.67" height="1.6" rx="1" fill="#b88a80" opacity="0.04" transform="rotate(113.89 1083.62 220.18)"/><rect x="780.35" y="739.43" width="19.74" height="1.66" rx="1" fill="#b88a80" opacity="0.06" transform="rotate(33.79 780.35 739.43)"/><circle cx="268.95" cy="860.64" r="1.45" fill="#b88a80" opacity="0.05"/><rect x="660.75" y="1050.13" width="22.67" height="1.58" rx="1" fill="#b88a80" opacity="0.06" transform="rotate(62.82 660.75 1050.13)"/><rect x="673.92" y="995.18" width="23.42" height="0.95" rx="1" fill="#30362e" opacity="0.05" transform="rotate(76 673.92 995.18)"/><rect x="325.26" y="36.93" width="22.52" height="1.64" rx="1" fill="#30362e" opacity="0.07" transform="rotate(9.03 325.26 36.93)"/><rect x="20.23" y="92.32" width="17.84" height="2.36" rx="1" fill="#30362e" opacity="0.05" transform="rotate(178.67 20.23 92.32)"/><rect x="1406.11" y="94.28" width="27.54" height="1.34" rx="1" fill="#30362e" opacity="0.07" transform="rotate(155.58 1406.11 94.28)"/><rect x="513.84" y="974.38" width="25.36" height="1.14" rx="1" fill="#30362e" opacity="0.03" transform="rotate(130.3 513.84 974.38)"/><rect x="653.99" y="992.6" width="15.58" height="2.57" rx="1" fill="#b88a80" opacity="0.07" transform="rotate(93.88 653.99 992.6)"/><rect x="276.79" y="397.59" width="19.25" height="2.39" rx="1" fill="#b88a80" opacity="0.03" transform="rotate(166.51 276.79 397.59)"/><rect x="47.6" y="748.49" width="20.79" height="0.96" rx="1" fill="#b88a80" opacity="0.03" transform="rotate(115.03 47.6 748.49)"/><circle cx="671.39" cy="292" r="1.32" fill="#30362e" opacity="0.03"/><rect x="1355.09" y="231.4" width="13.37" height="0.93" rx="1" fill="#b88a80" opacity="0.06" transform="rotate(173.39 1355.09 231.4)"/><rect x="643.8" y="597.14" width="6.17" height="2.22" rx="1" fill="#b88a80" opacity="0.07" transform="rotate(177.56 643.8 597.14)"/>
  <circle cx="1350" cy="178" r="184" fill="#b88a80" opacity="0.06"/>
  <circle cx="220" cy="894" r="220" fill="#6d7b62" opacity="0.08"/>
  <g transform="rotate(-4 515 515)">
    <ellipse cx="533" cy="833.4" rx="227.9" ry="64" fill="#1f211d" opacity="0.13"/>
    <rect x="300" y="195" width="430" height="640" rx="5" fill="#414a3a"/>
    <text x="334.4" y="323" class="brand" fill="#fff7ee" font-size="55.9">GATHER</text>
    <rect x="334.4" y="393.4" width="361.2" height="204.8" fill="#b88a80" opacity="0.85"/>
    <rect x="334.4" y="655.8" width="111.11" height="3" rx="2" fill="#fff7ee" opacity="0.42"/><rect x="334.4" y="677.8" width="166.67" height="2" rx="2" fill="#fff7ee" opacity="0.22"/><rect x="334.4" y="699.8" width="222.22" height="2" rx="2" fill="#fff7ee" opacity="0.22"/><rect x="334.4" y="721.8" width="125.73" height="2" rx="2" fill="#fff7ee" opacity="0.22"/>
  </g><g transform="rotate(5 980 440)">
    <ellipse cx="996" cy="594.8" rx="249.1" ry="28" fill="#1f211d" opacity="0.11"/>
    <rect x="745" y="300" width="470" height="280" rx="10" fill="#fff7ee"/>
    <rect x="763" y="318" width="434" height="244" rx="5" fill="none" stroke="#30362e" stroke-opacity="0.11"/>
    <rect x="779" y="342" width="103.4" height="4" rx="2" fill="#b88a80" opacity="0.84"/>
    <text x="779" y="395.2" class="brand" fill="#30362e" font-size="56.4">DINNER</text>
    <text x="781" y="429.2" class="micro" fill="#30362e" opacity="0.65">INVITATION</text>
    <rect x="781" y="462.4" width="128.59" height="3" rx="2" fill="#30362e" opacity="0.42"/><rect x="781" y="484.4" width="192.89" height="2" rx="2" fill="#30362e" opacity="0.22"/><rect x="781" y="506.4" width="257.18" height="2" rx="2" fill="#30362e" opacity="0.22"/><rect x="781" y="528.4" width="145.51" height="2" rx="2" fill="#30362e" opacity="0.22"/><rect x="781" y="550.4" width="209.81" height="2" rx="2" fill="#30362e" opacity="0.22"/>
    <circle cx="1149" cy="510" r="35" fill="#b88a80" opacity="0.86"/><text x="1149" y="521" text-anchor="middle" class="micro" fill="#fff7ee" font-size="20">DI</text>
  </g><g transform="rotate(-7 1153 715)">
    <ellipse cx="1169" cy="828.4" rx="143.1" ry="19" fill="#1f211d" opacity="0.11"/>
    <rect x="1018" y="620" width="270" height="190" rx="10" fill="#fff7ee"/>
    <rect x="1036" y="638" width="234" height="154" rx="5" fill="none" stroke="#30362e" stroke-opacity="0.11"/>
    <rect x="1052" y="662" width="59.4" height="4" rx="2" fill="#b88a80" opacity="0.84"/>
    <text x="1052" y="684.6" class="brand" fill="#30362e" font-size="32.4">RSVP</text>
    <text x="1054" y="718.6" class="micro" fill="#30362e" opacity="0.65">CARD</text>
    <rect x="1054" y="730.2" width="73.87" height="3" rx="2" fill="#30362e" opacity="0.42"/><rect x="1054" y="752.2" width="110.81" height="2" rx="2" fill="#30362e" opacity="0.22"/>
    
  </g>
  <g opacity="0.72"><text x="78" y="1004" class="micro" fill="#30362e">LIFESTYLE CAMPAIGN CONCEPT</text><text x="78" y="1036" class="micro" fill="#30362e" opacity="0.55">TEMPORARY DEMONSTRATION PORTFOLIO VISUAL / GALLERY-1</text></g>
</svg>
