<?xml version="1.0" encoding="UTF-8"?>
<svg xmlns="http://www.w3.org/2000/svg" width="1600" height="1100" viewBox="0 0 1600 1100" role="img" aria-labelledby="title desc">
  <title id="title">KINFOLK gallery-2 demo portfolio mockup</title>
  <desc id="desc">Temporary fictional demonstration project imagery for portfolio presentation only, not client work.</desc>
  <defs>
    <linearGradient id="bg_kinfolk_concept_gallery_2" x1="0" y1="0" x2="1" y2="1">
      <stop offset="0%" stop-color="#fff7ee"/>
      <stop offset="58%" stop-color="#f2ebe2"/>
      <stop offset="100%" stop-color="#d3bea8"/>
    </linearGradient>
    <radialGradient id="light_kinfolk_concept_gallery_2" cx="74%" cy="18%" r="64%">
      <stop offset="0%" stop-color="#ffffff" stop-opacity="0.62"/>
      <stop offset="100%" stop-color="#ffffff" stop-opacity="0"/>
    </radialGradient>
  </defs>
  <style><![CDATA[
    .brand { font-family: Georgia, Georgia, serif; font-weight: 500; letter-spacing: .02em; }
    .body { font-family: Helvetica, Arial, sans-serif; font-weight: 500; }
    .micro { font-family: Helvetica, Arial, sans-serif; font-size: 20px; font-weight: 700; letter-spacing: .12em; }
  ]]></style>
  <rect width="1600" height="1100" fill="url(#bg_kinfolk_concept_gallery_2)"/>
  <rect width="1600" height="1100" fill="url(#light_kinfolk_concept_gallery_2)"/>
  <circle cx="469.86" cy="586.87" r="1.98" fill="#30362e" opacity="0.07"/><circle cx="571.03" cy="1047.05" r="1.62" fill="#b88a80" opacity="0.07"/><rect x="633.04" y="522.43" width="11.62" height="2.59" rx="1" fill="#30362e" opacity="0.06" transform="rotate(44.31 633.04 522.43)"/><rect x="1290.88" y="212.09" width="22.8" height="1.45" rx="1" fill="#30362e" opacity="0.03" transform="rotate(50.84 1290.88 212.09)"/><circle cx="724.96" cy="190.99" r="2.19" fill="#b88a80" opacity="0.07"/><circle cx="380.48" cy="123.55" r="0.78" fill="#b88a80" opacity="0.07"/><rect x="664.54" y="422.52" width="7.69" height="2.35" rx="1" fill="#b88a80" opacity="0.04" transform="rotate(18.87 664.54 422.52)"/><rect x="1451.23" y="575.05" width="11.65" height="1.51" rx="1" fill="#b88a80" opacity="0.08" transform="rotate(91.98 1451.23 575.05)"/><rect x="798.91" y="341.3" width="11.88" height="2.25" rx="1" fill="#30362e" opacity="0.04" transform="rotate(122.67 798.91 341.3)"/><rect x="717.59" y="179.72" width="27.36" height="0.81" rx="1" fill="#30362e" opacity="0.06" transform="rotate(21.7 717.59 179.72)"/><circle cx="1199.41" cy="51.18" r="1.97" fill="#30362e" opacity="0.06"/><rect x="785.44" y="727.69" width="20.39" height="1.78" rx="1" fill="#30362e" opacity="0.05" transform="rotate(120.37 785.44 727.69)"/><rect x="1576.49" y="601.22" width="12.87" height="1.26" rx="1" fill="#b88a80" opacity="0.07" transform="rotate(154.2 1576.49 601.22)"/><circle cx="789.71" cy="486.63" r="1.45" fill="#b88a80" opacity="0.08"/><circle cx="89.53" cy="9.91" r="2.23" fill="#b88a80" opacity="0.04"/><circle cx="944.16" cy="970.62" r="1.3" fill="#30362e" opacity="0.06"/><circle cx="515.78" cy="579.83" r="1.22" fill="#b88a80" opacity="0.03"/><rect x="35.29" y="843.19" width="12.18" height="1.13" rx="1" fill="#b88a80" opacity="0.03" transform="rotate(122.98 35.29 843.19)"/><rect x="1272.67" y="608.82" width="16.86" height="1.85" rx="1" fill="#30362e" opacity="0.07" transform="rotate(27.34 1272.67 608.82)"/><rect x="574.68" y="898.66" width="17" height="1.72" rx="1" fill="#30362e" opacity="0.05" transform="rotate(177.73 574.68 898.66)"/><circle cx="867.41" cy="129.43" r="1.91" fill="#b88a80" opacity="0.04"/><rect x="1030.33" y="1030.22" width="19.32" height="2.1" rx="1" fill="#30362e" opacity="0.05" transform="rotate(89.61 1030.33 1030.22)"/><circle cx="27.59" cy="861.79" r="2" fill="#b88a80" opacity="0.08"/><rect x="1410.36" y="173.49" width="15.77" height="1.02" rx="1" fill="#30362e" opacity="0.06" transform="rotate(28.79 1410.36 173.49)"/><rect x="832.77" y="393.58" width="27.87" height="1.26" rx="1" fill="#b88a80" opacity="0.05" transform="rotate(140.13 832.77 393.58)"/><rect x="1145.98" y="319.6" width="24.34" height="1.73" rx="1" fill="#b88a80" opacity="0.05" transform="rotate(163.97 1145.98 319.6)"/><rect x="63.35" y="870.71" width="17.15" height="1.04" rx="1" fill="#b88a80" opacity="0.07" transform="rotate(129.47 63.35 870.71)"/><rect x="306.34" y="230.54" width="20.6" height="2.22" rx="1" fill="#b88a80" opacity="0.06" transform="rotate(139.25 306.34 230.54)"/><rect x="335.81" y="708.96" width="14.89" height="1.38" rx="1" fill="#30362e" opacity="0.08" transform="rotate(111.04 335.81 708.96)"/><rect x="1056.5" y="342.04" width="25.81" height="1.12" rx="1" fill="#b88a80" opacity="0.05" transform="rotate(145.67 1056.5 342.04)"/><rect x="381.62" y="601.67" width="12.19" height="2.18" rx="1" fill="#30362e" opacity="0.05" transform="rotate(11.28 381.62 601.67)"/><rect x="579.39" y="418.75" width="6.07" height="1.46" rx="1" fill="#b88a80" opacity="0.03" transform="rotate(76.34 579.39 418.75)"/><rect x="389.6" y="693.98" width="23.99" height="1.78" rx="1" fill="#b88a80" opacity="0.05" transform="rotate(46.24 389.6 693.98)"/><rect x="586.77" y="300.37" width="26.34" height="1.04" rx="1" fill="#30362e" opacity="0.07" transform="rotate(19.13 586.77 300.37)"/><circle cx="1428.54" cy="652.77" r="1.13" fill="#b88a80" opacity="0.07"/><rect x="696.24" y="166.72" width="7.76" height="0.9" rx="1" fill="#30362e" opacity="0.04" transform="rotate(171.19 696.24 166.72)"/><rect x="177.19" y="560" width="24.46" height="2.02" rx="1" fill="#30362e" opacity="0.06" transform="rotate(89.71 177.19 560)"/><rect x="420.82" y="562.08" width="27.13" height="1.04" rx="1" fill="#b88a80" opacity="0.06" transform="rotate(9.15 420.82 562.08)"/><rect x="21.81" y="560.3" width="27.28" height="1.66" rx="1" fill="#b88a80" opacity="0.06" transform="rotate(58.61 21.81 560.3)"/><rect x="122.68" y="540.22" width="27.24" height="0.9" rx="1" fill="#b88a80" opacity="0.03" transform="rotate(87.81 122.68 540.22)"/><circle cx="1246.37" cy="347.39" r="1.33" fill="#b88a80" opacity="0.08"/><rect x="1596.26" y="682.89" width="17.17" height="0.86" rx="1" fill="#30362e" opacity="0.03" transform="rotate(122.97 1596.26 682.89)"/><rect x="1155.09" y="628.03" width="11.04" height="1.63" rx="1" fill="#b88a80" opacity="0.06" transform="rotate(84.55 1155.09 628.03)"/><rect x="168.59" y="554.09" width="16.49" height="1.8" rx="1" fill="#b88a80" opacity="0.03" transform="rotate(86.43 168.59 554.09)"/><rect x="1582.32" y="237.17" width="17.53" height="1.52" rx="1" fill="#b88a80" opacity="0.05" transform="rotate(116.02 1582.32 237.17)"/><rect x="466.54" y="117.1" width="7.44" height="2.48" rx="1" fill="#30362e" opacity="0.06" transform="rotate(137.4 466.54 117.1)"/><circle cx="1372.27" cy="914.6" r="1.86" fill="#b88a80" opacity="0.07"/><rect x="809.25" y="219.69" width="14.24" height="1.26" rx="1" fill="#b88a80" opacity="0.05" transform="rotate(106.58 809.25 219.69)"/><rect x="1055.83" y="832.22" width="15.41" height="1.11" rx="1" fill="#30362e" opacity="0.05" transform="rotate(114.09 1055.83 832.22)"/><circle cx="195.83" cy="95.75" r="1.03" fill="#b88a80" opacity="0.05"/><circle cx="239.75" cy="155.67" r="1.48" fill="#b88a80" opacity="0.03"/><circle cx="620.22" cy="3.87" r="1.81" fill="#b88a80" opacity="0.03"/><rect x="162.72" y="392.62" width="12.62" height="1.62" rx="1" fill="#30362e" opacity="0.05" transform="rotate(113.43 162.72 392.62)"/><rect x="451.62" y="957.45" width="13.24" height="2.05" rx="1" fill="#30362e" opacity="0.06" transform="rotate(33.45 451.62 957.45)"/><rect x="1396.52" y="193.81" width="11.58" height="1.22" rx="1" fill="#b88a80" opacity="0.04" transform="rotate(62.98 1396.52 193.81)"/><rect x="1048.53" y="836.79" width="8.89" height="1.04" rx="1" fill="#30362e" opacity="0.07" transform="rotate(56.29 1048.53 836.79)"/><circle cx="745.3" cy="119.48" r="1.52" fill="#30362e" opacity="0.06"/><rect x="34.21" y="856.51" width="7.89" height="2.59" rx="1" fill="#30362e" opacity="0.08" transform="rotate(157.27 34.21 856.51)"/><rect x="1112.49" y="577.22" width="8.17" height="2.21" rx="1" fill="#30362e" opacity="0.05" transform="rotate(125.32 1112.49 577.22)"/><rect x="100.26" y="11.07" width="11.86" height="1.8" rx="1" fill="#b88a80" opacity="0.08" transform="rotate(130.85 100.26 11.07)"/><rect x="542.95" y="960.33" width="16.13" height="0.91" rx="1" fill="#b88a80" opacity="0.05" transform="rotate(83.2 542.95 960.33)"/><rect x="208.74" y="211.3" width="20.72" height="2.22" rx="1" fill="#30362e" opacity="0.05" transform="rotate(112.68 208.74 211.3)"/><rect x="1344.63" y="957.84" width="13.86" height="1.23" rx="1" fill="#30362e" opacity="0.07" transform="rotate(66.34 1344.63 957.84)"/><circle cx="42.04" cy="714.55" r="2.25" fill="#30362e" opacity="0.08"/><rect x="493.04" y="798.1" width="19.82" height="2.3" rx="1" fill="#b88a80" opacity="0.05" transform="rotate(176.2 493.04 798.1)"/><rect x="611.21" y="658.03" width="15.88" height="0.8" rx="1" fill="#30362e" opacity="0.03" transform="rotate(145.18 611.21 658.03)"/><rect x="1412.31" y="1066.26" width="24.33" height="1.07" rx="1" fill="#30362e" opacity="0.08" transform="rotate(44.98 1412.31 1066.26)"/><circle cx="403.6" cy="122.26" r="1.5" fill="#30362e" opacity="0.04"/><circle cx="1514.43" cy="409.17" r="1.67" fill="#b88a80" opacity="0.07"/><circle cx="1353.95" cy="261.28" r="1.15" fill="#30362e" opacity="0.03"/><rect x="476.67" y="653.18" width="22.99" height="1.23" rx="1" fill="#30362e" opacity="0.05" transform="rotate(62.14 476.67 653.18)"/><circle cx="1433.8" cy="468.2" r="1.28" fill="#30362e" opacity="0.05"/><rect x="807.94" y="15.27" width="23.2" height="1.96" rx="1" fill="#b88a80" opacity="0.04" transform="rotate(139.28 807.94 15.27)"/><rect x="310.95" y="124.15" width="13.75" height="1.19" rx="1" fill="#30362e" opacity="0.05" transform="rotate(143.5 310.95 124.15)"/><rect x="1206.36" y="737.45" width="16.77" height="2.36" rx="1" fill="#b88a80" opacity="0.03" transform="rotate(164.22 1206.36 737.45)"/><rect x="1566.15" y="672.06" width="9.6" height="0.92" rx="1" fill="#b88a80" opacity="0.06" transform="rotate(27.37 1566.15 672.06)"/><circle cx="514.37" cy="485.87" r="1.1" fill="#b88a80" opacity="0.07"/><circle cx="951.63" cy="837.15" r="2.08" fill="#b88a80" opacity="0.05"/><rect x="6.77" y="1062.48" width="14.79" height="1.02" rx="1" fill="#30362e" opacity="0.08" transform="rotate(69.88 6.77 1062.48)"/><rect x="1295.7" y="866.45" width="11.17" height="2.05" rx="1" fill="#b88a80" opacity="0.03" transform="rotate(76.52 1295.7 866.45)"/><rect x="866.38" y="344.03" width="17.38" height="1.84" rx="1" fill="#b88a80" opacity="0.04" transform="rotate(91.64 866.38 344.03)"/><circle cx="636.96" cy="87.62" r="0.95" fill="#30362e" opacity="0.06"/><rect x="1485.72" y="360.69" width="17.2" height="1.67" rx="1" fill="#b88a80" opacity="0.05" transform="rotate(23.54 1485.72 360.69)"/><rect x="703.26" y="821.01" width="24.05" height="2.28" rx="1" fill="#b88a80" opacity="0.08" transform="rotate(18.42 703.26 821.01)"/><rect x="1151.59" y="699.83" width="26.54" height="1.9" rx="1" fill="#b88a80" opacity="0.04" transform="rotate(89.77 1151.59 699.83)"/><rect x="1242.08" y="1005.76" width="20.01" height="1.09" rx="1" fill="#30362e" opacity="0.07" transform="rotate(29.92 1242.08 1005.76)"/><rect x="745.04" y="128.24" width="21.42" height="2.09" rx="1" fill="#30362e" opacity="0.07" transform="rotate(3.46 745.04 128.24)"/><rect x="582.38" y="61.25" width="17.48" height="2.17" rx="1" fill="#b88a80" opacity="0.07" transform="rotate(30.19 582.38 61.25)"/><rect x="823.52" y="353.82" width="24.43" height="1.96" rx="1" fill="#b88a80" opacity="0.07" transform="rotate(71.87 823.52 353.82)"/><circle cx="609.66" cy="317.49" r="1.65" fill="#30362e" opacity="0.08"/><circle cx="1199.59" cy="863.55" r="1.34" fill="#30362e" opacity="0.03"/><rect x="653.73" y="648.22" width="10.14" height="2.56" rx="1" fill="#b88a80" opacity="0.03" transform="rotate(167.52 653.73 648.22)"/><rect x="766.38" y="908.75" width="19.27" height="2.32" rx="1" fill="#30362e" opacity="0.03" transform="rotate(29.91 766.38 908.75)"/><circle cx="277.53" cy="854.66" r="1.1" fill="#b88a80" opacity="0.04"/><circle cx="1358.84" cy="651.23" r="1.02" fill="#b88a80" opacity="0.05"/><rect x="1042.14" y="1006.76" width="26.69" height="1.4" rx="1" fill="#30362e" opacity="0.05" transform="rotate(21.02 1042.14 1006.76)"/><circle cx="550.92" cy="854.69" r="1.42" fill="#b88a80" opacity="0.07"/><rect x="1252.04" y="903.28" width="24.57" height="2.13" rx="1" fill="#30362e" opacity="0.08" transform="rotate(178.54 1252.04 903.28)"/><circle cx="1326.88" cy="1029.1" r="1.79" fill="#30362e" opacity="0.06"/><rect x="212.9" y="77.62" width="27.89" height="1.72" rx="1" fill="#30362e" opacity="0.05" transform="rotate(9.89 212.9 77.62)"/><circle cx="900.41" cy="285.47" r="1.84" fill="#b88a80" opacity="0.03"/><rect x="1336.83" y="238.56" width="25.19" height="1.4" rx="1" fill="#b88a80" opacity="0.06" transform="rotate(61.28 1336.83 238.56)"/><rect x="275.5" y="652.01" width="8.74" height="2.18" rx="1" fill="#b88a80" opacity="0.04" transform="rotate(7.51 275.5 652.01)"/><rect x="734.81" y="992.91" width="9.54" height="2.07" rx="1" fill="#30362e" opacity="0.03" transform="rotate(50.88 734.81 992.91)"/><rect x="1328.41" y="781.84" width="26.34" height="2.53" rx="1" fill="#b88a80" opacity="0.05" transform="rotate(73.98 1328.41 781.84)"/><rect x="1188.89" y="801.8" width="7.71" height="1.45" rx="1" fill="#b88a80" opacity="0.04" transform="rotate(10.33 1188.89 801.8)"/><circle cx="86.24" cy="773.76" r="1.03" fill="#b88a80" opacity="0.03"/><rect x="1156.42" y="2.44" width="12.32" height="1.32" rx="1" fill="#b88a80" opacity="0.04" transform="rotate(97.04 1156.42 2.44)"/><rect x="517.49" y="880.9" width="24.49" height="2.51" rx="1" fill="#b88a80" opacity="0.03" transform="rotate(0.92 517.49 880.9)"/><rect x="829.03" y="812" width="19.59" height="2.18" rx="1" fill="#b88a80" opacity="0.07" transform="rotate(28.71 829.03 812)"/><circle cx="229.17" cy="717.98" r="1.69" fill="#b88a80" opacity="0.04"/><rect x="493.82" y="670.35" width="10.1" height="2.27" rx="1" fill="#b88a80" opacity="0.07" transform="rotate(128.28 493.82 670.35)"/><rect x="642.41" y="79.23" width="24.24" height="1.79" rx="1" fill="#b88a80" opacity="0.05" transform="rotate(59.67 642.41 79.23)"/><rect x="215.1" y="1050.58" width="21.83" height="0.9" rx="1" fill="#b88a80" opacity="0.05" transform="rotate(102.43 215.1 1050.58)"/><rect x="992.54" y="675.75" width="9.57" height="2.22" rx="1" fill="#b88a80" opacity="0.06" transform="rotate(70.1 992.54 675.75)"/><rect x="1040.54" y="797.82" width="13.64" height="2.11" rx="1" fill="#b88a80" opacity="0.08" transform="rotate(15.82 1040.54 797.82)"/><rect x="849.27" y="775.2" width="24.17" height="0.82" rx="1" fill="#30362e" opacity="0.04" transform="rotate(53.65 849.27 775.2)"/><rect x="886.12" y="1097.03" width="16.17" height="2.46" rx="1" fill="#b88a80" opacity="0.06" transform="rotate(110.58 886.12 1097.03)"/><rect x="1090.7" y="667.14" width="21.5" height="1.94" rx="1" fill="#30362e" opacity="0.08" transform="rotate(60.69 1090.7 667.14)"/><rect x="743.99" y="952.95" width="16.39" height="1.85" rx="1" fill="#30362e" opacity="0.03" transform="rotate(3.58 743.99 952.95)"/><rect x="777.32" y="820.42" width="19.24" height="2.39" rx="1" fill="#b88a80" opacity="0.06" transform="rotate(95.53 777.32 820.42)"/><rect x="1396.24" y="8.65" width="27.78" height="1.22" rx="1" fill="#30362e" opacity="0.03" transform="rotate(133 1396.24 8.65)"/><rect x="595.56" y="521.27" width="23.97" height="2.06" rx="1" fill="#30362e" opacity="0.05" transform="rotate(51.93 595.56 521.27)"/><rect x="344.95" y="951.23" width="9.39" height="0.93" rx="1" fill="#30362e" opacity="0.03" transform="rotate(115.04 344.95 951.23)"/><rect x="189.79" y="317.91" width="21.08" height="0.88" rx="1" fill="#30362e" opacity="0.07" transform="rotate(10.33 189.79 317.91)"/><circle cx="1457.79" cy="890.23" r="2.2" fill="#b88a80" opacity="0.03"/><circle cx="966.29" cy="935.88" r="1.22" fill="#b88a80" opacity="0.05"/><rect x="216.81" y="106.82" width="14.98" height="2.4" rx="1" fill="#b88a80" opacity="0.05" transform="rotate(86.74 216.81 106.82)"/><rect x="1535.65" y="882.99" width="19.35" height="2.38" rx="1" fill="#b88a80" opacity="0.05" transform="rotate(16.87 1535.65 882.99)"/><rect x="1588.72" y="1095.03" width="24.09" height="2.34" rx="1" fill="#30362e" opacity="0.05" transform="rotate(98.56 1588.72 1095.03)"/><rect x="438.54" y="418.42" width="22.6" height="2.51" rx="1" fill="#30362e" opacity="0.03" transform="rotate(31.97 438.54 418.42)"/><rect x="1530.77" y="79.04" width="8.04" height="1.09" rx="1" fill="#b88a80" opacity="0.08" transform="rotate(16.49 1530.77 79.04)"/><circle cx="221.3" cy="334.97" r="1.87" fill="#b88a80" opacity="0.07"/><circle cx="221.91" cy="706.28" r="2.1" fill="#b88a80" opacity="0.07"/><rect x="1459.95" y="295.13" width="26.17" height="1.99" rx="1" fill="#b88a80" opacity="0.07" transform="rotate(103.39 1459.95 295.13)"/><rect x="1250.38" y="106.86" width="17.97" height="2.34" rx="1" fill="#b88a80" opacity="0.04" transform="rotate(113.05 1250.38 106.86)"/><rect x="650.21" y="871.38" width="8.07" height="1" rx="1" fill="#b88a80" opacity="0.08" transform="rotate(24.49 650.21 871.38)"/><rect x="620.11" y="250.37" width="8.97" height="2.01" rx="1" fill="#b88a80" opacity="0.03" transform="rotate(62.11 620.11 250.37)"/><rect x="1130.34" y="619.45" width="25.57" height="1.65" rx="1" fill="#b88a80" opacity="0.03" transform="rotate(102.39 1130.34 619.45)"/><rect x="1178.11" y="275.17" width="24.54" height="2.43" rx="1" fill="#b88a80" opacity="0.06" transform="rotate(27.58 1178.11 275.17)"/>
  <circle cx="1350" cy="178" r="184" fill="#b88a80" opacity="0.06"/>
  <circle cx="220" cy="894" r="220" fill="#6d7b62" opacity="0.08"/>
  <g transform="rotate(-3 720 540)">
    <ellipse cx="738" cy="812.4" rx="487.6" ry="54" fill="#1f211d" opacity="0.12"/>
    <rect x="260" y="270" width="920" height="540" rx="6" fill="#fff7ee"/>
    <rect x="719" y="294" width="2" height="492" fill="#30362e" opacity="0.12"/>
    <rect x="752" y="310" width="390" height="460" rx="4" fill="#d3bea8"/>
    <path d="M 770 604.8 C 834.8 507.6, 926.8 664.2, 1101.6 453.6" fill="none" stroke="#fff7ee" stroke-width="5" opacity="0.72"/>
    <text x="304" y="358" class="brand" fill="#30362e" font-size="50.6">LOOKBOOK</text>
    <rect x="304" y="408" width="140.6" height="3" rx="2" fill="#30362e" opacity="0.42"/><rect x="304" y="430" width="210.9" height="2" rx="2" fill="#30362e" opacity="0.22"/><rect x="304" y="452" width="281.2" height="2" rx="2" fill="#30362e" opacity="0.22"/><rect x="304" y="474" width="159.1" height="2" rx="2" fill="#30362e" opacity="0.22"/><rect x="304" y="496" width="229.4" height="2" rx="2" fill="#30362e" opacity="0.22"/><rect x="304" y="518" width="299.7" height="2" rx="2" fill="#30362e" opacity="0.22"/><rect x="304" y="540" width="177.6" height="2" rx="2" fill="#30362e" opacity="0.22"/><rect x="304" y="562" width="247.9" height="2" rx="2" fill="#30362e" opacity="0.22"/><rect x="304" y="584" width="318.2" height="2" rx="2" fill="#30362e" opacity="0.22"/>
  </g><g transform="rotate(7 1190 375)">
    <ellipse cx="1208" cy="564.6" rx="132.5" ry="36" fill="#1f211d" opacity="0.13"/>
    <rect x="1065" y="195" width="250" height="360" rx="5" fill="#6d7b62"/>
    <text x="1085" y="267" class="brand" fill="#fff7ee" font-size="32.5">01</text>
    <rect x="1085" y="306.6" width="210" height="115.2" fill="#b88a80" opacity="0.85"/>
    <rect x="1085" y="454.2" width="64.6" height="3" rx="2" fill="#fff7ee" opacity="0.42"/><rect x="1085" y="476.2" width="96.9" height="2" rx="2" fill="#fff7ee" opacity="0.22"/><rect x="1085" y="498.2" width="129.2" height="2" rx="2" fill="#fff7ee" opacity="0.22"/><rect x="1085" y="520.2" width="73.1" height="2" rx="2" fill="#fff7ee" opacity="0.22"/>
  </g>
  <g opacity="0.72"><text x="78" y="1004" class="micro" fill="#30362e">LIFESTYLE CAMPAIGN CONCEPT</text><text x="78" y="1036" class="micro" fill="#30362e" opacity="0.55">TEMPORARY DEMONSTRATION PORTFOLIO VISUAL / GALLERY-2</text></g>
</svg>
