<?xml version="1.0" encoding="UTF-8"?>
<svg xmlns="http://www.w3.org/2000/svg" width="1600" height="1100" viewBox="0 0 1600 1100" role="img" aria-labelledby="title desc">
  <title id="title">KINFOLK hero demo portfolio mockup</title>
  <desc id="desc">Temporary fictional demonstration project imagery for portfolio presentation only, not client work.</desc>
  <defs>
    <linearGradient id="bg_kinfolk_concept_hero" x1="0" y1="0" x2="1" y2="1">
      <stop offset="0%" stop-color="#fff7ee"/>
      <stop offset="58%" stop-color="#f2ebe2"/>
      <stop offset="100%" stop-color="#d3bea8"/>
    </linearGradient>
    <radialGradient id="light_kinfolk_concept_hero" cx="74%" cy="18%" r="64%">
      <stop offset="0%" stop-color="#ffffff" stop-opacity="0.62"/>
      <stop offset="100%" stop-color="#ffffff" stop-opacity="0"/>
    </radialGradient>
  </defs>
  <style><![CDATA[
    .brand { font-family: Georgia, Georgia, serif; font-weight: 500; letter-spacing: .02em; }
    .body { font-family: Helvetica, Arial, sans-serif; font-weight: 500; }
    .micro { font-family: Helvetica, Arial, sans-serif; font-size: 20px; font-weight: 700; letter-spacing: .12em; }
  ]]></style>
  <rect width="1600" height="1100" fill="url(#bg_kinfolk_concept_hero)"/>
  <rect width="1600" height="1100" fill="url(#light_kinfolk_concept_hero)"/>
  <rect x="425.85" y="857.65" width="20.93" height="2.47" rx="1" fill="#30362e" opacity="0.05" transform="rotate(14.6 425.85 857.65)"/><circle cx="570.65" cy="683.54" r="1.38" fill="#b88a80" opacity="0.05"/><rect x="1558.32" y="509.52" width="25.86" height="2.36" rx="1" fill="#30362e" opacity="0.07" transform="rotate(154.27 1558.32 509.52)"/><circle cx="4.5" cy="486.13" r="2.23" fill="#30362e" opacity="0.06"/><rect x="619.11" y="759.77" width="27.48" height="2.41" rx="1" fill="#b88a80" opacity="0.04" transform="rotate(162.6 619.11 759.77)"/><circle cx="159.55" cy="689.79" r="2.07" fill="#b88a80" opacity="0.06"/><circle cx="855.59" cy="829.57" r="0.94" fill="#b88a80" opacity="0.07"/><circle cx="213.98" cy="51.26" r="1.69" fill="#b88a80" opacity="0.07"/><circle cx="42.52" cy="837.63" r="1.85" fill="#b88a80" opacity="0.06"/><circle cx="1428.12" cy="113.89" r="1.35" fill="#b88a80" opacity="0.04"/><circle cx="1441.57" cy="137.52" r="1.89" fill="#30362e" opacity="0.07"/><circle cx="1363.41" cy="882.5" r="2.11" fill="#30362e" opacity="0.03"/><rect x="487.24" y="1028.05" width="26.33" height="1.66" rx="1" fill="#b88a80" opacity="0.03" transform="rotate(18.04 487.24 1028.05)"/><rect x="421.68" y="83.27" width="12.6" height="1.61" rx="1" fill="#b88a80" opacity="0.07" transform="rotate(31.91 421.68 83.27)"/><rect x="1190.71" y="985.32" width="11.61" height="2.59" rx="1" fill="#b88a80" opacity="0.06" transform="rotate(131.65 1190.71 985.32)"/><rect x="693.35" y="129.4" width="23.16" height="1.36" rx="1" fill="#b88a80" opacity="0.07" transform="rotate(20.31 693.35 129.4)"/><rect x="703.58" y="413.19" width="9.15" height="2.55" rx="1" fill="#30362e" opacity="0.04" transform="rotate(35.08 703.58 413.19)"/><circle cx="740.04" cy="829.86" r="0.89" fill="#30362e" opacity="0.06"/><rect x="1008.7" y="1093.73" width="15.57" height="2.3" rx="1" fill="#30362e" opacity="0.04" transform="rotate(95 1008.7 1093.73)"/><rect x="524.45" y="1032.5" width="25.49" height="1.54" rx="1" fill="#30362e" opacity="0.04" transform="rotate(95.85 524.45 1032.5)"/><rect x="515.34" y="599.56" width="27.66" height="2.46" rx="1" fill="#b88a80" opacity="0.08" transform="rotate(66.24 515.34 599.56)"/><rect x="1456.45" y="322.63" width="13.12" height="2.03" rx="1" fill="#30362e" opacity="0.04" transform="rotate(47.68 1456.45 322.63)"/><rect x="1572.3" y="867.52" width="9.67" height="2.43" rx="1" fill="#b88a80" opacity="0.06" transform="rotate(31.12 1572.3 867.52)"/><rect x="178.83" y="464.3" width="24.53" height="2.28" rx="1" fill="#30362e" opacity="0.04" transform="rotate(43.8 178.83 464.3)"/><rect x="450.8" y="501.28" width="22.37" height="2.42" rx="1" fill="#30362e" opacity="0.05" transform="rotate(15.31 450.8 501.28)"/><rect x="119.4" y="1025.28" width="22.83" height="1.5" rx="1" fill="#30362e" opacity="0.07" transform="rotate(170.21 119.4 1025.28)"/><circle cx="1165.02" cy="656.52" r="1.99" fill="#30362e" opacity="0.07"/><rect x="1072.71" y="284.2" width="10.67" height="1.27" rx="1" fill="#30362e" opacity="0.05" transform="rotate(78.36 1072.71 284.2)"/><rect x="1200.99" y="794.44" width="12.05" height="0.93" rx="1" fill="#30362e" opacity="0.07" transform="rotate(9.41 1200.99 794.44)"/><rect x="1057.46" y="942.24" width="7.35" height="0.83" rx="1" fill="#b88a80" opacity="0.08" transform="rotate(124.86 1057.46 942.24)"/><rect x="645.76" y="137.57" width="10.93" height="2.18" rx="1" fill="#b88a80" opacity="0.06" transform="rotate(21.24 645.76 137.57)"/><rect x="1164.19" y="224.9" width="20.92" height="1.6" rx="1" fill="#30362e" opacity="0.06" transform="rotate(159.07 1164.19 224.9)"/><rect x="1014.71" y="593.08" width="20.23" height="2.3" rx="1" fill="#b88a80" opacity="0.05" transform="rotate(71.79 1014.71 593.08)"/><rect x="1337.86" y="250.93" width="10.42" height="1.5" rx="1" fill="#30362e" opacity="0.04" transform="rotate(23.98 1337.86 250.93)"/><rect x="9.69" y="139.59" width="18.78" height="2.56" rx="1" fill="#30362e" opacity="0.04" transform="rotate(170.81 9.69 139.59)"/><rect x="497.35" y="973.95" width="24.55" height="1.64" rx="1" fill="#b88a80" opacity="0.05" transform="rotate(161.51 497.35 973.95)"/><circle cx="380.65" cy="86.11" r="1.84" fill="#30362e" opacity="0.03"/><circle cx="830.56" cy="268.33" r="0.91" fill="#b88a80" opacity="0.03"/><rect x="1146.17" y="934.01" width="12.51" height="1.01" rx="1" fill="#30362e" opacity="0.05" transform="rotate(148.09 1146.17 934.01)"/><rect x="691.63" y="854.37" width="27.22" height="1.92" rx="1" fill="#30362e" opacity="0.07" transform="rotate(1.08 691.63 854.37)"/><circle cx="1509.53" cy="897.88" r="2.11" fill="#30362e" opacity="0.07"/><circle cx="1576.24" cy="835.92" r="1.41" fill="#30362e" opacity="0.08"/><circle cx="72.64" cy="130.49" r="0.79" fill="#b88a80" opacity="0.04"/><circle cx="146.95" cy="92.35" r="1.56" fill="#30362e" opacity="0.07"/><rect x="680.05" y="1098.9" width="23.08" height="2.6" rx="1" fill="#30362e" opacity="0.05" transform="rotate(135.39 680.05 1098.9)"/><rect x="1076.89" y="153.39" width="25.25" height="0.86" rx="1" fill="#30362e" opacity="0.06" transform="rotate(163.92 1076.89 153.39)"/><circle cx="1428.47" cy="591.43" r="1.51" fill="#30362e" opacity="0.07"/><rect x="331.86" y="446.9" width="26.38" height="2.1" rx="1" fill="#b88a80" opacity="0.05" transform="rotate(104.32 331.86 446.9)"/><rect x="710.49" y="1050.02" width="11.5" height="1.16" rx="1" fill="#30362e" opacity="0.05" transform="rotate(89.1 710.49 1050.02)"/><rect x="20.94" y="234.95" width="10.95" height="2.42" rx="1" fill="#30362e" opacity="0.04" transform="rotate(27.87 20.94 234.95)"/><rect x="1424.85" y="381.98" width="26.79" height="2.19" rx="1" fill="#b88a80" opacity="0.08" transform="rotate(23.41 1424.85 381.98)"/><circle cx="878.91" cy="619.29" r="2.2" fill="#30362e" opacity="0.06"/><rect x="925.33" y="373.4" width="17.16" height="2.27" rx="1" fill="#30362e" opacity="0.03" transform="rotate(111.29 925.33 373.4)"/><rect x="1294.67" y="470.23" width="24.39" height="0.84" rx="1" fill="#30362e" opacity="0.07" transform="rotate(48.48 1294.67 470.23)"/><rect x="1156.51" y="628.31" width="23.46" height="2.43" rx="1" fill="#30362e" opacity="0.07" transform="rotate(115.32 1156.51 628.31)"/><rect x="218.07" y="146.13" width="12" height="1.33" rx="1" fill="#30362e" opacity="0.03" transform="rotate(129.92 218.07 146.13)"/><rect x="1092.72" y="393.33" width="16.58" height="1.28" rx="1" fill="#b88a80" opacity="0.05" transform="rotate(36.89 1092.72 393.33)"/><rect x="138.05" y="906.44" width="14.67" height="1.21" rx="1" fill="#b88a80" opacity="0.07" transform="rotate(41.24 138.05 906.44)"/><rect x="216.71" y="429.52" width="14.65" height="1.94" rx="1" fill="#30362e" opacity="0.07" transform="rotate(146.09 216.71 429.52)"/><rect x="343.3" y="463.9" width="13.82" height="1.19" rx="1" fill="#b88a80" opacity="0.03" transform="rotate(124.75 343.3 463.9)"/><circle cx="205.73" cy="781.41" r="0.78" fill="#30362e" opacity="0.06"/><rect x="68.28" y="497.58" width="6.3" height="1.33" rx="1" fill="#b88a80" opacity="0.07" transform="rotate(119.06 68.28 497.58)"/><circle cx="286.89" cy="886.32" r="1" fill="#b88a80" opacity="0.06"/><rect x="1237.31" y="80.76" width="19.01" height="1.47" rx="1" fill="#b88a80" opacity="0.06" transform="rotate(54.17 1237.31 80.76)"/><rect x="1268.6" y="168.51" width="15.13" height="1.77" rx="1" fill="#30362e" opacity="0.07" transform="rotate(119 1268.6 168.51)"/><rect x="882.15" y="60.77" width="21.02" height="2.55" rx="1" fill="#b88a80" opacity="0.05" transform="rotate(59.49 882.15 60.77)"/><circle cx="878.1" cy="842.7" r="1.66" fill="#30362e" opacity="0.05"/><circle cx="805.08" cy="154.1" r="1.02" fill="#b88a80" opacity="0.03"/><rect x="766.49" y="201.07" width="13.4" height="1.52" rx="1" fill="#30362e" opacity="0.06" transform="rotate(55.66 766.49 201.07)"/><rect x="846.02" y="219.59" width="26.96" height="2.21" rx="1" fill="#b88a80" opacity="0.06" transform="rotate(72.27 846.02 219.59)"/><circle cx="146.68" cy="350.38" r="1.11" fill="#30362e" opacity="0.06"/><rect x="191.39" y="338.42" width="24.82" height="1.85" rx="1" fill="#30362e" opacity="0.03" transform="rotate(156.36 191.39 338.42)"/><rect x="1516.86" y="1018.09" width="9.39" height="0.96" rx="1" fill="#30362e" opacity="0.06" transform="rotate(5.37 1516.86 1018.09)"/><rect x="1430.74" y="84.76" width="22.52" height="2.16" rx="1" fill="#b88a80" opacity="0.04" transform="rotate(114.41 1430.74 84.76)"/><circle cx="128.37" cy="404.19" r="1.31" fill="#b88a80" opacity="0.04"/><rect x="802.87" y="164.37" width="13.71" height="2.58" rx="1" fill="#b88a80" opacity="0.03" transform="rotate(32.91 802.87 164.37)"/><rect x="1453.27" y="21.6" width="13.85" height="2.6" rx="1" fill="#b88a80" opacity="0.04" transform="rotate(0.87 1453.27 21.6)"/><circle cx="985.27" cy="352.77" r="1.19" fill="#30362e" opacity="0.06"/><circle cx="665.5" cy="461.6" r="2.02" fill="#b88a80" opacity="0.05"/><circle cx="442.46" cy="852.62" r="1.09" fill="#b88a80" opacity="0.03"/><rect x="1403.57" y="161.78" width="27.53" height="0.99" rx="1" fill="#30362e" opacity="0.08" transform="rotate(107.99 1403.57 161.78)"/><circle cx="147.11" cy="972.86" r="2.14" fill="#30362e" opacity="0.07"/><circle cx="387.4" cy="980.45" r="1.92" fill="#b88a80" opacity="0.06"/><rect x="667.31" y="956.39" width="25.08" height="1.89" rx="1" fill="#b88a80" opacity="0.04" transform="rotate(143.86 667.31 956.39)"/><circle cx="557.11" cy="249.92" r="1.17" fill="#b88a80" opacity="0.05"/><circle cx="658.14" cy="121.03" r="1.74" fill="#b88a80" opacity="0.05"/><circle cx="438.45" cy="249.51" r="1.44" fill="#b88a80" opacity="0.03"/><rect x="1551.22" y="895.8" width="13.09" height="2.55" rx="1" fill="#30362e" opacity="0.05" transform="rotate(172.06 1551.22 895.8)"/><rect x="934.17" y="407.98" width="24.91" height="1" rx="1" fill="#b88a80" opacity="0.04" transform="rotate(119.84 934.17 407.98)"/><circle cx="1234.27" cy="486.7" r="0.94" fill="#b88a80" opacity="0.04"/><rect x="1318.41" y="401.53" width="13.55" height="1.58" rx="1" fill="#b88a80" opacity="0.04" transform="rotate(9.83 1318.41 401.53)"/><circle cx="1451.52" cy="535.98" r="1.33" fill="#30362e" opacity="0.03"/><rect x="545.5" y="48.81" width="15.78" height="1.04" rx="1" fill="#b88a80" opacity="0.06" transform="rotate(9.5 545.5 48.81)"/><rect x="1443.12" y="436.71" width="24.32" height="2.18" rx="1" fill="#30362e" opacity="0.03" transform="rotate(119.03 1443.12 436.71)"/><rect x="1576.21" y="777.74" width="10.16" height="1.4" rx="1" fill="#30362e" opacity="0.04" transform="rotate(160.88 1576.21 777.74)"/><circle cx="211.01" cy="128.34" r="1.03" fill="#30362e" opacity="0.07"/><rect x="1075.17" y="390.79" width="9.08" height="2.12" rx="1" fill="#b88a80" opacity="0.04" transform="rotate(175.91 1075.17 390.79)"/><rect x="793.93" y="1084.11" width="20.26" height="1.34" rx="1" fill="#30362e" opacity="0.04" transform="rotate(130.32 793.93 1084.11)"/><circle cx="1490.54" cy="97.1" r="1.95" fill="#30362e" opacity="0.03"/><circle cx="1430.06" cy="530.78" r="0.81" fill="#b88a80" opacity="0.08"/><rect x="988.54" y="760.28" width="16.42" height="2.57" rx="1" fill="#b88a80" opacity="0.07" transform="rotate(64 988.54 760.28)"/><rect x="339.84" y="1021.97" width="15.06" height="1.08" rx="1" fill="#b88a80" opacity="0.06" transform="rotate(154.62 339.84 1021.97)"/><rect x="340.72" y="536.51" width="27.99" height="0.92" rx="1" fill="#30362e" opacity="0.05" transform="rotate(62.79 340.72 536.51)"/><circle cx="1496.45" cy="891.6" r="0.82" fill="#b88a80" opacity="0.03"/><rect x="546.17" y="466.34" width="18.14" height="2.43" rx="1" fill="#30362e" opacity="0.05" transform="rotate(40.22 546.17 466.34)"/><rect x="1221.69" y="93.83" width="25.46" height="2.51" rx="1" fill="#b88a80" opacity="0.04" transform="rotate(41.82 1221.69 93.83)"/><circle cx="1590.88" cy="520.71" r="1.84" fill="#b88a80" opacity="0.07"/><rect x="391.69" y="383.21" width="9.34" height="2.43" rx="1" fill="#b88a80" opacity="0.07" transform="rotate(122.7 391.69 383.21)"/><circle cx="708.11" cy="459.56" r="2.26" fill="#30362e" opacity="0.08"/><circle cx="627.43" cy="555.77" r="2.22" fill="#30362e" opacity="0.04"/><rect x="1270.44" y="631.19" width="14.96" height="1.98" rx="1" fill="#30362e" opacity="0.08" transform="rotate(19.74 1270.44 631.19)"/><rect x="1551.24" y="655.43" width="17.93" height="2.26" rx="1" fill="#b88a80" opacity="0.04" transform="rotate(28.11 1551.24 655.43)"/><circle cx="340.27" cy="978.83" r="2.18" fill="#b88a80" opacity="0.08"/><rect x="145.75" y="723.78" width="19.51" height="1.85" rx="1" fill="#30362e" opacity="0.08" transform="rotate(139.18 145.75 723.78)"/><rect x="646.13" y="80.29" width="21.7" height="2.07" rx="1" fill="#30362e" opacity="0.04" transform="rotate(91.92 646.13 80.29)"/><rect x="662.81" y="1081.7" width="7.29" height="2.37" rx="1" fill="#b88a80" opacity="0.03" transform="rotate(154.98 662.81 1081.7)"/><rect x="567.53" y="289.78" width="23.7" height="2.09" rx="1" fill="#b88a80" opacity="0.07" transform="rotate(7.43 567.53 289.78)"/><circle cx="487.27" cy="23.45" r="1.09" fill="#b88a80" opacity="0.07"/><rect x="230.68" y="25.12" width="19.84" height="2.42" rx="1" fill="#b88a80" opacity="0.03" transform="rotate(123.65 230.68 25.12)"/><rect x="608.89" y="531.58" width="9.2" height="1.02" rx="1" fill="#30362e" opacity="0.04" transform="rotate(140.61 608.89 531.58)"/><circle cx="126.09" cy="910.02" r="1.45" fill="#30362e" opacity="0.05"/><rect x="835.96" y="1045.98" width="19.82" height="2" rx="1" fill="#b88a80" opacity="0.03" transform="rotate(120.32 835.96 1045.98)"/><rect x="1503.84" y="408.31" width="19.35" height="2.21" rx="1" fill="#b88a80" opacity="0.04" transform="rotate(145.74 1503.84 408.31)"/><circle cx="1365.19" cy="998.2" r="1.44" fill="#b88a80" opacity="0.05"/><rect x="707.92" y="382.59" width="19.66" height="0.92" rx="1" fill="#30362e" opacity="0.08" transform="rotate(170.38 707.92 382.59)"/><rect x="64.53" y="152.19" width="26.62" height="1.28" rx="1" fill="#30362e" opacity="0.05" transform="rotate(22.77 64.53 152.19)"/><rect x="1570.18" y="959.56" width="21.95" height="1.84" rx="1" fill="#b88a80" opacity="0.05" transform="rotate(147.48 1570.18 959.56)"/><rect x="452.06" y="463.07" width="23.89" height="0.94" rx="1" fill="#30362e" opacity="0.03" transform="rotate(173.12 452.06 463.07)"/><rect x="720.69" y="333.1" width="13.21" height="2.1" rx="1" fill="#30362e" opacity="0.07" transform="rotate(105.32 720.69 333.1)"/><rect x="562.13" y="153.31" width="19.89" height="2.6" rx="1" fill="#b88a80" opacity="0.08" transform="rotate(130.38 562.13 153.31)"/><circle cx="373.77" cy="447.3" r="1.86" fill="#b88a80" opacity="0.05"/><circle cx="1161.91" cy="684.32" r="1.37" fill="#b88a80" opacity="0.04"/><rect x="867.01" y="951.46" width="8.81" height="1.74" rx="1" fill="#b88a80" opacity="0.06" transform="rotate(115.82 867.01 951.46)"/><rect x="573.23" y="974.78" width="10.14" height="1.9" rx="1" fill="#b88a80" opacity="0.07" transform="rotate(37.76 573.23 974.78)"/><rect x="818.94" y="273.83" width="10.98" height="2.29" rx="1" fill="#30362e" opacity="0.04" transform="rotate(175.82 818.94 273.83)"/><circle cx="746.03" cy="662.42" r="1.27" fill="#30362e" opacity="0.05"/><rect x="1031.22" y="628.98" width="23.2" height="1.3" rx="1" fill="#b88a80" opacity="0.04" transform="rotate(128.06 1031.22 628.98)"/><circle cx="798.59" cy="1003.84" r="1.67" fill="#b88a80" opacity="0.06"/><circle cx="1181.89" cy="476.65" r="0.92" fill="#b88a80" opacity="0.05"/><circle cx="668.52" cy="155.35" r="1.43" fill="#30362e" opacity="0.08"/>
  <circle cx="1350" cy="178" r="184" fill="#b88a80" opacity="0.06"/>
  <circle cx="220" cy="894" r="220" fill="#6d7b62" opacity="0.08"/>
  <g transform="rotate(-6 450 480)">
    <ellipse cx="468" cy="780" rx="206.7" ry="60" fill="#1f211d" opacity="0.13"/>
    <rect x="255" y="180" width="390" height="600" rx="5" fill="#414a3a"/>
    <text x="286.2" y="300" class="brand" fill="#fff7ee" font-size="50.7">RITUALS</text>
    <rect x="286.2" y="366" width="327.6" height="192" fill="#b88a80" opacity="0.85"/>
    <rect x="286.2" y="612" width="100.78" height="3" rx="2" fill="#fff7ee" opacity="0.42"/><rect x="286.2" y="634" width="151.16" height="2" rx="2" fill="#fff7ee" opacity="0.22"/><rect x="286.2" y="656" width="201.55" height="2" rx="2" fill="#fff7ee" opacity="0.22"/><rect x="286.2" y="678" width="114.04" height="2" rx="2" fill="#fff7ee" opacity="0.22"/>
  </g><g transform="rotate(5 975 535)">
    <ellipse cx="993" cy="761.4" rx="365.7" ry="44" fill="#1f211d" opacity="0.12"/>
    <rect x="630" y="315" width="690" height="440" rx="6" fill="#fff7ee"/>
    <rect x="974" y="339" width="2" height="392" fill="#30362e" opacity="0.12"/>
    <rect x="662" y="355" width="275" height="360" rx="4" fill="#d3bea8"/>
    <path d="M 680 587.8 C 724.1 508.6, 793.1 636.2, 924.2 464.6" fill="none" stroke="#fff7ee" stroke-width="5" opacity="0.72"/>
    <text x="1019" y="403" class="brand" fill="#30362e" font-size="37.95">HOME STORY</text>
    <rect x="1019" y="453" width="96.9" height="3" rx="2" fill="#30362e" opacity="0.42"/><rect x="1019" y="475" width="145.35" height="2" rx="2" fill="#30362e" opacity="0.22"/><rect x="1019" y="497" width="193.8" height="2" rx="2" fill="#30362e" opacity="0.22"/><rect x="1019" y="519" width="109.65" height="2" rx="2" fill="#30362e" opacity="0.22"/><rect x="1019" y="541" width="158.1" height="2" rx="2" fill="#30362e" opacity="0.22"/><rect x="1019" y="563" width="206.55" height="2" rx="2" fill="#30362e" opacity="0.22"/><rect x="1019" y="585" width="122.4" height="2" rx="2" fill="#30362e" opacity="0.22"/><rect x="1019" y="607" width="170.85" height="2" rx="2" fill="#30362e" opacity="0.22"/><rect x="1019" y="629" width="219.3" height="2" rx="2" fill="#30362e" opacity="0.22"/>
  </g><g transform="rotate(8 1180 297)">
    <ellipse cx="1196" cy="419.6" rx="159" ry="21" fill="#1f211d" opacity="0.11"/>
    <rect x="1030" y="192" width="300" height="210" rx="10" fill="#fff7ee"/>
    <rect x="1048" y="210" width="264" height="174" rx="5" fill="none" stroke="#30362e" stroke-opacity="0.11"/>
    <rect x="1064" y="234" width="66" height="4" rx="2" fill="#b88a80" opacity="0.84"/>
    <text x="1064" y="263.4" class="brand" fill="#30362e" font-size="36">INVITE</text>
    <text x="1066" y="297.4" class="micro" fill="#30362e" opacity="0.65">LAUNCH SUPPER</text>
    <rect x="1066" y="313.8" width="82.08" height="3" rx="2" fill="#30362e" opacity="0.42"/><rect x="1066" y="335.8" width="123.12" height="2" rx="2" fill="#30362e" opacity="0.22"/><rect x="1066" y="357.8" width="164.16" height="2" rx="2" fill="#30362e" opacity="0.22"/>
    <circle cx="1264" cy="332" r="35" fill="#b88a80" opacity="0.86"/><text x="1264" y="343" text-anchor="middle" class="micro" fill="#fff7ee" font-size="20">IN</text>
  </g><g transform="rotate(-4 1120 795)">
    <ellipse cx="1136" cy="902.4" rx="222.6" ry="19" fill="#1f211d" opacity="0.1"/>
    <rect x="910" y="700" width="420" height="190" rx="7" fill="#d3bea8"/>
    <text x="960" y="764" class="micro" fill="#30362e" opacity="0.25">KC</text><text x="1035.6" y="764" class="micro" fill="#30362e" opacity="0.25">KC</text><text x="1111.2" y="764" class="micro" fill="#30362e" opacity="0.25">KC</text><text x="1186.8" y="764" class="micro" fill="#30362e" opacity="0.25">KC</text><text x="1262.4" y="764" class="micro" fill="#30362e" opacity="0.25">KC</text><text x="960" y="805.8" class="micro" fill="#30362e" opacity="0.25">KC</text><text x="1035.6" y="805.8" class="micro" fill="#30362e" opacity="0.25">KC</text><text x="1111.2" y="805.8" class="micro" fill="#30362e" opacity="0.25">KC</text><text x="1186.8" y="805.8" class="micro" fill="#30362e" opacity="0.25">KC</text><text x="1262.4" y="805.8" class="micro" fill="#30362e" opacity="0.25">KC</text><text x="960" y="847.6" class="micro" fill="#30362e" opacity="0.25">KC</text><text x="1035.6" y="847.6" class="micro" fill="#30362e" opacity="0.25">KC</text><text x="1111.2" y="847.6" class="micro" fill="#30362e" opacity="0.25">KC</text><text x="1186.8" y="847.6" class="micro" fill="#30362e" opacity="0.25">KC</text><text x="1262.4" y="847.6" class="micro" fill="#30362e" opacity="0.25">KC</text><text x="960" y="889.4" class="micro" fill="#30362e" opacity="0.25">KC</text><text x="1035.6" y="889.4" class="micro" fill="#30362e" opacity="0.25">KC</text><text x="1111.2" y="889.4" class="micro" fill="#30362e" opacity="0.25">KC</text><text x="1186.8" y="889.4" class="micro" fill="#30362e" opacity="0.25">KC</text><text x="1262.4" y="889.4" class="micro" fill="#30362e" opacity="0.25">KC</text>
  </g><g transform="rotate(4 455 831)">
    <ellipse cx="467" cy="927.2" rx="132.5" ry="17" fill="#1f211d" opacity="0.09"/>
    <rect x="330" y="746" width="250" height="170" rx="14" fill="#fff7ee"/>
    <rect x="352" y="768" width="206" height="81.6" rx="10" fill="#d3bea8"/>
    <text x="354" y="858.2" class="brand" fill="#30362e" font-size="22.5">STORY</text>
    <rect x="354" y="871.8" width="64.6" height="3" rx="2" fill="#30362e" opacity="0.42"/><rect x="354" y="893.8" width="96.9" height="2" rx="2" fill="#30362e" opacity="0.22"/><rect x="354" y="915.8" width="129.2" height="2" rx="2" fill="#30362e" opacity="0.22"/>
  </g>
  <g opacity="0.72"><text x="78" y="1004" class="micro" fill="#30362e">LIFESTYLE CAMPAIGN CONCEPT</text><text x="78" y="1036" class="micro" fill="#30362e" opacity="0.55">TEMPORARY DEMONSTRATION PORTFOLIO VISUAL / HERO</text></g>
</svg>
