<?xml version="1.0" encoding="UTF-8"?>
<svg xmlns="http://www.w3.org/2000/svg" width="1600" height="1100" viewBox="0 0 1600 1100" role="img" aria-labelledby="title desc">
  <title id="title">SORA cover demo portfolio mockup</title>
  <desc id="desc">Temporary fictional demonstration project imagery for portfolio presentation only, not client work.</desc>
  <defs>
    <linearGradient id="bg_sora_cover" x1="0" y1="0" x2="1" y2="1">
      <stop offset="0%" stop-color="#fff8ef"/>
      <stop offset="58%" stop-color="#f5ece4"/>
      <stop offset="100%" stop-color="#ddb59f"/>
    </linearGradient>
    <radialGradient id="light_sora_cover" cx="74%" cy="18%" r="64%">
      <stop offset="0%" stop-color="#ffffff" stop-opacity="0.62"/>
      <stop offset="100%" stop-color="#ffffff" stop-opacity="0"/>
    </radialGradient>
  </defs>
  <style><![CDATA[
    .brand { font-family: Georgia, Georgia, serif; font-weight: 500; letter-spacing: .02em; }
    .body { font-family: Arial, Arial, sans-serif; font-weight: 500; }
    .micro { font-family: Arial, Arial, sans-serif; font-size: 20px; font-weight: 700; letter-spacing: .12em; }
  ]]></style>
  <rect width="1600" height="1100" fill="url(#bg_sora_cover)"/>
  <rect width="1600" height="1100" fill="url(#light_sora_cover)"/>
  <circle cx="1429.41" cy="242.17" r="1.68" fill="#b77768" opacity="0.07"/><rect x="1167.26" y="75.33" width="9.72" height="0.91" rx="1" fill="#4c5948" opacity="0.06" transform="rotate(31.88 1167.26 75.33)"/><rect x="63.96" y="732.43" width="23.78" height="2.37" rx="1" fill="#4c5948" opacity="0.05" transform="rotate(129.91 63.96 732.43)"/><circle cx="399.72" cy="942.6" r="1.12" fill="#b77768" opacity="0.06"/><rect x="1554.87" y="96.37" width="21.72" height="1.88" rx="1" fill="#b77768" opacity="0.06" transform="rotate(3.19 1554.87 96.37)"/><rect x="1.53" y="816.62" width="11.47" height="1.91" rx="1" fill="#4c5948" opacity="0.05" transform="rotate(109.41 1.53 816.62)"/><rect x="676.92" y="855.1" width="10.67" height="2.4" rx="1" fill="#4c5948" opacity="0.07" transform="rotate(111.01 676.92 855.1)"/><circle cx="1013.17" cy="22.73" r="2.02" fill="#4c5948" opacity="0.06"/><rect x="1108.95" y="407.36" width="25.42" height="2.02" rx="1" fill="#4c5948" opacity="0.04" transform="rotate(157.41 1108.95 407.36)"/><rect x="755.91" y="528.28" width="8.57" height="2.34" rx="1" fill="#4c5948" opacity="0.06" transform="rotate(129.79 755.91 528.28)"/><rect x="1401.81" y="896.74" width="16.62" height="1.76" rx="1" fill="#b77768" opacity="0.05" transform="rotate(99.16 1401.81 896.74)"/><circle cx="1525.47" cy="1030.59" r="2.25" fill="#4c5948" opacity="0.07"/><rect x="310.5" y="748.13" width="10.51" height="1.48" rx="1" fill="#b77768" opacity="0.06" transform="rotate(121.33 310.5 748.13)"/><rect x="848.44" y="717.06" width="8.81" height="2.13" rx="1" fill="#4c5948" opacity="0.05" transform="rotate(37.25 848.44 717.06)"/><circle cx="409.05" cy="656.8" r="0.81" fill="#b77768" opacity="0.07"/><circle cx="1330.41" cy="45.55" r="1.87" fill="#b77768" opacity="0.06"/><rect x="1448.94" y="345.1" width="7.97" height="2.36" rx="1" fill="#4c5948" opacity="0.03" transform="rotate(155 1448.94 345.1)"/><rect x="476.89" y="995.83" width="17.13" height="1.43" rx="1" fill="#4c5948" opacity="0.06" transform="rotate(11.19 476.89 995.83)"/><circle cx="627.58" cy="305.29" r="1.61" fill="#b77768" opacity="0.05"/><circle cx="724.07" cy="459.81" r="1.76" fill="#b77768" opacity="0.03"/><rect x="233.66" y="840.98" width="9.09" height="1.77" rx="1" fill="#4c5948" opacity="0.07" transform="rotate(13.38 233.66 840.98)"/><rect x="1061.06" y="274.45" width="20.41" height="1.68" rx="1" fill="#b77768" opacity="0.04" transform="rotate(139.98 1061.06 274.45)"/><circle cx="920.61" cy="314.29" r="1.83" fill="#4c5948" opacity="0.05"/><rect x="1498.46" y="496.14" width="12.48" height="1.01" rx="1" fill="#4c5948" opacity="0.06" transform="rotate(110.96 1498.46 496.14)"/><rect x="1158.26" y="381.56" width="21.05" height="2.15" rx="1" fill="#b77768" opacity="0.06" transform="rotate(28.84 1158.26 381.56)"/><rect x="79.91" y="141.73" width="10.4" height="1.3" rx="1" fill="#b77768" opacity="0.06" transform="rotate(154.05 79.91 141.73)"/><rect x="937.34" y="4.85" width="22.3" height="0.93" rx="1" fill="#4c5948" opacity="0.06" transform="rotate(25.3 937.34 4.85)"/><rect x="868.33" y="244.87" width="12.31" height="0.91" rx="1" fill="#b77768" opacity="0.03" transform="rotate(16.23 868.33 244.87)"/><rect x="876.75" y="370.65" width="14" height="1.77" rx="1" fill="#b77768" opacity="0.07" transform="rotate(26.48 876.75 370.65)"/><rect x="1149.7" y="811.85" width="10.22" height="1.67" rx="1" fill="#b77768" opacity="0.03" transform="rotate(84.43 1149.7 811.85)"/><rect x="98.63" y="475.46" width="20.66" height="1.3" rx="1" fill="#b77768" opacity="0.06" transform="rotate(123.81 98.63 475.46)"/><circle cx="1201.92" cy="248.19" r="0.96" fill="#b77768" opacity="0.06"/><circle cx="636.3" cy="851.57" r="1.02" fill="#b77768" opacity="0.08"/><rect x="1209.99" y="614.85" width="18.78" height="2.32" rx="1" fill="#4c5948" opacity="0.05" transform="rotate(118.27 1209.99 614.85)"/><circle cx="831.82" cy="883.66" r="1.48" fill="#b77768" opacity="0.07"/><circle cx="1502.71" cy="523.24" r="1.14" fill="#4c5948" opacity="0.08"/><rect x="136.09" y="473.5" width="24.72" height="2.02" rx="1" fill="#4c5948" opacity="0.03" transform="rotate(103.89 136.09 473.5)"/><circle cx="75.77" cy="489.76" r="1.64" fill="#b77768" opacity="0.04"/><rect x="1204.54" y="929.1" width="8.03" height="2.49" rx="1" fill="#4c5948" opacity="0.04" transform="rotate(96.5 1204.54 929.1)"/><circle cx="1192.03" cy="374.32" r="2.29" fill="#b77768" opacity="0.08"/><rect x="818.43" y="155.29" width="7.1" height="1.97" rx="1" fill="#b77768" opacity="0.08" transform="rotate(1.05 818.43 155.29)"/><rect x="964.58" y="538.86" width="22.83" height="1.09" rx="1" fill="#b77768" opacity="0.05" transform="rotate(106.55 964.58 538.86)"/><rect x="1314.95" y="245.55" width="18.47" height="1.79" rx="1" fill="#4c5948" opacity="0.08" transform="rotate(78.89 1314.95 245.55)"/><circle cx="1464.22" cy="673.21" r="1.77" fill="#b77768" opacity="0.03"/><circle cx="1291.51" cy="510.89" r="1.04" fill="#b77768" opacity="0.05"/><circle cx="1460.8" cy="621.26" r="0.92" fill="#b77768" opacity="0.03"/><rect x="111.67" y="1093.21" width="10.71" height="1.5" rx="1" fill="#4c5948" opacity="0.07" transform="rotate(26.18 111.67 1093.21)"/><rect x="1021.02" y="290.06" width="24.52" height="1.88" rx="1" fill="#4c5948" opacity="0.06" transform="rotate(47.25 1021.02 290.06)"/><rect x="1305.44" y="177.6" width="20.06" height="1.09" rx="1" fill="#b77768" opacity="0.04" transform="rotate(153.96 1305.44 177.6)"/><rect x="592.12" y="750.85" width="25.96" height="1.62" rx="1" fill="#b77768" opacity="0.05" transform="rotate(70.22 592.12 750.85)"/><circle cx="332.59" cy="739.7" r="2.01" fill="#4c5948" opacity="0.04"/><rect x="235.13" y="686.12" width="27.36" height="2.22" rx="1" fill="#4c5948" opacity="0.06" transform="rotate(18.92 235.13 686.12)"/><rect x="1380.85" y="231.23" width="23.36" height="1.4" rx="1" fill="#4c5948" opacity="0.03" transform="rotate(50.65 1380.85 231.23)"/><rect x="553.4" y="944.15" width="7.44" height="1.78" rx="1" fill="#b77768" opacity="0.05" transform="rotate(22.61 553.4 944.15)"/><rect x="548.36" y="967.88" width="24.27" height="2.45" rx="1" fill="#b77768" opacity="0.05" transform="rotate(119.36 548.36 967.88)"/><rect x="1399.28" y="844.31" width="18.93" height="1.88" rx="1" fill="#4c5948" opacity="0.05" transform="rotate(32.87 1399.28 844.31)"/><rect x="359.05" y="962.74" width="14.24" height="1.63" rx="1" fill="#b77768" opacity="0.04" transform="rotate(30.86 359.05 962.74)"/><rect x="1180.12" y="618.7" width="8.78" height="2.51" rx="1" fill="#4c5948" opacity="0.03" transform="rotate(120.94 1180.12 618.7)"/><circle cx="849.72" cy="328.61" r="0.9" fill="#b77768" opacity="0.07"/><circle cx="1516.93" cy="597.27" r="2.11" fill="#4c5948" opacity="0.07"/><rect x="321.66" y="1010.75" width="19.81" height="2.17" rx="1" fill="#4c5948" opacity="0.05" transform="rotate(29.63 321.66 1010.75)"/><rect x="1510.45" y="259.75" width="24.11" height="1.86" rx="1" fill="#b77768" opacity="0.03" transform="rotate(135.82 1510.45 259.75)"/><rect x="630.62" y="488.01" width="9.19" height="1.48" rx="1" fill="#4c5948" opacity="0.04" transform="rotate(82.8 630.62 488.01)"/><circle cx="113.14" cy="42.27" r="2.07" fill="#4c5948" opacity="0.07"/><rect x="74.42" y="1001.08" width="21.87" height="1.12" rx="1" fill="#b77768" opacity="0.05" transform="rotate(137.15 74.42 1001.08)"/><circle cx="389.46" cy="239.6" r="1.17" fill="#4c5948" opacity="0.06"/><circle cx="1096.3" cy="394.19" r="2.1" fill="#4c5948" opacity="0.03"/><circle cx="1388.69" cy="334.58" r="1.97" fill="#4c5948" opacity="0.05"/><rect x="590.7" y="210.1" width="7.34" height="0.82" rx="1" fill="#b77768" opacity="0.04" transform="rotate(166.39 590.7 210.1)"/><circle cx="129.79" cy="1001.86" r="1.48" fill="#4c5948" opacity="0.08"/><rect x="1334.37" y="442.6" width="22.53" height="1.84" rx="1" fill="#b77768" opacity="0.06" transform="rotate(20.26 1334.37 442.6)"/><rect x="320.5" y="329.59" width="25.6" height="0.94" rx="1" fill="#4c5948" opacity="0.04" transform="rotate(154.08 320.5 329.59)"/><rect x="1165.56" y="220.3" width="10.76" height="1.09" rx="1" fill="#b77768" opacity="0.06" transform="rotate(89.6 1165.56 220.3)"/><circle cx="1126.1" cy="556.94" r="0.9" fill="#b77768" opacity="0.03"/><circle cx="1597.28" cy="276.28" r="2.04" fill="#b77768" opacity="0.05"/><rect x="591.86" y="535.62" width="13.36" height="0.99" rx="1" fill="#4c5948" opacity="0.07" transform="rotate(54.73 591.86 535.62)"/><rect x="671" y="849.22" width="21.16" height="2.6" rx="1" fill="#4c5948" opacity="0.03" transform="rotate(97.78 671 849.22)"/><rect x="1335.33" y="432.02" width="18.26" height="1.22" rx="1" fill="#b77768" opacity="0.06" transform="rotate(136.53 1335.33 432.02)"/><rect x="1122.76" y="430.14" width="19.03" height="1.84" rx="1" fill="#4c5948" opacity="0.05" transform="rotate(158.27 1122.76 430.14)"/><rect x="944.82" y="268.37" width="25.57" height="1.54" rx="1" fill="#4c5948" opacity="0.08" transform="rotate(105.13 944.82 268.37)"/><rect x="663.51" y="176.77" width="15.21" height="2.42" rx="1" fill="#b77768" opacity="0.08" transform="rotate(70.28 663.51 176.77)"/><rect x="711.3" y="56.28" width="17.04" height="2" rx="1" fill="#b77768" opacity="0.08" transform="rotate(26.71 711.3 56.28)"/><rect x="1493.6" y="454.49" width="13.77" height="1.19" rx="1" fill="#b77768" opacity="0.04" transform="rotate(109.86 1493.6 454.49)"/><rect x="88.98" y="895.98" width="24.16" height="1.02" rx="1" fill="#b77768" opacity="0.07" transform="rotate(79.72 88.98 895.98)"/><rect x="598.24" y="182.48" width="9.38" height="1.6" rx="1" fill="#b77768" opacity="0.04" transform="rotate(153.5 598.24 182.48)"/><rect x="1571.24" y="940.53" width="27.61" height="1.56" rx="1" fill="#b77768" opacity="0.07" transform="rotate(102.91 1571.24 940.53)"/><rect x="686.3" y="17.93" width="12.95" height="2" rx="1" fill="#b77768" opacity="0.05" transform="rotate(132.73 686.3 17.93)"/><rect x="1391.84" y="16.48" width="27.34" height="1.06" rx="1" fill="#b77768" opacity="0.07" transform="rotate(42.78 1391.84 16.48)"/><rect x="504.8" y="881.84" width="21.93" height="1.96" rx="1" fill="#4c5948" opacity="0.05" transform="rotate(66.3 504.8 881.84)"/><circle cx="1154.22" cy="444.88" r="2.27" fill="#4c5948" opacity="0.04"/><circle cx="891" cy="546.37" r="0.91" fill="#b77768" opacity="0.08"/><rect x="136.12" y="547.78" width="23.85" height="2.1" rx="1" fill="#4c5948" opacity="0.06" transform="rotate(25.75 136.12 547.78)"/><rect x="1015.86" y="50.05" width="14.7" height="1.17" rx="1" fill="#b77768" opacity="0.04" transform="rotate(89.26 1015.86 50.05)"/><rect x="141.52" y="921.46" width="26.15" height="1.95" rx="1" fill="#4c5948" opacity="0.06" transform="rotate(67.05 141.52 921.46)"/><rect x="1230.81" y="119.22" width="15.4" height="1.97" rx="1" fill="#b77768" opacity="0.06" transform="rotate(47.61 1230.81 119.22)"/><circle cx="1302.88" cy="448.82" r="2.12" fill="#4c5948" opacity="0.07"/><circle cx="1050.37" cy="728.46" r="1.38" fill="#4c5948" opacity="0.06"/><circle cx="722.61" cy="636.44" r="1.04" fill="#b77768" opacity="0.07"/><rect x="848.35" y="368.73" width="11.7" height="0.92" rx="1" fill="#4c5948" opacity="0.07" transform="rotate(111.37 848.35 368.73)"/><rect x="1391.97" y="513.85" width="8.35" height="2.01" rx="1" fill="#b77768" opacity="0.05" transform="rotate(70.22 1391.97 513.85)"/><circle cx="947.63" cy="249.88" r="1.03" fill="#4c5948" opacity="0.05"/><circle cx="609.43" cy="520.95" r="1.13" fill="#b77768" opacity="0.05"/><rect x="1245.91" y="369.93" width="22.08" height="1.37" rx="1" fill="#4c5948" opacity="0.07" transform="rotate(28.53 1245.91 369.93)"/><circle cx="60.01" cy="157.35" r="2.09" fill="#4c5948" opacity="0.06"/><rect x="1410.9" y="854.39" width="26.17" height="1.92" rx="1" fill="#4c5948" opacity="0.04" transform="rotate(115.12 1410.9 854.39)"/><rect x="1266.79" y="513.49" width="26.01" height="1.38" rx="1" fill="#b77768" opacity="0.06" transform="rotate(35.52 1266.79 513.49)"/><rect x="1192.39" y="956.25" width="23.22" height="2.54" rx="1" fill="#4c5948" opacity="0.06" transform="rotate(47.82 1192.39 956.25)"/><circle cx="224.38" cy="751.41" r="2.04" fill="#b77768" opacity="0.03"/><rect x="520.85" y="85.16" width="21.83" height="2.45" rx="1" fill="#4c5948" opacity="0.04" transform="rotate(37.58 520.85 85.16)"/><rect x="359.75" y="1014.75" width="11.5" height="0.89" rx="1" fill="#b77768" opacity="0.04" transform="rotate(94.41 359.75 1014.75)"/><rect x="951.06" y="1027.44" width="25.86" height="1.03" rx="1" fill="#b77768" opacity="0.03" transform="rotate(90.15 951.06 1027.44)"/><circle cx="666.13" cy="799.91" r="1.29" fill="#4c5948" opacity="0.05"/><rect x="483.54" y="400.05" width="13.05" height="1.85" rx="1" fill="#b77768" opacity="0.03" transform="rotate(76.61 483.54 400.05)"/><rect x="257.02" y="554.51" width="6.75" height="2.09" rx="1" fill="#b77768" opacity="0.06" transform="rotate(103.43 257.02 554.51)"/><circle cx="586.44" cy="91.05" r="2.28" fill="#b77768" opacity="0.06"/><rect x="67.86" y="603.9" width="27.94" height="2.02" rx="1" fill="#b77768" opacity="0.05" transform="rotate(71.98 67.86 603.9)"/><rect x="120.41" y="358.99" width="24.84" height="1.14" rx="1" fill="#b77768" opacity="0.05" transform="rotate(126.3 120.41 358.99)"/><rect x="942.54" y="470.76" width="13.15" height="1.44" rx="1" fill="#b77768" opacity="0.04" transform="rotate(27 942.54 470.76)"/><rect x="1194.59" y="986.15" width="13.46" height="1.78" rx="1" fill="#4c5948" opacity="0.06" transform="rotate(166.06 1194.59 986.15)"/><circle cx="446.57" cy="274.83" r="1.26" fill="#b77768" opacity="0.05"/><circle cx="727.21" cy="269.02" r="2.27" fill="#4c5948" opacity="0.07"/><rect x="1059.31" y="114.78" width="7.96" height="1.38" rx="1" fill="#b77768" opacity="0.03" transform="rotate(121.16 1059.31 114.78)"/><circle cx="435.26" cy="269.07" r="1.88" fill="#b77768" opacity="0.08"/><rect x="342.12" y="603.87" width="25.48" height="0.86" rx="1" fill="#b77768" opacity="0.04" transform="rotate(136.69 342.12 603.87)"/><rect x="657.24" y="624.19" width="17.73" height="2.23" rx="1" fill="#b77768" opacity="0.03" transform="rotate(77.28 657.24 624.19)"/><circle cx="249.03" cy="182.74" r="1.58" fill="#b77768" opacity="0.04"/><rect x="664.38" y="126.69" width="25.34" height="1.5" rx="1" fill="#b77768" opacity="0.05" transform="rotate(62.58 664.38 126.69)"/><circle cx="478.31" cy="767.73" r="1.05" fill="#b77768" opacity="0.07"/><rect x="1007.22" y="141.04" width="16.6" height="2" rx="1" fill="#b77768" opacity="0.05" transform="rotate(95.01 1007.22 141.04)"/><circle cx="1150.86" cy="582.13" r="2.23" fill="#b77768" opacity="0.04"/><circle cx="282.06" cy="216.19" r="0.79" fill="#4c5948" opacity="0.05"/><circle cx="883.78" cy="737.88" r="2.15" fill="#b77768" opacity="0.07"/><circle cx="1006.65" cy="565.85" r="1.1" fill="#b77768" opacity="0.03"/><circle cx="1587.43" cy="388.96" r="2.01" fill="#b77768" opacity="0.04"/><circle cx="822.89" cy="509.97" r="0.93" fill="#4c5948" opacity="0.03"/><rect x="804.63" y="166.99" width="13.63" height="2.37" rx="1" fill="#4c5948" opacity="0.07" transform="rotate(116.13 804.63 166.99)"/><rect x="159.24" y="898.48" width="21.21" height="0.86" rx="1" fill="#4c5948" opacity="0.07" transform="rotate(150 159.24 898.48)"/><rect x="52.75" y="53.74" width="15.43" height="1.02" rx="1" fill="#b77768" opacity="0.06" transform="rotate(129.3 52.75 53.74)"/><circle cx="1222.1" cy="812.82" r="1.37" fill="#b77768" opacity="0.03"/><circle cx="174.27" cy="785.25" r="1.58" fill="#4c5948" opacity="0.04"/>
  <circle cx="1350" cy="178" r="184" fill="#b77768" opacity="0.06"/>
  <circle cx="220" cy="894" r="220" fill="#9da98b" opacity="0.08"/>
  <g transform="rotate(-5 512.5 520)">
    <ellipse cx="528.5" cy="879.86" rx="172.25" ry="9.36" fill="#1f211d" opacity="0.12"/>
    <polygon points="350,330 512.5,260 675,330 675,780 350,780" fill="#ddb59f"/>
    <rect x="350" y="326" width="325" height="454" rx="8" fill="#fff8ef"/>
    <rect x="408.5" y="447.2" width="208" height="140.4" rx="8" fill="#586853"/>
    <text x="512.5" y="514.8" text-anchor="middle" class="brand" fill="#fff8ef" font-size="42.25">SORA</text>
    <rect x="467" y="296" width="91" height="18" rx="9" fill="#b77768"/>
  </g><g transform="rotate(5 895 495)">
    <ellipse cx="911" cy="731.2" rx="185.5" ry="47" fill="#1f211d" opacity="0.11"/>
    <rect x="720" y="260" width="350" height="470" rx="8" fill="#fff8ef"/>
    <text x="762" y="344.6" class="brand" fill="#4c5948" font-size="38.5">MENU</text>
    <rect x="762" y="401" width="133" height="3" rx="2" fill="#4c5948" opacity="0.32"/><rect x="972" y="401" width="49" height="3" rx="2" fill="#b77768" opacity="0.62"/><rect x="762" y="443" width="133" height="3" rx="2" fill="#4c5948" opacity="0.32"/><rect x="972" y="443" width="49" height="3" rx="2" fill="#b77768" opacity="0.62"/><rect x="762" y="485" width="133" height="3" rx="2" fill="#4c5948" opacity="0.32"/><rect x="972" y="485" width="49" height="3" rx="2" fill="#b77768" opacity="0.62"/><rect x="762" y="527" width="133" height="3" rx="2" fill="#4c5948" opacity="0.32"/><rect x="972" y="527" width="49" height="3" rx="2" fill="#b77768" opacity="0.62"/><rect x="762" y="569" width="133" height="3" rx="2" fill="#4c5948" opacity="0.32"/><rect x="972" y="569" width="49" height="3" rx="2" fill="#b77768" opacity="0.62"/><rect x="762" y="611" width="133" height="3" rx="2" fill="#4c5948" opacity="0.32"/><rect x="972" y="611" width="49" height="3" rx="2" fill="#b77768" opacity="0.62"/><rect x="762" y="653" width="133" height="3" rx="2" fill="#4c5948" opacity="0.32"/><rect x="972" y="653" width="49" height="3" rx="2" fill="#b77768" opacity="0.62"/><rect x="762" y="695" width="133" height="3" rx="2" fill="#4c5948" opacity="0.32"/><rect x="972" y="695" width="49" height="3" rx="2" fill="#b77768" opacity="0.62"/>
  </g><g transform="rotate(-8 1160 630)">
    <ellipse cx="1172" cy="845.15" rx="106" ry="5.12" fill="#1f211d" opacity="0.11"/>
    <path d="M 1060 470 H 1260 L 1224 790 H 1096 Z" fill="#fff8ef"/>
    <rect x="1086" y="578.8" width="148" height="89.6" rx="8" fill="#586853"/>
    <text x="1160" y="633.2" text-anchor="middle" class="brand" fill="#fff8ef" font-size="24">SO</text>
  </g>
  <g opacity="0.72"><text x="78" y="1004" class="micro" fill="#4c5948">CAFE BRANDING</text><text x="78" y="1036" class="micro" fill="#4c5948" opacity="0.55">TEMPORARY DEMONSTRATION PORTFOLIO VISUAL / COVER</text></g>
</svg>
