<?xml version="1.0" encoding="UTF-8"?>
<svg xmlns="http://www.w3.org/2000/svg" width="1600" height="1100" viewBox="0 0 1600 1100" role="img" aria-labelledby="title desc">
  <title id="title">SORA gallery-1 demo portfolio mockup</title>
  <desc id="desc">Temporary fictional demonstration project imagery for portfolio presentation only, not client work.</desc>
  <defs>
    <linearGradient id="bg_sora_gallery_1" x1="0" y1="0" x2="1" y2="1">
      <stop offset="0%" stop-color="#fff8ef"/>
      <stop offset="58%" stop-color="#f5ece4"/>
      <stop offset="100%" stop-color="#ddb59f"/>
    </linearGradient>
    <radialGradient id="light_sora_gallery_1" cx="74%" cy="18%" r="64%">
      <stop offset="0%" stop-color="#ffffff" stop-opacity="0.62"/>
      <stop offset="100%" stop-color="#ffffff" stop-opacity="0"/>
    </radialGradient>
  </defs>
  <style><![CDATA[
    .brand { font-family: Georgia, Georgia, serif; font-weight: 500; letter-spacing: .02em; }
    .body { font-family: Arial, Arial, sans-serif; font-weight: 500; }
    .micro { font-family: Arial, Arial, sans-serif; font-size: 20px; font-weight: 700; letter-spacing: .12em; }
  ]]></style>
  <rect width="1600" height="1100" fill="url(#bg_sora_gallery_1)"/>
  <rect width="1600" height="1100" fill="url(#light_sora_gallery_1)"/>
  <circle cx="1288.51" cy="836.52" r="1.86" fill="#4c5948" opacity="0.05"/><rect x="10.38" y="527.61" width="22.07" height="1.04" rx="1" fill="#b77768" opacity="0.04" transform="rotate(155.18 10.38 527.61)"/><rect x="7.49" y="253.01" width="7.78" height="2.52" rx="1" fill="#b77768" opacity="0.06" transform="rotate(154.41 7.49 253.01)"/><rect x="259.92" y="301.18" width="11.4" height="2.57" rx="1" fill="#b77768" opacity="0.07" transform="rotate(66.42 259.92 301.18)"/><circle cx="1008.3" cy="390.16" r="2.14" fill="#b77768" opacity="0.06"/><circle cx="143.58" cy="606.41" r="0.9" fill="#4c5948" opacity="0.04"/><rect x="785.68" y="526.17" width="24.08" height="2" rx="1" fill="#b77768" opacity="0.03" transform="rotate(168.46 785.68 526.17)"/><rect x="1254.54" y="358.17" width="12.57" height="1.05" rx="1" fill="#b77768" opacity="0.05" transform="rotate(77.29 1254.54 358.17)"/><circle cx="114.17" cy="987.26" r="2.16" fill="#4c5948" opacity="0.06"/><rect x="310.88" y="538.86" width="15.25" height="2.51" rx="1" fill="#b77768" opacity="0.03" transform="rotate(78.37 310.88 538.86)"/><circle cx="1360.41" cy="1066.53" r="2.28" fill="#4c5948" opacity="0.03"/><rect x="1481.13" y="899.73" width="7.33" height="1.61" rx="1" fill="#b77768" opacity="0.07" transform="rotate(153.09 1481.13 899.73)"/><rect x="842.47" y="911.52" width="9.31" height="2.2" rx="1" fill="#b77768" opacity="0.05" transform="rotate(62.37 842.47 911.52)"/><circle cx="804.21" cy="96.11" r="2.06" fill="#4c5948" opacity="0.04"/><circle cx="968.57" cy="584.88" r="0.9" fill="#b77768" opacity="0.07"/><circle cx="794.97" cy="55.01" r="2.25" fill="#4c5948" opacity="0.03"/><rect x="394.06" y="84.82" width="20.88" height="1.67" rx="1" fill="#b77768" opacity="0.06" transform="rotate(159.64 394.06 84.82)"/><rect x="28.43" y="304.57" width="9.38" height="2.23" rx="1" fill="#b77768" opacity="0.08" transform="rotate(94.34 28.43 304.57)"/><rect x="868.42" y="666.3" width="23.85" height="1.17" rx="1" fill="#b77768" opacity="0.04" transform="rotate(52.52 868.42 666.3)"/><rect x="755.23" y="149.92" width="8.57" height="1.34" rx="1" fill="#b77768" opacity="0.04" transform="rotate(93.73 755.23 149.92)"/><rect x="1377.98" y="917.14" width="18.09" height="1.55" rx="1" fill="#b77768" opacity="0.03" transform="rotate(31.08 1377.98 917.14)"/><rect x="953.83" y="995.73" width="8.85" height="1.54" rx="1" fill="#4c5948" opacity="0.05" transform="rotate(17.93 953.83 995.73)"/><circle cx="414.14" cy="270.68" r="1.31" fill="#b77768" opacity="0.05"/><circle cx="527.87" cy="617.24" r="1" fill="#b77768" opacity="0.08"/><rect x="297.48" y="1039.14" width="20.99" height="1.53" rx="1" fill="#4c5948" opacity="0.05" transform="rotate(103.85 297.48 1039.14)"/><rect x="989.86" y="426.66" width="14.89" height="1.82" rx="1" fill="#b77768" opacity="0.04" transform="rotate(8.59 989.86 426.66)"/><rect x="902.3" y="1024.25" width="8.23" height="1.6" rx="1" fill="#b77768" opacity="0.07" transform="rotate(28.15 902.3 1024.25)"/><rect x="952.35" y="600.34" width="22.85" height="1.56" rx="1" fill="#b77768" opacity="0.04" transform="rotate(1.75 952.35 600.34)"/><rect x="802.66" y="102.21" width="21.27" height="1.24" rx="1" fill="#4c5948" opacity="0.05" transform="rotate(103.61 802.66 102.21)"/><rect x="337.19" y="710.47" width="20.37" height="1.47" rx="1" fill="#4c5948" opacity="0.05" transform="rotate(151.43 337.19 710.47)"/><rect x="274.85" y="475.74" width="7.54" height="1.59" rx="1" fill="#4c5948" opacity="0.06" transform="rotate(168.96 274.85 475.74)"/><rect x="1067.95" y="61.02" width="25.5" height="1.05" rx="1" fill="#b77768" opacity="0.05" transform="rotate(74.61 1067.95 61.02)"/><rect x="205.96" y="5.39" width="15.84" height="2.34" rx="1" fill="#b77768" opacity="0.08" transform="rotate(105.01 205.96 5.39)"/><rect x="675.3" y="739.77" width="8.62" height="1.66" rx="1" fill="#4c5948" opacity="0.05" transform="rotate(36.38 675.3 739.77)"/><rect x="908.6" y="297.17" width="19.68" height="1.5" rx="1" fill="#b77768" opacity="0.03" transform="rotate(85.92 908.6 297.17)"/><circle cx="198.73" cy="843.91" r="1.58" fill="#4c5948" opacity="0.07"/><circle cx="769.05" cy="53.66" r="1.88" fill="#b77768" opacity="0.07"/><rect x="785.13" y="168.5" width="21.12" height="0.91" rx="1" fill="#b77768" opacity="0.03" transform="rotate(84.69 785.13 168.5)"/><circle cx="316.68" cy="853.94" r="1.6" fill="#4c5948" opacity="0.08"/><rect x="747.98" y="83.32" width="15.08" height="1.44" rx="1" fill="#b77768" opacity="0.03" transform="rotate(53.97 747.98 83.32)"/><rect x="366.01" y="445.99" width="26.72" height="2.06" rx="1" fill="#b77768" opacity="0.03" transform="rotate(110.76 366.01 445.99)"/><circle cx="324.92" cy="547.14" r="0.93" fill="#4c5948" opacity="0.07"/><rect x="821.1" y="501.29" width="6.06" height="1.65" rx="1" fill="#b77768" opacity="0.07" transform="rotate(90.3 821.1 501.29)"/><rect x="413.39" y="1078.84" width="11.36" height="2.41" rx="1" fill="#b77768" opacity="0.05" transform="rotate(163.3 413.39 1078.84)"/><circle cx="505.45" cy="673.21" r="0.96" fill="#b77768" opacity="0.07"/><rect x="150.18" y="489.38" width="12.07" height="1.12" rx="1" fill="#4c5948" opacity="0.07" transform="rotate(47.16 150.18 489.38)"/><circle cx="177.75" cy="745.5" r="0.9" fill="#b77768" opacity="0.06"/><rect x="1146.98" y="496" width="7.97" height="1.13" rx="1" fill="#b77768" opacity="0.08" transform="rotate(149.35 1146.98 496)"/><circle cx="737.47" cy="527.41" r="1.3" fill="#b77768" opacity="0.03"/><rect x="474.4" y="462.99" width="21.91" height="1.56" rx="1" fill="#b77768" opacity="0.07" transform="rotate(143.55 474.4 462.99)"/><circle cx="1069.49" cy="251.86" r="0.97" fill="#4c5948" opacity="0.05"/><circle cx="1364.16" cy="593.01" r="2" fill="#b77768" opacity="0.06"/><rect x="1057.2" y="588.63" width="14.83" height="1.09" rx="1" fill="#4c5948" opacity="0.06" transform="rotate(76.1 1057.2 588.63)"/><rect x="923.24" y="258.05" width="16.18" height="2.18" rx="1" fill="#b77768" opacity="0.03" transform="rotate(111.22 923.24 258.05)"/><rect x="879.07" y="880.76" width="23.24" height="1.46" rx="1" fill="#b77768" opacity="0.04" transform="rotate(16.22 879.07 880.76)"/><rect x="240.73" y="714.6" width="24.14" height="0.88" rx="1" fill="#4c5948" opacity="0.05" transform="rotate(51.55 240.73 714.6)"/><circle cx="501.83" cy="80.16" r="1.69" fill="#4c5948" opacity="0.07"/><circle cx="1011.83" cy="799.97" r="1.34" fill="#4c5948" opacity="0.07"/><rect x="1521.49" y="403.39" width="19.47" height="2.31" rx="1" fill="#b77768" opacity="0.05" transform="rotate(108.8 1521.49 403.39)"/><rect x="384.16" y="417.61" width="18.3" height="1.84" rx="1" fill="#b77768" opacity="0.04" transform="rotate(148.66 384.16 417.61)"/><circle cx="1105.77" cy="795.5" r="0.96" fill="#b77768" opacity="0.07"/><rect x="955.3" y="1010.72" width="6.03" height="1.51" rx="1" fill="#4c5948" opacity="0.04" transform="rotate(64.49 955.3 1010.72)"/><circle cx="807.74" cy="574.47" r="2.09" fill="#b77768" opacity="0.06"/><circle cx="8.8" cy="774.06" r="2.04" fill="#4c5948" opacity="0.04"/><circle cx="1050.87" cy="49.51" r="0.86" fill="#4c5948" opacity="0.07"/><rect x="902.16" y="226.88" width="27.98" height="1.69" rx="1" fill="#b77768" opacity="0.07" transform="rotate(133.24 902.16 226.88)"/><circle cx="845.86" cy="560.32" r="0.77" fill="#4c5948" opacity="0.07"/><rect x="859.8" y="618.29" width="11.5" height="1.51" rx="1" fill="#b77768" opacity="0.04" transform="rotate(16.6 859.8 618.29)"/><circle cx="1505.72" cy="348.52" r="0.84" fill="#4c5948" opacity="0.04"/><rect x="561.94" y="0.06" width="7.31" height="2.33" rx="1" fill="#4c5948" opacity="0.03" transform="rotate(89.39 561.94 0.06)"/><rect x="665.91" y="975.22" width="9.15" height="1.78" rx="1" fill="#4c5948" opacity="0.07" transform="rotate(100.9 665.91 975.22)"/><circle cx="1187.75" cy="288.52" r="0.9" fill="#b77768" opacity="0.04"/><rect x="396.86" y="744.13" width="7.87" height="1.58" rx="1" fill="#b77768" opacity="0.06" transform="rotate(86.09 396.86 744.13)"/><rect x="376.04" y="558.07" width="15.29" height="2.5" rx="1" fill="#4c5948" opacity="0.04" transform="rotate(139.72 376.04 558.07)"/><rect x="1231.1" y="21.23" width="21.47" height="2.44" rx="1" fill="#4c5948" opacity="0.06" transform="rotate(133.84 1231.1 21.23)"/><rect x="21.98" y="702.15" width="23.05" height="1.16" rx="1" fill="#4c5948" opacity="0.06" transform="rotate(162.93 21.98 702.15)"/><rect x="445.65" y="137.05" width="9.36" height="1.45" rx="1" fill="#4c5948" opacity="0.05" transform="rotate(10.31 445.65 137.05)"/><rect x="774.91" y="834.76" width="11.76" height="1.8" rx="1" fill="#b77768" opacity="0.04" transform="rotate(135.64 774.91 834.76)"/><circle cx="527.54" cy="459.92" r="1.67" fill="#4c5948" opacity="0.05"/><circle cx="1112.3" cy="553.67" r="1.69" fill="#b77768" opacity="0.05"/><circle cx="613.3" cy="633.02" r="0.84" fill="#b77768" opacity="0.04"/><rect x="1361.36" y="22.03" width="17.69" height="1.09" rx="1" fill="#4c5948" opacity="0.05" transform="rotate(172.24 1361.36 22.03)"/><rect x="573.93" y="282.51" width="27.94" height="1.86" rx="1" fill="#b77768" opacity="0.05" transform="rotate(80.24 573.93 282.51)"/><rect x="1477.59" y="94.81" width="15.7" height="0.82" rx="1" fill="#4c5948" opacity="0.06" transform="rotate(44.33 1477.59 94.81)"/><circle cx="1165.79" cy="672.91" r="1.83" fill="#4c5948" opacity="0.03"/><circle cx="717.4" cy="11.97" r="1.59" fill="#4c5948" opacity="0.07"/><rect x="532.58" y="666.36" width="18.2" height="1.47" rx="1" fill="#b77768" opacity="0.06" transform="rotate(162.25 532.58 666.36)"/><rect x="1301.36" y="553.01" width="14.28" height="1.71" rx="1" fill="#b77768" opacity="0.07" transform="rotate(113.78 1301.36 553.01)"/><rect x="925.29" y="97.24" width="12.1" height="0.84" rx="1" fill="#b77768" opacity="0.03" transform="rotate(33.12 925.29 97.24)"/><rect x="876.24" y="328.45" width="6.37" height="1.6" rx="1" fill="#b77768" opacity="0.05" transform="rotate(170.79 876.24 328.45)"/><rect x="931.42" y="1098.1" width="9.52" height="1.46" rx="1" fill="#b77768" opacity="0.03" transform="rotate(112 931.42 1098.1)"/><rect x="826.81" y="45.32" width="6.31" height="1.17" rx="1" fill="#b77768" opacity="0.05" transform="rotate(146.66 826.81 45.32)"/><rect x="642.9" y="513.31" width="7.85" height="2.11" rx="1" fill="#b77768" opacity="0.05" transform="rotate(100.74 642.9 513.31)"/><circle cx="885.5" cy="597.33" r="2.3" fill="#4c5948" opacity="0.03"/><circle cx="1561.81" cy="618.47" r="1.56" fill="#b77768" opacity="0.06"/><rect x="1215.89" y="670.75" width="19.21" height="2.1" rx="1" fill="#4c5948" opacity="0.07" transform="rotate(54.25 1215.89 670.75)"/><rect x="626.71" y="981" width="13.99" height="0.97" rx="1" fill="#b77768" opacity="0.06" transform="rotate(4.27 626.71 981)"/><rect x="664.26" y="497.93" width="21.42" height="1.86" rx="1" fill="#b77768" opacity="0.03" transform="rotate(178.42 664.26 497.93)"/><rect x="1049.18" y="806.87" width="25.21" height="1.1" rx="1" fill="#b77768" opacity="0.06" transform="rotate(129.91 1049.18 806.87)"/><rect x="736.71" y="721.09" width="25.08" height="1.43" rx="1" fill="#4c5948" opacity="0.08" transform="rotate(25.32 736.71 721.09)"/><circle cx="1201.77" cy="500.72" r="1.96" fill="#b77768" opacity="0.03"/><rect x="1330.88" y="1094.41" width="13.02" height="1.13" rx="1" fill="#b77768" opacity="0.06" transform="rotate(56.41 1330.88 1094.41)"/><circle cx="1292.33" cy="133.56" r="1.37" fill="#b77768" opacity="0.04"/><rect x="689.48" y="683.34" width="23.25" height="1.49" rx="1" fill="#4c5948" opacity="0.04" transform="rotate(57.63 689.48 683.34)"/><rect x="1257.41" y="529.32" width="6.93" height="1.95" rx="1" fill="#b77768" opacity="0.06" transform="rotate(58.01 1257.41 529.32)"/><rect x="94.01" y="615.01" width="7.49" height="1.21" rx="1" fill="#4c5948" opacity="0.05" transform="rotate(86.9 94.01 615.01)"/><rect x="707.36" y="1012.28" width="10.25" height="2.46" rx="1" fill="#4c5948" opacity="0.05" transform="rotate(90.66 707.36 1012.28)"/><rect x="1132.82" y="520.26" width="22.49" height="1.51" rx="1" fill="#b77768" opacity="0.03" transform="rotate(89.29 1132.82 520.26)"/><circle cx="1229.14" cy="127.11" r="1.55" fill="#4c5948" opacity="0.04"/><circle cx="828.48" cy="807.92" r="0.91" fill="#4c5948" opacity="0.08"/><rect x="676" y="250.41" width="19.65" height="1.81" rx="1" fill="#b77768" opacity="0.04" transform="rotate(94.83 676 250.41)"/><rect x="650.87" y="298.17" width="20.11" height="1.28" rx="1" fill="#b77768" opacity="0.03" transform="rotate(45.67 650.87 298.17)"/><circle cx="1266.3" cy="784.02" r="1.84" fill="#4c5948" opacity="0.08"/><rect x="195.72" y="653.46" width="15.61" height="1.16" rx="1" fill="#4c5948" opacity="0.05" transform="rotate(125.65 195.72 653.46)"/><circle cx="1034.48" cy="580.11" r="1.24" fill="#b77768" opacity="0.03"/><rect x="641.43" y="943.89" width="9.61" height="1.13" rx="1" fill="#4c5948" opacity="0.07" transform="rotate(18.89 641.43 943.89)"/><rect x="201.01" y="864.73" width="14.52" height="1.12" rx="1" fill="#4c5948" opacity="0.05" transform="rotate(174.9 201.01 864.73)"/><circle cx="399.53" cy="139.07" r="1.67" fill="#4c5948" opacity="0.05"/><circle cx="113.35" cy="208.45" r="1.7" fill="#4c5948" opacity="0.03"/><rect x="919.69" y="68.34" width="13.39" height="0.89" rx="1" fill="#b77768" opacity="0.07" transform="rotate(20.18 919.69 68.34)"/><circle cx="21.99" cy="934.3" r="1.94" fill="#4c5948" opacity="0.07"/><circle cx="165.41" cy="781.5" r="1.04" fill="#b77768" opacity="0.06"/><rect x="1259.1" y="248.92" width="15.4" height="1.41" rx="1" fill="#4c5948" opacity="0.07" transform="rotate(11.92 1259.1 248.92)"/><circle cx="519.74" cy="1022.01" r="0.83" fill="#4c5948" opacity="0.03"/><circle cx="1518.87" cy="101.43" r="1.28" fill="#4c5948" opacity="0.04"/><circle cx="872.87" cy="183.19" r="0.85" fill="#4c5948" opacity="0.05"/><rect x="820.03" y="201.7" width="7.41" height="0.95" rx="1" fill="#4c5948" opacity="0.06" transform="rotate(47.17 820.03 201.7)"/><rect x="617.46" y="8.68" width="16.99" height="1.85" rx="1" fill="#4c5948" opacity="0.03" transform="rotate(145.06 617.46 8.68)"/><rect x="268.77" y="297.4" width="6.48" height="1.08" rx="1" fill="#b77768" opacity="0.05" transform="rotate(174.4 268.77 297.4)"/><rect x="1104.85" y="91.52" width="15.17" height="1.29" rx="1" fill="#4c5948" opacity="0.03" transform="rotate(168.45 1104.85 91.52)"/><rect x="1084.06" y="32.22" width="16.59" height="2.59" rx="1" fill="#4c5948" opacity="0.08" transform="rotate(44 1084.06 32.22)"/><rect x="1.08" y="38.58" width="26.04" height="1.19" rx="1" fill="#4c5948" opacity="0.08" transform="rotate(87.7 1.08 38.58)"/><rect x="615.56" y="3.86" width="14.81" height="0.85" rx="1" fill="#4c5948" opacity="0.06" transform="rotate(150.86 615.56 3.86)"/><rect x="999.44" y="976.98" width="25.34" height="1.31" rx="1" fill="#4c5948" opacity="0.04" transform="rotate(16.56 999.44 976.98)"/><circle cx="831.32" cy="889.93" r="1.73" fill="#4c5948" opacity="0.03"/><circle cx="40.27" cy="915.08" r="1.95" fill="#b77768" opacity="0.03"/><rect x="459.4" y="985.11" width="17.2" height="1.93" rx="1" fill="#b77768" opacity="0.05" transform="rotate(138.03 459.4 985.11)"/><circle cx="951.9" cy="688.66" r="1.57" fill="#4c5948" opacity="0.07"/><rect x="1563.63" y="568.79" width="16.68" height="1.36" rx="1" fill="#b77768" opacity="0.06" transform="rotate(4.56 1563.63 568.79)"/><rect x="863.84" y="1075.93" width="17.38" height="1.54" rx="1" fill="#4c5948" opacity="0.03" transform="rotate(110.52 863.84 1075.93)"/>
  <circle cx="1350" cy="178" r="184" fill="#b77768" opacity="0.06"/>
  <circle cx="220" cy="894" r="220" fill="#9da98b" opacity="0.08"/>
  <g transform="rotate(-4 515 520)">
    <ellipse cx="531" cy="893.31" rx="174.9" ry="9.72" fill="#1f211d" opacity="0.12"/>
    <polygon points="350,320 515,250 680,320 680,790 350,790" fill="#ddb59f"/>
    <rect x="350" y="316" width="330" height="474" rx="8" fill="#fff8ef"/>
    <rect x="409.4" y="444.4" width="211.2" height="145.8" rx="8" fill="#586853"/>
    <text x="515" y="514.6" text-anchor="middle" class="brand" fill="#fff8ef" font-size="42.9">SORA</text>
    <rect x="468.8" y="286" width="92.4" height="18" rx="9" fill="#b77768"/>
  </g><g transform="rotate(6 855 570)">
    <ellipse cx="867" cy="811.3" rx="116.6" ry="5.76" fill="#1f211d" opacity="0.11"/>
    <path d="M 745 390 H 965 L 925.4 750 H 784.6 Z" fill="#fff8ef"/>
    <rect x="773.6" y="512.4" width="162.8" height="100.8" rx="8" fill="#586853"/>
    <text x="855" y="573.6" text-anchor="middle" class="brand" fill="#fff8ef" font-size="26.4">SO</text>
  </g><g transform="rotate(-5 1115 400)">
    <ellipse cx="1125" cy="489.6" rx="153.7" ry="16" fill="#1f211d" opacity="0.09"/>
    <rect x="970" y="320" width="290" height="160" rx="8" fill="#fff8ef"/>
    <text x="992" y="392" class="brand" fill="#4c5948" font-size="27.55">TAKEAWAY</text>
    <text x="994" y="425.6" class="micro" fill="#4c5948" opacity="0.62">BATCH 04 / DEMO</text>
    <circle cx="1218" cy="400" r="22" fill="#b77768"/>
  </g>
  <g opacity="0.72"><text x="78" y="1004" class="micro" fill="#4c5948">CAFE BRANDING</text><text x="78" y="1036" class="micro" fill="#4c5948" opacity="0.55">TEMPORARY DEMONSTRATION PORTFOLIO VISUAL / GALLERY-1</text></g>
</svg>
