<?xml version="1.0" encoding="UTF-8"?>
<svg xmlns="http://www.w3.org/2000/svg" width="1600" height="1100" viewBox="0 0 1600 1100" role="img" aria-labelledby="title desc">
  <title id="title">SORA gallery-4 demo portfolio mockup</title>
  <desc id="desc">Temporary fictional demonstration project imagery for portfolio presentation only, not client work.</desc>
  <defs>
    <linearGradient id="bg_sora_gallery_4" x1="0" y1="0" x2="1" y2="1">
      <stop offset="0%" stop-color="#fff8ef"/>
      <stop offset="58%" stop-color="#f5ece4"/>
      <stop offset="100%" stop-color="#ddb59f"/>
    </linearGradient>
    <radialGradient id="light_sora_gallery_4" cx="74%" cy="18%" r="64%">
      <stop offset="0%" stop-color="#ffffff" stop-opacity="0.62"/>
      <stop offset="100%" stop-color="#ffffff" stop-opacity="0"/>
    </radialGradient>
  </defs>
  <style><![CDATA[
    .brand { font-family: Georgia, Georgia, serif; font-weight: 500; letter-spacing: .02em; }
    .body { font-family: Arial, Arial, sans-serif; font-weight: 500; }
    .micro { font-family: Arial, Arial, sans-serif; font-size: 20px; font-weight: 700; letter-spacing: .12em; }
  ]]></style>
  <rect width="1600" height="1100" fill="url(#bg_sora_gallery_4)"/>
  <rect width="1600" height="1100" fill="url(#light_sora_gallery_4)"/>
  <rect x="949.04" y="1049.67" width="16.54" height="1.94" rx="1" fill="#4c5948" opacity="0.04" transform="rotate(124.62 949.04 1049.67)"/><rect x="867.61" y="998" width="18.34" height="2.05" rx="1" fill="#4c5948" opacity="0.08" transform="rotate(34.2 867.61 998)"/><circle cx="1529.91" cy="917.13" r="1.5" fill="#4c5948" opacity="0.04"/><circle cx="1156.98" cy="247.37" r="1.38" fill="#b77768" opacity="0.04"/><rect x="577.99" y="539.26" width="25.96" height="1.72" rx="1" fill="#4c5948" opacity="0.06" transform="rotate(75.61 577.99 539.26)"/><rect x="716.7" y="120.41" width="17.21" height="1.17" rx="1" fill="#4c5948" opacity="0.03" transform="rotate(158.57 716.7 120.41)"/><rect x="1056.97" y="875.3" width="25.66" height="0.81" rx="1" fill="#4c5948" opacity="0.07" transform="rotate(150.42 1056.97 875.3)"/><circle cx="1402.36" cy="500.71" r="1.54" fill="#4c5948" opacity="0.06"/><rect x="191.62" y="1046.71" width="26.2" height="2.44" rx="1" fill="#4c5948" opacity="0.04" transform="rotate(51.89 191.62 1046.71)"/><circle cx="10.04" cy="333.91" r="1.58" fill="#b77768" opacity="0.06"/><rect x="949.93" y="590.04" width="8.88" height="0.9" rx="1" fill="#b77768" opacity="0.05" transform="rotate(138.79 949.93 590.04)"/><rect x="1222.67" y="1013.04" width="14.53" height="2.31" rx="1" fill="#b77768" opacity="0.08" transform="rotate(15.49 1222.67 1013.04)"/><rect x="815.01" y="1068.08" width="9.91" height="1.21" rx="1" fill="#b77768" opacity="0.07" transform="rotate(115.98 815.01 1068.08)"/><rect x="808.59" y="212.94" width="8.72" height="1.03" rx="1" fill="#4c5948" opacity="0.03" transform="rotate(74.03 808.59 212.94)"/><rect x="1103.2" y="713.42" width="21.36" height="1.25" rx="1" fill="#4c5948" opacity="0.08" transform="rotate(25.55 1103.2 713.42)"/><rect x="936.58" y="785.32" width="19.68" height="1.2" rx="1" fill="#4c5948" opacity="0.05" transform="rotate(71.1 936.58 785.32)"/><circle cx="279.76" cy="478.6" r="1.42" fill="#4c5948" opacity="0.04"/><circle cx="588.37" cy="726.74" r="2.01" fill="#b77768" opacity="0.07"/><rect x="1044.8" y="959.2" width="16.95" height="2.56" rx="1" fill="#b77768" opacity="0.03" transform="rotate(147.87 1044.8 959.2)"/><rect x="496.78" y="1065.26" width="18.07" height="2" rx="1" fill="#4c5948" opacity="0.06" transform="rotate(146.7 496.78 1065.26)"/><rect x="554.2" y="984.97" width="26.26" height="1.63" rx="1" fill="#4c5948" opacity="0.06" transform="rotate(76.55 554.2 984.97)"/><rect x="342.35" y="27.74" width="24.36" height="2.03" rx="1" fill="#4c5948" opacity="0.05" transform="rotate(42.06 342.35 27.74)"/><rect x="1559.2" y="940.83" width="14.77" height="1.75" rx="1" fill="#4c5948" opacity="0.04" transform="rotate(112.46 1559.2 940.83)"/><circle cx="579.63" cy="605.28" r="1.81" fill="#b77768" opacity="0.03"/><rect x="1505.07" y="444.78" width="16.51" height="2.28" rx="1" fill="#b77768" opacity="0.04" transform="rotate(24.32 1505.07 444.78)"/><circle cx="1253.75" cy="1091.55" r="0.89" fill="#b77768" opacity="0.04"/><rect x="748.26" y="692.75" width="27.56" height="1.99" rx="1" fill="#4c5948" opacity="0.07" transform="rotate(20.9 748.26 692.75)"/><circle cx="154.31" cy="164.07" r="1.43" fill="#4c5948" opacity="0.06"/><rect x="1021.39" y="65.33" width="11.61" height="0.84" rx="1" fill="#b77768" opacity="0.07" transform="rotate(77.48 1021.39 65.33)"/><circle cx="886.35" cy="121.39" r="2.3" fill="#4c5948" opacity="0.08"/><rect x="615.32" y="674.24" width="15.03" height="1.44" rx="1" fill="#4c5948" opacity="0.07" transform="rotate(178.17 615.32 674.24)"/><rect x="1512.26" y="433.02" width="16.95" height="0.99" rx="1" fill="#b77768" opacity="0.07" transform="rotate(129.68 1512.26 433.02)"/><circle cx="200.17" cy="803.57" r="1.68" fill="#4c5948" opacity="0.03"/><rect x="166.24" y="1068.92" width="17.4" height="1.45" rx="1" fill="#b77768" opacity="0.06" transform="rotate(94.78 166.24 1068.92)"/><rect x="413.78" y="216.65" width="9.99" height="1.88" rx="1" fill="#b77768" opacity="0.04" transform="rotate(127.87 413.78 216.65)"/><rect x="169.03" y="138.96" width="10.57" height="1.19" rx="1" fill="#b77768" opacity="0.04" transform="rotate(124.42 169.03 138.96)"/><rect x="1565.31" y="7.43" width="27.83" height="1.68" rx="1" fill="#4c5948" opacity="0.03" transform="rotate(55.33 1565.31 7.43)"/><rect x="1233.76" y="247.16" width="27.02" height="2.55" rx="1" fill="#4c5948" opacity="0.03" transform="rotate(141.15 1233.76 247.16)"/><circle cx="1177.18" cy="295.79" r="0.76" fill="#4c5948" opacity="0.04"/><rect x="1197.05" y="1095.17" width="27.26" height="2.41" rx="1" fill="#b77768" opacity="0.07" transform="rotate(116.73 1197.05 1095.17)"/><rect x="1019.66" y="886.02" width="19.3" height="1.91" rx="1" fill="#b77768" opacity="0.07" transform="rotate(78.24 1019.66 886.02)"/><circle cx="1373.01" cy="184.58" r="0.91" fill="#4c5948" opacity="0.08"/><rect x="200.83" y="9.46" width="21" height="2.03" rx="1" fill="#4c5948" opacity="0.08" transform="rotate(40.63 200.83 9.46)"/><circle cx="564.26" cy="512.65" r="1.1" fill="#4c5948" opacity="0.07"/><rect x="414.33" y="918.4" width="24.32" height="2.01" rx="1" fill="#4c5948" opacity="0.08" transform="rotate(63.88 414.33 918.4)"/><rect x="63.82" y="109.83" width="15.65" height="1.95" rx="1" fill="#4c5948" opacity="0.03" transform="rotate(129.72 63.82 109.83)"/><rect x="1037.1" y="688.97" width="19.09" height="1.75" rx="1" fill="#b77768" opacity="0.05" transform="rotate(68.01 1037.1 688.97)"/><rect x="1336.04" y="1015.09" width="18.07" height="2.29" rx="1" fill="#b77768" opacity="0.05" transform="rotate(173.28 1336.04 1015.09)"/><circle cx="1115.61" cy="458.15" r="1.78" fill="#b77768" opacity="0.05"/><rect x="723.41" y="291.85" width="6.16" height="0.94" rx="1" fill="#4c5948" opacity="0.06" transform="rotate(64.33 723.41 291.85)"/><rect x="1337.21" y="29.05" width="14.88" height="2.46" rx="1" fill="#4c5948" opacity="0.06" transform="rotate(22.91 1337.21 29.05)"/><circle cx="749.12" cy="193.92" r="1.95" fill="#4c5948" opacity="0.06"/><rect x="37.99" y="778.05" width="13.27" height="1.67" rx="1" fill="#b77768" opacity="0.07" transform="rotate(149.12 37.99 778.05)"/><circle cx="567.39" cy="673" r="1.69" fill="#b77768" opacity="0.06"/><rect x="40.81" y="294.2" width="15.74" height="2.34" rx="1" fill="#4c5948" opacity="0.05" transform="rotate(6.68 40.81 294.2)"/><rect x="597.57" y="1008.96" width="18.08" height="1.25" rx="1" fill="#b77768" opacity="0.06" transform="rotate(87.42 597.57 1008.96)"/><circle cx="557.44" cy="772.3" r="1.58" fill="#b77768" opacity="0.05"/><circle cx="137.86" cy="456.78" r="1.08" fill="#b77768" opacity="0.08"/><rect x="1408.45" y="687.84" width="26.76" height="1.39" rx="1" fill="#b77768" opacity="0.05" transform="rotate(34.68 1408.45 687.84)"/><circle cx="451.68" cy="550.82" r="1.1" fill="#4c5948" opacity="0.06"/><rect x="1571.28" y="555.88" width="20.77" height="1.21" rx="1" fill="#b77768" opacity="0.04" transform="rotate(30.2 1571.28 555.88)"/><rect x="554.02" y="128.9" width="20.2" height="2.14" rx="1" fill="#b77768" opacity="0.06" transform="rotate(27.43 554.02 128.9)"/><rect x="1238.49" y="883.88" width="9.79" height="0.87" rx="1" fill="#b77768" opacity="0.04" transform="rotate(109.02 1238.49 883.88)"/><circle cx="439.84" cy="674.8" r="0.95" fill="#b77768" opacity="0.08"/><circle cx="1132.75" cy="721.51" r="1.69" fill="#b77768" opacity="0.03"/><circle cx="1469.61" cy="1005.21" r="2.28" fill="#b77768" opacity="0.06"/><circle cx="1105.47" cy="257.72" r="1.44" fill="#b77768" opacity="0.07"/><rect x="467.38" y="338.26" width="19.9" height="1.96" rx="1" fill="#4c5948" opacity="0.05" transform="rotate(28.03 467.38 338.26)"/><rect x="807.44" y="1092.5" width="15.4" height="2.58" rx="1" fill="#b77768" opacity="0.06" transform="rotate(175.83 807.44 1092.5)"/><rect x="991.54" y="25.08" width="15.15" height="0.89" rx="1" fill="#4c5948" opacity="0.06" transform="rotate(3.88 991.54 25.08)"/><circle cx="331.54" cy="524.5" r="1.02" fill="#b77768" opacity="0.07"/><circle cx="1028.79" cy="507.84" r="1.49" fill="#4c5948" opacity="0.03"/><rect x="477.35" y="331.58" width="22.35" height="0.97" rx="1" fill="#b77768" opacity="0.08" transform="rotate(26.78 477.35 331.58)"/><rect x="26.67" y="781.32" width="21.37" height="1.63" rx="1" fill="#b77768" opacity="0.04" transform="rotate(160.86 26.67 781.32)"/><rect x="1376.51" y="250.25" width="6.98" height="1.31" rx="1" fill="#4c5948" opacity="0.03" transform="rotate(117.3 1376.51 250.25)"/><rect x="1078.51" y="967.47" width="25.79" height="1.31" rx="1" fill="#b77768" opacity="0.06" transform="rotate(157.8 1078.51 967.47)"/><rect x="431.79" y="910.98" width="27.1" height="1.33" rx="1" fill="#b77768" opacity="0.05" transform="rotate(51.07 431.79 910.98)"/><circle cx="316.89" cy="857.08" r="1.79" fill="#4c5948" opacity="0.08"/><rect x="1165.7" y="690.55" width="13.58" height="2.27" rx="1" fill="#4c5948" opacity="0.05" transform="rotate(98.85 1165.7 690.55)"/><rect x="102.99" y="599.51" width="7.34" height="1.83" rx="1" fill="#b77768" opacity="0.05" transform="rotate(2.78 102.99 599.51)"/><rect x="1145.08" y="595.99" width="9.43" height="1.98" rx="1" fill="#4c5948" opacity="0.05" transform="rotate(120.69 1145.08 595.99)"/><rect x="1376.66" y="15.47" width="18.92" height="1.06" rx="1" fill="#b77768" opacity="0.08" transform="rotate(16.62 1376.66 15.47)"/><rect x="114.72" y="980.58" width="16.57" height="2.18" rx="1" fill="#4c5948" opacity="0.03" transform="rotate(145.47 114.72 980.58)"/><rect x="731.83" y="1070.67" width="19.86" height="2.15" rx="1" fill="#4c5948" opacity="0.06" transform="rotate(141.68 731.83 1070.67)"/><rect x="717.48" y="1085.63" width="6.19" height="1.12" rx="1" fill="#b77768" opacity="0.05" transform="rotate(122.06 717.48 1085.63)"/><circle cx="472.81" cy="818.73" r="1.57" fill="#4c5948" opacity="0.06"/><rect x="92.76" y="414.33" width="8.15" height="2.3" rx="1" fill="#4c5948" opacity="0.03" transform="rotate(106.74 92.76 414.33)"/><rect x="93.32" y="54.1" width="25.89" height="2.2" rx="1" fill="#b77768" opacity="0.07" transform="rotate(124.66 93.32 54.1)"/><rect x="1578.53" y="546.6" width="25.56" height="2.02" rx="1" fill="#b77768" opacity="0.03" transform="rotate(85.68 1578.53 546.6)"/><rect x="653.03" y="847.46" width="19.31" height="0.88" rx="1" fill="#b77768" opacity="0.04" transform="rotate(173.81 653.03 847.46)"/><rect x="423.62" y="1011.01" width="14.29" height="1.27" rx="1" fill="#b77768" opacity="0.07" transform="rotate(167.01 423.62 1011.01)"/><circle cx="821.71" cy="185.66" r="1.51" fill="#4c5948" opacity="0.05"/><rect x="520.21" y="0.68" width="24.66" height="0.93" rx="1" fill="#b77768" opacity="0.04" transform="rotate(83.89 520.21 0.68)"/><circle cx="416.13" cy="113.72" r="2.21" fill="#4c5948" opacity="0.05"/><circle cx="1429.08" cy="721.69" r="1.91" fill="#b77768" opacity="0.04"/><circle cx="295.4" cy="304.63" r="0.74" fill="#4c5948" opacity="0.06"/><circle cx="96.15" cy="567.92" r="1.66" fill="#4c5948" opacity="0.03"/><rect x="1176.91" y="637.43" width="20.81" height="1.21" rx="1" fill="#4c5948" opacity="0.07" transform="rotate(5.75 1176.91 637.43)"/><circle cx="671.69" cy="257.54" r="2.24" fill="#b77768" opacity="0.07"/><circle cx="356.21" cy="509.27" r="1.23" fill="#4c5948" opacity="0.05"/><circle cx="19.59" cy="197.35" r="0.94" fill="#b77768" opacity="0.04"/><rect x="685.07" y="332.37" width="21.73" height="1.72" rx="1" fill="#4c5948" opacity="0.03" transform="rotate(178.69 685.07 332.37)"/><rect x="1411.33" y="799.54" width="24.12" height="0.94" rx="1" fill="#b77768" opacity="0.07" transform="rotate(35.94 1411.33 799.54)"/><circle cx="8.6" cy="211.43" r="0.9" fill="#b77768" opacity="0.03"/><rect x="6.63" y="235.51" width="25.47" height="2.14" rx="1" fill="#b77768" opacity="0.07" transform="rotate(78.47 6.63 235.51)"/><circle cx="27.88" cy="869.79" r="2.17" fill="#4c5948" opacity="0.03"/><rect x="231.97" y="389.33" width="17.02" height="1.97" rx="1" fill="#4c5948" opacity="0.07" transform="rotate(31.6 231.97 389.33)"/><rect x="528.76" y="273.2" width="7.94" height="1.96" rx="1" fill="#b77768" opacity="0.03" transform="rotate(105.02 528.76 273.2)"/><circle cx="463.74" cy="461.6" r="1.99" fill="#b77768" opacity="0.04"/><rect x="552.25" y="357.42" width="11.79" height="2.11" rx="1" fill="#b77768" opacity="0.08" transform="rotate(151.38 552.25 357.42)"/><circle cx="598.8" cy="676.95" r="2.19" fill="#4c5948" opacity="0.08"/><circle cx="1165.03" cy="375.76" r="1.64" fill="#4c5948" opacity="0.06"/><rect x="795.34" y="402.78" width="18.45" height="0.96" rx="1" fill="#4c5948" opacity="0.06" transform="rotate(43.75 795.34 402.78)"/><rect x="1106.5" y="178.37" width="24.63" height="1.35" rx="1" fill="#b77768" opacity="0.04" transform="rotate(56.98 1106.5 178.37)"/><rect x="1193.24" y="506.52" width="22.92" height="0.93" rx="1" fill="#4c5948" opacity="0.04" transform="rotate(150.53 1193.24 506.52)"/><rect x="1300.62" y="54.55" width="23.53" height="1.36" rx="1" fill="#4c5948" opacity="0.04" transform="rotate(8.79 1300.62 54.55)"/><rect x="705.15" y="1072.5" width="10.9" height="1.49" rx="1" fill="#b77768" opacity="0.03" transform="rotate(81.45 705.15 1072.5)"/><circle cx="1163.04" cy="167.97" r="1.01" fill="#b77768" opacity="0.05"/><circle cx="1094.25" cy="886.31" r="2.06" fill="#4c5948" opacity="0.05"/><rect x="45.48" y="509.11" width="6.49" height="0.85" rx="1" fill="#4c5948" opacity="0.07" transform="rotate(83.71 45.48 509.11)"/><rect x="1065.36" y="510.05" width="21.13" height="2.42" rx="1" fill="#b77768" opacity="0.05" transform="rotate(150.81 1065.36 510.05)"/><circle cx="822.32" cy="911.09" r="0.71" fill="#4c5948" opacity="0.08"/><rect x="891.9" y="595.23" width="16.57" height="2.53" rx="1" fill="#b77768" opacity="0.07" transform="rotate(18.34 891.9 595.23)"/><circle cx="1188.67" cy="965.39" r="0.83" fill="#b77768" opacity="0.07"/><rect x="898.96" y="261.05" width="23" height="1.48" rx="1" fill="#4c5948" opacity="0.05" transform="rotate(58.25 898.96 261.05)"/><rect x="663.59" y="823.96" width="14.4" height="1.46" rx="1" fill="#b77768" opacity="0.05" transform="rotate(118.52 663.59 823.96)"/><rect x="1180.72" y="887.57" width="16.94" height="1.42" rx="1" fill="#b77768" opacity="0.04" transform="rotate(116.63 1180.72 887.57)"/><rect x="200.19" y="855.08" width="16.77" height="2.39" rx="1" fill="#4c5948" opacity="0.06" transform="rotate(158.59 200.19 855.08)"/><circle cx="582.88" cy="159.9" r="1.16" fill="#4c5948" opacity="0.05"/><rect x="378.07" y="408.07" width="25.75" height="2.32" rx="1" fill="#b77768" opacity="0.04" transform="rotate(82.83 378.07 408.07)"/><circle cx="364.53" cy="346.76" r="1.06" fill="#4c5948" opacity="0.08"/><rect x="1223.09" y="97.22" width="23.09" height="1.18" rx="1" fill="#b77768" opacity="0.07" transform="rotate(173.23 1223.09 97.22)"/><rect x="530.32" y="71.02" width="15.35" height="2.4" rx="1" fill="#b77768" opacity="0.08" transform="rotate(53.79 530.32 71.02)"/><circle cx="1122.92" cy="959.3" r="0.72" fill="#4c5948" opacity="0.06"/><circle cx="101.64" cy="380.4" r="1.8" fill="#b77768" opacity="0.04"/><rect x="985.63" y="899.5" width="23.79" height="2.05" rx="1" fill="#b77768" opacity="0.07" transform="rotate(18.61 985.63 899.5)"/><circle cx="1463.26" cy="283.56" r="1.73" fill="#b77768" opacity="0.07"/><circle cx="926.96" cy="544.28" r="1.05" fill="#b77768" opacity="0.07"/><circle cx="278.4" cy="864.58" r="1.96" fill="#4c5948" opacity="0.06"/><circle cx="1558.05" cy="189.41" r="0.93" fill="#b77768" opacity="0.04"/>
  <circle cx="1350" cy="178" r="184" fill="#b77768" opacity="0.06"/>
  <circle cx="220" cy="894" r="220" fill="#9da98b" opacity="0.08"/>
  <g transform="rotate(-4 525 435)">
      <ellipse cx="325" cy="494.32" rx="44.52" ry="4.2" fill="#1f211d" opacity="0.08"/>
      <rect x="275" y="370" width="86" height="116" rx="8" fill="#fff8ef"/>
      <text x="287" y="466" class="micro" fill="#4c5948" opacity="0.62">01</text>
    
      <ellipse cx="429" cy="494.32" rx="44.52" ry="4.2" fill="#1f211d" opacity="0.08"/>
      <rect x="379" y="370" width="86" height="116" rx="8" fill="#ddb59f"/>
      <text x="391" y="466" class="micro" fill="#4c5948" opacity="0.62">02</text>
    
      <ellipse cx="533" cy="494.32" rx="44.52" ry="4.2" fill="#1f211d" opacity="0.08"/>
      <rect x="483" y="370" width="86" height="116" rx="8" fill="#b77768"/>
      <text x="495" y="466" class="micro" fill="#4c5948" opacity="0.62">03</text>
    
      <ellipse cx="637" cy="494.32" rx="44.52" ry="4.2" fill="#1f211d" opacity="0.08"/>
      <rect x="587" y="370" width="86" height="116" rx="8" fill="#9da98b"/>
      <text x="599" y="466" class="micro" fill="#4c5948" opacity="0.62">04</text>
    
      <ellipse cx="741" cy="494.32" rx="44.52" ry="4.2" fill="#1f211d" opacity="0.08"/>
      <rect x="691" y="370" width="86" height="116" rx="8" fill="#586853"/>
      <text x="703" y="466" class="micro" fill="#fff8ef" opacity="0.62">05</text>
    </g><g transform="rotate(5 955 505)">
    <ellipse cx="971" cy="811.03" rx="143.1" ry="7.92" fill="#1f211d" opacity="0.12"/>
    <polygon points="820,355 955,285 1090,355 1090,725 820,725" fill="#ddb59f"/>
    <rect x="820" y="351" width="270" height="374" rx="8" fill="#fff8ef"/>
    <rect x="868.6" y="443.4" width="172.8" height="118.8" rx="8" fill="#586853"/>
    <text x="955" y="500.6" text-anchor="middle" class="brand" fill="#fff8ef" font-size="35.1">BEANS</text>
    <rect x="917.2" y="321" width="75.6" height="18" rx="9" fill="#b77768"/>
  </g><g transform="rotate(-6 1165 740)">
    <ellipse cx="1181" cy="848.8" rx="143.1" ry="18" fill="#1f211d" opacity="0.11"/>
    <rect x="1030" y="650" width="270" height="180" rx="10" fill="#fff8ef"/>
    <rect x="1048" y="668" width="234" height="144" rx="5" fill="none" stroke="#4c5948" stroke-opacity="0.11"/>
    <rect x="1064" y="692" width="59.4" height="4" rx="2" fill="#b77768" opacity="0.84"/>
    <text x="1064" y="711.2" class="brand" fill="#4c5948" font-size="32.4">CUP PAPER</text>
    <text x="1066" y="745.2" class="micro" fill="#4c5948" opacity="0.65">STOCK</text>
    <rect x="1066" y="754.4" width="73.87" height="3" rx="2" fill="#4c5948" opacity="0.42"/><rect x="1066" y="776.4" width="110.81" height="2" rx="2" fill="#4c5948" opacity="0.22"/><rect x="1066" y="798.4" width="147.74" height="2" rx="2" fill="#4c5948" opacity="0.22"/>
    
  </g>
  <g opacity="0.72"><text x="78" y="1004" class="micro" fill="#4c5948">CAFE BRANDING</text><text x="78" y="1036" class="micro" fill="#4c5948" opacity="0.55">TEMPORARY DEMONSTRATION PORTFOLIO VISUAL / GALLERY-4</text></g>
</svg>
