<?xml version="1.0" encoding="UTF-8"?>
<svg xmlns="http://www.w3.org/2000/svg" width="1600" height="1100" viewBox="0 0 1600 1100" role="img" aria-labelledby="title desc">
  <title id="title">SORA gallery-3 demo portfolio mockup</title>
  <desc id="desc">Temporary fictional demonstration project imagery for portfolio presentation only, not client work.</desc>
  <defs>
    <linearGradient id="bg_sora_gallery_3" x1="0" y1="0" x2="1" y2="1">
      <stop offset="0%" stop-color="#fff8ef"/>
      <stop offset="58%" stop-color="#f5ece4"/>
      <stop offset="100%" stop-color="#ddb59f"/>
    </linearGradient>
    <radialGradient id="light_sora_gallery_3" cx="74%" cy="18%" r="64%">
      <stop offset="0%" stop-color="#ffffff" stop-opacity="0.62"/>
      <stop offset="100%" stop-color="#ffffff" stop-opacity="0"/>
    </radialGradient>
  </defs>
  <style><![CDATA[
    .brand { font-family: Georgia, Georgia, serif; font-weight: 500; letter-spacing: .02em; }
    .body { font-family: Arial, Arial, sans-serif; font-weight: 500; }
    .micro { font-family: Arial, Arial, sans-serif; font-size: 20px; font-weight: 700; letter-spacing: .12em; }
  ]]></style>
  <rect width="1600" height="1100" fill="url(#bg_sora_gallery_3)"/>
  <rect width="1600" height="1100" fill="url(#light_sora_gallery_3)"/>
  <rect x="1170.39" y="1027.51" width="22.47" height="1.3" rx="1" fill="#b77768" opacity="0.06" transform="rotate(12.8 1170.39 1027.51)"/><circle cx="1000.15" cy="1068.34" r="2.23" fill="#4c5948" opacity="0.05"/><circle cx="1402.49" cy="953.64" r="1.15" fill="#b77768" opacity="0.08"/><rect x="751.32" y="1041.55" width="17.75" height="2.06" rx="1" fill="#b77768" opacity="0.07" transform="rotate(19.36 751.32 1041.55)"/><rect x="105.3" y="994.79" width="22.78" height="1.52" rx="1" fill="#4c5948" opacity="0.03" transform="rotate(40.26 105.3 994.79)"/><rect x="373.77" y="24.73" width="23.1" height="2.18" rx="1" fill="#b77768" opacity="0.06" transform="rotate(77.46 373.77 24.73)"/><circle cx="1427.87" cy="210.92" r="0.81" fill="#b77768" opacity="0.03"/><rect x="745.48" y="847.25" width="17.2" height="2.33" rx="1" fill="#4c5948" opacity="0.07" transform="rotate(26.47 745.48 847.25)"/><circle cx="522" cy="702.55" r="1.12" fill="#b77768" opacity="0.04"/><circle cx="735" cy="30.03" r="1.69" fill="#b77768" opacity="0.04"/><rect x="101.69" y="484.74" width="12.37" height="2.28" rx="1" fill="#4c5948" opacity="0.07" transform="rotate(63.33 101.69 484.74)"/><circle cx="1219.13" cy="210.74" r="1.28" fill="#b77768" opacity="0.08"/><rect x="947.26" y="272.62" width="24.71" height="2.13" rx="1" fill="#b77768" opacity="0.07" transform="rotate(28.62 947.26 272.62)"/><circle cx="657.45" cy="894.35" r="1.3" fill="#4c5948" opacity="0.08"/><circle cx="808.17" cy="388.91" r="1.89" fill="#b77768" opacity="0.04"/><circle cx="781.59" cy="511.95" r="1.1" fill="#b77768" opacity="0.03"/><rect x="651.02" y="1.47" width="19.64" height="1.25" rx="1" fill="#4c5948" opacity="0.07" transform="rotate(111.01 651.02 1.47)"/><rect x="85.82" y="827.84" width="17.46" height="2.49" rx="1" fill="#4c5948" opacity="0.04" transform="rotate(179.46 85.82 827.84)"/><circle cx="1193.98" cy="351.68" r="1.13" fill="#b77768" opacity="0.07"/><rect x="1176.08" y="254.31" width="27.84" height="1.1" rx="1" fill="#4c5948" opacity="0.03" transform="rotate(19.43 1176.08 254.31)"/><rect x="856.31" y="509.64" width="27.61" height="2.32" rx="1" fill="#4c5948" opacity="0.06" transform="rotate(96.12 856.31 509.64)"/><circle cx="622.23" cy="996.7" r="1.62" fill="#4c5948" opacity="0.05"/><rect x="385.4" y="451.45" width="14.44" height="1.81" rx="1" fill="#b77768" opacity="0.07" transform="rotate(133.48 385.4 451.45)"/><rect x="1587.66" y="749.86" width="16.21" height="2.23" rx="1" fill="#4c5948" opacity="0.08" transform="rotate(41.92 1587.66 749.86)"/><rect x="128.66" y="239.28" width="17.68" height="2.5" rx="1" fill="#b77768" opacity="0.06" transform="rotate(6.57 128.66 239.28)"/><rect x="13" y="272.3" width="16.85" height="1.45" rx="1" fill="#b77768" opacity="0.06" transform="rotate(33.28 13 272.3)"/><circle cx="199.64" cy="571.96" r="0.91" fill="#b77768" opacity="0.04"/><rect x="576.35" y="620.42" width="18.22" height="2.03" rx="1" fill="#4c5948" opacity="0.04" transform="rotate(116.73 576.35 620.42)"/><circle cx="402.09" cy="121.14" r="0.79" fill="#4c5948" opacity="0.03"/><rect x="834.92" y="703.24" width="16.82" height="1.76" rx="1" fill="#4c5948" opacity="0.06" transform="rotate(68.35 834.92 703.24)"/><rect x="769.25" y="22.48" width="23.07" height="1.49" rx="1" fill="#b77768" opacity="0.07" transform="rotate(46.96 769.25 22.48)"/><rect x="81.94" y="431.74" width="24.21" height="1.07" rx="1" fill="#b77768" opacity="0.04" transform="rotate(71.35 81.94 431.74)"/><rect x="1407.5" y="422.04" width="19.82" height="1.6" rx="1" fill="#b77768" opacity="0.06" transform="rotate(114.41 1407.5 422.04)"/><rect x="1159.26" y="951.26" width="22.98" height="1.6" rx="1" fill="#4c5948" opacity="0.07" transform="rotate(73.11 1159.26 951.26)"/><rect x="1536.76" y="1048.38" width="25.3" height="2.39" rx="1" fill="#b77768" opacity="0.06" transform="rotate(126.39 1536.76 1048.38)"/><circle cx="409.95" cy="122.8" r="1.71" fill="#4c5948" opacity="0.07"/><circle cx="668.57" cy="910.13" r="2.17" fill="#b77768" opacity="0.07"/><rect x="1260.4" y="918.03" width="15.14" height="2.4" rx="1" fill="#4c5948" opacity="0.04" transform="rotate(112.91 1260.4 918.03)"/><rect x="944.02" y="469.49" width="16.5" height="1" rx="1" fill="#b77768" opacity="0.04" transform="rotate(96.06 944.02 469.49)"/><rect x="1219.43" y="457.73" width="12.94" height="1.22" rx="1" fill="#b77768" opacity="0.07" transform="rotate(76.04 1219.43 457.73)"/><circle cx="709.87" cy="572.39" r="2.11" fill="#b77768" opacity="0.04"/><circle cx="1003.32" cy="54.36" r="1.44" fill="#4c5948" opacity="0.06"/><rect x="1348.74" y="898.73" width="16.73" height="0.9" rx="1" fill="#b77768" opacity="0.06" transform="rotate(159.44 1348.74 898.73)"/><rect x="208.73" y="737.94" width="17.61" height="1.53" rx="1" fill="#4c5948" opacity="0.07" transform="rotate(68.3 208.73 737.94)"/><rect x="90.62" y="468.12" width="21.35" height="1.77" rx="1" fill="#b77768" opacity="0.03" transform="rotate(45.13 90.62 468.12)"/><rect x="1400.93" y="148.32" width="16.09" height="2.52" rx="1" fill="#4c5948" opacity="0.03" transform="rotate(47.67 1400.93 148.32)"/><rect x="968.79" y="753.38" width="19.44" height="0.81" rx="1" fill="#b77768" opacity="0.05" transform="rotate(63.31 968.79 753.38)"/><rect x="123.51" y="558.13" width="24.08" height="1.08" rx="1" fill="#4c5948" opacity="0.07" transform="rotate(31.78 123.51 558.13)"/><rect x="716.99" y="250.8" width="27.04" height="2.2" rx="1" fill="#4c5948" opacity="0.06" transform="rotate(42.55 716.99 250.8)"/><circle cx="1310.7" cy="290.43" r="2.14" fill="#4c5948" opacity="0.05"/><rect x="429.64" y="678.62" width="20.55" height="2.34" rx="1" fill="#b77768" opacity="0.05" transform="rotate(18.58 429.64 678.62)"/><rect x="513.91" y="47.85" width="12.35" height="2.52" rx="1" fill="#b77768" opacity="0.04" transform="rotate(134.49 513.91 47.85)"/><rect x="40.87" y="311.72" width="21.4" height="0.81" rx="1" fill="#4c5948" opacity="0.04" transform="rotate(49.47 40.87 311.72)"/><circle cx="1527.57" cy="918.87" r="1.42" fill="#b77768" opacity="0.06"/><circle cx="1072.77" cy="71.01" r="1.99" fill="#b77768" opacity="0.08"/><rect x="165.65" y="580.79" width="7.39" height="1.86" rx="1" fill="#4c5948" opacity="0.08" transform="rotate(38.03 165.65 580.79)"/><circle cx="1404.2" cy="175.94" r="0.87" fill="#b77768" opacity="0.05"/><rect x="951.38" y="934.73" width="13.24" height="1.33" rx="1" fill="#b77768" opacity="0.07" transform="rotate(81.24 951.38 934.73)"/><circle cx="465.72" cy="664.44" r="1.95" fill="#b77768" opacity="0.08"/><rect x="943.78" y="952.09" width="23.19" height="2.49" rx="1" fill="#b77768" opacity="0.06" transform="rotate(38.81 943.78 952.09)"/><rect x="1178.54" y="333.06" width="6.62" height="1.66" rx="1" fill="#4c5948" opacity="0.06" transform="rotate(143.91 1178.54 333.06)"/><circle cx="810.44" cy="791.12" r="1.12" fill="#b77768" opacity="0.05"/><rect x="1085.77" y="397.42" width="9.14" height="1.22" rx="1" fill="#4c5948" opacity="0.03" transform="rotate(27.02 1085.77 397.42)"/><circle cx="167.52" cy="160.78" r="1.1" fill="#b77768" opacity="0.05"/><circle cx="829.14" cy="475.09" r="1.76" fill="#4c5948" opacity="0.04"/><circle cx="970.33" cy="13.38" r="1.07" fill="#b77768" opacity="0.06"/><rect x="1105.27" y="720.41" width="14.21" height="1.24" rx="1" fill="#b77768" opacity="0.04" transform="rotate(8.42 1105.27 720.41)"/><rect x="919.68" y="1082.2" width="22.5" height="0.86" rx="1" fill="#b77768" opacity="0.06" transform="rotate(156.32 919.68 1082.2)"/><circle cx="1529.81" cy="707.59" r="1.61" fill="#4c5948" opacity="0.03"/><rect x="437.3" y="344.56" width="9.55" height="0.9" rx="1" fill="#4c5948" opacity="0.07" transform="rotate(165.17 437.3 344.56)"/><circle cx="1032.18" cy="1048.94" r="0.99" fill="#b77768" opacity="0.06"/><rect x="511.08" y="107.15" width="20.91" height="0.85" rx="1" fill="#b77768" opacity="0.07" transform="rotate(35.58 511.08 107.15)"/><circle cx="1546.18" cy="1049.25" r="2.23" fill="#b77768" opacity="0.03"/><rect x="82.65" y="558.78" width="16.93" height="1.3" rx="1" fill="#4c5948" opacity="0.07" transform="rotate(8.88 82.65 558.78)"/><circle cx="148.56" cy="1099.59" r="1.63" fill="#4c5948" opacity="0.03"/><circle cx="500.64" cy="955.2" r="1.55" fill="#b77768" opacity="0.07"/><rect x="1005.11" y="383.86" width="18.33" height="2.44" rx="1" fill="#4c5948" opacity="0.05" transform="rotate(93.15 1005.11 383.86)"/><circle cx="994.12" cy="983.46" r="2.03" fill="#4c5948" opacity="0.06"/><rect x="1336.23" y="868.49" width="22.22" height="2.46" rx="1" fill="#b77768" opacity="0.04" transform="rotate(95.24 1336.23 868.49)"/><rect x="1566.93" y="1045.08" width="15.98" height="2.25" rx="1" fill="#b77768" opacity="0.04" transform="rotate(95.13 1566.93 1045.08)"/><rect x="234.23" y="511.62" width="15.89" height="1.87" rx="1" fill="#b77768" opacity="0.04" transform="rotate(106.64 234.23 511.62)"/><circle cx="1589.96" cy="705.11" r="1.1" fill="#4c5948" opacity="0.05"/><rect x="884.67" y="759.91" width="22.02" height="1.54" rx="1" fill="#b77768" opacity="0.06" transform="rotate(77.91 884.67 759.91)"/><circle cx="679.5" cy="930.24" r="1.33" fill="#b77768" opacity="0.04"/><rect x="329.66" y="872.06" width="11.61" height="1.54" rx="1" fill="#4c5948" opacity="0.04" transform="rotate(166.91 329.66 872.06)"/><circle cx="795.84" cy="890.9" r="1.59" fill="#b77768" opacity="0.07"/><rect x="1573.16" y="1073.04" width="18.48" height="1.31" rx="1" fill="#b77768" opacity="0.08" transform="rotate(135.76 1573.16 1073.04)"/><circle cx="395.14" cy="88.95" r="0.76" fill="#b77768" opacity="0.04"/><circle cx="298.43" cy="724.6" r="2" fill="#4c5948" opacity="0.04"/><rect x="1174.01" y="755.06" width="18.25" height="0.93" rx="1" fill="#b77768" opacity="0.05" transform="rotate(138.52 1174.01 755.06)"/><rect x="1242.78" y="571.02" width="25.37" height="2.57" rx="1" fill="#4c5948" opacity="0.03" transform="rotate(93.3 1242.78 571.02)"/><rect x="536.97" y="872.61" width="9.14" height="1.99" rx="1" fill="#4c5948" opacity="0.08" transform="rotate(110.74 536.97 872.61)"/><rect x="722.14" y="680.31" width="8.2" height="1.7" rx="1" fill="#4c5948" opacity="0.05" transform="rotate(149.62 722.14 680.31)"/><rect x="1589.86" y="964.48" width="17.15" height="2.01" rx="1" fill="#4c5948" opacity="0.06" transform="rotate(55.89 1589.86 964.48)"/><rect x="354.99" y="638.77" width="7.4" height="0.87" rx="1" fill="#b77768" opacity="0.04" transform="rotate(117.99 354.99 638.77)"/><circle cx="440.82" cy="611.91" r="0.74" fill="#b77768" opacity="0.06"/><rect x="486.13" y="984.34" width="10.55" height="2.17" rx="1" fill="#b77768" opacity="0.07" transform="rotate(47.24 486.13 984.34)"/><circle cx="1170.12" cy="712.87" r="1.11" fill="#4c5948" opacity="0.03"/><circle cx="1064" cy="999.9" r="0.94" fill="#b77768" opacity="0.04"/><rect x="369.95" y="35.76" width="13.16" height="1.2" rx="1" fill="#b77768" opacity="0.03" transform="rotate(116.39 369.95 35.76)"/><rect x="298.21" y="169.59" width="11.45" height="2.31" rx="1" fill="#b77768" opacity="0.07" transform="rotate(67.65 298.21 169.59)"/><rect x="1047.53" y="63.52" width="12.45" height="1.38" rx="1" fill="#b77768" opacity="0.04" transform="rotate(136.66 1047.53 63.52)"/><circle cx="1401.77" cy="1038.21" r="1.61" fill="#b77768" opacity="0.03"/><rect x="554.17" y="1073.93" width="18.38" height="1.43" rx="1" fill="#4c5948" opacity="0.08" transform="rotate(50.48 554.17 1073.93)"/><rect x="1232" y="979.06" width="19.57" height="2.14" rx="1" fill="#4c5948" opacity="0.04" transform="rotate(161.41 1232 979.06)"/><rect x="1381.28" y="374.94" width="17.6" height="2.17" rx="1" fill="#b77768" opacity="0.04" transform="rotate(16.16 1381.28 374.94)"/><circle cx="1002.57" cy="698.17" r="1.79" fill="#b77768" opacity="0.07"/><rect x="1417.71" y="53.61" width="22.92" height="2.43" rx="1" fill="#4c5948" opacity="0.03" transform="rotate(14.89 1417.71 53.61)"/><circle cx="1170.24" cy="727.12" r="0.96" fill="#4c5948" opacity="0.08"/><rect x="286.99" y="261.03" width="17.41" height="1.16" rx="1" fill="#4c5948" opacity="0.03" transform="rotate(67.7 286.99 261.03)"/><rect x="1327.27" y="211.77" width="13.59" height="1.95" rx="1" fill="#4c5948" opacity="0.07" transform="rotate(83.25 1327.27 211.77)"/><rect x="1143.3" y="931.22" width="8.1" height="1.01" rx="1" fill="#4c5948" opacity="0.03" transform="rotate(168.9 1143.3 931.22)"/><rect x="1050.19" y="354.51" width="21.13" height="1.82" rx="1" fill="#4c5948" opacity="0.08" transform="rotate(81.16 1050.19 354.51)"/><circle cx="665.71" cy="1049.81" r="0.89" fill="#4c5948" opacity="0.04"/><rect x="277.75" y="761.2" width="27.47" height="2.48" rx="1" fill="#b77768" opacity="0.07" transform="rotate(53.33 277.75 761.2)"/><circle cx="602.81" cy="104.55" r="1.87" fill="#4c5948" opacity="0.04"/><rect x="1142.75" y="1032.65" width="16.4" height="1.57" rx="1" fill="#b77768" opacity="0.05" transform="rotate(138.62 1142.75 1032.65)"/><rect x="1208.86" y="288.86" width="6.63" height="1.72" rx="1" fill="#b77768" opacity="0.05" transform="rotate(26.1 1208.86 288.86)"/><rect x="1133.34" y="670.72" width="27.92" height="2.54" rx="1" fill="#b77768" opacity="0.05" transform="rotate(42.55 1133.34 670.72)"/><rect x="828.41" y="819.2" width="24.97" height="1.65" rx="1" fill="#4c5948" opacity="0.07" transform="rotate(50.01 828.41 819.2)"/><circle cx="1457.07" cy="40.15" r="1.46" fill="#4c5948" opacity="0.07"/><rect x="29.66" y="131.17" width="7.23" height="0.91" rx="1" fill="#b77768" opacity="0.07" transform="rotate(154.38 29.66 131.17)"/><rect x="1449.37" y="217.65" width="27.86" height="1.98" rx="1" fill="#b77768" opacity="0.07" transform="rotate(60.65 1449.37 217.65)"/><rect x="306.2" y="508.64" width="19.14" height="1.74" rx="1" fill="#4c5948" opacity="0.05" transform="rotate(153.39 306.2 508.64)"/><rect x="1229.08" y="1056.11" width="7.12" height="2.22" rx="1" fill="#4c5948" opacity="0.05" transform="rotate(26.82 1229.08 1056.11)"/><circle cx="183.47" cy="590.79" r="1.03" fill="#b77768" opacity="0.03"/><circle cx="1292.4" cy="1016.91" r="1.76" fill="#b77768" opacity="0.03"/><rect x="895.34" y="679.36" width="24.85" height="1.68" rx="1" fill="#b77768" opacity="0.08" transform="rotate(179.31 895.34 679.36)"/><rect x="890.9" y="983.31" width="13.27" height="2.03" rx="1" fill="#b77768" opacity="0.03" transform="rotate(56.43 890.9 983.31)"/><circle cx="835.13" cy="777.35" r="1.43" fill="#b77768" opacity="0.05"/><circle cx="902.24" cy="859.11" r="1.86" fill="#b77768" opacity="0.03"/><circle cx="16.93" cy="796.1" r="1.77" fill="#b77768" opacity="0.06"/><rect x="387.09" y="736.14" width="27.62" height="2.34" rx="1" fill="#b77768" opacity="0.04" transform="rotate(37.77 387.09 736.14)"/><rect x="741.92" y="414.76" width="26.72" height="2.55" rx="1" fill="#b77768" opacity="0.04" transform="rotate(125.27 741.92 414.76)"/><rect x="1053.94" y="780.95" width="11.61" height="1.2" rx="1" fill="#4c5948" opacity="0.05" transform="rotate(27.18 1053.94 780.95)"/><rect x="721.73" y="250.42" width="17.71" height="2.36" rx="1" fill="#4c5948" opacity="0.07" transform="rotate(18.86 721.73 250.42)"/><rect x="1500.62" y="483.08" width="9.76" height="1.67" rx="1" fill="#b77768" opacity="0.08" transform="rotate(80.49 1500.62 483.08)"/><circle cx="451.15" cy="105.04" r="1.77" fill="#4c5948" opacity="0.08"/><rect x="786.61" y="496.27" width="20.1" height="1.77" rx="1" fill="#b77768" opacity="0.07" transform="rotate(91.6 786.61 496.27)"/><rect x="551.86" y="864.78" width="20.73" height="1.94" rx="1" fill="#b77768" opacity="0.07" transform="rotate(172.25 551.86 864.78)"/>
  <circle cx="1350" cy="178" r="184" fill="#b77768" opacity="0.06"/>
  <circle cx="220" cy="894" r="220" fill="#9da98b" opacity="0.08"/>
  <g transform="rotate(-5 480 525)">
    <ellipse cx="498" cy="840.8" rx="159" ry="63" fill="#1f211d" opacity="0.14"/>
    <rect x="330" y="210" width="300" height="630" rx="42" fill="#586853"/>
    <rect x="348" y="228" width="264" height="594" rx="33" fill="#fff8ef"/>
    <text x="369" y="310.8" class="micro" fill="#4c5948" opacity="0.62">SORA</text>
    <rect x="369" y="367.5" width="66" height="66" rx="10" fill="#ddb59f" opacity="0.92"/><rect x="445" y="367.5" width="66" height="66" rx="10" fill="#9da98b" opacity="0.92"/><rect x="521" y="367.5" width="66" height="66" rx="10" fill="#b77768" opacity="0.92"/><rect x="369" y="443.5" width="66" height="66" rx="10" fill="#fff8ef" opacity="0.92"/><rect x="445" y="443.5" width="66" height="66" rx="10" fill="#ddb59f" opacity="0.92"/><rect x="521" y="443.5" width="66" height="66" rx="10" fill="#9da98b" opacity="0.92"/><rect x="369" y="519.5" width="66" height="66" rx="10" fill="#b77768" opacity="0.92"/><rect x="445" y="519.5" width="66" height="66" rx="10" fill="#fff8ef" opacity="0.92"/><rect x="521" y="519.5" width="66" height="66" rx="10" fill="#ddb59f" opacity="0.92"/>
  </g><g transform="rotate(5 835 430)">
    <ellipse cx="847" cy="613.6" rx="164.3" ry="36" fill="#1f211d" opacity="0.09"/>
    <rect x="680" y="250" width="310" height="360" rx="14" fill="#fff8ef"/>
    <rect x="702" y="272" width="266" height="172.8" rx="10" fill="#ddb59f"/>
    <text x="704" y="487.6" class="brand" fill="#4c5948" font-size="27.9">OPENING</text>
    <rect x="704" y="516.4" width="80.1" height="3" rx="2" fill="#4c5948" opacity="0.42"/><rect x="704" y="538.4" width="120.16" height="2" rx="2" fill="#4c5948" opacity="0.22"/><rect x="704" y="560.4" width="160.21" height="2" rx="2" fill="#4c5948" opacity="0.22"/>
  </g><g transform="rotate(-4 1135 685)">
    <ellipse cx="1147" cy="841" rx="164.3" ry="30" fill="#1f211d" opacity="0.09"/>
    <rect x="980" y="535" width="310" height="300" rx="14" fill="#fff8ef"/>
    <rect x="1002" y="557" width="266" height="144" rx="10" fill="#9da98b"/>
    <text x="1004" y="733" class="brand" fill="#4c5948" font-size="27.9">MENU</text>
    <rect x="1004" y="757" width="80.1" height="3" rx="2" fill="#4c5948" opacity="0.42"/><rect x="1004" y="779" width="120.16" height="2" rx="2" fill="#4c5948" opacity="0.22"/><rect x="1004" y="801" width="160.21" height="2" rx="2" fill="#4c5948" opacity="0.22"/>
  </g>
  <g opacity="0.72"><text x="78" y="1004" class="micro" fill="#4c5948">CAFE BRANDING</text><text x="78" y="1036" class="micro" fill="#4c5948" opacity="0.55">TEMPORARY DEMONSTRATION PORTFOLIO VISUAL / GALLERY-3</text></g>
</svg>
