<?xml version="1.0" encoding="UTF-8"?>
<svg xmlns="http://www.w3.org/2000/svg" width="1600" height="1100" viewBox="0 0 1600 1100" role="img" aria-labelledby="title desc">
  <title id="title">SORA gallery-2 demo portfolio mockup</title>
  <desc id="desc">Temporary fictional demonstration project imagery for portfolio presentation only, not client work.</desc>
  <defs>
    <linearGradient id="bg_sora_gallery_2" x1="0" y1="0" x2="1" y2="1">
      <stop offset="0%" stop-color="#fff8ef"/>
      <stop offset="58%" stop-color="#f5ece4"/>
      <stop offset="100%" stop-color="#ddb59f"/>
    </linearGradient>
    <radialGradient id="light_sora_gallery_2" cx="74%" cy="18%" r="64%">
      <stop offset="0%" stop-color="#ffffff" stop-opacity="0.62"/>
      <stop offset="100%" stop-color="#ffffff" stop-opacity="0"/>
    </radialGradient>
  </defs>
  <style><![CDATA[
    .brand { font-family: Georgia, Georgia, serif; font-weight: 500; letter-spacing: .02em; }
    .body { font-family: Arial, Arial, sans-serif; font-weight: 500; }
    .micro { font-family: Arial, Arial, sans-serif; font-size: 20px; font-weight: 700; letter-spacing: .12em; }
  ]]></style>
  <rect width="1600" height="1100" fill="url(#bg_sora_gallery_2)"/>
  <rect width="1600" height="1100" fill="url(#light_sora_gallery_2)"/>
  <circle cx="1167.19" cy="493.61" r="2.1" fill="#4c5948" opacity="0.05"/><rect x="386.97" y="547.72" width="15.67" height="1.03" rx="1" fill="#4c5948" opacity="0.03" transform="rotate(3.81 386.97 547.72)"/><rect x="398.77" y="241.47" width="11.77" height="0.86" rx="1" fill="#4c5948" opacity="0.03" transform="rotate(25.41 398.77 241.47)"/><circle cx="836.28" cy="459.87" r="1.97" fill="#b77768" opacity="0.06"/><rect x="1339.98" y="1085.49" width="12.12" height="1.91" rx="1" fill="#4c5948" opacity="0.05" transform="rotate(165.78 1339.98 1085.49)"/><rect x="804.28" y="898.54" width="19.73" height="1.14" rx="1" fill="#b77768" opacity="0.07" transform="rotate(107.24 804.28 898.54)"/><rect x="186.27" y="198.72" width="16.76" height="0.85" rx="1" fill="#4c5948" opacity="0.03" transform="rotate(68.79 186.27 198.72)"/><rect x="1520.67" y="846.27" width="6.09" height="2.54" rx="1" fill="#4c5948" opacity="0.08" transform="rotate(131.03 1520.67 846.27)"/><rect x="886.16" y="714.03" width="19.38" height="1.69" rx="1" fill="#4c5948" opacity="0.03" transform="rotate(93.69 886.16 714.03)"/><rect x="907.71" y="935.62" width="23.52" height="2.59" rx="1" fill="#b77768" opacity="0.08" transform="rotate(74.79 907.71 935.62)"/><rect x="254.74" y="849.74" width="26.14" height="1.82" rx="1" fill="#b77768" opacity="0.03" transform="rotate(25.35 254.74 849.74)"/><rect x="587.13" y="321.18" width="9.14" height="1.35" rx="1" fill="#b77768" opacity="0.05" transform="rotate(21.52 587.13 321.18)"/><circle cx="1045.31" cy="367.22" r="1.07" fill="#4c5948" opacity="0.04"/><circle cx="401.78" cy="955.04" r="1.95" fill="#4c5948" opacity="0.05"/><circle cx="236.36" cy="74.45" r="0.98" fill="#4c5948" opacity="0.03"/><rect x="1357.65" y="107.13" width="18.48" height="1.73" rx="1" fill="#b77768" opacity="0.06" transform="rotate(146.32 1357.65 107.13)"/><rect x="939.58" y="936.03" width="6.68" height="1.82" rx="1" fill="#b77768" opacity="0.06" transform="rotate(31.42 939.58 936.03)"/><rect x="376.26" y="510" width="20.21" height="1.3" rx="1" fill="#b77768" opacity="0.03" transform="rotate(69.63 376.26 510)"/><rect x="858.06" y="85.95" width="8.54" height="1.35" rx="1" fill="#b77768" opacity="0.07" transform="rotate(151.22 858.06 85.95)"/><circle cx="550.62" cy="936.29" r="2.09" fill="#4c5948" opacity="0.07"/><rect x="1527.56" y="447.16" width="9.4" height="2.43" rx="1" fill="#4c5948" opacity="0.07" transform="rotate(94.48 1527.56 447.16)"/><circle cx="5.26" cy="61.61" r="1.51" fill="#b77768" opacity="0.03"/><circle cx="98.91" cy="878.77" r="1.89" fill="#4c5948" opacity="0.07"/><circle cx="1550.54" cy="791.08" r="1.48" fill="#4c5948" opacity="0.03"/><circle cx="16.75" cy="926.67" r="2.26" fill="#4c5948" opacity="0.07"/><circle cx="402.73" cy="892.43" r="1.21" fill="#4c5948" opacity="0.05"/><rect x="705.29" y="517.12" width="21.91" height="2.04" rx="1" fill="#4c5948" opacity="0.03" transform="rotate(98.82 705.29 517.12)"/><rect x="1510.56" y="149.99" width="6.21" height="2.41" rx="1" fill="#4c5948" opacity="0.07" transform="rotate(55.51 1510.56 149.99)"/><rect x="1313.64" y="71.36" width="20.11" height="1.53" rx="1" fill="#4c5948" opacity="0.05" transform="rotate(34.44 1313.64 71.36)"/><rect x="321.54" y="721.15" width="19.99" height="1.32" rx="1" fill="#4c5948" opacity="0.07" transform="rotate(88.9 321.54 721.15)"/><rect x="1348.14" y="507.38" width="19.74" height="1.65" rx="1" fill="#4c5948" opacity="0.07" transform="rotate(165.42 1348.14 507.38)"/><rect x="507.98" y="948.55" width="23.46" height="1.27" rx="1" fill="#4c5948" opacity="0.04" transform="rotate(138.48 507.98 948.55)"/><circle cx="102.4" cy="1060.73" r="2.18" fill="#b77768" opacity="0.04"/><circle cx="852.89" cy="933.14" r="0.74" fill="#4c5948" opacity="0.07"/><rect x="26.92" y="1064.05" width="19.21" height="1.76" rx="1" fill="#b77768" opacity="0.03" transform="rotate(65.51 26.92 1064.05)"/><rect x="539.42" y="554.63" width="27.98" height="2.05" rx="1" fill="#4c5948" opacity="0.05" transform="rotate(161.94 539.42 554.63)"/><circle cx="28.72" cy="171.29" r="1.11" fill="#b77768" opacity="0.06"/><circle cx="1274.7" cy="731.35" r="0.71" fill="#4c5948" opacity="0.04"/><rect x="238.18" y="722.41" width="25" height="1" rx="1" fill="#4c5948" opacity="0.06" transform="rotate(39.77 238.18 722.41)"/><rect x="103.61" y="476.67" width="10.59" height="0.93" rx="1" fill="#b77768" opacity="0.06" transform="rotate(124.52 103.61 476.67)"/><rect x="891.87" y="760.58" width="20.51" height="1.81" rx="1" fill="#4c5948" opacity="0.07" transform="rotate(138.11 891.87 760.58)"/><circle cx="284.49" cy="108.74" r="1.33" fill="#4c5948" opacity="0.04"/><circle cx="1027.81" cy="1022.73" r="2.04" fill="#4c5948" opacity="0.08"/><rect x="1589.52" y="594.18" width="14.42" height="2.44" rx="1" fill="#4c5948" opacity="0.06" transform="rotate(8.26 1589.52 594.18)"/><rect x="589.37" y="1023.13" width="18.13" height="2.5" rx="1" fill="#b77768" opacity="0.04" transform="rotate(49.24 589.37 1023.13)"/><circle cx="1156.27" cy="199.46" r="1.79" fill="#4c5948" opacity="0.03"/><rect x="152.64" y="291.9" width="12.58" height="2.4" rx="1" fill="#4c5948" opacity="0.07" transform="rotate(55.43 152.64 291.9)"/><rect x="643.15" y="151.97" width="22.38" height="1.46" rx="1" fill="#b77768" opacity="0.06" transform="rotate(149.81 643.15 151.97)"/><rect x="1174.82" y="1033.75" width="10.76" height="2.32" rx="1" fill="#4c5948" opacity="0.03" transform="rotate(144.27 1174.82 1033.75)"/><rect x="424.03" y="7.7" width="24.52" height="1.96" rx="1" fill="#4c5948" opacity="0.06" transform="rotate(99.84 424.03 7.7)"/><circle cx="1449.85" cy="554.44" r="2.22" fill="#4c5948" opacity="0.06"/><circle cx="264.81" cy="627.58" r="1.65" fill="#b77768" opacity="0.05"/><rect x="270.56" y="451.85" width="13.68" height="1.58" rx="1" fill="#4c5948" opacity="0.04" transform="rotate(91.49 270.56 451.85)"/><circle cx="571.88" cy="13.91" r="2.14" fill="#4c5948" opacity="0.03"/><rect x="727.74" y="223.69" width="18.33" height="0.85" rx="1" fill="#4c5948" opacity="0.03" transform="rotate(107.45 727.74 223.69)"/><circle cx="316.93" cy="510.41" r="1.58" fill="#b77768" opacity="0.05"/><circle cx="1512.44" cy="882.92" r="0.95" fill="#b77768" opacity="0.03"/><rect x="275.63" y="32.55" width="22.74" height="1.8" rx="1" fill="#4c5948" opacity="0.04" transform="rotate(114.78 275.63 32.55)"/><circle cx="1297.03" cy="865.32" r="1.88" fill="#b77768" opacity="0.05"/><circle cx="824.61" cy="755.19" r="1.27" fill="#b77768" opacity="0.05"/><rect x="1087.53" y="55.72" width="14.82" height="1.75" rx="1" fill="#b77768" opacity="0.06" transform="rotate(20.82 1087.53 55.72)"/><rect x="485.72" y="9.18" width="8.06" height="1.9" rx="1" fill="#b77768" opacity="0.04" transform="rotate(56.12 485.72 9.18)"/><circle cx="284.67" cy="808.96" r="0.77" fill="#4c5948" opacity="0.06"/><rect x="440.66" y="111.38" width="8.59" height="1.97" rx="1" fill="#b77768" opacity="0.05" transform="rotate(110.16 440.66 111.38)"/><circle cx="321.41" cy="497.85" r="1.73" fill="#b77768" opacity="0.03"/><circle cx="812.07" cy="829.26" r="1.89" fill="#b77768" opacity="0.05"/><circle cx="881.29" cy="1034.92" r="1.81" fill="#b77768" opacity="0.04"/><rect x="1367.23" y="713.92" width="13.93" height="0.88" rx="1" fill="#b77768" opacity="0.04" transform="rotate(124.48 1367.23 713.92)"/><rect x="56.94" y="1067.58" width="17.52" height="2.02" rx="1" fill="#4c5948" opacity="0.04" transform="rotate(11.73 56.94 1067.58)"/><circle cx="1145.42" cy="271.57" r="1.11" fill="#4c5948" opacity="0.04"/><rect x="223.11" y="576.74" width="20.32" height="1.39" rx="1" fill="#4c5948" opacity="0.03" transform="rotate(109.39 223.11 576.74)"/><rect x="74.08" y="313.27" width="17.08" height="2.01" rx="1" fill="#4c5948" opacity="0.08" transform="rotate(37.99 74.08 313.27)"/><circle cx="805.68" cy="1090.69" r="1.11" fill="#4c5948" opacity="0.04"/><circle cx="1051.03" cy="966.2" r="1.34" fill="#4c5948" opacity="0.03"/><rect x="832.48" y="615.25" width="25.35" height="0.86" rx="1" fill="#b77768" opacity="0.07" transform="rotate(103.03 832.48 615.25)"/><rect x="1518.7" y="305.24" width="11.69" height="2.21" rx="1" fill="#4c5948" opacity="0.04" transform="rotate(166.26 1518.7 305.24)"/><rect x="986.46" y="923.89" width="15.18" height="1.09" rx="1" fill="#b77768" opacity="0.03" transform="rotate(21.3 986.46 923.89)"/><circle cx="638.15" cy="656.29" r="0.86" fill="#4c5948" opacity="0.06"/><circle cx="1114.29" cy="904.74" r="1.56" fill="#4c5948" opacity="0.04"/><rect x="429.11" y="27.98" width="25.41" height="1.46" rx="1" fill="#b77768" opacity="0.03" transform="rotate(126 429.11 27.98)"/><rect x="772.3" y="189.83" width="14.9" height="1.63" rx="1" fill="#b77768" opacity="0.05" transform="rotate(122.72 772.3 189.83)"/><circle cx="439.11" cy="989.15" r="2.2" fill="#4c5948" opacity="0.03"/><rect x="1548.06" y="914.41" width="17.79" height="1.26" rx="1" fill="#b77768" opacity="0.05" transform="rotate(56.3 1548.06 914.41)"/><rect x="501.84" y="345.05" width="12.96" height="1.78" rx="1" fill="#4c5948" opacity="0.05" transform="rotate(77.72 501.84 345.05)"/><rect x="1273.77" y="473.26" width="24.14" height="0.81" rx="1" fill="#4c5948" opacity="0.05" transform="rotate(124.48 1273.77 473.26)"/><rect x="1060.7" y="33.84" width="18.32" height="1.57" rx="1" fill="#b77768" opacity="0.05" transform="rotate(74.43 1060.7 33.84)"/><circle cx="699.65" cy="830.3" r="1.42" fill="#4c5948" opacity="0.04"/><circle cx="1561.41" cy="444.42" r="1.7" fill="#4c5948" opacity="0.05"/><circle cx="1085.67" cy="367.34" r="1.92" fill="#4c5948" opacity="0.07"/><circle cx="891.51" cy="332.6" r="2.14" fill="#b77768" opacity="0.08"/><circle cx="1205.37" cy="1093.31" r="1.16" fill="#b77768" opacity="0.05"/><rect x="1532.13" y="1087.67" width="9.85" height="1.88" rx="1" fill="#b77768" opacity="0.08" transform="rotate(156.08 1532.13 1087.67)"/><rect x="310.35" y="889.18" width="8.51" height="1.16" rx="1" fill="#4c5948" opacity="0.05" transform="rotate(167.67 310.35 889.18)"/><rect x="1110.08" y="635.4" width="25.7" height="1.14" rx="1" fill="#4c5948" opacity="0.05" transform="rotate(158.82 1110.08 635.4)"/><rect x="1235.45" y="911.04" width="18.03" height="2.49" rx="1" fill="#b77768" opacity="0.03" transform="rotate(35.4 1235.45 911.04)"/><circle cx="657.08" cy="136.73" r="1.77" fill="#b77768" opacity="0.06"/><circle cx="714.07" cy="1045.98" r="0.9" fill="#4c5948" opacity="0.08"/><rect x="258.42" y="110.01" width="17.98" height="2.12" rx="1" fill="#4c5948" opacity="0.05" transform="rotate(105.34 258.42 110.01)"/><rect x="973.15" y="272.62" width="20.87" height="1.91" rx="1" fill="#b77768" opacity="0.03" transform="rotate(18.84 973.15 272.62)"/><rect x="1407.85" y="249.58" width="18.66" height="2.6" rx="1" fill="#b77768" opacity="0.06" transform="rotate(10.99 1407.85 249.58)"/><circle cx="182.15" cy="860.55" r="2.28" fill="#4c5948" opacity="0.06"/><circle cx="1433.23" cy="1027.69" r="1.83" fill="#4c5948" opacity="0.07"/><rect x="622.04" y="1063.04" width="7.06" height="0.94" rx="1" fill="#b77768" opacity="0.05" transform="rotate(136.22 622.04 1063.04)"/><rect x="838.22" y="336.57" width="9.2" height="0.84" rx="1" fill="#4c5948" opacity="0.03" transform="rotate(77.82 838.22 336.57)"/><rect x="253.16" y="107.22" width="23.64" height="2.12" rx="1" fill="#4c5948" opacity="0.07" transform="rotate(110.84 253.16 107.22)"/><circle cx="1192.36" cy="531.29" r="0.7" fill="#4c5948" opacity="0.08"/><rect x="353.8" y="353.86" width="8.73" height="2" rx="1" fill="#b77768" opacity="0.06" transform="rotate(38.9 353.8 353.86)"/><rect x="1355.81" y="1088.97" width="14.67" height="1.41" rx="1" fill="#4c5948" opacity="0.03" transform="rotate(125.4 1355.81 1088.97)"/><rect x="703.79" y="455.11" width="16.74" height="2.2" rx="1" fill="#b77768" opacity="0.05" transform="rotate(39.76 703.79 455.11)"/><rect x="843.46" y="121.25" width="21.7" height="2.24" rx="1" fill="#4c5948" opacity="0.03" transform="rotate(159.19 843.46 121.25)"/><circle cx="1327.45" cy="45.7" r="1.68" fill="#b77768" opacity="0.08"/><rect x="1424.13" y="650.12" width="11.16" height="0.82" rx="1" fill="#b77768" opacity="0.05" transform="rotate(15.96 1424.13 650.12)"/><circle cx="846.93" cy="182.2" r="1.47" fill="#b77768" opacity="0.05"/><rect x="575.48" y="202.11" width="14.48" height="1.1" rx="1" fill="#4c5948" opacity="0.07" transform="rotate(83.77 575.48 202.11)"/><rect x="1074.64" y="824.76" width="7.18" height="2.36" rx="1" fill="#b77768" opacity="0.04" transform="rotate(159.49 1074.64 824.76)"/><rect x="1050.12" y="811.36" width="25.45" height="1.16" rx="1" fill="#4c5948" opacity="0.07" transform="rotate(162.44 1050.12 811.36)"/><rect x="1259.87" y="886.38" width="24.12" height="1.86" rx="1" fill="#4c5948" opacity="0.07" transform="rotate(85.61 1259.87 886.38)"/><rect x="416.95" y="991.57" width="7.78" height="1.19" rx="1" fill="#b77768" opacity="0.06" transform="rotate(164.72 416.95 991.57)"/><circle cx="956.78" cy="491.62" r="0.84" fill="#b77768" opacity="0.05"/><rect x="510.75" y="698.31" width="24.83" height="1.6" rx="1" fill="#4c5948" opacity="0.08" transform="rotate(102 510.75 698.31)"/><circle cx="1062.46" cy="323.12" r="1.68" fill="#b77768" opacity="0.07"/><circle cx="870.72" cy="179.3" r="0.99" fill="#b77768" opacity="0.04"/><rect x="811.55" y="910.09" width="14.64" height="1.6" rx="1" fill="#4c5948" opacity="0.04" transform="rotate(84.8 811.55 910.09)"/><rect x="506.32" y="177.2" width="24.23" height="1.42" rx="1" fill="#4c5948" opacity="0.05" transform="rotate(32.23 506.32 177.2)"/><rect x="1501" y="284.66" width="23.93" height="2.03" rx="1" fill="#b77768" opacity="0.03" transform="rotate(28.54 1501 284.66)"/><rect x="1315.55" y="327.23" width="26.75" height="0.98" rx="1" fill="#b77768" opacity="0.06" transform="rotate(71.21 1315.55 327.23)"/><circle cx="1443.19" cy="962.45" r="0.93" fill="#4c5948" opacity="0.05"/><rect x="764.07" y="403.9" width="16.65" height="1.71" rx="1" fill="#4c5948" opacity="0.04" transform="rotate(121.77 764.07 403.9)"/><rect x="1165.28" y="1038.41" width="24.14" height="2.54" rx="1" fill="#b77768" opacity="0.07" transform="rotate(80.47 1165.28 1038.41)"/><rect x="959.16" y="654.49" width="7.85" height="2.03" rx="1" fill="#b77768" opacity="0.06" transform="rotate(112.63 959.16 654.49)"/><rect x="1012.42" y="579.28" width="25.2" height="2.06" rx="1" fill="#4c5948" opacity="0.05" transform="rotate(62.97 1012.42 579.28)"/><rect x="1421.58" y="393.61" width="24.38" height="2.07" rx="1" fill="#b77768" opacity="0.06" transform="rotate(68.17 1421.58 393.61)"/><rect x="1363.85" y="125.07" width="6.59" height="1.66" rx="1" fill="#b77768" opacity="0.05" transform="rotate(160.14 1363.85 125.07)"/><rect x="1345.88" y="885.96" width="9.27" height="1.3" rx="1" fill="#4c5948" opacity="0.06" transform="rotate(153.79 1345.88 885.96)"/><circle cx="844.92" cy="141.01" r="2.15" fill="#4c5948" opacity="0.03"/><circle cx="173.32" cy="1077.22" r="1.53" fill="#4c5948" opacity="0.06"/><circle cx="1440.2" cy="113.24" r="1.92" fill="#b77768" opacity="0.04"/><circle cx="202.31" cy="886.38" r="1.38" fill="#b77768" opacity="0.05"/><rect x="212.88" y="61.46" width="13.26" height="2.01" rx="1" fill="#4c5948" opacity="0.08" transform="rotate(159.69 212.88 61.46)"/><circle cx="1063.41" cy="786.34" r="1.06" fill="#4c5948" opacity="0.04"/>
  <circle cx="1350" cy="178" r="184" fill="#b77768" opacity="0.06"/>
  <circle cx="220" cy="894" r="220" fill="#9da98b" opacity="0.08"/>
  <g transform="rotate(-4 515 525)">
    <ellipse cx="531" cy="816.4" rx="227.9" ry="59" fill="#1f211d" opacity="0.11"/>
    <rect x="300" y="230" width="430" height="590" rx="8" fill="#fff8ef"/>
    <text x="351.6" y="336.2" class="brand" fill="#4c5948" font-size="47.3">MENU</text>
    <rect x="351.6" y="407" width="163.4" height="3" rx="2" fill="#4c5948" opacity="0.32"/><rect x="609.6" y="407" width="60.2" height="3" rx="2" fill="#b77768" opacity="0.62"/><rect x="351.6" y="449" width="163.4" height="3" rx="2" fill="#4c5948" opacity="0.32"/><rect x="609.6" y="449" width="60.2" height="3" rx="2" fill="#b77768" opacity="0.62"/><rect x="351.6" y="491" width="163.4" height="3" rx="2" fill="#4c5948" opacity="0.32"/><rect x="609.6" y="491" width="60.2" height="3" rx="2" fill="#b77768" opacity="0.62"/><rect x="351.6" y="533" width="163.4" height="3" rx="2" fill="#4c5948" opacity="0.32"/><rect x="609.6" y="533" width="60.2" height="3" rx="2" fill="#b77768" opacity="0.62"/><rect x="351.6" y="575" width="163.4" height="3" rx="2" fill="#4c5948" opacity="0.32"/><rect x="609.6" y="575" width="60.2" height="3" rx="2" fill="#b77768" opacity="0.62"/><rect x="351.6" y="617" width="163.4" height="3" rx="2" fill="#4c5948" opacity="0.32"/><rect x="609.6" y="617" width="60.2" height="3" rx="2" fill="#b77768" opacity="0.62"/><rect x="351.6" y="659" width="163.4" height="3" rx="2" fill="#4c5948" opacity="0.32"/><rect x="609.6" y="659" width="60.2" height="3" rx="2" fill="#b77768" opacity="0.62"/><rect x="351.6" y="701" width="163.4" height="3" rx="2" fill="#4c5948" opacity="0.32"/><rect x="609.6" y="701" width="60.2" height="3" rx="2" fill="#b77768" opacity="0.62"/>
  </g><g transform="rotate(5 970 445)">
    <ellipse cx="986" cy="586" rx="227.9" ry="25" fill="#1f211d" opacity="0.11"/>
    <rect x="755" y="320" width="430" height="250" rx="10" fill="#fff8ef"/>
    <rect x="773" y="338" width="394" height="214" rx="5" fill="none" stroke="#4c5948" stroke-opacity="0.11"/>
    <rect x="789" y="362" width="94.6" height="4" rx="2" fill="#b77768" opacity="0.84"/>
    <text x="789" y="405" class="brand" fill="#4c5948" font-size="51.6">LOYALTY</text>
    <text x="791" y="439" class="micro" fill="#4c5948" opacity="0.65">COFFEE CARD</text>
    <rect x="791" y="465" width="117.65" height="3" rx="2" fill="#4c5948" opacity="0.42"/><rect x="791" y="487" width="176.47" height="2" rx="2" fill="#4c5948" opacity="0.22"/><rect x="791" y="509" width="235.3" height="2" rx="2" fill="#4c5948" opacity="0.22"/><rect x="791" y="531" width="133.13" height="2" rx="2" fill="#4c5948" opacity="0.22"/>
    <circle cx="1119" cy="500" r="35" fill="#b77768" opacity="0.86"/><text x="1119" y="511" text-anchor="middle" class="micro" fill="#fff8ef" font-size="20">LO</text>
  </g><g transform="rotate(-6 1155 725)">
    <ellipse cx="1171" cy="833.8" rx="148.4" ry="18" fill="#1f211d" opacity="0.11"/>
    <rect x="1015" y="635" width="280" height="180" rx="10" fill="#fff8ef"/>
    <rect x="1033" y="653" width="244" height="144" rx="5" fill="none" stroke="#4c5948" stroke-opacity="0.11"/>
    <rect x="1049" y="677" width="61.6" height="4" rx="2" fill="#b77768" opacity="0.84"/>
    <text x="1049" y="696.2" class="brand" fill="#4c5948" font-size="33.6">RECEIPT</text>
    <text x="1051" y="730.2" class="micro" fill="#4c5948" opacity="0.65">FOLDER</text>
    <rect x="1051" y="739.4" width="76.61" height="3" rx="2" fill="#4c5948" opacity="0.42"/><rect x="1051" y="761.4" width="114.91" height="2" rx="2" fill="#4c5948" opacity="0.22"/><rect x="1051" y="783.4" width="153.22" height="2" rx="2" fill="#4c5948" opacity="0.22"/>
    
  </g>
  <g opacity="0.72"><text x="78" y="1004" class="micro" fill="#4c5948">CAFE BRANDING</text><text x="78" y="1036" class="micro" fill="#4c5948" opacity="0.55">TEMPORARY DEMONSTRATION PORTFOLIO VISUAL / GALLERY-2</text></g>
</svg>
