<?xml version="1.0" encoding="UTF-8"?>
<svg xmlns="http://www.w3.org/2000/svg" width="1600" height="1100" viewBox="0 0 1600 1100" role="img" aria-labelledby="title desc">
  <title id="title">SORA hero demo portfolio mockup</title>
  <desc id="desc">Temporary fictional demonstration project imagery for portfolio presentation only, not client work.</desc>
  <defs>
    <linearGradient id="bg_sora_hero" x1="0" y1="0" x2="1" y2="1">
      <stop offset="0%" stop-color="#fff8ef"/>
      <stop offset="58%" stop-color="#f5ece4"/>
      <stop offset="100%" stop-color="#ddb59f"/>
    </linearGradient>
    <radialGradient id="light_sora_hero" cx="74%" cy="18%" r="64%">
      <stop offset="0%" stop-color="#ffffff" stop-opacity="0.62"/>
      <stop offset="100%" stop-color="#ffffff" stop-opacity="0"/>
    </radialGradient>
  </defs>
  <style><![CDATA[
    .brand { font-family: Georgia, Georgia, serif; font-weight: 500; letter-spacing: .02em; }
    .body { font-family: Arial, Arial, sans-serif; font-weight: 500; }
    .micro { font-family: Arial, Arial, sans-serif; font-size: 20px; font-weight: 700; letter-spacing: .12em; }
  ]]></style>
  <rect width="1600" height="1100" fill="url(#bg_sora_hero)"/>
  <rect width="1600" height="1100" fill="url(#light_sora_hero)"/>
  <circle cx="1468.35" cy="207.5" r="1.94" fill="#b77768" opacity="0.05"/><rect x="96.01" y="627.95" width="7.53" height="1.05" rx="1" fill="#4c5948" opacity="0.07" transform="rotate(150.67 96.01 627.95)"/><rect x="500.26" y="575.34" width="25.94" height="1.22" rx="1" fill="#b77768" opacity="0.06" transform="rotate(109.03 500.26 575.34)"/><rect x="583.71" y="676.99" width="17" height="2.03" rx="1" fill="#4c5948" opacity="0.05" transform="rotate(179.66 583.71 676.99)"/><rect x="1395.08" y="436.41" width="19.24" height="2.53" rx="1" fill="#b77768" opacity="0.07" transform="rotate(117.27 1395.08 436.41)"/><circle cx="1366.64" cy="1058.73" r="1.52" fill="#4c5948" opacity="0.07"/><rect x="758" y="254.62" width="15.33" height="0.86" rx="1" fill="#b77768" opacity="0.07" transform="rotate(45.1 758 254.62)"/><circle cx="308.61" cy="817.98" r="1.71" fill="#4c5948" opacity="0.06"/><circle cx="95.24" cy="289.19" r="1.69" fill="#4c5948" opacity="0.03"/><circle cx="1000.27" cy="1073.18" r="1.26" fill="#4c5948" opacity="0.07"/><circle cx="735.35" cy="533.67" r="0.83" fill="#4c5948" opacity="0.05"/><rect x="169.86" y="466.67" width="27.47" height="0.83" rx="1" fill="#4c5948" opacity="0.03" transform="rotate(71.03 169.86 466.67)"/><rect x="1260.86" y="708.14" width="13.15" height="1.17" rx="1" fill="#4c5948" opacity="0.06" transform="rotate(129.88 1260.86 708.14)"/><circle cx="454.96" cy="983.9" r="1.77" fill="#4c5948" opacity="0.07"/><circle cx="777.15" cy="885.65" r="1" fill="#b77768" opacity="0.03"/><circle cx="298.16" cy="763.2" r="1.08" fill="#4c5948" opacity="0.04"/><circle cx="426.88" cy="533.76" r="1.19" fill="#b77768" opacity="0.04"/><rect x="124.93" y="703.06" width="10.68" height="2.07" rx="1" fill="#4c5948" opacity="0.08" transform="rotate(98.43 124.93 703.06)"/><rect x="1359.33" y="83.45" width="23.08" height="1.46" rx="1" fill="#4c5948" opacity="0.03" transform="rotate(58.5 1359.33 83.45)"/><rect x="1352.41" y="237.58" width="26.01" height="1.75" rx="1" fill="#4c5948" opacity="0.07" transform="rotate(26.6 1352.41 237.58)"/><rect x="1567.16" y="854.79" width="7.61" height="2.58" rx="1" fill="#4c5948" opacity="0.06" transform="rotate(108.34 1567.16 854.79)"/><circle cx="861.24" cy="553.98" r="0.74" fill="#b77768" opacity="0.04"/><rect x="1000.22" y="543.44" width="12.17" height="1.86" rx="1" fill="#4c5948" opacity="0.04" transform="rotate(120.38 1000.22 543.44)"/><rect x="196.43" y="104.49" width="9" height="2.36" rx="1" fill="#4c5948" opacity="0.05" transform="rotate(60.89 196.43 104.49)"/><rect x="706.27" y="412.66" width="16.25" height="2.4" rx="1" fill="#4c5948" opacity="0.03" transform="rotate(176.02 706.27 412.66)"/><rect x="1012.22" y="675.8" width="25.36" height="1.67" rx="1" fill="#b77768" opacity="0.08" transform="rotate(92.22 1012.22 675.8)"/><rect x="1031.4" y="754.54" width="21.38" height="2.38" rx="1" fill="#b77768" opacity="0.08" transform="rotate(56.48 1031.4 754.54)"/><circle cx="66.49" cy="476.71" r="1.74" fill="#4c5948" opacity="0.06"/><circle cx="252.98" cy="947.12" r="1.11" fill="#4c5948" opacity="0.07"/><rect x="793.49" y="937.45" width="15.99" height="1.54" rx="1" fill="#b77768" opacity="0.08" transform="rotate(33.38 793.49 937.45)"/><rect x="1591.54" y="595.09" width="19.44" height="1.61" rx="1" fill="#4c5948" opacity="0.06" transform="rotate(67.84 1591.54 595.09)"/><circle cx="729.39" cy="462.37" r="0.79" fill="#4c5948" opacity="0.04"/><circle cx="1413.13" cy="821.75" r="0.83" fill="#b77768" opacity="0.07"/><circle cx="1587.75" cy="515.6" r="0.97" fill="#b77768" opacity="0.04"/><rect x="12.05" y="232.73" width="27.77" height="2.57" rx="1" fill="#b77768" opacity="0.04" transform="rotate(0.33 12.05 232.73)"/><rect x="1598.68" y="488.05" width="11.77" height="1.17" rx="1" fill="#4c5948" opacity="0.07" transform="rotate(111.67 1598.68 488.05)"/><circle cx="1172.38" cy="1074.87" r="1.76" fill="#4c5948" opacity="0.06"/><circle cx="725.37" cy="339.62" r="2.28" fill="#b77768" opacity="0.05"/><rect x="961.27" y="799.92" width="25.78" height="1.34" rx="1" fill="#b77768" opacity="0.05" transform="rotate(56.69 961.27 799.92)"/><circle cx="102.28" cy="479.27" r="1.04" fill="#b77768" opacity="0.03"/><rect x="60.02" y="97.4" width="17.5" height="1.5" rx="1" fill="#4c5948" opacity="0.04" transform="rotate(104.43 60.02 97.4)"/><rect x="483.11" y="733.32" width="12.53" height="2.48" rx="1" fill="#4c5948" opacity="0.07" transform="rotate(56.67 483.11 733.32)"/><circle cx="420.02" cy="366.45" r="1.58" fill="#b77768" opacity="0.08"/><rect x="617.89" y="36.88" width="15.19" height="2.57" rx="1" fill="#b77768" opacity="0.07" transform="rotate(36.14 617.89 36.88)"/><circle cx="951.93" cy="510.85" r="1.89" fill="#b77768" opacity="0.07"/><rect x="449.53" y="252.14" width="7.66" height="1.61" rx="1" fill="#b77768" opacity="0.07" transform="rotate(149.68 449.53 252.14)"/><rect x="215.19" y="476.7" width="9.28" height="1.04" rx="1" fill="#b77768" opacity="0.06" transform="rotate(121.81 215.19 476.7)"/><circle cx="1179.79" cy="328.98" r="0.77" fill="#4c5948" opacity="0.03"/><circle cx="1416.6" cy="1035.72" r="1.11" fill="#4c5948" opacity="0.06"/><rect x="812.82" y="1055.54" width="21" height="1.75" rx="1" fill="#4c5948" opacity="0.07" transform="rotate(10.27 812.82 1055.54)"/><circle cx="646.7" cy="273.6" r="1.97" fill="#b77768" opacity="0.04"/><circle cx="1252.09" cy="370.8" r="1.7" fill="#4c5948" opacity="0.05"/><rect x="1255.18" y="391.46" width="25.57" height="0.86" rx="1" fill="#b77768" opacity="0.06" transform="rotate(89.1 1255.18 391.46)"/><rect x="1337.19" y="666.19" width="13.52" height="0.83" rx="1" fill="#b77768" opacity="0.03" transform="rotate(138.59 1337.19 666.19)"/><rect x="13.98" y="155.7" width="11.54" height="1.24" rx="1" fill="#b77768" opacity="0.06" transform="rotate(144.22 13.98 155.7)"/><circle cx="749.32" cy="40.03" r="1.57" fill="#b77768" opacity="0.04"/><rect x="861.79" y="898.2" width="7.52" height="1.48" rx="1" fill="#b77768" opacity="0.06" transform="rotate(34.9 861.79 898.2)"/><circle cx="1437.82" cy="23.74" r="1.45" fill="#b77768" opacity="0.06"/><rect x="1482.87" y="1062.23" width="27.69" height="1.4" rx="1" fill="#4c5948" opacity="0.04" transform="rotate(7.65 1482.87 1062.23)"/><rect x="1465.83" y="826.15" width="6.58" height="1.26" rx="1" fill="#4c5948" opacity="0.07" transform="rotate(15.38 1465.83 826.15)"/><rect x="67.46" y="537.83" width="12.07" height="1.72" rx="1" fill="#b77768" opacity="0.03" transform="rotate(95.3 67.46 537.83)"/><rect x="667.31" y="773.41" width="9.48" height="1.67" rx="1" fill="#4c5948" opacity="0.06" transform="rotate(128.18 667.31 773.41)"/><rect x="719.21" y="100.92" width="17.14" height="1.4" rx="1" fill="#4c5948" opacity="0.04" transform="rotate(140.57 719.21 100.92)"/><rect x="231.02" y="846.45" width="13.49" height="1.78" rx="1" fill="#4c5948" opacity="0.08" transform="rotate(11.83 231.02 846.45)"/><rect x="424.51" y="0.77" width="13.76" height="1.08" rx="1" fill="#b77768" opacity="0.05" transform="rotate(156.94 424.51 0.77)"/><circle cx="124.31" cy="61.87" r="1.91" fill="#4c5948" opacity="0.04"/><circle cx="1535.52" cy="780.16" r="1.49" fill="#b77768" opacity="0.06"/><rect x="1350.86" y="966.74" width="11.17" height="1.27" rx="1" fill="#4c5948" opacity="0.06" transform="rotate(103.68 1350.86 966.74)"/><circle cx="111.15" cy="462.33" r="1.66" fill="#b77768" opacity="0.05"/><rect x="1324.35" y="587.01" width="13.69" height="0.81" rx="1" fill="#4c5948" opacity="0.04" transform="rotate(146.03 1324.35 587.01)"/><rect x="1043.18" y="784.99" width="15.71" height="2.43" rx="1" fill="#b77768" opacity="0.05" transform="rotate(34.25 1043.18 784.99)"/><circle cx="112.1" cy="451.91" r="1.78" fill="#4c5948" opacity="0.05"/><rect x="638.43" y="707.81" width="17.64" height="1.37" rx="1" fill="#4c5948" opacity="0.04" transform="rotate(71.33 638.43 707.81)"/><rect x="575.27" y="895.3" width="16.1" height="1.44" rx="1" fill="#b77768" opacity="0.07" transform="rotate(67.12 575.27 895.3)"/><circle cx="636.09" cy="950.95" r="1.11" fill="#b77768" opacity="0.03"/><rect x="1501.42" y="869.07" width="13.56" height="0.82" rx="1" fill="#4c5948" opacity="0.08" transform="rotate(115.05 1501.42 869.07)"/><rect x="936.09" y="71.85" width="9.84" height="1.47" rx="1" fill="#b77768" opacity="0.03" transform="rotate(176.32 936.09 71.85)"/><circle cx="523.69" cy="263.77" r="1.65" fill="#4c5948" opacity="0.03"/><rect x="1341.71" y="26.72" width="7.51" height="1.5" rx="1" fill="#b77768" opacity="0.05" transform="rotate(110.77 1341.71 26.72)"/><rect x="184.87" y="410.96" width="27.89" height="2.08" rx="1" fill="#b77768" opacity="0.03" transform="rotate(80.33 184.87 410.96)"/><rect x="295.06" y="192.02" width="17.79" height="1.13" rx="1" fill="#b77768" opacity="0.03" transform="rotate(176.4 295.06 192.02)"/><rect x="778.42" y="658.32" width="6.13" height="2.47" rx="1" fill="#b77768" opacity="0.05" transform="rotate(118.37 778.42 658.32)"/><rect x="1340.87" y="355.85" width="14.57" height="1.55" rx="1" fill="#4c5948" opacity="0.07" transform="rotate(93.8 1340.87 355.85)"/><rect x="1268.91" y="1073.45" width="18.24" height="0.98" rx="1" fill="#b77768" opacity="0.06" transform="rotate(16.84 1268.91 1073.45)"/><circle cx="1195.9" cy="64.16" r="1.56" fill="#b77768" opacity="0.05"/><rect x="271.39" y="1089.31" width="26.47" height="0.89" rx="1" fill="#4c5948" opacity="0.03" transform="rotate(104.61 271.39 1089.31)"/><circle cx="154.72" cy="18.35" r="1.78" fill="#b77768" opacity="0.07"/><circle cx="1284.39" cy="775.75" r="1.18" fill="#4c5948" opacity="0.03"/><rect x="404.51" y="968.22" width="12.61" height="1.19" rx="1" fill="#4c5948" opacity="0.03" transform="rotate(134.44 404.51 968.22)"/><circle cx="170.06" cy="189.69" r="1.07" fill="#b77768" opacity="0.07"/><rect x="29.88" y="1089.36" width="6.25" height="1.79" rx="1" fill="#4c5948" opacity="0.07" transform="rotate(42.07 29.88 1089.36)"/><rect x="1272.28" y="566.36" width="26.66" height="1.44" rx="1" fill="#b77768" opacity="0.06" transform="rotate(133.23 1272.28 566.36)"/><rect x="1426.32" y="656.7" width="20.86" height="1.64" rx="1" fill="#4c5948" opacity="0.04" transform="rotate(139.95 1426.32 656.7)"/><rect x="706.34" y="528.43" width="15.1" height="0.87" rx="1" fill="#b77768" opacity="0.03" transform="rotate(103.93 706.34 528.43)"/><circle cx="648.57" cy="492.15" r="0.77" fill="#b77768" opacity="0.04"/><circle cx="546.93" cy="703.24" r="1.77" fill="#4c5948" opacity="0.03"/><rect x="469.94" y="105.49" width="22.47" height="2.34" rx="1" fill="#4c5948" opacity="0.05" transform="rotate(95.49 469.94 105.49)"/><rect x="144.56" y="537.34" width="7.51" height="2.04" rx="1" fill="#4c5948" opacity="0.06" transform="rotate(51.3 144.56 537.34)"/><rect x="1108.25" y="533.29" width="27.45" height="0.83" rx="1" fill="#4c5948" opacity="0.05" transform="rotate(16.33 1108.25 533.29)"/><rect x="299.69" y="1050.48" width="15.28" height="2.21" rx="1" fill="#4c5948" opacity="0.03" transform="rotate(98.05 299.69 1050.48)"/><rect x="1332.76" y="981.96" width="25.91" height="2.26" rx="1" fill="#b77768" opacity="0.06" transform="rotate(47.44 1332.76 981.96)"/><rect x="1541.14" y="1015.82" width="25.56" height="1.17" rx="1" fill="#b77768" opacity="0.06" transform="rotate(17.73 1541.14 1015.82)"/><rect x="1302.72" y="340.74" width="20.88" height="1.66" rx="1" fill="#4c5948" opacity="0.06" transform="rotate(24.81 1302.72 340.74)"/><rect x="1382.24" y="1048.3" width="8.94" height="1.73" rx="1" fill="#4c5948" opacity="0.03" transform="rotate(38.84 1382.24 1048.3)"/><circle cx="1251.56" cy="837.96" r="0.88" fill="#4c5948" opacity="0.03"/><circle cx="146.36" cy="1041.99" r="1.32" fill="#b77768" opacity="0.06"/><circle cx="1256.05" cy="1021.86" r="1.55" fill="#b77768" opacity="0.05"/><rect x="949.74" y="132.14" width="22.57" height="0.99" rx="1" fill="#b77768" opacity="0.06" transform="rotate(80.3 949.74 132.14)"/><circle cx="84.34" cy="294.81" r="1.97" fill="#b77768" opacity="0.04"/><rect x="810.67" y="947.94" width="22.85" height="1.25" rx="1" fill="#b77768" opacity="0.04" transform="rotate(75.27 810.67 947.94)"/><rect x="1053.78" y="266.01" width="8.6" height="1.71" rx="1" fill="#4c5948" opacity="0.04" transform="rotate(143.35 1053.78 266.01)"/><rect x="940.98" y="316.69" width="24.77" height="1.32" rx="1" fill="#4c5948" opacity="0.05" transform="rotate(1.51 940.98 316.69)"/><rect x="25.36" y="143.63" width="7.62" height="1.52" rx="1" fill="#4c5948" opacity="0.03" transform="rotate(17.74 25.36 143.63)"/><rect x="1536.47" y="1027.64" width="15.08" height="1.89" rx="1" fill="#b77768" opacity="0.07" transform="rotate(40.33 1536.47 1027.64)"/><circle cx="825.58" cy="969.24" r="0.99" fill="#4c5948" opacity="0.07"/><rect x="145.5" y="927.46" width="6.07" height="1.98" rx="1" fill="#b77768" opacity="0.03" transform="rotate(117.72 145.5 927.46)"/><circle cx="1069.9" cy="928.69" r="1.91" fill="#4c5948" opacity="0.05"/><rect x="1142.99" y="649.53" width="23.67" height="1.27" rx="1" fill="#4c5948" opacity="0.03" transform="rotate(62.86 1142.99 649.53)"/><circle cx="994.14" cy="577.6" r="1.24" fill="#b77768" opacity="0.07"/><rect x="563.19" y="864.24" width="15.28" height="1.39" rx="1" fill="#4c5948" opacity="0.08" transform="rotate(115.45 563.19 864.24)"/><rect x="1416.55" y="327.86" width="25.42" height="1.4" rx="1" fill="#b77768" opacity="0.03" transform="rotate(27.44 1416.55 327.86)"/><rect x="1355.41" y="1077.04" width="27.38" height="2.4" rx="1" fill="#4c5948" opacity="0.08" transform="rotate(67.45 1355.41 1077.04)"/><rect x="755.72" y="694.07" width="11.01" height="0.83" rx="1" fill="#b77768" opacity="0.03" transform="rotate(146.66 755.72 694.07)"/><rect x="47.8" y="881.92" width="13.56" height="0.95" rx="1" fill="#b77768" opacity="0.07" transform="rotate(4.26 47.8 881.92)"/><circle cx="1210.22" cy="474.17" r="1.45" fill="#b77768" opacity="0.03"/><rect x="1526.64" y="756.06" width="10.66" height="1.77" rx="1" fill="#b77768" opacity="0.04" transform="rotate(148.02 1526.64 756.06)"/><rect x="1322.92" y="76.43" width="10.83" height="2.47" rx="1" fill="#b77768" opacity="0.03" transform="rotate(63.42 1322.92 76.43)"/><circle cx="114.7" cy="202.56" r="1.68" fill="#4c5948" opacity="0.03"/><circle cx="100.9" cy="941.27" r="2.11" fill="#b77768" opacity="0.06"/><rect x="233.18" y="37.38" width="20.28" height="1.32" rx="1" fill="#b77768" opacity="0.04" transform="rotate(126.32 233.18 37.38)"/><rect x="695.84" y="789.42" width="15.81" height="2.59" rx="1" fill="#b77768" opacity="0.05" transform="rotate(169.68 695.84 789.42)"/><rect x="953.69" y="95.95" width="25.82" height="2.48" rx="1" fill="#b77768" opacity="0.03" transform="rotate(43.29 953.69 95.95)"/><circle cx="1131.31" cy="735.09" r="1.27" fill="#b77768" opacity="0.08"/><rect x="577.7" y="1084.03" width="20.44" height="1.38" rx="1" fill="#b77768" opacity="0.08" transform="rotate(64.18 577.7 1084.03)"/><circle cx="1379.52" cy="1039.7" r="2.29" fill="#4c5948" opacity="0.04"/><rect x="1223.9" y="598.72" width="7.85" height="1.51" rx="1" fill="#4c5948" opacity="0.06" transform="rotate(102.61 1223.9 598.72)"/><rect x="997.37" y="253.96" width="8.66" height="1.24" rx="1" fill="#b77768" opacity="0.05" transform="rotate(98.95 997.37 253.96)"/><rect x="175.12" y="278.05" width="9.44" height="1.02" rx="1" fill="#b77768" opacity="0.05" transform="rotate(42.88 175.12 278.05)"/><circle cx="905.63" cy="360.22" r="1.34" fill="#4c5948" opacity="0.06"/><circle cx="287.65" cy="617.63" r="1.21" fill="#4c5948" opacity="0.07"/>
  <circle cx="1350" cy="178" r="184" fill="#b77768" opacity="0.06"/>
  <circle cx="220" cy="894" r="220" fill="#9da98b" opacity="0.08"/>
  <g transform="rotate(-5 407.5 505)">
    <ellipse cx="423.5" cy="864.86" rx="166.95" ry="9.36" fill="#1f211d" opacity="0.12"/>
    <polygon points="250,315 407.5,245 565,315 565,765 250,765" fill="#ddb59f"/>
    <rect x="250" y="311" width="315" height="454" rx="8" fill="#fff8ef"/>
    <rect x="306.7" y="432.2" width="201.6" height="140.4" rx="8" fill="#586853"/>
    <text x="407.5" y="499.8" text-anchor="middle" class="brand" fill="#fff8ef" font-size="40.95">SORA</text>
    <rect x="363.4" y="281" width="88.2" height="18" rx="9" fill="#b77768"/>
  </g><g transform="rotate(4 785 510)">
    <ellipse cx="801" cy="787.6" rx="206.7" ry="56" fill="#1f211d" opacity="0.11"/>
    <rect x="590" y="230" width="390" height="560" rx="8" fill="#fff8ef"/>
    <text x="636.8" y="330.8" class="brand" fill="#4c5948" font-size="42.9">MENU</text>
    <rect x="636.8" y="398" width="148.2" height="3" rx="2" fill="#4c5948" opacity="0.32"/><rect x="870.8" y="398" width="54.6" height="3" rx="2" fill="#b77768" opacity="0.62"/><rect x="636.8" y="440" width="148.2" height="3" rx="2" fill="#4c5948" opacity="0.32"/><rect x="870.8" y="440" width="54.6" height="3" rx="2" fill="#b77768" opacity="0.62"/><rect x="636.8" y="482" width="148.2" height="3" rx="2" fill="#4c5948" opacity="0.32"/><rect x="870.8" y="482" width="54.6" height="3" rx="2" fill="#b77768" opacity="0.62"/><rect x="636.8" y="524" width="148.2" height="3" rx="2" fill="#4c5948" opacity="0.32"/><rect x="870.8" y="524" width="54.6" height="3" rx="2" fill="#b77768" opacity="0.62"/><rect x="636.8" y="566" width="148.2" height="3" rx="2" fill="#4c5948" opacity="0.32"/><rect x="870.8" y="566" width="54.6" height="3" rx="2" fill="#b77768" opacity="0.62"/><rect x="636.8" y="608" width="148.2" height="3" rx="2" fill="#4c5948" opacity="0.32"/><rect x="870.8" y="608" width="54.6" height="3" rx="2" fill="#b77768" opacity="0.62"/><rect x="636.8" y="650" width="148.2" height="3" rx="2" fill="#4c5948" opacity="0.32"/><rect x="870.8" y="650" width="54.6" height="3" rx="2" fill="#b77768" opacity="0.62"/><rect x="636.8" y="692" width="148.2" height="3" rx="2" fill="#4c5948" opacity="0.32"/><rect x="870.8" y="692" width="54.6" height="3" rx="2" fill="#b77768" opacity="0.62"/>
  </g><g transform="rotate(-7 1125 557.5)">
    <ellipse cx="1137" cy="795.53" rx="111.3" ry="5.68" fill="#1f211d" opacity="0.11"/>
    <path d="M 1020 380 H 1230 L 1192.2 735 H 1057.8 Z" fill="#fff8ef"/>
    <rect x="1047.3" y="500.7" width="155.4" height="99.4" rx="8" fill="#586853"/>
    <text x="1125" y="561.05" text-anchor="middle" class="brand" fill="#fff8ef" font-size="25.2">SORA</text>
  </g><g transform="rotate(4 1170 820)">
    <ellipse cx="1186" cy="924.2" rx="169.6" ry="17" fill="#1f211d" opacity="0.11"/>
    <rect x="1010" y="735" width="320" height="170" rx="10" fill="#fff8ef"/>
    <rect x="1028" y="753" width="284" height="134" rx="5" fill="none" stroke="#4c5948" stroke-opacity="0.11"/>
    <rect x="1044" y="777" width="70.4" height="4" rx="2" fill="#b77768" opacity="0.84"/>
    <text x="1044" y="792.8" class="brand" fill="#4c5948" font-size="38.4">LOYALTY</text>
    <text x="1046" y="826.8" class="micro" fill="#4c5948" opacity="0.65">STAMP CARD</text>
    <rect x="1046" y="833.6" width="87.55" height="3" rx="2" fill="#4c5948" opacity="0.42"/><rect x="1046" y="855.6" width="131.33" height="2" rx="2" fill="#4c5948" opacity="0.22"/><rect x="1046" y="877.6" width="175.1" height="2" rx="2" fill="#4c5948" opacity="0.22"/>
    <circle cx="1264" cy="835" r="35" fill="#b77768" opacity="0.86"/><text x="1264" y="846" text-anchor="middle" class="micro" fill="#fff8ef" font-size="20">LO</text>
  </g><g transform="rotate(8 1285 345)">
    <ellipse cx="1297" cy="478" rx="121.9" ry="25" fill="#1f211d" opacity="0.09"/>
    <rect x="1170" y="220" width="230" height="250" rx="14" fill="#fff8ef"/>
    <rect x="1192" y="242" width="186" height="120" rx="10" fill="#ddb59f"/>
    <text x="1194" y="385" class="brand" fill="#4c5948" font-size="20.7">OPEN</text>
    <rect x="1194" y="405" width="59.43" height="3" rx="2" fill="#4c5948" opacity="0.42"/><rect x="1194" y="427" width="89.15" height="2" rx="2" fill="#4c5948" opacity="0.22"/><rect x="1194" y="449" width="118.86" height="2" rx="2" fill="#4c5948" opacity="0.22"/>
  </g>
  <g opacity="0.72"><text x="78" y="1004" class="micro" fill="#4c5948">CAFE BRANDING</text><text x="78" y="1036" class="micro" fill="#4c5948" opacity="0.55">TEMPORARY DEMONSTRATION PORTFOLIO VISUAL / HERO</text></g>
</svg>
