<?xml version="1.0" encoding="UTF-8"?>
<svg xmlns="http://www.w3.org/2000/svg" width="1600" height="1100" viewBox="0 0 1600 1100" role="img" aria-labelledby="title desc">
  <title id="title">NOMA cover demo portfolio mockup</title>
  <desc id="desc">Temporary fictional demonstration project imagery for portfolio presentation only, not client work.</desc>
  <defs>
    <linearGradient id="bg_noma_cover" x1="0" y1="0" x2="1" y2="1">
      <stop offset="0%" stop-color="#fff7ec"/>
      <stop offset="58%" stop-color="#f2e7dc"/>
      <stop offset="100%" stop-color="#cfaf96"/>
    </linearGradient>
    <radialGradient id="light_noma_cover" cx="74%" cy="18%" r="64%">
      <stop offset="0%" stop-color="#ffffff" stop-opacity="0.62"/>
      <stop offset="100%" stop-color="#ffffff" stop-opacity="0"/>
    </radialGradient>
  </defs>
  <style><![CDATA[
    .brand { font-family: Georgia, Georgia, serif; font-weight: 500; letter-spacing: .02em; }
    .body { font-family: Arial, Arial, sans-serif; font-weight: 500; }
    .micro { font-family: Arial, Arial, sans-serif; font-size: 20px; font-weight: 700; letter-spacing: .12em; }
  ]]></style>
  <rect width="1600" height="1100" fill="url(#bg_noma_cover)"/>
  <rect width="1600" height="1100" fill="url(#light_noma_cover)"/>
  <rect x="106.32" y="197.05" width="23.86" height="1.7" rx="1" fill="#2f342d" opacity="0.06" transform="rotate(12.41 106.32 197.05)"/><rect x="1456.44" y="290.14" width="14.81" height="0.94" rx="1" fill="#2f342d" opacity="0.06" transform="rotate(0.62 1456.44 290.14)"/><rect x="1517.82" y="760.47" width="23" height="1.22" rx="1" fill="#2f342d" opacity="0.05" transform="rotate(114.01 1517.82 760.47)"/><circle cx="367.19" cy="223.16" r="2.24" fill="#b36f62" opacity="0.04"/><circle cx="1233.96" cy="91.18" r="1.74" fill="#b36f62" opacity="0.06"/><rect x="352.37" y="437.7" width="8.45" height="2.13" rx="1" fill="#2f342d" opacity="0.05" transform="rotate(149.52 352.37 437.7)"/><rect x="190.01" y="855.33" width="21.09" height="1.74" rx="1" fill="#b36f62" opacity="0.06" transform="rotate(179.93 190.01 855.33)"/><rect x="423.96" y="862.57" width="9.64" height="2.21" rx="1" fill="#b36f62" opacity="0.06" transform="rotate(4.22 423.96 862.57)"/><rect x="991.42" y="943.42" width="11.38" height="2.59" rx="1" fill="#2f342d" opacity="0.04" transform="rotate(38.26 991.42 943.42)"/><rect x="845.83" y="21.85" width="13.44" height="1.93" rx="1" fill="#b36f62" opacity="0.07" transform="rotate(25.32 845.83 21.85)"/><circle cx="566.41" cy="643.13" r="0.94" fill="#2f342d" opacity="0.08"/><rect x="312.51" y="650.23" width="9.78" height="1.9" rx="1" fill="#2f342d" opacity="0.08" transform="rotate(47.52 312.51 650.23)"/><rect x="1058.04" y="94.54" width="15.73" height="1.68" rx="1" fill="#b36f62" opacity="0.03" transform="rotate(41.9 1058.04 94.54)"/><circle cx="1327.04" cy="165.9" r="1.47" fill="#b36f62" opacity="0.07"/><rect x="1473.01" y="585.06" width="12.01" height="1.79" rx="1" fill="#b36f62" opacity="0.07" transform="rotate(163.72 1473.01 585.06)"/><circle cx="1560.01" cy="364.58" r="2.06" fill="#b36f62" opacity="0.05"/><circle cx="1124.92" cy="171.22" r="0.84" fill="#b36f62" opacity="0.05"/><rect x="216.74" y="836.28" width="10.28" height="1.85" rx="1" fill="#2f342d" opacity="0.03" transform="rotate(79.3 216.74 836.28)"/><circle cx="959.09" cy="25.81" r="1.83" fill="#b36f62" opacity="0.06"/><rect x="1337.52" y="834.13" width="24.59" height="1.44" rx="1" fill="#2f342d" opacity="0.04" transform="rotate(143.84 1337.52 834.13)"/><rect x="1413.3" y="678.68" width="16.25" height="1.47" rx="1" fill="#2f342d" opacity="0.07" transform="rotate(74.11 1413.3 678.68)"/><rect x="829.59" y="660.49" width="9.18" height="1.45" rx="1" fill="#2f342d" opacity="0.07" transform="rotate(90.64 829.59 660.49)"/><circle cx="1350.63" cy="261.02" r="0.87" fill="#2f342d" opacity="0.07"/><rect x="568.08" y="973.87" width="23.81" height="2.07" rx="1" fill="#b36f62" opacity="0.07" transform="rotate(88.55 568.08 973.87)"/><rect x="309.47" y="482.76" width="14.07" height="1.16" rx="1" fill="#b36f62" opacity="0.04" transform="rotate(36.47 309.47 482.76)"/><rect x="1356.73" y="749.96" width="16.5" height="1.67" rx="1" fill="#b36f62" opacity="0.06" transform="rotate(158.34 1356.73 749.96)"/><rect x="722.54" y="189.11" width="27.95" height="1.84" rx="1" fill="#b36f62" opacity="0.07" transform="rotate(177.86 722.54 189.11)"/><circle cx="349.83" cy="102.03" r="1.08" fill="#b36f62" opacity="0.07"/><circle cx="1554.3" cy="774.63" r="1.43" fill="#2f342d" opacity="0.07"/><rect x="25.39" y="693.03" width="26.81" height="1.25" rx="1" fill="#b36f62" opacity="0.03" transform="rotate(147.83 25.39 693.03)"/><rect x="1292.3" y="253.01" width="8.18" height="1.72" rx="1" fill="#b36f62" opacity="0.07" transform="rotate(82.89 1292.3 253.01)"/><rect x="1265.58" y="896.98" width="23.59" height="0.98" rx="1" fill="#2f342d" opacity="0.08" transform="rotate(4.41 1265.58 896.98)"/><rect x="290.29" y="1072.1" width="13.74" height="1.07" rx="1" fill="#b36f62" opacity="0.06" transform="rotate(94.97 290.29 1072.1)"/><circle cx="516.29" cy="306.73" r="1.48" fill="#b36f62" opacity="0.03"/><rect x="809.03" y="644.5" width="11.31" height="2.42" rx="1" fill="#2f342d" opacity="0.07" transform="rotate(72.17 809.03 644.5)"/><rect x="1259.61" y="1097.01" width="7.55" height="2.24" rx="1" fill="#b36f62" opacity="0.05" transform="rotate(24.73 1259.61 1097.01)"/><circle cx="225.31" cy="543.32" r="0.98" fill="#2f342d" opacity="0.06"/><circle cx="525.85" cy="179.5" r="1.06" fill="#b36f62" opacity="0.06"/><rect x="1366.28" y="900.25" width="13.12" height="2.52" rx="1" fill="#b36f62" opacity="0.06" transform="rotate(0.61 1366.28 900.25)"/><circle cx="322.16" cy="705.63" r="1.04" fill="#b36f62" opacity="0.04"/><rect x="1060.46" y="288.1" width="18.91" height="2.38" rx="1" fill="#2f342d" opacity="0.04" transform="rotate(164.54 1060.46 288.1)"/><rect x="254.44" y="277.13" width="8.2" height="1.39" rx="1" fill="#b36f62" opacity="0.06" transform="rotate(68.52 254.44 277.13)"/><rect x="631.55" y="588.74" width="22.06" height="2.2" rx="1" fill="#b36f62" opacity="0.08" transform="rotate(106.41 631.55 588.74)"/><rect x="1021.22" y="248.8" width="9.73" height="1.59" rx="1" fill="#2f342d" opacity="0.04" transform="rotate(107.12 1021.22 248.8)"/><circle cx="208.83" cy="1057.86" r="1.55" fill="#b36f62" opacity="0.03"/><rect x="486.63" y="468.92" width="16.99" height="2.04" rx="1" fill="#b36f62" opacity="0.06" transform="rotate(2.19 486.63 468.92)"/><rect x="445.38" y="296.27" width="11.09" height="1.42" rx="1" fill="#2f342d" opacity="0.04" transform="rotate(6.62 445.38 296.27)"/><rect x="162.15" y="747.25" width="14.23" height="2.54" rx="1" fill="#b36f62" opacity="0.08" transform="rotate(150.8 162.15 747.25)"/><rect x="1132.05" y="561.96" width="10.18" height="1.07" rx="1" fill="#2f342d" opacity="0.05" transform="rotate(5.39 1132.05 561.96)"/><circle cx="1232.91" cy="15.53" r="0.76" fill="#b36f62" opacity="0.06"/><rect x="66.55" y="154.04" width="6.95" height="1.65" rx="1" fill="#2f342d" opacity="0.05" transform="rotate(140.46 66.55 154.04)"/><circle cx="791.16" cy="858.94" r="1.75" fill="#b36f62" opacity="0.04"/><rect x="1542.4" y="222.6" width="19.09" height="1.24" rx="1" fill="#2f342d" opacity="0.07" transform="rotate(126.25 1542.4 222.6)"/><rect x="185.63" y="698.9" width="20.67" height="1.6" rx="1" fill="#b36f62" opacity="0.05" transform="rotate(160.94 185.63 698.9)"/><rect x="1031.03" y="148.83" width="25.33" height="1.2" rx="1" fill="#b36f62" opacity="0.07" transform="rotate(95.14 1031.03 148.83)"/><rect x="1152.69" y="602.42" width="10.14" height="1.77" rx="1" fill="#2f342d" opacity="0.04" transform="rotate(0.1 1152.69 602.42)"/><circle cx="1206.16" cy="953.4" r="0.81" fill="#2f342d" opacity="0.05"/><rect x="787.84" y="320.74" width="7" height="1.44" rx="1" fill="#2f342d" opacity="0.05" transform="rotate(41.48 787.84 320.74)"/><rect x="207.88" y="73.29" width="26.36" height="1.08" rx="1" fill="#2f342d" opacity="0.03" transform="rotate(60.79 207.88 73.29)"/><circle cx="1481.51" cy="931.1" r="1.92" fill="#b36f62" opacity="0.03"/><rect x="392.21" y="23.67" width="23.07" height="2.2" rx="1" fill="#2f342d" opacity="0.05" transform="rotate(6.27 392.21 23.67)"/><rect x="875.64" y="169.27" width="14.92" height="2.48" rx="1" fill="#b36f62" opacity="0.03" transform="rotate(84.42 875.64 169.27)"/><rect x="1475.45" y="86.76" width="27.03" height="1.47" rx="1" fill="#2f342d" opacity="0.03" transform="rotate(110.89 1475.45 86.76)"/><circle cx="824.24" cy="995.1" r="1.16" fill="#b36f62" opacity="0.05"/><circle cx="1084.63" cy="1077.09" r="0.96" fill="#2f342d" opacity="0.04"/><rect x="889.81" y="752.83" width="23.6" height="1.05" rx="1" fill="#2f342d" opacity="0.03" transform="rotate(38.87 889.81 752.83)"/><circle cx="853.6" cy="731.82" r="0.74" fill="#2f342d" opacity="0.06"/><circle cx="407.94" cy="421.08" r="1.94" fill="#b36f62" opacity="0.08"/><rect x="353.16" y="842.06" width="21.22" height="1.14" rx="1" fill="#2f342d" opacity="0.03" transform="rotate(16.09 353.16 842.06)"/><rect x="1210.13" y="213.72" width="25.49" height="1.03" rx="1" fill="#b36f62" opacity="0.06" transform="rotate(127.39 1210.13 213.72)"/><rect x="370.77" y="94.96" width="12.16" height="2.34" rx="1" fill="#2f342d" opacity="0.04" transform="rotate(63.5 370.77 94.96)"/><rect x="644.25" y="170.15" width="16.64" height="1.58" rx="1" fill="#2f342d" opacity="0.06" transform="rotate(164.42 644.25 170.15)"/><circle cx="365.69" cy="933.68" r="2.25" fill="#2f342d" opacity="0.07"/><circle cx="1513.82" cy="980.62" r="1.33" fill="#b36f62" opacity="0.04"/><circle cx="481.96" cy="480.22" r="0.88" fill="#b36f62" opacity="0.07"/><rect x="279.12" y="13.42" width="26.86" height="1.29" rx="1" fill="#b36f62" opacity="0.03" transform="rotate(150.98 279.12 13.42)"/><circle cx="909.69" cy="279.43" r="1.08" fill="#2f342d" opacity="0.06"/><rect x="158.03" y="367.35" width="24.86" height="1.23" rx="1" fill="#b36f62" opacity="0.06" transform="rotate(82.11 158.03 367.35)"/><rect x="1320.01" y="71.48" width="13.28" height="0.99" rx="1" fill="#b36f62" opacity="0.06" transform="rotate(85.96 1320.01 71.48)"/><rect x="708.55" y="234.3" width="13.22" height="1.25" rx="1" fill="#2f342d" opacity="0.06" transform="rotate(67.68 708.55 234.3)"/><circle cx="140" cy="202.48" r="1.08" fill="#b36f62" opacity="0.04"/><rect x="929.91" y="85.1" width="27.29" height="0.83" rx="1" fill="#2f342d" opacity="0.03" transform="rotate(96.31 929.91 85.1)"/><rect x="1584.8" y="381.06" width="27.75" height="1.07" rx="1" fill="#2f342d" opacity="0.07" transform="rotate(71.27 1584.8 381.06)"/><circle cx="749.07" cy="1017.17" r="0.79" fill="#b36f62" opacity="0.06"/><circle cx="1297.36" cy="645.86" r="1.12" fill="#b36f62" opacity="0.06"/><rect x="920.27" y="300.48" width="24.32" height="2.06" rx="1" fill="#b36f62" opacity="0.06" transform="rotate(35.53 920.27 300.48)"/><rect x="731.04" y="615.51" width="18.63" height="1.9" rx="1" fill="#b36f62" opacity="0.07" transform="rotate(116.27 731.04 615.51)"/><rect x="328.23" y="478.57" width="12.61" height="1.51" rx="1" fill="#2f342d" opacity="0.04" transform="rotate(124.48 328.23 478.57)"/><rect x="479.41" y="173.39" width="11.03" height="1.22" rx="1" fill="#b36f62" opacity="0.06" transform="rotate(71.4 479.41 173.39)"/><rect x="644.29" y="422.76" width="8.13" height="2.51" rx="1" fill="#2f342d" opacity="0.04" transform="rotate(150.91 644.29 422.76)"/><rect x="540.18" y="557.55" width="15.35" height="1.8" rx="1" fill="#b36f62" opacity="0.04" transform="rotate(24.03 540.18 557.55)"/><rect x="1417.43" y="532.69" width="25.55" height="2.1" rx="1" fill="#b36f62" opacity="0.06" transform="rotate(163.7 1417.43 532.69)"/><rect x="396.05" y="1082" width="22.97" height="1.65" rx="1" fill="#2f342d" opacity="0.04" transform="rotate(107.17 396.05 1082)"/><rect x="359.86" y="448.42" width="16.17" height="1.91" rx="1" fill="#2f342d" opacity="0.08" transform="rotate(33.46 359.86 448.42)"/><circle cx="634.32" cy="559.03" r="1.96" fill="#b36f62" opacity="0.05"/><rect x="715.19" y="626.89" width="26.01" height="1.37" rx="1" fill="#2f342d" opacity="0.06" transform="rotate(92.27 715.19 626.89)"/><circle cx="625.43" cy="243.38" r="0.71" fill="#2f342d" opacity="0.06"/><circle cx="1480.21" cy="645.9" r="1.12" fill="#b36f62" opacity="0.04"/><rect x="1188.67" y="839.22" width="8.36" height="2.11" rx="1" fill="#2f342d" opacity="0.07" transform="rotate(92.05 1188.67 839.22)"/><rect x="1073.2" y="637.72" width="13.67" height="1.6" rx="1" fill="#2f342d" opacity="0.06" transform="rotate(177.52 1073.2 637.72)"/><rect x="319.69" y="244.62" width="15.57" height="2.1" rx="1" fill="#b36f62" opacity="0.04" transform="rotate(145.41 319.69 244.62)"/><rect x="395.05" y="347.16" width="11.9" height="2.12" rx="1" fill="#2f342d" opacity="0.04" transform="rotate(75.29 395.05 347.16)"/><circle cx="261.77" cy="856.04" r="1.07" fill="#2f342d" opacity="0.08"/><rect x="186.95" y="357.48" width="23.39" height="1.77" rx="1" fill="#2f342d" opacity="0.04" transform="rotate(44.21 186.95 357.48)"/><circle cx="658.28" cy="171.02" r="2.05" fill="#b36f62" opacity="0.06"/><rect x="354.24" y="641.75" width="27.63" height="1.06" rx="1" fill="#2f342d" opacity="0.04" transform="rotate(99.69 354.24 641.75)"/><circle cx="1554.21" cy="373.31" r="1" fill="#b36f62" opacity="0.06"/><rect x="575.93" y="530.47" width="11.91" height="0.89" rx="1" fill="#2f342d" opacity="0.03" transform="rotate(18.9 575.93 530.47)"/><rect x="1537.05" y="473.22" width="24.04" height="1.04" rx="1" fill="#b36f62" opacity="0.03" transform="rotate(31.84 1537.05 473.22)"/><rect x="475.65" y="226.43" width="6.08" height="1.39" rx="1" fill="#2f342d" opacity="0.06" transform="rotate(51.85 475.65 226.43)"/><rect x="158.37" y="596.5" width="17.15" height="1.83" rx="1" fill="#b36f62" opacity="0.05" transform="rotate(168.16 158.37 596.5)"/><rect x="1055.96" y="240.42" width="24.88" height="1.62" rx="1" fill="#2f342d" opacity="0.05" transform="rotate(64.73 1055.96 240.42)"/><rect x="948.77" y="230.22" width="18.16" height="0.95" rx="1" fill="#b36f62" opacity="0.03" transform="rotate(136.84 948.77 230.22)"/><circle cx="593.4" cy="1088.88" r="1.65" fill="#b36f62" opacity="0.05"/><rect x="885.13" y="860.05" width="8" height="0.88" rx="1" fill="#b36f62" opacity="0.06" transform="rotate(126.3 885.13 860.05)"/><circle cx="62.76" cy="47.42" r="1.68" fill="#b36f62" opacity="0.08"/><rect x="1338.5" y="99.53" width="18.19" height="1.94" rx="1" fill="#2f342d" opacity="0.07" transform="rotate(144.94 1338.5 99.53)"/><circle cx="1491.04" cy="1095.28" r="1.6" fill="#b36f62" opacity="0.06"/><circle cx="1281.67" cy="146.17" r="0.77" fill="#b36f62" opacity="0.04"/><circle cx="369.13" cy="218.72" r="1.11" fill="#2f342d" opacity="0.07"/><rect x="374.57" y="373.47" width="12.59" height="0.99" rx="1" fill="#2f342d" opacity="0.07" transform="rotate(168.09 374.57 373.47)"/><rect x="178.26" y="128.39" width="7.3" height="2.14" rx="1" fill="#b36f62" opacity="0.05" transform="rotate(75.21 178.26 128.39)"/><rect x="677.44" y="201.09" width="12.21" height="1.8" rx="1" fill="#2f342d" opacity="0.03" transform="rotate(132.6 677.44 201.09)"/><circle cx="541.23" cy="465.36" r="0.88" fill="#b36f62" opacity="0.03"/><rect x="157.23" y="927.33" width="13.9" height="2.51" rx="1" fill="#2f342d" opacity="0.05" transform="rotate(34.64 157.23 927.33)"/><circle cx="140.96" cy="212.26" r="1.33" fill="#b36f62" opacity="0.05"/><rect x="1025.24" y="608.95" width="10.38" height="2.44" rx="1" fill="#b36f62" opacity="0.06" transform="rotate(8 1025.24 608.95)"/><circle cx="347.94" cy="546.66" r="1.92" fill="#b36f62" opacity="0.05"/><rect x="670.44" y="944.66" width="9.77" height="1.32" rx="1" fill="#b36f62" opacity="0.03" transform="rotate(1.18 670.44 944.66)"/><circle cx="14.64" cy="862.42" r="1.58" fill="#2f342d" opacity="0.04"/><circle cx="1510.6" cy="667.97" r="0.85" fill="#b36f62" opacity="0.05"/><circle cx="564.07" cy="107.11" r="1.69" fill="#b36f62" opacity="0.06"/><circle cx="1587.85" cy="810.47" r="1.6" fill="#b36f62" opacity="0.07"/><rect x="1253.66" y="788.71" width="22.22" height="1.41" rx="1" fill="#2f342d" opacity="0.05" transform="rotate(39.41 1253.66 788.71)"/><rect x="414.05" y="1010.64" width="7.42" height="1.37" rx="1" fill="#b36f62" opacity="0.07" transform="rotate(26.11 414.05 1010.64)"/><rect x="1282.67" y="904.31" width="14.79" height="1.67" rx="1" fill="#2f342d" opacity="0.06" transform="rotate(41.03 1282.67 904.31)"/><circle cx="420.68" cy="575.75" r="1.13" fill="#b36f62" opacity="0.05"/><rect x="119.13" y="1030.01" width="19.62" height="2.26" rx="1" fill="#2f342d" opacity="0.06" transform="rotate(93.05 119.13 1030.01)"/><rect x="897.65" y="812.19" width="6.39" height="2.09" rx="1" fill="#b36f62" opacity="0.04" transform="rotate(70.94 897.65 812.19)"/><rect x="391.62" y="651.18" width="23.91" height="1.89" rx="1" fill="#b36f62" opacity="0.04" transform="rotate(126.45 391.62 651.18)"/>
  <circle cx="1350" cy="178" r="184" fill="#b36f62" opacity="0.06"/>
  <circle cx="220" cy="894" r="220" fill="#718066" opacity="0.08"/>
  <g transform="rotate(-5 480 490)">
    <ellipse cx="498" cy="701.6" rx="121.9" ry="6" fill="#1f211d" opacity="0.14"/>
    <ellipse cx="480" cy="364" rx="115" ry="24" fill="#fff7ec" opacity="0.82"/>
    <rect x="365" y="364" width="230" height="252" rx="41.4" fill="#e6bd91" opacity="0.86"/>
    <ellipse cx="480" cy="616" rx="115" ry="24" fill="#cfaf96" opacity="0.52"/>
    <rect x="406.4" y="466" width="147.2" height="78" rx="8" fill="#fff7ec"/>
    <text x="480" y="502" text-anchor="middle" class="brand" fill="#2f342d" font-size="36.8">NO</text>
    <text x="480" y="523" text-anchor="middle" class="micro" fill="#2f342d" opacity="0.58">BATCH</text>
    <rect x="415.6" y="346" width="128.8" height="38" rx="7" fill="#46513f"/>
  </g><g transform="rotate(5 843 469.04)">
    <ellipse cx="877" cy="769.77" rx="215.18" ry="10.08" fill="#1f211d" opacity="0.14"/>
    <polygon points="640,305 716,273.08 1046,273.08 970,305" fill="#cfaf96" opacity="0.96"/>
    <polygon points="970,305 1046,273.08 1046,633.08 970,665" fill="#718066" opacity="0.62"/>
    <rect x="640" y="305" width="330" height="360" rx="8" fill="#fff7ec"/>
    <rect x="686.2" y="362.6" width="52.8" height="5" rx="3" fill="#b36f62"/>
    <text x="686.2" y="456.2" class="brand" fill="#2f342d" font-size="42.9">NOMA</text>
    <text x="689.5" y="488.2" class="micro" fill="#2f342d" opacity="0.56">ARTISAN GOODS</text>
    <rect x="689.5" y="535.4" width="77.75" height="3" rx="2" fill="#2f342d" opacity="0.42"/><rect x="689.5" y="557.4" width="116.62" height="2" rx="2" fill="#2f342d" opacity="0.22"/><rect x="689.5" y="579.4" width="155.5" height="2" rx="2" fill="#2f342d" opacity="0.22"/><rect x="689.5" y="601.4" width="87.98" height="2" rx="2" fill="#2f342d" opacity="0.22"/>
  </g><g transform="rotate(-6 1130 725)">
    <ellipse cx="1146" cy="850.8" rx="180.2" ry="23" fill="#1f211d" opacity="0.1"/>
    <rect x="960" y="610" width="340" height="230" rx="7" fill="#cfaf96"/>
    <text x="1010" y="674" class="micro" fill="#2f342d" opacity="0.25">NO</text><text x="1071.2" y="674" class="micro" fill="#2f342d" opacity="0.25">NO</text><text x="1132.4" y="674" class="micro" fill="#2f342d" opacity="0.25">NO</text><text x="1193.6" y="674" class="micro" fill="#2f342d" opacity="0.25">NO</text><text x="1254.8" y="674" class="micro" fill="#2f342d" opacity="0.25">NO</text><text x="1010" y="724.6" class="micro" fill="#2f342d" opacity="0.25">NO</text><text x="1071.2" y="724.6" class="micro" fill="#2f342d" opacity="0.25">NO</text><text x="1132.4" y="724.6" class="micro" fill="#2f342d" opacity="0.25">NO</text><text x="1193.6" y="724.6" class="micro" fill="#2f342d" opacity="0.25">NO</text><text x="1254.8" y="724.6" class="micro" fill="#2f342d" opacity="0.25">NO</text><text x="1010" y="775.2" class="micro" fill="#2f342d" opacity="0.25">NO</text><text x="1071.2" y="775.2" class="micro" fill="#2f342d" opacity="0.25">NO</text><text x="1132.4" y="775.2" class="micro" fill="#2f342d" opacity="0.25">NO</text><text x="1193.6" y="775.2" class="micro" fill="#2f342d" opacity="0.25">NO</text><text x="1254.8" y="775.2" class="micro" fill="#2f342d" opacity="0.25">NO</text><text x="1010" y="825.8" class="micro" fill="#2f342d" opacity="0.25">NO</text><text x="1071.2" y="825.8" class="micro" fill="#2f342d" opacity="0.25">NO</text><text x="1132.4" y="825.8" class="micro" fill="#2f342d" opacity="0.25">NO</text><text x="1193.6" y="825.8" class="micro" fill="#2f342d" opacity="0.25">NO</text><text x="1254.8" y="825.8" class="micro" fill="#2f342d" opacity="0.25">NO</text>
  </g>
  <g opacity="0.72"><text x="78" y="1004" class="micro" fill="#2f342d">ARTISAN PACKAGING</text><text x="78" y="1036" class="micro" fill="#2f342d" opacity="0.55">TEMPORARY DEMONSTRATION PORTFOLIO VISUAL / COVER</text></g>
</svg>
