<?xml version="1.0" encoding="UTF-8"?>
<svg xmlns="http://www.w3.org/2000/svg" width="1600" height="1100" viewBox="0 0 1600 1100" role="img" aria-labelledby="title desc">
  <title id="title">NOMA gallery-1 demo portfolio mockup</title>
  <desc id="desc">Temporary fictional demonstration project imagery for portfolio presentation only, not client work.</desc>
  <defs>
    <linearGradient id="bg_noma_gallery_1" x1="0" y1="0" x2="1" y2="1">
      <stop offset="0%" stop-color="#fff7ec"/>
      <stop offset="58%" stop-color="#f2e7dc"/>
      <stop offset="100%" stop-color="#cfaf96"/>
    </linearGradient>
    <radialGradient id="light_noma_gallery_1" cx="74%" cy="18%" r="64%">
      <stop offset="0%" stop-color="#ffffff" stop-opacity="0.62"/>
      <stop offset="100%" stop-color="#ffffff" stop-opacity="0"/>
    </radialGradient>
  </defs>
  <style><![CDATA[
    .brand { font-family: Georgia, Georgia, serif; font-weight: 500; letter-spacing: .02em; }
    .body { font-family: Arial, Arial, sans-serif; font-weight: 500; }
    .micro { font-family: Arial, Arial, sans-serif; font-size: 20px; font-weight: 700; letter-spacing: .12em; }
  ]]></style>
  <rect width="1600" height="1100" fill="url(#bg_noma_gallery_1)"/>
  <rect width="1600" height="1100" fill="url(#light_noma_gallery_1)"/>
  <circle cx="541.39" cy="393.51" r="0.77" fill="#b36f62" opacity="0.08"/><rect x="370.91" y="1099.75" width="11.32" height="1.49" rx="1" fill="#b36f62" opacity="0.05" transform="rotate(104 370.91 1099.75)"/><circle cx="257.14" cy="724.27" r="1.57" fill="#b36f62" opacity="0.07"/><rect x="524.05" y="437.13" width="9.52" height="0.83" rx="1" fill="#b36f62" opacity="0.05" transform="rotate(178.02 524.05 437.13)"/><rect x="1575.42" y="901.04" width="23.94" height="1.25" rx="1" fill="#2f342d" opacity="0.05" transform="rotate(153.67 1575.42 901.04)"/><rect x="241.29" y="448.74" width="12.96" height="1.28" rx="1" fill="#2f342d" opacity="0.03" transform="rotate(17.32 241.29 448.74)"/><rect x="394.35" y="184.75" width="14.84" height="1.91" rx="1" fill="#b36f62" opacity="0.05" transform="rotate(160.57 394.35 184.75)"/><circle cx="575.36" cy="319.26" r="1.62" fill="#b36f62" opacity="0.04"/><rect x="276.67" y="1038.25" width="19.28" height="2.49" rx="1" fill="#b36f62" opacity="0.07" transform="rotate(170.65 276.67 1038.25)"/><circle cx="212.75" cy="516.88" r="1.01" fill="#2f342d" opacity="0.03"/><rect x="245.08" y="619.27" width="15.55" height="1.73" rx="1" fill="#2f342d" opacity="0.07" transform="rotate(95.04 245.08 619.27)"/><rect x="727.08" y="565.4" width="13.9" height="0.89" rx="1" fill="#2f342d" opacity="0.06" transform="rotate(107.3 727.08 565.4)"/><rect x="974.16" y="1020.43" width="9.17" height="2.02" rx="1" fill="#b36f62" opacity="0.03" transform="rotate(124.92 974.16 1020.43)"/><rect x="15.63" y="9.79" width="22.75" height="2.39" rx="1" fill="#b36f62" opacity="0.07" transform="rotate(132.43 15.63 9.79)"/><circle cx="1162.91" cy="227.34" r="0.85" fill="#b36f62" opacity="0.05"/><rect x="329.27" y="921.71" width="12.66" height="2.53" rx="1" fill="#2f342d" opacity="0.04" transform="rotate(52.58 329.27 921.71)"/><circle cx="718.15" cy="307.08" r="2.17" fill="#b36f62" opacity="0.05"/><rect x="679.33" y="861.73" width="7.16" height="2.23" rx="1" fill="#b36f62" opacity="0.03" transform="rotate(82.63 679.33 861.73)"/><circle cx="12.95" cy="944.1" r="2.19" fill="#2f342d" opacity="0.03"/><rect x="689.23" y="684.74" width="25.2" height="2.39" rx="1" fill="#b36f62" opacity="0.03" transform="rotate(144.87 689.23 684.74)"/><rect x="1354.16" y="430.04" width="11.48" height="2.05" rx="1" fill="#b36f62" opacity="0.03" transform="rotate(109.41 1354.16 430.04)"/><rect x="580.63" y="488.75" width="6" height="2.52" rx="1" fill="#b36f62" opacity="0.04" transform="rotate(23.33 580.63 488.75)"/><rect x="904.78" y="324.48" width="20.29" height="2.29" rx="1" fill="#2f342d" opacity="0.05" transform="rotate(90.04 904.78 324.48)"/><rect x="540.88" y="179.58" width="6.45" height="1.84" rx="1" fill="#b36f62" opacity="0.05" transform="rotate(133.24 540.88 179.58)"/><rect x="602.9" y="686.81" width="13.19" height="2.19" rx="1" fill="#2f342d" opacity="0.03" transform="rotate(114.17 602.9 686.81)"/><rect x="924.56" y="195.38" width="19.23" height="1.13" rx="1" fill="#2f342d" opacity="0.04" transform="rotate(168.45 924.56 195.38)"/><rect x="129.4" y="321.8" width="10.74" height="2.54" rx="1" fill="#b36f62" opacity="0.08" transform="rotate(14.51 129.4 321.8)"/><circle cx="853.78" cy="778.33" r="1.21" fill="#b36f62" opacity="0.06"/><circle cx="528.59" cy="838.55" r="1.16" fill="#b36f62" opacity="0.06"/><circle cx="394.56" cy="176.43" r="1.88" fill="#2f342d" opacity="0.07"/><circle cx="1007.35" cy="689.84" r="0.98" fill="#2f342d" opacity="0.04"/><rect x="565.55" y="353.55" width="21.37" height="1.16" rx="1" fill="#b36f62" opacity="0.08" transform="rotate(90.25 565.55 353.55)"/><rect x="1350.79" y="499.88" width="27.7" height="1.44" rx="1" fill="#2f342d" opacity="0.03" transform="rotate(147.79 1350.79 499.88)"/><rect x="416.68" y="235.15" width="25.88" height="2.52" rx="1" fill="#b36f62" opacity="0.03" transform="rotate(37.47 416.68 235.15)"/><rect x="136.26" y="998.57" width="27.48" height="1.93" rx="1" fill="#b36f62" opacity="0.08" transform="rotate(128.27 136.26 998.57)"/><circle cx="186.42" cy="614.87" r="1.95" fill="#2f342d" opacity="0.07"/><circle cx="192.37" cy="326.78" r="2.05" fill="#2f342d" opacity="0.07"/><rect x="615.9" y="374.42" width="8.94" height="1.06" rx="1" fill="#2f342d" opacity="0.08" transform="rotate(178.46 615.9 374.42)"/><circle cx="408.99" cy="605.46" r="2.22" fill="#b36f62" opacity="0.05"/><rect x="685.47" y="516.56" width="15.71" height="1.2" rx="1" fill="#2f342d" opacity="0.08" transform="rotate(83.36 685.47 516.56)"/><circle cx="250.79" cy="139.59" r="2.07" fill="#b36f62" opacity="0.07"/><circle cx="1347.6" cy="91.31" r="0.92" fill="#b36f62" opacity="0.06"/><rect x="303.63" y="317.34" width="24.61" height="1.39" rx="1" fill="#b36f62" opacity="0.05" transform="rotate(102.9 303.63 317.34)"/><circle cx="1306.17" cy="47.67" r="1.87" fill="#2f342d" opacity="0.05"/><rect x="293.83" y="377.86" width="16.4" height="2.42" rx="1" fill="#2f342d" opacity="0.04" transform="rotate(80.31 293.83 377.86)"/><circle cx="913.61" cy="1007.73" r="1.51" fill="#b36f62" opacity="0.04"/><rect x="1014.17" y="138.89" width="20.08" height="2.41" rx="1" fill="#2f342d" opacity="0.04" transform="rotate(21.62 1014.17 138.89)"/><rect x="1046.61" y="42.23" width="22.34" height="2.06" rx="1" fill="#b36f62" opacity="0.06" transform="rotate(85.1 1046.61 42.23)"/><rect x="278" y="535.46" width="23.59" height="0.93" rx="1" fill="#2f342d" opacity="0.07" transform="rotate(60.73 278 535.46)"/><rect x="1326.31" y="933.7" width="11.42" height="1.51" rx="1" fill="#b36f62" opacity="0.05" transform="rotate(133.44 1326.31 933.7)"/><circle cx="278.79" cy="722.74" r="0.93" fill="#b36f62" opacity="0.05"/><rect x="1593.16" y="411.65" width="9.39" height="1.07" rx="1" fill="#2f342d" opacity="0.07" transform="rotate(81.2 1593.16 411.65)"/><rect x="477.42" y="804.82" width="7.07" height="1.32" rx="1" fill="#2f342d" opacity="0.07" transform="rotate(91.77 477.42 804.82)"/><circle cx="1081.01" cy="451.14" r="0.73" fill="#b36f62" opacity="0.06"/><circle cx="1220.84" cy="851.61" r="1.46" fill="#2f342d" opacity="0.03"/><circle cx="948.84" cy="17.04" r="1.41" fill="#2f342d" opacity="0.07"/><rect x="1464.97" y="772.24" width="18.48" height="2.27" rx="1" fill="#b36f62" opacity="0.03" transform="rotate(138.23 1464.97 772.24)"/><circle cx="706.84" cy="884.96" r="1.54" fill="#b36f62" opacity="0.07"/><rect x="1347.83" y="597.52" width="13.27" height="2.28" rx="1" fill="#2f342d" opacity="0.08" transform="rotate(2.94 1347.83 597.52)"/><circle cx="494.24" cy="42.13" r="1.55" fill="#b36f62" opacity="0.06"/><rect x="1276.13" y="11.82" width="25.27" height="1.03" rx="1" fill="#b36f62" opacity="0.06" transform="rotate(29.34 1276.13 11.82)"/><circle cx="559.95" cy="500.18" r="1.48" fill="#2f342d" opacity="0.05"/><circle cx="749.2" cy="742.16" r="1.12" fill="#b36f62" opacity="0.05"/><rect x="436.23" y="828.09" width="20.52" height="2.42" rx="1" fill="#2f342d" opacity="0.04" transform="rotate(137.5 436.23 828.09)"/><rect x="1438.27" y="599.97" width="8.55" height="1.74" rx="1" fill="#b36f62" opacity="0.04" transform="rotate(91.24 1438.27 599.97)"/><rect x="627.8" y="535.44" width="8.82" height="2.54" rx="1" fill="#2f342d" opacity="0.07" transform="rotate(174.03 627.8 535.44)"/><circle cx="1370.4" cy="435.98" r="1.38" fill="#b36f62" opacity="0.07"/><rect x="332.73" y="513.39" width="10.52" height="1.97" rx="1" fill="#2f342d" opacity="0.04" transform="rotate(156.27 332.73 513.39)"/><rect x="1338.04" y="110.23" width="23.06" height="2.01" rx="1" fill="#b36f62" opacity="0.06" transform="rotate(64.55 1338.04 110.23)"/><rect x="1270.09" y="582.59" width="24.46" height="1.45" rx="1" fill="#2f342d" opacity="0.06" transform="rotate(64.57 1270.09 582.59)"/><rect x="640.73" y="802.54" width="11.58" height="0.9" rx="1" fill="#b36f62" opacity="0.05" transform="rotate(25.34 640.73 802.54)"/><rect x="291.35" y="971.45" width="19.37" height="2.28" rx="1" fill="#b36f62" opacity="0.03" transform="rotate(24.7 291.35 971.45)"/><rect x="1303.9" y="16.73" width="19.32" height="1.14" rx="1" fill="#b36f62" opacity="0.06" transform="rotate(76.14 1303.9 16.73)"/><rect x="275.4" y="435.29" width="9.13" height="2.21" rx="1" fill="#b36f62" opacity="0.05" transform="rotate(157.17 275.4 435.29)"/><rect x="719.79" y="188.75" width="10.71" height="2.31" rx="1" fill="#b36f62" opacity="0.05" transform="rotate(96.59 719.79 188.75)"/><circle cx="1053.61" cy="838.46" r="1.97" fill="#b36f62" opacity="0.07"/><rect x="1017.87" y="46.78" width="7.59" height="0.8" rx="1" fill="#2f342d" opacity="0.03" transform="rotate(53.69 1017.87 46.78)"/><circle cx="343.08" cy="582.23" r="0.92" fill="#b36f62" opacity="0.07"/><rect x="1276.48" y="20.56" width="13.51" height="1" rx="1" fill="#2f342d" opacity="0.05" transform="rotate(21.95 1276.48 20.56)"/><rect x="1471.87" y="1071.43" width="8.1" height="1.81" rx="1" fill="#b36f62" opacity="0.05" transform="rotate(142.82 1471.87 1071.43)"/><rect x="465.79" y="877.22" width="15.06" height="2.13" rx="1" fill="#2f342d" opacity="0.05" transform="rotate(98.09 465.79 877.22)"/><rect x="1274.87" y="331.8" width="10.34" height="0.85" rx="1" fill="#b36f62" opacity="0.04" transform="rotate(110.1 1274.87 331.8)"/><circle cx="1055.01" cy="319.85" r="0.82" fill="#b36f62" opacity="0.07"/><circle cx="1577.13" cy="1081.46" r="0.73" fill="#2f342d" opacity="0.04"/><rect x="1427.77" y="549.08" width="22.88" height="1.43" rx="1" fill="#b36f62" opacity="0.07" transform="rotate(83.25 1427.77 549.08)"/><rect x="849.95" y="1099.66" width="12.32" height="1.04" rx="1" fill="#2f342d" opacity="0.04" transform="rotate(35.85 849.95 1099.66)"/><rect x="661.52" y="1040.05" width="27.89" height="2.45" rx="1" fill="#2f342d" opacity="0.05" transform="rotate(153.72 661.52 1040.05)"/><rect x="417.48" y="81.51" width="11.88" height="1.28" rx="1" fill="#b36f62" opacity="0.05" transform="rotate(122.41 417.48 81.51)"/><circle cx="1465.66" cy="86.48" r="1.46" fill="#b36f62" opacity="0.05"/><rect x="1285.33" y="569.98" width="6.19" height="1.85" rx="1" fill="#2f342d" opacity="0.06" transform="rotate(86.53 1285.33 569.98)"/><circle cx="1425.17" cy="894.76" r="1.86" fill="#2f342d" opacity="0.06"/><circle cx="1324.43" cy="910.06" r="1.77" fill="#2f342d" opacity="0.04"/><circle cx="1035.27" cy="770.27" r="1.2" fill="#2f342d" opacity="0.08"/><rect x="1223.89" y="775.1" width="17.81" height="2.28" rx="1" fill="#2f342d" opacity="0.05" transform="rotate(128.21 1223.89 775.1)"/><rect x="295.81" y="492.77" width="27.97" height="1.16" rx="1" fill="#b36f62" opacity="0.05" transform="rotate(163.82 295.81 492.77)"/><circle cx="592.82" cy="319.51" r="0.72" fill="#b36f62" opacity="0.04"/><rect x="531.7" y="821.17" width="16.8" height="1.81" rx="1" fill="#2f342d" opacity="0.04" transform="rotate(76.1 531.7 821.17)"/><rect x="45.55" y="462.59" width="16.93" height="1.97" rx="1" fill="#b36f62" opacity="0.04" transform="rotate(165.26 45.55 462.59)"/><rect x="1597.34" y="1097.48" width="8.93" height="1.03" rx="1" fill="#2f342d" opacity="0.06" transform="rotate(146.66 1597.34 1097.48)"/><rect x="1101.05" y="392.52" width="9.52" height="2.11" rx="1" fill="#2f342d" opacity="0.04" transform="rotate(56.43 1101.05 392.52)"/><rect x="216.99" y="64.24" width="18.96" height="2.02" rx="1" fill="#b36f62" opacity="0.07" transform="rotate(65.64 216.99 64.24)"/><rect x="783.31" y="959.69" width="16.45" height="1.47" rx="1" fill="#b36f62" opacity="0.04" transform="rotate(41.47 783.31 959.69)"/><circle cx="1424.1" cy="206.08" r="1.49" fill="#2f342d" opacity="0.07"/><rect x="1193.67" y="187.13" width="10.86" height="1.59" rx="1" fill="#b36f62" opacity="0.06" transform="rotate(126.78 1193.67 187.13)"/><rect x="989.84" y="942.16" width="20.28" height="1.43" rx="1" fill="#b36f62" opacity="0.04" transform="rotate(45.72 989.84 942.16)"/><rect x="814.49" y="631.45" width="15.77" height="2.13" rx="1" fill="#2f342d" opacity="0.07" transform="rotate(61.96 814.49 631.45)"/><circle cx="1154.03" cy="827.06" r="0.9" fill="#b36f62" opacity="0.07"/><rect x="1328.62" y="582.34" width="6.16" height="2.13" rx="1" fill="#2f342d" opacity="0.08" transform="rotate(149.94 1328.62 582.34)"/><rect x="95.42" y="604.56" width="7.49" height="2.22" rx="1" fill="#b36f62" opacity="0.04" transform="rotate(95.74 95.42 604.56)"/><rect x="830.13" y="1099.02" width="17.18" height="1.84" rx="1" fill="#2f342d" opacity="0.06" transform="rotate(71.19 830.13 1099.02)"/><rect x="415.92" y="130.68" width="27.49" height="0.88" rx="1" fill="#2f342d" opacity="0.04" transform="rotate(40.94 415.92 130.68)"/><rect x="346.75" y="1007.47" width="23.85" height="2" rx="1" fill="#b36f62" opacity="0.08" transform="rotate(33 346.75 1007.47)"/><rect x="962.77" y="630.09" width="22.18" height="1.34" rx="1" fill="#2f342d" opacity="0.06" transform="rotate(126.42 962.77 630.09)"/><rect x="1570.48" y="266.13" width="24.62" height="0.98" rx="1" fill="#b36f62" opacity="0.03" transform="rotate(119.74 1570.48 266.13)"/><circle cx="572.23" cy="53.09" r="1.1" fill="#2f342d" opacity="0.04"/><rect x="127.42" y="90.67" width="18.54" height="1.34" rx="1" fill="#b36f62" opacity="0.04" transform="rotate(87.72 127.42 90.67)"/><circle cx="125.11" cy="642.54" r="1.81" fill="#2f342d" opacity="0.05"/><rect x="1582.51" y="874.31" width="17.97" height="1.73" rx="1" fill="#b36f62" opacity="0.07" transform="rotate(7.26 1582.51 874.31)"/><circle cx="799.6" cy="1000.78" r="1.69" fill="#2f342d" opacity="0.05"/><rect x="386.52" y="582.32" width="12.72" height="1.72" rx="1" fill="#b36f62" opacity="0.07" transform="rotate(36.84 386.52 582.32)"/><circle cx="338.63" cy="657.73" r="2.18" fill="#2f342d" opacity="0.05"/><circle cx="1539.38" cy="78.12" r="1.71" fill="#b36f62" opacity="0.07"/><rect x="539.56" y="1024.29" width="27.84" height="0.88" rx="1" fill="#b36f62" opacity="0.08" transform="rotate(90.64 539.56 1024.29)"/><circle cx="1001.08" cy="668.51" r="1.38" fill="#b36f62" opacity="0.03"/><rect x="1458.05" y="744.09" width="8.73" height="2.06" rx="1" fill="#2f342d" opacity="0.06" transform="rotate(62.95 1458.05 744.09)"/><rect x="314.39" y="891.75" width="12.97" height="1.49" rx="1" fill="#2f342d" opacity="0.03" transform="rotate(7.11 314.39 891.75)"/><rect x="1226.76" y="283.82" width="17.41" height="1.73" rx="1" fill="#b36f62" opacity="0.03" transform="rotate(81.85 1226.76 283.82)"/><rect x="595.49" y="1018.36" width="17.86" height="2.38" rx="1" fill="#2f342d" opacity="0.03" transform="rotate(36.33 595.49 1018.36)"/><circle cx="705.72" cy="7.36" r="2.21" fill="#b36f62" opacity="0.05"/><rect x="466.64" y="21.96" width="10.31" height="1.05" rx="1" fill="#2f342d" opacity="0.05" transform="rotate(128.02 466.64 21.96)"/><rect x="1507.7" y="390.24" width="22.15" height="1.84" rx="1" fill="#2f342d" opacity="0.03" transform="rotate(63.76 1507.7 390.24)"/><rect x="970.03" y="968.69" width="17.59" height="2.33" rx="1" fill="#b36f62" opacity="0.08" transform="rotate(94.14 970.03 968.69)"/><rect x="287.37" y="70.82" width="13.66" height="2.49" rx="1" fill="#2f342d" opacity="0.06" transform="rotate(173.64 287.37 70.82)"/><rect x="1260.51" y="468.29" width="10.17" height="2.26" rx="1" fill="#b36f62" opacity="0.07" transform="rotate(31.82 1260.51 468.29)"/><circle cx="1540.01" cy="260.28" r="0.82" fill="#b36f62" opacity="0.05"/><rect x="1232.32" y="608.78" width="10.93" height="1.29" rx="1" fill="#b36f62" opacity="0.03" transform="rotate(108.92 1232.32 608.78)"/><rect x="929.86" y="170.84" width="24.02" height="2.58" rx="1" fill="#b36f62" opacity="0.04" transform="rotate(5.11 929.86 170.84)"/><circle cx="1410.49" cy="683.56" r="1.08" fill="#2f342d" opacity="0.06"/><rect x="561.91" y="249.06" width="15.99" height="2.41" rx="1" fill="#2f342d" opacity="0.06" transform="rotate(7.51 561.91 249.06)"/><circle cx="626.13" cy="1012.34" r="0.72" fill="#2f342d" opacity="0.04"/>
  <circle cx="1350" cy="178" r="184" fill="#b36f62" opacity="0.06"/>
  <circle cx="220" cy="894" r="220" fill="#718066" opacity="0.08"/>
  <g transform="rotate(-5 475 480)">
    <ellipse cx="493" cy="691.6" rx="121.9" ry="6" fill="#1f211d" opacity="0.14"/>
    <ellipse cx="475" cy="354" rx="115" ry="24" fill="#fff7ec" opacity="0.82"/>
    <rect x="360" y="354" width="230" height="252" rx="41.4" fill="#e6bd91" opacity="0.86"/>
    <ellipse cx="475" cy="606" rx="115" ry="24" fill="#cfaf96" opacity="0.52"/>
    <rect x="401.4" y="456" width="147.2" height="78" rx="8" fill="#fff7ec"/>
    <text x="475" y="492" text-anchor="middle" class="brand" fill="#2f342d" font-size="36.8">NO</text>
    <text x="475" y="513" text-anchor="middle" class="micro" fill="#2f342d" opacity="0.58">JAR LABEL</text>
    <rect x="410.6" y="336" width="128.8" height="38" rx="7" fill="#46513f"/>
  </g><g transform="rotate(5 858 464.04)">
    <ellipse cx="892" cy="764.77" rx="220.48" ry="10.08" fill="#1f211d" opacity="0.14"/>
    <polygon points="650,300 726,268.08 1066,268.08 990,300" fill="#cfaf96" opacity="0.96"/>
    <polygon points="990,300 1066,268.08 1066,628.08 990,660" fill="#718066" opacity="0.62"/>
    <rect x="650" y="300" width="340" height="360" rx="8" fill="#fff7ec"/>
    <rect x="697.6" y="357.6" width="54.4" height="5" rx="3" fill="#b36f62"/>
    <text x="697.6" y="451.2" class="brand" fill="#2f342d" font-size="44.2">NOMA</text>
    <text x="701" y="483.2" class="micro" fill="#2f342d" opacity="0.56">GIFT CARTON</text>
    <rect x="701" y="530.4" width="80.1" height="3" rx="2" fill="#2f342d" opacity="0.42"/><rect x="701" y="552.4" width="120.16" height="2" rx="2" fill="#2f342d" opacity="0.22"/><rect x="701" y="574.4" width="160.21" height="2" rx="2" fill="#2f342d" opacity="0.22"/><rect x="701" y="596.4" width="90.64" height="2" rx="2" fill="#2f342d" opacity="0.22"/>
  </g><g transform="rotate(-6 1155 715)">
    <ellipse cx="1171" cy="828.4" rx="169.6" ry="19" fill="#1f211d" opacity="0.11"/>
    <rect x="995" y="620" width="320" height="190" rx="10" fill="#fff7ec"/>
    <rect x="1013" y="638" width="284" height="154" rx="5" fill="none" stroke="#2f342d" stroke-opacity="0.11"/>
    <rect x="1029" y="662" width="70.4" height="4" rx="2" fill="#b36f62" opacity="0.84"/>
    <text x="1029" y="684.6" class="brand" fill="#2f342d" font-size="38.4">BATCH 04</text>
    <text x="1031" y="718.6" class="micro" fill="#2f342d" opacity="0.65">CARD</text>
    <rect x="1031" y="730.2" width="87.55" height="3" rx="2" fill="#2f342d" opacity="0.42"/><rect x="1031" y="752.2" width="131.33" height="2" rx="2" fill="#2f342d" opacity="0.22"/><rect x="1031" y="774.2" width="175.1" height="2" rx="2" fill="#2f342d" opacity="0.22"/>
    
  </g>
  <g opacity="0.72"><text x="78" y="1004" class="micro" fill="#2f342d">ARTISAN PACKAGING</text><text x="78" y="1036" class="micro" fill="#2f342d" opacity="0.55">TEMPORARY DEMONSTRATION PORTFOLIO VISUAL / GALLERY-1</text></g>
</svg>
