<?xml version="1.0" encoding="UTF-8"?>
<svg xmlns="http://www.w3.org/2000/svg" width="1600" height="1100" viewBox="0 0 1600 1100" role="img" aria-labelledby="title desc">
  <title id="title">NOMA gallery-3 demo portfolio mockup</title>
  <desc id="desc">Temporary fictional demonstration project imagery for portfolio presentation only, not client work.</desc>
  <defs>
    <linearGradient id="bg_noma_gallery_3" x1="0" y1="0" x2="1" y2="1">
      <stop offset="0%" stop-color="#fff7ec"/>
      <stop offset="58%" stop-color="#f2e7dc"/>
      <stop offset="100%" stop-color="#cfaf96"/>
    </linearGradient>
    <radialGradient id="light_noma_gallery_3" cx="74%" cy="18%" r="64%">
      <stop offset="0%" stop-color="#ffffff" stop-opacity="0.62"/>
      <stop offset="100%" stop-color="#ffffff" stop-opacity="0"/>
    </radialGradient>
  </defs>
  <style><![CDATA[
    .brand { font-family: Georgia, Georgia, serif; font-weight: 500; letter-spacing: .02em; }
    .body { font-family: Arial, Arial, sans-serif; font-weight: 500; }
    .micro { font-family: Arial, Arial, sans-serif; font-size: 20px; font-weight: 700; letter-spacing: .12em; }
  ]]></style>
  <rect width="1600" height="1100" fill="url(#bg_noma_gallery_3)"/>
  <rect width="1600" height="1100" fill="url(#light_noma_gallery_3)"/>
  <circle cx="671.85" cy="694.72" r="2.07" fill="#b36f62" opacity="0.07"/><rect x="1393.62" y="777.64" width="27.27" height="1.56" rx="1" fill="#b36f62" opacity="0.04" transform="rotate(144.23 1393.62 777.64)"/><rect x="36.72" y="175.5" width="9.96" height="2.18" rx="1" fill="#b36f62" opacity="0.05" transform="rotate(101.06 36.72 175.5)"/><rect x="75.14" y="717.15" width="10.83" height="2.5" rx="1" fill="#2f342d" opacity="0.05" transform="rotate(167.89 75.14 717.15)"/><rect x="1030.54" y="331.27" width="20.38" height="2.29" rx="1" fill="#2f342d" opacity="0.05" transform="rotate(103.14 1030.54 331.27)"/><rect x="1047.45" y="64.29" width="16.48" height="1.27" rx="1" fill="#b36f62" opacity="0.04" transform="rotate(66.57 1047.45 64.29)"/><circle cx="955" cy="460.94" r="1.75" fill="#2f342d" opacity="0.05"/><rect x="382.38" y="186.08" width="18.57" height="2.46" rx="1" fill="#2f342d" opacity="0.03" transform="rotate(70.27 382.38 186.08)"/><rect x="301.36" y="1057.88" width="23.55" height="2.4" rx="1" fill="#b36f62" opacity="0.04" transform="rotate(110.45 301.36 1057.88)"/><rect x="1020.99" y="692.04" width="27.46" height="0.91" rx="1" fill="#b36f62" opacity="0.07" transform="rotate(26.79 1020.99 692.04)"/><circle cx="829.68" cy="465.5" r="1.77" fill="#2f342d" opacity="0.07"/><rect x="315.74" y="866.05" width="11.51" height="0.95" rx="1" fill="#b36f62" opacity="0.03" transform="rotate(131.68 315.74 866.05)"/><circle cx="1508.69" cy="657.1" r="1.74" fill="#b36f62" opacity="0.05"/><circle cx="1050.12" cy="624.39" r="1.53" fill="#b36f62" opacity="0.05"/><rect x="1501.17" y="363.18" width="13.64" height="2.13" rx="1" fill="#b36f62" opacity="0.03" transform="rotate(5.3 1501.17 363.18)"/><rect x="1275.49" y="72.62" width="19.03" height="2.42" rx="1" fill="#2f342d" opacity="0.08" transform="rotate(93.75 1275.49 72.62)"/><circle cx="1114.77" cy="223.32" r="2.16" fill="#b36f62" opacity="0.04"/><rect x="446.29" y="866.99" width="22.71" height="2.52" rx="1" fill="#b36f62" opacity="0.05" transform="rotate(150.85 446.29 866.99)"/><rect x="40.24" y="318.18" width="17.02" height="1.64" rx="1" fill="#b36f62" opacity="0.05" transform="rotate(173.07 40.24 318.18)"/><rect x="932.47" y="761.2" width="17.22" height="1.84" rx="1" fill="#b36f62" opacity="0.05" transform="rotate(53.1 932.47 761.2)"/><rect x="364.5" y="945.18" width="23.82" height="1.31" rx="1" fill="#b36f62" opacity="0.03" transform="rotate(91.83 364.5 945.18)"/><circle cx="1426.08" cy="254.5" r="1.55" fill="#2f342d" opacity="0.07"/><rect x="145.34" y="637.77" width="11.51" height="1.74" rx="1" fill="#b36f62" opacity="0.04" transform="rotate(32.66 145.34 637.77)"/><rect x="1257.44" y="532.92" width="14.98" height="2.55" rx="1" fill="#b36f62" opacity="0.06" transform="rotate(177.55 1257.44 532.92)"/><rect x="1567.23" y="230.87" width="8.8" height="1.23" rx="1" fill="#2f342d" opacity="0.06" transform="rotate(157.53 1567.23 230.87)"/><rect x="521.25" y="976.14" width="23" height="1.8" rx="1" fill="#2f342d" opacity="0.03" transform="rotate(118.38 521.25 976.14)"/><rect x="1468.95" y="408.27" width="6.26" height="2.48" rx="1" fill="#b36f62" opacity="0.03" transform="rotate(176.61 1468.95 408.27)"/><rect x="1583.65" y="294.95" width="16.04" height="1.92" rx="1" fill="#b36f62" opacity="0.07" transform="rotate(164 1583.65 294.95)"/><circle cx="12.82" cy="629.91" r="1.16" fill="#b36f62" opacity="0.07"/><rect x="678.8" y="193.68" width="8.7" height="1.94" rx="1" fill="#2f342d" opacity="0.04" transform="rotate(70.26 678.8 193.68)"/><rect x="1191.19" y="251.76" width="9" height="0.84" rx="1" fill="#2f342d" opacity="0.03" transform="rotate(107.63 1191.19 251.76)"/><circle cx="1256.44" cy="843.26" r="1.4" fill="#b36f62" opacity="0.04"/><rect x="1230.43" y="713.53" width="27.98" height="1.15" rx="1" fill="#b36f62" opacity="0.07" transform="rotate(124.3 1230.43 713.53)"/><circle cx="984.78" cy="757.03" r="0.72" fill="#b36f62" opacity="0.05"/><rect x="1108.54" y="244.84" width="18.45" height="1.58" rx="1" fill="#b36f62" opacity="0.05" transform="rotate(85.63 1108.54 244.84)"/><rect x="1330.53" y="980.38" width="9.26" height="2.36" rx="1" fill="#b36f62" opacity="0.06" transform="rotate(76.25 1330.53 980.38)"/><rect x="769.98" y="148.2" width="12.66" height="1.65" rx="1" fill="#b36f62" opacity="0.03" transform="rotate(96.7 769.98 148.2)"/><circle cx="1528.33" cy="1035" r="1.75" fill="#b36f62" opacity="0.06"/><rect x="28.39" y="719.17" width="11.87" height="1.37" rx="1" fill="#b36f62" opacity="0.08" transform="rotate(6.57 28.39 719.17)"/><circle cx="1288.47" cy="145.64" r="1.44" fill="#2f342d" opacity="0.07"/><circle cx="1481.91" cy="342.53" r="2.11" fill="#b36f62" opacity="0.06"/><circle cx="671.77" cy="1027.57" r="1.25" fill="#b36f62" opacity="0.03"/><rect x="1408.35" y="204.53" width="24.83" height="1.12" rx="1" fill="#b36f62" opacity="0.03" transform="rotate(1.68 1408.35 204.53)"/><rect x="507.27" y="149.13" width="8.97" height="1.97" rx="1" fill="#b36f62" opacity="0.08" transform="rotate(176.58 507.27 149.13)"/><circle cx="474.95" cy="527.51" r="2.29" fill="#b36f62" opacity="0.03"/><circle cx="1019.03" cy="63.79" r="1.65" fill="#2f342d" opacity="0.07"/><circle cx="254.1" cy="793.98" r="0.78" fill="#b36f62" opacity="0.06"/><rect x="271.5" y="542.03" width="23.54" height="1.37" rx="1" fill="#2f342d" opacity="0.08" transform="rotate(89.48 271.5 542.03)"/><rect x="302.5" y="614.56" width="8.27" height="1.17" rx="1" fill="#b36f62" opacity="0.06" transform="rotate(22.15 302.5 614.56)"/><rect x="190.14" y="379.85" width="26.07" height="0.85" rx="1" fill="#2f342d" opacity="0.06" transform="rotate(62.26 190.14 379.85)"/><rect x="1317.16" y="221.73" width="7.5" height="2.29" rx="1" fill="#b36f62" opacity="0.04" transform="rotate(89.23 1317.16 221.73)"/><circle cx="1175.63" cy="127.65" r="0.75" fill="#b36f62" opacity="0.07"/><rect x="1002.96" y="318.47" width="26.58" height="1.49" rx="1" fill="#2f342d" opacity="0.05" transform="rotate(97.94 1002.96 318.47)"/><rect x="914.45" y="682.01" width="10.91" height="2.56" rx="1" fill="#2f342d" opacity="0.05" transform="rotate(137.56 914.45 682.01)"/><rect x="615.48" y="47.16" width="26.96" height="2.41" rx="1" fill="#2f342d" opacity="0.04" transform="rotate(176.31 615.48 47.16)"/><circle cx="282.42" cy="310.08" r="1.57" fill="#2f342d" opacity="0.03"/><rect x="1068.69" y="128.17" width="14.47" height="1.75" rx="1" fill="#2f342d" opacity="0.04" transform="rotate(99.3 1068.69 128.17)"/><circle cx="1429.11" cy="282.26" r="2.17" fill="#b36f62" opacity="0.08"/><rect x="1432.39" y="103.25" width="15.02" height="2.43" rx="1" fill="#b36f62" opacity="0.08" transform="rotate(43.14 1432.39 103.25)"/><rect x="413.69" y="193.64" width="19.25" height="1.09" rx="1" fill="#2f342d" opacity="0.05" transform="rotate(16.76 413.69 193.64)"/><rect x="605.94" y="839.79" width="9.36" height="1.49" rx="1" fill="#2f342d" opacity="0.06" transform="rotate(10.21 605.94 839.79)"/><circle cx="758.82" cy="597.46" r="1.71" fill="#b36f62" opacity="0.06"/><circle cx="505.83" cy="41.67" r="1.77" fill="#2f342d" opacity="0.05"/><circle cx="907.89" cy="792.43" r="1.17" fill="#b36f62" opacity="0.03"/><rect x="950.32" y="702.48" width="25.41" height="1.35" rx="1" fill="#b36f62" opacity="0.05" transform="rotate(111.65 950.32 702.48)"/><rect x="129.51" y="644.2" width="10.54" height="1.27" rx="1" fill="#b36f62" opacity="0.06" transform="rotate(168.57 129.51 644.2)"/><rect x="1498.77" y="1064.18" width="13.35" height="2.27" rx="1" fill="#b36f62" opacity="0.04" transform="rotate(103.89 1498.77 1064.18)"/><circle cx="1168.25" cy="915.42" r="1.58" fill="#b36f62" opacity="0.03"/><circle cx="646.35" cy="40" r="2.03" fill="#b36f62" opacity="0.06"/><circle cx="23.02" cy="126.04" r="2.15" fill="#2f342d" opacity="0.04"/><circle cx="1159.22" cy="122.98" r="1.15" fill="#2f342d" opacity="0.05"/><circle cx="868.16" cy="83.86" r="1.08" fill="#b36f62" opacity="0.07"/><rect x="759.92" y="748.09" width="16.05" height="2.04" rx="1" fill="#2f342d" opacity="0.04" transform="rotate(84.01 759.92 748.09)"/><rect x="229.25" y="131.58" width="10.91" height="1" rx="1" fill="#2f342d" opacity="0.04" transform="rotate(161.5 229.25 131.58)"/><rect x="1436.06" y="985.66" width="18.86" height="1.85" rx="1" fill="#b36f62" opacity="0.03" transform="rotate(99.61 1436.06 985.66)"/><circle cx="1202.54" cy="652.12" r="1.52" fill="#b36f62" opacity="0.06"/><circle cx="305.5" cy="1080.07" r="0.81" fill="#b36f62" opacity="0.05"/><circle cx="1107.22" cy="1053.53" r="1.31" fill="#2f342d" opacity="0.03"/><rect x="1273.92" y="312.12" width="9.06" height="1.07" rx="1" fill="#b36f62" opacity="0.07" transform="rotate(135.08 1273.92 312.12)"/><rect x="367.61" y="624.62" width="8.17" height="2.17" rx="1" fill="#b36f62" opacity="0.05" transform="rotate(21.63 367.61 624.62)"/><rect x="223.4" y="617.37" width="27.2" height="1.15" rx="1" fill="#b36f62" opacity="0.03" transform="rotate(169.27 223.4 617.37)"/><rect x="1158.4" y="279.62" width="12.62" height="1.38" rx="1" fill="#2f342d" opacity="0.03" transform="rotate(31.99 1158.4 279.62)"/><rect x="522.48" y="921.37" width="13.61" height="2.58" rx="1" fill="#b36f62" opacity="0.06" transform="rotate(34.83 522.48 921.37)"/><rect x="34.2" y="26.64" width="10.45" height="2.5" rx="1" fill="#2f342d" opacity="0.03" transform="rotate(13.04 34.2 26.64)"/><circle cx="152.39" cy="390.24" r="1.67" fill="#2f342d" opacity="0.04"/><circle cx="1327.13" cy="752.53" r="2.14" fill="#2f342d" opacity="0.04"/><circle cx="1157.32" cy="479.32" r="2.1" fill="#2f342d" opacity="0.03"/><rect x="1391.44" y="920.41" width="18.37" height="0.87" rx="1" fill="#2f342d" opacity="0.05" transform="rotate(151.11 1391.44 920.41)"/><circle cx="476.51" cy="499.71" r="0.98" fill="#b36f62" opacity="0.07"/><rect x="1457.36" y="265.54" width="14.95" height="2.26" rx="1" fill="#b36f62" opacity="0.04" transform="rotate(149.71 1457.36 265.54)"/><rect x="107.91" y="821.82" width="22.61" height="2.13" rx="1" fill="#b36f62" opacity="0.05" transform="rotate(87.11 107.91 821.82)"/><rect x="1528.45" y="196.24" width="19.33" height="1.58" rx="1" fill="#b36f62" opacity="0.05" transform="rotate(148.99 1528.45 196.24)"/><rect x="967.5" y="271.35" width="17.44" height="1.25" rx="1" fill="#b36f62" opacity="0.05" transform="rotate(72.81 967.5 271.35)"/><rect x="24.59" y="267.2" width="19.23" height="0.84" rx="1" fill="#b36f62" opacity="0.07" transform="rotate(124.52 24.59 267.2)"/><rect x="225.69" y="178.21" width="25.25" height="2.14" rx="1" fill="#b36f62" opacity="0.04" transform="rotate(31.68 225.69 178.21)"/><circle cx="381.18" cy="133.58" r="1.89" fill="#2f342d" opacity="0.07"/><rect x="1098.95" y="180.1" width="11.83" height="1.36" rx="1" fill="#2f342d" opacity="0.05" transform="rotate(95.78 1098.95 180.1)"/><circle cx="252.65" cy="423.22" r="2.18" fill="#2f342d" opacity="0.04"/><rect x="1566.05" y="827.58" width="19.51" height="2.13" rx="1" fill="#2f342d" opacity="0.03" transform="rotate(177.56 1566.05 827.58)"/><circle cx="1583.18" cy="698.61" r="0.81" fill="#2f342d" opacity="0.05"/><circle cx="1075.74" cy="812.52" r="1.32" fill="#b36f62" opacity="0.05"/><circle cx="197.6" cy="676.05" r="0.85" fill="#2f342d" opacity="0.05"/><circle cx="1446.09" cy="691.39" r="1.99" fill="#b36f62" opacity="0.08"/><rect x="190.34" y="343.51" width="14.09" height="0.82" rx="1" fill="#b36f62" opacity="0.05" transform="rotate(86.78 190.34 343.51)"/><rect x="957.09" y="414.73" width="21.55" height="1.58" rx="1" fill="#b36f62" opacity="0.07" transform="rotate(45.68 957.09 414.73)"/><circle cx="616.14" cy="807.53" r="1.17" fill="#b36f62" opacity="0.03"/><rect x="709.19" y="585.03" width="26.48" height="1.52" rx="1" fill="#2f342d" opacity="0.06" transform="rotate(100.4 709.19 585.03)"/><circle cx="735.43" cy="290.25" r="2" fill="#b36f62" opacity="0.03"/><circle cx="27.32" cy="1065.57" r="1.72" fill="#b36f62" opacity="0.05"/><rect x="1587.62" y="366.57" width="24.64" height="1.27" rx="1" fill="#2f342d" opacity="0.07" transform="rotate(12.27 1587.62 366.57)"/><circle cx="854.17" cy="827.39" r="1.63" fill="#b36f62" opacity="0.08"/><rect x="360.14" y="535.67" width="7.83" height="2.02" rx="1" fill="#2f342d" opacity="0.03" transform="rotate(171.94 360.14 535.67)"/><rect x="96.94" y="396.77" width="6.5" height="1.38" rx="1" fill="#b36f62" opacity="0.07" transform="rotate(29.58 96.94 396.77)"/><rect x="1200.89" y="710.45" width="17.28" height="2.38" rx="1" fill="#b36f62" opacity="0.08" transform="rotate(9.75 1200.89 710.45)"/><rect x="352.87" y="412.49" width="7.61" height="1.42" rx="1" fill="#b36f62" opacity="0.03" transform="rotate(62.32 352.87 412.49)"/><circle cx="392.62" cy="850.69" r="1.64" fill="#b36f62" opacity="0.04"/><rect x="156.56" y="803.48" width="11.9" height="1.83" rx="1" fill="#2f342d" opacity="0.05" transform="rotate(150.32 156.56 803.48)"/><circle cx="90.51" cy="361.08" r="1.38" fill="#2f342d" opacity="0.05"/><circle cx="1021.16" cy="904.1" r="1.36" fill="#b36f62" opacity="0.06"/><circle cx="1303.04" cy="442.75" r="0.83" fill="#b36f62" opacity="0.08"/><circle cx="1086.18" cy="186.57" r="0.85" fill="#b36f62" opacity="0.03"/><circle cx="563.02" cy="92.42" r="1.2" fill="#b36f62" opacity="0.04"/><rect x="1545.7" y="1058.77" width="19.32" height="1.29" rx="1" fill="#b36f62" opacity="0.07" transform="rotate(127.73 1545.7 1058.77)"/><rect x="1561.83" y="55.94" width="10.58" height="1.26" rx="1" fill="#2f342d" opacity="0.07" transform="rotate(161.5 1561.83 55.94)"/><circle cx="1191.13" cy="460.34" r="0.76" fill="#2f342d" opacity="0.05"/><circle cx="9.35" cy="483.47" r="1.49" fill="#b36f62" opacity="0.04"/><rect x="66.55" y="613.37" width="17.16" height="2.58" rx="1" fill="#b36f62" opacity="0.06" transform="rotate(174.06 66.55 613.37)"/><rect x="984.88" y="953.19" width="14.2" height="1" rx="1" fill="#2f342d" opacity="0.06" transform="rotate(79.48 984.88 953.19)"/><circle cx="393.8" cy="521.98" r="0.92" fill="#b36f62" opacity="0.05"/><circle cx="250.43" cy="504.46" r="2.04" fill="#b36f62" opacity="0.03"/><rect x="1115.85" y="211.25" width="13.91" height="0.83" rx="1" fill="#b36f62" opacity="0.03" transform="rotate(147.15 1115.85 211.25)"/><rect x="683.02" y="233.52" width="21.52" height="2.11" rx="1" fill="#b36f62" opacity="0.05" transform="rotate(12.54 683.02 233.52)"/><rect x="1299.31" y="61.12" width="21.99" height="1.41" rx="1" fill="#b36f62" opacity="0.07" transform="rotate(121.26 1299.31 61.12)"/><circle cx="224.78" cy="172.62" r="1.69" fill="#2f342d" opacity="0.04"/><circle cx="774.92" cy="266.14" r="1.4" fill="#2f342d" opacity="0.05"/><rect x="1564.62" y="1065.78" width="16.06" height="1.88" rx="1" fill="#2f342d" opacity="0.08" transform="rotate(57.79 1564.62 1065.78)"/><rect x="617.41" y="485.72" width="23.16" height="1.48" rx="1" fill="#b36f62" opacity="0.07" transform="rotate(4.16 617.41 485.72)"/><circle cx="775.19" cy="169.12" r="2.16" fill="#2f342d" opacity="0.06"/><circle cx="1381.56" cy="758.9" r="1.78" fill="#2f342d" opacity="0.04"/><circle cx="365.54" cy="939.48" r="1.03" fill="#b36f62" opacity="0.03"/>
  <circle cx="1350" cy="178" r="184" fill="#b36f62" opacity="0.06"/>
  <circle cx="220" cy="894" r="220" fill="#718066" opacity="0.08"/>
  <g transform="rotate(-6 550 505)">
    <ellipse cx="566" cy="722.8" rx="307.4" ry="43" fill="#1f211d" opacity="0.1"/>
    <rect x="260" y="290" width="580" height="430" rx="7" fill="#cfaf96"/>
    <text x="310" y="354" class="micro" fill="#2f342d" opacity="0.25">NO</text><text x="414.4" y="354" class="micro" fill="#2f342d" opacity="0.25">NO</text><text x="518.8" y="354" class="micro" fill="#2f342d" opacity="0.25">NO</text><text x="623.2" y="354" class="micro" fill="#2f342d" opacity="0.25">NO</text><text x="727.6" y="354" class="micro" fill="#2f342d" opacity="0.25">NO</text><text x="310" y="448.6" class="micro" fill="#2f342d" opacity="0.25">NO</text><text x="414.4" y="448.6" class="micro" fill="#2f342d" opacity="0.25">NO</text><text x="518.8" y="448.6" class="micro" fill="#2f342d" opacity="0.25">NO</text><text x="623.2" y="448.6" class="micro" fill="#2f342d" opacity="0.25">NO</text><text x="727.6" y="448.6" class="micro" fill="#2f342d" opacity="0.25">NO</text><text x="310" y="543.2" class="micro" fill="#2f342d" opacity="0.25">NO</text><text x="414.4" y="543.2" class="micro" fill="#2f342d" opacity="0.25">NO</text><text x="518.8" y="543.2" class="micro" fill="#2f342d" opacity="0.25">NO</text><text x="623.2" y="543.2" class="micro" fill="#2f342d" opacity="0.25">NO</text><text x="727.6" y="543.2" class="micro" fill="#2f342d" opacity="0.25">NO</text><text x="310" y="637.8" class="micro" fill="#2f342d" opacity="0.25">NO</text><text x="414.4" y="637.8" class="micro" fill="#2f342d" opacity="0.25">NO</text><text x="518.8" y="637.8" class="micro" fill="#2f342d" opacity="0.25">NO</text><text x="623.2" y="637.8" class="micro" fill="#2f342d" opacity="0.25">NO</text><text x="727.6" y="637.8" class="micro" fill="#2f342d" opacity="0.25">NO</text>
  </g><g transform="rotate(5 1100 415)">
      <ellipse cx="900" cy="474.32" rx="44.52" ry="4.2" fill="#1f211d" opacity="0.08"/>
      <rect x="850" y="350" width="86" height="116" rx="8" fill="#fff7ec"/>
      <text x="862" y="446" class="micro" fill="#2f342d" opacity="0.62">01</text>
    
      <ellipse cx="1004" cy="474.32" rx="44.52" ry="4.2" fill="#1f211d" opacity="0.08"/>
      <rect x="954" y="350" width="86" height="116" rx="8" fill="#cfaf96"/>
      <text x="966" y="446" class="micro" fill="#2f342d" opacity="0.62">02</text>
    
      <ellipse cx="1108" cy="474.32" rx="44.52" ry="4.2" fill="#1f211d" opacity="0.08"/>
      <rect x="1058" y="350" width="86" height="116" rx="8" fill="#b36f62"/>
      <text x="1070" y="446" class="micro" fill="#2f342d" opacity="0.62">03</text>
    
      <ellipse cx="1212" cy="474.32" rx="44.52" ry="4.2" fill="#1f211d" opacity="0.08"/>
      <rect x="1162" y="350" width="86" height="116" rx="8" fill="#718066"/>
      <text x="1174" y="446" class="micro" fill="#2f342d" opacity="0.62">04</text>
    
      <ellipse cx="1316" cy="474.32" rx="44.52" ry="4.2" fill="#1f211d" opacity="0.08"/>
      <rect x="1266" y="350" width="86" height="116" rx="8" fill="#46513f"/>
      <text x="1278" y="446" class="micro" fill="#fff7ec" opacity="0.62">05</text>
    </g><g transform="rotate(-8 1205 705)">
    <ellipse cx="1223" cy="854.32" rx="90.1" ry="4.2" fill="#1f211d" opacity="0.14"/>
    <ellipse cx="1205" cy="624" rx="85" ry="24" fill="#fff7ec" opacity="0.82"/>
    <rect x="1120" y="624" width="170" height="162" rx="30.6" fill="#e2b587" opacity="0.86"/>
    <ellipse cx="1205" cy="786" rx="85" ry="24" fill="#cfaf96" opacity="0.52"/>
    <rect x="1150.6" y="688.2" width="108.8" height="54.6" rx="8" fill="#fff7ec"/>
    <text x="1205" y="713.4" text-anchor="middle" class="brand" fill="#2f342d" font-size="27.2">NO</text>
    <text x="1205" y="728.1" text-anchor="middle" class="micro" fill="#2f342d" opacity="0.58">SEAL</text>
    <rect x="1157.4" y="606" width="95.2" height="38" rx="7" fill="#46513f"/>
  </g>
  <g opacity="0.72"><text x="78" y="1004" class="micro" fill="#2f342d">ARTISAN PACKAGING</text><text x="78" y="1036" class="micro" fill="#2f342d" opacity="0.55">TEMPORARY DEMONSTRATION PORTFOLIO VISUAL / GALLERY-3</text></g>
</svg>
