<?xml version="1.0" encoding="UTF-8"?>
<svg xmlns="http://www.w3.org/2000/svg" width="1600" height="1100" viewBox="0 0 1600 1100" role="img" aria-labelledby="title desc">
  <title id="title">NOMA gallery-2 demo portfolio mockup</title>
  <desc id="desc">Temporary fictional demonstration project imagery for portfolio presentation only, not client work.</desc>
  <defs>
    <linearGradient id="bg_noma_gallery_2" x1="0" y1="0" x2="1" y2="1">
      <stop offset="0%" stop-color="#fff7ec"/>
      <stop offset="58%" stop-color="#f2e7dc"/>
      <stop offset="100%" stop-color="#cfaf96"/>
    </linearGradient>
    <radialGradient id="light_noma_gallery_2" cx="74%" cy="18%" r="64%">
      <stop offset="0%" stop-color="#ffffff" stop-opacity="0.62"/>
      <stop offset="100%" stop-color="#ffffff" stop-opacity="0"/>
    </radialGradient>
  </defs>
  <style><![CDATA[
    .brand { font-family: Georgia, Georgia, serif; font-weight: 500; letter-spacing: .02em; }
    .body { font-family: Arial, Arial, sans-serif; font-weight: 500; }
    .micro { font-family: Arial, Arial, sans-serif; font-size: 20px; font-weight: 700; letter-spacing: .12em; }
  ]]></style>
  <rect width="1600" height="1100" fill="url(#bg_noma_gallery_2)"/>
  <rect width="1600" height="1100" fill="url(#light_noma_gallery_2)"/>
  <rect x="666.21" y="773.97" width="11.49" height="2.23" rx="1" fill="#2f342d" opacity="0.03" transform="rotate(116.6 666.21 773.97)"/><rect x="302.17" y="325.31" width="23.39" height="1.68" rx="1" fill="#b36f62" opacity="0.05" transform="rotate(34.55 302.17 325.31)"/><rect x="274.68" y="120.67" width="18.32" height="2.03" rx="1" fill="#b36f62" opacity="0.07" transform="rotate(175.37 274.68 120.67)"/><rect x="667.53" y="861.43" width="6.77" height="1.76" rx="1" fill="#2f342d" opacity="0.07" transform="rotate(124.14 667.53 861.43)"/><circle cx="898.46" cy="786.31" r="0.73" fill="#b36f62" opacity="0.06"/><circle cx="239.05" cy="85.04" r="0.94" fill="#2f342d" opacity="0.03"/><rect x="157.14" y="420.05" width="13.8" height="1.51" rx="1" fill="#2f342d" opacity="0.04" transform="rotate(169.87 157.14 420.05)"/><rect x="1470.58" y="788.05" width="6.26" height="2.06" rx="1" fill="#2f342d" opacity="0.08" transform="rotate(36.33 1470.58 788.05)"/><rect x="1190.08" y="881.34" width="23.8" height="2.34" rx="1" fill="#b36f62" opacity="0.06" transform="rotate(23.54 1190.08 881.34)"/><circle cx="970.16" cy="111.81" r="1.09" fill="#b36f62" opacity="0.03"/><rect x="509.95" y="547.31" width="8.7" height="1.73" rx="1" fill="#b36f62" opacity="0.04" transform="rotate(121.82 509.95 547.31)"/><circle cx="213.73" cy="362.01" r="0.8" fill="#b36f62" opacity="0.06"/><circle cx="986.78" cy="484.96" r="1.35" fill="#2f342d" opacity="0.03"/><circle cx="1430.16" cy="794.24" r="0.82" fill="#b36f62" opacity="0.07"/><rect x="1598.46" y="669.35" width="21.01" height="1.84" rx="1" fill="#2f342d" opacity="0.05" transform="rotate(125.6 1598.46 669.35)"/><rect x="1124.35" y="648.81" width="26.44" height="0.84" rx="1" fill="#2f342d" opacity="0.08" transform="rotate(172.03 1124.35 648.81)"/><rect x="34.8" y="435.41" width="19.07" height="2.32" rx="1" fill="#2f342d" opacity="0.06" transform="rotate(24.64 34.8 435.41)"/><circle cx="146.77" cy="279.85" r="2.02" fill="#b36f62" opacity="0.04"/><rect x="1152.09" y="338.63" width="12.46" height="1.79" rx="1" fill="#2f342d" opacity="0.05" transform="rotate(149.66 1152.09 338.63)"/><rect x="675.92" y="668.09" width="9.44" height="2.55" rx="1" fill="#b36f62" opacity="0.03" transform="rotate(80.12 675.92 668.09)"/><circle cx="1148.44" cy="665.46" r="2.28" fill="#b36f62" opacity="0.06"/><rect x="63.05" y="926.65" width="13.7" height="1.33" rx="1" fill="#b36f62" opacity="0.05" transform="rotate(178.91 63.05 926.65)"/><rect x="1322.24" y="682.35" width="21.53" height="2.03" rx="1" fill="#b36f62" opacity="0.03" transform="rotate(77.47 1322.24 682.35)"/><circle cx="83.1" cy="535.02" r="1.67" fill="#b36f62" opacity="0.03"/><rect x="854.63" y="1031.58" width="21.23" height="0.97" rx="1" fill="#2f342d" opacity="0.07" transform="rotate(163.69 854.63 1031.58)"/><rect x="704.41" y="382.28" width="7.22" height="2.33" rx="1" fill="#b36f62" opacity="0.04" transform="rotate(51.84 704.41 382.28)"/><rect x="1030.73" y="177.45" width="13.56" height="2.17" rx="1" fill="#b36f62" opacity="0.08" transform="rotate(5.53 1030.73 177.45)"/><circle cx="1261.41" cy="403.86" r="1.02" fill="#2f342d" opacity="0.04"/><rect x="222.59" y="423.46" width="10.22" height="1.16" rx="1" fill="#b36f62" opacity="0.05" transform="rotate(84.87 222.59 423.46)"/><rect x="1596.82" y="526.59" width="10.53" height="2.28" rx="1" fill="#b36f62" opacity="0.07" transform="rotate(87.41 1596.82 526.59)"/><rect x="853.12" y="180.23" width="27.23" height="2.57" rx="1" fill="#2f342d" opacity="0.04" transform="rotate(150.88 853.12 180.23)"/><rect x="481.53" y="569.54" width="20.03" height="1.49" rx="1" fill="#b36f62" opacity="0.06" transform="rotate(58.59 481.53 569.54)"/><rect x="232.92" y="172.68" width="17.61" height="2.27" rx="1" fill="#2f342d" opacity="0.05" transform="rotate(28.07 232.92 172.68)"/><circle cx="1104.85" cy="264.45" r="2.22" fill="#b36f62" opacity="0.04"/><rect x="904.94" y="544.85" width="10.21" height="1.48" rx="1" fill="#2f342d" opacity="0.04" transform="rotate(152.76 904.94 544.85)"/><rect x="270.02" y="596" width="11.35" height="2.31" rx="1" fill="#b36f62" opacity="0.04" transform="rotate(120.15 270.02 596)"/><circle cx="619.18" cy="586.85" r="1.57" fill="#2f342d" opacity="0.04"/><circle cx="1594.55" cy="788.25" r="1.22" fill="#b36f62" opacity="0.05"/><rect x="1034.27" y="556.82" width="12.08" height="1.76" rx="1" fill="#b36f62" opacity="0.03" transform="rotate(99.35 1034.27 556.82)"/><rect x="584.83" y="824.61" width="17.57" height="2.41" rx="1" fill="#b36f62" opacity="0.05" transform="rotate(70.9 584.83 824.61)"/><circle cx="1565.6" cy="1040.92" r="1.7" fill="#b36f62" opacity="0.06"/><rect x="1124.41" y="49.22" width="23.87" height="1.19" rx="1" fill="#2f342d" opacity="0.05" transform="rotate(103.96 1124.41 49.22)"/><circle cx="485.07" cy="693.91" r="1.33" fill="#2f342d" opacity="0.07"/><rect x="120.31" y="844.54" width="24.81" height="1.68" rx="1" fill="#b36f62" opacity="0.03" transform="rotate(27.42 120.31 844.54)"/><circle cx="1529.3" cy="211.37" r="1.93" fill="#b36f62" opacity="0.03"/><rect x="1575.49" y="555.22" width="20.86" height="1.16" rx="1" fill="#b36f62" opacity="0.07" transform="rotate(19.19 1575.49 555.22)"/><circle cx="1082.27" cy="971.4" r="2.13" fill="#2f342d" opacity="0.04"/><rect x="685.73" y="240.53" width="9.21" height="2.22" rx="1" fill="#b36f62" opacity="0.03" transform="rotate(63.75 685.73 240.53)"/><rect x="926.06" y="820.97" width="9.98" height="1.62" rx="1" fill="#2f342d" opacity="0.08" transform="rotate(118.43 926.06 820.97)"/><circle cx="1027.61" cy="693.91" r="0.97" fill="#2f342d" opacity="0.07"/><circle cx="1374.23" cy="533.59" r="2.11" fill="#2f342d" opacity="0.05"/><rect x="522.55" y="69.61" width="25.41" height="1.74" rx="1" fill="#b36f62" opacity="0.07" transform="rotate(90.7 522.55 69.61)"/><rect x="915.66" y="630.45" width="7.83" height="2.22" rx="1" fill="#b36f62" opacity="0.04" transform="rotate(175.49 915.66 630.45)"/><rect x="999.6" y="616.74" width="15.4" height="0.97" rx="1" fill="#2f342d" opacity="0.04" transform="rotate(109.42 999.6 616.74)"/><rect x="1139.47" y="1084.04" width="14.78" height="1.44" rx="1" fill="#2f342d" opacity="0.07" transform="rotate(116.38 1139.47 1084.04)"/><rect x="527.27" y="536.4" width="8.68" height="1.41" rx="1" fill="#2f342d" opacity="0.05" transform="rotate(146.46 527.27 536.4)"/><rect x="306.31" y="325.08" width="14.58" height="2.5" rx="1" fill="#b36f62" opacity="0.04" transform="rotate(79.81 306.31 325.08)"/><rect x="1429.63" y="231.6" width="19.93" height="1.63" rx="1" fill="#2f342d" opacity="0.04" transform="rotate(120.88 1429.63 231.6)"/><rect x="1488.05" y="972.37" width="23.26" height="2.24" rx="1" fill="#b36f62" opacity="0.05" transform="rotate(3.6 1488.05 972.37)"/><circle cx="989.19" cy="776.17" r="2.07" fill="#b36f62" opacity="0.05"/><rect x="659.38" y="456.95" width="27.74" height="1.92" rx="1" fill="#2f342d" opacity="0.04" transform="rotate(100.21 659.38 456.95)"/><circle cx="666.36" cy="418.59" r="2.16" fill="#2f342d" opacity="0.05"/><circle cx="1343.58" cy="443.68" r="1.86" fill="#b36f62" opacity="0.08"/><rect x="634.13" y="451.63" width="8.71" height="1.1" rx="1" fill="#b36f62" opacity="0.06" transform="rotate(66.48 634.13 451.63)"/><circle cx="1257.84" cy="699.64" r="1.03" fill="#b36f62" opacity="0.07"/><circle cx="1102.91" cy="80.32" r="0.83" fill="#b36f62" opacity="0.07"/><circle cx="115.03" cy="920.24" r="1.88" fill="#b36f62" opacity="0.06"/><circle cx="392.87" cy="414.93" r="1.41" fill="#b36f62" opacity="0.06"/><rect x="348.86" y="49.41" width="27.38" height="1.5" rx="1" fill="#b36f62" opacity="0.04" transform="rotate(108.85 348.86 49.41)"/><rect x="328.8" y="16.88" width="14.4" height="1.87" rx="1" fill="#b36f62" opacity="0.06" transform="rotate(81.31 328.8 16.88)"/><rect x="551.96" y="944.66" width="19.79" height="2.1" rx="1" fill="#2f342d" opacity="0.04" transform="rotate(139.39 551.96 944.66)"/><circle cx="904.45" cy="731.57" r="1.89" fill="#b36f62" opacity="0.07"/><rect x="1010.95" y="502.15" width="10.68" height="1.19" rx="1" fill="#b36f62" opacity="0.03" transform="rotate(134.92 1010.95 502.15)"/><circle cx="598.87" cy="407.22" r="1.46" fill="#b36f62" opacity="0.04"/><rect x="1408.02" y="417.6" width="15.32" height="2.38" rx="1" fill="#b36f62" opacity="0.05" transform="rotate(49.29 1408.02 417.6)"/><circle cx="659.91" cy="354.11" r="0.81" fill="#2f342d" opacity="0.08"/><rect x="1481.97" y="412.07" width="7" height="2.57" rx="1" fill="#2f342d" opacity="0.05" transform="rotate(109.02 1481.97 412.07)"/><circle cx="562.28" cy="8.65" r="1.21" fill="#b36f62" opacity="0.06"/><rect x="1433.47" y="789.76" width="22.57" height="1.67" rx="1" fill="#b36f62" opacity="0.05" transform="rotate(60.76 1433.47 789.76)"/><rect x="507.95" y="31.56" width="26.93" height="2.37" rx="1" fill="#2f342d" opacity="0.06" transform="rotate(33.42 507.95 31.56)"/><circle cx="1103.99" cy="883.55" r="0.84" fill="#b36f62" opacity="0.06"/><circle cx="466.25" cy="126.61" r="0.95" fill="#b36f62" opacity="0.07"/><rect x="346.86" y="448.61" width="24.89" height="2.03" rx="1" fill="#b36f62" opacity="0.08" transform="rotate(23.19 346.86 448.61)"/><rect x="1449.88" y="591.72" width="15.27" height="2.37" rx="1" fill="#b36f62" opacity="0.04" transform="rotate(172.08 1449.88 591.72)"/><rect x="388.46" y="660.94" width="27.21" height="1.56" rx="1" fill="#2f342d" opacity="0.04" transform="rotate(88.14 388.46 660.94)"/><circle cx="694.12" cy="671.83" r="1.17" fill="#b36f62" opacity="0.05"/><circle cx="1028.16" cy="402.88" r="0.74" fill="#2f342d" opacity="0.05"/><circle cx="551.95" cy="1074.88" r="0.84" fill="#2f342d" opacity="0.06"/><rect x="1257.77" y="93.76" width="14.57" height="1.65" rx="1" fill="#2f342d" opacity="0.06" transform="rotate(78.93 1257.77 93.76)"/><circle cx="940" cy="125.7" r="2.19" fill="#b36f62" opacity="0.03"/><circle cx="58.2" cy="248.37" r="1.47" fill="#b36f62" opacity="0.06"/><circle cx="805.57" cy="1016.07" r="1.49" fill="#2f342d" opacity="0.05"/><rect x="1129.93" y="701.72" width="15.25" height="1.78" rx="1" fill="#2f342d" opacity="0.03" transform="rotate(141 1129.93 701.72)"/><rect x="1136.79" y="979.48" width="19.49" height="1.2" rx="1" fill="#b36f62" opacity="0.04" transform="rotate(48.01 1136.79 979.48)"/><circle cx="77.45" cy="308.12" r="1.55" fill="#b36f62" opacity="0.03"/><rect x="1204.01" y="107.72" width="14.67" height="2.29" rx="1" fill="#b36f62" opacity="0.06" transform="rotate(85.56 1204.01 107.72)"/><rect x="1187.76" y="812.51" width="25.26" height="1.54" rx="1" fill="#b36f62" opacity="0.07" transform="rotate(78.95 1187.76 812.51)"/><circle cx="927.4" cy="1058.16" r="2.22" fill="#b36f62" opacity="0.06"/><circle cx="395.24" cy="982.54" r="1.76" fill="#2f342d" opacity="0.05"/><rect x="1217.26" y="594.37" width="17.35" height="1.28" rx="1" fill="#2f342d" opacity="0.04" transform="rotate(119.71 1217.26 594.37)"/><rect x="597.72" y="212.44" width="20.36" height="2.53" rx="1" fill="#b36f62" opacity="0.07" transform="rotate(101 597.72 212.44)"/><rect x="1593.5" y="386.88" width="24.32" height="1.16" rx="1" fill="#2f342d" opacity="0.05" transform="rotate(80.21 1593.5 386.88)"/><rect x="907.45" y="484.95" width="6.49" height="1.36" rx="1" fill="#2f342d" opacity="0.05" transform="rotate(85.17 907.45 484.95)"/><circle cx="499.12" cy="653.5" r="1.18" fill="#b36f62" opacity="0.04"/><rect x="264.61" y="629.38" width="9.87" height="2.5" rx="1" fill="#b36f62" opacity="0.06" transform="rotate(81.55 264.61 629.38)"/><rect x="410.67" y="83.73" width="27.75" height="1.36" rx="1" fill="#b36f62" opacity="0.07" transform="rotate(89.37 410.67 83.73)"/><rect x="228.78" y="157.48" width="6.49" height="1.69" rx="1" fill="#2f342d" opacity="0.04" transform="rotate(55.97 228.78 157.48)"/><circle cx="870.43" cy="865.07" r="1.85" fill="#2f342d" opacity="0.07"/><rect x="1546.35" y="549.34" width="16.72" height="0.99" rx="1" fill="#b36f62" opacity="0.08" transform="rotate(10.52 1546.35 549.34)"/><rect x="825.73" y="944.49" width="12.44" height="2.37" rx="1" fill="#b36f62" opacity="0.08" transform="rotate(84.51 825.73 944.49)"/><circle cx="95.99" cy="262.09" r="1.45" fill="#2f342d" opacity="0.03"/><rect x="1107.53" y="881.35" width="21.24" height="2.52" rx="1" fill="#b36f62" opacity="0.07" transform="rotate(65.27 1107.53 881.35)"/><rect x="495.4" y="795.51" width="21.99" height="1.38" rx="1" fill="#2f342d" opacity="0.08" transform="rotate(9.89 495.4 795.51)"/><circle cx="1540.07" cy="1008" r="1.21" fill="#b36f62" opacity="0.07"/><circle cx="816.8" cy="1052.21" r="1.09" fill="#2f342d" opacity="0.08"/><rect x="920.51" y="906.41" width="22.54" height="1.5" rx="1" fill="#2f342d" opacity="0.06" transform="rotate(69.34 920.51 906.41)"/><rect x="147.13" y="552.7" width="12.38" height="2.08" rx="1" fill="#2f342d" opacity="0.06" transform="rotate(50.84 147.13 552.7)"/><circle cx="1235.19" cy="838.2" r="1.66" fill="#2f342d" opacity="0.06"/><rect x="406.44" y="67.48" width="9.06" height="2.59" rx="1" fill="#2f342d" opacity="0.05" transform="rotate(115.46 406.44 67.48)"/><rect x="1423.66" y="1029.18" width="6.53" height="2.23" rx="1" fill="#b36f62" opacity="0.04" transform="rotate(28.35 1423.66 1029.18)"/><circle cx="395.16" cy="840.41" r="2.07" fill="#2f342d" opacity="0.06"/><rect x="1175.62" y="639.66" width="23.46" height="0.86" rx="1" fill="#2f342d" opacity="0.03" transform="rotate(170.68 1175.62 639.66)"/><circle cx="9.47" cy="864.3" r="1.47" fill="#2f342d" opacity="0.07"/><rect x="577.53" y="332.41" width="16.68" height="1.95" rx="1" fill="#b36f62" opacity="0.05" transform="rotate(18.54 577.53 332.41)"/><rect x="1161.53" y="54.4" width="13.43" height="1.18" rx="1" fill="#2f342d" opacity="0.05" transform="rotate(141.8 1161.53 54.4)"/><rect x="722.82" y="1036.89" width="19.62" height="1.7" rx="1" fill="#b36f62" opacity="0.05" transform="rotate(173.75 722.82 1036.89)"/><circle cx="361.93" cy="589.25" r="2.04" fill="#b36f62" opacity="0.05"/><circle cx="606.47" cy="191.77" r="1.94" fill="#b36f62" opacity="0.05"/><circle cx="1179.22" cy="1099.58" r="1.88" fill="#b36f62" opacity="0.03"/><rect x="261.36" y="177.66" width="9.18" height="1.2" rx="1" fill="#b36f62" opacity="0.07" transform="rotate(177.55 261.36 177.66)"/><rect x="1079.44" y="953.27" width="11.42" height="2.55" rx="1" fill="#2f342d" opacity="0.03" transform="rotate(133.11 1079.44 953.27)"/><rect x="881.99" y="60.28" width="10.55" height="1.37" rx="1" fill="#b36f62" opacity="0.08" transform="rotate(62.41 881.99 60.28)"/><circle cx="681.86" cy="903.64" r="0.78" fill="#2f342d" opacity="0.04"/><rect x="1185.76" y="825.75" width="15.58" height="1.56" rx="1" fill="#2f342d" opacity="0.06" transform="rotate(48.21 1185.76 825.75)"/><circle cx="594.45" cy="258.7" r="1.92" fill="#b36f62" opacity="0.07"/><circle cx="944.66" cy="576.8" r="1.96" fill="#b36f62" opacity="0.05"/><rect x="759.55" y="616.5" width="25" height="1.49" rx="1" fill="#b36f62" opacity="0.07" transform="rotate(55.25 759.55 616.5)"/><rect x="1049.3" y="1076.57" width="6.82" height="1.59" rx="1" fill="#b36f62" opacity="0.04" transform="rotate(175.08 1049.3 1076.57)"/><rect x="1313.03" y="37.28" width="23.7" height="2.59" rx="1" fill="#b36f62" opacity="0.03" transform="rotate(63.31 1313.03 37.28)"/><rect x="809.54" y="844.88" width="25.53" height="1.53" rx="1" fill="#b36f62" opacity="0.04" transform="rotate(134.24 809.54 844.88)"/>
  <circle cx="1350" cy="178" r="184" fill="#b36f62" opacity="0.06"/>
  <circle cx="220" cy="894" r="220" fill="#718066" opacity="0.08"/>
  <g transform="rotate(-4 505 395)">
    <ellipse cx="515" cy="507.6" rx="217.3" ry="21" fill="#1f211d" opacity="0.09"/>
    <rect x="300" y="290" width="410" height="210" rx="8" fill="#fff7ec"/>
    <text x="322" y="384.5" class="brand" fill="#2f342d" font-size="38.95">PANTRY</text>
    <text x="324" y="428.6" class="micro" fill="#2f342d" opacity="0.62">BATCH 04 / DEMO</text>
    <circle cx="668" cy="395" r="22" fill="#b36f62"/>
  </g><g transform="rotate(5 940 415)">
    <ellipse cx="956" cy="560.6" rx="222.6" ry="26" fill="#1f211d" opacity="0.11"/>
    <rect x="730" y="285" width="420" height="260" rx="10" fill="#fff7ec"/>
    <rect x="748" y="303" width="384" height="224" rx="5" fill="none" stroke="#2f342d" stroke-opacity="0.11"/>
    <rect x="764" y="327" width="92.4" height="4" rx="2" fill="#b36f62" opacity="0.84"/>
    <text x="764" y="373.4" class="brand" fill="#2f342d" font-size="50.4">TASTING</text>
    <text x="766" y="407.4" class="micro" fill="#2f342d" opacity="0.65">NOTE INSERT</text>
    <rect x="766" y="435.8" width="114.91" height="3" rx="2" fill="#2f342d" opacity="0.42"/><rect x="766" y="457.8" width="172.37" height="2" rx="2" fill="#2f342d" opacity="0.22"/><rect x="766" y="479.8" width="229.82" height="2" rx="2" fill="#2f342d" opacity="0.22"/><rect x="766" y="501.8" width="130.03" height="2" rx="2" fill="#2f342d" opacity="0.22"/><rect x="766" y="523.8" width="187.49" height="2" rx="2" fill="#2f342d" opacity="0.22"/>
    <circle cx="1084" cy="475" r="35" fill="#b36f62" opacity="0.86"/><text x="1084" y="486" text-anchor="middle" class="micro" fill="#fff7ec" font-size="20">TA</text>
  </g><g transform="rotate(-7 1140 710)">
    <ellipse cx="1156" cy="818.8" rx="148.4" ry="18" fill="#1f211d" opacity="0.11"/>
    <rect x="1000" y="620" width="280" height="180" rx="10" fill="#fff7ec"/>
    <rect x="1018" y="638" width="244" height="144" rx="5" fill="none" stroke="#2f342d" stroke-opacity="0.11"/>
    <rect x="1034" y="662" width="61.6" height="4" rx="2" fill="#b36f62" opacity="0.84"/>
    <text x="1034" y="681.2" class="brand" fill="#2f342d" font-size="33.6">RECEIPT</text>
    <text x="1036" y="715.2" class="micro" fill="#2f342d" opacity="0.65">CARD</text>
    <rect x="1036" y="724.4" width="76.61" height="3" rx="2" fill="#2f342d" opacity="0.42"/><rect x="1036" y="746.4" width="114.91" height="2" rx="2" fill="#2f342d" opacity="0.22"/><rect x="1036" y="768.4" width="153.22" height="2" rx="2" fill="#2f342d" opacity="0.22"/>
    
  </g>
  <g opacity="0.72"><text x="78" y="1004" class="micro" fill="#2f342d">ARTISAN PACKAGING</text><text x="78" y="1036" class="micro" fill="#2f342d" opacity="0.55">TEMPORARY DEMONSTRATION PORTFOLIO VISUAL / GALLERY-2</text></g>
</svg>
