<?xml version="1.0" encoding="UTF-8"?>
<svg xmlns="http://www.w3.org/2000/svg" width="1600" height="1100" viewBox="0 0 1600 1100" role="img" aria-labelledby="title desc">
  <title id="title">NOMA gallery-4 demo portfolio mockup</title>
  <desc id="desc">Temporary fictional demonstration project imagery for portfolio presentation only, not client work.</desc>
  <defs>
    <linearGradient id="bg_noma_gallery_4" x1="0" y1="0" x2="1" y2="1">
      <stop offset="0%" stop-color="#fff7ec"/>
      <stop offset="58%" stop-color="#f2e7dc"/>
      <stop offset="100%" stop-color="#cfaf96"/>
    </linearGradient>
    <radialGradient id="light_noma_gallery_4" cx="74%" cy="18%" r="64%">
      <stop offset="0%" stop-color="#ffffff" stop-opacity="0.62"/>
      <stop offset="100%" stop-color="#ffffff" stop-opacity="0"/>
    </radialGradient>
  </defs>
  <style><![CDATA[
    .brand { font-family: Georgia, Georgia, serif; font-weight: 500; letter-spacing: .02em; }
    .body { font-family: Arial, Arial, sans-serif; font-weight: 500; }
    .micro { font-family: Arial, Arial, sans-serif; font-size: 20px; font-weight: 700; letter-spacing: .12em; }
  ]]></style>
  <rect width="1600" height="1100" fill="url(#bg_noma_gallery_4)"/>
  <rect width="1600" height="1100" fill="url(#light_noma_gallery_4)"/>
  <circle cx="833.94" cy="259.37" r="1.93" fill="#b36f62" opacity="0.03"/><circle cx="896.83" cy="301.04" r="1.87" fill="#b36f62" opacity="0.03"/><circle cx="1219.04" cy="957.97" r="1.18" fill="#b36f62" opacity="0.04"/><rect x="1202.35" y="92.13" width="9.55" height="0.98" rx="1" fill="#b36f62" opacity="0.04" transform="rotate(131.63 1202.35 92.13)"/><rect x="875.11" y="931.69" width="18.86" height="0.81" rx="1" fill="#2f342d" opacity="0.05" transform="rotate(23.71 875.11 931.69)"/><rect x="1374.48" y="219.99" width="20.35" height="2.51" rx="1" fill="#b36f62" opacity="0.05" transform="rotate(16.51 1374.48 219.99)"/><circle cx="1407.95" cy="526.35" r="1.51" fill="#b36f62" opacity="0.06"/><circle cx="1361.28" cy="490.47" r="1.96" fill="#2f342d" opacity="0.05"/><circle cx="670.08" cy="979.84" r="0.94" fill="#2f342d" opacity="0.04"/><rect x="633.63" y="858.05" width="13.61" height="1.57" rx="1" fill="#2f342d" opacity="0.06" transform="rotate(32.99 633.63 858.05)"/><circle cx="819.37" cy="120.92" r="1.52" fill="#2f342d" opacity="0.03"/><circle cx="751.34" cy="807.65" r="0.86" fill="#2f342d" opacity="0.05"/><circle cx="836.44" cy="235.98" r="1.03" fill="#2f342d" opacity="0.04"/><rect x="410.06" y="676.51" width="22.08" height="2.32" rx="1" fill="#2f342d" opacity="0.03" transform="rotate(91.13 410.06 676.51)"/><rect x="927.53" y="847.1" width="21.98" height="1.92" rx="1" fill="#2f342d" opacity="0.04" transform="rotate(53.92 927.53 847.1)"/><circle cx="75.65" cy="1054.64" r="0.73" fill="#b36f62" opacity="0.07"/><circle cx="653.2" cy="876.58" r="1.48" fill="#2f342d" opacity="0.03"/><rect x="120.54" y="526.38" width="26.82" height="1.12" rx="1" fill="#2f342d" opacity="0.07" transform="rotate(49.8 120.54 526.38)"/><rect x="163.36" y="116.59" width="7.68" height="1.73" rx="1" fill="#b36f62" opacity="0.04" transform="rotate(104.78 163.36 116.59)"/><rect x="347.7" y="188.38" width="27.97" height="2.31" rx="1" fill="#b36f62" opacity="0.05" transform="rotate(90.2 347.7 188.38)"/><circle cx="565.44" cy="656.42" r="1.03" fill="#2f342d" opacity="0.04"/><rect x="1081.88" y="347.71" width="25.01" height="1.12" rx="1" fill="#2f342d" opacity="0.07" transform="rotate(26.59 1081.88 347.71)"/><rect x="273.42" y="165.62" width="6.36" height="0.88" rx="1" fill="#b36f62" opacity="0.03" transform="rotate(107.49 273.42 165.62)"/><rect x="584.43" y="111.54" width="24.67" height="2.48" rx="1" fill="#2f342d" opacity="0.06" transform="rotate(113.41 584.43 111.54)"/><circle cx="263.23" cy="606.56" r="0.77" fill="#b36f62" opacity="0.06"/><rect x="679.82" y="725.68" width="8.64" height="1.98" rx="1" fill="#2f342d" opacity="0.04" transform="rotate(96.52 679.82 725.68)"/><circle cx="67.59" cy="49.26" r="1.06" fill="#b36f62" opacity="0.07"/><circle cx="609" cy="301.58" r="1.29" fill="#b36f62" opacity="0.04"/><rect x="1450.46" y="745.85" width="18.48" height="2.1" rx="1" fill="#b36f62" opacity="0.04" transform="rotate(4.35 1450.46 745.85)"/><rect x="1301.11" y="474.98" width="8.75" height="2.51" rx="1" fill="#2f342d" opacity="0.04" transform="rotate(149.28 1301.11 474.98)"/><rect x="1037.75" y="695.83" width="10.47" height="1.38" rx="1" fill="#b36f62" opacity="0.05" transform="rotate(47.69 1037.75 695.83)"/><rect x="708.77" y="906.07" width="12.26" height="1.44" rx="1" fill="#2f342d" opacity="0.04" transform="rotate(85.04 708.77 906.07)"/><circle cx="848.08" cy="663.93" r="1.51" fill="#2f342d" opacity="0.03"/><rect x="369.66" y="490.63" width="23.16" height="1.09" rx="1" fill="#2f342d" opacity="0.06" transform="rotate(2.84 369.66 490.63)"/><rect x="1055.14" y="825.81" width="19.93" height="1.28" rx="1" fill="#b36f62" opacity="0.03" transform="rotate(92.08 1055.14 825.81)"/><rect x="294.73" y="616.4" width="25.78" height="2.08" rx="1" fill="#b36f62" opacity="0.07" transform="rotate(91.93 294.73 616.4)"/><circle cx="930.55" cy="593.68" r="0.74" fill="#2f342d" opacity="0.08"/><rect x="468.45" y="407.13" width="27.07" height="2.22" rx="1" fill="#b36f62" opacity="0.06" transform="rotate(173.68 468.45 407.13)"/><circle cx="556.38" cy="846.1" r="1.55" fill="#2f342d" opacity="0.04"/><rect x="1249.04" y="751.98" width="9.9" height="1.57" rx="1" fill="#b36f62" opacity="0.04" transform="rotate(78.64 1249.04 751.98)"/><rect x="479.24" y="868.77" width="26.38" height="1.77" rx="1" fill="#b36f62" opacity="0.06" transform="rotate(39.23 479.24 868.77)"/><circle cx="844.54" cy="1054.88" r="1.8" fill="#b36f62" opacity="0.07"/><circle cx="1335.74" cy="431.99" r="2.24" fill="#2f342d" opacity="0.08"/><rect x="1531.97" y="70.06" width="11.29" height="2.4" rx="1" fill="#b36f62" opacity="0.05" transform="rotate(85.74 1531.97 70.06)"/><rect x="1310.55" y="195.06" width="25.41" height="2.25" rx="1" fill="#2f342d" opacity="0.04" transform="rotate(74.89 1310.55 195.06)"/><rect x="1322.85" y="1008.89" width="12.8" height="1.33" rx="1" fill="#b36f62" opacity="0.05" transform="rotate(158.85 1322.85 1008.89)"/><circle cx="551.98" cy="571.33" r="1.9" fill="#b36f62" opacity="0.07"/><circle cx="89.19" cy="761.98" r="1.69" fill="#2f342d" opacity="0.04"/><circle cx="973.94" cy="738.33" r="1.38" fill="#2f342d" opacity="0.05"/><rect x="70.15" y="395.81" width="7.01" height="1.42" rx="1" fill="#2f342d" opacity="0.04" transform="rotate(115.97 70.15 395.81)"/><rect x="280.49" y="6.51" width="18.21" height="1.12" rx="1" fill="#b36f62" opacity="0.03" transform="rotate(19.32 280.49 6.51)"/><rect x="331.27" y="392.34" width="6.09" height="1.63" rx="1" fill="#b36f62" opacity="0.08" transform="rotate(82.6 331.27 392.34)"/><circle cx="1460.79" cy="866.37" r="2.2" fill="#b36f62" opacity="0.08"/><circle cx="114.33" cy="500.95" r="0.79" fill="#2f342d" opacity="0.04"/><rect x="363.62" y="126.03" width="15.03" height="0.85" rx="1" fill="#b36f62" opacity="0.03" transform="rotate(15.65 363.62 126.03)"/><circle cx="868.72" cy="976.13" r="1.71" fill="#2f342d" opacity="0.06"/><rect x="922.25" y="182.86" width="15.44" height="2.17" rx="1" fill="#b36f62" opacity="0.03" transform="rotate(38.47 922.25 182.86)"/><rect x="1159.83" y="25.23" width="9.57" height="1.27" rx="1" fill="#b36f62" opacity="0.05" transform="rotate(69.92 1159.83 25.23)"/><rect x="408.6" y="951.61" width="26.09" height="1.88" rx="1" fill="#b36f62" opacity="0.05" transform="rotate(56.61 408.6 951.61)"/><rect x="466.75" y="980.1" width="21.9" height="2.43" rx="1" fill="#2f342d" opacity="0.06" transform="rotate(25.87 466.75 980.1)"/><rect x="1045.37" y="575.13" width="10.72" height="0.84" rx="1" fill="#b36f62" opacity="0.03" transform="rotate(171.85 1045.37 575.13)"/><circle cx="227.67" cy="187.67" r="1.03" fill="#2f342d" opacity="0.04"/><rect x="422.6" y="326.72" width="19.87" height="1.67" rx="1" fill="#2f342d" opacity="0.05" transform="rotate(57.61 422.6 326.72)"/><circle cx="107.32" cy="969.95" r="0.78" fill="#2f342d" opacity="0.08"/><rect x="802.97" y="3.73" width="23.76" height="1.04" rx="1" fill="#b36f62" opacity="0.06" transform="rotate(95.62 802.97 3.73)"/><circle cx="1224.26" cy="19.75" r="1.55" fill="#b36f62" opacity="0.05"/><rect x="799.19" y="880.17" width="24.01" height="0.95" rx="1" fill="#b36f62" opacity="0.06" transform="rotate(0.88 799.19 880.17)"/><rect x="1521.62" y="759.07" width="6.09" height="0.99" rx="1" fill="#2f342d" opacity="0.03" transform="rotate(115.33 1521.62 759.07)"/><circle cx="1135.14" cy="66.45" r="2.12" fill="#b36f62" opacity="0.03"/><rect x="936.88" y="832.14" width="19.51" height="2.01" rx="1" fill="#2f342d" opacity="0.04" transform="rotate(165.8 936.88 832.14)"/><circle cx="58.42" cy="1047.41" r="1.41" fill="#b36f62" opacity="0.04"/><rect x="231.41" y="741.3" width="20.19" height="2.34" rx="1" fill="#2f342d" opacity="0.03" transform="rotate(69.59 231.41 741.3)"/><circle cx="1482.95" cy="575.31" r="0.98" fill="#2f342d" opacity="0.06"/><rect x="1197.18" y="1038.04" width="26.04" height="2.48" rx="1" fill="#b36f62" opacity="0.06" transform="rotate(174.99 1197.18 1038.04)"/><circle cx="564.91" cy="937.31" r="1.68" fill="#2f342d" opacity="0.03"/><rect x="1421.81" y="1052.78" width="23.49" height="0.81" rx="1" fill="#2f342d" opacity="0.06" transform="rotate(169.41 1421.81 1052.78)"/><rect x="1290.92" y="906.16" width="20.51" height="2.26" rx="1" fill="#2f342d" opacity="0.03" transform="rotate(22.04 1290.92 906.16)"/><rect x="26.24" y="566.86" width="13.71" height="1.53" rx="1" fill="#2f342d" opacity="0.05" transform="rotate(64.16 26.24 566.86)"/><circle cx="1332.68" cy="400.46" r="1.39" fill="#2f342d" opacity="0.05"/><circle cx="1540.24" cy="555.39" r="1.28" fill="#2f342d" opacity="0.03"/><circle cx="923.02" cy="64.83" r="1.61" fill="#b36f62" opacity="0.05"/><rect x="1559.93" y="815.68" width="24.15" height="2.36" rx="1" fill="#2f342d" opacity="0.08" transform="rotate(104.42 1559.93 815.68)"/><rect x="662.07" y="849.95" width="26.36" height="2.46" rx="1" fill="#2f342d" opacity="0.05" transform="rotate(72.03 662.07 849.95)"/><rect x="1047.23" y="47.42" width="26.06" height="1.73" rx="1" fill="#2f342d" opacity="0.04" transform="rotate(144.72 1047.23 47.42)"/><rect x="261.47" y="546.24" width="18.4" height="2.37" rx="1" fill="#b36f62" opacity="0.03" transform="rotate(112.29 261.47 546.24)"/><rect x="832.43" y="933.06" width="7.98" height="1.5" rx="1" fill="#b36f62" opacity="0.03" transform="rotate(67.76 832.43 933.06)"/><rect x="965.77" y="868.58" width="20.99" height="1.99" rx="1" fill="#2f342d" opacity="0.04" transform="rotate(43.9 965.77 868.58)"/><circle cx="454.23" cy="370.16" r="1.71" fill="#b36f62" opacity="0.03"/><circle cx="185.27" cy="690.05" r="1.06" fill="#2f342d" opacity="0.03"/><rect x="1209.25" y="198.9" width="8.35" height="1.8" rx="1" fill="#b36f62" opacity="0.03" transform="rotate(152.04 1209.25 198.9)"/><rect x="600.7" y="182.96" width="17.25" height="1.56" rx="1" fill="#b36f62" opacity="0.07" transform="rotate(67.07 600.7 182.96)"/><rect x="508.23" y="265.15" width="26.95" height="2.22" rx="1" fill="#b36f62" opacity="0.07" transform="rotate(77.89 508.23 265.15)"/><circle cx="1181.31" cy="43.25" r="1.53" fill="#2f342d" opacity="0.07"/><rect x="1595.18" y="759.01" width="18.92" height="1.84" rx="1" fill="#b36f62" opacity="0.05" transform="rotate(4.81 1595.18 759.01)"/><circle cx="1143.98" cy="166.85" r="0.9" fill="#b36f62" opacity="0.05"/><rect x="676.09" y="251.61" width="11.6" height="1.2" rx="1" fill="#2f342d" opacity="0.06" transform="rotate(63.32 676.09 251.61)"/><circle cx="1393.29" cy="310.59" r="2.16" fill="#2f342d" opacity="0.03"/><circle cx="259.72" cy="786.71" r="1.07" fill="#b36f62" opacity="0.03"/><rect x="857.96" y="951.93" width="25.5" height="2.07" rx="1" fill="#2f342d" opacity="0.06" transform="rotate(61.09 857.96 951.93)"/><rect x="890.38" y="346.52" width="10.7" height="2.02" rx="1" fill="#2f342d" opacity="0.06" transform="rotate(160.64 890.38 346.52)"/><rect x="62.52" y="596.38" width="13.62" height="1.12" rx="1" fill="#b36f62" opacity="0.03" transform="rotate(167.86 62.52 596.38)"/><circle cx="1101.33" cy="976.49" r="1.61" fill="#b36f62" opacity="0.06"/><rect x="52.44" y="355.38" width="21.04" height="1.64" rx="1" fill="#b36f62" opacity="0.07" transform="rotate(143.34 52.44 355.38)"/><rect x="520.84" y="528.2" width="15.66" height="2" rx="1" fill="#b36f62" opacity="0.05" transform="rotate(171.55 520.84 528.2)"/><circle cx="697.31" cy="248.97" r="0.95" fill="#b36f62" opacity="0.05"/><circle cx="632.67" cy="954.9" r="1.51" fill="#2f342d" opacity="0.03"/><rect x="776.35" y="103.55" width="21.43" height="1.92" rx="1" fill="#b36f62" opacity="0.03" transform="rotate(21.84 776.35 103.55)"/><rect x="731.67" y="389.25" width="12.02" height="1.03" rx="1" fill="#2f342d" opacity="0.03" transform="rotate(141 731.67 389.25)"/><rect x="1213.43" y="1063.52" width="25.95" height="1.82" rx="1" fill="#2f342d" opacity="0.07" transform="rotate(137.49 1213.43 1063.52)"/><rect x="1528.36" y="942.3" width="21.37" height="2.55" rx="1" fill="#b36f62" opacity="0.07" transform="rotate(178.35 1528.36 942.3)"/><rect x="924.73" y="796.27" width="17.66" height="2.02" rx="1" fill="#b36f62" opacity="0.07" transform="rotate(80.15 924.73 796.27)"/><rect x="550.41" y="189.16" width="26.06" height="1.01" rx="1" fill="#b36f62" opacity="0.07" transform="rotate(16.69 550.41 189.16)"/><rect x="963.26" y="1056.18" width="8.92" height="2.43" rx="1" fill="#b36f62" opacity="0.05" transform="rotate(27.46 963.26 1056.18)"/><rect x="1185.39" y="423.72" width="24" height="1.96" rx="1" fill="#b36f62" opacity="0.04" transform="rotate(88.27 1185.39 423.72)"/><circle cx="1295.76" cy="185.95" r="1.88" fill="#b36f62" opacity="0.08"/><rect x="139.74" y="421.51" width="24.03" height="1.78" rx="1" fill="#b36f62" opacity="0.05" transform="rotate(27.63 139.74 421.51)"/><rect x="102.47" y="77.97" width="9.32" height="2.29" rx="1" fill="#b36f62" opacity="0.05" transform="rotate(111.97 102.47 77.97)"/><rect x="41.43" y="230.73" width="10.31" height="1.32" rx="1" fill="#2f342d" opacity="0.04" transform="rotate(177.99 41.43 230.73)"/><circle cx="596.16" cy="0.09" r="1.33" fill="#b36f62" opacity="0.07"/><circle cx="1108.78" cy="15.66" r="1.35" fill="#b36f62" opacity="0.05"/><circle cx="618.41" cy="188.71" r="2.25" fill="#2f342d" opacity="0.08"/><rect x="1275.38" y="653.74" width="20.41" height="1.46" rx="1" fill="#2f342d" opacity="0.04" transform="rotate(82.41 1275.38 653.74)"/><circle cx="699.58" cy="617.9" r="0.86" fill="#b36f62" opacity="0.05"/><rect x="663.79" y="1009.29" width="22.57" height="1.94" rx="1" fill="#b36f62" opacity="0.07" transform="rotate(162.16 663.79 1009.29)"/><rect x="1047.91" y="1025.77" width="11.24" height="1.36" rx="1" fill="#b36f62" opacity="0.03" transform="rotate(70.81 1047.91 1025.77)"/><circle cx="253.8" cy="639.63" r="1.58" fill="#b36f62" opacity="0.04"/><rect x="1151.46" y="964.15" width="21.77" height="1.93" rx="1" fill="#b36f62" opacity="0.07" transform="rotate(87.8 1151.46 964.15)"/><rect x="1269.18" y="117.74" width="11.94" height="2.23" rx="1" fill="#b36f62" opacity="0.08" transform="rotate(87.47 1269.18 117.74)"/><circle cx="284.42" cy="498.66" r="1.37" fill="#b36f62" opacity="0.06"/><rect x="1576.77" y="238.78" width="26.52" height="2.22" rx="1" fill="#2f342d" opacity="0.05" transform="rotate(61.18 1576.77 238.78)"/><rect x="327.47" y="519.07" width="12.34" height="1.6" rx="1" fill="#b36f62" opacity="0.05" transform="rotate(143.68 327.47 519.07)"/><rect x="413.64" y="678.11" width="20.44" height="1.87" rx="1" fill="#b36f62" opacity="0.05" transform="rotate(68.32 413.64 678.11)"/><circle cx="353.94" cy="616.94" r="1.18" fill="#b36f62" opacity="0.04"/><rect x="1073.26" y="925.82" width="18.66" height="2.59" rx="1" fill="#b36f62" opacity="0.08" transform="rotate(24.45 1073.26 925.82)"/><rect x="1270.27" y="427.14" width="25.21" height="1.9" rx="1" fill="#b36f62" opacity="0.04" transform="rotate(66.03 1270.27 427.14)"/><circle cx="816.67" cy="329.79" r="1.41" fill="#2f342d" opacity="0.06"/><rect x="65.96" y="489.3" width="25.86" height="1.4" rx="1" fill="#2f342d" opacity="0.05" transform="rotate(22.23 65.96 489.3)"/><circle cx="317.72" cy="62.45" r="1.56" fill="#2f342d" opacity="0.05"/><circle cx="496.2" cy="1068.83" r="1.25" fill="#b36f62" opacity="0.07"/><rect x="1357.77" y="791.89" width="26.34" height="2.53" rx="1" fill="#b36f62" opacity="0.03" transform="rotate(46.07 1357.77 791.89)"/>
  <circle cx="1350" cy="178" r="184" fill="#b36f62" opacity="0.06"/>
  <circle cx="220" cy="894" r="220" fill="#718066" opacity="0.08"/>
  <g transform="rotate(-5 465 525)">
    <ellipse cx="483" cy="840.8" rx="159" ry="63" fill="#1f211d" opacity="0.14"/>
    <rect x="315" y="210" width="300" height="630" rx="42" fill="#46513f"/>
    <rect x="333" y="228" width="264" height="594" rx="33" fill="#fff7ec"/>
    <text x="354" y="310.8" class="micro" fill="#2f342d" opacity="0.62">NOMA</text>
    <rect x="354" y="367.5" width="66" height="66" rx="10" fill="#cfaf96" opacity="0.92"/><rect x="430" y="367.5" width="66" height="66" rx="10" fill="#718066" opacity="0.92"/><rect x="506" y="367.5" width="66" height="66" rx="10" fill="#b36f62" opacity="0.92"/><rect x="354" y="443.5" width="66" height="66" rx="10" fill="#fff7ec" opacity="0.92"/><rect x="430" y="443.5" width="66" height="66" rx="10" fill="#cfaf96" opacity="0.92"/><rect x="506" y="443.5" width="66" height="66" rx="10" fill="#718066" opacity="0.92"/><rect x="354" y="519.5" width="66" height="66" rx="10" fill="#b36f62" opacity="0.92"/><rect x="430" y="519.5" width="66" height="66" rx="10" fill="#fff7ec" opacity="0.92"/><rect x="506" y="519.5" width="66" height="66" rx="10" fill="#cfaf96" opacity="0.92"/>
  </g><g transform="rotate(5 830 430)">
    <ellipse cx="842" cy="613.6" rx="164.3" ry="36" fill="#1f211d" opacity="0.09"/>
    <rect x="675" y="250" width="310" height="360" rx="14" fill="#fff7ec"/>
    <rect x="697" y="272" width="266" height="172.8" rx="10" fill="#cfaf96"/>
    <text x="699" y="487.6" class="brand" fill="#2f342d" font-size="27.9">BATCH</text>
    <rect x="699" y="516.4" width="80.1" height="3" rx="2" fill="#2f342d" opacity="0.42"/><rect x="699" y="538.4" width="120.16" height="2" rx="2" fill="#2f342d" opacity="0.22"/><rect x="699" y="560.4" width="160.21" height="2" rx="2" fill="#2f342d" opacity="0.22"/>
  </g><g transform="rotate(-4 1135 685)">
    <ellipse cx="1147" cy="841" rx="164.3" ry="30" fill="#1f211d" opacity="0.09"/>
    <rect x="980" y="535" width="310" height="300" rx="14" fill="#fff7ec"/>
    <rect x="1002" y="557" width="266" height="144" rx="10" fill="#718066"/>
    <text x="1004" y="733" class="brand" fill="#2f342d" font-size="27.9">PANTRY</text>
    <rect x="1004" y="757" width="80.1" height="3" rx="2" fill="#2f342d" opacity="0.42"/><rect x="1004" y="779" width="120.16" height="2" rx="2" fill="#2f342d" opacity="0.22"/><rect x="1004" y="801" width="160.21" height="2" rx="2" fill="#2f342d" opacity="0.22"/>
  </g>
  <g opacity="0.72"><text x="78" y="1004" class="micro" fill="#2f342d">ARTISAN PACKAGING</text><text x="78" y="1036" class="micro" fill="#2f342d" opacity="0.55">TEMPORARY DEMONSTRATION PORTFOLIO VISUAL / GALLERY-4</text></g>
</svg>
