<?xml version="1.0" encoding="UTF-8"?>
<svg xmlns="http://www.w3.org/2000/svg" width="1600" height="1100" viewBox="0 0 1600 1100" role="img" aria-labelledby="title desc">
  <title id="title">NOMA hero demo portfolio mockup</title>
  <desc id="desc">Temporary fictional demonstration project imagery for portfolio presentation only, not client work.</desc>
  <defs>
    <linearGradient id="bg_noma_hero" x1="0" y1="0" x2="1" y2="1">
      <stop offset="0%" stop-color="#fff7ec"/>
      <stop offset="58%" stop-color="#f2e7dc"/>
      <stop offset="100%" stop-color="#cfaf96"/>
    </linearGradient>
    <radialGradient id="light_noma_hero" cx="74%" cy="18%" r="64%">
      <stop offset="0%" stop-color="#ffffff" stop-opacity="0.62"/>
      <stop offset="100%" stop-color="#ffffff" stop-opacity="0"/>
    </radialGradient>
  </defs>
  <style><![CDATA[
    .brand { font-family: Georgia, Georgia, serif; font-weight: 500; letter-spacing: .02em; }
    .body { font-family: Arial, Arial, sans-serif; font-weight: 500; }
    .micro { font-family: Arial, Arial, sans-serif; font-size: 20px; font-weight: 700; letter-spacing: .12em; }
  ]]></style>
  <rect width="1600" height="1100" fill="url(#bg_noma_hero)"/>
  <rect width="1600" height="1100" fill="url(#light_noma_hero)"/>
  <rect x="135.35" y="557.54" width="17.07" height="1.78" rx="1" fill="#b36f62" opacity="0.04" transform="rotate(51.49 135.35 557.54)"/><circle cx="121.25" cy="506.12" r="0.89" fill="#b36f62" opacity="0.06"/><rect x="1200.31" y="369.68" width="24.29" height="1.34" rx="1" fill="#2f342d" opacity="0.07" transform="rotate(120.96 1200.31 369.68)"/><rect x="616.52" y="866.87" width="10.88" height="1.37" rx="1" fill="#b36f62" opacity="0.04" transform="rotate(8.63 616.52 866.87)"/><circle cx="1342.77" cy="842.39" r="1.42" fill="#b36f62" opacity="0.03"/><circle cx="384.91" cy="785.2" r="0.96" fill="#b36f62" opacity="0.05"/><circle cx="1081.51" cy="332.5" r="2.06" fill="#b36f62" opacity="0.05"/><rect x="266.13" y="11.55" width="14.97" height="0.93" rx="1" fill="#b36f62" opacity="0.03" transform="rotate(74.21 266.13 11.55)"/><circle cx="781.02" cy="591.54" r="1.46" fill="#b36f62" opacity="0.08"/><circle cx="6.49" cy="906.77" r="2.11" fill="#b36f62" opacity="0.07"/><rect x="1273.16" y="1094.41" width="7.87" height="2.12" rx="1" fill="#2f342d" opacity="0.07" transform="rotate(93.89 1273.16 1094.41)"/><circle cx="1388.49" cy="869.91" r="1.19" fill="#2f342d" opacity="0.04"/><rect x="266.27" y="589.93" width="15.46" height="2.49" rx="1" fill="#2f342d" opacity="0.07" transform="rotate(172.69 266.27 589.93)"/><rect x="10.45" y="932.03" width="14.69" height="2.43" rx="1" fill="#b36f62" opacity="0.05" transform="rotate(121.64 10.45 932.03)"/><circle cx="191.47" cy="666.58" r="0.73" fill="#b36f62" opacity="0.08"/><circle cx="525.12" cy="985.07" r="1.42" fill="#b36f62" opacity="0.04"/><circle cx="1388.54" cy="387.56" r="1.63" fill="#b36f62" opacity="0.04"/><circle cx="983.54" cy="31.29" r="2.03" fill="#2f342d" opacity="0.04"/><rect x="906.89" y="933.26" width="21.91" height="2.57" rx="1" fill="#2f342d" opacity="0.04" transform="rotate(63.22 906.89 933.26)"/><circle cx="408.14" cy="1095.77" r="1" fill="#2f342d" opacity="0.03"/><rect x="1216" y="504.25" width="20.13" height="2.14" rx="1" fill="#b36f62" opacity="0.07" transform="rotate(174.93 1216 504.25)"/><circle cx="364.08" cy="224.69" r="1.53" fill="#2f342d" opacity="0.06"/><rect x="1489.77" y="463.15" width="21.17" height="2.17" rx="1" fill="#2f342d" opacity="0.06" transform="rotate(90.31 1489.77 463.15)"/><rect x="913.08" y="853.28" width="20.12" height="1.54" rx="1" fill="#b36f62" opacity="0.03" transform="rotate(172.2 913.08 853.28)"/><rect x="696.02" y="558.21" width="7.43" height="2.5" rx="1" fill="#2f342d" opacity="0.06" transform="rotate(7.67 696.02 558.21)"/><rect x="954.46" y="356.1" width="27.72" height="2.28" rx="1" fill="#2f342d" opacity="0.03" transform="rotate(116.57 954.46 356.1)"/><rect x="1128.1" y="657.93" width="14.16" height="1.62" rx="1" fill="#b36f62" opacity="0.06" transform="rotate(41.79 1128.1 657.93)"/><rect x="394.95" y="510.06" width="23.87" height="2.26" rx="1" fill="#2f342d" opacity="0.06" transform="rotate(179.29 394.95 510.06)"/><rect x="822.78" y="446.85" width="10.17" height="1.61" rx="1" fill="#b36f62" opacity="0.07" transform="rotate(174.32 822.78 446.85)"/><rect x="1190.74" y="964.87" width="6.81" height="1.41" rx="1" fill="#2f342d" opacity="0.07" transform="rotate(69.72 1190.74 964.87)"/><circle cx="849.3" cy="387.9" r="1.89" fill="#2f342d" opacity="0.04"/><circle cx="544.1" cy="444.18" r="1.26" fill="#2f342d" opacity="0.03"/><rect x="1076.52" y="987.94" width="25.97" height="2.1" rx="1" fill="#2f342d" opacity="0.03" transform="rotate(91.13 1076.52 987.94)"/><circle cx="1423.45" cy="159.77" r="0.89" fill="#b36f62" opacity="0.04"/><rect x="566.3" y="466.02" width="9.03" height="2.06" rx="1" fill="#b36f62" opacity="0.08" transform="rotate(36.77 566.3 466.02)"/><rect x="58.26" y="312.89" width="16.23" height="1.52" rx="1" fill="#b36f62" opacity="0.06" transform="rotate(30.65 58.26 312.89)"/><circle cx="861.79" cy="681.77" r="0.95" fill="#2f342d" opacity="0.03"/><rect x="505.87" y="736.8" width="12.85" height="1.47" rx="1" fill="#2f342d" opacity="0.05" transform="rotate(82.13 505.87 736.8)"/><circle cx="297.11" cy="1030.26" r="1.4" fill="#b36f62" opacity="0.05"/><rect x="1444.2" y="714.92" width="11.67" height="2.3" rx="1" fill="#b36f62" opacity="0.04" transform="rotate(109.81 1444.2 714.92)"/><circle cx="1289.71" cy="12.54" r="2.07" fill="#2f342d" opacity="0.04"/><rect x="1408.18" y="991.79" width="18.89" height="0.83" rx="1" fill="#2f342d" opacity="0.07" transform="rotate(50.44 1408.18 991.79)"/><circle cx="302.19" cy="596.84" r="1.63" fill="#2f342d" opacity="0.04"/><rect x="882.74" y="178.66" width="22.09" height="1.54" rx="1" fill="#b36f62" opacity="0.03" transform="rotate(46.07 882.74 178.66)"/><rect x="916.64" y="790.98" width="23.49" height="1.05" rx="1" fill="#b36f62" opacity="0.07" transform="rotate(148.5 916.64 790.98)"/><rect x="1017.23" y="1040.71" width="20.19" height="0.93" rx="1" fill="#b36f62" opacity="0.05" transform="rotate(77.53 1017.23 1040.71)"/><rect x="54.62" y="879.42" width="8.97" height="2.51" rx="1" fill="#2f342d" opacity="0.06" transform="rotate(115.76 54.62 879.42)"/><circle cx="984.33" cy="869.83" r="2" fill="#2f342d" opacity="0.07"/><circle cx="1431.7" cy="664.55" r="1.9" fill="#b36f62" opacity="0.08"/><circle cx="697.18" cy="948.46" r="0.97" fill="#2f342d" opacity="0.04"/><circle cx="822.07" cy="282.01" r="1.01" fill="#2f342d" opacity="0.08"/><rect x="1184.1" y="917.57" width="26.28" height="2.08" rx="1" fill="#2f342d" opacity="0.08" transform="rotate(151.57 1184.1 917.57)"/><rect x="89.76" y="487.36" width="15.46" height="1.43" rx="1" fill="#b36f62" opacity="0.04" transform="rotate(122.73 89.76 487.36)"/><rect x="182.68" y="789.57" width="20.04" height="2.49" rx="1" fill="#2f342d" opacity="0.04" transform="rotate(43.32 182.68 789.57)"/><circle cx="694.17" cy="760.17" r="1.33" fill="#b36f62" opacity="0.03"/><circle cx="1400.93" cy="330.72" r="2.09" fill="#b36f62" opacity="0.05"/><rect x="872.25" y="242.22" width="6.6" height="1.58" rx="1" fill="#2f342d" opacity="0.04" transform="rotate(10.26 872.25 242.22)"/><circle cx="443.29" cy="451.87" r="1.87" fill="#2f342d" opacity="0.08"/><rect x="1377.45" y="756.29" width="7.46" height="2.54" rx="1" fill="#2f342d" opacity="0.06" transform="rotate(8.77 1377.45 756.29)"/><rect x="611.73" y="810.01" width="6.11" height="2.06" rx="1" fill="#2f342d" opacity="0.07" transform="rotate(130.26 611.73 810.01)"/><rect x="727.03" y="746.05" width="14.24" height="1.18" rx="1" fill="#b36f62" opacity="0.07" transform="rotate(95.52 727.03 746.05)"/><rect x="1455.05" y="618.08" width="9.75" height="1.56" rx="1" fill="#b36f62" opacity="0.07" transform="rotate(131.12 1455.05 618.08)"/><circle cx="345.5" cy="722.03" r="1.9" fill="#2f342d" opacity="0.05"/><circle cx="46.74" cy="255.27" r="2.24" fill="#b36f62" opacity="0.06"/><rect x="780.02" y="367.49" width="25.28" height="1.69" rx="1" fill="#b36f62" opacity="0.06" transform="rotate(129.27 780.02 367.49)"/><rect x="1551.18" y="501.1" width="13.24" height="0.89" rx="1" fill="#b36f62" opacity="0.03" transform="rotate(77.39 1551.18 501.1)"/><circle cx="1498.58" cy="457.35" r="1.09" fill="#b36f62" opacity="0.07"/><circle cx="1031.47" cy="176.1" r="0.91" fill="#b36f62" opacity="0.05"/><rect x="1084.64" y="350.66" width="23.7" height="2.1" rx="1" fill="#b36f62" opacity="0.03" transform="rotate(89.75 1084.64 350.66)"/><rect x="491.96" y="28.66" width="11.96" height="0.84" rx="1" fill="#b36f62" opacity="0.08" transform="rotate(22.4 491.96 28.66)"/><circle cx="1455.55" cy="618.55" r="1.89" fill="#2f342d" opacity="0.05"/><rect x="1597.67" y="148.81" width="23.01" height="2.02" rx="1" fill="#2f342d" opacity="0.05" transform="rotate(24.68 1597.67 148.81)"/><rect x="355.09" y="487.69" width="18.52" height="1.59" rx="1" fill="#b36f62" opacity="0.04" transform="rotate(52.04 355.09 487.69)"/><rect x="733.26" y="604.12" width="21.73" height="2.14" rx="1" fill="#b36f62" opacity="0.06" transform="rotate(41.58 733.26 604.12)"/><circle cx="1518.62" cy="462.62" r="1.59" fill="#b36f62" opacity="0.04"/><rect x="1399.43" y="648.57" width="9.2" height="1.37" rx="1" fill="#b36f62" opacity="0.07" transform="rotate(43.83 1399.43 648.57)"/><circle cx="614.41" cy="275.79" r="0.85" fill="#b36f62" opacity="0.06"/><circle cx="525.21" cy="742.82" r="1.61" fill="#2f342d" opacity="0.03"/><rect x="1201.74" y="891.94" width="8.65" height="1.49" rx="1" fill="#b36f62" opacity="0.03" transform="rotate(178.09 1201.74 891.94)"/><rect x="801.78" y="331.77" width="20.59" height="2.25" rx="1" fill="#2f342d" opacity="0.05" transform="rotate(83.51 801.78 331.77)"/><circle cx="1462.7" cy="319.97" r="1.9" fill="#b36f62" opacity="0.06"/><rect x="523.55" y="673.81" width="18.77" height="2.54" rx="1" fill="#b36f62" opacity="0.05" transform="rotate(51.22 523.55 673.81)"/><rect x="741.29" y="814.81" width="9.42" height="1.38" rx="1" fill="#2f342d" opacity="0.07" transform="rotate(31.82 741.29 814.81)"/><circle cx="82.77" cy="907.24" r="1.17" fill="#b36f62" opacity="0.03"/><circle cx="444.28" cy="274.1" r="1.75" fill="#2f342d" opacity="0.03"/><circle cx="1567.96" cy="196.25" r="1.78" fill="#2f342d" opacity="0.06"/><rect x="96.61" y="646.54" width="10.8" height="2.56" rx="1" fill="#2f342d" opacity="0.06" transform="rotate(149.68 96.61 646.54)"/><rect x="1528.21" y="50.46" width="8.34" height="2.39" rx="1" fill="#2f342d" opacity="0.07" transform="rotate(174.51 1528.21 50.46)"/><rect x="1184.83" y="847.12" width="20.89" height="2.43" rx="1" fill="#b36f62" opacity="0.07" transform="rotate(58.56 1184.83 847.12)"/><rect x="508.46" y="377.48" width="13.58" height="2.57" rx="1" fill="#2f342d" opacity="0.04" transform="rotate(96.1 508.46 377.48)"/><rect x="445.72" y="843.38" width="27.46" height="2.26" rx="1" fill="#2f342d" opacity="0.03" transform="rotate(154.63 445.72 843.38)"/><rect x="1584.04" y="466.37" width="27.7" height="1.73" rx="1" fill="#b36f62" opacity="0.06" transform="rotate(163.93 1584.04 466.37)"/><rect x="13.99" y="357.74" width="6.85" height="2.41" rx="1" fill="#2f342d" opacity="0.03" transform="rotate(113.06 13.99 357.74)"/><rect x="505.09" y="909.06" width="9.05" height="0.83" rx="1" fill="#2f342d" opacity="0.03" transform="rotate(147.92 505.09 909.06)"/><rect x="79.36" y="548.82" width="19.77" height="2.47" rx="1" fill="#b36f62" opacity="0.04" transform="rotate(90.58 79.36 548.82)"/><rect x="280.91" y="360.54" width="21.63" height="2.37" rx="1" fill="#b36f62" opacity="0.07" transform="rotate(131.37 280.91 360.54)"/><rect x="1289.61" y="782.75" width="26.01" height="1.26" rx="1" fill="#2f342d" opacity="0.06" transform="rotate(8.27 1289.61 782.75)"/><rect x="272.17" y="455.96" width="17.89" height="1.5" rx="1" fill="#b36f62" opacity="0.06" transform="rotate(97.92 272.17 455.96)"/><rect x="1472.21" y="226.51" width="12.65" height="1.83" rx="1" fill="#b36f62" opacity="0.06" transform="rotate(95.35 1472.21 226.51)"/><rect x="1243.66" y="419.25" width="8.75" height="1.46" rx="1" fill="#b36f62" opacity="0.08" transform="rotate(27.85 1243.66 419.25)"/><rect x="976.57" y="383.31" width="9.95" height="0.98" rx="1" fill="#2f342d" opacity="0.08" transform="rotate(107.45 976.57 383.31)"/><rect x="369.97" y="367.11" width="22.62" height="2.39" rx="1" fill="#2f342d" opacity="0.06" transform="rotate(121.71 369.97 367.11)"/><rect x="1092.45" y="461.13" width="14.33" height="2.15" rx="1" fill="#2f342d" opacity="0.07" transform="rotate(52.94 1092.45 461.13)"/><circle cx="247.48" cy="215.35" r="1.69" fill="#b36f62" opacity="0.07"/><circle cx="481.18" cy="986.94" r="2.05" fill="#b36f62" opacity="0.03"/><circle cx="870" cy="7.77" r="1.65" fill="#b36f62" opacity="0.04"/><circle cx="46.42" cy="258.57" r="1.55" fill="#2f342d" opacity="0.07"/><rect x="600.74" y="226.28" width="7.26" height="1.35" rx="1" fill="#2f342d" opacity="0.04" transform="rotate(176.45 600.74 226.28)"/><rect x="132.55" y="727.08" width="19.34" height="2.37" rx="1" fill="#b36f62" opacity="0.08" transform="rotate(143.75 132.55 727.08)"/><rect x="1295.5" y="607.2" width="23.18" height="1.18" rx="1" fill="#b36f62" opacity="0.07" transform="rotate(59.67 1295.5 607.2)"/><rect x="1333.18" y="580.93" width="24.94" height="1.75" rx="1" fill="#2f342d" opacity="0.07" transform="rotate(128.34 1333.18 580.93)"/><rect x="1311.91" y="677.95" width="27.5" height="2.4" rx="1" fill="#b36f62" opacity="0.07" transform="rotate(103.02 1311.91 677.95)"/><rect x="1121.29" y="903.94" width="23.65" height="1.9" rx="1" fill="#b36f62" opacity="0.05" transform="rotate(131.33 1121.29 903.94)"/><rect x="848.71" y="516.55" width="14.7" height="2.18" rx="1" fill="#2f342d" opacity="0.07" transform="rotate(79.79 848.71 516.55)"/><rect x="787.05" y="247.93" width="13.84" height="1.98" rx="1" fill="#b36f62" opacity="0.07" transform="rotate(121.99 787.05 247.93)"/><rect x="147.72" y="1006.25" width="21.07" height="1.15" rx="1" fill="#2f342d" opacity="0.04" transform="rotate(112.4 147.72 1006.25)"/><circle cx="226.11" cy="437.89" r="1.01" fill="#2f342d" opacity="0.03"/><rect x="1032.92" y="1092.1" width="11.5" height="1.51" rx="1" fill="#b36f62" opacity="0.06" transform="rotate(178.87 1032.92 1092.1)"/><circle cx="811.17" cy="422.9" r="1.58" fill="#b36f62" opacity="0.05"/><circle cx="656" cy="972.86" r="0.77" fill="#b36f62" opacity="0.07"/><rect x="1250.62" y="751.13" width="19.06" height="2.28" rx="1" fill="#b36f62" opacity="0.06" transform="rotate(37.59 1250.62 751.13)"/><circle cx="1412.81" cy="99.24" r="1.76" fill="#2f342d" opacity="0.06"/><rect x="1391.74" y="415.33" width="10.34" height="1.58" rx="1" fill="#b36f62" opacity="0.03" transform="rotate(52.83 1391.74 415.33)"/><rect x="1387.22" y="908.72" width="17.09" height="1.03" rx="1" fill="#2f342d" opacity="0.06" transform="rotate(162.42 1387.22 908.72)"/><rect x="211.07" y="528.89" width="17.37" height="2.12" rx="1" fill="#b36f62" opacity="0.07" transform="rotate(173.01 211.07 528.89)"/><circle cx="1316.82" cy="209.35" r="1.42" fill="#2f342d" opacity="0.07"/><circle cx="226.99" cy="236.8" r="1.78" fill="#2f342d" opacity="0.04"/><rect x="495.89" y="862.42" width="16.64" height="1.93" rx="1" fill="#b36f62" opacity="0.05" transform="rotate(168.38 495.89 862.42)"/><rect x="889.24" y="519.43" width="18.1" height="2.11" rx="1" fill="#b36f62" opacity="0.08" transform="rotate(3.09 889.24 519.43)"/><rect x="1012.97" y="1056.16" width="7.33" height="1.53" rx="1" fill="#b36f62" opacity="0.03" transform="rotate(46.41 1012.97 1056.16)"/><circle cx="210.84" cy="393.14" r="0.84" fill="#2f342d" opacity="0.04"/><rect x="217.26" y="903.63" width="14.38" height="2.42" rx="1" fill="#b36f62" opacity="0.04" transform="rotate(54.79 217.26 903.63)"/><circle cx="1519.34" cy="818.21" r="0.76" fill="#b36f62" opacity="0.07"/><rect x="1119.1" y="875.46" width="9.29" height="1.07" rx="1" fill="#2f342d" opacity="0.06" transform="rotate(10.11 1119.1 875.46)"/><circle cx="816.77" cy="811.17" r="2.06" fill="#2f342d" opacity="0.07"/><rect x="879.91" y="57.74" width="24.39" height="2.2" rx="1" fill="#2f342d" opacity="0.06" transform="rotate(2.55 879.91 57.74)"/><circle cx="601.6" cy="99.85" r="2.13" fill="#2f342d" opacity="0.03"/><rect x="1123.74" y="245.68" width="23.17" height="1" rx="1" fill="#b36f62" opacity="0.07" transform="rotate(157.28 1123.74 245.68)"/><rect x="1437.45" y="565.06" width="10.32" height="1.3" rx="1" fill="#2f342d" opacity="0.06" transform="rotate(91.55 1437.45 565.06)"/><rect x="1489.74" y="962.67" width="7.82" height="0.89" rx="1" fill="#b36f62" opacity="0.05" transform="rotate(3.43 1489.74 962.67)"/>
  <circle cx="1350" cy="178" r="184" fill="#b36f62" opacity="0.06"/>
  <circle cx="220" cy="894" r="220" fill="#718066" opacity="0.08"/>
  <g transform="rotate(-5 370 497.5)">
    <ellipse cx="388" cy="691.8" rx="116.6" ry="5.5" fill="#1f211d" opacity="0.14"/>
    <ellipse cx="370" cy="384" rx="110" ry="24" fill="#fff7ec" opacity="0.82"/>
    <rect x="260" y="384" width="220" height="227" rx="39.6" fill="#e9c79d" opacity="0.86"/>
    <ellipse cx="370" cy="611" rx="110" ry="24" fill="#cfaf96" opacity="0.52"/>
    <rect x="299.6" y="475.5" width="140.8" height="71.5" rx="8" fill="#fff7ec"/>
    <text x="370" y="508.5" text-anchor="middle" class="brand" fill="#2f342d" font-size="35.2">NO</text>
    <text x="370" y="527.75" text-anchor="middle" class="micro" fill="#2f342d" opacity="0.58">HONEY</text>
    <rect x="308.4" y="366" width="123.2" height="38" rx="7" fill="#46513f"/>
  </g><g transform="rotate(4 625 430)">
    <ellipse cx="643" cy="641.6" rx="121.9" ry="6" fill="#1f211d" opacity="0.14"/>
    <ellipse cx="625" cy="304" rx="115" ry="24" fill="#fff7ec" opacity="0.82"/>
    <rect x="510" y="304" width="230" height="252" rx="41.4" fill="#e3b98e" opacity="0.86"/>
    <ellipse cx="625" cy="556" rx="115" ry="24" fill="#cfaf96" opacity="0.52"/>
    <rect x="551.4" y="406" width="147.2" height="78" rx="8" fill="#fff7ec"/>
    <text x="625" y="442" text-anchor="middle" class="brand" fill="#2f342d" font-size="36.8">NOMA</text>
    <text x="625" y="463" text-anchor="middle" class="micro" fill="#2f342d" opacity="0.58">BATCH 04</text>
    <rect x="560.6" y="286" width="128.8" height="38" rx="7" fill="#46513f"/>
  </g><g transform="rotate(-3 963 464.04)">
    <ellipse cx="997" cy="764.77" rx="215.18" ry="10.08" fill="#1f211d" opacity="0.14"/>
    <polygon points="760,300 836,268.08 1166,268.08 1090,300" fill="#cfaf96" opacity="0.96"/>
    <polygon points="1090,300 1166,268.08 1166,628.08 1090,660" fill="#718066" opacity="0.62"/>
    <rect x="760" y="300" width="330" height="360" rx="8" fill="#fff7ec"/>
    <rect x="806.2" y="357.6" width="52.8" height="5" rx="3" fill="#b36f62"/>
    <text x="806.2" y="451.2" class="brand" fill="#2f342d" font-size="42.9">GIFT</text>
    <text x="809.5" y="483.2" class="micro" fill="#2f342d" opacity="0.56">CARTON</text>
    <rect x="809.5" y="530.4" width="77.75" height="3" rx="2" fill="#2f342d" opacity="0.42"/><rect x="809.5" y="552.4" width="116.62" height="2" rx="2" fill="#2f342d" opacity="0.22"/><rect x="809.5" y="574.4" width="155.5" height="2" rx="2" fill="#2f342d" opacity="0.22"/><rect x="809.5" y="596.4" width="87.98" height="2" rx="2" fill="#2f342d" opacity="0.22"/>
  </g><g transform="rotate(6 1190 750)">
    <ellipse cx="1206" cy="871.2" rx="190.8" ry="22" fill="#1f211d" opacity="0.1"/>
    <rect x="1010" y="640" width="360" height="220" rx="7" fill="#cfaf96"/>
    <text x="1060" y="704" class="micro" fill="#2f342d" opacity="0.25">NO</text><text x="1124.8" y="704" class="micro" fill="#2f342d" opacity="0.25">NO</text><text x="1189.6" y="704" class="micro" fill="#2f342d" opacity="0.25">NO</text><text x="1254.4" y="704" class="micro" fill="#2f342d" opacity="0.25">NO</text><text x="1319.2" y="704" class="micro" fill="#2f342d" opacity="0.25">NO</text><text x="1060" y="752.4" class="micro" fill="#2f342d" opacity="0.25">NO</text><text x="1124.8" y="752.4" class="micro" fill="#2f342d" opacity="0.25">NO</text><text x="1189.6" y="752.4" class="micro" fill="#2f342d" opacity="0.25">NO</text><text x="1254.4" y="752.4" class="micro" fill="#2f342d" opacity="0.25">NO</text><text x="1319.2" y="752.4" class="micro" fill="#2f342d" opacity="0.25">NO</text><text x="1060" y="800.8" class="micro" fill="#2f342d" opacity="0.25">NO</text><text x="1124.8" y="800.8" class="micro" fill="#2f342d" opacity="0.25">NO</text><text x="1189.6" y="800.8" class="micro" fill="#2f342d" opacity="0.25">NO</text><text x="1254.4" y="800.8" class="micro" fill="#2f342d" opacity="0.25">NO</text><text x="1319.2" y="800.8" class="micro" fill="#2f342d" opacity="0.25">NO</text><text x="1060" y="849.2" class="micro" fill="#2f342d" opacity="0.25">NO</text><text x="1124.8" y="849.2" class="micro" fill="#2f342d" opacity="0.25">NO</text><text x="1189.6" y="849.2" class="micro" fill="#2f342d" opacity="0.25">NO</text><text x="1254.4" y="849.2" class="micro" fill="#2f342d" opacity="0.25">NO</text><text x="1319.2" y="849.2" class="micro" fill="#2f342d" opacity="0.25">NO</text>
  </g><g transform="rotate(7 1180 315)">
    <ellipse cx="1190" cy="409.2" rx="169.6" ry="17" fill="#1f211d" opacity="0.09"/>
    <rect x="1020" y="230" width="320" height="170" rx="8" fill="#fff7ec"/>
    <text x="1042" y="306.5" class="brand" fill="#2f342d" font-size="30.4">SHELF TAG</text>
    <text x="1044" y="342.2" class="micro" fill="#2f342d" opacity="0.62">BATCH 04 / DEMO</text>
    <circle cx="1298" cy="315" r="22" fill="#b36f62"/>
  </g><g transform="rotate(-6 560 805)">
    <ellipse cx="576" cy="918.4" rx="174.9" ry="19" fill="#1f211d" opacity="0.11"/>
    <rect x="395" y="710" width="330" height="190" rx="10" fill="#fff7ec"/>
    <rect x="413" y="728" width="294" height="154" rx="5" fill="none" stroke="#2f342d" stroke-opacity="0.11"/>
    <rect x="429" y="752" width="72.6" height="4" rx="2" fill="#b36f62" opacity="0.84"/>
    <text x="429" y="774.6" class="brand" fill="#2f342d" font-size="39.6">BATCH</text>
    <text x="431" y="808.6" class="micro" fill="#2f342d" opacity="0.65">TASTING CARD</text>
    <rect x="431" y="820.2" width="90.29" height="3" rx="2" fill="#2f342d" opacity="0.42"/><rect x="431" y="842.2" width="135.43" height="2" rx="2" fill="#2f342d" opacity="0.22"/><rect x="431" y="864.2" width="180.58" height="2" rx="2" fill="#2f342d" opacity="0.22"/>
    <circle cx="659" cy="830" r="35" fill="#b36f62" opacity="0.86"/><text x="659" y="841" text-anchor="middle" class="micro" fill="#fff7ec" font-size="20">BA</text>
  </g>
  <g opacity="0.72"><text x="78" y="1004" class="micro" fill="#2f342d">ARTISAN PACKAGING</text><text x="78" y="1036" class="micro" fill="#2f342d" opacity="0.55">TEMPORARY DEMONSTRATION PORTFOLIO VISUAL / HERO</text></g>
</svg>
