<?xml version="1.0" encoding="UTF-8"?>
<svg xmlns="http://www.w3.org/2000/svg" width="1600" height="1100" viewBox="0 0 1600 1100" role="img" aria-labelledby="title desc">
  <title id="title">MONOLITH cover demo portfolio mockup</title>
  <desc id="desc">Temporary fictional demonstration project imagery for portfolio presentation only, not client work.</desc>
  <defs>
    <linearGradient id="bg_monolith_cover" x1="0" y1="0" x2="1" y2="1">
      <stop offset="0%" stop-color="#fbf7ef"/>
      <stop offset="58%" stop-color="#efeae2"/>
      <stop offset="100%" stop-color="#c7bbaa"/>
    </linearGradient>
    <radialGradient id="light_monolith_cover" cx="74%" cy="18%" r="64%">
      <stop offset="0%" stop-color="#ffffff" stop-opacity="0.62"/>
      <stop offset="100%" stop-color="#ffffff" stop-opacity="0"/>
    </radialGradient>
  </defs>
  <style><![CDATA[
    .brand { font-family: Helvetica, Georgia, serif; font-weight: 500; letter-spacing: .02em; }
    .body { font-family: Arial, Arial, sans-serif; font-weight: 500; }
    .micro { font-family: Arial, Arial, sans-serif; font-size: 20px; font-weight: 700; letter-spacing: .12em; }
  ]]></style>
  <rect width="1600" height="1100" fill="url(#bg_monolith_cover)"/>
  <rect width="1600" height="1100" fill="url(#light_monolith_cover)"/>
  <rect x="1038.44" y="21.54" width="26.26" height="2.36" rx="1" fill="#a0746d" opacity="0.04" transform="rotate(174.53 1038.44 21.54)"/><rect x="1524.89" y="527.48" width="11.67" height="2.2" rx="1" fill="#a0746d" opacity="0.06" transform="rotate(39.35 1524.89 527.48)"/><rect x="718.99" y="313.05" width="19.59" height="2.08" rx="1" fill="#a0746d" opacity="0.08" transform="rotate(49.35 718.99 313.05)"/><rect x="987.08" y="86.69" width="13.2" height="1.45" rx="1" fill="#a0746d" opacity="0.06" transform="rotate(47.74 987.08 86.69)"/><rect x="1548.96" y="946.01" width="15.41" height="1.28" rx="1" fill="#a0746d" opacity="0.07" transform="rotate(109.28 1548.96 946.01)"/><circle cx="83.81" cy="550.94" r="0.96" fill="#a0746d" opacity="0.06"/><rect x="1463.84" y="92.89" width="18.93" height="1.56" rx="1" fill="#a0746d" opacity="0.03" transform="rotate(141.74 1463.84 92.89)"/><rect x="1213.54" y="1037.14" width="12.59" height="1.34" rx="1" fill="#2c302a" opacity="0.04" transform="rotate(124.29 1213.54 1037.14)"/><circle cx="790.07" cy="410.44" r="1.48" fill="#a0746d" opacity="0.06"/><circle cx="920.05" cy="964.44" r="1.92" fill="#2c302a" opacity="0.06"/><rect x="1354.69" y="1050.17" width="22.23" height="0.82" rx="1" fill="#2c302a" opacity="0.05" transform="rotate(134.45 1354.69 1050.17)"/><rect x="640.82" y="987.53" width="18.39" height="2.36" rx="1" fill="#a0746d" opacity="0.04" transform="rotate(109.72 640.82 987.53)"/><rect x="1145.77" y="1059.6" width="19.68" height="2.07" rx="1" fill="#a0746d" opacity="0.05" transform="rotate(149.76 1145.77 1059.6)"/><circle cx="907.9" cy="744.04" r="1.35" fill="#2c302a" opacity="0.04"/><circle cx="211.93" cy="1015.2" r="1.52" fill="#a0746d" opacity="0.05"/><rect x="951.94" y="118.38" width="21.96" height="1.66" rx="1" fill="#2c302a" opacity="0.05" transform="rotate(153.96 951.94 118.38)"/><rect x="488.73" y="516.52" width="17.32" height="0.92" rx="1" fill="#a0746d" opacity="0.07" transform="rotate(3.99 488.73 516.52)"/><circle cx="328.17" cy="524.44" r="1.09" fill="#2c302a" opacity="0.03"/><rect x="448.52" y="432.74" width="11.37" height="2.32" rx="1" fill="#a0746d" opacity="0.04" transform="rotate(48.5 448.52 432.74)"/><rect x="1072.2" y="1064.23" width="20.91" height="2.12" rx="1" fill="#2c302a" opacity="0.07" transform="rotate(5.57 1072.2 1064.23)"/><circle cx="989.95" cy="798.82" r="2.02" fill="#a0746d" opacity="0.07"/><rect x="846.76" y="141.15" width="14.07" height="1.84" rx="1" fill="#2c302a" opacity="0.06" transform="rotate(105.27 846.76 141.15)"/><rect x="1045.1" y="1037.78" width="16.24" height="2.45" rx="1" fill="#2c302a" opacity="0.04" transform="rotate(172.53 1045.1 1037.78)"/><rect x="128.25" y="531.14" width="16.95" height="2.03" rx="1" fill="#a0746d" opacity="0.03" transform="rotate(55.72 128.25 531.14)"/><rect x="707.91" y="453.7" width="18.77" height="1.4" rx="1" fill="#2c302a" opacity="0.07" transform="rotate(147.15 707.91 453.7)"/><rect x="1212.54" y="503.3" width="12.23" height="1.53" rx="1" fill="#2c302a" opacity="0.07" transform="rotate(125.57 1212.54 503.3)"/><rect x="455.02" y="271.8" width="25.8" height="1.72" rx="1" fill="#2c302a" opacity="0.04" transform="rotate(132.64 455.02 271.8)"/><circle cx="268.44" cy="884.28" r="1.71" fill="#2c302a" opacity="0.03"/><circle cx="615.09" cy="87.48" r="1.32" fill="#a0746d" opacity="0.07"/><rect x="435.26" y="609.37" width="11.76" height="2.45" rx="1" fill="#a0746d" opacity="0.04" transform="rotate(90 435.26 609.37)"/><circle cx="271.25" cy="58.97" r="1.32" fill="#a0746d" opacity="0.08"/><rect x="811.28" y="437.12" width="24.84" height="2.07" rx="1" fill="#a0746d" opacity="0.03" transform="rotate(101.28 811.28 437.12)"/><circle cx="1582.37" cy="876.56" r="1.89" fill="#a0746d" opacity="0.05"/><circle cx="508.86" cy="866.78" r="1.12" fill="#a0746d" opacity="0.06"/><circle cx="578.51" cy="75.01" r="1.21" fill="#a0746d" opacity="0.03"/><circle cx="441.43" cy="459.26" r="2.26" fill="#2c302a" opacity="0.03"/><rect x="1253.36" y="22.6" width="12.3" height="2.49" rx="1" fill="#a0746d" opacity="0.04" transform="rotate(64.45 1253.36 22.6)"/><circle cx="429.95" cy="737.46" r="1.73" fill="#2c302a" opacity="0.04"/><circle cx="257.93" cy="38.05" r="1.9" fill="#2c302a" opacity="0.06"/><circle cx="508.81" cy="300.91" r="2.26" fill="#a0746d" opacity="0.07"/><circle cx="695.87" cy="1003.98" r="2.08" fill="#a0746d" opacity="0.07"/><rect x="797.13" y="842.6" width="14.73" height="1.84" rx="1" fill="#a0746d" opacity="0.07" transform="rotate(161.5 797.13 842.6)"/><rect x="800.19" y="110.59" width="22.76" height="2.29" rx="1" fill="#a0746d" opacity="0.05" transform="rotate(45.35 800.19 110.59)"/><rect x="586.93" y="498.35" width="13.42" height="1.11" rx="1" fill="#2c302a" opacity="0.06" transform="rotate(46.48 586.93 498.35)"/><rect x="792.84" y="172.6" width="11.02" height="1.98" rx="1" fill="#a0746d" opacity="0.04" transform="rotate(174.39 792.84 172.6)"/><rect x="459.29" y="1090.45" width="11.12" height="2.36" rx="1" fill="#a0746d" opacity="0.07" transform="rotate(2.68 459.29 1090.45)"/><rect x="1358.51" y="980.42" width="11.62" height="1.49" rx="1" fill="#a0746d" opacity="0.05" transform="rotate(62.48 1358.51 980.42)"/><rect x="1417.91" y="840.92" width="12.49" height="2.25" rx="1" fill="#a0746d" opacity="0.03" transform="rotate(30.02 1417.91 840.92)"/><circle cx="810.8" cy="192.41" r="1.47" fill="#2c302a" opacity="0.03"/><rect x="828.72" y="855.65" width="17.32" height="1.47" rx="1" fill="#a0746d" opacity="0.08" transform="rotate(15.74 828.72 855.65)"/><rect x="464.63" y="719.5" width="20.27" height="1.64" rx="1" fill="#a0746d" opacity="0.07" transform="rotate(179.18 464.63 719.5)"/><rect x="580.36" y="14.82" width="6.89" height="1.59" rx="1" fill="#a0746d" opacity="0.05" transform="rotate(30.4 580.36 14.82)"/><rect x="30.9" y="864.01" width="21.48" height="1.07" rx="1" fill="#2c302a" opacity="0.07" transform="rotate(126.46 30.9 864.01)"/><rect x="271.68" y="876.69" width="14.16" height="1.98" rx="1" fill="#a0746d" opacity="0.04" transform="rotate(122.96 271.68 876.69)"/><circle cx="1105.56" cy="991.46" r="1.63" fill="#a0746d" opacity="0.05"/><rect x="1173.87" y="108.62" width="17.05" height="2.4" rx="1" fill="#a0746d" opacity="0.07" transform="rotate(29.05 1173.87 108.62)"/><rect x="367.88" y="201.45" width="18.12" height="2.25" rx="1" fill="#a0746d" opacity="0.05" transform="rotate(12.68 367.88 201.45)"/><circle cx="667.78" cy="347.49" r="0.88" fill="#a0746d" opacity="0.05"/><circle cx="271.7" cy="87.61" r="1.73" fill="#a0746d" opacity="0.03"/><circle cx="283.49" cy="851.38" r="1.8" fill="#a0746d" opacity="0.03"/><rect x="572.01" y="746.89" width="9.72" height="1.39" rx="1" fill="#2c302a" opacity="0.06" transform="rotate(20.76 572.01 746.89)"/><circle cx="1432.53" cy="552.77" r="0.95" fill="#2c302a" opacity="0.03"/><rect x="328.34" y="426.73" width="13.44" height="1.95" rx="1" fill="#a0746d" opacity="0.07" transform="rotate(95.91 328.34 426.73)"/><circle cx="1090.38" cy="490.05" r="2.2" fill="#a0746d" opacity="0.04"/><rect x="978.64" y="1084.95" width="26.93" height="2.15" rx="1" fill="#a0746d" opacity="0.04" transform="rotate(105.05 978.64 1084.95)"/><circle cx="412.07" cy="9.7" r="1.68" fill="#a0746d" opacity="0.03"/><circle cx="452.48" cy="138.95" r="1.62" fill="#a0746d" opacity="0.07"/><circle cx="806.88" cy="84.57" r="0.78" fill="#2c302a" opacity="0.05"/><rect x="1258.08" y="46.68" width="12.13" height="1.56" rx="1" fill="#2c302a" opacity="0.08" transform="rotate(157.57 1258.08 46.68)"/><rect x="862.29" y="819.5" width="15.94" height="2.3" rx="1" fill="#a0746d" opacity="0.03" transform="rotate(59.72 862.29 819.5)"/><rect x="1575.49" y="318.39" width="20.65" height="2.5" rx="1" fill="#a0746d" opacity="0.04" transform="rotate(28.19 1575.49 318.39)"/><rect x="1383.28" y="482.92" width="10.35" height="0.95" rx="1" fill="#a0746d" opacity="0.04" transform="rotate(44.88 1383.28 482.92)"/><rect x="1532.49" y="100.37" width="16.82" height="1.7" rx="1" fill="#2c302a" opacity="0.08" transform="rotate(150.32 1532.49 100.37)"/><circle cx="511.93" cy="1089.11" r="1.52" fill="#a0746d" opacity="0.05"/><rect x="1585.53" y="367.75" width="23.56" height="2.16" rx="1" fill="#a0746d" opacity="0.05" transform="rotate(26.72 1585.53 367.75)"/><circle cx="1253" cy="801.49" r="1.37" fill="#2c302a" opacity="0.03"/><rect x="119.33" y="250.21" width="12.44" height="0.9" rx="1" fill="#2c302a" opacity="0.06" transform="rotate(60.08 119.33 250.21)"/><rect x="606.15" y="461.07" width="22.56" height="1.11" rx="1" fill="#a0746d" opacity="0.08" transform="rotate(138.69 606.15 461.07)"/><rect x="1006.83" y="815.29" width="20.48" height="2.53" rx="1" fill="#a0746d" opacity="0.05" transform="rotate(149.43 1006.83 815.29)"/><rect x="1236.18" y="408.85" width="19.42" height="1.07" rx="1" fill="#a0746d" opacity="0.03" transform="rotate(131.5 1236.18 408.85)"/><rect x="335.92" y="319.93" width="11.67" height="1.12" rx="1" fill="#a0746d" opacity="0.07" transform="rotate(60.92 335.92 319.93)"/><circle cx="285.32" cy="625.49" r="1.88" fill="#a0746d" opacity="0.07"/><circle cx="116.92" cy="998.72" r="2.11" fill="#a0746d" opacity="0.07"/><circle cx="1206.25" cy="950.58" r="1.64" fill="#2c302a" opacity="0.04"/><rect x="1008.7" y="656.18" width="15.74" height="1.29" rx="1" fill="#a0746d" opacity="0.06" transform="rotate(97.93 1008.7 656.18)"/><circle cx="851.05" cy="493.47" r="2.21" fill="#a0746d" opacity="0.05"/><circle cx="1247.08" cy="552" r="1.66" fill="#a0746d" opacity="0.08"/><circle cx="826.37" cy="670.39" r="2.05" fill="#a0746d" opacity="0.05"/><rect x="1515.62" y="39.85" width="17.51" height="1.48" rx="1" fill="#a0746d" opacity="0.03" transform="rotate(90.67 1515.62 39.85)"/><circle cx="1059.71" cy="1025.19" r="2.05" fill="#2c302a" opacity="0.03"/><rect x="1226.56" y="397.36" width="9.6" height="1.31" rx="1" fill="#2c302a" opacity="0.08" transform="rotate(106.74 1226.56 397.36)"/><rect x="908.55" y="530.41" width="7.54" height="1.91" rx="1" fill="#a0746d" opacity="0.07" transform="rotate(18.93 908.55 530.41)"/><rect x="662.55" y="866.69" width="6.35" height="0.8" rx="1" fill="#a0746d" opacity="0.05" transform="rotate(132.67 662.55 866.69)"/><rect x="1131.62" y="1001.5" width="10.82" height="1.61" rx="1" fill="#2c302a" opacity="0.04" transform="rotate(26.33 1131.62 1001.5)"/><rect x="882.7" y="985.74" width="24.83" height="0.8" rx="1" fill="#2c302a" opacity="0.08" transform="rotate(10.14 882.7 985.74)"/><rect x="1331.49" y="1002.03" width="17.34" height="0.82" rx="1" fill="#a0746d" opacity="0.07" transform="rotate(3.66 1331.49 1002.03)"/><circle cx="812.11" cy="566.37" r="1.87" fill="#2c302a" opacity="0.04"/><rect x="1390.18" y="373.16" width="12.97" height="2.28" rx="1" fill="#2c302a" opacity="0.04" transform="rotate(144.02 1390.18 373.16)"/><rect x="520.9" y="268.58" width="15.05" height="2.29" rx="1" fill="#a0746d" opacity="0.03" transform="rotate(46.31 520.9 268.58)"/><rect x="1561.12" y="833.82" width="13.01" height="2.33" rx="1" fill="#2c302a" opacity="0.06" transform="rotate(45.33 1561.12 833.82)"/><circle cx="1194.14" cy="882.61" r="1.17" fill="#a0746d" opacity="0.06"/><rect x="1045.46" y="609.21" width="22.97" height="1.25" rx="1" fill="#a0746d" opacity="0.08" transform="rotate(96.41 1045.46 609.21)"/><rect x="509.02" y="183.11" width="17.84" height="0.9" rx="1" fill="#a0746d" opacity="0.04" transform="rotate(130.58 509.02 183.11)"/><rect x="862.75" y="326.97" width="12.22" height="1.58" rx="1" fill="#a0746d" opacity="0.06" transform="rotate(26.4 862.75 326.97)"/><rect x="672.22" y="247.41" width="11.76" height="2.09" rx="1" fill="#2c302a" opacity="0.08" transform="rotate(73.08 672.22 247.41)"/><rect x="419.22" y="32.49" width="8.88" height="1.35" rx="1" fill="#a0746d" opacity="0.05" transform="rotate(88.78 419.22 32.49)"/><circle cx="1288.62" cy="858.08" r="0.85" fill="#a0746d" opacity="0.03"/><rect x="1251.73" y="808.68" width="26.68" height="1.98" rx="1" fill="#2c302a" opacity="0.04" transform="rotate(138.64 1251.73 808.68)"/><circle cx="944.28" cy="25.26" r="2.27" fill="#a0746d" opacity="0.03"/><circle cx="553.41" cy="621.26" r="2.23" fill="#2c302a" opacity="0.03"/><circle cx="476.95" cy="357.98" r="0.89" fill="#2c302a" opacity="0.07"/><rect x="476.37" y="620.61" width="10.05" height="1.84" rx="1" fill="#a0746d" opacity="0.05" transform="rotate(134.8 476.37 620.61)"/><rect x="378.08" y="996.6" width="22.25" height="2.14" rx="1" fill="#2c302a" opacity="0.06" transform="rotate(114.32 378.08 996.6)"/><circle cx="198.98" cy="625.22" r="1.12" fill="#a0746d" opacity="0.03"/><rect x="91.57" y="199.56" width="6.22" height="1.62" rx="1" fill="#2c302a" opacity="0.04" transform="rotate(22.63 91.57 199.56)"/><rect x="317.35" y="214.29" width="14.55" height="1.41" rx="1" fill="#a0746d" opacity="0.03" transform="rotate(12.38 317.35 214.29)"/><rect x="413.74" y="478.05" width="8.78" height="1.89" rx="1" fill="#2c302a" opacity="0.04" transform="rotate(34.27 413.74 478.05)"/><rect x="1555.52" y="884.95" width="25.52" height="2.29" rx="1" fill="#a0746d" opacity="0.08" transform="rotate(106.16 1555.52 884.95)"/><rect x="1260.18" y="581.53" width="6.01" height="2.33" rx="1" fill="#a0746d" opacity="0.06" transform="rotate(90.43 1260.18 581.53)"/><circle cx="1428.72" cy="648.96" r="1.89" fill="#2c302a" opacity="0.05"/><rect x="490.91" y="536.54" width="19.94" height="1.7" rx="1" fill="#a0746d" opacity="0.06" transform="rotate(22.34 490.91 536.54)"/><rect x="1138.2" y="751.55" width="24.81" height="1.73" rx="1" fill="#a0746d" opacity="0.05" transform="rotate(67.63 1138.2 751.55)"/><rect x="1260.27" y="780.79" width="11.03" height="2.52" rx="1" fill="#a0746d" opacity="0.03" transform="rotate(21.57 1260.27 780.79)"/><rect x="219.82" y="791.14" width="8.69" height="1.07" rx="1" fill="#a0746d" opacity="0.07" transform="rotate(108.63 219.82 791.14)"/><circle cx="441.21" cy="1053.46" r="1.8" fill="#2c302a" opacity="0.06"/><rect x="1192.06" y="683.65" width="20.59" height="1.65" rx="1" fill="#2c302a" opacity="0.08" transform="rotate(104.76 1192.06 683.65)"/><rect x="193.06" y="963.22" width="10.64" height="1.26" rx="1" fill="#2c302a" opacity="0.08" transform="rotate(11.46 193.06 963.22)"/><circle cx="1079.86" cy="799.44" r="1.9" fill="#2c302a" opacity="0.04"/><circle cx="1508.48" cy="785.95" r="2.14" fill="#a0746d" opacity="0.03"/><circle cx="1063.71" cy="683.9" r="1" fill="#2c302a" opacity="0.04"/><circle cx="1266.44" cy="1052.24" r="1.95" fill="#2c302a" opacity="0.05"/><rect x="914.7" y="241.98" width="16.85" height="1.46" rx="1" fill="#a0746d" opacity="0.05" transform="rotate(122.78 914.7 241.98)"/><rect x="264" y="47.93" width="13.49" height="1.62" rx="1" fill="#2c302a" opacity="0.07" transform="rotate(131.51 264 47.93)"/><rect x="1292.68" y="945.34" width="17.97" height="1.77" rx="1" fill="#a0746d" opacity="0.07" transform="rotate(50.48 1292.68 945.34)"/><circle cx="454.47" cy="258.17" r="2.03" fill="#2c302a" opacity="0.04"/><rect x="127.29" y="320.7" width="8.33" height="1.37" rx="1" fill="#2c302a" opacity="0.07" transform="rotate(19.18 127.29 320.7)"/><rect x="1336.07" y="667.76" width="21.13" height="1.46" rx="1" fill="#a0746d" opacity="0.03" transform="rotate(19.11 1336.07 667.76)"/><rect x="1435.74" y="624.78" width="11.26" height="2.6" rx="1" fill="#a0746d" opacity="0.07" transform="rotate(15.12 1435.74 624.78)"/><rect x="760.64" y="1024.63" width="17.25" height="2.33" rx="1" fill="#2c302a" opacity="0.07" transform="rotate(43.92 760.64 1024.63)"/><circle cx="356.25" cy="46.53" r="1.78" fill="#2c302a" opacity="0.06"/>
  <circle cx="1350" cy="178" r="184" fill="#a0746d" opacity="0.06"/>
  <circle cx="220" cy="894" r="220" fill="#6b7466" opacity="0.08"/>
  <g transform="rotate(-5 565 465)">
    <ellipse cx="583" cy="613.2" rx="275.6" ry="27" fill="#1f211d" opacity="0.13"/>
    <rect x="305" y="330" width="520" height="270" rx="10" fill="#383d36"/>
    <rect x="329" y="354" width="472" height="222" rx="6" fill="none" stroke="#fbf7ef" stroke-opacity="0.16"/>
    <text x="357" y="470.4" class="brand" fill="#fbf7ef" font-size="52">MONOLITH</text>
    <rect x="357" y="497.4" width="384.8" height="4" rx="2" fill="#a0746d"/>
  </g><g transform="rotate(6 1005 400)">
    <ellipse cx="1025" cy="577.8" rx="222.6" ry="33" fill="#1f211d" opacity="0.13"/>
    <rect x="795" y="235" width="420" height="330" rx="8" fill="#383d36"/>
    <line x1="847" y1="287" x2="847" y2="511" stroke="#fbf7ef" stroke-opacity="0.12"/><line x1="886.5" y1="287" x2="886.5" y2="511" stroke="#fbf7ef" stroke-opacity="0.12"/><line x1="926" y1="287" x2="926" y2="511" stroke="#fbf7ef" stroke-opacity="0.12"/><line x1="965.5" y1="287" x2="965.5" y2="511" stroke="#fbf7ef" stroke-opacity="0.12"/><line x1="1005" y1="287" x2="1005" y2="511" stroke="#fbf7ef" stroke-opacity="0.12"/><line x1="1044.5" y1="287" x2="1044.5" y2="511" stroke="#fbf7ef" stroke-opacity="0.12"/><line x1="1084" y1="287" x2="1084" y2="511" stroke="#fbf7ef" stroke-opacity="0.12"/><line x1="1123.5" y1="287" x2="1123.5" y2="511" stroke="#fbf7ef" stroke-opacity="0.12"/><line x1="847" y1="287" x2="1161" y2="287" stroke="#fbf7ef" stroke-opacity="0.12"/><line x1="847" y1="324.67" x2="1161" y2="324.67" stroke="#fbf7ef" stroke-opacity="0.12"/><line x1="847" y1="362.33" x2="1161" y2="362.33" stroke="#fbf7ef" stroke-opacity="0.12"/><line x1="847" y1="400" x2="1161" y2="400" stroke="#fbf7ef" stroke-opacity="0.12"/><line x1="847" y1="437.67" x2="1161" y2="437.67" stroke="#fbf7ef" stroke-opacity="0.12"/><line x1="847" y1="475.33" x2="1161" y2="475.33" stroke="#fbf7ef" stroke-opacity="0.12"/>
    <path d="M 879 472.6 V 353.8 H 1021.8 V 400 H 1122.6 V 472.6 Z" fill="none" stroke="#fbf7ef" stroke-width="5" opacity="0.78"/>
    <text x="849" y="519" class="micro" fill="#fbf7ef" opacity="0.72">PLAN</text>
  </g><g transform="rotate(-5 1050 740)">
    <ellipse cx="1066" cy="862.6" rx="159" ry="21" fill="#1f211d" opacity="0.11"/>
    <rect x="900" y="635" width="300" height="210" rx="10" fill="#fbf7ef"/>
    <rect x="918" y="653" width="264" height="174" rx="5" fill="none" stroke="#2c302a" stroke-opacity="0.11"/>
    <rect x="934" y="677" width="66" height="4" rx="2" fill="#a0746d" opacity="0.84"/>
    <text x="934" y="706.4" class="brand" fill="#2c302a" font-size="36">FOLDER</text>
    <text x="936" y="740.4" class="micro" fill="#2c302a" opacity="0.65">PROJECT 02</text>
    <rect x="936" y="756.8" width="82.08" height="3" rx="2" fill="#2c302a" opacity="0.42"/><rect x="936" y="778.8" width="123.12" height="2" rx="2" fill="#2c302a" opacity="0.22"/><rect x="936" y="800.8" width="164.16" height="2" rx="2" fill="#2c302a" opacity="0.22"/><rect x="936" y="822.8" width="92.88" height="2" rx="2" fill="#2c302a" opacity="0.22"/>
    
  </g>
  <g opacity="0.72"><text x="78" y="1004" class="micro" fill="#2c302a">ARCHITECTURAL BRANDING</text><text x="78" y="1036" class="micro" fill="#2c302a" opacity="0.55">TEMPORARY DEMONSTRATION PORTFOLIO VISUAL / COVER</text></g>
</svg>
