<?xml version="1.0" encoding="UTF-8"?>
<svg xmlns="http://www.w3.org/2000/svg" width="1600" height="1100" viewBox="0 0 1600 1100" role="img" aria-labelledby="title desc">
  <title id="title">MONOLITH gallery-4 demo portfolio mockup</title>
  <desc id="desc">Temporary fictional demonstration project imagery for portfolio presentation only, not client work.</desc>
  <defs>
    <linearGradient id="bg_monolith_gallery_4" x1="0" y1="0" x2="1" y2="1">
      <stop offset="0%" stop-color="#fbf7ef"/>
      <stop offset="58%" stop-color="#efeae2"/>
      <stop offset="100%" stop-color="#c7bbaa"/>
    </linearGradient>
    <radialGradient id="light_monolith_gallery_4" cx="74%" cy="18%" r="64%">
      <stop offset="0%" stop-color="#ffffff" stop-opacity="0.62"/>
      <stop offset="100%" stop-color="#ffffff" stop-opacity="0"/>
    </radialGradient>
  </defs>
  <style><![CDATA[
    .brand { font-family: Helvetica, Georgia, serif; font-weight: 500; letter-spacing: .02em; }
    .body { font-family: Arial, Arial, sans-serif; font-weight: 500; }
    .micro { font-family: Arial, Arial, sans-serif; font-size: 20px; font-weight: 700; letter-spacing: .12em; }
  ]]></style>
  <rect width="1600" height="1100" fill="url(#bg_monolith_gallery_4)"/>
  <rect width="1600" height="1100" fill="url(#light_monolith_gallery_4)"/>
  <circle cx="736.38" cy="561.94" r="1.52" fill="#2c302a" opacity="0.04"/><rect x="587.44" y="169.71" width="14.76" height="2.26" rx="1" fill="#a0746d" opacity="0.07" transform="rotate(2.04 587.44 169.71)"/><rect x="1516.31" y="249.66" width="17.95" height="1.28" rx="1" fill="#a0746d" opacity="0.08" transform="rotate(146.72 1516.31 249.66)"/><rect x="1151.94" y="146.42" width="10.7" height="1.22" rx="1" fill="#a0746d" opacity="0.07" transform="rotate(32.14 1151.94 146.42)"/><circle cx="1148.48" cy="767.84" r="1.85" fill="#2c302a" opacity="0.07"/><rect x="1362.79" y="602.11" width="6.32" height="2.45" rx="1" fill="#a0746d" opacity="0.04" transform="rotate(112.46 1362.79 602.11)"/><rect x="246.44" y="436.4" width="21.85" height="1.58" rx="1" fill="#2c302a" opacity="0.08" transform="rotate(164.15 246.44 436.4)"/><circle cx="381.96" cy="1092.77" r="1.57" fill="#2c302a" opacity="0.06"/><circle cx="664.25" cy="26.26" r="1.98" fill="#a0746d" opacity="0.08"/><circle cx="143.52" cy="56.39" r="2" fill="#a0746d" opacity="0.04"/><rect x="1092.23" y="127.25" width="7.24" height="1.84" rx="1" fill="#a0746d" opacity="0.07" transform="rotate(44.66 1092.23 127.25)"/><circle cx="1427.23" cy="289.1" r="1.93" fill="#2c302a" opacity="0.06"/><circle cx="826.79" cy="723.18" r="1.18" fill="#a0746d" opacity="0.04"/><rect x="1083.38" y="967.45" width="16.49" height="2.39" rx="1" fill="#2c302a" opacity="0.04" transform="rotate(125.41 1083.38 967.45)"/><circle cx="663.83" cy="650.32" r="1.24" fill="#2c302a" opacity="0.05"/><circle cx="452.43" cy="651.56" r="1.67" fill="#a0746d" opacity="0.05"/><rect x="1582.21" y="642.42" width="19.35" height="1.14" rx="1" fill="#2c302a" opacity="0.07" transform="rotate(118.69 1582.21 642.42)"/><circle cx="294.75" cy="224.63" r="0.85" fill="#a0746d" opacity="0.03"/><rect x="1250.1" y="660.37" width="16.84" height="2.19" rx="1" fill="#2c302a" opacity="0.03" transform="rotate(45.35 1250.1 660.37)"/><circle cx="749.66" cy="817.37" r="1.13" fill="#a0746d" opacity="0.04"/><circle cx="1094.54" cy="215.79" r="1.47" fill="#a0746d" opacity="0.06"/><circle cx="948.35" cy="446.81" r="2.26" fill="#2c302a" opacity="0.07"/><circle cx="289.19" cy="223.43" r="2.15" fill="#2c302a" opacity="0.06"/><circle cx="481.53" cy="1065.73" r="1.09" fill="#a0746d" opacity="0.03"/><rect x="1305.72" y="953.68" width="21.08" height="2.51" rx="1" fill="#a0746d" opacity="0.03" transform="rotate(122.09 1305.72 953.68)"/><rect x="826.31" y="912.03" width="27.23" height="2.19" rx="1" fill="#2c302a" opacity="0.04" transform="rotate(167.42 826.31 912.03)"/><circle cx="315.46" cy="598.95" r="1.28" fill="#2c302a" opacity="0.06"/><rect x="1022.54" y="200.03" width="22.63" height="1.74" rx="1" fill="#a0746d" opacity="0.04" transform="rotate(80.63 1022.54 200.03)"/><circle cx="1417.6" cy="1053.17" r="2.26" fill="#a0746d" opacity="0.05"/><rect x="1437.59" y="431.39" width="25.55" height="2.28" rx="1" fill="#a0746d" opacity="0.05" transform="rotate(111.22 1437.59 431.39)"/><circle cx="1555.97" cy="1065.32" r="1.68" fill="#2c302a" opacity="0.08"/><rect x="838.34" y="438.24" width="19.34" height="0.91" rx="1" fill="#2c302a" opacity="0.04" transform="rotate(178.41 838.34 438.24)"/><circle cx="1525.58" cy="141.05" r="1.83" fill="#a0746d" opacity="0.05"/><rect x="772.9" y="1006.73" width="26.36" height="1.02" rx="1" fill="#a0746d" opacity="0.03" transform="rotate(22.9 772.9 1006.73)"/><circle cx="146.06" cy="1098.87" r="1.69" fill="#2c302a" opacity="0.08"/><rect x="1384.88" y="216.88" width="22.83" height="1.88" rx="1" fill="#2c302a" opacity="0.03" transform="rotate(9.26 1384.88 216.88)"/><circle cx="779.79" cy="1027.06" r="2.27" fill="#2c302a" opacity="0.03"/><circle cx="802.41" cy="858.12" r="1.6" fill="#2c302a" opacity="0.06"/><rect x="345.97" y="216.8" width="12.58" height="1.17" rx="1" fill="#a0746d" opacity="0.05" transform="rotate(117.56 345.97 216.8)"/><circle cx="897.6" cy="614.35" r="1.5" fill="#2c302a" opacity="0.03"/><rect x="333" y="169.48" width="12.56" height="1.14" rx="1" fill="#a0746d" opacity="0.03" transform="rotate(64.27 333 169.48)"/><rect x="679.81" y="583.02" width="27.85" height="1.96" rx="1" fill="#a0746d" opacity="0.03" transform="rotate(153.29 679.81 583.02)"/><rect x="777.14" y="597.94" width="21.68" height="1.22" rx="1" fill="#2c302a" opacity="0.04" transform="rotate(109.63 777.14 597.94)"/><rect x="794.41" y="690.97" width="27.74" height="2.47" rx="1" fill="#2c302a" opacity="0.07" transform="rotate(57.99 794.41 690.97)"/><circle cx="1216.49" cy="718.39" r="0.87" fill="#a0746d" opacity="0.07"/><circle cx="19.49" cy="513.9" r="2.1" fill="#2c302a" opacity="0.04"/><rect x="1161.28" y="481.2" width="19.37" height="1.26" rx="1" fill="#2c302a" opacity="0.08" transform="rotate(43.22 1161.28 481.2)"/><circle cx="188.13" cy="927.11" r="2.27" fill="#2c302a" opacity="0.04"/><circle cx="693.02" cy="377.24" r="1.28" fill="#2c302a" opacity="0.08"/><rect x="599.71" y="472.16" width="11.09" height="0.8" rx="1" fill="#a0746d" opacity="0.08" transform="rotate(148.46 599.71 472.16)"/><rect x="652.14" y="685.28" width="16.69" height="1.14" rx="1" fill="#a0746d" opacity="0.08" transform="rotate(94.72 652.14 685.28)"/><circle cx="487.88" cy="940.97" r="0.94" fill="#2c302a" opacity="0.06"/><rect x="785.24" y="494.88" width="16.6" height="2.14" rx="1" fill="#a0746d" opacity="0.07" transform="rotate(105.91 785.24 494.88)"/><circle cx="665.69" cy="358.96" r="0.97" fill="#a0746d" opacity="0.08"/><circle cx="951.37" cy="16.32" r="1.29" fill="#a0746d" opacity="0.03"/><rect x="117.67" y="4.17" width="20.66" height="1.42" rx="1" fill="#a0746d" opacity="0.08" transform="rotate(35.73 117.67 4.17)"/><rect x="1015.8" y="120.32" width="21.86" height="1.47" rx="1" fill="#a0746d" opacity="0.05" transform="rotate(123.88 1015.8 120.32)"/><rect x="1249.71" y="862.48" width="16.71" height="1.64" rx="1" fill="#2c302a" opacity="0.03" transform="rotate(134.71 1249.71 862.48)"/><rect x="1502.31" y="610.43" width="20.08" height="1.24" rx="1" fill="#a0746d" opacity="0.07" transform="rotate(87.29 1502.31 610.43)"/><circle cx="237.06" cy="542.89" r="0.88" fill="#2c302a" opacity="0.05"/><circle cx="857.14" cy="1090.06" r="1.76" fill="#2c302a" opacity="0.05"/><circle cx="1283.93" cy="853.8" r="1.09" fill="#a0746d" opacity="0.04"/><rect x="1226.85" y="1011.1" width="16.5" height="1.16" rx="1" fill="#2c302a" opacity="0.05" transform="rotate(79 1226.85 1011.1)"/><circle cx="635.81" cy="459.7" r="2.26" fill="#2c302a" opacity="0.06"/><circle cx="157.6" cy="79.81" r="2.12" fill="#a0746d" opacity="0.08"/><circle cx="428.66" cy="198.65" r="0.77" fill="#2c302a" opacity="0.06"/><rect x="581.55" y="298.1" width="7.89" height="1.57" rx="1" fill="#a0746d" opacity="0.07" transform="rotate(144.45 581.55 298.1)"/><rect x="754.88" y="1015.16" width="21.07" height="1.34" rx="1" fill="#2c302a" opacity="0.06" transform="rotate(52.39 754.88 1015.16)"/><rect x="421.85" y="1048.62" width="17.38" height="1.22" rx="1" fill="#2c302a" opacity="0.07" transform="rotate(173.37 421.85 1048.62)"/><rect x="495.53" y="523.94" width="7.55" height="1.82" rx="1" fill="#2c302a" opacity="0.06" transform="rotate(22.74 495.53 523.94)"/><rect x="844.91" y="183.51" width="9.73" height="2" rx="1" fill="#2c302a" opacity="0.06" transform="rotate(114.33 844.91 183.51)"/><rect x="634.91" y="412.53" width="11.35" height="0.85" rx="1" fill="#2c302a" opacity="0.07" transform="rotate(163.81 634.91 412.53)"/><circle cx="482.47" cy="389.21" r="2.1" fill="#2c302a" opacity="0.05"/><circle cx="757.81" cy="414.75" r="1.54" fill="#a0746d" opacity="0.06"/><circle cx="467.11" cy="771.27" r="1.56" fill="#2c302a" opacity="0.07"/><circle cx="1303.15" cy="294.88" r="1.7" fill="#2c302a" opacity="0.05"/><circle cx="1499.73" cy="273.07" r="1.71" fill="#2c302a" opacity="0.03"/><circle cx="1341.64" cy="364.55" r="0.99" fill="#a0746d" opacity="0.04"/><rect x="1392.87" y="229.2" width="13.52" height="2.32" rx="1" fill="#a0746d" opacity="0.06" transform="rotate(11.31 1392.87 229.2)"/><circle cx="1250.3" cy="319.66" r="1.35" fill="#2c302a" opacity="0.05"/><circle cx="443.61" cy="1082.36" r="1.16" fill="#a0746d" opacity="0.04"/><rect x="1278.14" y="282.15" width="27.5" height="1.79" rx="1" fill="#2c302a" opacity="0.03" transform="rotate(68.49 1278.14 282.15)"/><rect x="1264.22" y="115.67" width="21.62" height="1.44" rx="1" fill="#a0746d" opacity="0.07" transform="rotate(6.38 1264.22 115.67)"/><rect x="738.52" y="383.48" width="11.2" height="2.28" rx="1" fill="#a0746d" opacity="0.04" transform="rotate(128.77 738.52 383.48)"/><circle cx="804.29" cy="158.77" r="2.26" fill="#2c302a" opacity="0.05"/><rect x="886.85" y="202.32" width="15.8" height="2.29" rx="1" fill="#2c302a" opacity="0.07" transform="rotate(113.09 886.85 202.32)"/><rect x="983.28" y="140.79" width="12.91" height="1.42" rx="1" fill="#a0746d" opacity="0.07" transform="rotate(53.35 983.28 140.79)"/><circle cx="537.99" cy="811.12" r="0.95" fill="#a0746d" opacity="0.03"/><rect x="586.5" y="622.21" width="15.72" height="2.58" rx="1" fill="#2c302a" opacity="0.07" transform="rotate(69.61 586.5 622.21)"/><circle cx="1036.5" cy="832.27" r="1.44" fill="#2c302a" opacity="0.06"/><rect x="1260.82" y="1051.15" width="14.15" height="1.33" rx="1" fill="#2c302a" opacity="0.06" transform="rotate(60.04 1260.82 1051.15)"/><circle cx="958.62" cy="1018.35" r="1.13" fill="#2c302a" opacity="0.08"/><circle cx="597.42" cy="218.32" r="2.1" fill="#a0746d" opacity="0.03"/><circle cx="673.69" cy="796.35" r="1.52" fill="#2c302a" opacity="0.05"/><rect x="713.28" y="583.29" width="18.98" height="2.13" rx="1" fill="#2c302a" opacity="0.03" transform="rotate(85.6 713.28 583.29)"/><rect x="1267.04" y="155.39" width="23.44" height="1.09" rx="1" fill="#2c302a" opacity="0.06" transform="rotate(149.3 1267.04 155.39)"/><rect x="759.74" y="1012.11" width="22.44" height="1.56" rx="1" fill="#2c302a" opacity="0.03" transform="rotate(83.74 759.74 1012.11)"/><rect x="234.99" y="862.3" width="14.64" height="1.08" rx="1" fill="#a0746d" opacity="0.03" transform="rotate(172.01 234.99 862.3)"/><circle cx="427.38" cy="935.23" r="0.89" fill="#a0746d" opacity="0.04"/><rect x="730.16" y="646.95" width="14.54" height="1.98" rx="1" fill="#a0746d" opacity="0.03" transform="rotate(140.24 730.16 646.95)"/><rect x="56.58" y="400.46" width="26.77" height="1.96" rx="1" fill="#a0746d" opacity="0.05" transform="rotate(44.07 56.58 400.46)"/><rect x="353.83" y="1058.58" width="17.53" height="2.47" rx="1" fill="#a0746d" opacity="0.06" transform="rotate(156.97 353.83 1058.58)"/><rect x="1404.98" y="241.48" width="16.02" height="1.45" rx="1" fill="#a0746d" opacity="0.05" transform="rotate(36.12 1404.98 241.48)"/><circle cx="31.43" cy="626.65" r="2" fill="#2c302a" opacity="0.08"/><circle cx="547.38" cy="872.62" r="0.71" fill="#2c302a" opacity="0.07"/><circle cx="1206.14" cy="438.96" r="1.65" fill="#a0746d" opacity="0.07"/><circle cx="1108.66" cy="915.31" r="1.99" fill="#a0746d" opacity="0.07"/><rect x="998.21" y="47.57" width="14.22" height="1.41" rx="1" fill="#2c302a" opacity="0.05" transform="rotate(125.29 998.21 47.57)"/><rect x="97.74" y="476.59" width="25.68" height="1.96" rx="1" fill="#a0746d" opacity="0.05" transform="rotate(179.29 97.74 476.59)"/><circle cx="1565.88" cy="834.72" r="1.21" fill="#2c302a" opacity="0.03"/><rect x="122.1" y="85.47" width="12.16" height="1.67" rx="1" fill="#2c302a" opacity="0.07" transform="rotate(154.7 122.1 85.47)"/><rect x="538.03" y="484.2" width="7.81" height="2.3" rx="1" fill="#2c302a" opacity="0.04" transform="rotate(121.64 538.03 484.2)"/><circle cx="409.57" cy="565.08" r="2.07" fill="#2c302a" opacity="0.05"/><circle cx="1415.32" cy="835.18" r="2.01" fill="#a0746d" opacity="0.04"/><rect x="804.7" y="430.96" width="13.55" height="1.85" rx="1" fill="#a0746d" opacity="0.07" transform="rotate(107.04 804.7 430.96)"/><rect x="764.05" y="138.47" width="18.1" height="1.24" rx="1" fill="#a0746d" opacity="0.08" transform="rotate(158.71 764.05 138.47)"/><rect x="451.19" y="193.54" width="16.77" height="2.36" rx="1" fill="#a0746d" opacity="0.06" transform="rotate(6.67 451.19 193.54)"/><circle cx="915.7" cy="687.94" r="1.03" fill="#a0746d" opacity="0.03"/><rect x="1478.61" y="1021.35" width="16.59" height="1.82" rx="1" fill="#a0746d" opacity="0.05" transform="rotate(41.77 1478.61 1021.35)"/><circle cx="762.48" cy="455.74" r="2.19" fill="#a0746d" opacity="0.06"/><rect x="1167.04" y="280.63" width="9.42" height="2.4" rx="1" fill="#a0746d" opacity="0.05" transform="rotate(17.76 1167.04 280.63)"/><circle cx="360.09" cy="29.24" r="1.34" fill="#a0746d" opacity="0.08"/><rect x="1019.88" y="95.02" width="27.92" height="1.39" rx="1" fill="#a0746d" opacity="0.07" transform="rotate(44.65 1019.88 95.02)"/><rect x="157.03" y="526.89" width="9.53" height="1.15" rx="1" fill="#a0746d" opacity="0.04" transform="rotate(91.2 157.03 526.89)"/><rect x="90.9" y="775.16" width="23.48" height="1.25" rx="1" fill="#2c302a" opacity="0.04" transform="rotate(144.53 90.9 775.16)"/><rect x="1283.09" y="93.72" width="19.27" height="2.08" rx="1" fill="#a0746d" opacity="0.06" transform="rotate(1.88 1283.09 93.72)"/><rect x="1228.8" y="982.56" width="14.63" height="1.66" rx="1" fill="#a0746d" opacity="0.07" transform="rotate(38.38 1228.8 982.56)"/><rect x="51.02" y="96.24" width="22.62" height="1.45" rx="1" fill="#a0746d" opacity="0.03" transform="rotate(115.52 51.02 96.24)"/><circle cx="1589.76" cy="762.76" r="1.56" fill="#a0746d" opacity="0.03"/><rect x="1101.22" y="456.3" width="25.89" height="1.56" rx="1" fill="#2c302a" opacity="0.07" transform="rotate(52.67 1101.22 456.3)"/><rect x="210.04" y="859.34" width="10.2" height="1.31" rx="1" fill="#2c302a" opacity="0.06" transform="rotate(166.47 210.04 859.34)"/><rect x="613.99" y="805.8" width="17.52" height="0.82" rx="1" fill="#2c302a" opacity="0.06" transform="rotate(54.98 613.99 805.8)"/><rect x="224.68" y="1016.28" width="13.8" height="1.23" rx="1" fill="#2c302a" opacity="0.04" transform="rotate(63.58 224.68 1016.28)"/><rect x="762.13" y="991.68" width="14.8" height="1.22" rx="1" fill="#2c302a" opacity="0.03" transform="rotate(28.2 762.13 991.68)"/><circle cx="948.56" cy="186.56" r="1.19" fill="#2c302a" opacity="0.06"/><circle cx="355.76" cy="182.22" r="1.24" fill="#a0746d" opacity="0.07"/><rect x="1113.5" y="544.87" width="15.55" height="1.04" rx="1" fill="#a0746d" opacity="0.03" transform="rotate(52.98 1113.5 544.87)"/><circle cx="121.94" cy="877.12" r="1.34" fill="#a0746d" opacity="0.07"/><circle cx="323.41" cy="1064.23" r="1.88" fill="#2c302a" opacity="0.03"/><rect x="124.76" y="1005.59" width="18.27" height="1.99" rx="1" fill="#2c302a" opacity="0.03" transform="rotate(56.22 124.76 1005.59)"/>
  <circle cx="1350" cy="178" r="184" fill="#a0746d" opacity="0.06"/>
  <circle cx="220" cy="894" r="220" fill="#6b7466" opacity="0.08"/>
  <g transform="rotate(-4 525 435)">
      <ellipse cx="325" cy="494.32" rx="44.52" ry="4.2" fill="#1f211d" opacity="0.08"/>
      <rect x="275" y="370" width="86" height="116" rx="8" fill="#fbf7ef"/>
      <text x="287" y="466" class="micro" fill="#2c302a" opacity="0.62">01</text>
    
      <ellipse cx="429" cy="494.32" rx="44.52" ry="4.2" fill="#1f211d" opacity="0.08"/>
      <rect x="379" y="370" width="86" height="116" rx="8" fill="#c7bbaa"/>
      <text x="391" y="466" class="micro" fill="#2c302a" opacity="0.62">02</text>
    
      <ellipse cx="533" cy="494.32" rx="44.52" ry="4.2" fill="#1f211d" opacity="0.08"/>
      <rect x="483" y="370" width="86" height="116" rx="8" fill="#a0746d"/>
      <text x="495" y="466" class="micro" fill="#2c302a" opacity="0.62">03</text>
    
      <ellipse cx="637" cy="494.32" rx="44.52" ry="4.2" fill="#1f211d" opacity="0.08"/>
      <rect x="587" y="370" width="86" height="116" rx="8" fill="#6b7466"/>
      <text x="599" y="466" class="micro" fill="#2c302a" opacity="0.62">04</text>
    
      <ellipse cx="741" cy="494.32" rx="44.52" ry="4.2" fill="#1f211d" opacity="0.08"/>
      <rect x="691" y="370" width="86" height="116" rx="8" fill="#383d36"/>
      <text x="703" y="466" class="micro" fill="#fbf7ef" opacity="0.62">05</text>
    </g><g transform="rotate(4 1025 410)">
    <ellipse cx="1043" cy="535.2" rx="212" ry="22" fill="#1f211d" opacity="0.13"/>
    <rect x="825" y="300" width="400" height="220" rx="10" fill="#383d36"/>
    <rect x="849" y="324" width="352" height="172" rx="6" fill="none" stroke="#fbf7ef" stroke-opacity="0.16"/>
    <text x="865" y="414.4" class="brand" fill="#fbf7ef" font-size="40">STONE</text>
    <rect x="865" y="436.4" width="296" height="4" rx="2" fill="#a0746d"/>
  </g><g transform="rotate(-7 1130 705)">
    <ellipse cx="1146" cy="827.6" rx="159" ry="21" fill="#1f211d" opacity="0.11"/>
    <rect x="980" y="600" width="300" height="210" rx="10" fill="#fbf7ef"/>
    <rect x="998" y="618" width="264" height="174" rx="5" fill="none" stroke="#2c302a" stroke-opacity="0.11"/>
    <rect x="1014" y="642" width="66" height="4" rx="2" fill="#a0746d" opacity="0.84"/>
    <text x="1014" y="671.4" class="brand" fill="#2c302a" font-size="36">GRAPHITE</text>
    <text x="1016" y="705.4" class="micro" fill="#2c302a" opacity="0.65">INK TEST</text>
    <rect x="1016" y="721.8" width="82.08" height="3" rx="2" fill="#2c302a" opacity="0.42"/><rect x="1016" y="743.8" width="123.12" height="2" rx="2" fill="#2c302a" opacity="0.22"/><rect x="1016" y="765.8" width="164.16" height="2" rx="2" fill="#2c302a" opacity="0.22"/>
    
  </g>
  <g opacity="0.72"><text x="78" y="1004" class="micro" fill="#2c302a">ARCHITECTURAL BRANDING</text><text x="78" y="1036" class="micro" fill="#2c302a" opacity="0.55">TEMPORARY DEMONSTRATION PORTFOLIO VISUAL / GALLERY-4</text></g>
</svg>
