<?xml version="1.0" encoding="UTF-8"?>
<svg xmlns="http://www.w3.org/2000/svg" width="1600" height="1100" viewBox="0 0 1600 1100" role="img" aria-labelledby="title desc">
  <title id="title">MONOLITH gallery-3 demo portfolio mockup</title>
  <desc id="desc">Temporary fictional demonstration project imagery for portfolio presentation only, not client work.</desc>
  <defs>
    <linearGradient id="bg_monolith_gallery_3" x1="0" y1="0" x2="1" y2="1">
      <stop offset="0%" stop-color="#fbf7ef"/>
      <stop offset="58%" stop-color="#efeae2"/>
      <stop offset="100%" stop-color="#c7bbaa"/>
    </linearGradient>
    <radialGradient id="light_monolith_gallery_3" cx="74%" cy="18%" r="64%">
      <stop offset="0%" stop-color="#ffffff" stop-opacity="0.62"/>
      <stop offset="100%" stop-color="#ffffff" stop-opacity="0"/>
    </radialGradient>
  </defs>
  <style><![CDATA[
    .brand { font-family: Helvetica, Georgia, serif; font-weight: 500; letter-spacing: .02em; }
    .body { font-family: Arial, Arial, sans-serif; font-weight: 500; }
    .micro { font-family: Arial, Arial, sans-serif; font-size: 20px; font-weight: 700; letter-spacing: .12em; }
  ]]></style>
  <rect width="1600" height="1100" fill="url(#bg_monolith_gallery_3)"/>
  <rect width="1600" height="1100" fill="url(#light_monolith_gallery_3)"/>
  <rect x="1124.89" y="739.55" width="20.49" height="1.65" rx="1" fill="#2c302a" opacity="0.04" transform="rotate(30.73 1124.89 739.55)"/><rect x="54.98" y="985.19" width="23.07" height="1.16" rx="1" fill="#a0746d" opacity="0.04" transform="rotate(121.46 54.98 985.19)"/><rect x="199" y="87.58" width="17.18" height="1.99" rx="1" fill="#a0746d" opacity="0.08" transform="rotate(20.51 199 87.58)"/><circle cx="176.69" cy="909.62" r="2.18" fill="#2c302a" opacity="0.04"/><rect x="1330.79" y="419.05" width="20.14" height="1.81" rx="1" fill="#2c302a" opacity="0.08" transform="rotate(123.39 1330.79 419.05)"/><rect x="590.74" y="247.73" width="23.78" height="1.24" rx="1" fill="#2c302a" opacity="0.03" transform="rotate(60.25 590.74 247.73)"/><circle cx="1029.36" cy="1065.79" r="1.72" fill="#2c302a" opacity="0.06"/><circle cx="954.05" cy="602.37" r="1.92" fill="#2c302a" opacity="0.07"/><rect x="669.62" y="341.14" width="13.69" height="1.72" rx="1" fill="#2c302a" opacity="0.04" transform="rotate(56.27 669.62 341.14)"/><rect x="766.98" y="551.03" width="21.06" height="1.84" rx="1" fill="#a0746d" opacity="0.06" transform="rotate(38.12 766.98 551.03)"/><circle cx="1165.52" cy="819.26" r="1.84" fill="#a0746d" opacity="0.05"/><rect x="980.05" y="794.6" width="14.67" height="0.83" rx="1" fill="#2c302a" opacity="0.05" transform="rotate(78.51 980.05 794.6)"/><circle cx="746.51" cy="52.97" r="0.89" fill="#a0746d" opacity="0.04"/><circle cx="64.86" cy="65.71" r="1.73" fill="#2c302a" opacity="0.07"/><rect x="561.95" y="983.88" width="27.98" height="1.94" rx="1" fill="#2c302a" opacity="0.07" transform="rotate(82.4 561.95 983.88)"/><rect x="801.11" y="1022.64" width="22.27" height="1.93" rx="1" fill="#2c302a" opacity="0.04" transform="rotate(75.12 801.11 1022.64)"/><rect x="77.27" y="115.69" width="15.55" height="2.23" rx="1" fill="#2c302a" opacity="0.05" transform="rotate(168.72 77.27 115.69)"/><rect x="295.95" y="389.5" width="12.95" height="1.02" rx="1" fill="#2c302a" opacity="0.04" transform="rotate(110.1 295.95 389.5)"/><rect x="342.02" y="278.59" width="17.63" height="2.41" rx="1" fill="#a0746d" opacity="0.07" transform="rotate(84.6 342.02 278.59)"/><circle cx="1199.54" cy="934.81" r="1.74" fill="#a0746d" opacity="0.06"/><circle cx="1354.3" cy="314.79" r="0.92" fill="#a0746d" opacity="0.06"/><rect x="1131.68" y="1065.16" width="21.67" height="1.54" rx="1" fill="#2c302a" opacity="0.03" transform="rotate(70.5 1131.68 1065.16)"/><rect x="1113.79" y="1087.82" width="7.02" height="1.89" rx="1" fill="#a0746d" opacity="0.07" transform="rotate(153.15 1113.79 1087.82)"/><circle cx="193.63" cy="962.89" r="1.64" fill="#2c302a" opacity="0.05"/><circle cx="518.06" cy="367.79" r="1.42" fill="#2c302a" opacity="0.07"/><circle cx="196.75" cy="539.73" r="2.18" fill="#2c302a" opacity="0.07"/><circle cx="957.5" cy="607.3" r="0.84" fill="#2c302a" opacity="0.03"/><rect x="1144.15" y="761.76" width="13.29" height="1.11" rx="1" fill="#a0746d" opacity="0.04" transform="rotate(85.61 1144.15 761.76)"/><rect x="1359.29" y="710.06" width="19.66" height="1.24" rx="1" fill="#a0746d" opacity="0.05" transform="rotate(16.77 1359.29 710.06)"/><rect x="596.9" y="153.26" width="15.53" height="2.04" rx="1" fill="#a0746d" opacity="0.07" transform="rotate(48.16 596.9 153.26)"/><rect x="459.34" y="597.88" width="19.95" height="1.96" rx="1" fill="#a0746d" opacity="0.07" transform="rotate(74.44 459.34 597.88)"/><circle cx="1564.09" cy="701.99" r="1.5" fill="#2c302a" opacity="0.03"/><rect x="473.31" y="822.55" width="19.47" height="1.74" rx="1" fill="#a0746d" opacity="0.03" transform="rotate(15.39 473.31 822.55)"/><circle cx="941.36" cy="578.39" r="2.24" fill="#a0746d" opacity="0.07"/><circle cx="614.56" cy="395.2" r="1.12" fill="#a0746d" opacity="0.06"/><rect x="344.81" y="881.88" width="19.5" height="1.71" rx="1" fill="#a0746d" opacity="0.07" transform="rotate(71.31 344.81 881.88)"/><circle cx="719.59" cy="1042.8" r="1.65" fill="#2c302a" opacity="0.04"/><rect x="386.75" y="1041.74" width="13.84" height="1" rx="1" fill="#a0746d" opacity="0.03" transform="rotate(98.08 386.75 1041.74)"/><rect x="216.67" y="133.4" width="6.82" height="1.64" rx="1" fill="#2c302a" opacity="0.06" transform="rotate(92.03 216.67 133.4)"/><rect x="1383.77" y="335.73" width="22.03" height="2.26" rx="1" fill="#2c302a" opacity="0.03" transform="rotate(67.98 1383.77 335.73)"/><rect x="1059.59" y="934.94" width="14.91" height="1.64" rx="1" fill="#a0746d" opacity="0.05" transform="rotate(30.54 1059.59 934.94)"/><rect x="161.01" y="427.34" width="22.1" height="0.92" rx="1" fill="#2c302a" opacity="0.03" transform="rotate(138.36 161.01 427.34)"/><rect x="1122.25" y="295.3" width="23.31" height="1.26" rx="1" fill="#a0746d" opacity="0.06" transform="rotate(31.62 1122.25 295.3)"/><rect x="211.04" y="403.41" width="6.65" height="1.17" rx="1" fill="#a0746d" opacity="0.06" transform="rotate(124.15 211.04 403.41)"/><circle cx="607.92" cy="147.63" r="0.76" fill="#a0746d" opacity="0.06"/><rect x="32.79" y="760.52" width="23.75" height="2.58" rx="1" fill="#2c302a" opacity="0.07" transform="rotate(158.49 32.79 760.52)"/><rect x="1530.46" y="165.07" width="17.13" height="1.89" rx="1" fill="#a0746d" opacity="0.06" transform="rotate(123.47 1530.46 165.07)"/><rect x="871.63" y="624.04" width="19.86" height="0.95" rx="1" fill="#2c302a" opacity="0.04" transform="rotate(72.82 871.63 624.04)"/><rect x="901.06" y="455.27" width="23.38" height="1.98" rx="1" fill="#a0746d" opacity="0.04" transform="rotate(109.49 901.06 455.27)"/><circle cx="674.04" cy="680.89" r="1.71" fill="#a0746d" opacity="0.03"/><circle cx="1050.9" cy="551.94" r="2" fill="#a0746d" opacity="0.07"/><rect x="223.65" y="713.46" width="10.55" height="1.13" rx="1" fill="#2c302a" opacity="0.03" transform="rotate(2.23 223.65 713.46)"/><circle cx="469.6" cy="664.32" r="1.28" fill="#a0746d" opacity="0.03"/><rect x="347.39" y="691.26" width="9.14" height="2.26" rx="1" fill="#2c302a" opacity="0.05" transform="rotate(16.29 347.39 691.26)"/><circle cx="175.3" cy="107.08" r="1.82" fill="#a0746d" opacity="0.04"/><circle cx="888.42" cy="1094.35" r="1.07" fill="#a0746d" opacity="0.04"/><rect x="27.74" y="200.92" width="17.9" height="2.02" rx="1" fill="#2c302a" opacity="0.03" transform="rotate(139.01 27.74 200.92)"/><circle cx="1490.01" cy="508.19" r="1.96" fill="#a0746d" opacity="0.07"/><rect x="1134.22" y="962.5" width="26.48" height="1.62" rx="1" fill="#a0746d" opacity="0.08" transform="rotate(34.25 1134.22 962.5)"/><circle cx="1519.04" cy="646.54" r="1.44" fill="#a0746d" opacity="0.03"/><circle cx="653.02" cy="1043.38" r="1.34" fill="#2c302a" opacity="0.03"/><circle cx="720.7" cy="348.85" r="2.2" fill="#a0746d" opacity="0.03"/><rect x="468.16" y="421.34" width="17.79" height="0.83" rx="1" fill="#2c302a" opacity="0.07" transform="rotate(32.96 468.16 421.34)"/><rect x="640.92" y="799.28" width="23.15" height="1.27" rx="1" fill="#a0746d" opacity="0.04" transform="rotate(77.4 640.92 799.28)"/><rect x="91.65" y="32.4" width="23.9" height="1.16" rx="1" fill="#a0746d" opacity="0.04" transform="rotate(35.87 91.65 32.4)"/><rect x="166.9" y="802.84" width="25.25" height="2.07" rx="1" fill="#2c302a" opacity="0.06" transform="rotate(158.27 166.9 802.84)"/><circle cx="805.85" cy="652.47" r="1.21" fill="#a0746d" opacity="0.06"/><circle cx="989.22" cy="848.59" r="1.62" fill="#a0746d" opacity="0.07"/><rect x="1560.85" y="451.51" width="10.73" height="1.5" rx="1" fill="#a0746d" opacity="0.06" transform="rotate(144.03 1560.85 451.51)"/><rect x="569.02" y="1055.82" width="6.34" height="1.23" rx="1" fill="#a0746d" opacity="0.06" transform="rotate(17.91 569.02 1055.82)"/><circle cx="1020.85" cy="1024.73" r="1.23" fill="#2c302a" opacity="0.06"/><rect x="145.93" y="856" width="10.85" height="1.43" rx="1" fill="#2c302a" opacity="0.08" transform="rotate(144.32 145.93 856)"/><rect x="730.75" y="384.65" width="13.81" height="2.12" rx="1" fill="#2c302a" opacity="0.03" transform="rotate(112.74 730.75 384.65)"/><rect x="170.9" y="473.98" width="23.44" height="2.23" rx="1" fill="#2c302a" opacity="0.07" transform="rotate(55.04 170.9 473.98)"/><circle cx="449.75" cy="783.68" r="2.12" fill="#a0746d" opacity="0.05"/><rect x="658.2" y="18.37" width="14.03" height="1.98" rx="1" fill="#2c302a" opacity="0.03" transform="rotate(87.09 658.2 18.37)"/><rect x="723.63" y="749.03" width="22.01" height="1.32" rx="1" fill="#2c302a" opacity="0.06" transform="rotate(82.66 723.63 749.03)"/><rect x="881.8" y="775.52" width="18.44" height="1.68" rx="1" fill="#2c302a" opacity="0.06" transform="rotate(130.23 881.8 775.52)"/><rect x="695.7" y="648.47" width="26.15" height="1.58" rx="1" fill="#a0746d" opacity="0.07" transform="rotate(53.39 695.7 648.47)"/><rect x="1065.95" y="76.35" width="21.16" height="1.21" rx="1" fill="#2c302a" opacity="0.05" transform="rotate(12.4 1065.95 76.35)"/><circle cx="1007.44" cy="630.38" r="1.43" fill="#2c302a" opacity="0.06"/><rect x="373.92" y="54.62" width="19.77" height="1.67" rx="1" fill="#a0746d" opacity="0.04" transform="rotate(121.23 373.92 54.62)"/><circle cx="1169.43" cy="162.9" r="1.89" fill="#2c302a" opacity="0.06"/><rect x="956.58" y="110.49" width="6.3" height="2.21" rx="1" fill="#a0746d" opacity="0.08" transform="rotate(23.19 956.58 110.49)"/><circle cx="1444.41" cy="583.1" r="1.35" fill="#2c302a" opacity="0.07"/><circle cx="594.13" cy="126.64" r="1.12" fill="#2c302a" opacity="0.05"/><rect x="818.38" y="814.19" width="8.57" height="2.52" rx="1" fill="#a0746d" opacity="0.03" transform="rotate(61.66 818.38 814.19)"/><rect x="1429.02" y="913.67" width="12.21" height="2.36" rx="1" fill="#2c302a" opacity="0.05" transform="rotate(130.01 1429.02 913.67)"/><circle cx="203.97" cy="1024.91" r="1.92" fill="#a0746d" opacity="0.05"/><rect x="1241.43" y="889.16" width="25.36" height="2.09" rx="1" fill="#a0746d" opacity="0.03" transform="rotate(18.53 1241.43 889.16)"/><rect x="623.43" y="188.53" width="26.04" height="1.49" rx="1" fill="#a0746d" opacity="0.06" transform="rotate(118.46 623.43 188.53)"/><rect x="28.61" y="939.04" width="8.86" height="1.6" rx="1" fill="#2c302a" opacity="0.04" transform="rotate(107.95 28.61 939.04)"/><circle cx="1142.47" cy="84.22" r="1.38" fill="#a0746d" opacity="0.05"/><circle cx="941.13" cy="388.74" r="1.27" fill="#2c302a" opacity="0.04"/><rect x="304.76" y="815.67" width="23.44" height="1.94" rx="1" fill="#2c302a" opacity="0.06" transform="rotate(61.49 304.76 815.67)"/><rect x="1395.15" y="565.08" width="17.68" height="2.38" rx="1" fill="#2c302a" opacity="0.07" transform="rotate(54.06 1395.15 565.08)"/><circle cx="905.58" cy="153.7" r="1.32" fill="#a0746d" opacity="0.07"/><circle cx="779.64" cy="500.2" r="1.55" fill="#2c302a" opacity="0.04"/><rect x="805.72" y="557.48" width="26.79" height="1.11" rx="1" fill="#a0746d" opacity="0.05" transform="rotate(125.84 805.72 557.48)"/><rect x="1298.57" y="1020.33" width="11.55" height="2.47" rx="1" fill="#2c302a" opacity="0.05" transform="rotate(166.51 1298.57 1020.33)"/><rect x="1081.15" y="934.94" width="11.48" height="2.37" rx="1" fill="#2c302a" opacity="0.05" transform="rotate(75.69 1081.15 934.94)"/><circle cx="1524.39" cy="883.91" r="1.51" fill="#a0746d" opacity="0.06"/><circle cx="1150.08" cy="643.63" r="1.85" fill="#a0746d" opacity="0.05"/><rect x="434.27" y="932.82" width="22.13" height="1.95" rx="1" fill="#2c302a" opacity="0.07" transform="rotate(117.02 434.27 932.82)"/><rect x="1449.59" y="94.69" width="6.09" height="2.33" rx="1" fill="#2c302a" opacity="0.07" transform="rotate(131.28 1449.59 94.69)"/><rect x="747.94" y="837.16" width="12.44" height="1.26" rx="1" fill="#a0746d" opacity="0.05" transform="rotate(7.36 747.94 837.16)"/><circle cx="975.9" cy="808.19" r="1.65" fill="#2c302a" opacity="0.05"/><rect x="1422.85" y="29.66" width="15.89" height="2.52" rx="1" fill="#a0746d" opacity="0.03" transform="rotate(9.09 1422.85 29.66)"/><rect x="413.28" y="125.59" width="14.26" height="1.28" rx="1" fill="#2c302a" opacity="0.06" transform="rotate(127.03 413.28 125.59)"/><circle cx="471.21" cy="112.8" r="1.15" fill="#2c302a" opacity="0.03"/><circle cx="227.92" cy="953.66" r="1.01" fill="#a0746d" opacity="0.07"/><circle cx="1546.36" cy="587.57" r="1.71" fill="#a0746d" opacity="0.05"/><rect x="1017.83" y="107.52" width="6.96" height="0.85" rx="1" fill="#a0746d" opacity="0.04" transform="rotate(42.79 1017.83 107.52)"/><rect x="971.12" y="181.58" width="19.73" height="0.82" rx="1" fill="#a0746d" opacity="0.03" transform="rotate(129.26 971.12 181.58)"/><circle cx="10.06" cy="601.68" r="0.75" fill="#a0746d" opacity="0.08"/><circle cx="990.43" cy="923.05" r="1.81" fill="#2c302a" opacity="0.07"/><circle cx="456.12" cy="354.6" r="1.85" fill="#a0746d" opacity="0.04"/><circle cx="1556.21" cy="412.83" r="1.33" fill="#a0746d" opacity="0.07"/><rect x="576.98" y="1070.99" width="10.17" height="2.15" rx="1" fill="#a0746d" opacity="0.05" transform="rotate(52.72 576.98 1070.99)"/><rect x="1094.46" y="57.51" width="15.87" height="1.18" rx="1" fill="#2c302a" opacity="0.08" transform="rotate(29.31 1094.46 57.51)"/><rect x="689.88" y="373.51" width="22.88" height="1.14" rx="1" fill="#2c302a" opacity="0.03" transform="rotate(136.55 689.88 373.51)"/><rect x="32.44" y="1001.45" width="14.48" height="2.51" rx="1" fill="#a0746d" opacity="0.04" transform="rotate(67.41 32.44 1001.45)"/><circle cx="1333.18" cy="510.63" r="2" fill="#a0746d" opacity="0.07"/><circle cx="908.83" cy="539.29" r="1.2" fill="#a0746d" opacity="0.06"/><rect x="152.77" y="497.02" width="26.03" height="1.53" rx="1" fill="#a0746d" opacity="0.06" transform="rotate(87.41 152.77 497.02)"/><circle cx="1227.48" cy="581.88" r="2.15" fill="#a0746d" opacity="0.05"/><rect x="728.62" y="831.46" width="19.8" height="1.17" rx="1" fill="#2c302a" opacity="0.08" transform="rotate(177.12 728.62 831.46)"/><circle cx="1580.26" cy="3.39" r="1.88" fill="#a0746d" opacity="0.05"/><rect x="27.94" y="1098.2" width="7.55" height="2.36" rx="1" fill="#a0746d" opacity="0.06" transform="rotate(48.21 27.94 1098.2)"/><rect x="1454.92" y="34.71" width="27.11" height="2.4" rx="1" fill="#a0746d" opacity="0.08" transform="rotate(168.51 1454.92 34.71)"/><circle cx="235.7" cy="277.67" r="1.46" fill="#2c302a" opacity="0.03"/><circle cx="64.72" cy="285.07" r="1.51" fill="#2c302a" opacity="0.08"/><rect x="897.98" y="199.49" width="12.31" height="1.12" rx="1" fill="#a0746d" opacity="0.07" transform="rotate(134.5 897.98 199.49)"/><rect x="1050.38" y="268.13" width="18.54" height="1.88" rx="1" fill="#a0746d" opacity="0.05" transform="rotate(30.58 1050.38 268.13)"/><rect x="838" y="1067.64" width="18.24" height="1.45" rx="1" fill="#2c302a" opacity="0.08" transform="rotate(20.91 838 1067.64)"/><circle cx="646.62" cy="859.15" r="1.98" fill="#2c302a" opacity="0.03"/><rect x="209.79" y="436.46" width="13.79" height="1.43" rx="1" fill="#a0746d" opacity="0.08" transform="rotate(52.88 209.79 436.46)"/><rect x="1205.6" y="231.84" width="9.23" height="1.09" rx="1" fill="#a0746d" opacity="0.04" transform="rotate(45.62 1205.6 231.84)"/><rect x="1402.64" y="158.13" width="13.26" height="1.89" rx="1" fill="#2c302a" opacity="0.05" transform="rotate(0.08 1402.64 158.13)"/><rect x="574.8" y="5.78" width="6.29" height="1.96" rx="1" fill="#2c302a" opacity="0.05" transform="rotate(153.28 574.8 5.78)"/>
  <circle cx="1350" cy="178" r="184" fill="#a0746d" opacity="0.06"/>
  <circle cx="220" cy="894" r="220" fill="#6b7466" opacity="0.08"/>
  <g transform="rotate(-3 685 520)">
    <ellipse cx="703" cy="774" rx="461.1" ry="50" fill="#1f211d" opacity="0.12"/>
    <rect x="250" y="270" width="870" height="500" rx="6" fill="#fbf7ef"/>
    <rect x="684" y="294" width="2" height="452" fill="#2c302a" opacity="0.12"/>
    <rect x="282" y="310" width="365" height="420" rx="4" fill="#c7bbaa"/>
    <path d="M 300 580 C 360.3 490, 447.3 635, 612.6 440" fill="none" stroke="#fbf7ef" stroke-width="5" opacity="0.72"/>
    <text x="729" y="358" class="brand" fill="#2c302a" font-size="47.85">STUDIO PROFILE</text>
    <rect x="729" y="408" width="131.1" height="3" rx="2" fill="#2c302a" opacity="0.42"/><rect x="729" y="430" width="196.65" height="2" rx="2" fill="#2c302a" opacity="0.22"/><rect x="729" y="452" width="262.2" height="2" rx="2" fill="#2c302a" opacity="0.22"/><rect x="729" y="474" width="148.35" height="2" rx="2" fill="#2c302a" opacity="0.22"/><rect x="729" y="496" width="213.9" height="2" rx="2" fill="#2c302a" opacity="0.22"/><rect x="729" y="518" width="279.45" height="2" rx="2" fill="#2c302a" opacity="0.22"/><rect x="729" y="540" width="165.6" height="2" rx="2" fill="#2c302a" opacity="0.22"/><rect x="729" y="562" width="231.15" height="2" rx="2" fill="#2c302a" opacity="0.22"/><rect x="729" y="584" width="296.7" height="2" rx="2" fill="#2c302a" opacity="0.22"/>
  </g><g transform="rotate(7 1210 355)">
    <ellipse cx="1228" cy="475.6" rx="137.8" ry="21" fill="#1f211d" opacity="0.13"/>
    <rect x="1080" y="250" width="260" height="210" rx="10" fill="#383d36"/>
    <rect x="1104" y="274" width="212" height="162" rx="6" fill="none" stroke="#fbf7ef" stroke-opacity="0.16"/>
    <text x="1106" y="359.2" class="brand" fill="#fbf7ef" font-size="26">M</text>
    <rect x="1106" y="380.2" width="192.4" height="4" rx="2" fill="#a0746d"/>
  </g>
  <g opacity="0.72"><text x="78" y="1004" class="micro" fill="#2c302a">ARCHITECTURAL BRANDING</text><text x="78" y="1036" class="micro" fill="#2c302a" opacity="0.55">TEMPORARY DEMONSTRATION PORTFOLIO VISUAL / GALLERY-3</text></g>
</svg>
