<?xml version="1.0" encoding="UTF-8"?>
<svg xmlns="http://www.w3.org/2000/svg" width="1600" height="1100" viewBox="0 0 1600 1100" role="img" aria-labelledby="title desc">
  <title id="title">MONOLITH gallery-1 demo portfolio mockup</title>
  <desc id="desc">Temporary fictional demonstration project imagery for portfolio presentation only, not client work.</desc>
  <defs>
    <linearGradient id="bg_monolith_gallery_1" x1="0" y1="0" x2="1" y2="1">
      <stop offset="0%" stop-color="#fbf7ef"/>
      <stop offset="58%" stop-color="#efeae2"/>
      <stop offset="100%" stop-color="#c7bbaa"/>
    </linearGradient>
    <radialGradient id="light_monolith_gallery_1" cx="74%" cy="18%" r="64%">
      <stop offset="0%" stop-color="#ffffff" stop-opacity="0.62"/>
      <stop offset="100%" stop-color="#ffffff" stop-opacity="0"/>
    </radialGradient>
  </defs>
  <style><![CDATA[
    .brand { font-family: Helvetica, Georgia, serif; font-weight: 500; letter-spacing: .02em; }
    .body { font-family: Arial, Arial, sans-serif; font-weight: 500; }
    .micro { font-family: Arial, Arial, sans-serif; font-size: 20px; font-weight: 700; letter-spacing: .12em; }
  ]]></style>
  <rect width="1600" height="1100" fill="url(#bg_monolith_gallery_1)"/>
  <rect width="1600" height="1100" fill="url(#light_monolith_gallery_1)"/>
  <rect x="952.6" y="31.89" width="16.55" height="1.56" rx="1" fill="#a0746d" opacity="0.07" transform="rotate(110.87 952.6 31.89)"/><rect x="620" y="979.42" width="12.87" height="2.07" rx="1" fill="#a0746d" opacity="0.07" transform="rotate(56.42 620 979.42)"/><circle cx="702.3" cy="595.23" r="0.94" fill="#2c302a" opacity="0.08"/><circle cx="1364.85" cy="357.38" r="0.76" fill="#2c302a" opacity="0.08"/><circle cx="93.96" cy="38.59" r="1.29" fill="#2c302a" opacity="0.03"/><rect x="437.31" y="554.21" width="26.22" height="2.39" rx="1" fill="#2c302a" opacity="0.07" transform="rotate(116.77 437.31 554.21)"/><rect x="1085.78" y="490.69" width="27.27" height="2.13" rx="1" fill="#a0746d" opacity="0.04" transform="rotate(21.93 1085.78 490.69)"/><circle cx="611.55" cy="824.39" r="1.16" fill="#2c302a" opacity="0.05"/><circle cx="247.83" cy="168.37" r="1.04" fill="#a0746d" opacity="0.04"/><rect x="904.39" y="949.87" width="13.51" height="1.38" rx="1" fill="#a0746d" opacity="0.06" transform="rotate(13.44 904.39 949.87)"/><rect x="1221.83" y="319.2" width="7.46" height="1.71" rx="1" fill="#2c302a" opacity="0.05" transform="rotate(81.21 1221.83 319.2)"/><rect x="765.79" y="90.98" width="19.18" height="2.26" rx="1" fill="#a0746d" opacity="0.04" transform="rotate(58.73 765.79 90.98)"/><circle cx="584.6" cy="764.25" r="1.47" fill="#2c302a" opacity="0.04"/><rect x="418.53" y="940.59" width="24.82" height="1.6" rx="1" fill="#a0746d" opacity="0.06" transform="rotate(32.02 418.53 940.59)"/><circle cx="296.58" cy="1082.64" r="2.19" fill="#2c302a" opacity="0.03"/><rect x="1433.89" y="866.02" width="26.92" height="1.5" rx="1" fill="#2c302a" opacity="0.04" transform="rotate(103.16 1433.89 866.02)"/><circle cx="271.26" cy="449.88" r="2.13" fill="#2c302a" opacity="0.05"/><rect x="1210.91" y="912.02" width="24.9" height="1.54" rx="1" fill="#2c302a" opacity="0.03" transform="rotate(163.25 1210.91 912.02)"/><circle cx="1469.06" cy="119.07" r="1" fill="#2c302a" opacity="0.07"/><rect x="145.43" y="332.57" width="13.88" height="2.15" rx="1" fill="#2c302a" opacity="0.05" transform="rotate(144.43 145.43 332.57)"/><circle cx="656.45" cy="370.48" r="1.89" fill="#a0746d" opacity="0.05"/><circle cx="1153.3" cy="1017.2" r="1.84" fill="#2c302a" opacity="0.08"/><rect x="1169.4" y="344.51" width="14.22" height="1.91" rx="1" fill="#2c302a" opacity="0.04" transform="rotate(163.76 1169.4 344.51)"/><circle cx="810.61" cy="11.92" r="1.69" fill="#a0746d" opacity="0.06"/><rect x="439.44" y="717.62" width="18.99" height="2.11" rx="1" fill="#2c302a" opacity="0.07" transform="rotate(71.33 439.44 717.62)"/><circle cx="1221.31" cy="534.52" r="1.8" fill="#2c302a" opacity="0.07"/><rect x="490.15" y="772.81" width="13.46" height="1.12" rx="1" fill="#2c302a" opacity="0.06" transform="rotate(24.7 490.15 772.81)"/><rect x="1042.69" y="248.92" width="14.04" height="2.06" rx="1" fill="#2c302a" opacity="0.03" transform="rotate(139.34 1042.69 248.92)"/><rect x="1193.5" y="1080.96" width="11.26" height="1.58" rx="1" fill="#a0746d" opacity="0.05" transform="rotate(26.06 1193.5 1080.96)"/><rect x="983.81" y="1051.86" width="17.49" height="2.46" rx="1" fill="#a0746d" opacity="0.03" transform="rotate(80.73 983.81 1051.86)"/><rect x="432.59" y="803.18" width="6.82" height="1.6" rx="1" fill="#a0746d" opacity="0.06" transform="rotate(3.33 432.59 803.18)"/><circle cx="1094.39" cy="1021.49" r="1.56" fill="#2c302a" opacity="0.03"/><rect x="277.26" y="833.17" width="8.54" height="1.8" rx="1" fill="#a0746d" opacity="0.08" transform="rotate(86.81 277.26 833.17)"/><rect x="586.18" y="128.77" width="26.22" height="2.56" rx="1" fill="#a0746d" opacity="0.04" transform="rotate(109.74 586.18 128.77)"/><rect x="192.11" y="1009.43" width="17.52" height="2" rx="1" fill="#a0746d" opacity="0.05" transform="rotate(174.69 192.11 1009.43)"/><rect x="1303.78" y="545.56" width="26.33" height="0.85" rx="1" fill="#2c302a" opacity="0.07" transform="rotate(135.79 1303.78 545.56)"/><rect x="233.93" y="907.03" width="17.75" height="2.32" rx="1" fill="#2c302a" opacity="0.06" transform="rotate(115.19 233.93 907.03)"/><circle cx="402.42" cy="677.86" r="2.08" fill="#2c302a" opacity="0.06"/><circle cx="891.39" cy="95.67" r="1.66" fill="#2c302a" opacity="0.03"/><rect x="366.35" y="830.45" width="26.63" height="1.6" rx="1" fill="#a0746d" opacity="0.04" transform="rotate(80.02 366.35 830.45)"/><rect x="700.13" y="1090.54" width="12.09" height="2.51" rx="1" fill="#2c302a" opacity="0.03" transform="rotate(135.6 700.13 1090.54)"/><rect x="810.74" y="519.16" width="22.17" height="2.58" rx="1" fill="#2c302a" opacity="0.04" transform="rotate(140.7 810.74 519.16)"/><rect x="1220.25" y="758.34" width="13.75" height="2.14" rx="1" fill="#2c302a" opacity="0.05" transform="rotate(176.22 1220.25 758.34)"/><rect x="277.1" y="312.67" width="19.72" height="1.37" rx="1" fill="#a0746d" opacity="0.06" transform="rotate(118.7 277.1 312.67)"/><circle cx="244.35" cy="704.25" r="2.29" fill="#a0746d" opacity="0.07"/><rect x="1205.78" y="327.45" width="22.61" height="2.03" rx="1" fill="#a0746d" opacity="0.07" transform="rotate(156.61 1205.78 327.45)"/><rect x="355.44" y="408.65" width="6.49" height="1.26" rx="1" fill="#2c302a" opacity="0.07" transform="rotate(51.45 355.44 408.65)"/><rect x="1172.34" y="1076.91" width="23.01" height="1.78" rx="1" fill="#2c302a" opacity="0.04" transform="rotate(73.29 1172.34 1076.91)"/><circle cx="493.89" cy="167.82" r="1.94" fill="#a0746d" opacity="0.04"/><circle cx="1162.61" cy="111.27" r="1.76" fill="#a0746d" opacity="0.06"/><circle cx="358.47" cy="617.44" r="1.16" fill="#2c302a" opacity="0.07"/><rect x="729.11" y="402.09" width="12.38" height="2.5" rx="1" fill="#a0746d" opacity="0.03" transform="rotate(143.6 729.11 402.09)"/><rect x="552.32" y="545.96" width="18.84" height="2.46" rx="1" fill="#2c302a" opacity="0.04" transform="rotate(173.9 552.32 545.96)"/><rect x="1107.18" y="1055.4" width="25.58" height="0.84" rx="1" fill="#a0746d" opacity="0.04" transform="rotate(133.87 1107.18 1055.4)"/><circle cx="130.13" cy="268.93" r="2.08" fill="#a0746d" opacity="0.03"/><rect x="569.8" y="390.83" width="23.49" height="1.69" rx="1" fill="#a0746d" opacity="0.08" transform="rotate(38.14 569.8 390.83)"/><circle cx="169.02" cy="701.42" r="0.77" fill="#a0746d" opacity="0.05"/><rect x="1075" y="183.9" width="6.22" height="1.46" rx="1" fill="#a0746d" opacity="0.07" transform="rotate(25.98 1075 183.9)"/><circle cx="1358.93" cy="388.02" r="1.51" fill="#a0746d" opacity="0.05"/><circle cx="412.21" cy="613.61" r="1.98" fill="#2c302a" opacity="0.03"/><rect x="1475.05" y="494.07" width="9.67" height="1.95" rx="1" fill="#a0746d" opacity="0.07" transform="rotate(171.35 1475.05 494.07)"/><circle cx="75.55" cy="213.21" r="0.72" fill="#2c302a" opacity="0.04"/><circle cx="445.71" cy="170.47" r="1.21" fill="#2c302a" opacity="0.03"/><rect x="556.86" y="717.4" width="7.44" height="1.04" rx="1" fill="#a0746d" opacity="0.05" transform="rotate(156.15 556.86 717.4)"/><circle cx="180.15" cy="907.09" r="2.03" fill="#2c302a" opacity="0.08"/><rect x="149.31" y="572.68" width="21.39" height="2.54" rx="1" fill="#a0746d" opacity="0.08" transform="rotate(77.32 149.31 572.68)"/><rect x="352.63" y="435.01" width="24.88" height="1.94" rx="1" fill="#a0746d" opacity="0.03" transform="rotate(110.81 352.63 435.01)"/><circle cx="1175.01" cy="175.08" r="2.05" fill="#a0746d" opacity="0.07"/><circle cx="1275.56" cy="145.42" r="1.33" fill="#2c302a" opacity="0.06"/><rect x="413.76" y="23.78" width="14.87" height="2.39" rx="1" fill="#a0746d" opacity="0.04" transform="rotate(1 413.76 23.78)"/><circle cx="685.37" cy="399.21" r="0.85" fill="#a0746d" opacity="0.05"/><rect x="570.42" y="531.1" width="17.85" height="1.16" rx="1" fill="#a0746d" opacity="0.03" transform="rotate(37.48 570.42 531.1)"/><rect x="502.73" y="1047.55" width="11.86" height="0.98" rx="1" fill="#2c302a" opacity="0.07" transform="rotate(118.44 502.73 1047.55)"/><circle cx="1548.54" cy="752.92" r="1.46" fill="#2c302a" opacity="0.03"/><circle cx="508.65" cy="670.39" r="0.91" fill="#a0746d" opacity="0.08"/><rect x="1529.28" y="1056.24" width="13.45" height="0.95" rx="1" fill="#2c302a" opacity="0.06" transform="rotate(0.38 1529.28 1056.24)"/><rect x="861.76" y="710.83" width="24.88" height="1.79" rx="1" fill="#a0746d" opacity="0.06" transform="rotate(113.47 861.76 710.83)"/><rect x="648.46" y="1047.62" width="10.02" height="2.16" rx="1" fill="#a0746d" opacity="0.07" transform="rotate(4.94 648.46 1047.62)"/><circle cx="1535.53" cy="411.96" r="1.94" fill="#2c302a" opacity="0.05"/><rect x="597.08" y="700.03" width="27.53" height="1.94" rx="1" fill="#2c302a" opacity="0.03" transform="rotate(176.06 597.08 700.03)"/><rect x="1419.44" y="185.26" width="24.39" height="0.89" rx="1" fill="#a0746d" opacity="0.04" transform="rotate(152.26 1419.44 185.26)"/><circle cx="151.07" cy="101.81" r="1.81" fill="#a0746d" opacity="0.04"/><circle cx="1083.27" cy="9.62" r="1.85" fill="#2c302a" opacity="0.07"/><circle cx="648.76" cy="431.2" r="1.2" fill="#a0746d" opacity="0.03"/><rect x="826.64" y="218.59" width="17.97" height="1.36" rx="1" fill="#2c302a" opacity="0.03" transform="rotate(6.87 826.64 218.59)"/><rect x="177.36" y="1063.14" width="22.42" height="2.18" rx="1" fill="#a0746d" opacity="0.08" transform="rotate(169.97 177.36 1063.14)"/><circle cx="210.99" cy="801.9" r="1.09" fill="#2c302a" opacity="0.06"/><rect x="1585.05" y="891.52" width="15.21" height="0.88" rx="1" fill="#2c302a" opacity="0.05" transform="rotate(167.67 1585.05 891.52)"/><circle cx="560.65" cy="65.71" r="2.01" fill="#a0746d" opacity="0.03"/><rect x="985.29" y="455.22" width="20.44" height="2.52" rx="1" fill="#2c302a" opacity="0.03" transform="rotate(175.9 985.29 455.22)"/><circle cx="1297.6" cy="299.39" r="2.27" fill="#a0746d" opacity="0.04"/><rect x="851.86" y="290.93" width="13.74" height="2.13" rx="1" fill="#2c302a" opacity="0.03" transform="rotate(105.32 851.86 290.93)"/><circle cx="857.86" cy="878.93" r="0.73" fill="#2c302a" opacity="0.06"/><rect x="413.08" y="909.13" width="11.1" height="2.35" rx="1" fill="#2c302a" opacity="0.06" transform="rotate(78.18 413.08 909.13)"/><rect x="666.47" y="289.1" width="9.08" height="1.47" rx="1" fill="#2c302a" opacity="0.07" transform="rotate(149.02 666.47 289.1)"/><rect x="1564.2" y="493.09" width="8.8" height="1.03" rx="1" fill="#2c302a" opacity="0.08" transform="rotate(159.4 1564.2 493.09)"/><rect x="1304.93" y="542.98" width="25.65" height="1.25" rx="1" fill="#2c302a" opacity="0.07" transform="rotate(37.24 1304.93 542.98)"/><rect x="913.75" y="967.05" width="12.58" height="1.86" rx="1" fill="#2c302a" opacity="0.06" transform="rotate(33.44 913.75 967.05)"/><circle cx="1317.04" cy="1044.62" r="2.22" fill="#a0746d" opacity="0.07"/><rect x="154.99" y="371.94" width="10.12" height="1.06" rx="1" fill="#2c302a" opacity="0.07" transform="rotate(51.93 154.99 371.94)"/><rect x="1443.7" y="685.54" width="7.29" height="1.19" rx="1" fill="#2c302a" opacity="0.08" transform="rotate(94.62 1443.7 685.54)"/><rect x="584.88" y="126.61" width="19.18" height="1.97" rx="1" fill="#2c302a" opacity="0.03" transform="rotate(82.58 584.88 126.61)"/><circle cx="1571.49" cy="152.91" r="1.78" fill="#2c302a" opacity="0.06"/><rect x="178.11" y="126.14" width="23.95" height="2.6" rx="1" fill="#a0746d" opacity="0.08" transform="rotate(127.49 178.11 126.14)"/><circle cx="1262.6" cy="734.2" r="2.26" fill="#a0746d" opacity="0.06"/><circle cx="468.85" cy="352.28" r="1.06" fill="#2c302a" opacity="0.03"/><circle cx="969.48" cy="975.07" r="2.17" fill="#a0746d" opacity="0.03"/><rect x="92.25" y="312.35" width="25.89" height="1.55" rx="1" fill="#2c302a" opacity="0.05" transform="rotate(31.01 92.25 312.35)"/><circle cx="634.25" cy="338.29" r="1.63" fill="#a0746d" opacity="0.07"/><rect x="6.04" y="236.4" width="8.12" height="1.76" rx="1" fill="#a0746d" opacity="0.05" transform="rotate(138.14 6.04 236.4)"/><rect x="771.71" y="916.93" width="12.26" height="1.91" rx="1" fill="#2c302a" opacity="0.03" transform="rotate(152.43 771.71 916.93)"/><rect x="724.08" y="717.97" width="6.98" height="0.88" rx="1" fill="#a0746d" opacity="0.05" transform="rotate(171.74 724.08 717.97)"/><rect x="1014.19" y="95.96" width="26.28" height="1.35" rx="1" fill="#2c302a" opacity="0.05" transform="rotate(43.26 1014.19 95.96)"/><rect x="676.38" y="92.5" width="13.3" height="2.32" rx="1" fill="#a0746d" opacity="0.03" transform="rotate(132.05 676.38 92.5)"/><rect x="999.59" y="727.28" width="12.81" height="1.11" rx="1" fill="#a0746d" opacity="0.08" transform="rotate(142.88 999.59 727.28)"/><rect x="213.35" y="609.09" width="27.48" height="1.9" rx="1" fill="#2c302a" opacity="0.08" transform="rotate(137.81 213.35 609.09)"/><circle cx="1524.56" cy="941.36" r="1.69" fill="#a0746d" opacity="0.03"/><circle cx="557.77" cy="668.11" r="1.72" fill="#2c302a" opacity="0.08"/><rect x="1285.65" y="800.22" width="9.7" height="1.81" rx="1" fill="#a0746d" opacity="0.04" transform="rotate(87.2 1285.65 800.22)"/><circle cx="478.35" cy="393.42" r="2" fill="#a0746d" opacity="0.04"/><rect x="577.77" y="42.25" width="26.53" height="2.33" rx="1" fill="#2c302a" opacity="0.08" transform="rotate(165.49 577.77 42.25)"/><rect x="280.75" y="262.43" width="23.64" height="1.35" rx="1" fill="#2c302a" opacity="0.05" transform="rotate(85.92 280.75 262.43)"/><rect x="416.83" y="808.17" width="17.51" height="1.9" rx="1" fill="#a0746d" opacity="0.06" transform="rotate(61.11 416.83 808.17)"/><rect x="1069.95" y="1021.49" width="19.8" height="2.47" rx="1" fill="#a0746d" opacity="0.07" transform="rotate(115.55 1069.95 1021.49)"/><rect x="84.7" y="715.46" width="9.71" height="0.97" rx="1" fill="#a0746d" opacity="0.05" transform="rotate(92.72 84.7 715.46)"/><circle cx="350.05" cy="437.29" r="1.09" fill="#a0746d" opacity="0.05"/><rect x="476.2" y="884.69" width="15.45" height="0.99" rx="1" fill="#a0746d" opacity="0.07" transform="rotate(89 476.2 884.69)"/><circle cx="1097.18" cy="463.05" r="1.03" fill="#a0746d" opacity="0.03"/><circle cx="273.64" cy="617.68" r="0.71" fill="#a0746d" opacity="0.05"/><rect x="1215.63" y="201.21" width="19.2" height="2.47" rx="1" fill="#2c302a" opacity="0.03" transform="rotate(58.32 1215.63 201.21)"/><circle cx="1257.96" cy="718.35" r="2.17" fill="#2c302a" opacity="0.07"/><circle cx="320.41" cy="372.86" r="1.94" fill="#2c302a" opacity="0.04"/><circle cx="130.04" cy="679.89" r="2.02" fill="#a0746d" opacity="0.08"/><rect x="268.04" y="276.51" width="27.19" height="1.17" rx="1" fill="#a0746d" opacity="0.07" transform="rotate(80.84 268.04 276.51)"/><rect x="1003.25" y="486.03" width="12.57" height="1.33" rx="1" fill="#2c302a" opacity="0.07" transform="rotate(137.14 1003.25 486.03)"/><rect x="958.39" y="515.45" width="26.51" height="1.81" rx="1" fill="#a0746d" opacity="0.08" transform="rotate(176.35 958.39 515.45)"/><rect x="117.38" y="149.61" width="14.74" height="1.46" rx="1" fill="#2c302a" opacity="0.06" transform="rotate(168.02 117.38 149.61)"/><circle cx="694.41" cy="308.4" r="2.1" fill="#a0746d" opacity="0.07"/><circle cx="1578.13" cy="539.16" r="2.29" fill="#a0746d" opacity="0.03"/><rect x="900.86" y="721.85" width="14.28" height="2.28" rx="1" fill="#a0746d" opacity="0.04" transform="rotate(57.35 900.86 721.85)"/>
  <circle cx="1350" cy="178" r="184" fill="#a0746d" opacity="0.06"/>
  <circle cx="220" cy="894" r="220" fill="#6b7466" opacity="0.08"/>
  <g transform="rotate(-3 560 445)">
    <ellipse cx="578" cy="593.2" rx="275.6" ry="27" fill="#1f211d" opacity="0.13"/>
    <rect x="300" y="310" width="520" height="270" rx="10" fill="#383d36"/>
    <rect x="324" y="334" width="472" height="222" rx="6" fill="none" stroke="#fbf7ef" stroke-opacity="0.16"/>
    <text x="352" y="450.4" class="brand" fill="#fbf7ef" font-size="52">MONOLITH</text>
    <rect x="352" y="477.4" width="384.8" height="4" rx="2" fill="#a0746d"/>
  </g><g transform="rotate(4 1025 420)">
    <ellipse cx="1041" cy="561" rx="190.8" ry="25" fill="#1f211d" opacity="0.11"/>
    <rect x="845" y="295" width="360" height="250" rx="10" fill="#fbf7ef"/>
    <rect x="863" y="313" width="324" height="214" rx="5" fill="none" stroke="#2c302a" stroke-opacity="0.11"/>
    <rect x="879" y="337" width="79.2" height="4" rx="2" fill="#a0746d" opacity="0.84"/>
    <text x="879" y="380" class="brand" fill="#2c302a" font-size="43.2">LEVEL 02</text>
    <text x="881" y="414" class="micro" fill="#2c302a" opacity="0.65">WAYFINDING</text>
    <rect x="881" y="440" width="98.5" height="3" rx="2" fill="#2c302a" opacity="0.42"/><rect x="881" y="462" width="147.74" height="2" rx="2" fill="#2c302a" opacity="0.22"/><rect x="881" y="484" width="196.99" height="2" rx="2" fill="#2c302a" opacity="0.22"/><rect x="881" y="506" width="111.46" height="2" rx="2" fill="#2c302a" opacity="0.22"/>
    
  </g><g transform="rotate(-6 1115 720)">
    <ellipse cx="1135" cy="851.8" rx="190.8" ry="23" fill="#1f211d" opacity="0.13"/>
    <rect x="935" y="605" width="360" height="230" rx="8" fill="#383d36"/>
    <line x1="987" y1="657" x2="987" y2="781" stroke="#fbf7ef" stroke-opacity="0.12"/><line x1="1019" y1="657" x2="1019" y2="781" stroke="#fbf7ef" stroke-opacity="0.12"/><line x1="1051" y1="657" x2="1051" y2="781" stroke="#fbf7ef" stroke-opacity="0.12"/><line x1="1083" y1="657" x2="1083" y2="781" stroke="#fbf7ef" stroke-opacity="0.12"/><line x1="1115" y1="657" x2="1115" y2="781" stroke="#fbf7ef" stroke-opacity="0.12"/><line x1="1147" y1="657" x2="1147" y2="781" stroke="#fbf7ef" stroke-opacity="0.12"/><line x1="1179" y1="657" x2="1179" y2="781" stroke="#fbf7ef" stroke-opacity="0.12"/><line x1="1211" y1="657" x2="1211" y2="781" stroke="#fbf7ef" stroke-opacity="0.12"/><line x1="987" y1="657" x2="1241" y2="657" stroke="#fbf7ef" stroke-opacity="0.12"/><line x1="987" y1="678" x2="1241" y2="678" stroke="#fbf7ef" stroke-opacity="0.12"/><line x1="987" y1="699" x2="1241" y2="699" stroke="#fbf7ef" stroke-opacity="0.12"/><line x1="987" y1="720" x2="1241" y2="720" stroke="#fbf7ef" stroke-opacity="0.12"/><line x1="987" y1="741" x2="1241" y2="741" stroke="#fbf7ef" stroke-opacity="0.12"/><line x1="987" y1="762" x2="1241" y2="762" stroke="#fbf7ef" stroke-opacity="0.12"/>
    <path d="M 1007 770.6 V 687.8 H 1129.4 V 720 H 1215.8 V 770.6 Z" fill="none" stroke="#fbf7ef" stroke-width="5" opacity="0.78"/>
    <text x="989" y="789" class="micro" fill="#fbf7ef" opacity="0.72">GRID</text>
  </g>
  <g opacity="0.72"><text x="78" y="1004" class="micro" fill="#2c302a">ARCHITECTURAL BRANDING</text><text x="78" y="1036" class="micro" fill="#2c302a" opacity="0.55">TEMPORARY DEMONSTRATION PORTFOLIO VISUAL / GALLERY-1</text></g>
</svg>
