<?xml version="1.0" encoding="UTF-8"?>
<svg xmlns="http://www.w3.org/2000/svg" width="1600" height="1100" viewBox="0 0 1600 1100" role="img" aria-labelledby="title desc">
  <title id="title">MONOLITH gallery-2 demo portfolio mockup</title>
  <desc id="desc">Temporary fictional demonstration project imagery for portfolio presentation only, not client work.</desc>
  <defs>
    <linearGradient id="bg_monolith_gallery_2" x1="0" y1="0" x2="1" y2="1">
      <stop offset="0%" stop-color="#fbf7ef"/>
      <stop offset="58%" stop-color="#efeae2"/>
      <stop offset="100%" stop-color="#c7bbaa"/>
    </linearGradient>
    <radialGradient id="light_monolith_gallery_2" cx="74%" cy="18%" r="64%">
      <stop offset="0%" stop-color="#ffffff" stop-opacity="0.62"/>
      <stop offset="100%" stop-color="#ffffff" stop-opacity="0"/>
    </radialGradient>
  </defs>
  <style><![CDATA[
    .brand { font-family: Helvetica, Georgia, serif; font-weight: 500; letter-spacing: .02em; }
    .body { font-family: Arial, Arial, sans-serif; font-weight: 500; }
    .micro { font-family: Arial, Arial, sans-serif; font-size: 20px; font-weight: 700; letter-spacing: .12em; }
  ]]></style>
  <rect width="1600" height="1100" fill="url(#bg_monolith_gallery_2)"/>
  <rect width="1600" height="1100" fill="url(#light_monolith_gallery_2)"/>
  <circle cx="831.44" cy="30.17" r="1.63" fill="#2c302a" opacity="0.03"/><rect x="1141.86" y="107.16" width="27.48" height="1.44" rx="1" fill="#2c302a" opacity="0.04" transform="rotate(107.4 1141.86 107.16)"/><circle cx="883.55" cy="146.92" r="1.32" fill="#a0746d" opacity="0.06"/><rect x="636.12" y="331.63" width="16.31" height="1.61" rx="1" fill="#2c302a" opacity="0.03" transform="rotate(14.44 636.12 331.63)"/><rect x="746.71" y="1098.31" width="21.75" height="2.26" rx="1" fill="#a0746d" opacity="0.06" transform="rotate(35.03 746.71 1098.31)"/><rect x="641.1" y="378.27" width="11.21" height="2.3" rx="1" fill="#a0746d" opacity="0.05" transform="rotate(51.84 641.1 378.27)"/><rect x="1316.24" y="524.42" width="14.44" height="2.35" rx="1" fill="#a0746d" opacity="0.05" transform="rotate(7.23 1316.24 524.42)"/><circle cx="1032.69" cy="201.08" r="1.66" fill="#2c302a" opacity="0.04"/><rect x="945.39" y="626.86" width="12.18" height="1.26" rx="1" fill="#a0746d" opacity="0.03" transform="rotate(157.92 945.39 626.86)"/><circle cx="1035.84" cy="523.65" r="1.12" fill="#a0746d" opacity="0.03"/><circle cx="611.01" cy="19.48" r="2.07" fill="#2c302a" opacity="0.07"/><circle cx="459.69" cy="320.91" r="1.75" fill="#a0746d" opacity="0.06"/><circle cx="1021.38" cy="973.18" r="1.41" fill="#a0746d" opacity="0.05"/><rect x="1305.8" y="762.38" width="21.53" height="1.25" rx="1" fill="#2c302a" opacity="0.06" transform="rotate(130.39 1305.8 762.38)"/><circle cx="380.9" cy="1050.56" r="1.83" fill="#2c302a" opacity="0.05"/><circle cx="1432.52" cy="207.77" r="0.91" fill="#a0746d" opacity="0.03"/><rect x="934.18" y="534.56" width="12.53" height="0.83" rx="1" fill="#2c302a" opacity="0.06" transform="rotate(96.15 934.18 534.56)"/><circle cx="997.01" cy="283.61" r="1.86" fill="#2c302a" opacity="0.08"/><rect x="1095.95" y="252.01" width="9.12" height="1.2" rx="1" fill="#a0746d" opacity="0.07" transform="rotate(148.96 1095.95 252.01)"/><circle cx="289.75" cy="69.55" r="0.83" fill="#a0746d" opacity="0.08"/><rect x="277.49" y="858.77" width="16.96" height="1.02" rx="1" fill="#2c302a" opacity="0.03" transform="rotate(68.97 277.49 858.77)"/><rect x="200.73" y="598.01" width="17.55" height="1.92" rx="1" fill="#a0746d" opacity="0.06" transform="rotate(9.77 200.73 598.01)"/><rect x="1377.77" y="63.31" width="22.08" height="2.01" rx="1" fill="#2c302a" opacity="0.03" transform="rotate(128.96 1377.77 63.31)"/><circle cx="950.04" cy="102.5" r="1.44" fill="#a0746d" opacity="0.03"/><circle cx="1521.57" cy="479.91" r="1.99" fill="#2c302a" opacity="0.06"/><circle cx="668.33" cy="51.74" r="0.71" fill="#2c302a" opacity="0.04"/><circle cx="22.23" cy="537.51" r="2.29" fill="#2c302a" opacity="0.07"/><rect x="745.42" y="1081.38" width="16.4" height="2.32" rx="1" fill="#2c302a" opacity="0.06" transform="rotate(178.98 745.42 1081.38)"/><circle cx="259.31" cy="778.75" r="1.3" fill="#2c302a" opacity="0.05"/><rect x="1003.2" y="1093.97" width="17.23" height="0.98" rx="1" fill="#a0746d" opacity="0.05" transform="rotate(120.84 1003.2 1093.97)"/><circle cx="1200.61" cy="214.54" r="1.02" fill="#2c302a" opacity="0.05"/><rect x="287.74" y="277.81" width="9.5" height="1.18" rx="1" fill="#2c302a" opacity="0.03" transform="rotate(61.42 287.74 277.81)"/><circle cx="800.16" cy="901.33" r="0.71" fill="#2c302a" opacity="0.04"/><circle cx="900.41" cy="403.9" r="2.13" fill="#a0746d" opacity="0.03"/><circle cx="1036.37" cy="119.33" r="1.4" fill="#2c302a" opacity="0.03"/><rect x="956.18" y="75.26" width="21.62" height="1.75" rx="1" fill="#2c302a" opacity="0.03" transform="rotate(17.95 956.18 75.26)"/><rect x="806.3" y="255.81" width="12.27" height="1.21" rx="1" fill="#2c302a" opacity="0.04" transform="rotate(40.78 806.3 255.81)"/><circle cx="1595.32" cy="962.41" r="1.5" fill="#a0746d" opacity="0.03"/><circle cx="1.94" cy="626.12" r="1.64" fill="#2c302a" opacity="0.03"/><rect x="1083.18" y="315" width="12.41" height="2.4" rx="1" fill="#a0746d" opacity="0.04" transform="rotate(73.57 1083.18 315)"/><rect x="193.68" y="627.4" width="20.16" height="2.23" rx="1" fill="#a0746d" opacity="0.03" transform="rotate(22.42 193.68 627.4)"/><circle cx="1438.87" cy="221.94" r="1.38" fill="#2c302a" opacity="0.04"/><rect x="91.96" y="510.05" width="18.17" height="1.28" rx="1" fill="#2c302a" opacity="0.05" transform="rotate(37.04 91.96 510.05)"/><rect x="529.59" y="564.85" width="16.75" height="2.15" rx="1" fill="#a0746d" opacity="0.06" transform="rotate(137.42 529.59 564.85)"/><rect x="799.64" y="1015.85" width="9.46" height="1.38" rx="1" fill="#a0746d" opacity="0.04" transform="rotate(87.75 799.64 1015.85)"/><circle cx="589.13" cy="280.55" r="1.02" fill="#a0746d" opacity="0.04"/><circle cx="511.1" cy="598.74" r="1.97" fill="#a0746d" opacity="0.06"/><circle cx="21.19" cy="785.42" r="0.87" fill="#a0746d" opacity="0.04"/><rect x="736.67" y="389.17" width="10.7" height="1.51" rx="1" fill="#a0746d" opacity="0.06" transform="rotate(163.72 736.67 389.17)"/><rect x="996.21" y="514.45" width="19.78" height="1.94" rx="1" fill="#a0746d" opacity="0.07" transform="rotate(3.42 996.21 514.45)"/><circle cx="1054.67" cy="454.27" r="1.37" fill="#2c302a" opacity="0.07"/><circle cx="318.69" cy="801.49" r="0.84" fill="#2c302a" opacity="0.04"/><rect x="48.04" y="286.33" width="12.62" height="2.09" rx="1" fill="#a0746d" opacity="0.05" transform="rotate(9.79 48.04 286.33)"/><rect x="1370.9" y="1003.82" width="24.31" height="1.15" rx="1" fill="#a0746d" opacity="0.06" transform="rotate(98.35 1370.9 1003.82)"/><rect x="1458.78" y="1083.57" width="20.14" height="1.47" rx="1" fill="#a0746d" opacity="0.03" transform="rotate(175.43 1458.78 1083.57)"/><rect x="622.2" y="254.81" width="10.98" height="0.91" rx="1" fill="#a0746d" opacity="0.03" transform="rotate(123.11 622.2 254.81)"/><circle cx="732.4" cy="1004.5" r="1.41" fill="#a0746d" opacity="0.08"/><rect x="731.91" y="240.43" width="18.16" height="1.78" rx="1" fill="#2c302a" opacity="0.03" transform="rotate(47.89 731.91 240.43)"/><rect x="781.1" y="421.98" width="24.02" height="1.23" rx="1" fill="#a0746d" opacity="0.03" transform="rotate(114.22 781.1 421.98)"/><rect x="1323.61" y="89.63" width="12.68" height="2.31" rx="1" fill="#2c302a" opacity="0.08" transform="rotate(167.56 1323.61 89.63)"/><circle cx="214.94" cy="974.82" r="2.03" fill="#2c302a" opacity="0.05"/><rect x="857.56" y="1005.26" width="22.75" height="1.77" rx="1" fill="#2c302a" opacity="0.04" transform="rotate(138.89 857.56 1005.26)"/><rect x="899.35" y="588.26" width="11.78" height="1.45" rx="1" fill="#a0746d" opacity="0.04" transform="rotate(51.92 899.35 588.26)"/><rect x="925.12" y="457.96" width="25.43" height="1.67" rx="1" fill="#2c302a" opacity="0.05" transform="rotate(73.04 925.12 457.96)"/><circle cx="553.56" cy="399.37" r="1.64" fill="#2c302a" opacity="0.07"/><rect x="987.42" y="18.41" width="27.36" height="1.42" rx="1" fill="#a0746d" opacity="0.03" transform="rotate(178.83 987.42 18.41)"/><rect x="1555.46" y="38.18" width="7.38" height="2.21" rx="1" fill="#2c302a" opacity="0.03" transform="rotate(100.53 1555.46 38.18)"/><circle cx="789.97" cy="969.11" r="2.02" fill="#a0746d" opacity="0.03"/><circle cx="634.44" cy="954.45" r="1.33" fill="#a0746d" opacity="0.07"/><circle cx="1420.58" cy="170.28" r="2.08" fill="#a0746d" opacity="0.07"/><circle cx="703.51" cy="340.6" r="1.77" fill="#2c302a" opacity="0.03"/><circle cx="49.99" cy="1046.47" r="2.1" fill="#2c302a" opacity="0.05"/><circle cx="420.38" cy="1002.1" r="1.99" fill="#2c302a" opacity="0.06"/><rect x="628.08" y="313.56" width="6.31" height="1.9" rx="1" fill="#a0746d" opacity="0.05" transform="rotate(76.32 628.08 313.56)"/><circle cx="25.79" cy="534.82" r="1.24" fill="#2c302a" opacity="0.03"/><rect x="1182" y="78.33" width="25.07" height="2.1" rx="1" fill="#a0746d" opacity="0.03" transform="rotate(10.59 1182 78.33)"/><rect x="225.22" y="460.84" width="20.71" height="2.56" rx="1" fill="#a0746d" opacity="0.05" transform="rotate(33.65 225.22 460.84)"/><rect x="995.48" y="234.04" width="27.58" height="2.05" rx="1" fill="#2c302a" opacity="0.07" transform="rotate(117.78 995.48 234.04)"/><circle cx="1203.47" cy="409.93" r="1.73" fill="#a0746d" opacity="0.06"/><circle cx="1246.18" cy="998.01" r="1.87" fill="#a0746d" opacity="0.06"/><circle cx="247.57" cy="592.29" r="2.11" fill="#2c302a" opacity="0.07"/><rect x="1392.14" y="597.65" width="17.56" height="1.67" rx="1" fill="#2c302a" opacity="0.04" transform="rotate(138.76 1392.14 597.65)"/><circle cx="1486.2" cy="280.33" r="1.62" fill="#2c302a" opacity="0.07"/><circle cx="361.86" cy="281.98" r="0.99" fill="#a0746d" opacity="0.07"/><rect x="909.09" y="606.43" width="16.43" height="1.44" rx="1" fill="#a0746d" opacity="0.04" transform="rotate(110.01 909.09 606.43)"/><rect x="504.42" y="721.71" width="26.5" height="0.97" rx="1" fill="#2c302a" opacity="0.07" transform="rotate(89.34 504.42 721.71)"/><rect x="1206.28" y="576.3" width="13.55" height="2.19" rx="1" fill="#2c302a" opacity="0.03" transform="rotate(132 1206.28 576.3)"/><circle cx="1035.5" cy="656.35" r="1.11" fill="#a0746d" opacity="0.07"/><rect x="175.92" y="72.27" width="21.78" height="2.09" rx="1" fill="#2c302a" opacity="0.06" transform="rotate(139.71 175.92 72.27)"/><rect x="1086.93" y="741.47" width="18.72" height="1.88" rx="1" fill="#a0746d" opacity="0.03" transform="rotate(36.02 1086.93 741.47)"/><rect x="589.38" y="433.29" width="18.68" height="1.02" rx="1" fill="#a0746d" opacity="0.07" transform="rotate(30.27 589.38 433.29)"/><rect x="1021.33" y="799.61" width="11.89" height="0.96" rx="1" fill="#2c302a" opacity="0.06" transform="rotate(70.75 1021.33 799.61)"/><rect x="759.26" y="553.59" width="17.86" height="2.42" rx="1" fill="#a0746d" opacity="0.07" transform="rotate(105.11 759.26 553.59)"/><rect x="61.03" y="786.4" width="26.79" height="1.53" rx="1" fill="#2c302a" opacity="0.03" transform="rotate(112.81 61.03 786.4)"/><circle cx="346.36" cy="270.25" r="1.84" fill="#a0746d" opacity="0.06"/><circle cx="921.36" cy="902.47" r="1.78" fill="#2c302a" opacity="0.03"/><circle cx="1365.82" cy="1019.68" r="1.01" fill="#a0746d" opacity="0.07"/><circle cx="963.41" cy="606.47" r="1.24" fill="#a0746d" opacity="0.05"/><rect x="774.74" y="409.92" width="21.4" height="1.84" rx="1" fill="#a0746d" opacity="0.04" transform="rotate(82.13 774.74 409.92)"/><rect x="546.89" y="520.19" width="14" height="0.81" rx="1" fill="#a0746d" opacity="0.07" transform="rotate(91.24 546.89 520.19)"/><rect x="1041.47" y="103.74" width="9.19" height="0.87" rx="1" fill="#2c302a" opacity="0.07" transform="rotate(141.95 1041.47 103.74)"/><circle cx="1168.34" cy="466.01" r="1.92" fill="#2c302a" opacity="0.06"/><rect x="577.27" y="927.53" width="16.4" height="2.58" rx="1" fill="#2c302a" opacity="0.04" transform="rotate(55.06 577.27 927.53)"/><rect x="1198.2" y="778.44" width="18.36" height="1.92" rx="1" fill="#a0746d" opacity="0.05" transform="rotate(7.29 1198.2 778.44)"/><rect x="918.37" y="1001.73" width="21.87" height="0.85" rx="1" fill="#2c302a" opacity="0.06" transform="rotate(99.52 918.37 1001.73)"/><circle cx="1514.68" cy="333.08" r="2.15" fill="#a0746d" opacity="0.05"/><rect x="185.17" y="336.31" width="24.73" height="2.34" rx="1" fill="#2c302a" opacity="0.03" transform="rotate(18.23 185.17 336.31)"/><circle cx="1591.41" cy="572.53" r="2.23" fill="#2c302a" opacity="0.06"/><rect x="1111.4" y="1088.73" width="23.82" height="2.47" rx="1" fill="#a0746d" opacity="0.07" transform="rotate(81.3 1111.4 1088.73)"/><rect x="1507.98" y="610.26" width="22.74" height="1.23" rx="1" fill="#2c302a" opacity="0.08" transform="rotate(25.96 1507.98 610.26)"/><rect x="860.09" y="7.39" width="9.23" height="1.83" rx="1" fill="#2c302a" opacity="0.07" transform="rotate(104.39 860.09 7.39)"/><rect x="1059.72" y="936.48" width="18.48" height="2.21" rx="1" fill="#a0746d" opacity="0.06" transform="rotate(54.6 1059.72 936.48)"/><rect x="1427.63" y="570.61" width="8.66" height="2.07" rx="1" fill="#2c302a" opacity="0.07" transform="rotate(170.35 1427.63 570.61)"/><circle cx="1319.1" cy="626.8" r="2.18" fill="#2c302a" opacity="0.06"/><circle cx="913.21" cy="880.11" r="2.17" fill="#a0746d" opacity="0.06"/><rect x="21.95" y="298.55" width="17.57" height="1.33" rx="1" fill="#a0746d" opacity="0.08" transform="rotate(62.37 21.95 298.55)"/><circle cx="1032.99" cy="791.9" r="1.11" fill="#a0746d" opacity="0.03"/><circle cx="1056.22" cy="979.27" r="2.03" fill="#a0746d" opacity="0.07"/><rect x="180.13" y="813.61" width="22.45" height="1.9" rx="1" fill="#2c302a" opacity="0.04" transform="rotate(43.37 180.13 813.61)"/><circle cx="541.97" cy="561.59" r="1.71" fill="#2c302a" opacity="0.07"/><circle cx="142" cy="712.88" r="0.99" fill="#2c302a" opacity="0.08"/><rect x="1148.63" y="365.19" width="15.92" height="2.51" rx="1" fill="#2c302a" opacity="0.04" transform="rotate(47.37 1148.63 365.19)"/><rect x="829.21" y="233.67" width="22.24" height="1.78" rx="1" fill="#a0746d" opacity="0.04" transform="rotate(113.82 829.21 233.67)"/><circle cx="915.93" cy="459.73" r="1.42" fill="#a0746d" opacity="0.05"/><circle cx="1339.45" cy="854.51" r="2.02" fill="#a0746d" opacity="0.03"/><rect x="497.73" y="710.66" width="27.41" height="2.51" rx="1" fill="#a0746d" opacity="0.08" transform="rotate(11.76 497.73 710.66)"/><rect x="376.92" y="209.79" width="22.41" height="1.52" rx="1" fill="#2c302a" opacity="0.04" transform="rotate(44.9 376.92 209.79)"/><circle cx="415.98" cy="169.74" r="1.2" fill="#a0746d" opacity="0.04"/><circle cx="709.45" cy="460.04" r="0.77" fill="#a0746d" opacity="0.06"/><rect x="775.58" y="395.62" width="9.89" height="0.97" rx="1" fill="#a0746d" opacity="0.04" transform="rotate(16.18 775.58 395.62)"/><rect x="527.88" y="849.36" width="18.97" height="1.54" rx="1" fill="#2c302a" opacity="0.07" transform="rotate(13.48 527.88 849.36)"/><circle cx="406.84" cy="895.63" r="1.61" fill="#a0746d" opacity="0.06"/><circle cx="1332.98" cy="1065.79" r="2.27" fill="#2c302a" opacity="0.03"/><circle cx="129.36" cy="992.12" r="0.8" fill="#a0746d" opacity="0.04"/><rect x="845.9" y="135.51" width="17.51" height="1.48" rx="1" fill="#a0746d" opacity="0.05" transform="rotate(53.3 845.9 135.51)"/><rect x="869.09" y="348.93" width="20.19" height="1.54" rx="1" fill="#a0746d" opacity="0.06" transform="rotate(50.05 869.09 348.93)"/><rect x="1047.09" y="350.98" width="11.15" height="1.95" rx="1" fill="#2c302a" opacity="0.04" transform="rotate(90.48 1047.09 350.98)"/><circle cx="167.93" cy="431.93" r="1.25" fill="#a0746d" opacity="0.07"/><rect x="930.74" y="252.02" width="16.58" height="1.01" rx="1" fill="#2c302a" opacity="0.06" transform="rotate(39.21 930.74 252.02)"/><rect x="31.23" y="10.94" width="7.4" height="2.39" rx="1" fill="#2c302a" opacity="0.08" transform="rotate(31.07 31.23 10.94)"/>
  <circle cx="1350" cy="178" r="184" fill="#a0746d" opacity="0.06"/>
  <circle cx="220" cy="894" r="220" fill="#6b7466" opacity="0.08"/>
  <g transform="rotate(-4 505 530)">
    <ellipse cx="521" cy="813.6" rx="227.9" ry="56" fill="#1f211d" opacity="0.11"/>
    <rect x="290" y="250" width="430" height="560" rx="10" fill="#fbf7ef"/>
    <rect x="308" y="268" width="394" height="524" rx="5" fill="none" stroke="#2c302a" stroke-opacity="0.11"/>
    <rect x="324" y="292" width="94.6" height="4" rx="2" fill="#a0746d" opacity="0.84"/>
    <text x="324" y="440.4" class="brand" fill="#2c302a" font-size="51.6">SPEC</text>
    <text x="326" y="474.4" class="micro" fill="#2c302a" opacity="0.65">DOCUMENT</text>
    <rect x="326" y="574.8" width="117.65" height="3" rx="2" fill="#2c302a" opacity="0.42"/><rect x="326" y="596.8" width="176.47" height="2" rx="2" fill="#2c302a" opacity="0.22"/><rect x="326" y="618.8" width="235.3" height="2" rx="2" fill="#2c302a" opacity="0.22"/><rect x="326" y="640.8" width="133.13" height="2" rx="2" fill="#2c302a" opacity="0.22"/><rect x="326" y="662.8" width="191.95" height="2" rx="2" fill="#2c302a" opacity="0.22"/><rect x="326" y="684.8" width="250.78" height="2" rx="2" fill="#2c302a" opacity="0.22"/><rect x="326" y="706.8" width="148.61" height="2" rx="2" fill="#2c302a" opacity="0.22"/><rect x="326" y="728.8" width="207.43" height="2" rx="2" fill="#2c302a" opacity="0.22"/><rect x="326" y="750.8" width="266.26" height="2" rx="2" fill="#2c302a" opacity="0.22"/>
    
  </g><g transform="rotate(5 1020 505)">
    <ellipse cx="1040" cy="710.4" rx="296.8" ry="39" fill="#1f211d" opacity="0.13"/>
    <rect x="740" y="310" width="560" height="390" rx="8" fill="#383d36"/>
    <line x1="792" y1="362" x2="792" y2="646" stroke="#fbf7ef" stroke-opacity="0.12"/><line x1="849" y1="362" x2="849" y2="646" stroke="#fbf7ef" stroke-opacity="0.12"/><line x1="906" y1="362" x2="906" y2="646" stroke="#fbf7ef" stroke-opacity="0.12"/><line x1="963" y1="362" x2="963" y2="646" stroke="#fbf7ef" stroke-opacity="0.12"/><line x1="1020" y1="362" x2="1020" y2="646" stroke="#fbf7ef" stroke-opacity="0.12"/><line x1="1077" y1="362" x2="1077" y2="646" stroke="#fbf7ef" stroke-opacity="0.12"/><line x1="1134" y1="362" x2="1134" y2="646" stroke="#fbf7ef" stroke-opacity="0.12"/><line x1="1191" y1="362" x2="1191" y2="646" stroke="#fbf7ef" stroke-opacity="0.12"/><line x1="792" y1="362" x2="1246" y2="362" stroke="#fbf7ef" stroke-opacity="0.12"/><line x1="792" y1="409.67" x2="1246" y2="409.67" stroke="#fbf7ef" stroke-opacity="0.12"/><line x1="792" y1="457.33" x2="1246" y2="457.33" stroke="#fbf7ef" stroke-opacity="0.12"/><line x1="792" y1="505" x2="1246" y2="505" stroke="#fbf7ef" stroke-opacity="0.12"/><line x1="792" y1="552.67" x2="1246" y2="552.67" stroke="#fbf7ef" stroke-opacity="0.12"/><line x1="792" y1="600.33" x2="1246" y2="600.33" stroke="#fbf7ef" stroke-opacity="0.12"/>
    <path d="M 852 590.8 V 450.4 H 1042.4 V 505 H 1176.8 V 590.8 Z" fill="none" stroke="#fbf7ef" stroke-width="5" opacity="0.78"/>
    <text x="794" y="654" class="micro" fill="#fbf7ef" opacity="0.72">BOARD A1</text>
  </g>
  <g opacity="0.72"><text x="78" y="1004" class="micro" fill="#2c302a">ARCHITECTURAL BRANDING</text><text x="78" y="1036" class="micro" fill="#2c302a" opacity="0.55">TEMPORARY DEMONSTRATION PORTFOLIO VISUAL / GALLERY-2</text></g>
</svg>
