<?xml version="1.0" encoding="UTF-8"?>
<svg xmlns="http://www.w3.org/2000/svg" width="1600" height="1100" viewBox="0 0 1600 1100" role="img" aria-labelledby="title desc">
  <title id="title">MONOLITH hero demo portfolio mockup</title>
  <desc id="desc">Temporary fictional demonstration project imagery for portfolio presentation only, not client work.</desc>
  <defs>
    <linearGradient id="bg_monolith_hero" x1="0" y1="0" x2="1" y2="1">
      <stop offset="0%" stop-color="#fbf7ef"/>
      <stop offset="58%" stop-color="#efeae2"/>
      <stop offset="100%" stop-color="#c7bbaa"/>
    </linearGradient>
    <radialGradient id="light_monolith_hero" cx="74%" cy="18%" r="64%">
      <stop offset="0%" stop-color="#ffffff" stop-opacity="0.62"/>
      <stop offset="100%" stop-color="#ffffff" stop-opacity="0"/>
    </radialGradient>
  </defs>
  <style><![CDATA[
    .brand { font-family: Helvetica, Georgia, serif; font-weight: 500; letter-spacing: .02em; }
    .body { font-family: Arial, Arial, sans-serif; font-weight: 500; }
    .micro { font-family: Arial, Arial, sans-serif; font-size: 20px; font-weight: 700; letter-spacing: .12em; }
  ]]></style>
  <rect width="1600" height="1100" fill="url(#bg_monolith_hero)"/>
  <rect width="1600" height="1100" fill="url(#light_monolith_hero)"/>
  <rect x="345.93" y="144.68" width="27.93" height="1.84" rx="1" fill="#2c302a" opacity="0.08" transform="rotate(70.99 345.93 144.68)"/><rect x="1392.6" y="434.08" width="22.02" height="1.72" rx="1" fill="#2c302a" opacity="0.08" transform="rotate(24.71 1392.6 434.08)"/><circle cx="1451" cy="1079.88" r="1.23" fill="#2c302a" opacity="0.07"/><circle cx="1348.63" cy="311.41" r="0.71" fill="#2c302a" opacity="0.03"/><circle cx="257.22" cy="790.77" r="0.76" fill="#2c302a" opacity="0.07"/><rect x="1150.99" y="65.89" width="25.04" height="1.21" rx="1" fill="#2c302a" opacity="0.07" transform="rotate(81 1150.99 65.89)"/><rect x="218.05" y="154.66" width="22.22" height="0.95" rx="1" fill="#2c302a" opacity="0.05" transform="rotate(3.76 218.05 154.66)"/><rect x="324.54" y="193.35" width="9.77" height="1.99" rx="1" fill="#a0746d" opacity="0.06" transform="rotate(143.01 324.54 193.35)"/><rect x="1249.7" y="570.42" width="16.34" height="2.47" rx="1" fill="#a0746d" opacity="0.08" transform="rotate(120.92 1249.7 570.42)"/><rect x="1301.11" y="927.57" width="22.79" height="2.27" rx="1" fill="#2c302a" opacity="0.03" transform="rotate(74.41 1301.11 927.57)"/><rect x="169.69" y="605.33" width="10.47" height="1.39" rx="1" fill="#2c302a" opacity="0.07" transform="rotate(96.09 169.69 605.33)"/><circle cx="1113.16" cy="517.66" r="1.4" fill="#2c302a" opacity="0.06"/><rect x="743.25" y="1055.91" width="8.52" height="2.41" rx="1" fill="#2c302a" opacity="0.04" transform="rotate(126.76 743.25 1055.91)"/><rect x="1171.28" y="1089.4" width="23.66" height="1.7" rx="1" fill="#2c302a" opacity="0.05" transform="rotate(32.12 1171.28 1089.4)"/><rect x="801.64" y="819.22" width="10.22" height="2.18" rx="1" fill="#2c302a" opacity="0.03" transform="rotate(79.08 801.64 819.22)"/><rect x="1549.13" y="367.59" width="26.86" height="2.08" rx="1" fill="#a0746d" opacity="0.07" transform="rotate(69.64 1549.13 367.59)"/><rect x="463.22" y="936.49" width="26.1" height="2.52" rx="1" fill="#a0746d" opacity="0.03" transform="rotate(33.87 463.22 936.49)"/><rect x="1372.87" y="362.74" width="7.09" height="1.65" rx="1" fill="#2c302a" opacity="0.03" transform="rotate(66.22 1372.87 362.74)"/><rect x="211.15" y="893.87" width="14.37" height="2.38" rx="1" fill="#a0746d" opacity="0.03" transform="rotate(58.06 211.15 893.87)"/><rect x="982.77" y="287.42" width="26.26" height="2.52" rx="1" fill="#2c302a" opacity="0.05" transform="rotate(112.76 982.77 287.42)"/><circle cx="1285.77" cy="566.66" r="0.72" fill="#a0746d" opacity="0.06"/><rect x="1170.28" y="453.77" width="21.28" height="2.3" rx="1" fill="#2c302a" opacity="0.04" transform="rotate(109.47 1170.28 453.77)"/><rect x="650.76" y="1080.76" width="14.96" height="2.29" rx="1" fill="#a0746d" opacity="0.07" transform="rotate(173.08 650.76 1080.76)"/><rect x="315.79" y="871.85" width="6.27" height="1.57" rx="1" fill="#a0746d" opacity="0.06" transform="rotate(88.31 315.79 871.85)"/><rect x="1094.47" y="613.08" width="12.91" height="0.89" rx="1" fill="#a0746d" opacity="0.04" transform="rotate(22.12 1094.47 613.08)"/><circle cx="540.84" cy="523.38" r="1.74" fill="#a0746d" opacity="0.07"/><circle cx="477.25" cy="844.6" r="1.87" fill="#a0746d" opacity="0.03"/><circle cx="932.43" cy="605.84" r="1.83" fill="#a0746d" opacity="0.05"/><circle cx="649.66" cy="136.56" r="1.67" fill="#a0746d" opacity="0.03"/><circle cx="206.44" cy="460.58" r="2.18" fill="#a0746d" opacity="0.07"/><rect x="1471.86" y="505.16" width="18.02" height="1.68" rx="1" fill="#2c302a" opacity="0.05" transform="rotate(87.71 1471.86 505.16)"/><rect x="39.56" y="801.18" width="25.05" height="2.28" rx="1" fill="#a0746d" opacity="0.07" transform="rotate(121.54 39.56 801.18)"/><circle cx="820.19" cy="649.07" r="2.19" fill="#2c302a" opacity="0.04"/><circle cx="645.73" cy="215.68" r="1.56" fill="#2c302a" opacity="0.06"/><rect x="1202.04" y="87.4" width="7.14" height="0.8" rx="1" fill="#a0746d" opacity="0.03" transform="rotate(157.54 1202.04 87.4)"/><rect x="1500.51" y="261.24" width="18.03" height="0.8" rx="1" fill="#a0746d" opacity="0.06" transform="rotate(28.96 1500.51 261.24)"/><rect x="351.08" y="51" width="7.67" height="2.44" rx="1" fill="#2c302a" opacity="0.08" transform="rotate(110.78 351.08 51)"/><circle cx="357.25" cy="1043.5" r="1.59" fill="#2c302a" opacity="0.04"/><circle cx="1549.5" cy="77.1" r="1.93" fill="#a0746d" opacity="0.08"/><circle cx="1192.75" cy="1039.23" r="1.03" fill="#2c302a" opacity="0.06"/><rect x="1550.3" y="229.26" width="8.46" height="2.22" rx="1" fill="#a0746d" opacity="0.07" transform="rotate(166.03 1550.3 229.26)"/><circle cx="1364" cy="875.32" r="0.75" fill="#a0746d" opacity="0.07"/><circle cx="1179.42" cy="984.13" r="1.22" fill="#a0746d" opacity="0.03"/><rect x="287.6" y="320.8" width="9.95" height="1.5" rx="1" fill="#2c302a" opacity="0.03" transform="rotate(30.06 287.6 320.8)"/><circle cx="673.55" cy="663.65" r="0.74" fill="#2c302a" opacity="0.06"/><rect x="1201.6" y="777.12" width="11.1" height="2.55" rx="1" fill="#a0746d" opacity="0.03" transform="rotate(39.89 1201.6 777.12)"/><circle cx="1544.73" cy="494.94" r="1.3" fill="#a0746d" opacity="0.06"/><circle cx="1113.86" cy="370.7" r="1.87" fill="#a0746d" opacity="0.03"/><rect x="960.74" y="510.5" width="16.6" height="1.07" rx="1" fill="#2c302a" opacity="0.06" transform="rotate(52.02 960.74 510.5)"/><rect x="217.02" y="912.64" width="25" height="1.77" rx="1" fill="#2c302a" opacity="0.08" transform="rotate(174.82 217.02 912.64)"/><rect x="1184.8" y="1065.12" width="8.19" height="1.51" rx="1" fill="#a0746d" opacity="0.03" transform="rotate(133.75 1184.8 1065.12)"/><rect x="174.05" y="549.09" width="23.66" height="0.9" rx="1" fill="#a0746d" opacity="0.07" transform="rotate(162.45 174.05 549.09)"/><rect x="1472.55" y="793.71" width="7.27" height="2.19" rx="1" fill="#a0746d" opacity="0.07" transform="rotate(62.98 1472.55 793.71)"/><rect x="555.63" y="284.97" width="9.17" height="1.08" rx="1" fill="#2c302a" opacity="0.07" transform="rotate(55.59 555.63 284.97)"/><circle cx="163.09" cy="1010.19" r="2.22" fill="#a0746d" opacity="0.04"/><rect x="67.12" y="278.68" width="22.91" height="1.87" rx="1" fill="#2c302a" opacity="0.03" transform="rotate(163.76 67.12 278.68)"/><circle cx="392.19" cy="157.63" r="1.94" fill="#a0746d" opacity="0.06"/><rect x="465.81" y="681.62" width="7.66" height="1.3" rx="1" fill="#2c302a" opacity="0.04" transform="rotate(112.16 465.81 681.62)"/><circle cx="1349.69" cy="206.87" r="2.19" fill="#a0746d" opacity="0.06"/><rect x="114.64" y="141.03" width="22.17" height="1.4" rx="1" fill="#a0746d" opacity="0.05" transform="rotate(8.14 114.64 141.03)"/><rect x="171.75" y="675.43" width="12.48" height="1.88" rx="1" fill="#a0746d" opacity="0.04" transform="rotate(24.2 171.75 675.43)"/><rect x="662.58" y="937.42" width="10.43" height="1.32" rx="1" fill="#2c302a" opacity="0.03" transform="rotate(103.22 662.58 937.42)"/><circle cx="772.43" cy="1057.61" r="0.8" fill="#a0746d" opacity="0.04"/><circle cx="1539.99" cy="999.6" r="1.54" fill="#a0746d" opacity="0.05"/><circle cx="49.88" cy="927.02" r="1.86" fill="#a0746d" opacity="0.05"/><circle cx="1122.35" cy="1024.46" r="1.13" fill="#2c302a" opacity="0.05"/><circle cx="1418" cy="604.13" r="1.49" fill="#a0746d" opacity="0.07"/><circle cx="29.89" cy="1053.68" r="0.9" fill="#a0746d" opacity="0.04"/><circle cx="1567.68" cy="158.62" r="2.17" fill="#2c302a" opacity="0.07"/><circle cx="1238.53" cy="71.89" r="2.01" fill="#2c302a" opacity="0.03"/><circle cx="441.7" cy="717.06" r="0.8" fill="#2c302a" opacity="0.07"/><rect x="193.56" y="940.76" width="11.23" height="1.61" rx="1" fill="#2c302a" opacity="0.04" transform="rotate(42.75 193.56 940.76)"/><circle cx="1417.28" cy="887.9" r="1.96" fill="#a0746d" opacity="0.08"/><circle cx="609.13" cy="485.39" r="1.33" fill="#a0746d" opacity="0.06"/><rect x="962.52" y="400.43" width="18.57" height="2.09" rx="1" fill="#a0746d" opacity="0.07" transform="rotate(145.65 962.52 400.43)"/><circle cx="1330.24" cy="393.25" r="0.84" fill="#2c302a" opacity="0.05"/><circle cx="53.59" cy="232.46" r="2.23" fill="#a0746d" opacity="0.03"/><rect x="37.15" y="523.26" width="24.59" height="2.51" rx="1" fill="#a0746d" opacity="0.08" transform="rotate(149.65 37.15 523.26)"/><rect x="1349.09" y="387.42" width="16.91" height="2.4" rx="1" fill="#a0746d" opacity="0.05" transform="rotate(19.32 1349.09 387.42)"/><rect x="1258.18" y="830.95" width="8.25" height="2.1" rx="1" fill="#a0746d" opacity="0.05" transform="rotate(149.14 1258.18 830.95)"/><circle cx="836.15" cy="934.9" r="1.1" fill="#a0746d" opacity="0.07"/><rect x="506.19" y="455.12" width="12.05" height="2.35" rx="1" fill="#a0746d" opacity="0.06" transform="rotate(52.5 506.19 455.12)"/><rect x="1298.72" y="691.56" width="8.73" height="1.6" rx="1" fill="#2c302a" opacity="0.07" transform="rotate(95.16 1298.72 691.56)"/><circle cx="1119.4" cy="873.15" r="1.01" fill="#2c302a" opacity="0.04"/><rect x="1196.64" y="800" width="14.7" height="2.55" rx="1" fill="#2c302a" opacity="0.06" transform="rotate(126.97 1196.64 800)"/><rect x="1043.85" y="31.01" width="18.28" height="1.04" rx="1" fill="#a0746d" opacity="0.05" transform="rotate(48.34 1043.85 31.01)"/><rect x="1180.49" y="770.96" width="24.28" height="1.3" rx="1" fill="#a0746d" opacity="0.07" transform="rotate(98.36 1180.49 770.96)"/><circle cx="1339.96" cy="531.94" r="1.55" fill="#a0746d" opacity="0.05"/><rect x="915.57" y="731.06" width="11.87" height="1.45" rx="1" fill="#2c302a" opacity="0.03" transform="rotate(40.49 915.57 731.06)"/><rect x="274.5" y="963.01" width="14.66" height="1.98" rx="1" fill="#a0746d" opacity="0.03" transform="rotate(56.03 274.5 963.01)"/><rect x="236.94" y="847.36" width="6.43" height="1.51" rx="1" fill="#a0746d" opacity="0.03" transform="rotate(114.93 236.94 847.36)"/><rect x="595.2" y="347.26" width="12.79" height="1.29" rx="1" fill="#2c302a" opacity="0.03" transform="rotate(138.9 595.2 347.26)"/><rect x="1387.13" y="611.46" width="9.01" height="2.39" rx="1" fill="#a0746d" opacity="0.08" transform="rotate(75.66 1387.13 611.46)"/><rect x="369.77" y="598.05" width="23.51" height="0.87" rx="1" fill="#a0746d" opacity="0.08" transform="rotate(97.42 369.77 598.05)"/><rect x="714.21" y="497.61" width="9.46" height="1.46" rx="1" fill="#2c302a" opacity="0.05" transform="rotate(46.48 714.21 497.61)"/><rect x="897.75" y="989.09" width="16.94" height="2.29" rx="1" fill="#a0746d" opacity="0.05" transform="rotate(138.44 897.75 989.09)"/><rect x="794.25" y="1093.39" width="8.56" height="1.51" rx="1" fill="#2c302a" opacity="0.08" transform="rotate(26.86 794.25 1093.39)"/><rect x="1452.17" y="693.2" width="8.51" height="1.58" rx="1" fill="#a0746d" opacity="0.04" transform="rotate(113.13 1452.17 693.2)"/><circle cx="1391.22" cy="290.35" r="1.92" fill="#2c302a" opacity="0.05"/><rect x="164.86" y="338.62" width="17.8" height="2.25" rx="1" fill="#a0746d" opacity="0.07" transform="rotate(121.68 164.86 338.62)"/><circle cx="1153.91" cy="159.87" r="1.38" fill="#2c302a" opacity="0.06"/><circle cx="446.44" cy="1040.86" r="1.6" fill="#2c302a" opacity="0.06"/><rect x="738.44" y="86.49" width="13.97" height="2.47" rx="1" fill="#a0746d" opacity="0.07" transform="rotate(85.7 738.44 86.49)"/><circle cx="978.37" cy="32.23" r="1.01" fill="#a0746d" opacity="0.05"/><rect x="720.06" y="911.51" width="11" height="2.33" rx="1" fill="#2c302a" opacity="0.05" transform="rotate(116.51 720.06 911.51)"/><rect x="31.55" y="350.49" width="26.98" height="1.15" rx="1" fill="#a0746d" opacity="0.03" transform="rotate(68.73 31.55 350.49)"/><circle cx="667.5" cy="163.91" r="1.1" fill="#2c302a" opacity="0.03"/><rect x="1021.76" y="810.93" width="22.61" height="2.14" rx="1" fill="#2c302a" opacity="0.08" transform="rotate(53.99 1021.76 810.93)"/><rect x="829.91" y="250.27" width="23.46" height="1.16" rx="1" fill="#2c302a" opacity="0.06" transform="rotate(63.86 829.91 250.27)"/><rect x="507.81" y="374.75" width="16" height="2.03" rx="1" fill="#2c302a" opacity="0.04" transform="rotate(60.68 507.81 374.75)"/><rect x="1542.08" y="1044.72" width="25.31" height="1.4" rx="1" fill="#a0746d" opacity="0.07" transform="rotate(166.09 1542.08 1044.72)"/><circle cx="1102.64" cy="486.94" r="1.85" fill="#2c302a" opacity="0.06"/><circle cx="215.69" cy="494.54" r="1.05" fill="#a0746d" opacity="0.03"/><rect x="1028.29" y="921.7" width="13.75" height="1.09" rx="1" fill="#a0746d" opacity="0.05" transform="rotate(167.18 1028.29 921.7)"/><circle cx="1588.04" cy="613.77" r="1.01" fill="#a0746d" opacity="0.07"/><rect x="625.53" y="948.17" width="11.61" height="1.31" rx="1" fill="#a0746d" opacity="0.05" transform="rotate(159.88 625.53 948.17)"/><circle cx="526.11" cy="117.57" r="0.98" fill="#a0746d" opacity="0.06"/><rect x="789.29" y="203.64" width="22.35" height="2.48" rx="1" fill="#2c302a" opacity="0.04" transform="rotate(130.09 789.29 203.64)"/><circle cx="810.61" cy="1039.16" r="1.25" fill="#a0746d" opacity="0.03"/><rect x="986.94" y="786.42" width="27.58" height="1.77" rx="1" fill="#a0746d" opacity="0.05" transform="rotate(53.34 986.94 786.42)"/><rect x="162.59" y="405.63" width="18.38" height="1.61" rx="1" fill="#2c302a" opacity="0.08" transform="rotate(170.29 162.59 405.63)"/><circle cx="970.71" cy="89.37" r="1.52" fill="#2c302a" opacity="0.06"/><rect x="363.37" y="766.75" width="21" height="1.98" rx="1" fill="#a0746d" opacity="0.04" transform="rotate(25.8 363.37 766.75)"/><circle cx="1074.37" cy="168.74" r="0.98" fill="#a0746d" opacity="0.06"/><circle cx="452.93" cy="335.04" r="1.84" fill="#a0746d" opacity="0.03"/><circle cx="1523.78" cy="781.47" r="1.65" fill="#2c302a" opacity="0.07"/><rect x="48.44" y="316.59" width="21.41" height="1.72" rx="1" fill="#a0746d" opacity="0.08" transform="rotate(167.17 48.44 316.59)"/><rect x="277.43" y="227.19" width="12.29" height="1.64" rx="1" fill="#a0746d" opacity="0.04" transform="rotate(43.89 277.43 227.19)"/><circle cx="622.91" cy="300.51" r="1.16" fill="#a0746d" opacity="0.04"/><rect x="1533.99" y="404.02" width="6.73" height="0.91" rx="1" fill="#a0746d" opacity="0.08" transform="rotate(122.47 1533.99 404.02)"/><rect x="532.4" y="23.18" width="22.54" height="1.88" rx="1" fill="#2c302a" opacity="0.07" transform="rotate(136.63 532.4 23.18)"/><circle cx="345.51" cy="385.43" r="1.4" fill="#2c302a" opacity="0.06"/><rect x="426.65" y="878.51" width="8.17" height="1.83" rx="1" fill="#a0746d" opacity="0.03" transform="rotate(173.83 426.65 878.51)"/><circle cx="1257.7" cy="360.93" r="1.27" fill="#2c302a" opacity="0.08"/><rect x="1324.4" y="341.46" width="7.56" height="1.96" rx="1" fill="#a0746d" opacity="0.03" transform="rotate(72.08 1324.4 341.46)"/><rect x="405.61" y="229.21" width="23.89" height="2.12" rx="1" fill="#2c302a" opacity="0.05" transform="rotate(88.9 405.61 229.21)"/><rect x="734.15" y="49.79" width="15.59" height="0.91" rx="1" fill="#2c302a" opacity="0.04" transform="rotate(77.83 734.15 49.79)"/><rect x="1298.64" y="648.86" width="20.4" height="2.58" rx="1" fill="#a0746d" opacity="0.06" transform="rotate(121.4 1298.64 648.86)"/><circle cx="267.02" cy="865.25" r="0.98" fill="#a0746d" opacity="0.03"/><rect x="1270.9" y="475.54" width="12.39" height="1.47" rx="1" fill="#2c302a" opacity="0.07" transform="rotate(77.36 1270.9 475.54)"/>
  <circle cx="1350" cy="178" r="184" fill="#a0746d" opacity="0.06"/>
  <circle cx="220" cy="894" r="220" fill="#6b7466" opacity="0.08"/>
  <g transform="rotate(-4 450 425)">
    <ellipse cx="468" cy="564" rx="249.1" ry="25" fill="#1f211d" opacity="0.13"/>
    <rect x="215" y="300" width="470" height="250" rx="10" fill="#383d36"/>
    <rect x="239" y="324" width="422" height="202" rx="6" fill="none" stroke="#fbf7ef" stroke-opacity="0.16"/>
    <text x="262" y="430" class="brand" fill="#fbf7ef" font-size="47">MONOLITH</text>
    <rect x="262" y="455" width="347.8" height="4" rx="2" fill="#a0746d"/>
  </g><g transform="rotate(5 970 425)">
    <ellipse cx="990" cy="648.8" rx="296.8" ry="43" fill="#1f211d" opacity="0.13"/>
    <rect x="690" y="210" width="560" height="430" rx="8" fill="#383d36"/>
    <line x1="742" y1="262" x2="742" y2="586" stroke="#fbf7ef" stroke-opacity="0.12"/><line x1="799" y1="262" x2="799" y2="586" stroke="#fbf7ef" stroke-opacity="0.12"/><line x1="856" y1="262" x2="856" y2="586" stroke="#fbf7ef" stroke-opacity="0.12"/><line x1="913" y1="262" x2="913" y2="586" stroke="#fbf7ef" stroke-opacity="0.12"/><line x1="970" y1="262" x2="970" y2="586" stroke="#fbf7ef" stroke-opacity="0.12"/><line x1="1027" y1="262" x2="1027" y2="586" stroke="#fbf7ef" stroke-opacity="0.12"/><line x1="1084" y1="262" x2="1084" y2="586" stroke="#fbf7ef" stroke-opacity="0.12"/><line x1="1141" y1="262" x2="1141" y2="586" stroke="#fbf7ef" stroke-opacity="0.12"/><line x1="742" y1="262" x2="1196" y2="262" stroke="#fbf7ef" stroke-opacity="0.12"/><line x1="742" y1="316.33" x2="1196" y2="316.33" stroke="#fbf7ef" stroke-opacity="0.12"/><line x1="742" y1="370.67" x2="1196" y2="370.67" stroke="#fbf7ef" stroke-opacity="0.12"/><line x1="742" y1="425" x2="1196" y2="425" stroke="#fbf7ef" stroke-opacity="0.12"/><line x1="742" y1="479.33" x2="1196" y2="479.33" stroke="#fbf7ef" stroke-opacity="0.12"/><line x1="742" y1="533.67" x2="1196" y2="533.67" stroke="#fbf7ef" stroke-opacity="0.12"/>
    <path d="M 802 519.6 V 364.8 H 992.4 V 425 H 1126.8 V 519.6 Z" fill="none" stroke="#fbf7ef" stroke-width="5" opacity="0.78"/>
    <text x="744" y="594" class="micro" fill="#fbf7ef" opacity="0.72">FACADE PLAN / DEMO</text>
  </g><g transform="rotate(-6 1180 765)">
    <ellipse cx="1196" cy="892.2" rx="169.6" ry="22" fill="#1f211d" opacity="0.11"/>
    <rect x="1020" y="655" width="320" height="220" rx="10" fill="#fbf7ef"/>
    <rect x="1038" y="673" width="284" height="184" rx="5" fill="none" stroke="#2c302a" stroke-opacity="0.11"/>
    <rect x="1054" y="697" width="70.4" height="4" rx="2" fill="#a0746d" opacity="0.84"/>
    <text x="1054" y="729.8" class="brand" fill="#2c302a" font-size="38.4">SITE INDEX</text>
    <text x="1056" y="763.8" class="micro" fill="#2c302a" opacity="0.65">WAYFINDING</text>
    <rect x="1056" y="782.6" width="87.55" height="3" rx="2" fill="#2c302a" opacity="0.42"/><rect x="1056" y="804.6" width="131.33" height="2" rx="2" fill="#2c302a" opacity="0.22"/><rect x="1056" y="826.6" width="175.1" height="2" rx="2" fill="#2c302a" opacity="0.22"/><rect x="1056" y="848.6" width="99.07" height="2" rx="2" fill="#2c302a" opacity="0.22"/>
    
  </g><g transform="rotate(6 520 765)">
    <ellipse cx="536" cy="906" rx="190.8" ry="25" fill="#1f211d" opacity="0.11"/>
    <rect x="340" y="640" width="360" height="250" rx="10" fill="#fbf7ef"/>
    <rect x="358" y="658" width="324" height="214" rx="5" fill="none" stroke="#2c302a" stroke-opacity="0.11"/>
    <rect x="374" y="682" width="79.2" height="4" rx="2" fill="#a0746d" opacity="0.84"/>
    <text x="374" y="725" class="brand" fill="#2c302a" font-size="43.2">PROJECT</text>
    <text x="376" y="759" class="micro" fill="#2c302a" opacity="0.65">FOLDER</text>
    <rect x="376" y="785" width="98.5" height="3" rx="2" fill="#2c302a" opacity="0.42"/><rect x="376" y="807" width="147.74" height="2" rx="2" fill="#2c302a" opacity="0.22"/><rect x="376" y="829" width="196.99" height="2" rx="2" fill="#2c302a" opacity="0.22"/><rect x="376" y="851" width="111.46" height="2" rx="2" fill="#2c302a" opacity="0.22"/>
    <circle cx="634" cy="820" r="35" fill="#a0746d" opacity="0.86"/><text x="634" y="831" text-anchor="middle" class="micro" fill="#fbf7ef" font-size="20">PR</text>
  </g>
  <g opacity="0.72"><text x="78" y="1004" class="micro" fill="#2c302a">ARCHITECTURAL BRANDING</text><text x="78" y="1036" class="micro" fill="#2c302a" opacity="0.55">TEMPORARY DEMONSTRATION PORTFOLIO VISUAL / HERO</text></g>
</svg>
