<?xml version="1.0" encoding="UTF-8"?>
<svg xmlns="http://www.w3.org/2000/svg" width="1600" height="1100" viewBox="0 0 1600 1100" role="img" aria-labelledby="title desc">
  <title id="title">ATELIER cover demo portfolio mockup</title>
  <desc id="desc">Temporary fictional demonstration project imagery for portfolio presentation only, not client work.</desc>
  <defs>
    <linearGradient id="bg_atelier_cover" x1="0" y1="0" x2="1" y2="1">
      <stop offset="0%" stop-color="#fff9f7"/>
      <stop offset="58%" stop-color="#f4ece9"/>
      <stop offset="100%" stop-color="#dab4b1"/>
    </linearGradient>
    <radialGradient id="light_atelier_cover" cx="74%" cy="18%" r="64%">
      <stop offset="0%" stop-color="#ffffff" stop-opacity="0.62"/>
      <stop offset="100%" stop-color="#ffffff" stop-opacity="0"/>
    </radialGradient>
  </defs>
  <style><![CDATA[
    .brand { font-family: Didot, Georgia, serif; font-weight: 500; letter-spacing: .02em; }
    .body { font-family: Helvetica, Arial, sans-serif; font-weight: 500; }
    .micro { font-family: Helvetica, Arial, sans-serif; font-size: 20px; font-weight: 700; letter-spacing: .12em; }
  ]]></style>
  <rect width="1600" height="1100" fill="url(#bg_atelier_cover)"/>
  <rect width="1600" height="1100" fill="url(#light_atelier_cover)"/>
  <circle cx="1335.61" cy="1031.78" r="0.77" fill="#24251f" opacity="0.07"/><rect x="1462.4" y="831.33" width="20.92" height="2.31" rx="1" fill="#24251f" opacity="0.07" transform="rotate(8.84 1462.4 831.33)"/><circle cx="336.32" cy="719.33" r="1.86" fill="#9f6865" opacity="0.05"/><circle cx="1269.68" cy="32.44" r="1.18" fill="#9f6865" opacity="0.07"/><rect x="737.83" y="413.09" width="13.36" height="0.95" rx="1" fill="#9f6865" opacity="0.06" transform="rotate(24.52 737.83 413.09)"/><rect x="578.15" y="968.99" width="17.8" height="1.92" rx="1" fill="#24251f" opacity="0.06" transform="rotate(60.35 578.15 968.99)"/><rect x="1343.08" y="428.23" width="22.88" height="2.16" rx="1" fill="#9f6865" opacity="0.08" transform="rotate(125.45 1343.08 428.23)"/><circle cx="908.29" cy="555" r="1.95" fill="#9f6865" opacity="0.07"/><rect x="322.48" y="564.6" width="24.68" height="1.84" rx="1" fill="#24251f" opacity="0.06" transform="rotate(42.54 322.48 564.6)"/><rect x="614.63" y="1092.86" width="25.1" height="2.48" rx="1" fill="#9f6865" opacity="0.07" transform="rotate(131.89 614.63 1092.86)"/><rect x="791.22" y="220.82" width="22.82" height="2.29" rx="1" fill="#24251f" opacity="0.07" transform="rotate(10.07 791.22 220.82)"/><rect x="102.09" y="278.4" width="6.62" height="1.85" rx="1" fill="#24251f" opacity="0.04" transform="rotate(24.84 102.09 278.4)"/><circle cx="56.35" cy="450.57" r="1.1" fill="#24251f" opacity="0.06"/><rect x="831.46" y="520.47" width="11.92" height="0.94" rx="1" fill="#24251f" opacity="0.06" transform="rotate(18.42 831.46 520.47)"/><circle cx="779.41" cy="867.12" r="2.25" fill="#24251f" opacity="0.04"/><circle cx="63.24" cy="423.06" r="2.06" fill="#9f6865" opacity="0.04"/><rect x="1426.53" y="704.35" width="19.44" height="1.76" rx="1" fill="#9f6865" opacity="0.05" transform="rotate(162.5 1426.53 704.35)"/><circle cx="1329.98" cy="637.8" r="1.14" fill="#9f6865" opacity="0.07"/><circle cx="1346.11" cy="837.2" r="2.27" fill="#9f6865" opacity="0.06"/><rect x="52.32" y="46.05" width="20.89" height="1.22" rx="1" fill="#9f6865" opacity="0.06" transform="rotate(39.52 52.32 46.05)"/><circle cx="753.29" cy="554.93" r="1.42" fill="#24251f" opacity="0.04"/><circle cx="354.15" cy="720.97" r="1.69" fill="#9f6865" opacity="0.08"/><circle cx="530.19" cy="46.63" r="1.24" fill="#24251f" opacity="0.07"/><rect x="373.57" y="536.83" width="18.7" height="2.25" rx="1" fill="#24251f" opacity="0.03" transform="rotate(89.74 373.57 536.83)"/><circle cx="1.75" cy="740.72" r="1.35" fill="#9f6865" opacity="0.05"/><rect x="1377.79" y="274.93" width="11.04" height="2.31" rx="1" fill="#9f6865" opacity="0.07" transform="rotate(17.57 1377.79 274.93)"/><circle cx="626.84" cy="51.8" r="1.93" fill="#24251f" opacity="0.05"/><circle cx="310.21" cy="369.44" r="1.95" fill="#9f6865" opacity="0.03"/><rect x="1290.2" y="721.86" width="19.7" height="2.04" rx="1" fill="#9f6865" opacity="0.05" transform="rotate(59.26 1290.2 721.86)"/><circle cx="396.9" cy="363.65" r="1.35" fill="#9f6865" opacity="0.04"/><circle cx="1424.85" cy="938.7" r="1.19" fill="#9f6865" opacity="0.08"/><rect x="419.91" y="437.18" width="23.93" height="2.42" rx="1" fill="#24251f" opacity="0.03" transform="rotate(144.32 419.91 437.18)"/><circle cx="1216.78" cy="990.56" r="0.88" fill="#24251f" opacity="0.05"/><circle cx="742.51" cy="713.28" r="2.13" fill="#9f6865" opacity="0.03"/><rect x="109.67" y="798.74" width="23.75" height="1.96" rx="1" fill="#24251f" opacity="0.03" transform="rotate(101.14 109.67 798.74)"/><circle cx="1163.62" cy="582" r="0.94" fill="#9f6865" opacity="0.07"/><rect x="1069.86" y="70.46" width="18.84" height="2.04" rx="1" fill="#24251f" opacity="0.07" transform="rotate(115.62 1069.86 70.46)"/><rect x="703.27" y="381.55" width="17.81" height="2.16" rx="1" fill="#9f6865" opacity="0.03" transform="rotate(12.05 703.27 381.55)"/><rect x="132.9" y="273.16" width="15.72" height="1.41" rx="1" fill="#9f6865" opacity="0.08" transform="rotate(107.97 132.9 273.16)"/><rect x="697.37" y="389.79" width="11.99" height="2.27" rx="1" fill="#24251f" opacity="0.08" transform="rotate(107.95 697.37 389.79)"/><circle cx="1456.5" cy="569.68" r="2.11" fill="#24251f" opacity="0.08"/><circle cx="1026.43" cy="880.99" r="0.71" fill="#24251f" opacity="0.03"/><rect x="543.04" y="569.4" width="26.61" height="0.91" rx="1" fill="#9f6865" opacity="0.08" transform="rotate(29.95 543.04 569.4)"/><rect x="965.3" y="472.81" width="18.63" height="1.52" rx="1" fill="#24251f" opacity="0.04" transform="rotate(39.11 965.3 472.81)"/><rect x="165.73" y="290.31" width="7.9" height="1.14" rx="1" fill="#9f6865" opacity="0.07" transform="rotate(174.22 165.73 290.31)"/><rect x="650.14" y="792.21" width="12.4" height="0.98" rx="1" fill="#9f6865" opacity="0.07" transform="rotate(80.55 650.14 792.21)"/><circle cx="379.43" cy="382.96" r="1.26" fill="#24251f" opacity="0.03"/><rect x="206.58" y="231.2" width="26.62" height="2.04" rx="1" fill="#9f6865" opacity="0.03" transform="rotate(108.09 206.58 231.2)"/><rect x="408.99" y="741.95" width="18.38" height="1.67" rx="1" fill="#9f6865" opacity="0.05" transform="rotate(119.47 408.99 741.95)"/><rect x="879.68" y="776.68" width="27.6" height="2.32" rx="1" fill="#24251f" opacity="0.05" transform="rotate(105.36 879.68 776.68)"/><circle cx="1031.34" cy="10.17" r="0.9" fill="#9f6865" opacity="0.06"/><rect x="1271.01" y="769.18" width="13.32" height="1.51" rx="1" fill="#9f6865" opacity="0.08" transform="rotate(140.37 1271.01 769.18)"/><rect x="131.17" y="700.51" width="22.67" height="0.89" rx="1" fill="#9f6865" opacity="0.07" transform="rotate(75.69 131.17 700.51)"/><rect x="516.12" y="384.82" width="12.08" height="1.17" rx="1" fill="#24251f" opacity="0.08" transform="rotate(13.03 516.12 384.82)"/><rect x="619.22" y="841.14" width="24.29" height="2.2" rx="1" fill="#9f6865" opacity="0.06" transform="rotate(40.15 619.22 841.14)"/><rect x="508" y="501.61" width="12.33" height="0.88" rx="1" fill="#9f6865" opacity="0.07" transform="rotate(49.35 508 501.61)"/><rect x="1081.04" y="119.31" width="23.66" height="1.59" rx="1" fill="#9f6865" opacity="0.03" transform="rotate(176.08 1081.04 119.31)"/><circle cx="433.1" cy="1021.23" r="0.99" fill="#9f6865" opacity="0.05"/><rect x="273.42" y="965.89" width="27.46" height="1.5" rx="1" fill="#9f6865" opacity="0.03" transform="rotate(52.32 273.42 965.89)"/><rect x="224.86" y="231.87" width="25.88" height="2.21" rx="1" fill="#9f6865" opacity="0.05" transform="rotate(100.1 224.86 231.87)"/><rect x="777.86" y="292.36" width="8.95" height="2.19" rx="1" fill="#9f6865" opacity="0.06" transform="rotate(1.86 777.86 292.36)"/><rect x="128.14" y="89.43" width="17.48" height="1.57" rx="1" fill="#9f6865" opacity="0.03" transform="rotate(45.86 128.14 89.43)"/><rect x="1104.85" y="938.83" width="27.73" height="1.74" rx="1" fill="#9f6865" opacity="0.05" transform="rotate(116.35 1104.85 938.83)"/><circle cx="1212.11" cy="330.74" r="1.28" fill="#9f6865" opacity="0.03"/><rect x="108.51" y="781.74" width="26.45" height="2.27" rx="1" fill="#24251f" opacity="0.08" transform="rotate(88.92 108.51 781.74)"/><rect x="456.39" y="786.03" width="19.45" height="1.07" rx="1" fill="#9f6865" opacity="0.06" transform="rotate(176.91 456.39 786.03)"/><circle cx="1436.7" cy="928.23" r="2.15" fill="#24251f" opacity="0.04"/><circle cx="572.27" cy="859.26" r="1.06" fill="#9f6865" opacity="0.07"/><rect x="121.38" y="895.45" width="26.18" height="2.2" rx="1" fill="#24251f" opacity="0.04" transform="rotate(147.2 121.38 895.45)"/><rect x="432.89" y="394.51" width="13.99" height="0.81" rx="1" fill="#9f6865" opacity="0.07" transform="rotate(154.01 432.89 394.51)"/><circle cx="306.31" cy="303.86" r="1.49" fill="#24251f" opacity="0.07"/><rect x="137.85" y="82.8" width="7.23" height="2.51" rx="1" fill="#9f6865" opacity="0.03" transform="rotate(28.2 137.85 82.8)"/><rect x="173.48" y="262.72" width="24.11" height="0.98" rx="1" fill="#9f6865" opacity="0.07" transform="rotate(138.75 173.48 262.72)"/><rect x="419.87" y="578.27" width="18.7" height="1.68" rx="1" fill="#9f6865" opacity="0.04" transform="rotate(14.5 419.87 578.27)"/><rect x="157.74" y="956.89" width="20.6" height="1.08" rx="1" fill="#9f6865" opacity="0.03" transform="rotate(129.1 157.74 956.89)"/><rect x="418.41" y="967.18" width="27.82" height="1.83" rx="1" fill="#24251f" opacity="0.05" transform="rotate(91.04 418.41 967.18)"/><rect x="1284.48" y="1028.51" width="9.41" height="1.23" rx="1" fill="#9f6865" opacity="0.05" transform="rotate(127.21 1284.48 1028.51)"/><rect x="337.27" y="403.47" width="12.29" height="0.8" rx="1" fill="#9f6865" opacity="0.04" transform="rotate(150.36 337.27 403.47)"/><rect x="1370.88" y="520.1" width="8.37" height="1.81" rx="1" fill="#9f6865" opacity="0.06" transform="rotate(121.58 1370.88 520.1)"/><rect x="414.33" y="422.14" width="20.06" height="2.34" rx="1" fill="#9f6865" opacity="0.07" transform="rotate(14.02 414.33 422.14)"/><rect x="629.95" y="120.81" width="19.91" height="2.08" rx="1" fill="#9f6865" opacity="0.05" transform="rotate(39.66 629.95 120.81)"/><rect x="1113.29" y="24.78" width="8.33" height="0.83" rx="1" fill="#9f6865" opacity="0.03" transform="rotate(138.2 1113.29 24.78)"/><circle cx="205.23" cy="701.44" r="0.96" fill="#24251f" opacity="0.03"/><circle cx="537.97" cy="999.46" r="1.56" fill="#9f6865" opacity="0.03"/><rect x="905.32" y="752.3" width="21.4" height="1.86" rx="1" fill="#9f6865" opacity="0.05" transform="rotate(78.83 905.32 752.3)"/><rect x="1266.08" y="615.99" width="18.01" height="2.23" rx="1" fill="#9f6865" opacity="0.08" transform="rotate(75.83 1266.08 615.99)"/><circle cx="723.66" cy="218.72" r="1.46" fill="#24251f" opacity="0.05"/><rect x="1242.07" y="532.5" width="9.25" height="1.32" rx="1" fill="#9f6865" opacity="0.05" transform="rotate(70.94 1242.07 532.5)"/><rect x="219.39" y="545.72" width="6.98" height="2.18" rx="1" fill="#24251f" opacity="0.06" transform="rotate(80.5 219.39 545.72)"/><circle cx="84.4" cy="553.44" r="1.96" fill="#24251f" opacity="0.04"/><circle cx="772.48" cy="294.53" r="1.8" fill="#9f6865" opacity="0.03"/><rect x="283.23" y="688.07" width="22.15" height="2.25" rx="1" fill="#9f6865" opacity="0.06" transform="rotate(105.4 283.23 688.07)"/><circle cx="952.27" cy="28.05" r="1.27" fill="#9f6865" opacity="0.06"/><circle cx="818.43" cy="629.22" r="1.15" fill="#24251f" opacity="0.06"/><circle cx="164.55" cy="446.21" r="1.36" fill="#24251f" opacity="0.03"/><circle cx="1268.29" cy="221.23" r="1.65" fill="#9f6865" opacity="0.03"/><circle cx="516.21" cy="0.32" r="2.04" fill="#24251f" opacity="0.03"/><circle cx="617.87" cy="1030.42" r="2.16" fill="#24251f" opacity="0.07"/><rect x="1488.65" y="216.76" width="14.06" height="1.29" rx="1" fill="#24251f" opacity="0.07" transform="rotate(151.35 1488.65 216.76)"/><rect x="296.2" y="92.42" width="10.85" height="1.75" rx="1" fill="#24251f" opacity="0.07" transform="rotate(154.07 296.2 92.42)"/><rect x="1005.51" y="915.44" width="25.31" height="1.6" rx="1" fill="#24251f" opacity="0.04" transform="rotate(122.88 1005.51 915.44)"/><circle cx="135.43" cy="893.65" r="2.11" fill="#24251f" opacity="0.04"/><circle cx="1489.72" cy="1043.41" r="2.06" fill="#24251f" opacity="0.03"/><rect x="1331.1" y="1004.91" width="27.39" height="1.42" rx="1" fill="#9f6865" opacity="0.03" transform="rotate(128.39 1331.1 1004.91)"/><rect x="566.03" y="1099.02" width="27.81" height="0.87" rx="1" fill="#24251f" opacity="0.06" transform="rotate(52.96 566.03 1099.02)"/><rect x="1086.19" y="508.49" width="14.92" height="1.61" rx="1" fill="#24251f" opacity="0.08" transform="rotate(27.33 1086.19 508.49)"/><rect x="527.55" y="402.15" width="15.99" height="1.59" rx="1" fill="#9f6865" opacity="0.03" transform="rotate(160.46 527.55 402.15)"/><rect x="664.14" y="336.85" width="12.71" height="2.34" rx="1" fill="#24251f" opacity="0.07" transform="rotate(66.91 664.14 336.85)"/><rect x="1140.24" y="1046.41" width="13.41" height="2.29" rx="1" fill="#9f6865" opacity="0.05" transform="rotate(132.99 1140.24 1046.41)"/><rect x="388.7" y="511.67" width="7.38" height="1.21" rx="1" fill="#24251f" opacity="0.06" transform="rotate(171.46 388.7 511.67)"/><circle cx="1165.93" cy="726.13" r="1.71" fill="#9f6865" opacity="0.04"/><rect x="1027.64" y="647.99" width="6.63" height="0.94" rx="1" fill="#9f6865" opacity="0.03" transform="rotate(76.92 1027.64 647.99)"/><circle cx="1409.43" cy="360" r="1.6" fill="#9f6865" opacity="0.04"/><rect x="572.55" y="1064.73" width="14.01" height="1.48" rx="1" fill="#9f6865" opacity="0.05" transform="rotate(53.9 572.55 1064.73)"/><rect x="660.28" y="558.14" width="16.21" height="1.11" rx="1" fill="#9f6865" opacity="0.05" transform="rotate(46.98 660.28 558.14)"/><circle cx="611.28" cy="494.16" r="2.18" fill="#9f6865" opacity="0.05"/><circle cx="833.11" cy="92.54" r="1.54" fill="#24251f" opacity="0.04"/><circle cx="26.8" cy="57.27" r="1.44" fill="#24251f" opacity="0.03"/><rect x="598.41" y="468.26" width="22.54" height="1.35" rx="1" fill="#9f6865" opacity="0.05" transform="rotate(80.04 598.41 468.26)"/><rect x="1441.15" y="897.38" width="26.49" height="1.39" rx="1" fill="#9f6865" opacity="0.07" transform="rotate(46.07 1441.15 897.38)"/><rect x="1263.57" y="310.68" width="18.16" height="2.4" rx="1" fill="#9f6865" opacity="0.07" transform="rotate(78.88 1263.57 310.68)"/><circle cx="314.48" cy="437.86" r="1.19" fill="#9f6865" opacity="0.07"/><rect x="1554.32" y="643.7" width="10.78" height="1.16" rx="1" fill="#24251f" opacity="0.04" transform="rotate(129.1 1554.32 643.7)"/><rect x="178.86" y="626.73" width="24.99" height="1.47" rx="1" fill="#24251f" opacity="0.05" transform="rotate(60.7 178.86 626.73)"/><circle cx="347.18" cy="55" r="1.41" fill="#9f6865" opacity="0.04"/><rect x="229.97" y="466.17" width="11.47" height="1.8" rx="1" fill="#24251f" opacity="0.03" transform="rotate(114.41 229.97 466.17)"/><rect x="129.33" y="252.02" width="18.13" height="1.67" rx="1" fill="#9f6865" opacity="0.06" transform="rotate(139.01 129.33 252.02)"/><rect x="135.05" y="533.87" width="6.74" height="1.73" rx="1" fill="#24251f" opacity="0.08" transform="rotate(146 135.05 533.87)"/><circle cx="596.59" cy="319.69" r="1.22" fill="#9f6865" opacity="0.08"/><circle cx="11.67" cy="1059.7" r="1.05" fill="#9f6865" opacity="0.05"/><circle cx="1589.97" cy="879.46" r="2.14" fill="#9f6865" opacity="0.03"/><rect x="1380.65" y="103.66" width="23.4" height="2.44" rx="1" fill="#24251f" opacity="0.05" transform="rotate(153.87 1380.65 103.66)"/><circle cx="143.23" cy="173.99" r="2.26" fill="#24251f" opacity="0.07"/><rect x="379.56" y="693.41" width="11.27" height="1.81" rx="1" fill="#9f6865" opacity="0.04" transform="rotate(127.78 379.56 693.41)"/><rect x="1159.75" y="804.13" width="14.92" height="1.61" rx="1" fill="#9f6865" opacity="0.07" transform="rotate(30.55 1159.75 804.13)"/><rect x="1063.28" y="1007.7" width="14.69" height="2.53" rx="1" fill="#24251f" opacity="0.04" transform="rotate(152.85 1063.28 1007.7)"/><rect x="1188.98" y="985.97" width="8.53" height="1.84" rx="1" fill="#9f6865" opacity="0.04" transform="rotate(147.37 1188.98 985.97)"/><circle cx="1421.47" cy="666.2" r="0.95" fill="#24251f" opacity="0.06"/><rect x="1451.15" y="730.17" width="18.4" height="1.91" rx="1" fill="#9f6865" opacity="0.07" transform="rotate(106.34 1451.15 730.17)"/><rect x="410.83" y="618.93" width="26.46" height="1.01" rx="1" fill="#9f6865" opacity="0.06" transform="rotate(73.73 410.83 618.93)"/>
  <circle cx="1350" cy="178" r="184" fill="#9f6865" opacity="0.06"/>
  <circle cx="220" cy="894" r="220" fill="#596153" opacity="0.08"/>
  <g transform="rotate(-6 531 510)">
    <ellipse cx="528" cy="869.6" rx="169.6" ry="11" fill="#1f211d" opacity="0.12"/>
    <path d="M 410 304 C 420 244, 600 244, 610 304" fill="none" stroke="#303229" stroke-width="7" opacity="0.7"/>
    <rect x="350" y="300" width="320" height="460" rx="8" fill="#fff9f7"/>
    <polygon points="670,300 712,330 712,740 670,760" fill="#dab4b1"/>
    <text x="510" y="500" text-anchor="middle" class="brand" fill="#24251f" font-size="48">ATELIER</text>
    <rect x="446" y="535" width="128" height="4" rx="2" fill="#9f6865"/>
  </g><g transform="rotate(8 805 385)">
    <ellipse cx="817" cy="531.8" rx="90.1" ry="28" fill="#1f211d" opacity="0.09"/>
    <rect x="720" y="245" width="170" height="280" rx="7" fill="#fff9f7"/>
    <circle cx="805" cy="273" r="8" fill="#f4ece9" stroke="#24251f" stroke-opacity="0.18"/>
    <text x="805" y="396.2" text-anchor="middle" class="brand" fill="#24251f" font-size="23.8">AT</text>
    <rect x="757.4" y="429.8" width="95.2" height="3" rx="2" fill="#9f6865"/>
  </g><g transform="rotate(4 1080 565)">
    <ellipse cx="1098" cy="722.4" rx="243.8" ry="29" fill="#1f211d" opacity="0.12"/>
    <rect x="850" y="420" width="460" height="290" rx="6" fill="#fff9f7"/>
    <rect x="1079" y="444" width="2" height="242" fill="#24251f" opacity="0.12"/>
    <rect x="882" y="460" width="160" height="210" rx="4" fill="#dab4b1"/>
    <path d="M 900 599.8 C 923.4 547.6, 969.4 631.7, 1056.8 518.6" fill="none" stroke="#fff9f7" stroke-width="5" opacity="0.72"/>
    <text x="1124" y="508" class="brand" fill="#24251f" font-size="25.3">LOOKBOOK</text>
    <rect x="1124" y="558" width="53.2" height="3" rx="2" fill="#24251f" opacity="0.42"/><rect x="1124" y="580" width="79.8" height="2" rx="2" fill="#24251f" opacity="0.22"/><rect x="1124" y="602" width="106.4" height="2" rx="2" fill="#24251f" opacity="0.22"/><rect x="1124" y="624" width="60.2" height="2" rx="2" fill="#24251f" opacity="0.22"/><rect x="1124" y="646" width="86.8" height="2" rx="2" fill="#24251f" opacity="0.22"/><rect x="1124" y="668" width="113.4" height="2" rx="2" fill="#24251f" opacity="0.22"/><rect x="1124" y="690" width="67.2" height="2" rx="2" fill="#24251f" opacity="0.22"/><rect x="1124" y="712" width="93.8" height="2" rx="2" fill="#24251f" opacity="0.22"/><rect x="1124" y="734" width="120.4" height="2" rx="2" fill="#24251f" opacity="0.22"/>
  </g>
  <g opacity="0.72"><text x="78" y="1004" class="micro" fill="#24251f">FASHION IDENTITY</text><text x="78" y="1036" class="micro" fill="#24251f" opacity="0.55">TEMPORARY DEMONSTRATION PORTFOLIO VISUAL / COVER</text></g>
</svg>
