<?xml version="1.0" encoding="UTF-8"?>
<svg xmlns="http://www.w3.org/2000/svg" width="1600" height="1100" viewBox="0 0 1600 1100" role="img" aria-labelledby="title desc">
  <title id="title">ATELIER gallery-3 demo portfolio mockup</title>
  <desc id="desc">Temporary fictional demonstration project imagery for portfolio presentation only, not client work.</desc>
  <defs>
    <linearGradient id="bg_atelier_gallery_3" x1="0" y1="0" x2="1" y2="1">
      <stop offset="0%" stop-color="#fff9f7"/>
      <stop offset="58%" stop-color="#f4ece9"/>
      <stop offset="100%" stop-color="#dab4b1"/>
    </linearGradient>
    <radialGradient id="light_atelier_gallery_3" cx="74%" cy="18%" r="64%">
      <stop offset="0%" stop-color="#ffffff" stop-opacity="0.62"/>
      <stop offset="100%" stop-color="#ffffff" stop-opacity="0"/>
    </radialGradient>
  </defs>
  <style><![CDATA[
    .brand { font-family: Didot, Georgia, serif; font-weight: 500; letter-spacing: .02em; }
    .body { font-family: Helvetica, Arial, sans-serif; font-weight: 500; }
    .micro { font-family: Helvetica, Arial, sans-serif; font-size: 20px; font-weight: 700; letter-spacing: .12em; }
  ]]></style>
  <rect width="1600" height="1100" fill="url(#bg_atelier_gallery_3)"/>
  <rect width="1600" height="1100" fill="url(#light_atelier_gallery_3)"/>
  <rect x="722.31" y="558.02" width="8.45" height="1.92" rx="1" fill="#24251f" opacity="0.04" transform="rotate(54.36 722.31 558.02)"/><circle cx="1203.6" cy="283.44" r="1.42" fill="#9f6865" opacity="0.03"/><rect x="212.01" y="184.26" width="14.92" height="2.5" rx="1" fill="#24251f" opacity="0.03" transform="rotate(21.89 212.01 184.26)"/><rect x="999.34" y="1036.3" width="6.39" height="1.94" rx="1" fill="#24251f" opacity="0.06" transform="rotate(160.49 999.34 1036.3)"/><rect x="195.98" y="761.74" width="13.49" height="1.41" rx="1" fill="#9f6865" opacity="0.06" transform="rotate(35.84 195.98 761.74)"/><rect x="977.89" y="472.08" width="6.94" height="2.4" rx="1" fill="#24251f" opacity="0.04" transform="rotate(112.95 977.89 472.08)"/><circle cx="1118.6" cy="56.14" r="1.49" fill="#24251f" opacity="0.04"/><rect x="1250.25" y="702.66" width="9.61" height="2.4" rx="1" fill="#9f6865" opacity="0.03" transform="rotate(121.27 1250.25 702.66)"/><circle cx="1096.01" cy="411.07" r="2.21" fill="#9f6865" opacity="0.03"/><circle cx="359.28" cy="400.07" r="2.05" fill="#9f6865" opacity="0.04"/><circle cx="1063.76" cy="56.48" r="1.2" fill="#24251f" opacity="0.05"/><rect x="960.64" y="1020.69" width="7.12" height="1.09" rx="1" fill="#9f6865" opacity="0.06" transform="rotate(25.77 960.64 1020.69)"/><circle cx="1297.32" cy="406.98" r="1.25" fill="#9f6865" opacity="0.07"/><circle cx="1523.83" cy="841.84" r="1.36" fill="#24251f" opacity="0.06"/><rect x="583.96" y="225.84" width="23.32" height="1.18" rx="1" fill="#24251f" opacity="0.03" transform="rotate(118.16 583.96 225.84)"/><rect x="1528.47" y="783.45" width="26.83" height="1.82" rx="1" fill="#9f6865" opacity="0.06" transform="rotate(56.87 1528.47 783.45)"/><circle cx="848.38" cy="438.21" r="0.89" fill="#9f6865" opacity="0.05"/><circle cx="536.03" cy="189.73" r="1.13" fill="#9f6865" opacity="0.04"/><circle cx="1101.51" cy="7.21" r="1.38" fill="#24251f" opacity="0.07"/><circle cx="998.02" cy="356.4" r="1.18" fill="#9f6865" opacity="0.04"/><rect x="1379.24" y="524.05" width="7.9" height="1.34" rx="1" fill="#9f6865" opacity="0.03" transform="rotate(23.65 1379.24 524.05)"/><circle cx="1363.28" cy="971.22" r="0.83" fill="#9f6865" opacity="0.05"/><rect x="994.79" y="296.87" width="25.81" height="1.42" rx="1" fill="#9f6865" opacity="0.05" transform="rotate(55.3 994.79 296.87)"/><rect x="1093.89" y="216.89" width="13.01" height="2.32" rx="1" fill="#24251f" opacity="0.04" transform="rotate(105.2 1093.89 216.89)"/><rect x="37.48" y="866.24" width="10.97" height="2.44" rx="1" fill="#24251f" opacity="0.04" transform="rotate(38.09 37.48 866.24)"/><rect x="1443.51" y="362.56" width="23.21" height="0.88" rx="1" fill="#9f6865" opacity="0.05" transform="rotate(4.32 1443.51 362.56)"/><rect x="857.55" y="622.45" width="20.51" height="2.33" rx="1" fill="#9f6865" opacity="0.03" transform="rotate(146.9 857.55 622.45)"/><circle cx="651.63" cy="503.98" r="1.18" fill="#24251f" opacity="0.06"/><rect x="14.21" y="764.86" width="26.32" height="1.36" rx="1" fill="#9f6865" opacity="0.07" transform="rotate(34.55 14.21 764.86)"/><circle cx="327.18" cy="177.86" r="1.65" fill="#24251f" opacity="0.07"/><circle cx="915.36" cy="326.08" r="1.86" fill="#9f6865" opacity="0.05"/><rect x="646.89" y="310.47" width="15.73" height="1.53" rx="1" fill="#24251f" opacity="0.08" transform="rotate(40.76 646.89 310.47)"/><circle cx="1219.14" cy="423.82" r="2.06" fill="#24251f" opacity="0.08"/><rect x="1516.07" y="618.82" width="22.51" height="0.81" rx="1" fill="#9f6865" opacity="0.08" transform="rotate(69.58 1516.07 618.82)"/><rect x="855.08" y="1017.7" width="26.91" height="2.5" rx="1" fill="#9f6865" opacity="0.03" transform="rotate(149.26 855.08 1017.7)"/><rect x="1350.78" y="138.07" width="16.39" height="2.45" rx="1" fill="#9f6865" opacity="0.08" transform="rotate(43.55 1350.78 138.07)"/><circle cx="1509.16" cy="694.36" r="1.14" fill="#24251f" opacity="0.06"/><rect x="954.29" y="104.81" width="19.5" height="1.19" rx="1" fill="#24251f" opacity="0.07" transform="rotate(151.94 954.29 104.81)"/><circle cx="461.12" cy="860.28" r="2.04" fill="#24251f" opacity="0.03"/><rect x="1572.62" y="72.52" width="16.6" height="1.13" rx="1" fill="#24251f" opacity="0.05" transform="rotate(39.07 1572.62 72.52)"/><rect x="857.13" y="742.2" width="10.46" height="1.83" rx="1" fill="#9f6865" opacity="0.04" transform="rotate(144.33 857.13 742.2)"/><rect x="645.97" y="614.92" width="16.79" height="1.23" rx="1" fill="#24251f" opacity="0.06" transform="rotate(103.7 645.97 614.92)"/><circle cx="792.64" cy="455.02" r="0.87" fill="#9f6865" opacity="0.06"/><rect x="112.48" y="1045.44" width="16.68" height="0.98" rx="1" fill="#9f6865" opacity="0.05" transform="rotate(31.21 112.48 1045.44)"/><rect x="1239.68" y="359.41" width="11.59" height="1.1" rx="1" fill="#24251f" opacity="0.07" transform="rotate(76.39 1239.68 359.41)"/><circle cx="252.34" cy="81.53" r="1.56" fill="#24251f" opacity="0.03"/><rect x="1468.64" y="1078.94" width="13.51" height="2.28" rx="1" fill="#24251f" opacity="0.04" transform="rotate(85.05 1468.64 1078.94)"/><circle cx="821.82" cy="629.71" r="1.77" fill="#9f6865" opacity="0.05"/><circle cx="399.23" cy="590.71" r="0.82" fill="#24251f" opacity="0.08"/><circle cx="1195.2" cy="743.22" r="2.26" fill="#24251f" opacity="0.03"/><circle cx="810.51" cy="634.08" r="1.88" fill="#24251f" opacity="0.03"/><circle cx="1089.07" cy="1070.22" r="2.04" fill="#9f6865" opacity="0.04"/><rect x="1407.64" y="733.33" width="19.12" height="1.94" rx="1" fill="#9f6865" opacity="0.06" transform="rotate(137.2 1407.64 733.33)"/><circle cx="755.43" cy="529.74" r="0.99" fill="#24251f" opacity="0.05"/><rect x="864.73" y="827.92" width="11.65" height="1.4" rx="1" fill="#9f6865" opacity="0.06" transform="rotate(54.89 864.73 827.92)"/><rect x="1153.19" y="159.46" width="12.92" height="1.77" rx="1" fill="#9f6865" opacity="0.03" transform="rotate(110.49 1153.19 159.46)"/><circle cx="689.08" cy="348.81" r="1.14" fill="#24251f" opacity="0.08"/><rect x="764.88" y="1017.43" width="15.42" height="1.88" rx="1" fill="#24251f" opacity="0.06" transform="rotate(43.76 764.88 1017.43)"/><circle cx="1228.82" cy="64.94" r="1.58" fill="#9f6865" opacity="0.08"/><circle cx="415.36" cy="1009.17" r="1.12" fill="#24251f" opacity="0.06"/><circle cx="679.18" cy="608.5" r="1.71" fill="#24251f" opacity="0.07"/><circle cx="1205.45" cy="53.64" r="1" fill="#24251f" opacity="0.03"/><rect x="794.37" y="722.61" width="10.52" height="0.84" rx="1" fill="#24251f" opacity="0.07" transform="rotate(144.97 794.37 722.61)"/><circle cx="914.01" cy="15.39" r="0.96" fill="#9f6865" opacity="0.03"/><rect x="1495.36" y="927.7" width="6.89" height="1.52" rx="1" fill="#9f6865" opacity="0.06" transform="rotate(51.82 1495.36 927.7)"/><circle cx="851.24" cy="987.33" r="0.98" fill="#24251f" opacity="0.05"/><rect x="342.01" y="825.14" width="6.94" height="1.46" rx="1" fill="#9f6865" opacity="0.08" transform="rotate(105.03 342.01 825.14)"/><rect x="1532.17" y="420.2" width="10.09" height="0.94" rx="1" fill="#24251f" opacity="0.03" transform="rotate(75.14 1532.17 420.2)"/><rect x="712.32" y="686.67" width="18.41" height="2.04" rx="1" fill="#24251f" opacity="0.05" transform="rotate(136.49 712.32 686.67)"/><circle cx="718.58" cy="490.1" r="1.1" fill="#9f6865" opacity="0.04"/><rect x="658.39" y="356.31" width="13" height="2.04" rx="1" fill="#9f6865" opacity="0.06" transform="rotate(117.05 658.39 356.31)"/><rect x="183.04" y="141.17" width="26.99" height="2.43" rx="1" fill="#9f6865" opacity="0.07" transform="rotate(7.65 183.04 141.17)"/><rect x="705.46" y="424.47" width="24.66" height="1.07" rx="1" fill="#9f6865" opacity="0.03" transform="rotate(156.24 705.46 424.47)"/><rect x="495.65" y="395.8" width="27.2" height="2.18" rx="1" fill="#9f6865" opacity="0.08" transform="rotate(162.39 495.65 395.8)"/><circle cx="1250.93" cy="864.87" r="1.63" fill="#24251f" opacity="0.07"/><rect x="1055.58" y="509.81" width="6.1" height="2.32" rx="1" fill="#9f6865" opacity="0.05" transform="rotate(102.16 1055.58 509.81)"/><rect x="532.18" y="555.44" width="11.78" height="0.85" rx="1" fill="#24251f" opacity="0.07" transform="rotate(5.54 532.18 555.44)"/><rect x="633.11" y="730.41" width="13.06" height="2.22" rx="1" fill="#24251f" opacity="0.05" transform="rotate(110.3 633.11 730.41)"/><circle cx="628" cy="765.98" r="2.16" fill="#24251f" opacity="0.03"/><rect x="366.09" y="762.37" width="9.07" height="1.86" rx="1" fill="#9f6865" opacity="0.03" transform="rotate(124.26 366.09 762.37)"/><rect x="1040.61" y="479.96" width="19.38" height="2.53" rx="1" fill="#9f6865" opacity="0.07" transform="rotate(89.31 1040.61 479.96)"/><rect x="253.61" y="248.39" width="27.11" height="1.95" rx="1" fill="#24251f" opacity="0.03" transform="rotate(85.28 253.61 248.39)"/><circle cx="79.37" cy="562.23" r="1.01" fill="#24251f" opacity="0.06"/><rect x="1507.06" y="920.72" width="14.72" height="0.91" rx="1" fill="#9f6865" opacity="0.03" transform="rotate(49.6 1507.06 920.72)"/><circle cx="1454.24" cy="905.58" r="1.25" fill="#24251f" opacity="0.03"/><rect x="1064.37" y="1032.3" width="14.78" height="1.5" rx="1" fill="#9f6865" opacity="0.04" transform="rotate(65.82 1064.37 1032.3)"/><rect x="1586.35" y="968.42" width="27.84" height="2.13" rx="1" fill="#24251f" opacity="0.05" transform="rotate(50.36 1586.35 968.42)"/><circle cx="1448.95" cy="960.27" r="1.25" fill="#9f6865" opacity="0.05"/><circle cx="852.27" cy="217.3" r="1.63" fill="#9f6865" opacity="0.07"/><rect x="160.94" y="435.64" width="10.65" height="0.91" rx="1" fill="#9f6865" opacity="0.04" transform="rotate(163.42 160.94 435.64)"/><rect x="934.25" y="904.27" width="14.14" height="1.99" rx="1" fill="#9f6865" opacity="0.03" transform="rotate(144.8 934.25 904.27)"/><rect x="544.27" y="163.17" width="7.71" height="1.25" rx="1" fill="#24251f" opacity="0.07" transform="rotate(139.51 544.27 163.17)"/><circle cx="98.23" cy="459.1" r="0.71" fill="#9f6865" opacity="0.03"/><circle cx="29.3" cy="807.74" r="0.92" fill="#24251f" opacity="0.03"/><circle cx="1474.75" cy="635.9" r="1.2" fill="#9f6865" opacity="0.03"/><circle cx="1378.31" cy="170.86" r="0.91" fill="#9f6865" opacity="0.07"/><rect x="76.34" y="9.58" width="11.09" height="2.6" rx="1" fill="#24251f" opacity="0.03" transform="rotate(127.12 76.34 9.58)"/><rect x="1567.51" y="757.32" width="27.95" height="1.29" rx="1" fill="#9f6865" opacity="0.05" transform="rotate(79.53 1567.51 757.32)"/><circle cx="983.57" cy="1065.48" r="2.04" fill="#9f6865" opacity="0.06"/><rect x="324.78" y="162.92" width="16.84" height="1.63" rx="1" fill="#24251f" opacity="0.04" transform="rotate(63.63 324.78 162.92)"/><circle cx="485.65" cy="604.59" r="1.37" fill="#24251f" opacity="0.08"/><circle cx="1261.78" cy="385.95" r="2.09" fill="#9f6865" opacity="0.06"/><rect x="1225.84" y="604.92" width="24.88" height="1.97" rx="1" fill="#9f6865" opacity="0.06" transform="rotate(134.28 1225.84 604.92)"/><circle cx="1102.28" cy="991.93" r="1.93" fill="#9f6865" opacity="0.07"/><rect x="591.53" y="458.12" width="27.21" height="1.41" rx="1" fill="#9f6865" opacity="0.06" transform="rotate(54.3 591.53 458.12)"/><rect x="950.23" y="227.08" width="24.65" height="1.72" rx="1" fill="#24251f" opacity="0.06" transform="rotate(59.47 950.23 227.08)"/><rect x="1451.93" y="2.19" width="17.6" height="1.77" rx="1" fill="#9f6865" opacity="0.07" transform="rotate(33.56 1451.93 2.19)"/><rect x="804.18" y="582.44" width="14.97" height="2.24" rx="1" fill="#9f6865" opacity="0.04" transform="rotate(141.57 804.18 582.44)"/><rect x="1461.86" y="525.96" width="24.72" height="2.07" rx="1" fill="#24251f" opacity="0.05" transform="rotate(19.52 1461.86 525.96)"/><rect x="1227.07" y="458.82" width="21.27" height="1.86" rx="1" fill="#24251f" opacity="0.03" transform="rotate(101.81 1227.07 458.82)"/><rect x="1128.17" y="555.09" width="7.7" height="2.23" rx="1" fill="#9f6865" opacity="0.07" transform="rotate(70.4 1128.17 555.09)"/><rect x="148.43" y="543.88" width="26.97" height="1.36" rx="1" fill="#9f6865" opacity="0.07" transform="rotate(73.79 148.43 543.88)"/><rect x="681.37" y="389" width="25.93" height="0.96" rx="1" fill="#9f6865" opacity="0.03" transform="rotate(59.77 681.37 389)"/><circle cx="575.29" cy="377.55" r="2.16" fill="#9f6865" opacity="0.05"/><circle cx="350.17" cy="526.26" r="1.27" fill="#9f6865" opacity="0.04"/><rect x="439.33" y="703.48" width="25.7" height="2.11" rx="1" fill="#24251f" opacity="0.05" transform="rotate(18.09 439.33 703.48)"/><rect x="1374.09" y="267.2" width="11.01" height="1.2" rx="1" fill="#9f6865" opacity="0.08" transform="rotate(53.26 1374.09 267.2)"/><rect x="607.59" y="766.28" width="10.24" height="1.54" rx="1" fill="#24251f" opacity="0.08" transform="rotate(140.33 607.59 766.28)"/><rect x="1387.21" y="964.44" width="19.89" height="0.91" rx="1" fill="#24251f" opacity="0.03" transform="rotate(122.74 1387.21 964.44)"/><circle cx="493.49" cy="291.85" r="2.15" fill="#9f6865" opacity="0.04"/><rect x="1446.81" y="375.17" width="18.48" height="2.5" rx="1" fill="#9f6865" opacity="0.06" transform="rotate(115.86 1446.81 375.17)"/><rect x="780.39" y="1018.61" width="9.11" height="2.06" rx="1" fill="#9f6865" opacity="0.04" transform="rotate(167.1 780.39 1018.61)"/><rect x="387.13" y="745.39" width="17.72" height="0.83" rx="1" fill="#9f6865" opacity="0.03" transform="rotate(170.24 387.13 745.39)"/><rect x="176.03" y="604.21" width="22.94" height="2.56" rx="1" fill="#9f6865" opacity="0.08" transform="rotate(43.54 176.03 604.21)"/><rect x="938.81" y="1085.01" width="9.59" height="1.5" rx="1" fill="#24251f" opacity="0.06" transform="rotate(167.98 938.81 1085.01)"/><rect x="458.14" y="1056.67" width="18.77" height="1.99" rx="1" fill="#9f6865" opacity="0.04" transform="rotate(52.96 458.14 1056.67)"/><rect x="177.29" y="497.09" width="20.92" height="1.91" rx="1" fill="#9f6865" opacity="0.03" transform="rotate(105.66 177.29 497.09)"/><rect x="487.02" y="293.14" width="6.79" height="1.85" rx="1" fill="#24251f" opacity="0.08" transform="rotate(18.38 487.02 293.14)"/><rect x="1133.76" y="288.39" width="6.1" height="1.38" rx="1" fill="#9f6865" opacity="0.05" transform="rotate(123.98 1133.76 288.39)"/><rect x="163.14" y="377.68" width="27.7" height="2.46" rx="1" fill="#9f6865" opacity="0.03" transform="rotate(20.34 163.14 377.68)"/><rect x="1405.1" y="32.32" width="20.4" height="1.13" rx="1" fill="#24251f" opacity="0.08" transform="rotate(105.13 1405.1 32.32)"/><circle cx="735.17" cy="615.53" r="0.74" fill="#24251f" opacity="0.08"/><rect x="1439.1" y="184.04" width="11.94" height="1.09" rx="1" fill="#24251f" opacity="0.05" transform="rotate(99.22 1439.1 184.04)"/><rect x="1542.42" y="440.76" width="25.32" height="1.13" rx="1" fill="#9f6865" opacity="0.03" transform="rotate(57.71 1542.42 440.76)"/><rect x="879.4" y="283.37" width="21.38" height="2.29" rx="1" fill="#9f6865" opacity="0.04" transform="rotate(88.84 879.4 283.37)"/><circle cx="638.75" cy="711.75" r="1.28" fill="#9f6865" opacity="0.06"/><circle cx="679.97" cy="517.35" r="1.65" fill="#24251f" opacity="0.06"/><rect x="447.6" y="750.78" width="9.2" height="1.2" rx="1" fill="#24251f" opacity="0.05" transform="rotate(156.12 447.6 750.78)"/><rect x="1575.61" y="267.55" width="7.07" height="1.4" rx="1" fill="#9f6865" opacity="0.06" transform="rotate(60.07 1575.61 267.55)"/><rect x="219.25" y="473.25" width="26.77" height="1.92" rx="1" fill="#9f6865" opacity="0.04" transform="rotate(135.42 219.25 473.25)"/>
  <circle cx="1350" cy="178" r="184" fill="#9f6865" opacity="0.06"/>
  <circle cx="220" cy="894" r="220" fill="#596153" opacity="0.08"/>
  <g transform="rotate(-5 501 500)">
    <ellipse cx="498" cy="866.71" rx="169.6" ry="11.22" fill="#1f211d" opacity="0.12"/>
    <path d="M 380 289 C 390 229, 570 229, 580 289" fill="none" stroke="#303229" stroke-width="7" opacity="0.7"/>
    <rect x="320" y="285" width="320" height="470" rx="8" fill="#fff9f7"/>
    <polygon points="640,285 682,315 682,735 640,755" fill="#dab4b1"/>
    <text x="480" y="489.8" text-anchor="middle" class="brand" fill="#24251f" font-size="48">ATELIER</text>
    <rect x="416" y="525.5" width="128" height="4" rx="2" fill="#9f6865"/>
  </g><g transform="rotate(6 900 500)">
    <ellipse cx="916" cy="671.8" rx="275.6" ry="33" fill="#1f211d" opacity="0.1"/>
    <rect x="640" y="335" width="520" height="330" rx="7" fill="#dab4b1"/>
    <text x="690" y="399" class="micro" fill="#24251f" opacity="0.25">AT</text><text x="783.6" y="399" class="micro" fill="#24251f" opacity="0.25">AT</text><text x="877.2" y="399" class="micro" fill="#24251f" opacity="0.25">AT</text><text x="970.8" y="399" class="micro" fill="#24251f" opacity="0.25">AT</text><text x="1064.4" y="399" class="micro" fill="#24251f" opacity="0.25">AT</text><text x="690" y="471.6" class="micro" fill="#24251f" opacity="0.25">AT</text><text x="783.6" y="471.6" class="micro" fill="#24251f" opacity="0.25">AT</text><text x="877.2" y="471.6" class="micro" fill="#24251f" opacity="0.25">AT</text><text x="970.8" y="471.6" class="micro" fill="#24251f" opacity="0.25">AT</text><text x="1064.4" y="471.6" class="micro" fill="#24251f" opacity="0.25">AT</text><text x="690" y="544.2" class="micro" fill="#24251f" opacity="0.25">AT</text><text x="783.6" y="544.2" class="micro" fill="#24251f" opacity="0.25">AT</text><text x="877.2" y="544.2" class="micro" fill="#24251f" opacity="0.25">AT</text><text x="970.8" y="544.2" class="micro" fill="#24251f" opacity="0.25">AT</text><text x="1064.4" y="544.2" class="micro" fill="#24251f" opacity="0.25">AT</text><text x="690" y="616.8" class="micro" fill="#24251f" opacity="0.25">AT</text><text x="783.6" y="616.8" class="micro" fill="#24251f" opacity="0.25">AT</text><text x="877.2" y="616.8" class="micro" fill="#24251f" opacity="0.25">AT</text><text x="970.8" y="616.8" class="micro" fill="#24251f" opacity="0.25">AT</text><text x="1064.4" y="616.8" class="micro" fill="#24251f" opacity="0.25">AT</text>
  </g><g transform="rotate(-7 1160 745)">
    <ellipse cx="1176" cy="858.4" rx="148.4" ry="19" fill="#1f211d" opacity="0.11"/>
    <rect x="1020" y="650" width="280" height="190" rx="10" fill="#fff9f7"/>
    <rect x="1038" y="668" width="244" height="154" rx="5" fill="none" stroke="#24251f" stroke-opacity="0.11"/>
    <rect x="1054" y="692" width="61.6" height="4" rx="2" fill="#9f6865" opacity="0.84"/>
    <text x="1054" y="714.6" class="brand" fill="#24251f" font-size="33.6">RECEIPT</text>
    <text x="1056" y="748.6" class="micro" fill="#24251f" opacity="0.65">FOLDER</text>
    <rect x="1056" y="760.2" width="76.61" height="3" rx="2" fill="#24251f" opacity="0.42"/><rect x="1056" y="782.2" width="114.91" height="2" rx="2" fill="#24251f" opacity="0.22"/><rect x="1056" y="804.2" width="153.22" height="2" rx="2" fill="#24251f" opacity="0.22"/>
    
  </g>
  <g opacity="0.72"><text x="78" y="1004" class="micro" fill="#24251f">FASHION IDENTITY</text><text x="78" y="1036" class="micro" fill="#24251f" opacity="0.55">TEMPORARY DEMONSTRATION PORTFOLIO VISUAL / GALLERY-3</text></g>
</svg>
