<?xml version="1.0" encoding="UTF-8"?>
<svg xmlns="http://www.w3.org/2000/svg" width="1600" height="1100" viewBox="0 0 1600 1100" role="img" aria-labelledby="title desc">
  <title id="title">ATELIER gallery-2 demo portfolio mockup</title>
  <desc id="desc">Temporary fictional demonstration project imagery for portfolio presentation only, not client work.</desc>
  <defs>
    <linearGradient id="bg_atelier_gallery_2" x1="0" y1="0" x2="1" y2="1">
      <stop offset="0%" stop-color="#fff9f7"/>
      <stop offset="58%" stop-color="#f4ece9"/>
      <stop offset="100%" stop-color="#dab4b1"/>
    </linearGradient>
    <radialGradient id="light_atelier_gallery_2" cx="74%" cy="18%" r="64%">
      <stop offset="0%" stop-color="#ffffff" stop-opacity="0.62"/>
      <stop offset="100%" stop-color="#ffffff" stop-opacity="0"/>
    </radialGradient>
  </defs>
  <style><![CDATA[
    .brand { font-family: Didot, Georgia, serif; font-weight: 500; letter-spacing: .02em; }
    .body { font-family: Helvetica, Arial, sans-serif; font-weight: 500; }
    .micro { font-family: Helvetica, Arial, sans-serif; font-size: 20px; font-weight: 700; letter-spacing: .12em; }
  ]]></style>
  <rect width="1600" height="1100" fill="url(#bg_atelier_gallery_2)"/>
  <rect width="1600" height="1100" fill="url(#light_atelier_gallery_2)"/>
  <rect x="76.35" y="61.38" width="16.2" height="0.88" rx="1" fill="#24251f" opacity="0.03" transform="rotate(87.22 76.35 61.38)"/><rect x="1401.44" y="933.5" width="10.66" height="1.56" rx="1" fill="#24251f" opacity="0.07" transform="rotate(38.49 1401.44 933.5)"/><circle cx="316.09" cy="847.07" r="1.64" fill="#9f6865" opacity="0.05"/><rect x="17.9" y="503.69" width="14.34" height="1.61" rx="1" fill="#24251f" opacity="0.04" transform="rotate(99.78 17.9 503.69)"/><rect x="810.78" y="1077.53" width="16.46" height="0.87" rx="1" fill="#9f6865" opacity="0.04" transform="rotate(164.46 810.78 1077.53)"/><circle cx="526.57" cy="309.52" r="1.84" fill="#9f6865" opacity="0.07"/><rect x="841.05" y="360.76" width="24.14" height="1.32" rx="1" fill="#24251f" opacity="0.07" transform="rotate(156.55 841.05 360.76)"/><circle cx="1430.97" cy="1018.25" r="1.64" fill="#9f6865" opacity="0.03"/><circle cx="1323.68" cy="984.07" r="2.2" fill="#24251f" opacity="0.06"/><circle cx="949.77" cy="470.52" r="2.22" fill="#9f6865" opacity="0.06"/><circle cx="1024.62" cy="918.45" r="1.84" fill="#24251f" opacity="0.05"/><circle cx="1567.96" cy="387.88" r="2.09" fill="#9f6865" opacity="0.05"/><circle cx="1176.13" cy="924.01" r="1.27" fill="#24251f" opacity="0.04"/><rect x="1309.14" y="902.63" width="6.2" height="2.14" rx="1" fill="#9f6865" opacity="0.04" transform="rotate(76.28 1309.14 902.63)"/><circle cx="760.89" cy="1044.6" r="1.38" fill="#24251f" opacity="0.06"/><rect x="981.71" y="274.52" width="6.78" height="2.43" rx="1" fill="#9f6865" opacity="0.05" transform="rotate(63.91 981.71 274.52)"/><rect x="580.81" y="289.05" width="24.83" height="2.31" rx="1" fill="#24251f" opacity="0.07" transform="rotate(147.83 580.81 289.05)"/><rect x="413.48" y="916.23" width="21.31" height="2.52" rx="1" fill="#9f6865" opacity="0.07" transform="rotate(29.98 413.48 916.23)"/><circle cx="794.99" cy="404.52" r="1.82" fill="#24251f" opacity="0.03"/><rect x="276.84" y="248.31" width="19.43" height="1.88" rx="1" fill="#24251f" opacity="0.04" transform="rotate(86.32 276.84 248.31)"/><rect x="823.65" y="507.48" width="11.14" height="2.25" rx="1" fill="#9f6865" opacity="0.05" transform="rotate(0.21 823.65 507.48)"/><rect x="1234.61" y="619.07" width="12.37" height="1.29" rx="1" fill="#9f6865" opacity="0.06" transform="rotate(24.8 1234.61 619.07)"/><rect x="85.55" y="545.64" width="17.08" height="1.22" rx="1" fill="#24251f" opacity="0.07" transform="rotate(76.12 85.55 545.64)"/><rect x="616.75" y="917.2" width="27.21" height="2.58" rx="1" fill="#9f6865" opacity="0.03" transform="rotate(46.45 616.75 917.2)"/><circle cx="185.8" cy="441.17" r="1.38" fill="#24251f" opacity="0.08"/><rect x="716.92" y="700.8" width="23.18" height="2.45" rx="1" fill="#9f6865" opacity="0.05" transform="rotate(118.57 716.92 700.8)"/><rect x="139.72" y="991.39" width="22.17" height="2.4" rx="1" fill="#24251f" opacity="0.06" transform="rotate(26.68 139.72 991.39)"/><rect x="786.39" y="467.65" width="8.61" height="1.89" rx="1" fill="#24251f" opacity="0.03" transform="rotate(149.35 786.39 467.65)"/><rect x="570.67" y="587.78" width="12.79" height="0.92" rx="1" fill="#9f6865" opacity="0.05" transform="rotate(168.4 570.67 587.78)"/><circle cx="1086.2" cy="567" r="1.78" fill="#24251f" opacity="0.06"/><rect x="1183.4" y="56.44" width="19.87" height="1.65" rx="1" fill="#9f6865" opacity="0.06" transform="rotate(157.66 1183.4 56.44)"/><circle cx="1277.6" cy="577.22" r="1.87" fill="#9f6865" opacity="0.06"/><rect x="661.98" y="606.09" width="22.9" height="1.29" rx="1" fill="#9f6865" opacity="0.04" transform="rotate(34.23 661.98 606.09)"/><rect x="1238.21" y="1034.4" width="24.71" height="0.94" rx="1" fill="#9f6865" opacity="0.07" transform="rotate(43.2 1238.21 1034.4)"/><circle cx="1212.72" cy="463.44" r="2.23" fill="#24251f" opacity="0.06"/><circle cx="993.26" cy="333.9" r="1.11" fill="#24251f" opacity="0.03"/><rect x="233.46" y="1037.99" width="21.36" height="1.51" rx="1" fill="#9f6865" opacity="0.04" transform="rotate(30.73 233.46 1037.99)"/><rect x="676.91" y="790.26" width="7.99" height="2.51" rx="1" fill="#24251f" opacity="0.05" transform="rotate(16.78 676.91 790.26)"/><circle cx="1035.35" cy="739.13" r="1.22" fill="#9f6865" opacity="0.06"/><rect x="948.79" y="397.5" width="27.16" height="1.03" rx="1" fill="#9f6865" opacity="0.05" transform="rotate(38.06 948.79 397.5)"/><circle cx="731.83" cy="317.11" r="2.06" fill="#9f6865" opacity="0.04"/><circle cx="272.67" cy="265.11" r="1.29" fill="#9f6865" opacity="0.05"/><rect x="93.09" y="1032.91" width="18.37" height="1.46" rx="1" fill="#24251f" opacity="0.03" transform="rotate(63.88 93.09 1032.91)"/><rect x="216.94" y="1026.39" width="22.57" height="0.8" rx="1" fill="#9f6865" opacity="0.07" transform="rotate(152.46 216.94 1026.39)"/><rect x="1483.07" y="1013.37" width="13.19" height="2.25" rx="1" fill="#24251f" opacity="0.03" transform="rotate(106.44 1483.07 1013.37)"/><rect x="735.66" y="450.52" width="20.26" height="1.83" rx="1" fill="#9f6865" opacity="0.03" transform="rotate(105.18 735.66 450.52)"/><rect x="809.02" y="23.52" width="13.13" height="1.91" rx="1" fill="#9f6865" opacity="0.05" transform="rotate(92.96 809.02 23.52)"/><rect x="1589.69" y="1020.65" width="15.76" height="0.87" rx="1" fill="#9f6865" opacity="0.04" transform="rotate(13.24 1589.69 1020.65)"/><rect x="40.81" y="184.93" width="8.03" height="2.03" rx="1" fill="#9f6865" opacity="0.06" transform="rotate(129.63 40.81 184.93)"/><rect x="612.91" y="1044.5" width="18.98" height="1.89" rx="1" fill="#9f6865" opacity="0.06" transform="rotate(71.75 612.91 1044.5)"/><circle cx="722.2" cy="713.54" r="2.22" fill="#9f6865" opacity="0.07"/><rect x="449.91" y="302.29" width="22.23" height="1.33" rx="1" fill="#24251f" opacity="0.05" transform="rotate(38.93 449.91 302.29)"/><rect x="401.43" y="43.07" width="16.78" height="1.27" rx="1" fill="#24251f" opacity="0.03" transform="rotate(89.8 401.43 43.07)"/><rect x="1132.29" y="1014.95" width="11.82" height="1.92" rx="1" fill="#9f6865" opacity="0.06" transform="rotate(9.55 1132.29 1014.95)"/><circle cx="1421.14" cy="601.7" r="0.89" fill="#9f6865" opacity="0.08"/><rect x="461.56" y="458.59" width="26.82" height="1.71" rx="1" fill="#9f6865" opacity="0.04" transform="rotate(123.36 461.56 458.59)"/><rect x="1592.12" y="1011.68" width="10.26" height="0.94" rx="1" fill="#9f6865" opacity="0.05" transform="rotate(143.94 1592.12 1011.68)"/><rect x="148.74" y="64.62" width="14.64" height="2.28" rx="1" fill="#9f6865" opacity="0.05" transform="rotate(18.09 148.74 64.62)"/><rect x="863.87" y="564.25" width="26.27" height="2.07" rx="1" fill="#24251f" opacity="0.06" transform="rotate(29.69 863.87 564.25)"/><rect x="1120.9" y="329.9" width="26.09" height="1.64" rx="1" fill="#24251f" opacity="0.05" transform="rotate(92.82 1120.9 329.9)"/><circle cx="421.47" cy="312.26" r="1.94" fill="#24251f" opacity="0.04"/><rect x="65.9" y="439.02" width="15.16" height="1.33" rx="1" fill="#9f6865" opacity="0.06" transform="rotate(136.43 65.9 439.02)"/><rect x="500.89" y="898.03" width="14.48" height="2.13" rx="1" fill="#24251f" opacity="0.08" transform="rotate(52.23 500.89 898.03)"/><rect x="373.22" y="164.85" width="27.21" height="0.89" rx="1" fill="#9f6865" opacity="0.04" transform="rotate(41.54 373.22 164.85)"/><rect x="570.51" y="1047.75" width="12.61" height="2.13" rx="1" fill="#24251f" opacity="0.03" transform="rotate(121.7 570.51 1047.75)"/><rect x="190.99" y="41.55" width="14.26" height="2.12" rx="1" fill="#24251f" opacity="0.08" transform="rotate(124.7 190.99 41.55)"/><circle cx="157.59" cy="199.54" r="1.94" fill="#24251f" opacity="0.04"/><circle cx="1217" cy="539.34" r="1.09" fill="#24251f" opacity="0.05"/><rect x="370.67" y="650.46" width="24.25" height="1.38" rx="1" fill="#9f6865" opacity="0.04" transform="rotate(99.48 370.67 650.46)"/><circle cx="5.8" cy="383.61" r="1.55" fill="#24251f" opacity="0.05"/><rect x="1513.28" y="259.61" width="15.92" height="1.68" rx="1" fill="#9f6865" opacity="0.04" transform="rotate(111.82 1513.28 259.61)"/><circle cx="962.91" cy="447.81" r="1.48" fill="#9f6865" opacity="0.08"/><rect x="34.24" y="454.97" width="10.36" height="2.03" rx="1" fill="#9f6865" opacity="0.07" transform="rotate(116.69 34.24 454.97)"/><circle cx="580.61" cy="340.9" r="1.08" fill="#24251f" opacity="0.05"/><circle cx="115.27" cy="41.65" r="1.92" fill="#24251f" opacity="0.04"/><rect x="1125.22" y="695.26" width="24.9" height="2.23" rx="1" fill="#24251f" opacity="0.05" transform="rotate(20.23 1125.22 695.26)"/><rect x="203.54" y="851.42" width="23.35" height="2.48" rx="1" fill="#24251f" opacity="0.07" transform="rotate(8.4 203.54 851.42)"/><circle cx="663.32" cy="492.22" r="0.93" fill="#24251f" opacity="0.07"/><rect x="970.51" y="890.17" width="16.43" height="2.01" rx="1" fill="#24251f" opacity="0.05" transform="rotate(28.33 970.51 890.17)"/><rect x="611.82" y="386.05" width="10.16" height="1.85" rx="1" fill="#9f6865" opacity="0.06" transform="rotate(81.5 611.82 386.05)"/><circle cx="1141.44" cy="913.34" r="0.77" fill="#9f6865" opacity="0.05"/><circle cx="1515.4" cy="894.93" r="1.67" fill="#24251f" opacity="0.06"/><rect x="1283.25" y="527.07" width="19.95" height="1.08" rx="1" fill="#9f6865" opacity="0.03" transform="rotate(120.83 1283.25 527.07)"/><rect x="1178.85" y="1072.85" width="15.65" height="1.92" rx="1" fill="#24251f" opacity="0.03" transform="rotate(171.41 1178.85 1072.85)"/><rect x="1563.02" y="592.32" width="25.15" height="0.8" rx="1" fill="#9f6865" opacity="0.08" transform="rotate(29.25 1563.02 592.32)"/><rect x="818.22" y="358.8" width="23.17" height="1.86" rx="1" fill="#9f6865" opacity="0.05" transform="rotate(21.41 818.22 358.8)"/><rect x="324.19" y="315.29" width="19.26" height="2.44" rx="1" fill="#9f6865" opacity="0.04" transform="rotate(158.87 324.19 315.29)"/><rect x="1028.51" y="897.4" width="10.01" height="2.46" rx="1" fill="#24251f" opacity="0.04" transform="rotate(119.87 1028.51 897.4)"/><rect x="858.81" y="227.28" width="15.6" height="1.15" rx="1" fill="#24251f" opacity="0.05" transform="rotate(98.86 858.81 227.28)"/><rect x="1284.57" y="303.94" width="10.44" height="2.2" rx="1" fill="#9f6865" opacity="0.04" transform="rotate(25.55 1284.57 303.94)"/><rect x="33.63" y="900.89" width="23.81" height="2.3" rx="1" fill="#24251f" opacity="0.07" transform="rotate(44.51 33.63 900.89)"/><circle cx="636.23" cy="669.97" r="2.23" fill="#9f6865" opacity="0.07"/><circle cx="1329.72" cy="755.45" r="1.54" fill="#9f6865" opacity="0.07"/><circle cx="216.62" cy="352.94" r="1.35" fill="#24251f" opacity="0.08"/><circle cx="105.15" cy="595.12" r="1.41" fill="#24251f" opacity="0.06"/><circle cx="466.24" cy="483.21" r="1.53" fill="#24251f" opacity="0.08"/><circle cx="1120.9" cy="1086.33" r="2.21" fill="#24251f" opacity="0.07"/><rect x="230.05" y="306.75" width="18.49" height="1.97" rx="1" fill="#24251f" opacity="0.03" transform="rotate(94.5 230.05 306.75)"/><rect x="1364.93" y="338.81" width="7.52" height="1.25" rx="1" fill="#9f6865" opacity="0.04" transform="rotate(175.61 1364.93 338.81)"/><rect x="656.57" y="265.46" width="18.04" height="1.82" rx="1" fill="#24251f" opacity="0.06" transform="rotate(105.11 656.57 265.46)"/><circle cx="604.68" cy="865.66" r="1.37" fill="#24251f" opacity="0.07"/><rect x="994.8" y="510.88" width="14.03" height="1.01" rx="1" fill="#24251f" opacity="0.05" transform="rotate(100.19 994.8 510.88)"/><rect x="850.85" y="538.52" width="20.97" height="2.04" rx="1" fill="#24251f" opacity="0.03" transform="rotate(123.36 850.85 538.52)"/><circle cx="1306.01" cy="660.25" r="1.24" fill="#24251f" opacity="0.03"/><circle cx="92.31" cy="524.39" r="1.77" fill="#9f6865" opacity="0.05"/><circle cx="1446.63" cy="895.97" r="2.22" fill="#24251f" opacity="0.04"/><rect x="349.7" y="739.7" width="24.25" height="1.25" rx="1" fill="#24251f" opacity="0.04" transform="rotate(100.16 349.7 739.7)"/><rect x="1264.63" y="727.69" width="16.77" height="1.41" rx="1" fill="#24251f" opacity="0.08" transform="rotate(153.21 1264.63 727.69)"/><rect x="1509.19" y="398.7" width="6.73" height="1.7" rx="1" fill="#9f6865" opacity="0.05" transform="rotate(32.09 1509.19 398.7)"/><rect x="594.85" y="245.25" width="16.44" height="1.82" rx="1" fill="#24251f" opacity="0.03" transform="rotate(50.82 594.85 245.25)"/><circle cx="776.98" cy="402.7" r="1.86" fill="#24251f" opacity="0.04"/><rect x="571.86" y="956.48" width="7.87" height="1.27" rx="1" fill="#9f6865" opacity="0.08" transform="rotate(50.02 571.86 956.48)"/><circle cx="1438.01" cy="80.23" r="1.17" fill="#24251f" opacity="0.04"/><rect x="778.75" y="709.05" width="18.47" height="1.95" rx="1" fill="#24251f" opacity="0.03" transform="rotate(6.21 778.75 709.05)"/><rect x="952.07" y="875.21" width="17.68" height="1.8" rx="1" fill="#9f6865" opacity="0.03" transform="rotate(73.32 952.07 875.21)"/><circle cx="1164.13" cy="789.5" r="1.66" fill="#9f6865" opacity="0.04"/><rect x="1473.39" y="749.91" width="27.23" height="0.88" rx="1" fill="#9f6865" opacity="0.06" transform="rotate(128.69 1473.39 749.91)"/><rect x="1068.87" y="773.57" width="9.92" height="2.28" rx="1" fill="#9f6865" opacity="0.05" transform="rotate(109.79 1068.87 773.57)"/><rect x="602.51" y="856.51" width="21.8" height="1.31" rx="1" fill="#9f6865" opacity="0.04" transform="rotate(65.79 602.51 856.51)"/><rect x="671.47" y="470.64" width="17.95" height="2.01" rx="1" fill="#9f6865" opacity="0.03" transform="rotate(39.72 671.47 470.64)"/><rect x="1371.07" y="587.91" width="11.47" height="2.29" rx="1" fill="#9f6865" opacity="0.04" transform="rotate(20.39 1371.07 587.91)"/><circle cx="1165.64" cy="900.48" r="1.8" fill="#24251f" opacity="0.04"/><rect x="954.41" y="618.25" width="19.11" height="2.02" rx="1" fill="#24251f" opacity="0.04" transform="rotate(154.65 954.41 618.25)"/><rect x="950.61" y="889.17" width="11.04" height="1.12" rx="1" fill="#24251f" opacity="0.06" transform="rotate(48.53 950.61 889.17)"/><rect x="1508.01" y="701.36" width="27.77" height="2.47" rx="1" fill="#24251f" opacity="0.06" transform="rotate(59.07 1508.01 701.36)"/><rect x="1311.37" y="885.93" width="27.03" height="2.55" rx="1" fill="#9f6865" opacity="0.08" transform="rotate(119.42 1311.37 885.93)"/><circle cx="44.96" cy="582.59" r="2.03" fill="#24251f" opacity="0.07"/><rect x="1028.1" y="875.54" width="12.01" height="2.38" rx="1" fill="#9f6865" opacity="0.04" transform="rotate(86.85 1028.1 875.54)"/><rect x="909.56" y="307.61" width="10.92" height="1.88" rx="1" fill="#9f6865" opacity="0.06" transform="rotate(46.5 909.56 307.61)"/><rect x="383.2" y="995.22" width="24.12" height="1.75" rx="1" fill="#9f6865" opacity="0.07" transform="rotate(174.42 383.2 995.22)"/><circle cx="529.27" cy="255.05" r="1.62" fill="#9f6865" opacity="0.05"/><rect x="871.83" y="393.32" width="6.76" height="2.5" rx="1" fill="#24251f" opacity="0.04" transform="rotate(167.18 871.83 393.32)"/><circle cx="607.81" cy="893.11" r="0.86" fill="#24251f" opacity="0.07"/><circle cx="487.71" cy="788.48" r="0.75" fill="#24251f" opacity="0.04"/><rect x="804.53" y="245.68" width="18.46" height="1.12" rx="1" fill="#9f6865" opacity="0.05" transform="rotate(172.78 804.53 245.68)"/><circle cx="3.56" cy="220.4" r="1.03" fill="#24251f" opacity="0.08"/><circle cx="1366.03" cy="1043.16" r="1.08" fill="#9f6865" opacity="0.08"/><circle cx="822.7" cy="781.24" r="0.97" fill="#9f6865" opacity="0.04"/><rect x="556.39" y="444.85" width="13.14" height="0.94" rx="1" fill="#24251f" opacity="0.07" transform="rotate(160.8 556.39 444.85)"/><rect x="707.33" y="87.42" width="8.11" height="1.49" rx="1" fill="#9f6865" opacity="0.03" transform="rotate(6.15 707.33 87.42)"/>
  <circle cx="1350" cy="178" r="184" fill="#9f6865" opacity="0.06"/>
  <circle cx="220" cy="894" r="220" fill="#596153" opacity="0.08"/>
  <g transform="rotate(-2 710 525)">
    <ellipse cx="728" cy="797.4" rx="477" ry="54" fill="#1f211d" opacity="0.12"/>
    <rect x="260" y="255" width="900" height="540" rx="6" fill="#fff9f7"/>
    <rect x="709" y="279" width="2" height="492" fill="#24251f" opacity="0.12"/>
    <rect x="742" y="295" width="380" height="460" rx="4" fill="#dab4b1"/>
    <path d="M 760 589.8 C 823 492.6, 913 649.2, 1084 438.6" fill="none" stroke="#fff9f7" stroke-width="5" opacity="0.72"/>
    <text x="304" y="343" class="brand" fill="#24251f" font-size="49.5">COLLECTION</text>
    <rect x="304" y="393" width="136.8" height="3" rx="2" fill="#24251f" opacity="0.42"/><rect x="304" y="415" width="205.2" height="2" rx="2" fill="#24251f" opacity="0.22"/><rect x="304" y="437" width="273.6" height="2" rx="2" fill="#24251f" opacity="0.22"/><rect x="304" y="459" width="154.8" height="2" rx="2" fill="#24251f" opacity="0.22"/><rect x="304" y="481" width="223.2" height="2" rx="2" fill="#24251f" opacity="0.22"/><rect x="304" y="503" width="291.6" height="2" rx="2" fill="#24251f" opacity="0.22"/><rect x="304" y="525" width="172.8" height="2" rx="2" fill="#24251f" opacity="0.22"/><rect x="304" y="547" width="241.2" height="2" rx="2" fill="#24251f" opacity="0.22"/><rect x="304" y="569" width="309.6" height="2" rx="2" fill="#24251f" opacity="0.22"/>
  </g><g transform="rotate(8 1185 360)">
    <ellipse cx="1203" cy="549.6" rx="132.5" ry="36" fill="#1f211d" opacity="0.13"/>
    <rect x="1060" y="180" width="250" height="360" rx="5" fill="#303229"/>
    <text x="1080" y="252" class="brand" fill="#fff9f7" font-size="32.5">FW</text>
    <rect x="1080" y="291.6" width="210" height="115.2" fill="#9f6865" opacity="0.85"/>
    <rect x="1080" y="439.2" width="64.6" height="3" rx="2" fill="#fff9f7" opacity="0.42"/><rect x="1080" y="461.2" width="96.9" height="2" rx="2" fill="#fff9f7" opacity="0.22"/><rect x="1080" y="483.2" width="129.2" height="2" rx="2" fill="#fff9f7" opacity="0.22"/><rect x="1080" y="505.2" width="73.1" height="2" rx="2" fill="#fff9f7" opacity="0.22"/>
  </g>
  <g opacity="0.72"><text x="78" y="1004" class="micro" fill="#24251f">FASHION IDENTITY</text><text x="78" y="1036" class="micro" fill="#24251f" opacity="0.55">TEMPORARY DEMONSTRATION PORTFOLIO VISUAL / GALLERY-2</text></g>
</svg>
