<?xml version="1.0" encoding="UTF-8"?>
<svg xmlns="http://www.w3.org/2000/svg" width="1600" height="1100" viewBox="0 0 1600 1100" role="img" aria-labelledby="title desc">
  <title id="title">ATELIER gallery-4 demo portfolio mockup</title>
  <desc id="desc">Temporary fictional demonstration project imagery for portfolio presentation only, not client work.</desc>
  <defs>
    <linearGradient id="bg_atelier_gallery_4" x1="0" y1="0" x2="1" y2="1">
      <stop offset="0%" stop-color="#fff9f7"/>
      <stop offset="58%" stop-color="#f4ece9"/>
      <stop offset="100%" stop-color="#dab4b1"/>
    </linearGradient>
    <radialGradient id="light_atelier_gallery_4" cx="74%" cy="18%" r="64%">
      <stop offset="0%" stop-color="#ffffff" stop-opacity="0.62"/>
      <stop offset="100%" stop-color="#ffffff" stop-opacity="0"/>
    </radialGradient>
  </defs>
  <style><![CDATA[
    .brand { font-family: Didot, Georgia, serif; font-weight: 500; letter-spacing: .02em; }
    .body { font-family: Helvetica, Arial, sans-serif; font-weight: 500; }
    .micro { font-family: Helvetica, Arial, sans-serif; font-size: 20px; font-weight: 700; letter-spacing: .12em; }
  ]]></style>
  <rect width="1600" height="1100" fill="url(#bg_atelier_gallery_4)"/>
  <rect width="1600" height="1100" fill="url(#light_atelier_gallery_4)"/>
  <circle cx="426.32" cy="469.95" r="1.36" fill="#24251f" opacity="0.07"/><rect x="230.98" y="179.15" width="19.65" height="1.86" rx="1" fill="#24251f" opacity="0.03" transform="rotate(141.81 230.98 179.15)"/><circle cx="133.25" cy="805.35" r="1.05" fill="#24251f" opacity="0.06"/><circle cx="385.54" cy="838" r="1.22" fill="#24251f" opacity="0.06"/><circle cx="1341.57" cy="528.71" r="1.25" fill="#24251f" opacity="0.07"/><rect x="53.06" y="1055.21" width="12.67" height="1.35" rx="1" fill="#9f6865" opacity="0.05" transform="rotate(51.17 53.06 1055.21)"/><rect x="1044.2" y="156.05" width="24.03" height="0.89" rx="1" fill="#9f6865" opacity="0.04" transform="rotate(151.91 1044.2 156.05)"/><circle cx="226.59" cy="1067.72" r="2.16" fill="#9f6865" opacity="0.04"/><rect x="578.67" y="624.41" width="23.21" height="2.16" rx="1" fill="#9f6865" opacity="0.05" transform="rotate(162.45 578.67 624.41)"/><circle cx="59.58" cy="393.63" r="1.2" fill="#24251f" opacity="0.08"/><rect x="71.7" y="1099.73" width="18.29" height="1.32" rx="1" fill="#9f6865" opacity="0.03" transform="rotate(71.5 71.7 1099.73)"/><rect x="128.13" y="23.91" width="13.58" height="0.81" rx="1" fill="#24251f" opacity="0.08" transform="rotate(110.59 128.13 23.91)"/><rect x="955.78" y="381.61" width="11.71" height="1.28" rx="1" fill="#24251f" opacity="0.03" transform="rotate(179.84 955.78 381.61)"/><circle cx="1062.03" cy="867.14" r="1.76" fill="#24251f" opacity="0.05"/><circle cx="605.12" cy="449.94" r="1.16" fill="#24251f" opacity="0.03"/><rect x="530.42" y="344.03" width="7.97" height="1.59" rx="1" fill="#24251f" opacity="0.08" transform="rotate(53.18 530.42 344.03)"/><rect x="1344.48" y="405.1" width="9.62" height="2.24" rx="1" fill="#9f6865" opacity="0.04" transform="rotate(10.26 1344.48 405.1)"/><rect x="1555.5" y="821.87" width="18.54" height="1.23" rx="1" fill="#9f6865" opacity="0.03" transform="rotate(39.92 1555.5 821.87)"/><rect x="861.11" y="109.08" width="16.79" height="1" rx="1" fill="#9f6865" opacity="0.03" transform="rotate(10.7 861.11 109.08)"/><circle cx="797.94" cy="18.53" r="0.92" fill="#9f6865" opacity="0.04"/><circle cx="474.3" cy="975.47" r="0.7" fill="#9f6865" opacity="0.04"/><rect x="937.22" y="1011.87" width="16.21" height="1.5" rx="1" fill="#24251f" opacity="0.06" transform="rotate(133.35 937.22 1011.87)"/><rect x="771.76" y="346.11" width="27.61" height="1.22" rx="1" fill="#9f6865" opacity="0.05" transform="rotate(134.09 771.76 346.11)"/><rect x="965.64" y="167.56" width="20.95" height="1.88" rx="1" fill="#9f6865" opacity="0.05" transform="rotate(53.26 965.64 167.56)"/><rect x="893.29" y="646.52" width="27.24" height="2.57" rx="1" fill="#24251f" opacity="0.05" transform="rotate(178.57 893.29 646.52)"/><rect x="634.3" y="934.8" width="11.39" height="2.54" rx="1" fill="#24251f" opacity="0.05" transform="rotate(35.5 634.3 934.8)"/><rect x="511.98" y="410.41" width="10.32" height="2.36" rx="1" fill="#9f6865" opacity="0.08" transform="rotate(69.47 511.98 410.41)"/><rect x="645.03" y="468.84" width="20.76" height="1.15" rx="1" fill="#24251f" opacity="0.03" transform="rotate(142.87 645.03 468.84)"/><circle cx="1121.6" cy="223.85" r="0.71" fill="#9f6865" opacity="0.05"/><rect x="834.31" y="796.48" width="17.88" height="2.39" rx="1" fill="#9f6865" opacity="0.03" transform="rotate(178.43 834.31 796.48)"/><circle cx="587.05" cy="406.18" r="1.97" fill="#9f6865" opacity="0.06"/><circle cx="909.85" cy="1028.74" r="1.02" fill="#9f6865" opacity="0.06"/><rect x="438.43" y="568.54" width="12.51" height="0.97" rx="1" fill="#24251f" opacity="0.08" transform="rotate(172.8 438.43 568.54)"/><rect x="1559.38" y="829.23" width="17.26" height="1.7" rx="1" fill="#9f6865" opacity="0.06" transform="rotate(103.1 1559.38 829.23)"/><rect x="1586.59" y="375.33" width="24.79" height="1.87" rx="1" fill="#9f6865" opacity="0.04" transform="rotate(25 1586.59 375.33)"/><rect x="1574.7" y="1051.48" width="20.46" height="1.61" rx="1" fill="#24251f" opacity="0.06" transform="rotate(92.66 1574.7 1051.48)"/><rect x="1028.84" y="492.49" width="22.77" height="2.01" rx="1" fill="#24251f" opacity="0.05" transform="rotate(74.09 1028.84 492.49)"/><circle cx="300.93" cy="559.97" r="1.53" fill="#9f6865" opacity="0.08"/><rect x="411.81" y="49.57" width="18.36" height="1.85" rx="1" fill="#24251f" opacity="0.07" transform="rotate(116.2 411.81 49.57)"/><rect x="1000.47" y="309.81" width="6.34" height="1.01" rx="1" fill="#9f6865" opacity="0.04" transform="rotate(13.04 1000.47 309.81)"/><circle cx="615.14" cy="588.71" r="1.42" fill="#9f6865" opacity="0.04"/><rect x="637.37" y="1003.14" width="23.57" height="1.36" rx="1" fill="#24251f" opacity="0.05" transform="rotate(176.79 637.37 1003.14)"/><rect x="108.61" y="607.63" width="9.65" height="1.13" rx="1" fill="#24251f" opacity="0.05" transform="rotate(100.4 108.61 607.63)"/><circle cx="482.35" cy="456.95" r="1.25" fill="#24251f" opacity="0.05"/><rect x="302.07" y="75.6" width="16.56" height="1.74" rx="1" fill="#9f6865" opacity="0.03" transform="rotate(164.69 302.07 75.6)"/><circle cx="661.95" cy="713.09" r="1.12" fill="#24251f" opacity="0.06"/><circle cx="735.03" cy="361" r="1.44" fill="#24251f" opacity="0.03"/><circle cx="113.64" cy="27.8" r="1.54" fill="#24251f" opacity="0.05"/><rect x="406.03" y="191.81" width="17.88" height="1.44" rx="1" fill="#9f6865" opacity="0.05" transform="rotate(148.51 406.03 191.81)"/><rect x="298.37" y="61.11" width="10.02" height="1.08" rx="1" fill="#9f6865" opacity="0.03" transform="rotate(67.7 298.37 61.11)"/><circle cx="1588.17" cy="1071.29" r="1.24" fill="#24251f" opacity="0.07"/><rect x="354.18" y="884.8" width="27.93" height="2.58" rx="1" fill="#9f6865" opacity="0.08" transform="rotate(56.38 354.18 884.8)"/><circle cx="301.79" cy="779.38" r="1.39" fill="#9f6865" opacity="0.06"/><rect x="586.63" y="204.12" width="22.75" height="1.53" rx="1" fill="#24251f" opacity="0.08" transform="rotate(50.47 586.63 204.12)"/><circle cx="475.03" cy="1093.48" r="1.72" fill="#9f6865" opacity="0.07"/><circle cx="125.9" cy="905.77" r="1.68" fill="#24251f" opacity="0.03"/><circle cx="687.59" cy="343.21" r="1.77" fill="#9f6865" opacity="0.03"/><circle cx="170.04" cy="1020.7" r="1.87" fill="#9f6865" opacity="0.08"/><circle cx="589.32" cy="358.93" r="1.62" fill="#9f6865" opacity="0.08"/><rect x="267.8" y="150.69" width="7.16" height="2.02" rx="1" fill="#24251f" opacity="0.06" transform="rotate(172.28 267.8 150.69)"/><rect x="389.61" y="342.01" width="15.23" height="1.81" rx="1" fill="#24251f" opacity="0.07" transform="rotate(99.87 389.61 342.01)"/><circle cx="1425.36" cy="373.93" r="0.94" fill="#9f6865" opacity="0.04"/><circle cx="901" cy="587.44" r="0.75" fill="#9f6865" opacity="0.05"/><rect x="454.16" y="444.1" width="22.64" height="1.58" rx="1" fill="#9f6865" opacity="0.06" transform="rotate(65.86 454.16 444.1)"/><rect x="596.32" y="109.9" width="11.32" height="2.28" rx="1" fill="#24251f" opacity="0.04" transform="rotate(154.84 596.32 109.9)"/><rect x="1427.35" y="560.11" width="24.35" height="1.57" rx="1" fill="#24251f" opacity="0.06" transform="rotate(77.97 1427.35 560.11)"/><circle cx="614.14" cy="439.84" r="2.25" fill="#9f6865" opacity="0.04"/><rect x="323.26" y="86.97" width="15.35" height="2.23" rx="1" fill="#9f6865" opacity="0.07" transform="rotate(116.4 323.26 86.97)"/><rect x="310.27" y="746.52" width="8.81" height="1.39" rx="1" fill="#24251f" opacity="0.04" transform="rotate(173.39 310.27 746.52)"/><circle cx="863.95" cy="847.36" r="0.73" fill="#9f6865" opacity="0.05"/><circle cx="1297.36" cy="650.9" r="1.47" fill="#9f6865" opacity="0.05"/><rect x="539.4" y="962.7" width="18.96" height="2.28" rx="1" fill="#24251f" opacity="0.07" transform="rotate(56.27 539.4 962.7)"/><circle cx="338.54" cy="218.02" r="2.03" fill="#9f6865" opacity="0.08"/><rect x="1306.77" y="719.89" width="12.89" height="2.32" rx="1" fill="#24251f" opacity="0.08" transform="rotate(163.97 1306.77 719.89)"/><rect x="181.96" y="987.17" width="25.88" height="1.29" rx="1" fill="#9f6865" opacity="0.05" transform="rotate(59.43 181.96 987.17)"/><rect x="418.92" y="160.04" width="10.47" height="1.19" rx="1" fill="#24251f" opacity="0.03" transform="rotate(72.24 418.92 160.04)"/><rect x="1545.96" y="896.14" width="18.82" height="1.74" rx="1" fill="#9f6865" opacity="0.04" transform="rotate(149.17 1545.96 896.14)"/><rect x="1066.62" y="1052.79" width="24.18" height="1.6" rx="1" fill="#9f6865" opacity="0.08" transform="rotate(106.08 1066.62 1052.79)"/><rect x="1016.43" y="502.12" width="17.36" height="0.91" rx="1" fill="#24251f" opacity="0.05" transform="rotate(31.27 1016.43 502.12)"/><rect x="1213.65" y="34.65" width="13.19" height="1.49" rx="1" fill="#9f6865" opacity="0.07" transform="rotate(54.35 1213.65 34.65)"/><rect x="113.64" y="162.37" width="23.74" height="1.28" rx="1" fill="#9f6865" opacity="0.06" transform="rotate(128.9 113.64 162.37)"/><circle cx="1557.04" cy="960.04" r="1.64" fill="#9f6865" opacity="0.08"/><circle cx="186.19" cy="24.74" r="1.62" fill="#9f6865" opacity="0.07"/><rect x="225.36" y="228.01" width="22.7" height="0.96" rx="1" fill="#24251f" opacity="0.05" transform="rotate(163.77 225.36 228.01)"/><rect x="650.37" y="985.68" width="20.03" height="1.76" rx="1" fill="#9f6865" opacity="0.08" transform="rotate(114.65 650.37 985.68)"/><rect x="1370.26" y="200.89" width="25.43" height="2.47" rx="1" fill="#9f6865" opacity="0.05" transform="rotate(172.67 1370.26 200.89)"/><rect x="1344.84" y="881.82" width="20.49" height="2.44" rx="1" fill="#24251f" opacity="0.05" transform="rotate(121.97 1344.84 881.82)"/><rect x="106.62" y="53.49" width="16.04" height="2.43" rx="1" fill="#9f6865" opacity="0.05" transform="rotate(85.23 106.62 53.49)"/><rect x="6.75" y="892.74" width="11.32" height="1.7" rx="1" fill="#24251f" opacity="0.04" transform="rotate(110.75 6.75 892.74)"/><rect x="66.42" y="162.32" width="23.33" height="0.82" rx="1" fill="#9f6865" opacity="0.04" transform="rotate(64.74 66.42 162.32)"/><rect x="1277.86" y="374.17" width="19.95" height="2.44" rx="1" fill="#24251f" opacity="0.08" transform="rotate(29.56 1277.86 374.17)"/><rect x="1005.65" y="311.28" width="27.8" height="1.84" rx="1" fill="#24251f" opacity="0.03" transform="rotate(12.54 1005.65 311.28)"/><rect x="394.65" y="212.58" width="23.74" height="2.39" rx="1" fill="#24251f" opacity="0.06" transform="rotate(59.86 394.65 212.58)"/><circle cx="1164.23" cy="1057.32" r="1.45" fill="#24251f" opacity="0.07"/><rect x="1360.12" y="428.86" width="23.39" height="2.44" rx="1" fill="#24251f" opacity="0.07" transform="rotate(72.2 1360.12 428.86)"/><circle cx="758.07" cy="763.25" r="1.33" fill="#24251f" opacity="0.03"/><circle cx="924.18" cy="822.41" r="0.81" fill="#9f6865" opacity="0.05"/><rect x="91.37" y="188.65" width="25.53" height="2.54" rx="1" fill="#9f6865" opacity="0.07" transform="rotate(68.88 91.37 188.65)"/><circle cx="101.7" cy="575.85" r="1.89" fill="#24251f" opacity="0.07"/><circle cx="145.33" cy="679.97" r="1.38" fill="#24251f" opacity="0.05"/><rect x="1552.15" y="1093.98" width="8.52" height="1.83" rx="1" fill="#9f6865" opacity="0.03" transform="rotate(19.87 1552.15 1093.98)"/><circle cx="1566.7" cy="749.82" r="1.78" fill="#9f6865" opacity="0.05"/><circle cx="246.05" cy="842.53" r="2.23" fill="#9f6865" opacity="0.03"/><rect x="386.33" y="849.69" width="11.06" height="1.8" rx="1" fill="#24251f" opacity="0.08" transform="rotate(124.02 386.33 849.69)"/><rect x="1523.18" y="700.39" width="24.69" height="2.59" rx="1" fill="#24251f" opacity="0.04" transform="rotate(57.41 1523.18 700.39)"/><rect x="1559.26" y="425.55" width="20.19" height="0.96" rx="1" fill="#24251f" opacity="0.06" transform="rotate(161.84 1559.26 425.55)"/><rect x="63.83" y="688.92" width="15.07" height="1.41" rx="1" fill="#9f6865" opacity="0.03" transform="rotate(131.62 63.83 688.92)"/><rect x="1553.83" y="931.32" width="20.58" height="1.69" rx="1" fill="#24251f" opacity="0.03" transform="rotate(139.87 1553.83 931.32)"/><rect x="851.23" y="440.99" width="7.34" height="1.54" rx="1" fill="#24251f" opacity="0.04" transform="rotate(108.47 851.23 440.99)"/><rect x="9.42" y="859.91" width="24.36" height="1.28" rx="1" fill="#24251f" opacity="0.04" transform="rotate(1.73 9.42 859.91)"/><rect x="924.13" y="548.46" width="10.15" height="1.38" rx="1" fill="#9f6865" opacity="0.08" transform="rotate(98.65 924.13 548.46)"/><rect x="497.34" y="806.5" width="10.07" height="2.49" rx="1" fill="#24251f" opacity="0.04" transform="rotate(123.69 497.34 806.5)"/><circle cx="552.73" cy="1022.9" r="0.75" fill="#24251f" opacity="0.05"/><rect x="240.91" y="964.52" width="13.75" height="1.8" rx="1" fill="#9f6865" opacity="0.08" transform="rotate(148.2 240.91 964.52)"/><circle cx="1546.58" cy="182.68" r="1.76" fill="#24251f" opacity="0.07"/><rect x="951.75" y="158.62" width="25.56" height="1.49" rx="1" fill="#9f6865" opacity="0.03" transform="rotate(118.29 951.75 158.62)"/><rect x="1264.67" y="1097.49" width="6.76" height="1.31" rx="1" fill="#9f6865" opacity="0.05" transform="rotate(15.8 1264.67 1097.49)"/><circle cx="88.76" cy="747.6" r="0.72" fill="#24251f" opacity="0.04"/><circle cx="604.67" cy="669.99" r="2.1" fill="#9f6865" opacity="0.07"/><rect x="299.83" y="602.92" width="18.12" height="2.4" rx="1" fill="#24251f" opacity="0.06" transform="rotate(111.03 299.83 602.92)"/><rect x="1486.87" y="934.44" width="9.82" height="1.5" rx="1" fill="#24251f" opacity="0.04" transform="rotate(164.36 1486.87 934.44)"/><circle cx="715.91" cy="408.74" r="1.93" fill="#24251f" opacity="0.03"/><rect x="394.68" y="230.61" width="23.41" height="2.3" rx="1" fill="#9f6865" opacity="0.08" transform="rotate(121.54 394.68 230.61)"/><rect x="871.76" y="838.01" width="10.71" height="1.96" rx="1" fill="#9f6865" opacity="0.03" transform="rotate(178.76 871.76 838.01)"/><rect x="234.17" y="726.23" width="22.37" height="2.55" rx="1" fill="#24251f" opacity="0.06" transform="rotate(111.36 234.17 726.23)"/><rect x="489.47" y="1088.32" width="12.03" height="2.4" rx="1" fill="#24251f" opacity="0.05" transform="rotate(59.57 489.47 1088.32)"/><rect x="800.26" y="132.3" width="6.25" height="1.69" rx="1" fill="#24251f" opacity="0.05" transform="rotate(12.47 800.26 132.3)"/><rect x="42.36" y="73.29" width="17.29" height="1.58" rx="1" fill="#9f6865" opacity="0.04" transform="rotate(127.92 42.36 73.29)"/><rect x="1503.76" y="687.97" width="21.14" height="2.48" rx="1" fill="#24251f" opacity="0.07" transform="rotate(137.83 1503.76 687.97)"/><rect x="963.45" y="233.12" width="21.38" height="1.82" rx="1" fill="#9f6865" opacity="0.07" transform="rotate(147.73 963.45 233.12)"/><circle cx="0.07" cy="620.18" r="1.93" fill="#9f6865" opacity="0.08"/><circle cx="52.05" cy="33.17" r="1.87" fill="#24251f" opacity="0.03"/><rect x="730.73" y="953.71" width="17.58" height="1.05" rx="1" fill="#9f6865" opacity="0.03" transform="rotate(129.02 730.73 953.71)"/><circle cx="1383.87" cy="535.13" r="1.37" fill="#9f6865" opacity="0.04"/><rect x="1300.77" y="974.17" width="22.72" height="1.05" rx="1" fill="#9f6865" opacity="0.07" transform="rotate(168.2 1300.77 974.17)"/><circle cx="1468.41" cy="206.02" r="1.33" fill="#24251f" opacity="0.03"/><circle cx="814.72" cy="894.31" r="0.79" fill="#9f6865" opacity="0.03"/><rect x="193.48" y="675.23" width="8" height="1.25" rx="1" fill="#24251f" opacity="0.06" transform="rotate(128.93 193.48 675.23)"/><rect x="859.3" y="79.79" width="7.86" height="2" rx="1" fill="#9f6865" opacity="0.07" transform="rotate(170.54 859.3 79.79)"/><rect x="764.05" y="1014.01" width="14.26" height="1.81" rx="1" fill="#9f6865" opacity="0.03" transform="rotate(43.57 764.05 1014.01)"/>
  <circle cx="1350" cy="178" r="184" fill="#9f6865" opacity="0.06"/>
  <circle cx="220" cy="894" r="220" fill="#596153" opacity="0.08"/>
  <g transform="rotate(-6 445 430)">
    <ellipse cx="457" cy="613.6" rx="164.3" ry="36" fill="#1f211d" opacity="0.09"/>
    <rect x="290" y="250" width="310" height="360" rx="14" fill="#fff9f7"/>
    <rect x="312" y="272" width="266" height="172.8" rx="10" fill="#303229"/>
    <text x="314" y="487.6" class="brand" fill="#24251f" font-size="27.9">LOOK</text>
    <rect x="314" y="516.4" width="80.1" height="3" rx="2" fill="#24251f" opacity="0.42"/><rect x="314" y="538.4" width="120.16" height="2" rx="2" fill="#24251f" opacity="0.22"/><rect x="314" y="560.4" width="160.21" height="2" rx="2" fill="#24251f" opacity="0.22"/>
  </g><g transform="rotate(5 775 545)">
    <ellipse cx="787" cy="728.6" rx="164.3" ry="36" fill="#1f211d" opacity="0.09"/>
    <rect x="620" y="365" width="310" height="360" rx="14" fill="#fff9f7"/>
    <rect x="642" y="387" width="266" height="172.8" rx="10" fill="#dab4b1"/>
    <text x="644" y="602.6" class="brand" fill="#24251f" font-size="27.9">DETAIL</text>
    <rect x="644" y="631.4" width="80.1" height="3" rx="2" fill="#24251f" opacity="0.42"/><rect x="644" y="653.4" width="120.16" height="2" rx="2" fill="#24251f" opacity="0.22"/><rect x="644" y="675.4" width="160.21" height="2" rx="2" fill="#24251f" opacity="0.22"/>
  </g><g transform="rotate(-4 1145 530)">
    <ellipse cx="1163" cy="841.2" rx="159" ry="62" fill="#1f211d" opacity="0.14"/>
    <rect x="995" y="220" width="300" height="620" rx="42" fill="#303229"/>
    <rect x="1013" y="238" width="264" height="584" rx="33" fill="#fff9f7"/>
    <text x="1034" y="319.2" class="micro" fill="#24251f" opacity="0.62">ATELIER</text>
    <rect x="1034" y="375" width="66" height="66" rx="10" fill="#dab4b1" opacity="0.92"/><rect x="1110" y="375" width="66" height="66" rx="10" fill="#596153" opacity="0.92"/><rect x="1186" y="375" width="66" height="66" rx="10" fill="#9f6865" opacity="0.92"/><rect x="1034" y="451" width="66" height="66" rx="10" fill="#fff9f7" opacity="0.92"/><rect x="1110" y="451" width="66" height="66" rx="10" fill="#dab4b1" opacity="0.92"/><rect x="1186" y="451" width="66" height="66" rx="10" fill="#596153" opacity="0.92"/><rect x="1034" y="527" width="66" height="66" rx="10" fill="#9f6865" opacity="0.92"/><rect x="1110" y="527" width="66" height="66" rx="10" fill="#fff9f7" opacity="0.92"/><rect x="1186" y="527" width="66" height="66" rx="10" fill="#dab4b1" opacity="0.92"/>
  </g>
  <g opacity="0.72"><text x="78" y="1004" class="micro" fill="#24251f">FASHION IDENTITY</text><text x="78" y="1036" class="micro" fill="#24251f" opacity="0.55">TEMPORARY DEMONSTRATION PORTFOLIO VISUAL / GALLERY-4</text></g>
</svg>
