<?xml version="1.0" encoding="UTF-8"?>
<svg xmlns="http://www.w3.org/2000/svg" width="1600" height="1100" viewBox="0 0 1600 1100" role="img" aria-labelledby="title desc">
  <title id="title">ATELIER gallery-1 demo portfolio mockup</title>
  <desc id="desc">Temporary fictional demonstration project imagery for portfolio presentation only, not client work.</desc>
  <defs>
    <linearGradient id="bg_atelier_gallery_1" x1="0" y1="0" x2="1" y2="1">
      <stop offset="0%" stop-color="#fff9f7"/>
      <stop offset="58%" stop-color="#f4ece9"/>
      <stop offset="100%" stop-color="#dab4b1"/>
    </linearGradient>
    <radialGradient id="light_atelier_gallery_1" cx="74%" cy="18%" r="64%">
      <stop offset="0%" stop-color="#ffffff" stop-opacity="0.62"/>
      <stop offset="100%" stop-color="#ffffff" stop-opacity="0"/>
    </radialGradient>
  </defs>
  <style><![CDATA[
    .brand { font-family: Didot, Georgia, serif; font-weight: 500; letter-spacing: .02em; }
    .body { font-family: Helvetica, Arial, sans-serif; font-weight: 500; }
    .micro { font-family: Helvetica, Arial, sans-serif; font-size: 20px; font-weight: 700; letter-spacing: .12em; }
  ]]></style>
  <rect width="1600" height="1100" fill="url(#bg_atelier_gallery_1)"/>
  <rect width="1600" height="1100" fill="url(#light_atelier_gallery_1)"/>
  <rect x="822.59" y="638.79" width="22.5" height="1.46" rx="1" fill="#9f6865" opacity="0.05" transform="rotate(87.56 822.59 638.79)"/><circle cx="1361.26" cy="959.88" r="1.72" fill="#9f6865" opacity="0.03"/><rect x="1262.1" y="172.17" width="10.53" height="2.06" rx="1" fill="#24251f" opacity="0.06" transform="rotate(149.23 1262.1 172.17)"/><rect x="91.62" y="37.46" width="17.94" height="1.04" rx="1" fill="#24251f" opacity="0.06" transform="rotate(176.22 91.62 37.46)"/><rect x="1469.66" y="750.14" width="27.21" height="0.9" rx="1" fill="#24251f" opacity="0.05" transform="rotate(113.74 1469.66 750.14)"/><rect x="841.39" y="507.93" width="21.61" height="1.18" rx="1" fill="#24251f" opacity="0.07" transform="rotate(172.28 841.39 507.93)"/><rect x="462.02" y="866.34" width="27.53" height="1.06" rx="1" fill="#9f6865" opacity="0.07" transform="rotate(143.88 462.02 866.34)"/><rect x="1199.17" y="543.52" width="27.54" height="0.94" rx="1" fill="#24251f" opacity="0.05" transform="rotate(23.97 1199.17 543.52)"/><circle cx="615.17" cy="728.29" r="1.67" fill="#24251f" opacity="0.06"/><rect x="132.09" y="624.26" width="24.44" height="1.7" rx="1" fill="#9f6865" opacity="0.07" transform="rotate(71.52 132.09 624.26)"/><circle cx="737.04" cy="88.16" r="2.04" fill="#9f6865" opacity="0.07"/><rect x="387.51" y="882.07" width="25.2" height="1.51" rx="1" fill="#24251f" opacity="0.04" transform="rotate(47.18 387.51 882.07)"/><rect x="896.36" y="637.72" width="11.84" height="1.5" rx="1" fill="#9f6865" opacity="0.03" transform="rotate(120.47 896.36 637.72)"/><circle cx="982.9" cy="124.92" r="1.42" fill="#24251f" opacity="0.06"/><rect x="1124.03" y="638.08" width="10.83" height="1.21" rx="1" fill="#24251f" opacity="0.06" transform="rotate(6.3 1124.03 638.08)"/><circle cx="883.64" cy="859.45" r="1.56" fill="#24251f" opacity="0.03"/><rect x="390.68" y="189.33" width="7.45" height="0.99" rx="1" fill="#9f6865" opacity="0.07" transform="rotate(131.48 390.68 189.33)"/><rect x="30.97" y="926.76" width="25.49" height="1.47" rx="1" fill="#9f6865" opacity="0.07" transform="rotate(165.47 30.97 926.76)"/><rect x="1092.98" y="829.85" width="21.16" height="1.7" rx="1" fill="#9f6865" opacity="0.05" transform="rotate(175.04 1092.98 829.85)"/><rect x="475.7" y="687.86" width="13.38" height="1.09" rx="1" fill="#24251f" opacity="0.06" transform="rotate(71.39 475.7 687.86)"/><rect x="947.22" y="164.63" width="11.1" height="1" rx="1" fill="#24251f" opacity="0.07" transform="rotate(94.12 947.22 164.63)"/><circle cx="1135.75" cy="522.08" r="1.97" fill="#9f6865" opacity="0.05"/><circle cx="1359.64" cy="902.55" r="2.04" fill="#24251f" opacity="0.03"/><rect x="1392.2" y="229.71" width="17.35" height="1.53" rx="1" fill="#24251f" opacity="0.06" transform="rotate(152.81 1392.2 229.71)"/><circle cx="967.22" cy="661.69" r="1.13" fill="#9f6865" opacity="0.08"/><circle cx="694.34" cy="226.73" r="1.36" fill="#24251f" opacity="0.06"/><circle cx="72.51" cy="442.21" r="2.17" fill="#24251f" opacity="0.03"/><circle cx="1219.15" cy="117.39" r="1.79" fill="#9f6865" opacity="0.07"/><circle cx="1114.66" cy="126.3" r="0.99" fill="#9f6865" opacity="0.07"/><rect x="1560.02" y="281.28" width="11.53" height="0.95" rx="1" fill="#9f6865" opacity="0.08" transform="rotate(92.95 1560.02 281.28)"/><rect x="1590.85" y="47.22" width="18.26" height="1.06" rx="1" fill="#9f6865" opacity="0.06" transform="rotate(171.06 1590.85 47.22)"/><rect x="1291.65" y="1066.25" width="27.15" height="1.05" rx="1" fill="#9f6865" opacity="0.03" transform="rotate(113.92 1291.65 1066.25)"/><rect x="668.75" y="670.34" width="16.51" height="2.54" rx="1" fill="#24251f" opacity="0.06" transform="rotate(148.94 668.75 670.34)"/><rect x="638.22" y="107.89" width="10.88" height="1.2" rx="1" fill="#9f6865" opacity="0.03" transform="rotate(130.35 638.22 107.89)"/><rect x="622.57" y="938.82" width="9.43" height="1.57" rx="1" fill="#24251f" opacity="0.03" transform="rotate(158.27 622.57 938.82)"/><rect x="882.05" y="866" width="19.15" height="1.9" rx="1" fill="#24251f" opacity="0.05" transform="rotate(55.86 882.05 866)"/><rect x="1234.47" y="66.31" width="14.92" height="0.85" rx="1" fill="#24251f" opacity="0.05" transform="rotate(105.33 1234.47 66.31)"/><circle cx="1135.32" cy="305.39" r="1.69" fill="#9f6865" opacity="0.04"/><rect x="289.05" y="353.03" width="25.97" height="1.66" rx="1" fill="#9f6865" opacity="0.04" transform="rotate(13.64 289.05 353.03)"/><rect x="26.18" y="429.12" width="25.11" height="2.35" rx="1" fill="#24251f" opacity="0.05" transform="rotate(6.85 26.18 429.12)"/><circle cx="187.39" cy="636.6" r="1.34" fill="#24251f" opacity="0.04"/><rect x="80.16" y="1063.49" width="6.93" height="1.27" rx="1" fill="#9f6865" opacity="0.07" transform="rotate(29.42 80.16 1063.49)"/><rect x="876.38" y="766.25" width="7.76" height="1.13" rx="1" fill="#9f6865" opacity="0.04" transform="rotate(65.46 876.38 766.25)"/><rect x="193.47" y="808" width="14.33" height="1.31" rx="1" fill="#24251f" opacity="0.08" transform="rotate(167.69 193.47 808)"/><circle cx="345.11" cy="297.6" r="2.26" fill="#9f6865" opacity="0.04"/><rect x="1587.29" y="670.86" width="27.8" height="1.6" rx="1" fill="#9f6865" opacity="0.07" transform="rotate(32.52 1587.29 670.86)"/><rect x="1425.86" y="577.48" width="7.15" height="2.32" rx="1" fill="#9f6865" opacity="0.04" transform="rotate(92.68 1425.86 577.48)"/><rect x="241.34" y="88.12" width="22.5" height="1.88" rx="1" fill="#9f6865" opacity="0.07" transform="rotate(54.47 241.34 88.12)"/><rect x="1307.94" y="548.39" width="24.32" height="2.1" rx="1" fill="#9f6865" opacity="0.06" transform="rotate(67.12 1307.94 548.39)"/><rect x="189.4" y="401.08" width="24.01" height="2.4" rx="1" fill="#24251f" opacity="0.03" transform="rotate(156.94 189.4 401.08)"/><rect x="686.81" y="217.28" width="17.73" height="0.9" rx="1" fill="#24251f" opacity="0.07" transform="rotate(129.38 686.81 217.28)"/><circle cx="135.34" cy="505.56" r="1.95" fill="#9f6865" opacity="0.07"/><circle cx="106.42" cy="195.01" r="1.17" fill="#9f6865" opacity="0.05"/><rect x="764.65" y="189.29" width="10.27" height="2.33" rx="1" fill="#24251f" opacity="0.05" transform="rotate(25.62 764.65 189.29)"/><circle cx="24.46" cy="318.23" r="1.56" fill="#24251f" opacity="0.07"/><circle cx="237.67" cy="260.17" r="1.32" fill="#9f6865" opacity="0.07"/><rect x="670.14" y="943.81" width="18.45" height="1.32" rx="1" fill="#24251f" opacity="0.06" transform="rotate(154.98 670.14 943.81)"/><circle cx="1041.05" cy="594.8" r="2.07" fill="#9f6865" opacity="0.03"/><rect x="1416.86" y="843.22" width="27.36" height="1.11" rx="1" fill="#24251f" opacity="0.07" transform="rotate(116 1416.86 843.22)"/><circle cx="379.89" cy="988.27" r="1.51" fill="#9f6865" opacity="0.04"/><rect x="521.59" y="692.82" width="11.26" height="1.38" rx="1" fill="#24251f" opacity="0.05" transform="rotate(82.2 521.59 692.82)"/><circle cx="1391.82" cy="421.76" r="1.91" fill="#24251f" opacity="0.06"/><circle cx="1424.33" cy="92.16" r="0.85" fill="#9f6865" opacity="0.06"/><circle cx="798.45" cy="431.23" r="1.47" fill="#9f6865" opacity="0.08"/><circle cx="12.5" cy="265.03" r="2.19" fill="#9f6865" opacity="0.08"/><rect x="140.46" y="769.02" width="17.99" height="0.9" rx="1" fill="#24251f" opacity="0.05" transform="rotate(75.45 140.46 769.02)"/><rect x="1567.77" y="344.97" width="8.73" height="1.44" rx="1" fill="#24251f" opacity="0.07" transform="rotate(98.47 1567.77 344.97)"/><rect x="425.48" y="521.44" width="27.22" height="2.25" rx="1" fill="#9f6865" opacity="0.08" transform="rotate(80.73 425.48 521.44)"/><rect x="637.25" y="953.77" width="23.01" height="1.42" rx="1" fill="#9f6865" opacity="0.07" transform="rotate(98.18 637.25 953.77)"/><rect x="790.11" y="218.03" width="27.58" height="1.2" rx="1" fill="#9f6865" opacity="0.05" transform="rotate(29.1 790.11 218.03)"/><rect x="169.51" y="427.97" width="11.87" height="1.14" rx="1" fill="#9f6865" opacity="0.06" transform="rotate(100.6 169.51 427.97)"/><rect x="146.85" y="1053.39" width="22.33" height="1.04" rx="1" fill="#24251f" opacity="0.04" transform="rotate(38.09 146.85 1053.39)"/><circle cx="548.84" cy="104.86" r="1.52" fill="#9f6865" opacity="0.03"/><rect x="1125.73" y="904.08" width="12.64" height="1.13" rx="1" fill="#24251f" opacity="0.04" transform="rotate(100.73 1125.73 904.08)"/><circle cx="295.02" cy="690.59" r="1.96" fill="#9f6865" opacity="0.05"/><rect x="1513.38" y="143.59" width="16.75" height="1.64" rx="1" fill="#9f6865" opacity="0.03" transform="rotate(135.79 1513.38 143.59)"/><rect x="1135.92" y="801.77" width="23.6" height="1.22" rx="1" fill="#24251f" opacity="0.07" transform="rotate(27.7 1135.92 801.77)"/><rect x="907.43" y="10.91" width="16.96" height="0.92" rx="1" fill="#24251f" opacity="0.04" transform="rotate(150.42 907.43 10.91)"/><rect x="895.5" y="1064.33" width="13.4" height="2.32" rx="1" fill="#9f6865" opacity="0.06" transform="rotate(80.45 895.5 1064.33)"/><rect x="720.25" y="8.19" width="6.95" height="1.15" rx="1" fill="#9f6865" opacity="0.07" transform="rotate(60.46 720.25 8.19)"/><rect x="473.84" y="582.4" width="19.56" height="2.19" rx="1" fill="#9f6865" opacity="0.05" transform="rotate(108.03 473.84 582.4)"/><rect x="1202.48" y="439.68" width="21.16" height="1.83" rx="1" fill="#24251f" opacity="0.03" transform="rotate(42.23 1202.48 439.68)"/><rect x="1588.35" y="493.9" width="11.76" height="1.15" rx="1" fill="#9f6865" opacity="0.08" transform="rotate(65.66 1588.35 493.9)"/><circle cx="932.57" cy="992.39" r="2.07" fill="#24251f" opacity="0.07"/><rect x="681.16" y="800.24" width="8.11" height="0.97" rx="1" fill="#24251f" opacity="0.06" transform="rotate(64.2 681.16 800.24)"/><rect x="1381.54" y="874.84" width="19.92" height="0.93" rx="1" fill="#9f6865" opacity="0.04" transform="rotate(1.42 1381.54 874.84)"/><rect x="1345.75" y="433.56" width="10.44" height="1.63" rx="1" fill="#24251f" opacity="0.03" transform="rotate(107.53 1345.75 433.56)"/><rect x="866.3" y="190.04" width="14.93" height="1.05" rx="1" fill="#24251f" opacity="0.05" transform="rotate(100.2 866.3 190.04)"/><rect x="1013.02" y="782.86" width="7.18" height="1.2" rx="1" fill="#9f6865" opacity="0.06" transform="rotate(177.54 1013.02 782.86)"/><circle cx="955.92" cy="548.46" r="1.93" fill="#9f6865" opacity="0.05"/><rect x="1530.86" y="702.64" width="22.69" height="1.17" rx="1" fill="#24251f" opacity="0.08" transform="rotate(19.67 1530.86 702.64)"/><rect x="1185.28" y="327.23" width="18.29" height="1.93" rx="1" fill="#9f6865" opacity="0.06" transform="rotate(152.25 1185.28 327.23)"/><rect x="1489.44" y="425.09" width="6.68" height="1.26" rx="1" fill="#9f6865" opacity="0.07" transform="rotate(60.65 1489.44 425.09)"/><rect x="386.84" y="284.17" width="12.7" height="1.12" rx="1" fill="#9f6865" opacity="0.05" transform="rotate(179.78 386.84 284.17)"/><circle cx="962.94" cy="1066.23" r="1.89" fill="#9f6865" opacity="0.06"/><circle cx="1492.94" cy="957.22" r="1.64" fill="#9f6865" opacity="0.05"/><circle cx="1121.58" cy="462.29" r="1.08" fill="#24251f" opacity="0.04"/><circle cx="709.43" cy="160.3" r="1.28" fill="#24251f" opacity="0.03"/><circle cx="430.3" cy="705.63" r="1.81" fill="#9f6865" opacity="0.07"/><rect x="1267.92" y="813.21" width="14.18" height="2.48" rx="1" fill="#24251f" opacity="0.03" transform="rotate(128.95 1267.92 813.21)"/><rect x="821.47" y="843.89" width="26.76" height="2.53" rx="1" fill="#9f6865" opacity="0.06" transform="rotate(78.42 821.47 843.89)"/><rect x="988.35" y="563.08" width="8.16" height="1.28" rx="1" fill="#24251f" opacity="0.05" transform="rotate(59.37 988.35 563.08)"/><rect x="923.39" y="559.59" width="16.98" height="1.46" rx="1" fill="#24251f" opacity="0.07" transform="rotate(178.24 923.39 559.59)"/><rect x="142.64" y="286.65" width="7.22" height="2.47" rx="1" fill="#24251f" opacity="0.04" transform="rotate(116.02 142.64 286.65)"/><rect x="1518.55" y="705.88" width="21.49" height="1.84" rx="1" fill="#9f6865" opacity="0.08" transform="rotate(159.39 1518.55 705.88)"/><rect x="85.74" y="258.01" width="6.17" height="1.78" rx="1" fill="#24251f" opacity="0.06" transform="rotate(66.55 85.74 258.01)"/><circle cx="214.56" cy="953.86" r="1.99" fill="#24251f" opacity="0.04"/><rect x="1052.92" y="204.8" width="17.33" height="2.59" rx="1" fill="#9f6865" opacity="0.04" transform="rotate(76.7 1052.92 204.8)"/><circle cx="1489.49" cy="762.19" r="0.74" fill="#24251f" opacity="0.07"/><rect x="915.85" y="535.48" width="13.26" height="1.83" rx="1" fill="#9f6865" opacity="0.08" transform="rotate(65.6 915.85 535.48)"/><rect x="1059.63" y="494.82" width="16.42" height="1.49" rx="1" fill="#9f6865" opacity="0.06" transform="rotate(11.92 1059.63 494.82)"/><circle cx="204.68" cy="321.27" r="2.21" fill="#9f6865" opacity="0.05"/><rect x="1044.03" y="611.18" width="13.47" height="1.84" rx="1" fill="#24251f" opacity="0.08" transform="rotate(141.85 1044.03 611.18)"/><rect x="677.81" y="894.59" width="12.31" height="2.5" rx="1" fill="#24251f" opacity="0.04" transform="rotate(61.17 677.81 894.59)"/><rect x="15.83" y="752.04" width="25.08" height="0.85" rx="1" fill="#24251f" opacity="0.08" transform="rotate(96.35 15.83 752.04)"/><circle cx="1198.38" cy="570.74" r="1.4" fill="#24251f" opacity="0.08"/><circle cx="1255.07" cy="1078.07" r="1.02" fill="#24251f" opacity="0.05"/><circle cx="443.24" cy="381.18" r="1.63" fill="#9f6865" opacity="0.04"/><rect x="744.65" y="519.59" width="24.1" height="2.28" rx="1" fill="#24251f" opacity="0.05" transform="rotate(38.54 744.65 519.59)"/><rect x="64.96" y="860.06" width="7.06" height="1.19" rx="1" fill="#9f6865" opacity="0.06" transform="rotate(103.16 64.96 860.06)"/><circle cx="1322.28" cy="749.51" r="2.14" fill="#24251f" opacity="0.07"/><circle cx="1578.98" cy="939.23" r="2.25" fill="#9f6865" opacity="0.06"/><rect x="979.34" y="780.16" width="18.29" height="2.28" rx="1" fill="#9f6865" opacity="0.05" transform="rotate(105.19 979.34 780.16)"/><circle cx="1307.41" cy="255.29" r="1.88" fill="#9f6865" opacity="0.03"/><rect x="214.99" y="173.21" width="11.77" height="1.14" rx="1" fill="#24251f" opacity="0.06" transform="rotate(120.4 214.99 173.21)"/><rect x="214.48" y="658.94" width="9.35" height="2.57" rx="1" fill="#9f6865" opacity="0.04" transform="rotate(53.35 214.48 658.94)"/><rect x="1318.13" y="262.29" width="9.29" height="1.22" rx="1" fill="#9f6865" opacity="0.04" transform="rotate(171.58 1318.13 262.29)"/><rect x="155.92" y="512.5" width="19.44" height="0.89" rx="1" fill="#24251f" opacity="0.03" transform="rotate(120.88 155.92 512.5)"/><rect x="625.94" y="435.65" width="19.29" height="0.99" rx="1" fill="#24251f" opacity="0.03" transform="rotate(49.78 625.94 435.65)"/><circle cx="133.88" cy="17.57" r="1.39" fill="#9f6865" opacity="0.03"/><rect x="1274.87" y="925.44" width="25.22" height="1.29" rx="1" fill="#9f6865" opacity="0.07" transform="rotate(47.45 1274.87 925.44)"/><circle cx="962.86" cy="149.27" r="1.21" fill="#9f6865" opacity="0.04"/><circle cx="458.22" cy="592.24" r="1.94" fill="#24251f" opacity="0.04"/><rect x="1404.37" y="66.51" width="12.32" height="2.11" rx="1" fill="#9f6865" opacity="0.04" transform="rotate(17.55 1404.37 66.51)"/><rect x="755.06" y="652.2" width="7.26" height="2.43" rx="1" fill="#9f6865" opacity="0.08" transform="rotate(44.79 755.06 652.2)"/><rect x="1526.36" y="792.01" width="24.82" height="2.11" rx="1" fill="#24251f" opacity="0.07" transform="rotate(152.91 1526.36 792.01)"/><circle cx="102.43" cy="986.5" r="2.3" fill="#24251f" opacity="0.04"/><rect x="1568.79" y="593.98" width="15.58" height="0.87" rx="1" fill="#9f6865" opacity="0.07" transform="rotate(147.66 1568.79 593.98)"/><circle cx="663.23" cy="547.7" r="1.7" fill="#24251f" opacity="0.04"/><rect x="928.73" y="17.04" width="16.76" height="1.31" rx="1" fill="#9f6865" opacity="0.07" transform="rotate(159.54 928.73 17.04)"/>
  <circle cx="1350" cy="178" r="184" fill="#9f6865" opacity="0.06"/>
  <circle cx="220" cy="894" r="220" fill="#596153" opacity="0.08"/>
  <g transform="rotate(-10 465 402.5)">
    <ellipse cx="477" cy="551.6" rx="90.1" ry="28.5" fill="#1f211d" opacity="0.09"/>
    <rect x="380" y="260" width="170" height="285" rx="7" fill="#fff9f7"/>
    <circle cx="465" cy="288" r="8" fill="#f4ece9" stroke="#24251f" stroke-opacity="0.18"/>
    <text x="465" y="413.9" text-anchor="middle" class="brand" fill="#24251f" font-size="23.8">AT</text>
    <rect x="417.4" y="448.1" width="95.2" height="3" rx="2" fill="#9f6865"/>
  </g><g transform="rotate(5 625 502.5)">
    <ellipse cx="637" cy="651.6" rx="90.1" ry="28.5" fill="#1f211d" opacity="0.09"/>
    <rect x="540" y="360" width="170" height="285" rx="7" fill="#fff9f7"/>
    <circle cx="625" cy="388" r="8" fill="#f4ece9" stroke="#24251f" stroke-opacity="0.18"/>
    <text x="625" y="513.9" text-anchor="middle" class="brand" fill="#24251f" font-size="23.8">FW</text>
    <rect x="577.4" y="548.1" width="95.2" height="3" rx="2" fill="#9f6865"/>
  </g><g transform="rotate(-3 955 430)">
    <ellipse cx="971" cy="584.8" rx="227.9" ry="28" fill="#1f211d" opacity="0.11"/>
    <rect x="740" y="290" width="430" height="280" rx="10" fill="#fff9f7"/>
    <rect x="758" y="308" width="394" height="244" rx="5" fill="none" stroke="#24251f" stroke-opacity="0.11"/>
    <rect x="774" y="332" width="94.6" height="4" rx="2" fill="#9f6865" opacity="0.84"/>
    <text x="774" y="385.2" class="brand" fill="#24251f" font-size="51.6">APPOINTMENT</text>
    <text x="776" y="419.2" class="micro" fill="#24251f" opacity="0.65">BOUTIQUE CARD</text>
    <rect x="776" y="452.4" width="117.65" height="3" rx="2" fill="#24251f" opacity="0.42"/><rect x="776" y="474.4" width="176.47" height="2" rx="2" fill="#24251f" opacity="0.22"/><rect x="776" y="496.4" width="235.3" height="2" rx="2" fill="#24251f" opacity="0.22"/><rect x="776" y="518.4" width="133.13" height="2" rx="2" fill="#24251f" opacity="0.22"/>
    
  </g><g transform="rotate(6 1090 730)">
    <ellipse cx="1104" cy="846.6" rx="190.8" ry="21" fill="#1f211d" opacity="0.1"/>
    <rect x="910" y="625" width="360" height="210" rx="8" fill="#fff9f7"/>
    <path d="M 910 633 L 1090 742.6 L 1270 633" fill="none" stroke="#24251f" stroke-opacity="0.16" stroke-width="2"/>
    <path d="M 912 827 L 1061.2 721.6" fill="none" stroke="#24251f" stroke-opacity="0.11" stroke-width="2"/>
    <path d="M 1268 827 L 1118.8 721.6" fill="none" stroke="#24251f" stroke-opacity="0.11" stroke-width="2"/>
    <text x="1232" y="799" text-anchor="end" class="micro" fill="#24251f" opacity="0.55">ATELIER</text>
  </g>
  <g opacity="0.72"><text x="78" y="1004" class="micro" fill="#24251f">FASHION IDENTITY</text><text x="78" y="1036" class="micro" fill="#24251f" opacity="0.55">TEMPORARY DEMONSTRATION PORTFOLIO VISUAL / GALLERY-1</text></g>
</svg>
