<?xml version="1.0" encoding="UTF-8"?>
<svg xmlns="http://www.w3.org/2000/svg" width="1600" height="1100" viewBox="0 0 1600 1100" role="img" aria-labelledby="title desc">
  <title id="title">ATELIER hero demo portfolio mockup</title>
  <desc id="desc">Temporary fictional demonstration project imagery for portfolio presentation only, not client work.</desc>
  <defs>
    <linearGradient id="bg_atelier_hero" x1="0" y1="0" x2="1" y2="1">
      <stop offset="0%" stop-color="#fff9f7"/>
      <stop offset="58%" stop-color="#f4ece9"/>
      <stop offset="100%" stop-color="#dab4b1"/>
    </linearGradient>
    <radialGradient id="light_atelier_hero" cx="74%" cy="18%" r="64%">
      <stop offset="0%" stop-color="#ffffff" stop-opacity="0.62"/>
      <stop offset="100%" stop-color="#ffffff" stop-opacity="0"/>
    </radialGradient>
  </defs>
  <style><![CDATA[
    .brand { font-family: Didot, Georgia, serif; font-weight: 500; letter-spacing: .02em; }
    .body { font-family: Helvetica, Arial, sans-serif; font-weight: 500; }
    .micro { font-family: Helvetica, Arial, sans-serif; font-size: 20px; font-weight: 700; letter-spacing: .12em; }
  ]]></style>
  <rect width="1600" height="1100" fill="url(#bg_atelier_hero)"/>
  <rect width="1600" height="1100" fill="url(#light_atelier_hero)"/>
  <rect x="1204.66" y="696.99" width="17.53" height="1.03" rx="1" fill="#9f6865" opacity="0.07" transform="rotate(65.33 1204.66 696.99)"/><rect x="512.18" y="701.96" width="20.79" height="1.02" rx="1" fill="#9f6865" opacity="0.06" transform="rotate(31.16 512.18 701.96)"/><rect x="707.92" y="157.33" width="21.48" height="2.31" rx="1" fill="#24251f" opacity="0.07" transform="rotate(34.49 707.92 157.33)"/><circle cx="1148.19" cy="116.36" r="0.85" fill="#24251f" opacity="0.04"/><rect x="1000.28" y="263.81" width="22.21" height="0.93" rx="1" fill="#9f6865" opacity="0.04" transform="rotate(108.98 1000.28 263.81)"/><rect x="1210.09" y="268.84" width="21.6" height="1.65" rx="1" fill="#24251f" opacity="0.04" transform="rotate(53.81 1210.09 268.84)"/><rect x="990.05" y="752.93" width="22.6" height="2.07" rx="1" fill="#24251f" opacity="0.07" transform="rotate(164.88 990.05 752.93)"/><rect x="1136.67" y="554.04" width="15.17" height="1.14" rx="1" fill="#9f6865" opacity="0.04" transform="rotate(148.17 1136.67 554.04)"/><rect x="1060.77" y="338.44" width="6.08" height="2.5" rx="1" fill="#9f6865" opacity="0.03" transform="rotate(85.66 1060.77 338.44)"/><rect x="94.94" y="1029.17" width="23.34" height="2.55" rx="1" fill="#24251f" opacity="0.06" transform="rotate(170.32 94.94 1029.17)"/><rect x="1073.29" y="662.44" width="14.34" height="0.95" rx="1" fill="#24251f" opacity="0.06" transform="rotate(11.54 1073.29 662.44)"/><rect x="151.48" y="1049.08" width="19.59" height="1.8" rx="1" fill="#9f6865" opacity="0.07" transform="rotate(0.96 151.48 1049.08)"/><rect x="1456.39" y="232" width="6.85" height="2.08" rx="1" fill="#9f6865" opacity="0.05" transform="rotate(56.62 1456.39 232)"/><rect x="1316.62" y="182.38" width="27.77" height="1.18" rx="1" fill="#9f6865" opacity="0.05" transform="rotate(136.85 1316.62 182.38)"/><circle cx="1547.43" cy="312.32" r="1.55" fill="#24251f" opacity="0.03"/><rect x="583" y="420.94" width="12.48" height="2.09" rx="1" fill="#9f6865" opacity="0.03" transform="rotate(117.14 583 420.94)"/><circle cx="522.9" cy="9.97" r="1.93" fill="#9f6865" opacity="0.04"/><circle cx="1146.06" cy="886.39" r="1.12" fill="#9f6865" opacity="0.04"/><circle cx="95.82" cy="980.28" r="1.66" fill="#9f6865" opacity="0.05"/><rect x="323.75" y="729.49" width="17.53" height="1.03" rx="1" fill="#24251f" opacity="0.05" transform="rotate(112.5 323.75 729.49)"/><circle cx="1176.53" cy="727.58" r="2.05" fill="#24251f" opacity="0.03"/><circle cx="158.59" cy="578.11" r="1.08" fill="#24251f" opacity="0.05"/><rect x="164.06" y="141.32" width="27.81" height="1.22" rx="1" fill="#24251f" opacity="0.06" transform="rotate(101.82 164.06 141.32)"/><rect x="442.42" y="1072.89" width="8.45" height="0.98" rx="1" fill="#9f6865" opacity="0.04" transform="rotate(22.59 442.42 1072.89)"/><rect x="39.42" y="685.44" width="16.59" height="2.25" rx="1" fill="#9f6865" opacity="0.03" transform="rotate(146.75 39.42 685.44)"/><rect x="71.4" y="766.61" width="21" height="1.42" rx="1" fill="#24251f" opacity="0.05" transform="rotate(103.42 71.4 766.61)"/><circle cx="997.48" cy="141.75" r="1.17" fill="#24251f" opacity="0.04"/><circle cx="101.96" cy="635.06" r="1.68" fill="#24251f" opacity="0.04"/><rect x="1164.41" y="764.78" width="7.51" height="0.91" rx="1" fill="#24251f" opacity="0.08" transform="rotate(124.38 1164.41 764.78)"/><circle cx="1077.59" cy="612.91" r="0.9" fill="#24251f" opacity="0.07"/><circle cx="487.32" cy="1073.84" r="1.63" fill="#9f6865" opacity="0.03"/><circle cx="126.16" cy="91.76" r="1.52" fill="#24251f" opacity="0.04"/><rect x="1161.05" y="253.79" width="12.4" height="2.08" rx="1" fill="#24251f" opacity="0.06" transform="rotate(56.98 1161.05 253.79)"/><circle cx="255.14" cy="26.67" r="2.24" fill="#9f6865" opacity="0.08"/><rect x="1386.59" y="409.3" width="13.9" height="1.47" rx="1" fill="#9f6865" opacity="0.05" transform="rotate(85.83 1386.59 409.3)"/><rect x="822.1" y="79.44" width="22.7" height="0.95" rx="1" fill="#24251f" opacity="0.06" transform="rotate(117.65 822.1 79.44)"/><rect x="1349.25" y="372.34" width="9.03" height="1.15" rx="1" fill="#24251f" opacity="0.06" transform="rotate(112.14 1349.25 372.34)"/><rect x="59.71" y="831.71" width="6.68" height="1.03" rx="1" fill="#24251f" opacity="0.04" transform="rotate(114.29 59.71 831.71)"/><circle cx="100.55" cy="519.8" r="2.1" fill="#9f6865" opacity="0.06"/><rect x="1225.22" y="339.74" width="24.11" height="1.69" rx="1" fill="#9f6865" opacity="0.06" transform="rotate(130.34 1225.22 339.74)"/><circle cx="1305.95" cy="403.61" r="1.07" fill="#9f6865" opacity="0.03"/><rect x="1586.28" y="633.18" width="7.99" height="1.73" rx="1" fill="#9f6865" opacity="0.04" transform="rotate(133.26 1586.28 633.18)"/><circle cx="1575.96" cy="653.82" r="2.29" fill="#9f6865" opacity="0.03"/><circle cx="1239.58" cy="754.31" r="1.71" fill="#9f6865" opacity="0.03"/><rect x="264.9" y="499.63" width="21.42" height="2.24" rx="1" fill="#24251f" opacity="0.07" transform="rotate(156.21 264.9 499.63)"/><rect x="176.87" y="3.26" width="24.21" height="0.89" rx="1" fill="#24251f" opacity="0.04" transform="rotate(24.86 176.87 3.26)"/><rect x="73.79" y="168.52" width="26.01" height="1.59" rx="1" fill="#9f6865" opacity="0.08" transform="rotate(90.18 73.79 168.52)"/><rect x="694.28" y="682.97" width="12.11" height="1.95" rx="1" fill="#24251f" opacity="0.03" transform="rotate(154.26 694.28 682.97)"/><circle cx="102.16" cy="153.59" r="0.72" fill="#9f6865" opacity="0.05"/><rect x="1525.94" y="60.65" width="26.74" height="1.73" rx="1" fill="#9f6865" opacity="0.06" transform="rotate(62.16 1525.94 60.65)"/><circle cx="1204.33" cy="810.11" r="1.98" fill="#9f6865" opacity="0.03"/><rect x="1310.54" y="251.26" width="12.68" height="2.29" rx="1" fill="#24251f" opacity="0.05" transform="rotate(68.66 1310.54 251.26)"/><circle cx="390.01" cy="889.66" r="1.72" fill="#9f6865" opacity="0.04"/><circle cx="982.83" cy="508.86" r="1.2" fill="#24251f" opacity="0.07"/><rect x="1419.43" y="888.56" width="27.22" height="2.53" rx="1" fill="#24251f" opacity="0.03" transform="rotate(16.3 1419.43 888.56)"/><rect x="388.13" y="1078.35" width="26.78" height="1.91" rx="1" fill="#9f6865" opacity="0.08" transform="rotate(105.61 388.13 1078.35)"/><circle cx="509.21" cy="584.77" r="2.17" fill="#9f6865" opacity="0.04"/><rect x="251.21" y="850.55" width="11.3" height="2.15" rx="1" fill="#9f6865" opacity="0.04" transform="rotate(114.16 251.21 850.55)"/><rect x="72.64" y="643.18" width="6.95" height="1.65" rx="1" fill="#9f6865" opacity="0.06" transform="rotate(117.84 72.64 643.18)"/><rect x="949.58" y="402.88" width="21.95" height="1.13" rx="1" fill="#9f6865" opacity="0.08" transform="rotate(103.99 949.58 402.88)"/><rect x="865.42" y="445.72" width="27.92" height="1.57" rx="1" fill="#24251f" opacity="0.04" transform="rotate(157.97 865.42 445.72)"/><rect x="238.1" y="644.67" width="26.8" height="1" rx="1" fill="#9f6865" opacity="0.06" transform="rotate(125.89 238.1 644.67)"/><circle cx="528.34" cy="41.1" r="0.83" fill="#24251f" opacity="0.06"/><rect x="751.47" y="120.35" width="26.21" height="2.51" rx="1" fill="#24251f" opacity="0.07" transform="rotate(111.26 751.47 120.35)"/><circle cx="892.3" cy="868.73" r="2.05" fill="#24251f" opacity="0.03"/><rect x="656.02" y="339.86" width="18.35" height="0.9" rx="1" fill="#24251f" opacity="0.06" transform="rotate(162.99 656.02 339.86)"/><rect x="995.66" y="603.34" width="8.24" height="1.03" rx="1" fill="#9f6865" opacity="0.04" transform="rotate(36.77 995.66 603.34)"/><circle cx="1136.21" cy="347.28" r="1.8" fill="#24251f" opacity="0.07"/><rect x="1170.55" y="776" width="15.38" height="1.15" rx="1" fill="#24251f" opacity="0.06" transform="rotate(170.01 1170.55 776)"/><rect x="190.86" y="767.74" width="27.36" height="0.82" rx="1" fill="#24251f" opacity="0.05" transform="rotate(148.54 190.86 767.74)"/><rect x="1012.89" y="559.28" width="8.77" height="2.18" rx="1" fill="#24251f" opacity="0.07" transform="rotate(102.8 1012.89 559.28)"/><circle cx="225.92" cy="1045.23" r="0.88" fill="#9f6865" opacity="0.05"/><rect x="571.6" y="332.93" width="10.32" height="0.96" rx="1" fill="#9f6865" opacity="0.08" transform="rotate(20.7 571.6 332.93)"/><rect x="884.7" y="598.94" width="11.2" height="1.81" rx="1" fill="#9f6865" opacity="0.03" transform="rotate(156.65 884.7 598.94)"/><circle cx="923.98" cy="230.75" r="1.11" fill="#24251f" opacity="0.03"/><circle cx="970.4" cy="202.15" r="0.79" fill="#24251f" opacity="0.06"/><rect x="1273.83" y="418.97" width="13.7" height="1.21" rx="1" fill="#24251f" opacity="0.06" transform="rotate(116.69 1273.83 418.97)"/><rect x="823.6" y="953.74" width="12.04" height="1.64" rx="1" fill="#9f6865" opacity="0.07" transform="rotate(91.61 823.6 953.74)"/><circle cx="284.33" cy="556.45" r="0.79" fill="#9f6865" opacity="0.03"/><rect x="528.86" y="1035.15" width="6.47" height="1.46" rx="1" fill="#9f6865" opacity="0.05" transform="rotate(163.86 528.86 1035.15)"/><rect x="114.17" y="920.78" width="26.79" height="0.96" rx="1" fill="#24251f" opacity="0.07" transform="rotate(4.47 114.17 920.78)"/><circle cx="1370.8" cy="1075.87" r="0.82" fill="#24251f" opacity="0.03"/><rect x="322.24" y="840.57" width="12.37" height="0.86" rx="1" fill="#9f6865" opacity="0.06" transform="rotate(170.41 322.24 840.57)"/><circle cx="569.47" cy="584.07" r="1.45" fill="#24251f" opacity="0.03"/><circle cx="132.24" cy="847.38" r="1.42" fill="#9f6865" opacity="0.05"/><circle cx="645.89" cy="793.84" r="0.87" fill="#24251f" opacity="0.06"/><rect x="1302.32" y="843.56" width="20.78" height="1.59" rx="1" fill="#9f6865" opacity="0.08" transform="rotate(77.23 1302.32 843.56)"/><rect x="1123.75" y="186.92" width="26.06" height="1.29" rx="1" fill="#24251f" opacity="0.05" transform="rotate(176.59 1123.75 186.92)"/><rect x="162.68" y="308.58" width="9.31" height="1.77" rx="1" fill="#9f6865" opacity="0.05" transform="rotate(32.16 162.68 308.58)"/><rect x="235.68" y="621.88" width="13.14" height="1.72" rx="1" fill="#9f6865" opacity="0.06" transform="rotate(146.3 235.68 621.88)"/><rect x="580.79" y="808.19" width="18.84" height="2.34" rx="1" fill="#9f6865" opacity="0.07" transform="rotate(53.85 580.79 808.19)"/><rect x="488.25" y="1039.93" width="10.88" height="1.62" rx="1" fill="#24251f" opacity="0.04" transform="rotate(92.08 488.25 1039.93)"/><rect x="59.33" y="471.07" width="26.66" height="2.15" rx="1" fill="#24251f" opacity="0.08" transform="rotate(105.1 59.33 471.07)"/><circle cx="1534.15" cy="110.19" r="0.91" fill="#24251f" opacity="0.03"/><circle cx="877.4" cy="910.32" r="1.53" fill="#9f6865" opacity="0.07"/><rect x="1190.72" y="220.64" width="18.17" height="1.42" rx="1" fill="#24251f" opacity="0.06" transform="rotate(11.13 1190.72 220.64)"/><circle cx="1494.12" cy="646.97" r="2.25" fill="#9f6865" opacity="0.07"/><circle cx="1113.05" cy="187.57" r="2.22" fill="#9f6865" opacity="0.06"/><circle cx="18.82" cy="191.84" r="1.21" fill="#9f6865" opacity="0.08"/><circle cx="1164.27" cy="648.89" r="1.87" fill="#9f6865" opacity="0.08"/><circle cx="312.84" cy="650.05" r="1.11" fill="#9f6865" opacity="0.05"/><rect x="25.08" y="360.63" width="12.94" height="2" rx="1" fill="#9f6865" opacity="0.05" transform="rotate(96.75 25.08 360.63)"/><circle cx="861.05" cy="878.57" r="1.31" fill="#9f6865" opacity="0.04"/><circle cx="1036.14" cy="479.28" r="1.75" fill="#9f6865" opacity="0.08"/><rect x="787.78" y="1073.03" width="12.59" height="1.24" rx="1" fill="#9f6865" opacity="0.04" transform="rotate(31.87 787.78 1073.03)"/><rect x="500.16" y="171.42" width="25.34" height="1.93" rx="1" fill="#9f6865" opacity="0.07" transform="rotate(119.1 500.16 171.42)"/><rect x="989" y="432.15" width="20.84" height="2.01" rx="1" fill="#24251f" opacity="0.05" transform="rotate(10.29 989 432.15)"/><rect x="82.32" y="947.11" width="16.91" height="1.86" rx="1" fill="#9f6865" opacity="0.05" transform="rotate(1.42 82.32 947.11)"/><circle cx="1443.05" cy="135.36" r="2.28" fill="#9f6865" opacity="0.06"/><rect x="283.69" y="16.12" width="18.08" height="2.15" rx="1" fill="#24251f" opacity="0.07" transform="rotate(103.19 283.69 16.12)"/><rect x="1574.75" y="426.2" width="26.42" height="2.54" rx="1" fill="#9f6865" opacity="0.05" transform="rotate(112.83 1574.75 426.2)"/><circle cx="743" cy="820.83" r="1.25" fill="#9f6865" opacity="0.04"/><rect x="1509.05" y="80.96" width="25.82" height="2.04" rx="1" fill="#9f6865" opacity="0.03" transform="rotate(4.28 1509.05 80.96)"/><circle cx="103.97" cy="994.86" r="2.29" fill="#24251f" opacity="0.03"/><circle cx="145.21" cy="97.62" r="1.42" fill="#9f6865" opacity="0.03"/><rect x="19.7" y="613.35" width="19.39" height="1.82" rx="1" fill="#24251f" opacity="0.03" transform="rotate(43.72 19.7 613.35)"/><rect x="853" y="670.17" width="19.98" height="2.14" rx="1" fill="#9f6865" opacity="0.06" transform="rotate(96.77 853 670.17)"/><circle cx="1505.87" cy="413.7" r="1.53" fill="#24251f" opacity="0.08"/><circle cx="762.23" cy="861.72" r="1.95" fill="#24251f" opacity="0.05"/><rect x="939.87" y="1022.42" width="19.98" height="1.35" rx="1" fill="#24251f" opacity="0.05" transform="rotate(134.97 939.87 1022.42)"/><rect x="1150.84" y="926.29" width="20.32" height="2.47" rx="1" fill="#9f6865" opacity="0.06" transform="rotate(19.74 1150.84 926.29)"/><circle cx="462.97" cy="1092.46" r="2.26" fill="#24251f" opacity="0.06"/><rect x="228.07" y="561.87" width="13.64" height="1.76" rx="1" fill="#9f6865" opacity="0.07" transform="rotate(55.95 228.07 561.87)"/><circle cx="1573.8" cy="393.94" r="1.66" fill="#24251f" opacity="0.06"/><rect x="654.24" y="726.66" width="22.47" height="1.21" rx="1" fill="#9f6865" opacity="0.05" transform="rotate(59.28 654.24 726.66)"/><circle cx="197.11" cy="285.71" r="1.78" fill="#9f6865" opacity="0.07"/><circle cx="280.01" cy="47.37" r="1.32" fill="#24251f" opacity="0.04"/><rect x="291.55" y="517.46" width="22.3" height="2.03" rx="1" fill="#24251f" opacity="0.06" transform="rotate(27.76 291.55 517.46)"/><rect x="881.94" y="1089.78" width="6.43" height="1.62" rx="1" fill="#24251f" opacity="0.05" transform="rotate(11.13 881.94 1089.78)"/><rect x="1232.85" y="892.17" width="9.23" height="2.43" rx="1" fill="#9f6865" opacity="0.05" transform="rotate(74.49 1232.85 892.17)"/><circle cx="835.15" cy="1019.47" r="2.09" fill="#9f6865" opacity="0.07"/><circle cx="915.7" cy="903.51" r="1.82" fill="#9f6865" opacity="0.06"/><rect x="241.62" y="258.13" width="10.2" height="1.93" rx="1" fill="#9f6865" opacity="0.07" transform="rotate(173.51 241.62 258.13)"/><rect x="469.11" y="764.6" width="25.67" height="1.92" rx="1" fill="#9f6865" opacity="0.03" transform="rotate(12.33 469.11 764.6)"/><rect x="1497.02" y="606.18" width="6.05" height="1.36" rx="1" fill="#24251f" opacity="0.08" transform="rotate(177.38 1497.02 606.18)"/><circle cx="367.92" cy="820.73" r="1.24" fill="#24251f" opacity="0.05"/><rect x="1522.57" y="420.37" width="13.59" height="1.64" rx="1" fill="#9f6865" opacity="0.07" transform="rotate(40.02 1522.57 420.37)"/><rect x="1097.86" y="1085.47" width="23.85" height="1.13" rx="1" fill="#9f6865" opacity="0.07" transform="rotate(133.99 1097.86 1085.47)"/><circle cx="1500.16" cy="573.88" r="0.74" fill="#24251f" opacity="0.04"/><rect x="413" y="515.28" width="16.19" height="1.27" rx="1" fill="#24251f" opacity="0.03" transform="rotate(19.97 413 515.28)"/>
  <circle cx="1350" cy="178" r="184" fill="#9f6865" opacity="0.06"/>
  <circle cx="220" cy="894" r="220" fill="#596153" opacity="0.08"/>
  <g transform="rotate(-5 436 505)">
    <ellipse cx="433" cy="878.82" rx="174.9" ry="11.44" fill="#1f211d" opacity="0.12"/>
    <path d="M 310 289 C 320 229, 510 229, 520 289" fill="none" stroke="#303229" stroke-width="7" opacity="0.7"/>
    <rect x="250" y="285" width="330" height="480" rx="8" fill="#fff9f7"/>
    <polygon points="580,285 622,315 622,745 580,765" fill="#dab4b1"/>
    <text x="415" y="494.6" text-anchor="middle" class="brand" fill="#24251f" font-size="49.5">ATELIER</text>
    <rect x="349" y="531" width="132" height="4" rx="2" fill="#9f6865"/>
  </g><g transform="rotate(5 940 520)">
    <ellipse cx="958" cy="746.4" rx="371" ry="44" fill="#1f211d" opacity="0.12"/>
    <rect x="590" y="300" width="700" height="440" rx="6" fill="#fff9f7"/>
    <rect x="939" y="324" width="2" height="392" fill="#24251f" opacity="0.12"/>
    <rect x="622" y="340" width="280" height="360" rx="4" fill="#dab4b1"/>
    <path d="M 640 572.8 C 685 493.6, 755 621.2, 888 449.6" fill="none" stroke="#fff9f7" stroke-width="5" opacity="0.72"/>
    <text x="984" y="388" class="brand" fill="#24251f" font-size="38.5">LOOKBOOK</text>
    <rect x="984" y="438" width="98.8" height="3" rx="2" fill="#24251f" opacity="0.42"/><rect x="984" y="460" width="148.2" height="2" rx="2" fill="#24251f" opacity="0.22"/><rect x="984" y="482" width="197.6" height="2" rx="2" fill="#24251f" opacity="0.22"/><rect x="984" y="504" width="111.8" height="2" rx="2" fill="#24251f" opacity="0.22"/><rect x="984" y="526" width="161.2" height="2" rx="2" fill="#24251f" opacity="0.22"/><rect x="984" y="548" width="210.6" height="2" rx="2" fill="#24251f" opacity="0.22"/><rect x="984" y="570" width="124.8" height="2" rx="2" fill="#24251f" opacity="0.22"/><rect x="984" y="592" width="174.2" height="2" rx="2" fill="#24251f" opacity="0.22"/><rect x="984" y="614" width="223.6" height="2" rx="2" fill="#24251f" opacity="0.22"/>
  </g><g transform="rotate(10 1187.5 315)">
    <ellipse cx="1199.5" cy="452.6" rx="82.15" ry="26" fill="#1f211d" opacity="0.09"/>
    <rect x="1110" y="185" width="155" height="260" rx="7" fill="#fff9f7"/>
    <circle cx="1187.5" cy="213" r="8" fill="#f4ece9" stroke="#24251f" stroke-opacity="0.18"/>
    <text x="1187.5" y="325.4" text-anchor="middle" class="brand" fill="#24251f" font-size="21.7">AT</text>
    <rect x="1144.1" y="356.6" width="86.8" height="3" rx="2" fill="#9f6865"/>
  </g><g transform="rotate(-7 1315 575)">
    <ellipse cx="1327" cy="708" rx="79.5" ry="25" fill="#1f211d" opacity="0.09"/>
    <rect x="1240" y="450" width="150" height="250" rx="7" fill="#fff9f7"/>
    <circle cx="1315" cy="478" r="8" fill="#f4ece9" stroke="#24251f" stroke-opacity="0.18"/>
    <text x="1315" y="585" text-anchor="middle" class="brand" fill="#24251f" font-size="21">FW</text>
    <rect x="1273" y="615" width="84" height="3" rx="2" fill="#9f6865"/>
  </g><g transform="rotate(-3 1005 822)">
    <ellipse cx="1021" cy="924.8" rx="227.9" ry="18" fill="#1f211d" opacity="0.1"/>
    <rect x="790" y="732" width="430" height="180" rx="7" fill="#dab4b1"/>
    <text x="840" y="796" class="micro" fill="#24251f" opacity="0.25">AT</text><text x="917.4" y="796" class="micro" fill="#24251f" opacity="0.25">AT</text><text x="994.8" y="796" class="micro" fill="#24251f" opacity="0.25">AT</text><text x="1072.2" y="796" class="micro" fill="#24251f" opacity="0.25">AT</text><text x="1149.6" y="796" class="micro" fill="#24251f" opacity="0.25">AT</text><text x="840" y="835.6" class="micro" fill="#24251f" opacity="0.25">AT</text><text x="917.4" y="835.6" class="micro" fill="#24251f" opacity="0.25">AT</text><text x="994.8" y="835.6" class="micro" fill="#24251f" opacity="0.25">AT</text><text x="1072.2" y="835.6" class="micro" fill="#24251f" opacity="0.25">AT</text><text x="1149.6" y="835.6" class="micro" fill="#24251f" opacity="0.25">AT</text><text x="840" y="875.2" class="micro" fill="#24251f" opacity="0.25">AT</text><text x="917.4" y="875.2" class="micro" fill="#24251f" opacity="0.25">AT</text><text x="994.8" y="875.2" class="micro" fill="#24251f" opacity="0.25">AT</text><text x="1072.2" y="875.2" class="micro" fill="#24251f" opacity="0.25">AT</text><text x="1149.6" y="875.2" class="micro" fill="#24251f" opacity="0.25">AT</text><text x="840" y="914.8" class="micro" fill="#24251f" opacity="0.25">AT</text><text x="917.4" y="914.8" class="micro" fill="#24251f" opacity="0.25">AT</text><text x="994.8" y="914.8" class="micro" fill="#24251f" opacity="0.25">AT</text><text x="1072.2" y="914.8" class="micro" fill="#24251f" opacity="0.25">AT</text><text x="1149.6" y="914.8" class="micro" fill="#24251f" opacity="0.25">AT</text>
  </g>
  <g opacity="0.72"><text x="78" y="1004" class="micro" fill="#24251f">FASHION IDENTITY</text><text x="78" y="1036" class="micro" fill="#24251f" opacity="0.55">TEMPORARY DEMONSTRATION PORTFOLIO VISUAL / HERO</text></g>
</svg>
